999
dxfrw 0.6.3
  0
SECTION
  2
HEADER
  9
$ACADVER
  1
AC1021
  9
$DWGCODEPAGE
  3
ANSI_1252
  9
$INSBASE
 10
0
 20
0
 30
0
  9
$EXTMIN
 10
142.6658145996092
 20
65.16101084902296
 30
0
  9
$EXTMAX
 10
1184.354482929753
 20
634.5000000000005
 30
0
  9
$LIMMIN
 10
0
 20
0
  9
$LIMMAX
 10
420
 20
297
  9
$ORTHOMODE
 70
    0
  9
$REGENMODE
 70
    1
  9
$FILLMODE
 70
    1
  9
$QTEXTMODE
 70
    0
  9
$MIRRTEXT
 70
    0
  9
$LTSCALE
 40
1
  9
$ATTMODE
 70
    0
  9
$TEXTSIZE
 40
2.5
  9
$TRACEWID
 40
15.68
  9
$TEXTSTYLE
  7
STANDARD
  9
$CLAYER
  8
construction
  9
$CELTYPE
  6
BYLAYER
  9
$CECOLOR
 62
  256
  9
$CELTSCALE
 40
1
  9
$DISPSILH
 70
    0
  9
$DIMSCALE
 40
2.5
  9
$DIMASZ
 40
2.5
  9
$DIMEXO
 40
0.625
  9
$DIMDLI
 40
3.75
  9
$DIMRND
 40
0
  9
$DIMDLE
 40
0
  9
$DIMEXE
 40
1.25
  9
$DIMTP
 40
0
  9
$DIMTM
 40
0
  9
$DIMTXT
 40
2.5
  9
$DIMCEN
 40
2.5
  9
$DIMTSZ
 40
0
  9
$DIMTOL
 70
    0
  9
$DIMLIM
 70
    0
  9
$DIMTIH
 70
    0
  9
$DIMTOH
 70
    0
  9
$DIMSE1
 70
    0
  9
$DIMSE2
 70
    0
  9
$DIMTAD
 70
    1
  9
$DIMZIN
 70
    8
  9
$DIMBLK
  1

  9
$DIMASO
 70
    1
  9
$DIMSHO
 70
    1
  9
$DIMPOST
  1

  9
$DIMAPOST
  1

  9
$DIMALT
 70
    0
  9
$DIMALTD
 70
    3
  9
$DIMALTF
 40
0.03937
  9
$DIMLFAC
 40
1
  9
$DIMTOFL
 70
    1
  9
$DIMTVP
 40
0
  9
$DIMTIX
 70
    0
  9
$DIMSOXD
 70
    0
  9
$DIMSAH
 70
    0
  9
$DIMBLK1
  1

  9
$DIMBLK2
  1

  9
$DIMSTYLE
  2
STANDARD
  9
$DIMCLRD
 70
    0
  9
$DIMCLRE
 70
    0
  9
$DIMCLRT
 70
    0
  9
$DIMTFAC
 40
1
  9
$DIMGAP
 40
0.625
  9
$DIMJUST
 70
    0
  9
$DIMSD1
 70
    0
  9
$DIMSD2
 70
    0
  9
$DIMTOLJ
 70
    0
  9
$DIMTZIN
 70
    8
  9
$DIMALTZ
 70
    0
  9
$DIMALTTZ
 70
    0
  9
$DIMUPT
 70
    0
  9
$DIMDEC
 70
    2
  9
$DIMTDEC
 70
    2
  9
$DIMALTU
 70
    2
  9
$DIMALTTD
 70
    3
  9
$DIMTXSTY
  7
STANDARD
  9
$DIMAUNIT
 70
    0
  9
$DIMADEC
 70
    0
  9
$DIMALTRND
 40
0
  9
$DIMAZIN
 70
    0
  9
$DIMDSEP
 70
   44
  9
$DIMATFIT
 70
    3
  9
$DIMFRAC
 70
    0
  9
$DIMLDRBLK
  1
STANDARD
  9
$DIMLUNIT
 70
    2
  9
$DIMLWD
 70
   -2
  9
$DIMLWE
 70
   -2
  9
$DIMTMOVE
 70
    0
  9
$DIMFXL
 40
1
  9
$DIMFXLON
 70
    0
  9
$DIMJOGANG
 40
0.7854
  9
$DIMTFILL
 70
    0
  9
$DIMTFILLCLR
 70
    0
  9
$DIMARCSYM
 70
    0
  9
$DIMLTYPE
  6

  9
$DIMLTEX1
  6

  9
$DIMLTEX2
  6

  9
$LUNITS
 70
    2
  9
$LUPREC
 70
    4
  9
$SKETCHINC
 40
1
  9
$FILLETRAD
 40
0
  9
$AUNITS
 70
    0
  9
$AUPREC
 70
    2
  9
$MENU
  1
.
  9
$ELEVATION
 40
0
  9
$PELEVATION
 40
0
  9
$THICKNESS
 40
0
  9
$LIMCHECK
 70
    0
  9
$CHAMFERA
 40
0
  9
$CHAMFERB
 40
0
  9
$CHAMFERC
 40
0
  9
$CHAMFERD
 40
0
  9
$SKPOLY
 70
    0
  9
$USRTIMER
 70
    1
  9
$ANGBASE
 50
0
  9
$ANGDIR
 70
    0
  9
$PDMODE
 70
   34
  9
$PDSIZE
 40
0
  9
$PLINEWID
 40
0
  9
$SPLFRAME
 70
    0
  9
$SPLINETYPE
 70
    2
  9
$SPLINESEGS
 70
    8
  9
$HANDSEED
  5
20000
  9
$SURFTAB1
 70
    6
  9
$SURFTAB2
 70
    6
  9
$SURFTYPE
 70
    6
  9
$SURFU
 70
    6
  9
$SURFV
 70
    6
  9
$UCSBASE
  2

  9
$UCSNAME
  2

  9
$UCSORG
 10
0
 20
0
 30
0
  9
$UCSXDIR
 10
1
 20
0
 30
0
  9
$UCSYDIR
 10
0
 20
1
 30
0
  9
$UCSORTHOREF
  2

  9
$UCSORTHOVIEW
 70
    0
  9
$UCSORGTOP
 10
0
 20
0
 30
0
  9
$UCSORGBOTTOM
 10
0
 20
0
 30
0
  9
$UCSORGLEFT
 10
0
 20
0
 30
0
  9
$UCSORGRIGHT
 10
0
 20
0
 30
0
  9
$UCSORGFRONT
 10
0
 20
0
 30
0
  9
$UCSORGBACK
 10
0
 20
0
 30
0
  9
$PUCSBASE
  2

  9
$PUCSNAME
  2

  9
$PUCSORG
 10
0
 20
0
 30
0
  9
$PUCSXDIR
 10
1
 20
0
 30
0
  9
$PUCSYDIR
 10
0
 20
1
 30
0
  9
$PUCSORTHOREF
  2

  9
$PUCSORTHOVIEW
 70
    0
  9
$PUCSORGTOP
 10
0
 20
0
 30
0
  9
$PUCSORGBOTTOM
 10
0
 20
0
 30
0
  9
$PUCSORGLEFT
 10
0
 20
0
 30
0
  9
$PUCSORGRIGHT
 10
0
 20
0
 30
0
  9
$PUCSORGFRONT
 10
0
 20
0
 30
0
  9
$PUCSORGBACK
 10
0
 20
0
 30
0
  9
$USERI1
 70
    0
  9
$USERI2
 70
    0
  9
$USERI3
 70
    0
  9
$USERI4
 70
    0
  9
$USERI5
 70
    0
  9
$USERR1
 40
0
  9
$USERR2
 40
0
  9
$USERR3
 40
0
  9
$USERR4
 40
0
  9
$USERR5
 40
0
  9
$WORLDVIEW
 70
    1
  9
$SHADEDGE
 70
    3
  9
$SHADEDIF
 70
   70
  9
$TILEMODE
 70
    1
  9
$MAXACTVP
 70
   64
  9
$PINSBASE
 10
0
 20
0
 30
0
  9
$PLIMCHECK
 70
    0
  9
$PEXTMIN
 10
0
 20
0
 30
0
  9
$PEXTMAX
 10
0
 20
0
 30
0
  9
$GRIDMODE
 70
    1
  9
$SNAPSTYLE
 70
    0
  9
$PLIMMIN
 10
0
 20
0
  9
$PLIMMAX
 10
297
 20
210
  9
$UNITMODE
 70
    0
  9
$VISRETAIN
 70
    1
  9
$PLINEGEN
 70
    0
  9
$PSLTSCALE
 70
    1
  9
$TREEDEPTH
 70
 3020
  9
$CMLSTYLE
  2
Standard
  9
$CMLJUST
 70
    0
  9
$CMLSCALE
 40
20
  9
$PROXYGRAPHICS
 70
    1
  9
$MEASUREMENT
 70
    1
  9
$CELWEIGHT
370
   -1
  9
$ENDCAPS
280
    0
  9
$JOINSTYLE
280
    0
  9
$LWDISPLAY
290
    0
  9
$INSUNITS
 70
    4
  9
$HYPERLINKBASE
  1

  9
$STYLESHEET
  1

  9
$XEDIT
290
    1
  9
$CEPSNTYPE
380
    0
  9
$PSTYLEMODE
290
    1
  9
$EXTNAMES
290
    1
  9
$PSVPSCALE
 40
1
  9
$OLESTARTUP
290
    0
  9
$SORTENTS
280
  127
  9
$INDEXCTL
280
    0
  9
$HIDETEXT
280
    1
  9
$XCLIPFRAME
290
    0
  9
$HALOGAP
280
    0
  9
$OBSCOLOR
 70
  257
  9
$OBSLTYPE
280
    0
  9
$INTERSECTIONDISPLAY
280
    0
  9
$INTERSECTIONCOLOR
 70
  257
  9
$DIMASSOC
280
    1
  9
$PROJECTNAME
  1

  9
$CAMERADISPLAY
290
    0
  9
$LENSLENGTH
 40
50
  9
$CAMERAHEIGHT
 40
0
  9
$STEPSPERSEC
 40
2
  9
$STEPSIZE
 40
50
  9
$3DDWFPREC
 40
2
  9
$PSOLWIDTH
 40
5
  9
$PSOLHEIGHT
 40
80
  9
$LOFTANG1
 40
1.570796326794897
  9
$LOFTANG2
 40
1.570796326794897
  9
$LOFTMAG1
 40
0
  9
$LOFTMAG2
 40
0
  9
$LOFTPARAM
 70
    7
  9
$LOFTNORMALS
280
    1
  9
$LATITUDE
 40
1
  9
$LONGITUDE
 40
1
  9
$NORTHDIRECTION
 40
0
  9
$TIMEZONE
 70
-8000
  9
$LIGHTGLYPHDISPLAY
280
    1
  9
$TILEMODELIGHTSYNCH
280
    1
  9
$SOLIDHIST
280
    1
  9
$SHOWHIST
280
    1
  9
$DWFFRAME
280
    2
  9
$DGNFRAME
280
    0
  9
$REALWORLDSCALE
290
    1
  9
$INTERFERECOLOR
 62
    1
  9
$CSHADOW
280
    0
  9
$SHADOWPLANELOCATION
 40
0
  0
ENDSEC
  0
SECTION
  2
CLASSES
  0
ENDSEC
  0
SECTION
  2
TABLES
  0
TABLE
  2
VPORT
  5
8
330
0
100
AcDbSymbolTable
 70
    1
  0
VPORT
  5
31
330
2
100
AcDbSymbolTableRecord
100
AcDbViewportTableRecord
  2
*ACTIVE
 70
    0
 10
0
 20
0
 11
1
 21
1
 12
934.8533341093028
 22
454.5617129155326
 13
0
 23
0
 14
10
 24
10
 15
10
 25
10
 16
0
 26
0
 36
1
 17
0
 27
0
 37
0
 40
1408.283646428876
 41
1.514007308160779
 42
50
 43
0
 44
0
 50
0
 51
0
 71
    0
 72
  100
 73
    1
 74
    3
 75
    0
 76
    1
 77
    0
 78
    0
281
    0
 65
    1
110
0
120
0
130
0
111
1
121
0
131
0
112
0
122
1
132
0
 79
    0
146
0
348
10020
 60
    7
 61
    5
292
1
282
    1
141
0
142
0
 63
  250
421
3358443
  0
ENDTAB
  0
TABLE
  2
LTYPE
  5
5
330
0
100
AcDbSymbolTable
 70
    4
  0
LTYPE
  5
14
330
5
100
AcDbSymbolTableRecord
100
AcDbLinetypeTableRecord
  2
ByBlock
 70
    0
  3

 72
   65
 73
    0
 40
0
  0
LTYPE
  5
15
330
5
100
AcDbSymbolTableRecord
100
AcDbLinetypeTableRecord
  2
ByLayer
 70
    0
  3

 72
   65
 73
    0
 40
0
  0
LTYPE
  5
16
330
5
100
AcDbSymbolTableRecord
100
AcDbLinetypeTableRecord
  2
Continuous
 70
    0
  3
Solid line
 72
   65
 73
    0
 40
0
  0
LTYPE
  5
32
330
5
100
AcDbSymbolTableRecord
100
AcDbLinetypeTableRecord
  2
DOT
 70
    0
  3
Dot . . . . . . . . . . . . . . . . . . . . . .
 72
   65
 73
    2
 40
6.35
 49
0
 74
    0
 49
-6.35
 74
    0
  0
LTYPE
  5
33
330
5
100
AcDbSymbolTableRecord
100
AcDbLinetypeTableRecord
  2
DOTTINY
 70
    0
  3
Dot (.15x) .....................................
 72
   65
 73
    2
 40
0.9525
 49
0
 74
    0
 49
-0.9525
 74
    0
  0
LTYPE
  5
34
330
5
100
AcDbSymbolTableRecord
100
AcDbLinetypeTableRecord
  2
DOT2
 70
    0
  3
Dot (.5x) .....................................
 72
   65
 73
    2
 40
3.175
 49
0
 74
    0
 49
-3.175
 74
    0
  0
LTYPE
  5
35
330
5
100
AcDbSymbolTableRecord
100
AcDbLinetypeTableRecord
  2
DOTX2
 70
    0
  3
Dot (2x) .  .  .  .  .  .  .  .  .  .  .  .  .
 72
   65
 73
    2
 40
12.7
 49
0
 74
    0
 49
-12.7
 74
    0
  0
LTYPE
  5
36
330
5
100
AcDbSymbolTableRecord
100
AcDbLinetypeTableRecord
  2
DASHED
 70
    0
  3
Dashed _ _ _ _ _ _ _ _ _ _ _ _ _ _ _ _ _
 72
   65
 73
    2
 40
19.05
 49
12.7
 74
    0
 49
-6.35
 74
    0
  0
LTYPE
  5
37
330
5
100
AcDbSymbolTableRecord
100
AcDbLinetypeTableRecord
  2
DASHEDTINY
 70
    0
  3
Dashed (.15x) _ _ _ _ _ _ _ _ _ _ _ _ _ _ _ _ _
 72
   65
 73
    2
 40
2.8575
 49
1.905
 74
    0
 49
-0.9525
 74
    0
  0
LTYPE
  5
38
330
5
100
AcDbSymbolTableRecord
100
AcDbLinetypeTableRecord
  2
DASHED2
 70
    0
  3
Dashed (.5x) _ _ _ _ _ _ _ _ _ _ _ _ _ _ _ _ _
 72
   65
 73
    2
 40
9.524999999999999
 49
6.35
 74
    0
 49
-3.175
 74
    0
  0
LTYPE
  5
39
330
5
100
AcDbSymbolTableRecord
100
AcDbLinetypeTableRecord
  2
DASHEDX2
 70
    0
  3
Dashed (2x) ____  ____  ____  ____  ____  ___
 72
   65
 73
    2
 40
38.09999999999999
 49
25.4
 74
    0
 49
-12.7
 74
    0
  0
LTYPE
  5
3A
330
5
100
AcDbSymbolTableRecord
100
AcDbLinetypeTableRecord
  2
DASHDOT
 70
    0
  3
Dash dot __ . __ . __ . __ . __ . __ . __ . __
 72
   65
 73
    4
 40
25.4
 49
12.7
 74
    0
 49
-6.35
 74
    0
 49
0
 74
    0
 49
-6.35
 74
    0
  0
LTYPE
  5
3B
330
5
100
AcDbSymbolTableRecord
100
AcDbLinetypeTableRecord
  2
DASHDOTTINY
 70
    0
  3
Dash dot (.15x) _._._._._._._._._._._._._._._.
 72
   65
 73
    4
 40
3.81
 49
1.905
 74
    0
 49
-0.9525
 74
    0
 49
0
 74
    0
 49
-0.9525
 74
    0
  0
LTYPE
  5
3C
330
5
100
AcDbSymbolTableRecord
100
AcDbLinetypeTableRecord
  2
DASHDOT2
 70
    0
  3
Dash dot (.5x) _._._._._._._._._._._._._._._.
 72
   65
 73
    4
 40
12.7
 49
6.35
 74
    0
 49
-3.175
 74
    0
 49
0
 74
    0
 49
-3.175
 74
    0
  0
LTYPE
  5
3D
330
5
100
AcDbSymbolTableRecord
100
AcDbLinetypeTableRecord
  2
DASHDOTX2
 70
    0
  3
Dash dot (2x) ____  .  ____  .  ____  .  ___
 72
   65
 73
    4
 40
50.8
 49
25.4
 74
    0
 49
-12.7
 74
    0
 49
0
 74
    0
 49
-12.7
 74
    0
  0
LTYPE
  5
3E
330
5
100
AcDbSymbolTableRecord
100
AcDbLinetypeTableRecord
  2
DIVIDE
 70
    0
  3
Divide ____ . . ____ . . ____ . . ____ . . ____
 72
   65
 73
    6
 40
31.75
 49
12.7
 74
    0
 49
-6.35
 74
    0
 49
0
 74
    0
 49
-6.35
 74
    0
 49
0
 74
    0
 49
-6.35
 74
    0
  0
LTYPE
  5
3F
330
5
100
AcDbSymbolTableRecord
100
AcDbLinetypeTableRecord
  2
DIVIDETINY
 70
    0
  3
Divide (.15x) __..__..__..__..__..__..__..__.._
 72
   65
 73
    6
 40
4.7625
 49
1.905
 74
    0
 49
-0.9525
 74
    0
 49
0
 74
    0
 49
-0.9525
 74
    0
 49
0
 74
    0
 49
-0.9525
 74
    0
  0
LTYPE
  5
40
330
5
100
AcDbSymbolTableRecord
100
AcDbLinetypeTableRecord
  2
DIVIDE2
 70
    0
  3
Divide (.5x) __..__..__..__..__..__..__..__.._
 72
   65
 73
    6
 40
15.875
 49
6.35
 74
    0
 49
-3.175
 74
    0
 49
0
 74
    0
 49
-3.175
 74
    0
 49
0
 74
    0
 49
-3.175
 74
    0
  0
LTYPE
  5
41
330
5
100
AcDbSymbolTableRecord
100
AcDbLinetypeTableRecord
  2
DIVIDEX2
 70
    0
  3
Divide (2x) ________  .  .  ________  .  .  _
 72
   65
 73
    6
 40
63.5
 49
25.4
 74
    0
 49
-12.7
 74
    0
 49
0
 74
    0
 49
-12.7
 74
    0
 49
0
 74
    0
 49
-12.7
 74
    0
  0
LTYPE
  5
42
330
5
100
AcDbSymbolTableRecord
100
AcDbLinetypeTableRecord
  2
BORDER
 70
    0
  3
Border __ __ . __ __ . __ __ . __ __ . __ __ .
 72
   65
 73
    6
 40
44.45
 49
12.7
 74
    0
 49
-6.35
 74
    0
 49
12.7
 74
    0
 49
-6.35
 74
    0
 49
0
 74
    0
 49
-6.35
 74
    0
  0
LTYPE
  5
43
330
5
100
AcDbSymbolTableRecord
100
AcDbLinetypeTableRecord
  2
BORDERTINY
 70
    0
  3
Border (.15x) __.__.__.__.__.__.__.__.__.__.__.
 72
   65
 73
    6
 40
6.6675
 49
1.905
 74
    0
 49
-0.9525
 74
    0
 49
1.905
 74
    0
 49
-0.9525
 74
    0
 49
0
 74
    0
 49
-0.9525
 74
    0
  0
LTYPE
  5
44
330
5
100
AcDbSymbolTableRecord
100
AcDbLinetypeTableRecord
  2
BORDER2
 70
    0
  3
Border (.5x) __.__.__.__.__.__.__.__.__.__.__.
 72
   65
 73
    6
 40
22.225
 49
6.35
 74
    0
 49
-3.175
 74
    0
 49
6.35
 74
    0
 49
-3.175
 74
    0
 49
0
 74
    0
 49
-3.175
 74
    0
  0
LTYPE
  5
45
330
5
100
AcDbSymbolTableRecord
100
AcDbLinetypeTableRecord
  2
BORDERX2
 70
    0
  3
Border (2x) ____  ____  .  ____  ____  .  ___
 72
   65
 73
    6
 40
88.89999999999999
 49
25.4
 74
    0
 49
-12.7
 74
    0
 49
25.4
 74
    0
 49
-12.7
 74
    0
 49
0
 74
    0
 49
-12.7
 74
    0
  0
LTYPE
  5
46
330
5
100
AcDbSymbolTableRecord
100
AcDbLinetypeTableRecord
  2
CENTER
 70
    0
  3
Center ____ _ ____ _ ____ _ ____ _ ____ _ ____
 72
   65
 73
    4
 40
50.8
 49
31.75
 74
    0
 49
-6.35
 74
    0
 49
6.35
 74
    0
 49
-6.35
 74
    0
  0
LTYPE
  5
47
330
5
100
AcDbSymbolTableRecord
100
AcDbLinetypeTableRecord
  2
CENTERTINY
 70
    0
  3
Center (.15x) ___ _ ___ _ ___ _ ___ _ ___ _ ___
 72
   65
 73
    4
 40
7.619999999999999
 49
4.7625
 74
    0
 49
-0.9525
 74
    0
 49
0.9525
 74
    0
 49
-0.9525
 74
    0
  0
LTYPE
  5
48
330
5
100
AcDbSymbolTableRecord
100
AcDbLinetypeTableRecord
  2
CENTER2
 70
    0
  3
Center (.5x) ___ _ ___ _ ___ _ ___ _ ___ _ ___
 72
   65
 73
    4
 40
28.575
 49
19.05
 74
    0
 49
-3.175
 74
    0
 49
3.175
 74
    0
 49
-3.175
 74
    0
  0
LTYPE
  5
49
330
5
100
AcDbSymbolTableRecord
100
AcDbLinetypeTableRecord
  2
CENTERX2
 70
    0
  3
Center (2x) ________  __  ________  __  _____
 72
   65
 73
    4
 40
101.6
 49
63.5
 74
    0
 49
-12.7
 74
    0
 49
12.7
 74
    0
 49
-12.7
 74
    0
  0
ENDTAB
  0
TABLE
  2
LAYER
  5
2
330
0
100
AcDbSymbolTable
 70
    1
  0
LAYER
  5
10
330
2
100
AcDbSymbolTableRecord
100
AcDbLayerTableRecord
  2
0
 70
    1
 62
    7
  6
CONTINUOUS
370
    0
390
F
  0
LAYER
  5
4A
330
2
100
AcDbSymbolTableRecord
100
AcDbLayerTableRecord
  2
construction
 70
    0
 62
   16
420
8388608
  6
CONTINUOUS
370
  100
390
F
  0
LAYER
  5
4B
330
2
100
AcDbSymbolTableRecord
100
AcDbLayerTableRecord
  2
engraving
 70
    0
 62
    5
  6
CONTINUOUS
370
  100
390
F
  0
LAYER
  5
4C
330
2
100
AcDbSymbolTableRecord
100
AcDbLayerTableRecord
  2
trace
 70
    0
 62
    6
  6
CONTINUOUS
370
  100
390
F
  0
ENDTAB
  0
TABLE
  2
STYLE
  5
3
330
0
100
AcDbSymbolTable
 70
    3
  0
STYLE
  5
4D
330
2
100
AcDbSymbolTableRecord
100
AcDbTextStyleTableRecord
  2
Standard
 70
    0
 40
0
 41
1
 50
0
 71
    0
 42
1
  3
txt
  4

  0
ENDTAB
  0
TABLE
  2
VIEW
  5
6
330
0
100
AcDbSymbolTable
 70
    0
  0
ENDTAB
  0
TABLE
  2
UCS
  5
7
330
0
100
AcDbSymbolTable
 70
    0
  0
ENDTAB
  0
TABLE
  2
APPID
  5
9
330
0
100
AcDbSymbolTable
 70
    1
  0
APPID
  5
12
330
9
100
AcDbSymbolTableRecord
100
AcDbRegAppTableRecord
  2
ACAD
 70
    0
  0
APPID
  5
4E
330
9
100
AcDbSymbolTableRecord
100
AcDbRegAppTableRecord
  2
LibreCad
 70
    0
  0
ENDTAB
  0
TABLE
  2
DIMSTYLE
  5
A
330
0
100
AcDbSymbolTable
 70
    1
100
AcDbDimStyleTable
 71
    1
  0
DIMSTYLE
105
4F
330
A
100
AcDbSymbolTableRecord
100
AcDbDimStyleTableRecord
  2
Standard
 70
    0
 40
2.5
 41
2.5
 42
0.625
 43
0.38
 44
1.25
 45
0
 46
0
 47
0
 48
0
 49
1
140
2.5
141
0.09
142
0
143
25.4
144
1
145
0
146
1
147
0.625
148
0
 71
    0
 72
    0
 73
    0
 74
    1
 75
    0
 76
    0
 77
    0
 78
    8
 79
    0
170
    0
171
    2
172
    0
173
    0
174
    0
175
    0
176
    0
177
    0
178
    0
179
    0
271
    2
272
    4
273
    2
274
    2
275
    0
276
    0
277
    2
278
   44
279
    0
280
    0
281
    0
282
    0
283
    1
284
    0
285
    0
286
    0
288
    0
289
    3
340
STANDARD
341

371
   -2
372
   -2
  0
ENDTAB
  0
TABLE
  2
BLOCK_RECORD
  5
1
330
0
100
AcDbSymbolTable
 70
    2
  0
BLOCK_RECORD
  5
1F
330
1
100
AcDbSymbolTableRecord
100
AcDbBlockTableRecord
  2
*Model_Space
 70
    0
280
    1
281
    0
  0
BLOCK_RECORD
  5
1E
330
1
100
AcDbSymbolTableRecord
100
AcDbBlockTableRecord
  2
*Paper_Space
 70
    0
280
    1
281
    0
  0
ENDTAB
  0
ENDSEC
  0
SECTION
  2
BLOCKS
  0
BLOCK
  5
20
330
1F
100
AcDbEntity
  8
0
100
AcDbBlockBegin
  2
*Model_Space
 70
    0
 10
0
 20
0
 30
0
  3
*Model_Space
  1

  0
ENDBLK
  5
21
330
1F
100
AcDbEntity
  8
0
100
AcDbBlockEnd
  0
BLOCK
  5
1C
330
1B
100
AcDbEntity
  8
0
100
AcDbBlockBegin
  2
*Paper_Space
 70
    0
 10
0
 20
0
 30
0
  3
*Paper_Space
  1

  0
ENDBLK
  5
1D
330
1F
100
AcDbEntity
  8
0
100
AcDbBlockEnd
  0
ENDSEC
  0
SECTION
  2
ENTITIES
  0
IMAGE
  5
52
100
AcDbEntity
  8
0
  6
ByLayer
 62
  256
370
   -1
100
AcDbRasterImage
 10
0
 20
0
 30
0
 11
1
 21
0
 31
0
 12
6.123233995736766e-17
 22
1
 32
0
 13
1280
 23
720
340
50
 70
    1
280
    0
281
   50
282
   50
283
    0
360
51
  0
LINE
  5
53
100
AcDbEntity
  8
trace
  6
ByLayer
 62
  256
370
   -1
100
AcDbLine
 10
142.7000879507477
 20
263.6323658751102
 11
142.7000879507477
 21
609.2500000000005
  0
ARC
  5
54
100
AcDbEntity
  8
trace
  6
ByLayer
 62
  256
370
   -1
100
AcDbCircle
 10
173.1350996897367
 20
604.2779605673392
 40
30.83846811487787
100
AcDbArc
 50
101.4751597736555
 51
170.7217910469242
  0
LINE
  5
55
100
AcDbEntity
  8
trace
  6
ByLayer
 62
  256
370
   -1
100
AcDbLine
 10
167.0000000000001
 20
634.5000000000005
 11
572.5000000000005
 21
634.5000000000005
  0
LINE
  5
56
100
AcDbEntity
  8
trace
  6
ByLayer
 62
  256
370
   -1
100
AcDbLine
 10
572.5000000000005
 20
634.5000000000005
 11
727.7816435467836
 21
605.2178941766333
  0
ARC
  5
57
100
AcDbEntity
  8
trace
  6
ByLayer
 62
  256
370
   -1
100
AcDbCircle
 10
713.7794725551951
 20
557.5434697936502
 40
49.6881427779955
100
AcDbArc
 50
14.0294480165139
 51
73.63227332767116
  0
LINE
  5
58
100
AcDbEntity
  8
trace
  6
ByLayer
 62
  256
370
   -1
100
AcDbLine
 10
761.9854805803139
 20
569.5888972667059
 11
818.077700963211
 21
467.1148466174004
  0
LINE
  5
59
100
AcDbEntity
  8
trace
  6
ByLayer
 62
  256
370
   -1
100
AcDbLine
 10
818.077700963211
 20
467.1148466174004
 11
823.9270818689745
 21
447.4776392909086
  0
LINE
  5
5A
100
AcDbEntity
  8
trace
  6
ByLayer
 62
  256
370
   -1
100
AcDbLine
 10
823.9270818689745
 20
447.4776392909086
 11
1133.10864403076
 21
424.0801156678545
  0
ARC
  5
5B
100
AcDbEntity
  8
trace
  6
ByLayer
 62
  256
370
   -1
100
AcDbCircle
 10
1126.125161587754
 20
387.7555749868261
 40
36.98974564280569
100
AcDbArc
 50
23.28734611312952
 51
79.11752448431051
  0
LINE
  5
5C
100
AcDbEntity
  8
trace
  6
ByLayer
 62
  256
370
   -1
100
AcDbLine
 10
1160.101490105252
 20
402.3791991337507
 11
1160.101490105252
 21
277.8070087170005
  0
LINE
  5
5D
100
AcDbEntity
  8
trace
  6
ByLayer
 62
  256
370
   -1
100
AcDbLine
 10
1160.101490105252
 20
277.8070087170005
 11
1170.390638576252
 21
277.8070087170005
  0
ARC
  5
5E
100
AcDbEntity
  8
trace
  6
ByLayer
 62
  256
370
   -1
100
AcDbCircle
 10
1166.178981318674
 20
257.8112507734277
 40
20.43449026996439
100
AcDbArc
 50
27.19551328198854
 51
78.10578862873066
  0
LINE
  5
5F
100
AcDbEntity
  8
trace
  6
ByLayer
 62
  256
370
   -1
100
AcDbLine
 10
1184.354482929752
 20
267.1503906577505
 11
1184.354482929752
 21
243.9998065980004
  0
ARC
  5
60
100
AcDbEntity
  8
trace
  6
ByLayer
 62
  256
370
   -1
100
AcDbCircle
 10
1176.53946189197
 20
244.3043533115499
 40
7.820952788613142
100
AcDbArc
 50
248.6950753095188
 51
357.76834682644
  0
SPLINE
  5
61
100
AcDbEntity
  8
trace
  6
ByLayer
 62
  256
370
   -1
100
AcDbSpline
210
0
220
0
230
0
 70
    8
 71
    2
 72
   18
 73
   15
 74
    0
 42
1e-07
 43
1e-07
 40
0
 40
0
 40
0
 40
0.07692307692307693
 40
0.1538461538461539
 40
0.2307692307692308
 40
0.3076923076923077
 40
0.3846153846153846
 40
0.4615384615384616
 40
0.5384615384615384
 40
0.6153846153846154
 40
0.6923076923076923
 40
0.7692307692307693
 40
0.8461538461538461
 40
0.9230769230769231
 40
1
 40
1
 40
1
 10
1137.318375633752
 20
268.2527994225005
 30
0
 10
1130.060352223318
 20
269.7191012073308
 30
0
 10
1120.704085453868
 20
274.2175160036205
 30
0
 10
1114.757630726357
 20
288.0802325387598
 30
0
 10
1089.785314232567
 20
321.4692628508312
 30
0
 10
1071.11959779716
 20
340.354506532844
 30
0
 10
1044.580626082392
 20
346.0393558411719
 30
0
 10
995.0400101960644
 20
352.3156463471577
 30
0
 10
940.283188907756
 20
345.4031384957867
 30
0
 10
919.8956644945346
 20
338.5816248745975
 30
0
 10
909.9156723779955
 20
323.7256640387636
 30
0
 10
889.3784817640735
 20
293.2759766150891
 30
0
 10
871.0814746537775
 20
259.8026336050209
 30
0
 10
860.0577614206675
 20
245.8020431476098
 30
0
 10
853.8739245000033
 20
246.595686750001
 30
0
  0
LINE
  5
62
100
AcDbEntity
  8
trace
  6
ByLayer
 62
  256
370
   -1
100
AcDbLine
 10
853.8739245000033
 20
246.595686750001
 11
467.6268998608805
 21
246.595686750001
  0
SPLINE
  5
63
100
AcDbEntity
  8
trace
  6
ByLayer
 62
  256
370
   -1
100
AcDbSpline
210
0
220
0
230
0
 70
    8
 71
    2
 72
   16
 73
   13
 74
    0
 42
1e-07
 43
1e-07
 40
0
 40
0
 40
0
 40
0.09090909090909091
 40
0.1818181818181818
 40
0.2727272727272727
 40
0.3636363636363636
 40
0.4545454545454545
 40
0.5454545454545454
 40
0.6363636363636364
 40
0.7272727272727273
 40
0.8181818181818182
 40
0.9090909090909091
 40
1
 40
1
 40
1
 10
467.6268998608805
 20
246.595686750001
 30
0
 10
463.3452820139038
 20
247.6192874496902
 30
0
 10
452.2193781189811
 20
263.4365694553978
 30
0
 10
423.9369666062581
 20
317.3989729021192
 30
0
 10
404.7355166760134
 20
336.6595924397132
 30
0
 10
378.4084806499469
 20
341.1683922129212
 30
0
 10
321.5231082589227
 20
348.5430598326869
 30
0
 10
267.6058185838763
 20
341.5669777867594
 30
0
 10
247.9729150902791
 20
334.5898594063369
 30
0
 10
233.7109962425567
 20
315.9129820071364
 30
0
 10
205.7659056229246
 20
258.0998413939772
 30
0
 10
182.6240774659753
 20
242.7550760757246
 30
0
 10
174.8689333929592
 20
243.3804573399013
 30
0
  0
LINE
  5
64
100
AcDbEntity
  8
trace
  6
ByLayer
 62
  256
370
   -1
100
AcDbLine
 10
174.8689333929592
 20
243.3804573399013
 11
142.7000879507477
 21
263.6323658751102
  0
LWPOLYLINE
  5
65
100
AcDbEntity
  8
engraving
  6
ByLayer
 62
  256
370
   -1
100
AcDbPolyline
 90
    4
 70
    1
 43
0
 10
577.0000000000074
 20
381.7500000000049
 10
632.7500000000081
 20
381.7500000000049
 10
632.7500000000081
 20
373.2500000000048
 10
577.0000000000074
 20
373.2500000000048
  0
LINE
  5
66
100
AcDbEntity
  8
engraving
  6
ByLayer
 62
  256
370
   -1
100
AcDbLine
 10
143.135932185944
 20
413.7438643563513
 11
1117.540542236672
 21
413.7438643563513
  0
ARC
  5
67
100
AcDbEntity
  8
engraving
  6
ByLayer
 62
  256
370
   -1
100
AcDbCircle
 10
1114.124029584038
 20
366.9903869364596
 40
46.87814212997279
100
AcDbArc
 50
11.38255934928111
 51
85.82053693382042
  0
LINE
  5
68
100
AcDbEntity
  8
engraving
  6
ByLayer
 62
  256
370
   -1
100
AcDbLine
 10
142.6658145996092
 20
570.6632583984367
 11
760.5422202756145
 21
570.6632583984367
  0
LINE
  5
69
100
AcDbEntity
  8
engraving
  6
ByLayer
 62
  256
370
   -1
100
AcDbLine
 10
562.4522762632074
 20
570.6632583984367
 11
562.4522762632074
 21
246.3294640568791
  0
LINE
  5
6A
100
AcDbEntity
  8
engraving
  6
ByLayer
 62
  256
370
   -1
100
AcDbLine
 10
456.9158220460018
 20
259.7787536632511
 11
437.8776627940851
 21
328.561780637918
  0
SPLINE
  5
6B
100
AcDbEntity
  8
engraving
  6
ByLayer
 62
  256
370
   -1
100
AcDbSpline
210
0
220
0
230
0
 70
    8
 71
    2
 72
   13
 73
   10
 74
    0
 42
1e-07
 43
1e-07
 40
0
 40
0
 40
0
 40
0.125
 40
0.25
 40
0.375
 40
0.5
 40
0.625
 40
0.75
 40
0.875
 40
1
 40
1
 40
1
 10
437.8776627940851
 20
328.561780637918
 30
0
 10
435.4753492317198
 20
333.6079051041882
 30
0
 10
422.2075702403979
 20
345.0340387841018
 30
0
 10
386.4323666933253
 20
362.0038268945495
 30
0
 10
320.937593278859
 20
370.1398666669502
 30
0
 10
245.9052219171193
 20
356.268574547524
 30
0
 10
229.8718256389854
 20
337.5019655966257
 30
0
 10
222.0271609734831
 20
318.8993898545692
 30
0
 10
204.5558892926886
 20
277.3150458692897
 30
0
 10
197.2695000000016
 20
253.5510000000021
 30
0
  0
LINE
  5
6C
100
AcDbEntity
  8
engraving
  6
ByLayer
 62
  256
370
   -1
100
AcDbLine
 10
864.7757255936733
 20
252.4186455584889
 11
896.6578715919145
 21
334.2128408091491
  0
SPLINE
  5
6D
100
AcDbEntity
  8
engraving
  6
ByLayer
 62
  256
370
   -1
100
AcDbSpline
210
0
220
0
230
0
 70
    8
 71
    2
 72
   13
 73
   10
 74
    0
 42
1e-07
 43
1e-07
 40
0
 40
0
 40
0
 40
0.125
 40
0.25
 40
0.375
 40
0.5
 40
0.625
 40
0.75
 40
0.875
 40
1
 40
1
 40
1
 10
896.6578715919145
 20
334.2128408091491
 30
0
 10
902.5112462334331
 20
347.3894861548241
 30
0
 10
930.7673689618254
 20
359.9102723902791
 30
0
 10
963.6801737598959
 20
366.4234502320175
 30
0
 10
1001.484971609257
 20
369.0950143685055
 30
0
 10
1041.978956979347
 20
365.0905444510599
 30
0
 10
1075.260927819259
 20
355.8476505979539
 30
0
 10
1096.960206338877
 20
343.0313384036116
 30
0
 10
1116.9965899502
 20
311.1086917149307
 30
0
 10
1130.167106420412
 20
269.7889182058065
 30
0
  0
LINE
  5
6E
100
AcDbEntity
  8
trace
  6
ByLayer
 62
  256
370
   -1
100
AcDbLine
 10
1140
 20
268.2527994225005
 11
1137.318375633752
 21
268.2527994225005
  0
LINE
  5
6F
100
AcDbEntity
  8
trace
  6
ByLayer
 62
  256
370
   -1
100
AcDbLine
 10
1173.697864870502
 20
237.0178844212504
 11
1140
 21
237.0178844212504
  0
LINE
  5
70
100
AcDbEntity
  8
trace
  6
ByLayer
 62
  256
370
   -1
100
AcDbLine
 10
1140
 20
237.0178844212504
 11
1140
 21
268.2527994225005
  0
LINE
  5
71
100
AcDbEntity
  8
engraving
  6
ByLayer
 62
  256
370
   -1
100
AcDbLine
 10
823.9270818689745
 20
447.4776392909086
 11
823.9270818689745
 21
246.595686750001
  0
LWPOLYLINE
  5
72
100
AcDbEntity
  8
engraving
  6
ByLayer
 62
  256
370
   -1
100
AcDbPolyline
 90
    8
 70
    1
 43
0
 10
227.3300823690703
 20
456.8405260404617
 10
480.0000000000056
 20
456.8405260404617
 42
0.414213562373095
 10
500.0000000000057
 20
476.8405260404617
 10
500.0000000000057
 20
536.0000000000063
 42
0.414213562373095
 10
480.0000000000057
 20
556.0000000000063
 10
227.3300823690702
 20
556.0000000000063
 42
0.4142135623730946
 10
207.3300823690703
 20
536.0000000000063
 10
207.3300823690703
 20
476.8405260404617
 42
0.414213562373095
  0
LWPOLYLINE
  5
73
100
AcDbEntity
  8
engraving
  6
ByLayer
 62
  256
370
   -1
100
AcDbPolyline
 90
    8
 70
    1
 43
0
 10
254.9242757521381
 20
612.0323095520509
 10
455.5026086394018
 20
612.0323095520509
 42
-0.414213562373095
 10
468.5026086394018
 20
599.0323095520509
 10
468.5026086394018
 20
597.9512339081549
 42
-0.414213562373095
 10
455.5026086394018
 20
584.9512339081549
 10
254.9242757521382
 20
584.9512339081549
 42
-0.4142135623730955
 10
241.9242757521381
 20
597.9512339081549
 10
241.9242757521381
 20
599.0323095520509
 42
-0.414213562373095
  0
ARC
  5
74
100
AcDbEntity
  8
engraving
  6
ByLayer
 62
  256
370
   -1
100
AcDbCircle
 10
586.9569041336918
 20
546.2500000000063
 40
10
100
AcDbArc
 50
90
 51
180
  0
LINE
  5
75
100
AcDbEntity
  8
engraving
  6
ByLayer
 62
  256
370
   -1
100
AcDbLine
 10
576.9569041336916
 20
546.2500000000063
 11
576.9569041336916
 21
453.5357930177553
  0
ARC
  5
76
100
AcDbEntity
  8
engraving
  6
ByLayer
 62
  256
370
   -1
100
AcDbCircle
 10
586.9569041336916
 20
453.5357930177553
 40
10
100
AcDbArc
 50
180
 51
270
  0
LINE
  5
77
100
AcDbEntity
  8
engraving
  6
ByLayer
 62
  256
370
   -1
100
AcDbLine
 10
738.6800170346301
 20
556.2500000000063
 11
586.9569041336918
 21
556.2500000000063
  0
ARC
  5
78
100
AcDbEntity
  8
engraving
  6
ByLayer
 62
  256
370
   -1
100
AcDbCircle
 10
738.6800170346301
 20
546.2500000000063
 40
10
100
AcDbArc
 50
29.23713658864321
 51
90
  0
LINE
  5
79
100
AcDbEntity
  8
engraving
  6
ByLayer
 62
  256
370
   -1
100
AcDbLine
 10
747.406073883544
 20
551.1342534608252
 11
799.3011846031712
 21
458.4200464785742
  0
LINE
  5
7A
100
AcDbEntity
  8
engraving
  6
ByLayer
 62
  256
370
   -1
100
AcDbLine
 10
790.5751277542574
 20
443.5357930177553
 11
586.9569041336916
 21
443.5357930177553
  0
ARC
  5
7B
100
AcDbEntity
  8
engraving
  6
ByLayer
 62
  256
370
   -1
100
AcDbCircle
 10
790.5751277542574
 20
453.5357930177553
 40
10
100
AcDbArc
 50
270
 51
29.23713658864354
  0
CIRCLE
  5
7C
100
AcDbEntity
  8
construction
  6
ByLayer
 62
  256
370
   -1
100
AcDbCircle
 10
996.3866881586081
 20
183.5729558806385
 40
118.4119450316155
  0
ARC
  5
7D
100
AcDbEntity
  8
construction
  6
ByLayer
 62
  256
370
   -1
100
AcDbCircle
 10
996.3866881586081
 20
183.5729558806385
 40
69.1018319080343
100
AcDbArc
 50
181.6772887624191
 51
358.3227112375809
  0
CIRCLE
  5
7E
100
AcDbEntity
  8
construction
  6
ByLayer
 62
  256
370
   -1
100
AcDbCircle
 10
326.8750000000098
 20
183.056710053791
 40
117.3426987727919
  0
CIRCLE
  5
7F
100
AcDbEntity
  8
construction
  6
ByLayer
 62
  256
370
   -1
100
AcDbCircle
 10
326.8750000000098
 20
183.056710053791
 40
10
  0
CIRCLE
  5
80
100
AcDbEntity
  8
construction
  6
ByLayer
 62
  256
370
   -1
100
AcDbCircle
 10
996.3866881586081
 20
183.5729558806385
 40
10
  0
CIRCLE
  5
81
100
AcDbEntity
  8
construction
  6
ByLayer
 62
  256
370
   -1
100
AcDbCircle
 10
881.9403634695764
 20
384.5512741433363
 40
10
  0
CIRCLE
  5
82
100
AcDbEntity
  8
construction
  6
ByLayer
 62
  256
370
   -1
100
AcDbCircle
 10
300
 20
500
 40
10
  0
LWPOLYLINE
  5
83
100
AcDbEntity
  8
construction
  6
ByLayer
 62
  256
370
   -1
100
AcDbPolyline
 90
    8
 70
    1
 43
0
 10
777.6393202250022
 20
300
 10
510
 20
300
 42
-0.414213562373095
 10
490
 20
320
 10
490
 20
500
 42
-0.414213562373095
 10
510
 20
520
 10
687.6393202250022
 20
520
 42
-0.2840790438404123
 10
705.5278640450005
 20
508.9442719099991
 10
795.5278640450005
 20
328.9442719099991
 42
-0.5575365158350514
  0
ARC
  5
84
100
AcDbEntity
  8
construction
  6
ByLayer
 62
  256
370
   -1
100
AcDbCircle
 10
326.8750000000098
 20
183.056710053791
 40
69.14141136981574
100
AcDbArc
 50
181.2483878025095
 51
355.3387280348942
  0
ARC
  5
85
100
AcDbEntity
  8
construction
  6
ByLayer
 62
  256
370
   -1
100
AcDbCircle
 10
425.6885055116971
 20
175.0000000000062
 40
30
100
AcDbArc
 50
90
 51
175.3387280348943
  0
LINE
  5
86
100
AcDbEntity
  8
construction
  6
ByLayer
 62
  256
370
   -1
100
AcDbLine
 10
425.6885055116971
 20
205.0000000000061
 11
897.3144635611586
 21
205.0000000000061
  0
LINE
  5
87
100
AcDbEntity
  8
construction
  6
ByLayer
 62
  256
370
   -1
100
AcDbLine
 10
927.3144635611586
 20
175.0000000000061
 11
927.3144635611586
 21
181.5503431629577
  0
ARC
  5
88
100
AcDbEntity
  8
construction
  6
ByLayer
 62
  256
370
   -1
100
AcDbCircle
 10
897.3144635611586
 20
175.0000000000061
 40
30
100
AcDbArc
 50
0
 51
90
  0
LINE
  5
89
100
AcDbEntity
  8
construction
  6
ByLayer
 62
  256
370
   -1
100
AcDbLine
 10
1065.458912756058
 20
187.0178844212504
 11
1065.458912756058
 21
181.5503431629576
  0
LINE
  5
8A
100
AcDbEntity
  8
construction
  6
ByLayer
 62
  256
370
   -1
100
AcDbLine
 10
1140
 20
237.0178844212504
 11
1115.458912756058
 21
237.0178844212504
  0
ARC
  5
8B
100
AcDbEntity
  8
construction
  6
ByLayer
 62
  256
370
   -1
100
AcDbCircle
 10
1115.458912756058
 20
187.0178844212504
 40
50
100
AcDbArc
 50
90
 51
180
  0
LINE
  5
8C
100
AcDbEntity
  8
construction
  6
ByLayer
 62
  256
370
   -1
100
AcDbLine
 10
257.7500000000077
 20
182.9979600696061
 11
257.7500000000077
 21
181.5503431629577
  0
LINE
  5
8D
100
AcDbEntity
  8
construction
  6
ByLayer
 62
  256
370
   -1
100
AcDbLine
 10
174.8014071451975
 20
243.4229685141321
 11
220.5261037616544
 21
231.3381211437238
  0
ARC
  5
8E
100
AcDbEntity
  8
construction
  6
ByLayer
 62
  256
370
   -1
100
AcDbCircle
 10
207.7500000000077
 20
182.9979600696061
 40
50
100
AcDbArc
 50
0
 51
75.19547724570506
  0
ENDSEC
  0
SECTION
  2
OBJECTS
  0
DICTIONARY
  5
C
330
0
100
AcDbDictionary
281
    1
  3
ACAD_GROUP
350
D
  3
ACAD_IMAGE_DICT
350
8F
  0
DICTIONARY
  5
D
330
C
100
AcDbDictionary
281
    1
  0
IMAGEDEF_REACTOR
  5
51
330
52
100
AcDbRasterImageDefReactor
 90
    2
330
52
  0
DICTIONARY
  5
8F
330
C
100
AcDbDictionary
281
    1
  3
defender
350
50
  0
IMAGEDEF
  5
50
102
{ACAD_REACTORS
330
51
102
}
100
AcDbRasterImageDef
 90
    0
  1
/home/duncan/Downloads/defender.jpg
 10
1280
 20
720
 11
1
 21
1
280
    1
281
    0
  0
ENDSEC
  0
EOF
