999
dxfrw 0.6.3
  0
SECTION
  2
HEADER
  9
$ACADVER
  1
AC1021
  9
$DWGCODEPAGE
  3
ANSI_1252
  9
$INSBASE
 10
0
 20
0
 30
0
  9
$EXTMIN
 10
0
 20
0
 30
0
  9
$EXTMAX
 10
104.013
 20
92.202
 30
0
  9
$LIMMIN
 10
0
 20
0
  9
$LIMMAX
 10
420
 20
297
  9
$ORTHOMODE
 70
    0
  9
$REGENMODE
 70
    1
  9
$FILLMODE
 70
    1
  9
$QTEXTMODE
 70
    0
  9
$MIRRTEXT
 70
    0
  9
$LTSCALE
 40
1
  9
$ATTMODE
 70
    0
  9
$TEXTSIZE
 40
2.5
  9
$TRACEWID
 40
15.68
  9
$TEXTSTYLE
  7
STANDARD
  9
$CLAYER
  8
outline
  9
$CELTYPE
  6
BYLAYER
  9
$CECOLOR
 62
  256
  9
$CELTSCALE
 40
1
  9
$DISPSILH
 70
    0
  9
$DIMSCALE
 40
2.5
  9
$DIMASZ
 40
2.5
  9
$DIMEXO
 40
0.625
  9
$DIMDLI
 40
3.75
  9
$DIMRND
 40
0
  9
$DIMDLE
 40
0
  9
$DIMEXE
 40
1.25
  9
$DIMTP
 40
0
  9
$DIMTM
 40
0
  9
$DIMTXT
 40
2.5
  9
$DIMCEN
 40
2.5
  9
$DIMTSZ
 40
0
  9
$DIMTOL
 70
    0
  9
$DIMLIM
 70
    0
  9
$DIMTIH
 70
    0
  9
$DIMTOH
 70
    0
  9
$DIMSE1
 70
    0
  9
$DIMSE2
 70
    0
  9
$DIMTAD
 70
    1
  9
$DIMZIN
 70
    8
  9
$DIMBLK
  1

  9
$DIMASO
 70
    1
  9
$DIMSHO
 70
    1
  9
$DIMPOST
  1

  9
$DIMAPOST
  1

  9
$DIMALT
 70
    0
  9
$DIMALTD
 70
    3
  9
$DIMALTF
 40
0.03937
  9
$DIMLFAC
 40
1
  9
$DIMTOFL
 70
    1
  9
$DIMTVP
 40
0
  9
$DIMTIX
 70
    0
  9
$DIMSOXD
 70
    0
  9
$DIMSAH
 70
    0
  9
$DIMBLK1
  1

  9
$DIMBLK2
  1

  9
$DIMSTYLE
  2
STANDARD
  9
$DIMCLRD
 70
    0
  9
$DIMCLRE
 70
    0
  9
$DIMCLRT
 70
    0
  9
$DIMTFAC
 40
1
  9
$DIMGAP
 40
0.625
  9
$DIMJUST
 70
    0
  9
$DIMSD1
 70
    0
  9
$DIMSD2
 70
    0
  9
$DIMTOLJ
 70
    0
  9
$DIMTZIN
 70
    8
  9
$DIMALTZ
 70
    0
  9
$DIMALTTZ
 70
    0
  9
$DIMUPT
 70
    0
  9
$DIMDEC
 70
    2
  9
$DIMTDEC
 70
    2
  9
$DIMALTU
 70
    2
  9
$DIMALTTD
 70
    3
  9
$DIMTXSTY
  7
STANDARD
  9
$DIMAUNIT
 70
    0
  9
$DIMADEC
 70
    0
  9
$DIMALTRND
 40
0
  9
$DIMAZIN
 70
    0
  9
$DIMDSEP
 70
   44
  9
$DIMATFIT
 70
    3
  9
$DIMFRAC
 70
    0
  9
$DIMLDRBLK
  1
STANDARD
  9
$DIMLUNIT
 70
    2
  9
$DIMLWD
 70
   -2
  9
$DIMLWE
 70
   -2
  9
$DIMTMOVE
 70
    0
  9
$DIMFXL
 40
1
  9
$DIMFXLON
 70
    0
  9
$DIMJOGANG
 40
0.7854
  9
$DIMTFILL
 70
    0
  9
$DIMTFILLCLR
 70
    0
  9
$DIMARCSYM
 70
    0
  9
$DIMLTYPE
  6

  9
$DIMLTEX1
  6

  9
$DIMLTEX2
  6

  9
$LUNITS
 70
    2
  9
$LUPREC
 70
    4
  9
$SKETCHINC
 40
1
  9
$FILLETRAD
 40
0
  9
$AUNITS
 70
    0
  9
$AUPREC
 70
    2
  9
$MENU
  1
.
  9
$ELEVATION
 40
0
  9
$PELEVATION
 40
0
  9
$THICKNESS
 40
0
  9
$LIMCHECK
 70
    0
  9
$CHAMFERA
 40
0
  9
$CHAMFERB
 40
0
  9
$CHAMFERC
 40
0
  9
$CHAMFERD
 40
0
  9
$SKPOLY
 70
    0
  9
$USRTIMER
 70
    1
  9
$ANGBASE
 50
0
  9
$ANGDIR
 70
    0
  9
$PDMODE
 70
   34
  9
$PDSIZE
 40
0
  9
$PLINEWID
 40
0
  9
$SPLFRAME
 70
    0
  9
$SPLINETYPE
 70
    2
  9
$SPLINESEGS
 70
    8
  9
$HANDSEED
  5
20000
  9
$SURFTAB1
 70
    6
  9
$SURFTAB2
 70
    6
  9
$SURFTYPE
 70
    6
  9
$SURFU
 70
    6
  9
$SURFV
 70
    6
  9
$UCSBASE
  2

  9
$UCSNAME
  2

  9
$UCSORG
 10
0
 20
0
 30
0
  9
$UCSXDIR
 10
1
 20
0
 30
0
  9
$UCSYDIR
 10
0
 20
1
 30
0
  9
$UCSORTHOREF
  2

  9
$UCSORTHOVIEW
 70
    0
  9
$UCSORGTOP
 10
0
 20
0
 30
0
  9
$UCSORGBOTTOM
 10
0
 20
0
 30
0
  9
$UCSORGLEFT
 10
0
 20
0
 30
0
  9
$UCSORGRIGHT
 10
0
 20
0
 30
0
  9
$UCSORGFRONT
 10
0
 20
0
 30
0
  9
$UCSORGBACK
 10
0
 20
0
 30
0
  9
$PUCSBASE
  2

  9
$PUCSNAME
  2

  9
$PUCSORG
 10
0
 20
0
 30
0
  9
$PUCSXDIR
 10
1
 20
0
 30
0
  9
$PUCSYDIR
 10
0
 20
1
 30
0
  9
$PUCSORTHOREF
  2

  9
$PUCSORTHOVIEW
 70
    0
  9
$PUCSORGTOP
 10
0
 20
0
 30
0
  9
$PUCSORGBOTTOM
 10
0
 20
0
 30
0
  9
$PUCSORGLEFT
 10
0
 20
0
 30
0
  9
$PUCSORGRIGHT
 10
0
 20
0
 30
0
  9
$PUCSORGFRONT
 10
0
 20
0
 30
0
  9
$PUCSORGBACK
 10
0
 20
0
 30
0
  9
$USERI1
 70
    0
  9
$USERI2
 70
    0
  9
$USERI3
 70
    0
  9
$USERI4
 70
    0
  9
$USERI5
 70
    0
  9
$USERR1
 40
0
  9
$USERR2
 40
0
  9
$USERR3
 40
0
  9
$USERR4
 40
0
  9
$USERR5
 40
0
  9
$WORLDVIEW
 70
    1
  9
$SHADEDGE
 70
    3
  9
$SHADEDIF
 70
   70
  9
$TILEMODE
 70
    1
  9
$MAXACTVP
 70
   64
  9
$PINSBASE
 10
0
 20
0
 30
0
  9
$PLIMCHECK
 70
    0
  9
$PEXTMIN
 10
0
 20
0
 30
0
  9
$PEXTMAX
 10
0
 20
0
 30
0
  9
$SNAPSTYLE
 70
    0
  9
$PLIMMIN
 10
0
 20
0
  9
$PLIMMAX
 10
297
 20
210
  9
$UNITMODE
 70
    0
  9
$VISRETAIN
 70
    1
  9
$PLINEGEN
 70
    0
  9
$PSLTSCALE
 70
    1
  9
$TREEDEPTH
 70
 3020
  9
$CMLSTYLE
  2
Standard
  9
$CMLJUST
 70
    0
  9
$CMLSCALE
 40
20
  9
$PROXYGRAPHICS
 70
    1
  9
$MEASUREMENT
 70
    1
  9
$CELWEIGHT
370
   -1
  9
$ENDCAPS
280
    0
  9
$JOINSTYLE
280
    0
  9
$LWDISPLAY
290
    0
  9
$INSUNITS
 70
    4
  9
$HYPERLINKBASE
  1

  9
$STYLESHEET
  1

  9
$XEDIT
290
    1
  9
$CEPSNTYPE
380
    0
  9
$PSTYLEMODE
290
    1
  9
$EXTNAMES
290
    1
  9
$PSVPSCALE
 40
1
  9
$OLESTARTUP
290
    0
  9
$SORTENTS
280
  127
  9
$INDEXCTL
280
    0
  9
$HIDETEXT
280
    1
  9
$XCLIPFRAME
290
    0
  9
$HALOGAP
280
    0
  9
$OBSCOLOR
 70
  257
  9
$OBSLTYPE
280
    0
  9
$INTERSECTIONDISPLAY
280
    0
  9
$INTERSECTIONCOLOR
 70
  257
  9
$DIMASSOC
280
    1
  9
$PROJECTNAME
  1

  9
$CAMERADISPLAY
290
    0
  9
$LENSLENGTH
 40
50
  9
$CAMERAHEIGHT
 40
0
  9
$STEPSPERSEC
 40
2
  9
$STEPSIZE
 40
50
  9
$3DDWFPREC
 40
2
  9
$PSOLWIDTH
 40
5
  9
$PSOLHEIGHT
 40
80
  9
$LOFTANG1
 40
1.570796326794897
  9
$LOFTANG2
 40
1.570796326794897
  9
$LOFTMAG1
 40
0
  9
$LOFTMAG2
 40
0
  9
$LOFTPARAM
 70
    7
  9
$LOFTNORMALS
280
    1
  9
$LATITUDE
 40
1
  9
$LONGITUDE
 40
1
  9
$NORTHDIRECTION
 40
0
  9
$TIMEZONE
 70
-8000
  9
$LIGHTGLYPHDISPLAY
280
    1
  9
$TILEMODELIGHTSYNCH
280
    1
  9
$SOLIDHIST
280
    1
  9
$SHOWHIST
280
    1
  9
$DWFFRAME
280
    2
  9
$DGNFRAME
280
    0
  9
$REALWORLDSCALE
290
    1
  9
$INTERFERECOLOR
 62
    1
  9
$CSHADOW
280
    0
  9
$SHADOWPLANELOCATION
 40
0
  0
ENDSEC
  0
SECTION
  2
CLASSES
  0
ENDSEC
  0
SECTION
  2
TABLES
  0
TABLE
  2
VPORT
  5
8
330
0
100
AcDbSymbolTable
 70
    1
  0
VPORT
  5
31
330
2
100
AcDbSymbolTableRecord
100
AcDbViewportTableRecord
  2
*ACTIVE
 70
    0
 10
0
 20
0
 11
1
 21
1
 12
67.83744687500156
 22
47.32075562500109
 13
0
 23
0
 14
10
 24
10
 15
10
 25
10
 16
0
 26
0
 36
1
 17
0
 27
0
 37
0
 40
109.5988410000025
 41
1.386473429951691
 42
50
 43
0
 44
0
 50
0
 51
0
 71
    0
 72
  100
 73
    1
 74
    3
 75
    0
 76
    1
 77
    0
 78
    0
281
    0
 65
    1
110
0
120
0
130
0
111
1
121
0
131
0
112
0
122
1
132
0
 79
    0
146
0
348
10020
 60
    7
 61
    5
292
1
282
    1
141
0
142
0
 63
  250
421
3358443
  0
ENDTAB
  0
TABLE
  2
LTYPE
  5
5
330
0
100
AcDbSymbolTable
 70
    4
  0
LTYPE
  5
14
330
5
100
AcDbSymbolTableRecord
100
AcDbLinetypeTableRecord
  2
ByBlock
 70
    0
  3

 72
   65
 73
    0
 40
0
  0
LTYPE
  5
15
330
5
100
AcDbSymbolTableRecord
100
AcDbLinetypeTableRecord
  2
ByLayer
 70
    0
  3

 72
   65
 73
    0
 40
0
  0
LTYPE
  5
16
330
5
100
AcDbSymbolTableRecord
100
AcDbLinetypeTableRecord
  2
Continuous
 70
    0
  3
Solid line
 72
   65
 73
    0
 40
0
  0
LTYPE
  5
32
330
5
100
AcDbSymbolTableRecord
100
AcDbLinetypeTableRecord
  2
DOT
 70
    0
  3
Dot . . . . . . . . . . . . . . . . . . . . . .
 72
   65
 73
    2
 40
6.35
 49
0
 74
    0
 49
-6.35
 74
    0
  0
LTYPE
  5
33
330
5
100
AcDbSymbolTableRecord
100
AcDbLinetypeTableRecord
  2
DOTTINY
 70
    0
  3
Dot (.15x) .....................................
 72
   65
 73
    2
 40
0.9525
 49
0
 74
    0
 49
-0.9525
 74
    0
  0
LTYPE
  5
34
330
5
100
AcDbSymbolTableRecord
100
AcDbLinetypeTableRecord
  2
DOT2
 70
    0
  3
Dot (.5x) .....................................
 72
   65
 73
    2
 40
3.175
 49
0
 74
    0
 49
-3.175
 74
    0
  0
LTYPE
  5
35
330
5
100
AcDbSymbolTableRecord
100
AcDbLinetypeTableRecord
  2
DOTX2
 70
    0
  3
Dot (2x) .  .  .  .  .  .  .  .  .  .  .  .  .
 72
   65
 73
    2
 40
12.7
 49
0
 74
    0
 49
-12.7
 74
    0
  0
LTYPE
  5
36
330
5
100
AcDbSymbolTableRecord
100
AcDbLinetypeTableRecord
  2
DASHED
 70
    0
  3
Dashed _ _ _ _ _ _ _ _ _ _ _ _ _ _ _ _ _
 72
   65
 73
    2
 40
19.05
 49
12.7
 74
    0
 49
-6.35
 74
    0
  0
LTYPE
  5
37
330
5
100
AcDbSymbolTableRecord
100
AcDbLinetypeTableRecord
  2
DASHEDTINY
 70
    0
  3
Dashed (.15x) _ _ _ _ _ _ _ _ _ _ _ _ _ _ _ _ _
 72
   65
 73
    2
 40
2.8575
 49
1.905
 74
    0
 49
-0.9525
 74
    0
  0
LTYPE
  5
38
330
5
100
AcDbSymbolTableRecord
100
AcDbLinetypeTableRecord
  2
DASHED2
 70
    0
  3
Dashed (.5x) _ _ _ _ _ _ _ _ _ _ _ _ _ _ _ _ _
 72
   65
 73
    2
 40
9.524999999999999
 49
6.35
 74
    0
 49
-3.175
 74
    0
  0
LTYPE
  5
39
330
5
100
AcDbSymbolTableRecord
100
AcDbLinetypeTableRecord
  2
DASHEDX2
 70
    0
  3
Dashed (2x) ____  ____  ____  ____  ____  ___
 72
   65
 73
    2
 40
38.09999999999999
 49
25.4
 74
    0
 49
-12.7
 74
    0
  0
LTYPE
  5
3A
330
5
100
AcDbSymbolTableRecord
100
AcDbLinetypeTableRecord
  2
DASHDOT
 70
    0
  3
Dash dot __ . __ . __ . __ . __ . __ . __ . __
 72
   65
 73
    4
 40
25.4
 49
12.7
 74
    0
 49
-6.35
 74
    0
 49
0
 74
    0
 49
-6.35
 74
    0
  0
LTYPE
  5
3B
330
5
100
AcDbSymbolTableRecord
100
AcDbLinetypeTableRecord
  2
DASHDOTTINY
 70
    0
  3
Dash dot (.15x) _._._._._._._._._._._._._._._.
 72
   65
 73
    4
 40
3.81
 49
1.905
 74
    0
 49
-0.9525
 74
    0
 49
0
 74
    0
 49
-0.9525
 74
    0
  0
LTYPE
  5
3C
330
5
100
AcDbSymbolTableRecord
100
AcDbLinetypeTableRecord
  2
DASHDOT2
 70
    0
  3
Dash dot (.5x) _._._._._._._._._._._._._._._.
 72
   65
 73
    4
 40
12.7
 49
6.35
 74
    0
 49
-3.175
 74
    0
 49
0
 74
    0
 49
-3.175
 74
    0
  0
LTYPE
  5
3D
330
5
100
AcDbSymbolTableRecord
100
AcDbLinetypeTableRecord
  2
DASHDOTX2
 70
    0
  3
Dash dot (2x) ____  .  ____  .  ____  .  ___
 72
   65
 73
    4
 40
50.8
 49
25.4
 74
    0
 49
-12.7
 74
    0
 49
0
 74
    0
 49
-12.7
 74
    0
  0
LTYPE
  5
3E
330
5
100
AcDbSymbolTableRecord
100
AcDbLinetypeTableRecord
  2
DIVIDE
 70
    0
  3
Divide ____ . . ____ . . ____ . . ____ . . ____
 72
   65
 73
    6
 40
31.75
 49
12.7
 74
    0
 49
-6.35
 74
    0
 49
0
 74
    0
 49
-6.35
 74
    0
 49
0
 74
    0
 49
-6.35
 74
    0
  0
LTYPE
  5
3F
330
5
100
AcDbSymbolTableRecord
100
AcDbLinetypeTableRecord
  2
DIVIDETINY
 70
    0
  3
Divide (.15x) __..__..__..__..__..__..__..__.._
 72
   65
 73
    6
 40
4.7625
 49
1.905
 74
    0
 49
-0.9525
 74
    0
 49
0
 74
    0
 49
-0.9525
 74
    0
 49
0
 74
    0
 49
-0.9525
 74
    0
  0
LTYPE
  5
40
330
5
100
AcDbSymbolTableRecord
100
AcDbLinetypeTableRecord
  2
DIVIDE2
 70
    0
  3
Divide (.5x) __..__..__..__..__..__..__..__.._
 72
   65
 73
    6
 40
15.875
 49
6.35
 74
    0
 49
-3.175
 74
    0
 49
0
 74
    0
 49
-3.175
 74
    0
 49
0
 74
    0
 49
-3.175
 74
    0
  0
LTYPE
  5
41
330
5
100
AcDbSymbolTableRecord
100
AcDbLinetypeTableRecord
  2
DIVIDEX2
 70
    0
  3
Divide (2x) ________  .  .  ________  .  .  _
 72
   65
 73
    6
 40
63.5
 49
25.4
 74
    0
 49
-12.7
 74
    0
 49
0
 74
    0
 49
-12.7
 74
    0
 49
0
 74
    0
 49
-12.7
 74
    0
  0
LTYPE
  5
42
330
5
100
AcDbSymbolTableRecord
100
AcDbLinetypeTableRecord
  2
BORDER
 70
    0
  3
Border __ __ . __ __ . __ __ . __ __ . __ __ .
 72
   65
 73
    6
 40
44.45
 49
12.7
 74
    0
 49
-6.35
 74
    0
 49
12.7
 74
    0
 49
-6.35
 74
    0
 49
0
 74
    0
 49
-6.35
 74
    0
  0
LTYPE
  5
43
330
5
100
AcDbSymbolTableRecord
100
AcDbLinetypeTableRecord
  2
BORDERTINY
 70
    0
  3
Border (.15x) __.__.__.__.__.__.__.__.__.__.__.
 72
   65
 73
    6
 40
6.6675
 49
1.905
 74
    0
 49
-0.9525
 74
    0
 49
1.905
 74
    0
 49
-0.9525
 74
    0
 49
0
 74
    0
 49
-0.9525
 74
    0
  0
LTYPE
  5
44
330
5
100
AcDbSymbolTableRecord
100
AcDbLinetypeTableRecord
  2
BORDER2
 70
    0
  3
Border (.5x) __.__.__.__.__.__.__.__.__.__.__.
 72
   65
 73
    6
 40
22.225
 49
6.35
 74
    0
 49
-3.175
 74
    0
 49
6.35
 74
    0
 49
-3.175
 74
    0
 49
0
 74
    0
 49
-3.175
 74
    0
  0
LTYPE
  5
45
330
5
100
AcDbSymbolTableRecord
100
AcDbLinetypeTableRecord
  2
BORDERX2
 70
    0
  3
Border (2x) ____  ____  .  ____  ____  .  ___
 72
   65
 73
    6
 40
88.89999999999999
 49
25.4
 74
    0
 49
-12.7
 74
    0
 49
25.4
 74
    0
 49
-12.7
 74
    0
 49
0
 74
    0
 49
-12.7
 74
    0
  0
LTYPE
  5
46
330
5
100
AcDbSymbolTableRecord
100
AcDbLinetypeTableRecord
  2
CENTER
 70
    0
  3
Center ____ _ ____ _ ____ _ ____ _ ____ _ ____
 72
   65
 73
    4
 40
50.8
 49
31.75
 74
    0
 49
-6.35
 74
    0
 49
6.35
 74
    0
 49
-6.35
 74
    0
  0
LTYPE
  5
47
330
5
100
AcDbSymbolTableRecord
100
AcDbLinetypeTableRecord
  2
CENTERTINY
 70
    0
  3
Center (.15x) ___ _ ___ _ ___ _ ___ _ ___ _ ___
 72
   65
 73
    4
 40
7.619999999999999
 49
4.7625
 74
    0
 49
-0.9525
 74
    0
 49
0.9525
 74
    0
 49
-0.9525
 74
    0
  0
LTYPE
  5
48
330
5
100
AcDbSymbolTableRecord
100
AcDbLinetypeTableRecord
  2
CENTER2
 70
    0
  3
Center (.5x) ___ _ ___ _ ___ _ ___ _ ___ _ ___
 72
   65
 73
    4
 40
28.575
 49
19.05
 74
    0
 49
-3.175
 74
    0
 49
3.175
 74
    0
 49
-3.175
 74
    0
  0
LTYPE
  5
49
330
5
100
AcDbSymbolTableRecord
100
AcDbLinetypeTableRecord
  2
CENTERX2
 70
    0
  3
Center (2x) ________  __  ________  __  _____
 72
   65
 73
    4
 40
101.6
 49
63.5
 74
    0
 49
-12.7
 74
    0
 49
12.7
 74
    0
 49
-12.7
 74
    0
  0
ENDTAB
  0
TABLE
  2
LAYER
  5
2
330
0
100
AcDbSymbolTable
 70
    1
  0
LAYER
  5
10
330
2
100
AcDbSymbolTableRecord
100
AcDbLayerTableRecord
  2
0
 70
    5
 62
    7
  6
CONTINUOUS
370
    0
390
F
  0
LAYER
  5
4A
330
2
100
AcDbSymbolTableRecord
100
AcDbLayerTableRecord
  2
outline
 70
    0
 62
    7
  6
CONTINUOUS
370
    0
390
F
  0
ENDTAB
  0
TABLE
  2
STYLE
  5
3
330
0
100
AcDbSymbolTable
 70
    3
  0
STYLE
  5
4B
330
2
100
AcDbSymbolTableRecord
100
AcDbTextStyleTableRecord
  2
Standard
 70
    0
 40
0
 41
1
 50
0
 71
    0
 42
1
  3
txt
  4

  0
ENDTAB
  0
TABLE
  2
VIEW
  5
6
330
0
100
AcDbSymbolTable
 70
    0
  0
ENDTAB
  0
TABLE
  2
UCS
  5
7
330
0
100
AcDbSymbolTable
 70
    0
  0
ENDTAB
  0
TABLE
  2
APPID
  5
9
330
0
100
AcDbSymbolTable
 70
    1
  0
APPID
  5
12
330
9
100
AcDbSymbolTableRecord
100
AcDbRegAppTableRecord
  2
ACAD
 70
    0
  0
APPID
  5
4C
330
9
100
AcDbSymbolTableRecord
100
AcDbRegAppTableRecord
  2
LibreCad
 70
    0
  0
ENDTAB
  0
TABLE
  2
DIMSTYLE
  5
A
330
0
100
AcDbSymbolTable
 70
    1
100
AcDbDimStyleTable
 71
    1
  0
DIMSTYLE
105
4D
330
A
100
AcDbSymbolTableRecord
100
AcDbDimStyleTableRecord
  2
Standard
 70
    0
 40
1
 41
2.5
 42
0.625
 43
0.38
 44
1.25
 45
0
 46
0
 47
0
 48
0
 49
1
140
2.5
141
0.09
142
2.5
143
25.4
144
1
145
0
146
1
147
0.625
148
0
 71
    0
 72
    0
 73
    0
 74
    1
 75
    0
 76
    0
 77
    0
 78
    1
 79
    0
170
    0
171
    2
172
    0
173
    0
174
    0
175
    0
176
    0
177
    0
178
    0
179
    0
271
    2
272
    4
273
    2
274
    2
275
    0
276
    0
277
    2
278
    0
279
    0
280
    0
281
    0
282
    0
283
    1
284
    0
285
    0
286
    0
288
    0
289
    3
340
standard
341

371
   -2
372
   -2
  0
ENDTAB
  0
TABLE
  2
BLOCK_RECORD
  5
1
330
0
100
AcDbSymbolTable
 70
    2
  0
BLOCK_RECORD
  5
1F
330
1
100
AcDbSymbolTableRecord
100
AcDbBlockTableRecord
  2
*Model_Space
 70
    0
280
    1
281
    0
  0
BLOCK_RECORD
  5
1E
330
1
100
AcDbSymbolTableRecord
100
AcDbBlockTableRecord
  2
*Paper_Space
 70
    0
280
    1
281
    0
  0
ENDTAB
  0
ENDSEC
  0
SECTION
  2
BLOCKS
  0
BLOCK
  5
20
330
1F
100
AcDbEntity
  8
0
100
AcDbBlockBegin
  2
*Model_Space
 70
    0
 10
0
 20
0
 30
0
  3
*Model_Space
  1

  0
ENDBLK
  5
21
330
1F
100
AcDbEntity
  8
0
100
AcDbBlockEnd
  0
BLOCK
  5
1C
330
1B
100
AcDbEntity
  8
0
100
AcDbBlockBegin
  2
*Paper_Space
 70
    0
 10
0
 20
0
 30
0
  3
*Paper_Space
  1

  0
ENDBLK
  5
1D
330
1F
100
AcDbEntity
  8
0
100
AcDbBlockEnd
  0
ENDSEC
  0
SECTION
  2
ENTITIES
  0
IMAGE
  5
50
100
AcDbEntity
  8
0
  6
ByLayer
 62
  256
370
   -1
100
AcDbRasterImage
 10
0
 20
0
 30
0
 11
0.127
 21
0
 31
0
 12
7.776507174585693e-18
 22
0.127
 32
0
 13
819
 23
726
340
4E
 70
    1
280
    0
281
   50
282
   50
283
    0
360
4F
  0
SPLINE
  5
51
100
AcDbEntity
  8
outline
  6
ByLayer
 62
  256
370
   -1
100
AcDbSpline
210
0
220
0
230
0
 70
    8
 71
    2
 72
  177
 73
  174
 74
    0
 42
1e-07
 43
1e-07
 40
0
 40
0
 40
0
 40
0.005813953488372093
 40
0.01162790697674419
 40
0.01744186046511628
 40
0.02325581395348837
 40
0.02906976744186046
 40
0.03488372093023256
 40
0.04069767441860465
 40
0.04651162790697674
 40
0.05232558139534884
 40
0.05813953488372093
 40
0.06395348837209303
 40
0.06976744186046512
 40
0.0755813953488372
 40
0.08139534883720931
 40
0.0872093023255814
 40
0.09302325581395349
 40
0.09883720930232558
 40
0.1046511627906977
 40
0.1104651162790698
 40
0.1162790697674419
 40
0.1220930232558139
 40
0.1279069767441861
 40
0.1337209302325581
 40
0.1395348837209302
 40
0.1453488372093023
 40
0.1511627906976744
 40
0.1569767441860465
 40
0.1627906976744186
 40
0.1686046511627907
 40
0.1744186046511628
 40
0.1802325581395349
 40
0.186046511627907
 40
0.1918604651162791
 40
0.1976744186046512
 40
0.2034883720930233
 40
0.2093023255813954
 40
0.2151162790697674
 40
0.2209302325581395
 40
0.2267441860465116
 40
0.2325581395348837
 40
0.2383720930232558
 40
0.2441860465116279
 40
0.25
 40
0.2558139534883721
 40
0.2616279069767442
 40
0.2674418604651163
 40
0.2732558139534884
 40
0.2790697674418605
 40
0.2848837209302326
 40
0.2906976744186047
 40
0.2965116279069768
 40
0.3023255813953488
 40
0.3081395348837209
 40
0.313953488372093
 40
0.3197674418604651
 40
0.3255813953488372
 40
0.3313953488372093
 40
0.3372093023255814
 40
0.3430232558139535
 40
0.3488372093023256
 40
0.3546511627906977
 40
0.3604651162790697
 40
0.3662790697674418
 40
0.3720930232558139
 40
0.3779069767441861
 40
0.3837209302325582
 40
0.3895348837209303
 40
0.3953488372093023
 40
0.4011627906976744
 40
0.4069767441860465
 40
0.4127906976744186
 40
0.4186046511627907
 40
0.4244186046511628
 40
0.4302325581395349
 40
0.436046511627907
 40
0.4418604651162791
 40
0.4476744186046512
 40
0.4534883720930232
 40
0.4593023255813953
 40
0.4651162790697674
 40
0.4709302325581395
 40
0.4767441860465116
 40
0.4825581395348837
 40
0.4883720930232558
 40
0.4941860465116279
 40
0.5
 40
0.5058139534883721
 40
0.5116279069767442
 40
0.5174418604651163
 40
0.5232558139534884
 40
0.5290697674418605
 40
0.5348837209302325
 40
0.5406976744186046
 40
0.5465116279069767
 40
0.5523255813953488
 40
0.5581395348837209
 40
0.563953488372093
 40
0.5697674418604651
 40
0.5755813953488372
 40
0.5813953488372093
 40
0.5872093023255814
 40
0.5930232558139535
 40
0.5988372093023255
 40
0.6046511627906976
 40
0.6104651162790697
 40
0.6162790697674418
 40
0.6220930232558139
 40
0.6279069767441861
 40
0.6337209302325582
 40
0.6395348837209303
 40
0.6453488372093024
 40
0.6511627906976745
 40
0.6569767441860465
 40
0.6627906976744186
 40
0.6686046511627907
 40
0.6744186046511628
 40
0.6802325581395349
 40
0.686046511627907
 40
0.6918604651162791
 40
0.6976744186046512
 40
0.7034883720930233
 40
0.7093023255813954
 40
0.7151162790697675
 40
0.7209302325581395
 40
0.7267441860465116
 40
0.7325581395348837
 40
0.7383720930232558
 40
0.7441860465116279
 40
0.75
 40
0.7558139534883721
 40
0.7616279069767442
 40
0.7674418604651163
 40
0.7732558139534884
 40
0.7790697674418605
 40
0.7848837209302325
 40
0.7906976744186046
 40
0.7965116279069767
 40
0.8023255813953488
 40
0.8081395348837209
 40
0.813953488372093
 40
0.8197674418604651
 40
0.8255813953488372
 40
0.8313953488372093
 40
0.8372093023255814
 40
0.8430232558139535
 40
0.8488372093023255
 40
0.8546511627906976
 40
0.8604651162790697
 40
0.8662790697674418
 40
0.8720930232558139
 40
0.8779069767441861
 40
0.8837209302325582
 40
0.8895348837209303
 40
0.8953488372093024
 40
0.9011627906976745
 40
0.9069767441860465
 40
0.9127906976744186
 40
0.9186046511627907
 40
0.9244186046511628
 40
0.9302325581395349
 40
0.936046511627907
 40
0.9418604651162791
 40
0.9476744186046512
 40
0.9534883720930233
 40
0.9593023255813954
 40
0.9651162790697675
 40
0.9709302325581395
 40
0.9767441860465116
 40
0.9825581395348837
 40
0.9883720930232558
 40
0.9941860465116279
 40
1
 40
1
 40
1
 10
10.82675
 20
24.68033333333333
 30
0
 10
13.66812478952195
 20
25.62697685977344
 30
0
 10
13.34990863546228
 20
30.7015450563842
 30
0
 10
11.69570068821128
 20
30.70992881594732
 30
0
 10
11.18517234812328
 20
32.63289478540372
 30
0
 10
14.65658338620171
 20
39.30602184874469
 30
0
 10
15.31042831968972
 20
41.81449793575111
 30
0
 10
17.63590128759306
 20
40.01096379060146
 30
0
 10
24.38133954608828
 20
37.56235487835906
 30
0
 10
27.69156361428449
 20
37.90956204418243
 30
0
 10
30.46722153866309
 20
39.106788983202
 30
0
 10
32.11735828360629
 20
33.6228310046996
 30
0
 10
28.63908025204212
 20
24.84688133323109
 30
0
 10
27.30906754248059
 20
16.43614887303429
 30
0
 10
25.08660026728631
 20
11.41376296850002
 30
0
 10
23.02598032516794
 20
8.759310480510928
 30
0
 10
21.8111166084112
 20
6.800322331844938
 30
0
 10
20.67491063923805
 20
4.303659941536169
 30
0
 10
23.46331826379842
 20
4.824745870003375
 30
0
 10
26.09864727433755
 20
3.877527152198468
 30
0
 10
27.15101046387825
 20
5.750936656712479
 30
0
 10
26.78949122283684
 20
8.14307919723214
 30
0
 10
29.02118677417162
 20
10.47254946699945
 30
0
 10
29.37364393324996
 20
14.88283710235036
 30
0
 10
31.77170268941389
 20
20.85223972635161
 30
0
 10
36.41537202186689
 20
33.32942313285564
 30
0
 10
37.54401520352202
 20
35.4179372862474
 30
0
 10
39.71406978507341
 20
34.76904763066386
 30
0
 10
49.63203681815759
 20
36.6389819321134
 30
0
 10
51.44596239709895
 20
35.92523481229197
 30
0
 10
51.84295245791601
 20
34.48077756122772
 30
0
 10
54.2518402987512
 20
31.89906424516692
 30
0
 10
54.82818164675152
 20
27.73177930913264
 30
0
 10
57.81645055941166
 20
23.37939735629591
 30
0
 10
58.44176306605698
 20
17.40858551333384
 30
0
 10
56.63151046961962
 20
9.985535150806076
 30
0
 10
53.83602949762592
 20
7.877901036756215
 30
0
 10
52.38847733801986
 20
4.52878861151257
 30
0
 10
56.88286663052236
 20
4.563786258500547
 30
0
 10
57.15498946459068
 20
6.058199686740426
 30
0
 10
57.12992791432601
 20
7.10853269051219
 30
0
 10
59.28561043124589
 20
9.139240672370713
 30
0
 10
62.75953332136889
 20
19.36243987260986
 30
0
 10
62.52597703135682
 20
24.6011040294162
 30
0
 10
59.15052898206237
 20
28.7432259088902
 30
0
 10
61.18088678016543
 20
43.99371970548659
 30
0
 10
63.70097038194231
 20
34.09276935574888
 30
0
 10
73.1957780666995
 20
33.55721653235046
 30
0
 10
75.53550509790657
 20
28.53956982112098
 30
0
 10
77.91741308596251
 20
24.23733053344393
 30
0
 10
80.88758250884982
 20
18.57217387168546
 30
0
 10
83.85783832915443
 20
11.74478757892435
 30
0
 10
87.81127454189405
 20
7.361846897061382
 30
0
 10
88.7346173278801
 20
9.344110926652707
 30
0
 10
90.90760283562034
 20
10.89907518437187
 30
0
 10
88.92924230502595
 20
14.43491905082472
 30
0
 10
84.69594015328641
 20
16.2868371359903
 30
0
 10
80.92186596006698
 20
28.35171911572224
 30
0
 10
79.98603874779107
 20
31.49697188598635
 30
0
 10
76.88604228001024
 20
32.6878319127074
 30
0
 10
74.70060236651211
 20
43.52234653088626
 30
0
 10
72.41587966059356
 20
48.60013706373023
 30
0
 10
75.53609426569601
 20
45.54637064025744
 30
0
 10
78.9568729590215
 20
42.33670394688327
 30
0
 10
84.23447991867539
 20
41.95397762500694
 30
0
 10
83.84767125174415
 20
40.71681117593806
 30
0
 10
83.62263672669032
 20
39.46653408704568
 30
0
 10
83.91356340251359
 20
34.48748155629751
 30
0
 10
88.25884421677566
 20
32.01364198207101
 30
0
 10
86.13891808973588
 20
34.04834441142066
 30
0
 10
86.27562651639295
 20
37.07021328738761
 30
0
 10
87.23271298697982
 20
34.54043055503691
 30
0
 10
91.51479831535521
 20
32.89597693005019
 30
0
 10
95.46514044271636
 20
35.88666587856707
 30
0
 10
98.30121277034979
 20
33.04406930741081
 30
0
 10
99.5414496221948
 20
27.96853273218531
 30
0
 10
98.37744805316369
 20
36.63776647818281
 30
0
 10
101.0556311412612
 20
35.56233016223502
 30
0
 10
102.3691586220213
 20
33.85968026034963
 30
0
 10
102.0478596489903
 20
35.21869948648907
 30
0
 10
101.5960934700816
 20
36.86743914659318
 30
0
 10
100.0325807601968
 20
39.17775791900802
 30
0
 10
98.69085010684987
 20
45.70219892305143
 30
0
 10
99.06607754883088
 20
42.26192898828317
 30
0
 10
96.23341910333519
 20
39.99487255115431
 30
0
 10
93.50228676272347
 20
44.04053166056121
 30
0
 10
94.0847222200558
 20
48.80166381241756
 30
0
 10
90.49885082621491
 20
50.28768048160067
 30
0
 10
90.57964974861335
 20
51.99345676355851
 30
0
 10
91.01509593788215
 20
53.38115424147001
 30
0
 10
89.79649003720284
 20
55.99836480875921
 30
0
 10
89.8375166208755
 20
52.99861320427753
 30
0
 10
87.85654295758508
 20
52.52836151121139
 30
0
 10
85.37537561692803
 20
55.603410792288
 30
0
 10
81.47420178532199
 20
61.72248712184951
 30
0
 10
73.13743553195545
 20
61.57398014481514
 30
0
 10
70.77106315242207
 20
57.5048268829928
 30
0
 10
67.79043675544037
 20
57.53334218480929
 30
0
 10
64.10613088939697
 20
61.28869983666103
 30
0
 10
52.59519484591419
 20
59.14817266819983
 30
0
 10
48.07517016754265
 20
60.89803831300287
 30
0
 10
45.3817457141179
 20
62.60655011270546
 30
0
 10
47.09727424582705
 20
62.42958174798228
 30
0
 10
48.40838205658281
 20
63.94429983890269
 30
0
 10
49.88381787523605
 20
66.13358952755154
 30
0
 10
49.33609314970481
 20
69.88382404386199
 30
0
 10
48.27470017835491
 20
68.04953746870395
 30
0
 10
46.80602521712586
 20
67.59961202020017
 30
0
 10
44.76696727596168
 20
68.52041702557571
 30
0
 10
43.46004165663231
 20
70.0653461061387
 30
0
 10
45.92335464267413
 20
69.58302540874396
 30
0
 10
46.99477314282964
 20
72.03412535205786
 30
0
 10
47.29376708641198
 20
75.06272287315201
 30
0
 10
45.84230829639074
 20
73.82373424621042
 30
0
 10
44.42587797477032
 20
72.54645860596226
 30
0
 10
41.32193169853338
 20
73.88592664466748
 30
0
 10
41.74209515212497
 20
78.75145363405423
 30
0
 10
35.91222260925611
 20
80.54775791348727
 30
0
 10
36.0053096407097
 20
82.26688323627478
 30
0
 10
35.79556207574242
 20
83.53322596676966
 30
0
 10
34.54345138569205
 20
85.82944531777085
 30
0
 10
31.44362967885725
 20
85.69813165923945
 30
0
 10
33.23680966055877
 20
85.07503675791135
 30
0
 10
33.13497133979104
 20
83.12874539642529
 30
0
 10
30.08502188785408
 20
84.18829001277439
 30
0
 10
25.7786115292671
 20
86.74214914603641
 30
0
 10
21.47672773488234
 20
83.72071829775862
 30
0
 10
20.7981702144518
 20
85.56999944466303
 30
0
 10
19.50963965176253
 20
85.65821909849808
 30
0
 10
17.98839595618506
 20
85.19943744388497
 30
0
 10
19.72200429064891
 20
84.70404243148218
 30
0
 10
19.20074961245875
 20
83.67021783691766
 30
0
 10
19.19709380381201
 20
83.00988237816141
 30
0
 10
18.28612239202822
 20
82.50565480568889
 30
0
 10
17.44577485121705
 20
83.13478273242487
 30
0
 10
15.96115280843343
 20
82.43169293651292
 30
0
 10
2.817484300920996
 20
91.54680304626403
 30
0
 10
7.093816267230084
 20
86.16960969205373
 30
0
 10
15.39633802017023
 20
79.50551178220708
 30
0
 10
12.97152060460989
 20
78.42345159941141
 30
0
 10
12.70920821445816
 20
76.82288456091541
 30
0
 10
13.63538926531753
 20
76.46777313157627
 30
0
 10
13.91994718720468
 20
77.57008762509227
 30
0
 10
15.70159907258042
 20
77.53708370273527
 30
0
 10
13.88441747397639
 20
76.40457731797177
 30
0
 10
15.1198032137057
 20
74.6209995774301
 30
0
 10
15.37560355907944
 20
72.37348904939648
 30
0
 10
14.28903367232687
 20
69.79231999564901
 30
0
 10
13.36025979957465
 20
67.74729831870668
 30
0
 10
12.00463514462234
 20
66.2007429115952
 30
0
 10
11.8838853768351
 20
63.66237792451284
 30
0
 10
13.50732769255255
 20
61.40170041927232
 30
0
 10
16.15588648165593
 20
61.47320741133007
 30
0
 10
17.51143835563524
 20
62.78423845373606
 30
0
 10
17.9335619789344
 20
63.95527391093227
 30
0
 10
18.69677113802626
 20
64.43365555315152
 30
0
 10
19.66839362125669
 20
64.90674613849951
 30
0
 10
21.73837253389222
 20
65.74716933486302
 30
0
 10
23.38318756498562
 20
68.84400250754317
 30
0
 10
25.59361332682558
 20
67.7996817929627
 30
0
 10
27.06292040089437
 20
64.69619924664475
 30
0
 10
25.78093225470576
 20
58.37208880184439
 30
0
 10
22.10438714753332
 20
52.6867894784959
 30
0
 10
23.92698287634498
 20
47.17011189915771
 30
0
 10
23.48462822000473
 20
44.27762016597124
 30
0
 10
20.3023693859707
 20
44.86469634056058
 30
0
 10
14.37650530241389
 20
45.27408317367613
 30
0
 10
11.71098112587218
 20
41.95082407298337
 30
0
 10
11.07821650492004
 20
37.77644815207215
 30
0
 10
8.011114308181147
 20
34.08784316430218
 30
0
 10
8.571870657619545
 20
31.24536905956482
 30
0
 10
9.270451821974214
 20
28.4659030086212
 30
0
 10
9.638860145420693
 20
24.56481289404243
 30
0
 10
10.83388810465894
 20
24.68216380868579
 30
0
  0
ENDSEC
  0
SECTION
  2
OBJECTS
  0
DICTIONARY
  5
C
330
0
100
AcDbDictionary
281
    1
  3
ACAD_GROUP
350
D
  3
ACAD_IMAGE_DICT
350
52
  0
DICTIONARY
  5
D
330
C
100
AcDbDictionary
281
    1
  0
IMAGEDEF_REACTOR
  5
4F
330
50
100
AcDbRasterImageDefReactor
 90
    2
330
50
  0
DICTIONARY
  5
52
330
C
100
AcDbDictionary
281
    1
  3
Screenshot from 2022-03-18 17-12-29
350
4E
  0
IMAGEDEF
  5
4E
102
{ACAD_REACTORS
330
4F
102
}
100
AcDbRasterImageDef
 90
    0
  1
/home/duncan/cad/unicorn/Screenshot from 2022-03-18 17-12-29.png
 10
819
 20
726
 11
1
 21
1
280
    1
281
    0
  0
ENDSEC
  0
EOF
