999
dxfrw 0.6.3
  0
SECTION
  2
HEADER
  9
$ACADVER
  1
AC1021
  9
$DWGCODEPAGE
  3
ANSI_1252
  9
$INSBASE
 10
0
 20
0
 30
0
  9
$EXTMIN
 10
0
 20
0
 30
0
  9
$EXTMAX
 10
1000
 20
750
 30
0
  9
$LIMMIN
 10
0
 20
0
  9
$LIMMAX
 10
420
 20
297
  9
$ORTHOMODE
 70
    0
  9
$REGENMODE
 70
    1
  9
$FILLMODE
 70
    1
  9
$QTEXTMODE
 70
    0
  9
$MIRRTEXT
 70
    0
  9
$LTSCALE
 40
1
  9
$ATTMODE
 70
    0
  9
$TEXTSIZE
 40
2.5
  9
$TRACEWID
 40
15.68
  9
$TEXTSTYLE
  7
STANDARD
  9
$CLAYER
  8
left
  9
$CELTYPE
  6
BYLAYER
  9
$CECOLOR
 62
  256
  9
$CELTSCALE
 40
1
  9
$DISPSILH
 70
    0
  9
$DIMSCALE
 40
2.5
  9
$DIMASZ
 40
2.5
  9
$DIMEXO
 40
0.625
  9
$DIMDLI
 40
3.75
  9
$DIMRND
 40
0
  9
$DIMDLE
 40
0
  9
$DIMEXE
 40
1.25
  9
$DIMTP
 40
0
  9
$DIMTM
 40
0
  9
$DIMTXT
 40
2.5
  9
$DIMCEN
 40
2.5
  9
$DIMTSZ
 40
0
  9
$DIMTOL
 70
    0
  9
$DIMLIM
 70
    0
  9
$DIMTIH
 70
    0
  9
$DIMTOH
 70
    0
  9
$DIMSE1
 70
    0
  9
$DIMSE2
 70
    0
  9
$DIMTAD
 70
    1
  9
$DIMZIN
 70
    8
  9
$DIMBLK
  1

  9
$DIMASO
 70
    1
  9
$DIMSHO
 70
    1
  9
$DIMPOST
  1

  9
$DIMAPOST
  1

  9
$DIMALT
 70
    0
  9
$DIMALTD
 70
    3
  9
$DIMALTF
 40
0.03937
  9
$DIMLFAC
 40
1
  9
$DIMTOFL
 70
    1
  9
$DIMTVP
 40
0
  9
$DIMTIX
 70
    0
  9
$DIMSOXD
 70
    0
  9
$DIMSAH
 70
    0
  9
$DIMBLK1
  1

  9
$DIMBLK2
  1

  9
$DIMSTYLE
  2
STANDARD
  9
$DIMCLRD
 70
    0
  9
$DIMCLRE
 70
    0
  9
$DIMCLRT
 70
    0
  9
$DIMTFAC
 40
1
  9
$DIMGAP
 40
0.625
  9
$DIMJUST
 70
    0
  9
$DIMSD1
 70
    0
  9
$DIMSD2
 70
    0
  9
$DIMTOLJ
 70
    0
  9
$DIMTZIN
 70
    8
  9
$DIMALTZ
 70
    0
  9
$DIMALTTZ
 70
    0
  9
$DIMUPT
 70
    0
  9
$DIMDEC
 70
    2
  9
$DIMTDEC
 70
    2
  9
$DIMALTU
 70
    2
  9
$DIMALTTD
 70
    3
  9
$DIMTXSTY
  7
STANDARD
  9
$DIMAUNIT
 70
    0
  9
$DIMADEC
 70
    0
  9
$DIMALTRND
 40
0
  9
$DIMAZIN
 70
    0
  9
$DIMDSEP
 70
   44
  9
$DIMATFIT
 70
    3
  9
$DIMFRAC
 70
    0
  9
$DIMLDRBLK
  1
STANDARD
  9
$DIMLUNIT
 70
    2
  9
$DIMLWD
 70
   -2
  9
$DIMLWE
 70
   -2
  9
$DIMTMOVE
 70
    0
  9
$DIMFXL
 40
1
  9
$DIMFXLON
 70
    0
  9
$DIMJOGANG
 40
0.7854
  9
$DIMTFILL
 70
    0
  9
$DIMTFILLCLR
 70
    0
  9
$DIMARCSYM
 70
    0
  9
$DIMLTYPE
  6

  9
$DIMLTEX1
  6

  9
$DIMLTEX2
  6

  9
$LUNITS
 70
    2
  9
$LUPREC
 70
    4
  9
$SKETCHINC
 40
1
  9
$FILLETRAD
 40
0
  9
$AUNITS
 70
    0
  9
$AUPREC
 70
    2
  9
$MENU
  1
.
  9
$ELEVATION
 40
0
  9
$PELEVATION
 40
0
  9
$THICKNESS
 40
0
  9
$LIMCHECK
 70
    0
  9
$CHAMFERA
 40
0
  9
$CHAMFERB
 40
0
  9
$CHAMFERC
 40
0
  9
$CHAMFERD
 40
0
  9
$SKPOLY
 70
    0
  9
$USRTIMER
 70
    1
  9
$ANGBASE
 50
0
  9
$ANGDIR
 70
    0
  9
$PDMODE
 70
   34
  9
$PDSIZE
 40
0
  9
$PLINEWID
 40
0
  9
$SPLFRAME
 70
    0
  9
$SPLINETYPE
 70
    2
  9
$SPLINESEGS
 70
    8
  9
$HANDSEED
  5
20000
  9
$SURFTAB1
 70
    6
  9
$SURFTAB2
 70
    6
  9
$SURFTYPE
 70
    6
  9
$SURFU
 70
    6
  9
$SURFV
 70
    6
  9
$UCSBASE
  2

  9
$UCSNAME
  2

  9
$UCSORG
 10
0
 20
0
 30
0
  9
$UCSXDIR
 10
1
 20
0
 30
0
  9
$UCSYDIR
 10
0
 20
1
 30
0
  9
$UCSORTHOREF
  2

  9
$UCSORTHOVIEW
 70
    0
  9
$UCSORGTOP
 10
0
 20
0
 30
0
  9
$UCSORGBOTTOM
 10
0
 20
0
 30
0
  9
$UCSORGLEFT
 10
0
 20
0
 30
0
  9
$UCSORGRIGHT
 10
0
 20
0
 30
0
  9
$UCSORGFRONT
 10
0
 20
0
 30
0
  9
$UCSORGBACK
 10
0
 20
0
 30
0
  9
$PUCSBASE
  2

  9
$PUCSNAME
  2

  9
$PUCSORG
 10
0
 20
0
 30
0
  9
$PUCSXDIR
 10
1
 20
0
 30
0
  9
$PUCSYDIR
 10
0
 20
1
 30
0
  9
$PUCSORTHOREF
  2

  9
$PUCSORTHOVIEW
 70
    0
  9
$PUCSORGTOP
 10
0
 20
0
 30
0
  9
$PUCSORGBOTTOM
 10
0
 20
0
 30
0
  9
$PUCSORGLEFT
 10
0
 20
0
 30
0
  9
$PUCSORGRIGHT
 10
0
 20
0
 30
0
  9
$PUCSORGFRONT
 10
0
 20
0
 30
0
  9
$PUCSORGBACK
 10
0
 20
0
 30
0
  9
$USERI1
 70
    0
  9
$USERI2
 70
    0
  9
$USERI3
 70
    0
  9
$USERI4
 70
    0
  9
$USERI5
 70
    0
  9
$USERR1
 40
0
  9
$USERR2
 40
0
  9
$USERR3
 40
0
  9
$USERR4
 40
0
  9
$USERR5
 40
0
  9
$WORLDVIEW
 70
    1
  9
$SHADEDGE
 70
    3
  9
$SHADEDIF
 70
   70
  9
$TILEMODE
 70
    1
  9
$MAXACTVP
 70
   64
  9
$PINSBASE
 10
0
 20
0
 30
0
  9
$PLIMCHECK
 70
    0
  9
$PEXTMIN
 10
0
 20
0
 30
0
  9
$PEXTMAX
 10
0
 20
0
 30
0
  9
$GRIDMODE
 70
    1
  9
$SNAPSTYLE
 70
    0
  9
$PLIMMIN
 10
0
 20
0
  9
$PLIMMAX
 10
297
 20
210
  9
$UNITMODE
 70
    0
  9
$VISRETAIN
 70
    1
  9
$PLINEGEN
 70
    0
  9
$PSLTSCALE
 70
    1
  9
$TREEDEPTH
 70
 3020
  9
$CMLSTYLE
  2
Standard
  9
$CMLJUST
 70
    0
  9
$CMLSCALE
 40
20
  9
$PROXYGRAPHICS
 70
    1
  9
$MEASUREMENT
 70
    1
  9
$CELWEIGHT
370
   -1
  9
$ENDCAPS
280
    0
  9
$JOINSTYLE
280
    0
  9
$LWDISPLAY
290
    0
  9
$INSUNITS
 70
    4
  9
$HYPERLINKBASE
  1

  9
$STYLESHEET
  1

  9
$XEDIT
290
    1
  9
$CEPSNTYPE
380
    0
  9
$PSTYLEMODE
290
    1
  9
$EXTNAMES
290
    1
  9
$PSVPSCALE
 40
1
  9
$OLESTARTUP
290
    0
  9
$SORTENTS
280
  127
  9
$INDEXCTL
280
    0
  9
$HIDETEXT
280
    1
  9
$XCLIPFRAME
290
    0
  9
$HALOGAP
280
    0
  9
$OBSCOLOR
 70
  257
  9
$OBSLTYPE
280
    0
  9
$INTERSECTIONDISPLAY
280
    0
  9
$INTERSECTIONCOLOR
 70
  257
  9
$DIMASSOC
280
    1
  9
$PROJECTNAME
  1

  9
$CAMERADISPLAY
290
    0
  9
$LENSLENGTH
 40
50
  9
$CAMERAHEIGHT
 40
0
  9
$STEPSPERSEC
 40
2
  9
$STEPSIZE
 40
50
  9
$3DDWFPREC
 40
2
  9
$PSOLWIDTH
 40
5
  9
$PSOLHEIGHT
 40
80
  9
$LOFTANG1
 40
1.570796326794897
  9
$LOFTANG2
 40
1.570796326794897
  9
$LOFTMAG1
 40
0
  9
$LOFTMAG2
 40
0
  9
$LOFTPARAM
 70
    7
  9
$LOFTNORMALS
280
    1
  9
$LATITUDE
 40
1
  9
$LONGITUDE
 40
1
  9
$NORTHDIRECTION
 40
0
  9
$TIMEZONE
 70
-8000
  9
$LIGHTGLYPHDISPLAY
280
    1
  9
$TILEMODELIGHTSYNCH
280
    1
  9
$SOLIDHIST
280
    1
  9
$SHOWHIST
280
    1
  9
$DWFFRAME
280
    2
  9
$DGNFRAME
280
    0
  9
$REALWORLDSCALE
290
    1
  9
$INTERFERECOLOR
 62
    1
  9
$CSHADOW
280
    0
  9
$SHADOWPLANELOCATION
 40
0
  0
ENDSEC
  0
SECTION
  2
CLASSES
  0
ENDSEC
  0
SECTION
  2
TABLES
  0
TABLE
  2
VPORT
  5
8
330
0
100
AcDbSymbolTable
 70
    1
  0
VPORT
  5
31
330
2
100
AcDbSymbolTableRecord
100
AcDbViewportTableRecord
  2
*ACTIVE
 70
    0
 10
0
 20
0
 11
1
 21
1
 12
336.0898769381676
 22
157.6350750240963
 13
0
 23
0
 14
10
 24
10
 15
10
 25
10
 16
0
 26
0
 36
1
 17
0
 27
0
 37
0
 40
542.6347865609354
 41
1.425091352009744
 42
50
 43
0
 44
0
 50
0
 51
0
 71
    0
 72
  100
 73
    1
 74
    3
 75
    0
 76
    1
 77
    0
 78
    0
281
    0
 65
    1
110
0
120
0
130
0
111
1
121
0
131
0
112
0
122
1
132
0
 79
    0
146
0
348
10020
 60
    7
 61
    5
292
1
282
    1
141
0
142
0
 63
  250
421
3358443
  0
ENDTAB
  0
TABLE
  2
LTYPE
  5
5
330
0
100
AcDbSymbolTable
 70
    4
  0
LTYPE
  5
14
330
5
100
AcDbSymbolTableRecord
100
AcDbLinetypeTableRecord
  2
ByBlock
 70
    0
  3

 72
   65
 73
    0
 40
0
  0
LTYPE
  5
15
330
5
100
AcDbSymbolTableRecord
100
AcDbLinetypeTableRecord
  2
ByLayer
 70
    0
  3

 72
   65
 73
    0
 40
0
  0
LTYPE
  5
16
330
5
100
AcDbSymbolTableRecord
100
AcDbLinetypeTableRecord
  2
Continuous
 70
    0
  3
Solid line
 72
   65
 73
    0
 40
0
  0
LTYPE
  5
32
330
5
100
AcDbSymbolTableRecord
100
AcDbLinetypeTableRecord
  2
DOT
 70
    0
  3
Dot . . . . . . . . . . . . . . . . . . . . . .
 72
   65
 73
    2
 40
6.35
 49
0
 74
    0
 49
-6.35
 74
    0
  0
LTYPE
  5
33
330
5
100
AcDbSymbolTableRecord
100
AcDbLinetypeTableRecord
  2
DOTTINY
 70
    0
  3
Dot (.15x) .....................................
 72
   65
 73
    2
 40
0.9525
 49
0
 74
    0
 49
-0.9525
 74
    0
  0
LTYPE
  5
34
330
5
100
AcDbSymbolTableRecord
100
AcDbLinetypeTableRecord
  2
DOT2
 70
    0
  3
Dot (.5x) .....................................
 72
   65
 73
    2
 40
3.175
 49
0
 74
    0
 49
-3.175
 74
    0
  0
LTYPE
  5
35
330
5
100
AcDbSymbolTableRecord
100
AcDbLinetypeTableRecord
  2
DOTX2
 70
    0
  3
Dot (2x) .  .  .  .  .  .  .  .  .  .  .  .  .
 72
   65
 73
    2
 40
12.7
 49
0
 74
    0
 49
-12.7
 74
    0
  0
LTYPE
  5
36
330
5
100
AcDbSymbolTableRecord
100
AcDbLinetypeTableRecord
  2
DASHED
 70
    0
  3
Dashed _ _ _ _ _ _ _ _ _ _ _ _ _ _ _ _ _
 72
   65
 73
    2
 40
19.05
 49
12.7
 74
    0
 49
-6.35
 74
    0
  0
LTYPE
  5
37
330
5
100
AcDbSymbolTableRecord
100
AcDbLinetypeTableRecord
  2
DASHEDTINY
 70
    0
  3
Dashed (.15x) _ _ _ _ _ _ _ _ _ _ _ _ _ _ _ _ _
 72
   65
 73
    2
 40
2.8575
 49
1.905
 74
    0
 49
-0.9525
 74
    0
  0
LTYPE
  5
38
330
5
100
AcDbSymbolTableRecord
100
AcDbLinetypeTableRecord
  2
DASHED2
 70
    0
  3
Dashed (.5x) _ _ _ _ _ _ _ _ _ _ _ _ _ _ _ _ _
 72
   65
 73
    2
 40
9.524999999999999
 49
6.35
 74
    0
 49
-3.175
 74
    0
  0
LTYPE
  5
39
330
5
100
AcDbSymbolTableRecord
100
AcDbLinetypeTableRecord
  2
DASHEDX2
 70
    0
  3
Dashed (2x) ____  ____  ____  ____  ____  ___
 72
   65
 73
    2
 40
38.09999999999999
 49
25.4
 74
    0
 49
-12.7
 74
    0
  0
LTYPE
  5
3A
330
5
100
AcDbSymbolTableRecord
100
AcDbLinetypeTableRecord
  2
DASHDOT
 70
    0
  3
Dash dot __ . __ . __ . __ . __ . __ . __ . __
 72
   65
 73
    4
 40
25.4
 49
12.7
 74
    0
 49
-6.35
 74
    0
 49
0
 74
    0
 49
-6.35
 74
    0
  0
LTYPE
  5
3B
330
5
100
AcDbSymbolTableRecord
100
AcDbLinetypeTableRecord
  2
DASHDOTTINY
 70
    0
  3
Dash dot (.15x) _._._._._._._._._._._._._._._.
 72
   65
 73
    4
 40
3.81
 49
1.905
 74
    0
 49
-0.9525
 74
    0
 49
0
 74
    0
 49
-0.9525
 74
    0
  0
LTYPE
  5
3C
330
5
100
AcDbSymbolTableRecord
100
AcDbLinetypeTableRecord
  2
DASHDOT2
 70
    0
  3
Dash dot (.5x) _._._._._._._._._._._._._._._.
 72
   65
 73
    4
 40
12.7
 49
6.35
 74
    0
 49
-3.175
 74
    0
 49
0
 74
    0
 49
-3.175
 74
    0
  0
LTYPE
  5
3D
330
5
100
AcDbSymbolTableRecord
100
AcDbLinetypeTableRecord
  2
DASHDOTX2
 70
    0
  3
Dash dot (2x) ____  .  ____  .  ____  .  ___
 72
   65
 73
    4
 40
50.8
 49
25.4
 74
    0
 49
-12.7
 74
    0
 49
0
 74
    0
 49
-12.7
 74
    0
  0
LTYPE
  5
3E
330
5
100
AcDbSymbolTableRecord
100
AcDbLinetypeTableRecord
  2
DIVIDE
 70
    0
  3
Divide ____ . . ____ . . ____ . . ____ . . ____
 72
   65
 73
    6
 40
31.75
 49
12.7
 74
    0
 49
-6.35
 74
    0
 49
0
 74
    0
 49
-6.35
 74
    0
 49
0
 74
    0
 49
-6.35
 74
    0
  0
LTYPE
  5
3F
330
5
100
AcDbSymbolTableRecord
100
AcDbLinetypeTableRecord
  2
DIVIDETINY
 70
    0
  3
Divide (.15x) __..__..__..__..__..__..__..__.._
 72
   65
 73
    6
 40
4.7625
 49
1.905
 74
    0
 49
-0.9525
 74
    0
 49
0
 74
    0
 49
-0.9525
 74
    0
 49
0
 74
    0
 49
-0.9525
 74
    0
  0
LTYPE
  5
40
330
5
100
AcDbSymbolTableRecord
100
AcDbLinetypeTableRecord
  2
DIVIDE2
 70
    0
  3
Divide (.5x) __..__..__..__..__..__..__..__.._
 72
   65
 73
    6
 40
15.875
 49
6.35
 74
    0
 49
-3.175
 74
    0
 49
0
 74
    0
 49
-3.175
 74
    0
 49
0
 74
    0
 49
-3.175
 74
    0
  0
LTYPE
  5
41
330
5
100
AcDbSymbolTableRecord
100
AcDbLinetypeTableRecord
  2
DIVIDEX2
 70
    0
  3
Divide (2x) ________  .  .  ________  .  .  _
 72
   65
 73
    6
 40
63.5
 49
25.4
 74
    0
 49
-12.7
 74
    0
 49
0
 74
    0
 49
-12.7
 74
    0
 49
0
 74
    0
 49
-12.7
 74
    0
  0
LTYPE
  5
42
330
5
100
AcDbSymbolTableRecord
100
AcDbLinetypeTableRecord
  2
BORDER
 70
    0
  3
Border __ __ . __ __ . __ __ . __ __ . __ __ .
 72
   65
 73
    6
 40
44.45
 49
12.7
 74
    0
 49
-6.35
 74
    0
 49
12.7
 74
    0
 49
-6.35
 74
    0
 49
0
 74
    0
 49
-6.35
 74
    0
  0
LTYPE
  5
43
330
5
100
AcDbSymbolTableRecord
100
AcDbLinetypeTableRecord
  2
BORDERTINY
 70
    0
  3
Border (.15x) __.__.__.__.__.__.__.__.__.__.__.
 72
   65
 73
    6
 40
6.6675
 49
1.905
 74
    0
 49
-0.9525
 74
    0
 49
1.905
 74
    0
 49
-0.9525
 74
    0
 49
0
 74
    0
 49
-0.9525
 74
    0
  0
LTYPE
  5
44
330
5
100
AcDbSymbolTableRecord
100
AcDbLinetypeTableRecord
  2
BORDER2
 70
    0
  3
Border (.5x) __.__.__.__.__.__.__.__.__.__.__.
 72
   65
 73
    6
 40
22.225
 49
6.35
 74
    0
 49
-3.175
 74
    0
 49
6.35
 74
    0
 49
-3.175
 74
    0
 49
0
 74
    0
 49
-3.175
 74
    0
  0
LTYPE
  5
45
330
5
100
AcDbSymbolTableRecord
100
AcDbLinetypeTableRecord
  2
BORDERX2
 70
    0
  3
Border (2x) ____  ____  .  ____  ____  .  ___
 72
   65
 73
    6
 40
88.89999999999999
 49
25.4
 74
    0
 49
-12.7
 74
    0
 49
25.4
 74
    0
 49
-12.7
 74
    0
 49
0
 74
    0
 49
-12.7
 74
    0
  0
LTYPE
  5
46
330
5
100
AcDbSymbolTableRecord
100
AcDbLinetypeTableRecord
  2
CENTER
 70
    0
  3
Center ____ _ ____ _ ____ _ ____ _ ____ _ ____
 72
   65
 73
    4
 40
50.8
 49
31.75
 74
    0
 49
-6.35
 74
    0
 49
6.35
 74
    0
 49
-6.35
 74
    0
  0
LTYPE
  5
47
330
5
100
AcDbSymbolTableRecord
100
AcDbLinetypeTableRecord
  2
CENTERTINY
 70
    0
  3
Center (.15x) ___ _ ___ _ ___ _ ___ _ ___ _ ___
 72
   65
 73
    4
 40
7.619999999999999
 49
4.7625
 74
    0
 49
-0.9525
 74
    0
 49
0.9525
 74
    0
 49
-0.9525
 74
    0
  0
LTYPE
  5
48
330
5
100
AcDbSymbolTableRecord
100
AcDbLinetypeTableRecord
  2
CENTER2
 70
    0
  3
Center (.5x) ___ _ ___ _ ___ _ ___ _ ___ _ ___
 72
   65
 73
    4
 40
28.575
 49
19.05
 74
    0
 49
-3.175
 74
    0
 49
3.175
 74
    0
 49
-3.175
 74
    0
  0
LTYPE
  5
49
330
5
100
AcDbSymbolTableRecord
100
AcDbLinetypeTableRecord
  2
CENTERX2
 70
    0
  3
Center (2x) ________  __  ________  __  _____
 72
   65
 73
    4
 40
101.6
 49
63.5
 74
    0
 49
-12.7
 74
    0
 49
12.7
 74
    0
 49
-12.7
 74
    0
  0
ENDTAB
  0
TABLE
  2
LAYER
  5
2
330
0
100
AcDbSymbolTable
 70
    1
  0
LAYER
  5
10
330
2
100
AcDbSymbolTableRecord
100
AcDbLayerTableRecord
  2
0
 70
    1
 62
    7
  6
CONTINUOUS
370
    0
390
F
  0
LAYER
  5
4A
330
2
100
AcDbSymbolTableRecord
100
AcDbLayerTableRecord
  2
left
 70
    0
 62
    7
  6
CONTINUOUS
370
    0
390
F
  0
LAYER
  5
4B
330
2
100
AcDbSymbolTableRecord
100
AcDbLayerTableRecord
  2
right
 70
    0
 62
    7
  6
CONTINUOUS
370
    0
390
F
  0
ENDTAB
  0
TABLE
  2
STYLE
  5
3
330
0
100
AcDbSymbolTable
 70
    3
  0
STYLE
  5
4C
330
2
100
AcDbSymbolTableRecord
100
AcDbTextStyleTableRecord
  2
Standard
 70
    0
 40
0
 41
1
 50
0
 71
    0
 42
1
  3
txt
  4

  0
ENDTAB
  0
TABLE
  2
VIEW
  5
6
330
0
100
AcDbSymbolTable
 70
    0
  0
ENDTAB
  0
TABLE
  2
UCS
  5
7
330
0
100
AcDbSymbolTable
 70
    0
  0
ENDTAB
  0
TABLE
  2
APPID
  5
9
330
0
100
AcDbSymbolTable
 70
    1
  0
APPID
  5
12
330
9
100
AcDbSymbolTableRecord
100
AcDbRegAppTableRecord
  2
ACAD
 70
    0
  0
APPID
  5
4D
330
9
100
AcDbSymbolTableRecord
100
AcDbRegAppTableRecord
  2
LibreCad
 70
    0
  0
ENDTAB
  0
TABLE
  2
DIMSTYLE
  5
A
330
0
100
AcDbSymbolTable
 70
    1
100
AcDbDimStyleTable
 71
    1
  0
DIMSTYLE
105
4E
330
A
100
AcDbSymbolTableRecord
100
AcDbDimStyleTableRecord
  2
Standard
 70
    0
 40
2.5
 41
2.5
 42
0.625
 43
0.38
 44
1.25
 45
0
 46
0
 47
0
 48
0
 49
1
140
2.5
141
0.09
142
0
143
25.4
144
1
145
0
146
1
147
0.625
148
0
 71
    0
 72
    0
 73
    0
 74
    1
 75
    0
 76
    0
 77
    0
 78
    8
 79
    0
170
    0
171
    2
172
    0
173
    0
174
    0
175
    0
176
    0
177
    0
178
    0
179
    0
271
    2
272
    4
273
    2
274
    2
275
    0
276
    0
277
    2
278
   44
279
    0
280
    0
281
    0
282
    0
283
    1
284
    0
285
    0
286
    0
288
    0
289
    3
340
STANDARD
341

371
   -2
372
   -2
  0
ENDTAB
  0
TABLE
  2
BLOCK_RECORD
  5
1
330
0
100
AcDbSymbolTable
 70
    2
  0
BLOCK_RECORD
  5
1F
330
1
100
AcDbSymbolTableRecord
100
AcDbBlockTableRecord
  2
*Model_Space
 70
    0
280
    1
281
    0
  0
BLOCK_RECORD
  5
1E
330
1
100
AcDbSymbolTableRecord
100
AcDbBlockTableRecord
  2
*Paper_Space
 70
    0
280
    1
281
    0
  0
ENDTAB
  0
ENDSEC
  0
SECTION
  2
BLOCKS
  0
BLOCK
  5
20
330
1F
100
AcDbEntity
  8
0
100
AcDbBlockBegin
  2
*Model_Space
 70
    0
 10
0
 20
0
 30
0
  3
*Model_Space
  1

  0
ENDBLK
  5
21
330
1F
100
AcDbEntity
  8
0
100
AcDbBlockEnd
  0
BLOCK
  5
1C
330
1B
100
AcDbEntity
  8
0
100
AcDbBlockBegin
  2
*Paper_Space
 70
    0
 10
0
 20
0
 30
0
  3
*Paper_Space
  1

  0
ENDBLK
  5
1D
330
1F
100
AcDbEntity
  8
0
100
AcDbBlockEnd
  0
ENDSEC
  0
SECTION
  2
ENTITIES
  0
IMAGE
  5
51
100
AcDbEntity
  8
0
  6
ByLayer
 62
  256
370
   -1
100
AcDbRasterImage
 10
0
 20
0
 30
0
 11
1
 21
0
 31
0
 12
6.123233995736766e-17
 22
1
 32
0
 13
1000
 23
750
340
4F
 70
    1
280
    0
281
   50
282
   50
283
    0
360
50
  0
ARC
  5
52
100
AcDbEntity
  8
right
  6
ByLayer
 62
  256
370
   -1
100
AcDbCircle
 10
67.1032
 20
21.50380000000001
 40
15.8883
100
AcDbArc
 50
180
 51
0
  0
LINE
  5
53
100
AcDbEntity
  8
right
  6
ByLayer
 62
  256
370
   -1
100
AcDbLine
 10
0
 20
40
 11
0
 21
57.90809999999999
  0
ARC
  5
54
100
AcDbEntity
  8
right
  6
ByLayer
 62
  256
370
   -1
100
AcDbCircle
 10
6
 20
40
 40
6
100
AcDbArc
 50
180
 51
265.513
  0
SPLINE
  5
55
100
AcDbEntity
  8
right
  6
ByLayer
 62
  256
370
   -1
100
AcDbSpline
210
0
220
0
230
0
 70
    8
 71
    2
 72
    8
 73
    5
 74
    0
 42
1e-07
 43
1e-07
 40
0
 40
0
 40
0
 40
0.3333333333333333
 40
0.6666666666666666
 40
1
 40
1
 40
1
 10
4.809539542544378
 20
63.78881457386211
 30
0
 10
11.30916969948426
 20
64.88493322532378
 30
0
 10
17.70320811358868
 20
65.53858293292768
 30
0
 10
23.40255784987897
 20
65.90096810767068
 30
0
 10
25.25564429985376
 20
65.98934104853402
 30
0
  0
ARC
  5
56
100
AcDbEntity
  8
right
  6
ByLayer
 62
  256
370
   -1
100
AcDbCircle
 10
6
 20
57.90809999999999
 40
6
100
AcDbArc
 50
101.444
 51
180
  0
SPLINE
  5
57
100
AcDbEntity
  8
right
  6
ByLayer
 62
  256
370
   -1
100
AcDbSpline
210
0
220
0
230
0
 70
    8
 71
    2
 72
    7
 73
    4
 74
    0
 42
1e-07
 43
1e-07
 40
0
 40
0
 40
0
 40
0.5
 40
1
 40
1
 40
1
 10
72.1634
 20
71.15660000000003
 30
0
 10
63.96900835205376
 20
72.82460285162932
 30
0
 10
41.82206562494299
 20
70.38497804205377
 30
0
 10
31.9704
 20
58.93380000000002
 30
0
  0
LINE
  5
58
100
AcDbEntity
  8
right
  6
ByLayer
 62
  256
370
   -1
100
AcDbLine
 10
67.88590000000001
 20
58.39710000000002
 11
31.9704
 21
58.93380000000002
  0
LINE
  5
59
100
AcDbEntity
  8
right
  6
ByLayer
 62
  256
370
   -1
100
AcDbLine
 10
72.1634
 20
71.15660000000003
 11
67.88590000000001
 21
58.39710000000002
  0
LINE
  5
5A
100
AcDbEntity
  8
right
  6
ByLayer
 62
  256
370
   -1
100
AcDbLine
 10
77.1662
 20
70.5881
 11
72.9024
 21
58.42219999999998
  0
LINE
  5
5B
100
AcDbEntity
  8
right
  6
ByLayer
 62
  256
370
   -1
100
AcDbLine
 10
72.9024
 20
58.42219999999998
 11
97.3069
 21
60.16930000000002
  0
LINE
  5
5C
100
AcDbEntity
  8
right
  6
ByLayer
 62
  256
370
   -1
100
AcDbLine
 10
97.7334
 20
66.0924
 11
77.1662
 21
70.5881
  0
ARC
  5
5D
100
AcDbEntity
  8
right
  6
ByLayer
 62
  256
370
   -1
100
AcDbCircle
 10
97.09269999999999
 20
63.16160000000002
 40
3
100
AcDbArc
 50
274.095
 51
77.6699
  0
SPLINE
  5
5E
100
AcDbEntity
  8
right
  6
ByLayer
 62
  256
370
   -1
100
AcDbSpline
210
0
220
0
230
0
 70
    8
 71
    2
 72
   11
 73
    8
 74
    0
 42
1e-07
 43
1e-07
 40
0
 40
0
 40
0
 40
0.1666666666666667
 40
0.3333333333333333
 40
0.5
 40
0.6666666666666666
 40
0.8333333333333334
 40
1
 40
1
 40
1
 10
25.2556
 20
65.98930000000001
 30
0
 10
26.4288
 20
66.0453
 30
0
 10
30.1813
 20
66.17489999999998
 30
0
 10
35.6403
 20
71.17619999999999
 30
0
 10
44.8935
 20
76.88240000000002
 30
0
 10
66.39149999999999
 20
79.11970000000002
 30
0
 10
114.7050970763059
 20
67.67419666730359
 30
0
 10
126.5625553907296
 20
65.5900473625257
 30
0
  0
CIRCLE
  5
5F
100
AcDbEntity
  8
right
  6
ByLayer
 62
  256
370
   -1
100
AcDbCircle
 10
67.1032
 20
21.50380000000001
 40
2.5
  0
SPLINE
  5
60
100
AcDbEntity
  8
right
  6
ByLayer
 62
  256
370
   -1
100
AcDbSpline
210
0
220
0
230
0
 70
    8
 71
    2
 72
    6
 73
    3
 74
    0
 42
1e-07
 43
1e-07
 40
0
 40
0
 40
0
 40
1
 40
1
 40
1
 10
5.530602597946406
 20
34.01838934074229
 30
0
 10
17.70158075342773
 20
32.45758644682661
 30
0
 10
29.96346441708025
 20
32.96602124892721
 30
0
  0
LINE
  5
61
100
AcDbEntity
  8
right
  6
ByLayer
 62
  256
370
   -1
100
AcDbLine
 10
169
 20
59
 11
197.338
 21
58.96600000000001
  0
LINE
  5
62
100
AcDbEntity
  8
right
  6
ByLayer
 62
  256
370
   -1
100
AcDbLine
 10
169
 20
59
 11
169
 21
47
  0
LINE
  5
63
100
AcDbEntity
  8
right
  6
ByLayer
 62
  256
370
   -1
100
AcDbLine
 10
169
 20
47
 11
195.64
 21
47
  0
LINE
  5
64
100
AcDbEntity
  8
right
  6
ByLayer
 62
  256
370
   -1
100
AcDbLine
 10
29.96346441708025
 20
32.96602124892721
 11
29.96346441708025
 21
39
  0
LINE
  5
65
100
AcDbEntity
  8
right
  6
ByLayer
 62
  256
370
   -1
100
AcDbLine
 10
82.9915
 20
21.50380000000001
 11
82.9915
 21
38.96602124892721
  0
LINE
  5
66
100
AcDbEntity
  8
right
  6
ByLayer
 62
  256
370
   -1
100
AcDbLine
 10
51.2149
 20
21.50380000000001
 11
51.2149
 21
38.98063275627041
  0
LINE
  5
67
100
AcDbEntity
  8
right
  6
ByLayer
 62
  256
370
   -1
100
AcDbLine
 10
29.96346441708025
 20
39
 11
51.2149
 21
38.98063275627041
  0
SPLINE
  5
68
100
AcDbEntity
  8
right
  6
ByLayer
 62
  256
370
   -1
100
AcDbSpline
210
0
220
0
230
0
 70
    8
 71
    2
 72
    9
 73
    6
 74
    0
 42
1e-07
 43
1e-07
 40
0
 40
0
 40
0
 40
0.25
 40
0.5
 40
0.75
 40
1
 40
1
 40
1
 10
104
 20
33
 30
0
 10
133.5634533473826
 20
33.33299355636589
 30
0
 10
183.6972891450188
 20
39.16935094876911
 30
0
 10
195.2988677083216
 20
41.32604026592469
 30
0
 10
196.1789290156822
 20
47.904275322828
 30
0
 10
195.6400697116685
 20
47
 30
0
  0
LINE
  5
69
100
AcDbEntity
  8
right
  6
ByLayer
 62
  256
370
   -1
100
AcDbLine
 10
104
 20
39
 11
104
 21
33
  0
LINE
  5
6A
100
AcDbEntity
  8
right
  6
ByLayer
 62
  256
370
   -1
100
AcDbLine
 10
82.9915
 20
38.96602124892721
 11
104
 21
39
  0
SPLINE
  5
6B
100
AcDbEntity
  8
right
  6
ByLayer
 62
  256
370
   -1
100
AcDbSpline
210
0
220
0
230
0
 70
    8
 71
    2
 72
    7
 73
    4
 74
    0
 42
1e-07
 43
1e-07
 40
0
 40
0
 40
0
 40
0.5
 40
1
 40
1
 40
1
 10
126.5625553907296
 20
65.5900473625257
 30
0
 10
135.270313375456
 20
65.13875431978812
 30
0
 10
166.8078847550655
 20
63.85375220478511
 30
0
 10
194.4435017946616
 20
64.45631479742588
 30
0
  0
ARC
  5
6C
100
AcDbEntity
  8
right
  6
ByLayer
 62
  256
370
   -1
100
AcDbCircle
 10
332.8968
 20
21.50380000000001
 40
15.8883
100
AcDbArc
 50
180
 51
0
  0
ARC
  5
6D
100
AcDbEntity
  8
right
  6
ByLayer
 62
  256
370
   -1
100
AcDbCircle
 10
332.8968
 20
21.50380000000001
 40
15.8883
100
AcDbArc
 50
180
 51
0
  0
LINE
  5
6E
100
AcDbEntity
  8
right
  6
ByLayer
 62
  256
370
   -1
100
AcDbLine
 10
400
 20
40
 11
400
 21
57.90809999999999
  0
ARC
  5
6F
100
AcDbEntity
  8
right
  6
ByLayer
 62
  256
370
   -1
100
AcDbCircle
 10
394
 20
40
 40
6
100
AcDbArc
 50
274.487
 51
0
  0
SPLINE
  5
70
100
AcDbEntity
  8
right
  6
ByLayer
 62
  256
370
   -1
100
AcDbSpline
210
0
220
0
230
0
 70
    8
 71
    2
 72
    8
 73
    5
 74
    0
 42
1e-07
 43
1e-07
 40
0
 40
0
 40
0
 40
0.3333333333333333
 40
0.6666666666666666
 40
1
 40
1
 40
1
 10
395.1904604574556
 20
63.78881457386211
 30
0
 10
388.6908303005158
 20
64.88493322532378
 30
0
 10
382.2967918864113
 20
65.53858293292768
 30
0
 10
376.597442150121
 20
65.90096810767068
 30
0
 10
374.7443557001462
 20
65.98934104853402
 30
0
  0
ARC
  5
71
100
AcDbEntity
  8
right
  6
ByLayer
 62
  256
370
   -1
100
AcDbCircle
 10
394
 20
57.90809999999999
 40
6
100
AcDbArc
 50
0
 51
78.556
  0
SPLINE
  5
72
100
AcDbEntity
  8
right
  6
ByLayer
 62
  256
370
   -1
100
AcDbSpline
210
0
220
0
230
0
 70
    8
 71
    2
 72
    7
 73
    4
 74
    0
 42
1e-07
 43
1e-07
 40
0
 40
0
 40
0
 40
0.5
 40
1
 40
1
 40
1
 10
327.8366
 20
71.15660000000003
 30
0
 10
336.0309916479462
 20
72.82460285162932
 30
0
 10
358.177934375057
 20
70.38497804205377
 30
0
 10
368.0296
 20
58.93380000000002
 30
0
  0
LINE
  5
73
100
AcDbEntity
  8
right
  6
ByLayer
 62
  256
370
   -1
100
AcDbLine
 10
332.1141
 20
58.39710000000002
 11
368.0296
 21
58.93380000000002
  0
LINE
  5
74
100
AcDbEntity
  8
right
  6
ByLayer
 62
  256
370
   -1
100
AcDbLine
 10
327.8366
 20
71.15660000000003
 11
332.1141
 21
58.39710000000002
  0
LINE
  5
75
100
AcDbEntity
  8
right
  6
ByLayer
 62
  256
370
   -1
100
AcDbLine
 10
322.8338
 20
70.5881
 11
327.0976
 21
58.42219999999998
  0
LINE
  5
76
100
AcDbEntity
  8
right
  6
ByLayer
 62
  256
370
   -1
100
AcDbLine
 10
327.0976
 20
58.42219999999998
 11
302.6931
 21
60.16930000000002
  0
LINE
  5
77
100
AcDbEntity
  8
right
  6
ByLayer
 62
  256
370
   -1
100
AcDbLine
 10
302.2666
 20
66.0924
 11
322.8338
 21
70.5881
  0
ARC
  5
78
100
AcDbEntity
  8
right
  6
ByLayer
 62
  256
370
   -1
100
AcDbCircle
 10
302.9073
 20
63.16160000000002
 40
3
100
AcDbArc
 50
102.3301
 51
265.905
  0
SPLINE
  5
79
100
AcDbEntity
  8
right
  6
ByLayer
 62
  256
370
   -1
100
AcDbSpline
210
0
220
0
230
0
 70
    8
 71
    2
 72
   11
 73
    8
 74
    0
 42
1e-07
 43
1e-07
 40
0
 40
0
 40
0
 40
0.1666666666666667
 40
0.3333333333333333
 40
0.5
 40
0.6666666666666666
 40
0.8333333333333334
 40
1
 40
1
 40
1
 10
374.7444
 20
65.98930000000001
 30
0
 10
373.5712
 20
66.0453
 30
0
 10
369.8187
 20
66.17489999999998
 30
0
 10
364.3597
 20
71.17619999999999
 30
0
 10
355.1065
 20
76.88240000000002
 30
0
 10
333.6085
 20
79.11970000000002
 30
0
 10
285.2949029236941
 20
67.67419666730359
 30
0
 10
273.4374446092704
 20
65.5900473625257
 30
0
  0
CIRCLE
  5
7A
100
AcDbEntity
  8
right
  6
ByLayer
 62
  256
370
   -1
100
AcDbCircle
 10
332.8968
 20
21.50380000000001
 40
2.5
  0
SPLINE
  5
7B
100
AcDbEntity
  8
right
  6
ByLayer
 62
  256
370
   -1
100
AcDbSpline
210
0
220
0
230
0
 70
    8
 71
    2
 72
    6
 73
    3
 74
    0
 42
1e-07
 43
1e-07
 40
0
 40
0
 40
0
 40
1
 40
1
 40
1
 10
394.4693974020536
 20
34.01838934074229
 30
0
 10
382.2984192465723
 20
32.45758644682661
 30
0
 10
370.0365355829197
 20
32.96602124892721
 30
0
  0
LINE
  5
7C
100
AcDbEntity
  8
right
  6
ByLayer
 62
  256
370
   -1
100
AcDbLine
 10
231
 20
59
 11
202.662
 21
58.96600000000001
  0
LINE
  5
7D
100
AcDbEntity
  8
right
  6
ByLayer
 62
  256
370
   -1
100
AcDbLine
 10
231
 20
59
 11
231
 21
47
  0
LINE
  5
7E
100
AcDbEntity
  8
right
  6
ByLayer
 62
  256
370
   -1
100
AcDbLine
 10
231
 20
47
 11
204.36
 21
47
  0
LINE
  5
7F
100
AcDbEntity
  8
right
  6
ByLayer
 62
  256
370
   -1
100
AcDbLine
 10
370.0365355829197
 20
32.96602124892721
 11
370.0365355829197
 21
39
  0
LINE
  5
80
100
AcDbEntity
  8
right
  6
ByLayer
 62
  256
370
   -1
100
AcDbLine
 10
317.0085
 20
21.50380000000001
 11
317.0085
 21
38.96602124892721
  0
LINE
  5
81
100
AcDbEntity
  8
right
  6
ByLayer
 62
  256
370
   -1
100
AcDbLine
 10
348.7851
 20
21.50380000000001
 11
348.7851
 21
38.98063275627041
  0
LINE
  5
82
100
AcDbEntity
  8
right
  6
ByLayer
 62
  256
370
   -1
100
AcDbLine
 10
370.0365355829197
 20
39
 11
348.7851
 21
38.98063275627041
  0
SPLINE
  5
83
100
AcDbEntity
  8
right
  6
ByLayer
 62
  256
370
   -1
100
AcDbSpline
210
0
220
0
230
0
 70
    8
 71
    2
 72
    9
 73
    6
 74
    0
 42
1e-07
 43
1e-07
 40
0
 40
0
 40
0
 40
0.25
 40
0.5
 40
0.75
 40
1
 40
1
 40
1
 10
296
 20
33
 30
0
 10
266.4365466526174
 20
33.33299355636589
 30
0
 10
216.3027108549812
 20
39.16935094876911
 30
0
 10
204.7011322916784
 20
41.32604026592469
 30
0
 10
203.8210709843178
 20
47.904275322828
 30
0
 10
204.3599302883315
 20
47
 30
0
  0
LINE
  5
84
100
AcDbEntity
  8
right
  6
ByLayer
 62
  256
370
   -1
100
AcDbLine
 10
296
 20
39
 11
296
 21
33
  0
LINE
  5
85
100
AcDbEntity
  8
right
  6
ByLayer
 62
  256
370
   -1
100
AcDbLine
 10
317.0085
 20
38.96602124892721
 11
296
 21
39
  0
SPLINE
  5
86
100
AcDbEntity
  8
right
  6
ByLayer
 62
  256
370
   -1
100
AcDbSpline
210
0
220
0
230
0
 70
    8
 71
    2
 72
    7
 73
    4
 74
    0
 42
1e-07
 43
1e-07
 40
0
 40
0
 40
0
 40
0.5
 40
1
 40
1
 40
1
 10
273.4374446092704
 20
65.5900473625257
 30
0
 10
264.729686624544
 20
65.13875431978812
 30
0
 10
233.1921152449345
 20
63.85375220478511
 30
0
 10
205.5564982053384
 20
64.45631479742588
 30
0
  0
LINE
  5
87
100
AcDbEntity
  8
right
  6
ByLayer
 62
  256
370
   -1
100
AcDbLine
 10
202.6617316756252
 20
58.96602124892718
 11
202.4032779357289
 21
61.09669327673089
  0
LINE
  5
88
100
AcDbEntity
  8
right
  6
ByLayer
 62
  256
370
   -1
100
AcDbLine
 10
205.5564982053384
 20
64.45631479742588
 11
205.4121598555343
 21
64.45779253330608
  0
ARC
  5
89
100
AcDbEntity
  8
right
  6
ByLayer
 62
  256
370
   -1
100
AcDbCircle
 10
205.381447468092
 20
61.4579497458825
 40
3
100
AcDbArc
 50
89.41342636058752
 51
186.9162746551209
  0
LINE
  5
8A
100
AcDbEntity
  8
right
  6
ByLayer
 62
  256
370
   -1
100
AcDbLine
 10
197.3382683243748
 20
58.96602124892718
 11
197.5967220642711
 21
61.09669327673089
  0
LINE
  5
8B
100
AcDbEntity
  8
right
  6
ByLayer
 62
  256
370
   -1
100
AcDbLine
 10
194.4435017946616
 20
64.45631479742588
 11
194.5878401444657
 21
64.45779253330608
  0
ARC
  5
8C
100
AcDbEntity
  8
right
  6
ByLayer
 62
  256
370
   -1
100
AcDbCircle
 10
194.618552531908
 20
61.4579497458825
 40
3
100
AcDbArc
 50
353.083725344879
 51
90.58657363941248
  0
CIRCLE
  5
8D
100
AcDbEntity
  8
right
  6
ByLayer
 62
  256
370
   -1
100
AcDbCircle
 10
60
 20
50
 40
4
  0
CIRCLE
  5
8E
100
AcDbEntity
  8
right
  6
ByLayer
 62
  256
370
   -1
100
AcDbCircle
 10
140
 20
50
 40
4
  0
CIRCLE
  5
8F
100
AcDbEntity
  8
right
  6
ByLayer
 62
  256
370
   -1
100
AcDbCircle
 10
260
 20
50
 40
4
  0
CIRCLE
  5
90
100
AcDbEntity
  8
right
  6
ByLayer
 62
  256
370
   -1
100
AcDbCircle
 10
340
 20
50
 40
4
  0
LINE
  5
91
100
AcDbEntity
  8
left
  6
ByLayer
 62
  256
370
   -1
100
AcDbLine
 10
289.8095222222222
 20
55
 11
286
 21
45
  0
LINE
  5
92
100
AcDbEntity
  8
left
  6
ByLayer
 62
  256
370
   -1
100
AcDbLine
 10
289.8095222222222
 20
55
 11
293.6190444444445
 21
45
  0
LINE
  5
93
100
AcDbEntity
  8
left
  6
ByLayer
 62
  256
370
   -1
100
AcDbLine
 10
287.4285666666667
 20
48.33333333333334
 11
292.1904777777778
 21
48.33333333333334
  0
LINE
  5
94
100
AcDbEntity
  8
left
  6
ByLayer
 62
  256
370
   -1
100
AcDbLine
 10
296.9523777777778
 20
51.66666666666666
 11
296.9523777777778
 21
45
  0
LINE
  5
95
100
AcDbEntity
  8
left
  6
ByLayer
 62
  256
370
   -1
100
AcDbLine
 10
296.9523777777778
 20
49.7619
 11
298.3809444444444
 21
51.19047777777778
  0
LINE
  5
96
100
AcDbEntity
  8
left
  6
ByLayer
 62
  256
370
   -1
100
AcDbLine
 10
298.3809444444444
 20
51.19047777777778
 11
299.3333333333333
 21
51.66666666666666
  0
LINE
  5
97
100
AcDbEntity
  8
left
  6
ByLayer
 62
  256
370
   -1
100
AcDbLine
 10
299.3333333333333
 20
51.66666666666666
 11
300.7619
 21
51.66666666666666
  0
LINE
  5
98
100
AcDbEntity
  8
left
  6
ByLayer
 62
  256
370
   -1
100
AcDbLine
 10
300.7619
 20
51.66666666666666
 11
301.7142777777777
 21
51.19047777777778
  0
LINE
  5
99
100
AcDbEntity
  8
left
  6
ByLayer
 62
  256
370
   -1
100
AcDbLine
 10
301.7142777777777
 20
51.19047777777778
 11
302.1904777777778
 21
49.7619
  0
LINE
  5
9A
100
AcDbEntity
  8
left
  6
ByLayer
 62
  256
370
   -1
100
AcDbLine
 10
302.1904777777778
 20
49.7619
 11
302.1904777777778
 21
45
  0
LINE
  5
9B
100
AcDbEntity
  8
left
  6
ByLayer
 62
  256
370
   -1
100
AcDbLine
 10
305.5238111111111
 20
51.66666666666666
 11
305.5238111111111
 21
45
  0
LINE
  5
9C
100
AcDbEntity
  8
left
  6
ByLayer
 62
  256
370
   -1
100
AcDbLine
 10
305.5238111111111
 20
49.7619
 11
306.9523777777778
 21
51.19047777777778
  0
LINE
  5
9D
100
AcDbEntity
  8
left
  6
ByLayer
 62
  256
370
   -1
100
AcDbLine
 10
306.9523777777778
 20
51.19047777777778
 11
307.9047666666667
 21
51.66666666666666
  0
LINE
  5
9E
100
AcDbEntity
  8
left
  6
ByLayer
 62
  256
370
   -1
100
AcDbLine
 10
307.9047666666667
 20
51.66666666666666
 11
309.3333333333333
 21
51.66666666666666
  0
LINE
  5
9F
100
AcDbEntity
  8
left
  6
ByLayer
 62
  256
370
   -1
100
AcDbLine
 10
309.3333333333333
 20
51.66666666666666
 11
310.2857111111111
 21
51.19047777777778
  0
LINE
  5
A0
100
AcDbEntity
  8
left
  6
ByLayer
 62
  256
370
   -1
100
AcDbLine
 10
310.2857111111111
 20
51.19047777777778
 11
310.7619111111111
 21
49.7619
  0
LINE
  5
A1
100
AcDbEntity
  8
left
  6
ByLayer
 62
  256
370
   -1
100
AcDbLine
 10
310.7619111111111
 20
49.7619
 11
310.7619111111111
 21
45
  0
LINE
  5
A2
100
AcDbEntity
  8
left
  6
ByLayer
 62
  256
370
   -1
100
AcDbLine
 10
319.8095333333333
 20
51.66666666666666
 11
319.8095333333333
 21
45
  0
LINE
  5
A3
100
AcDbEntity
  8
left
  6
ByLayer
 62
  256
370
   -1
100
AcDbLine
 10
319.8095333333333
 20
50.2381
 11
318.8571444444444
 21
51.19047777777778
  0
LINE
  5
A4
100
AcDbEntity
  8
left
  6
ByLayer
 62
  256
370
   -1
100
AcDbLine
 10
318.8571444444444
 20
51.19047777777778
 11
317.9047666666667
 21
51.66666666666666
  0
LINE
  5
A5
100
AcDbEntity
  8
left
  6
ByLayer
 62
  256
370
   -1
100
AcDbLine
 10
317.9047666666667
 20
51.66666666666666
 11
316.4762
 21
51.66666666666666
  0
LINE
  5
A6
100
AcDbEntity
  8
left
  6
ByLayer
 62
  256
370
   -1
100
AcDbLine
 10
316.4762
 20
51.66666666666666
 11
315.5238111111111
 21
51.19047777777778
  0
LINE
  5
A7
100
AcDbEntity
  8
left
  6
ByLayer
 62
  256
370
   -1
100
AcDbLine
 10
315.5238111111111
 20
51.19047777777778
 11
314.5714344444444
 21
50.2381
  0
LINE
  5
A8
100
AcDbEntity
  8
left
  6
ByLayer
 62
  256
370
   -1
100
AcDbLine
 10
314.5714344444444
 20
50.2381
 11
314.0952444444445
 21
48.80952222222222
  0
LINE
  5
A9
100
AcDbEntity
  8
left
  6
ByLayer
 62
  256
370
   -1
100
AcDbLine
 10
314.0952444444445
 20
48.80952222222222
 11
314.0952444444445
 21
47.85714444444444
  0
LINE
  5
AA
100
AcDbEntity
  8
left
  6
ByLayer
 62
  256
370
   -1
100
AcDbLine
 10
314.0952444444445
 20
47.85714444444444
 11
314.5714344444444
 21
46.42856666666667
  0
LINE
  5
AB
100
AcDbEntity
  8
left
  6
ByLayer
 62
  256
370
   -1
100
AcDbLine
 10
314.5714344444444
 20
46.42856666666667
 11
315.5238111111111
 21
45.47619
  0
LINE
  5
AC
100
AcDbEntity
  8
left
  6
ByLayer
 62
  256
370
   -1
100
AcDbLine
 10
315.5238111111111
 20
45.47619
 11
316.4762
 21
45
  0
LINE
  5
AD
100
AcDbEntity
  8
left
  6
ByLayer
 62
  256
370
   -1
100
AcDbLine
 10
316.4762
 20
45
 11
317.9047666666667
 21
45
  0
LINE
  5
AE
100
AcDbEntity
  8
left
  6
ByLayer
 62
  256
370
   -1
100
AcDbLine
 10
317.9047666666667
 20
45
 11
318.8571444444444
 21
45.47619
  0
LINE
  5
AF
100
AcDbEntity
  8
left
  6
ByLayer
 62
  256
370
   -1
100
AcDbLine
 10
318.8571444444444
 20
45.47619
 11
319.8095333333333
 21
46.42856666666667
  0
LINE
  5
B0
100
AcDbEntity
  8
left
  6
CONTINUOUS
 62
    7
370
    0
100
AcDbLine
 10
83.80952222222221
 20
55
 11
80
 21
45
  0
LINE
  5
B1
100
AcDbEntity
  8
left
  6
CONTINUOUS
 62
    7
370
    0
100
AcDbLine
 10
83.80952222222221
 20
55
 11
87.61904444444444
 21
45
  0
LINE
  5
B2
100
AcDbEntity
  8
left
  6
CONTINUOUS
 62
    7
370
    0
100
AcDbLine
 10
81.42856666666665
 20
48.33333333333334
 11
86.19047777777779
 21
48.33333333333334
  0
LINE
  5
B3
100
AcDbEntity
  8
left
  6
CONTINUOUS
 62
    7
370
    0
100
AcDbLine
 10
90.95237777777778
 20
51.66666666666666
 11
90.95237777777778
 21
45
  0
LINE
  5
B4
100
AcDbEntity
  8
left
  6
CONTINUOUS
 62
    7
370
    0
100
AcDbLine
 10
90.95237777777778
 20
49.7619
 11
92.38094444444444
 21
51.19047777777778
  0
LINE
  5
B5
100
AcDbEntity
  8
left
  6
CONTINUOUS
 62
    7
370
    0
100
AcDbLine
 10
92.38094444444444
 20
51.19047777777778
 11
93.33333333333334
 21
51.66666666666666
  0
LINE
  5
B6
100
AcDbEntity
  8
left
  6
CONTINUOUS
 62
    7
370
    0
100
AcDbLine
 10
93.33333333333334
 20
51.66666666666666
 11
94.7619
 21
51.66666666666666
  0
LINE
  5
B7
100
AcDbEntity
  8
left
  6
CONTINUOUS
 62
    7
370
    0
100
AcDbLine
 10
94.7619
 20
51.66666666666666
 11
95.71427777777778
 21
51.19047777777778
  0
LINE
  5
B8
100
AcDbEntity
  8
left
  6
CONTINUOUS
 62
    7
370
    0
100
AcDbLine
 10
95.71427777777778
 20
51.19047777777778
 11
96.19047777777779
 21
49.7619
  0
LINE
  5
B9
100
AcDbEntity
  8
left
  6
CONTINUOUS
 62
    7
370
    0
100
AcDbLine
 10
96.19047777777779
 20
49.7619
 11
96.19047777777779
 21
45
  0
LINE
  5
BA
100
AcDbEntity
  8
left
  6
CONTINUOUS
 62
    7
370
    0
100
AcDbLine
 10
99.52381111111112
 20
51.66666666666666
 11
99.52381111111112
 21
45
  0
LINE
  5
BB
100
AcDbEntity
  8
left
  6
CONTINUOUS
 62
    7
370
    0
100
AcDbLine
 10
99.52381111111112
 20
49.7619
 11
100.9523777777778
 21
51.19047777777778
  0
LINE
  5
BC
100
AcDbEntity
  8
left
  6
CONTINUOUS
 62
    7
370
    0
100
AcDbLine
 10
100.9523777777778
 20
51.19047777777778
 11
101.9047666666667
 21
51.66666666666666
  0
LINE
  5
BD
100
AcDbEntity
  8
left
  6
CONTINUOUS
 62
    7
370
    0
100
AcDbLine
 10
101.9047666666667
 20
51.66666666666666
 11
103.3333333333333
 21
51.66666666666666
  0
LINE
  5
BE
100
AcDbEntity
  8
left
  6
CONTINUOUS
 62
    7
370
    0
100
AcDbLine
 10
103.3333333333333
 20
51.66666666666666
 11
104.2857111111111
 21
51.19047777777778
  0
LINE
  5
BF
100
AcDbEntity
  8
left
  6
CONTINUOUS
 62
    7
370
    0
100
AcDbLine
 10
104.2857111111111
 20
51.19047777777778
 11
104.7619111111111
 21
49.7619
  0
LINE
  5
C0
100
AcDbEntity
  8
left
  6
CONTINUOUS
 62
    7
370
    0
100
AcDbLine
 10
104.7619111111111
 20
49.7619
 11
104.7619111111111
 21
45
  0
LINE
  5
C1
100
AcDbEntity
  8
left
  6
CONTINUOUS
 62
    7
370
    0
100
AcDbLine
 10
113.8095333333333
 20
51.66666666666666
 11
113.8095333333333
 21
45
  0
LINE
  5
C2
100
AcDbEntity
  8
left
  6
CONTINUOUS
 62
    7
370
    0
100
AcDbLine
 10
113.8095333333333
 20
50.2381
 11
112.8571444444445
 21
51.19047777777778
  0
LINE
  5
C3
100
AcDbEntity
  8
left
  6
CONTINUOUS
 62
    7
370
    0
100
AcDbLine
 10
112.8571444444445
 20
51.19047777777778
 11
111.9047666666667
 21
51.66666666666666
  0
LINE
  5
C4
100
AcDbEntity
  8
left
  6
CONTINUOUS
 62
    7
370
    0
100
AcDbLine
 10
111.9047666666667
 20
51.66666666666666
 11
110.4762
 21
51.66666666666666
  0
LINE
  5
C5
100
AcDbEntity
  8
left
  6
CONTINUOUS
 62
    7
370
    0
100
AcDbLine
 10
110.4762
 20
51.66666666666666
 11
109.5238111111111
 21
51.19047777777778
  0
LINE
  5
C6
100
AcDbEntity
  8
left
  6
CONTINUOUS
 62
    7
370
    0
100
AcDbLine
 10
109.5238111111111
 20
51.19047777777778
 11
108.5714344444445
 21
50.2381
  0
LINE
  5
C7
100
AcDbEntity
  8
left
  6
CONTINUOUS
 62
    7
370
    0
100
AcDbLine
 10
108.5714344444445
 20
50.2381
 11
108.0952444444445
 21
48.80952222222222
  0
LINE
  5
C8
100
AcDbEntity
  8
left
  6
CONTINUOUS
 62
    7
370
    0
100
AcDbLine
 10
108.0952444444445
 20
48.80952222222222
 11
108.0952444444445
 21
47.85714444444444
  0
LINE
  5
C9
100
AcDbEntity
  8
left
  6
CONTINUOUS
 62
    7
370
    0
100
AcDbLine
 10
108.0952444444445
 20
47.85714444444444
 11
108.5714344444445
 21
46.42856666666667
  0
LINE
  5
CA
100
AcDbEntity
  8
left
  6
CONTINUOUS
 62
    7
370
    0
100
AcDbLine
 10
108.5714344444445
 20
46.42856666666667
 11
109.5238111111111
 21
45.47619
  0
LINE
  5
CB
100
AcDbEntity
  8
left
  6
CONTINUOUS
 62
    7
370
    0
100
AcDbLine
 10
109.5238111111111
 20
45.47619
 11
110.4762
 21
45
  0
LINE
  5
CC
100
AcDbEntity
  8
left
  6
CONTINUOUS
 62
    7
370
    0
100
AcDbLine
 10
110.4762
 20
45
 11
111.9047666666667
 21
45
  0
LINE
  5
CD
100
AcDbEntity
  8
left
  6
CONTINUOUS
 62
    7
370
    0
100
AcDbLine
 10
111.9047666666667
 20
45
 11
112.8571444444445
 21
45.47619
  0
LINE
  5
CE
100
AcDbEntity
  8
left
  6
CONTINUOUS
 62
    7
370
    0
100
AcDbLine
 10
112.8571444444445
 20
45.47619
 11
113.8095333333333
 21
46.42856666666667
  0
ENDSEC
  0
SECTION
  2
OBJECTS
  0
DICTIONARY
  5
C
330
0
100
AcDbDictionary
281
    1
  3
ACAD_GROUP
350
D
  3
ACAD_IMAGE_DICT
350
CF
  0
DICTIONARY
  5
D
330
C
100
AcDbDictionary
281
    1
  0
IMAGEDEF_REACTOR
  5
50
330
51
100
AcDbRasterImageDefReactor
 90
    2
330
51
  0
DICTIONARY
  5
CF
330
C
100
AcDbDictionary
281
    1
  3
10-fastest-single-engine-planes-today-g
350
4F
  0
IMAGEDEF
  5
4F
102
{ACAD_REACTORS
330
50
102
}
100
AcDbRasterImageDef
 90
    0
  1
/home/duncan/Downloads/10-fastest-single-engine-planes-today-g.jpg
 10
1000
 20
750
 11
1
 21
1
280
    1
281
    0
  0
ENDSEC
  0
EOF
