999
dxfrw 0.6.3
  0
SECTION
  2
HEADER
  9
$ACADVER
  1
AC1021
  9
$DWGCODEPAGE
  3
ANSI_1252
  9
$INSBASE
 10
0
 20
0
 30
0
  9
$EXTMIN
 10
0
 20
-7.105427357601002e-15
 30
0
  9
$EXTMAX
 10
644.979915854399
 20
278.1839624912597
 30
0
  9
$LIMMIN
 10
0
 20
0
  9
$LIMMAX
 10
420
 20
297
  9
$ORTHOMODE
 70
    0
  9
$REGENMODE
 70
    1
  9
$FILLMODE
 70
    1
  9
$QTEXTMODE
 70
    0
  9
$MIRRTEXT
 70
    0
  9
$LTSCALE
 40
1
  9
$ATTMODE
 70
    0
  9
$TEXTSIZE
 40
2.5
  9
$TRACEWID
 40
15.68
  9
$TEXTSTYLE
  7
STANDARD
  9
$CLAYER
  8
wheels
  9
$CELTYPE
  6
BYLAYER
  9
$CECOLOR
 62
  256
  9
$CELTSCALE
 40
1
  9
$DISPSILH
 70
    0
  9
$DIMSCALE
 40
2.5
  9
$DIMASZ
 40
2.5
  9
$DIMEXO
 40
0.625
  9
$DIMDLI
 40
3.75
  9
$DIMRND
 40
0
  9
$DIMDLE
 40
0
  9
$DIMEXE
 40
1.25
  9
$DIMTP
 40
0
  9
$DIMTM
 40
0
  9
$DIMTXT
 40
2.5
  9
$DIMCEN
 40
2.5
  9
$DIMTSZ
 40
0
  9
$DIMTOL
 70
    0
  9
$DIMLIM
 70
    0
  9
$DIMTIH
 70
    0
  9
$DIMTOH
 70
    0
  9
$DIMSE1
 70
    0
  9
$DIMSE2
 70
    0
  9
$DIMTAD
 70
    1
  9
$DIMZIN
 70
    8
  9
$DIMBLK
  1

  9
$DIMASO
 70
    1
  9
$DIMSHO
 70
    1
  9
$DIMPOST
  1

  9
$DIMAPOST
  1

  9
$DIMALT
 70
    0
  9
$DIMALTD
 70
    3
  9
$DIMALTF
 40
0.03937
  9
$DIMLFAC
 40
1
  9
$DIMTOFL
 70
    1
  9
$DIMTVP
 40
0
  9
$DIMTIX
 70
    0
  9
$DIMSOXD
 70
    0
  9
$DIMSAH
 70
    0
  9
$DIMBLK1
  1

  9
$DIMBLK2
  1

  9
$DIMSTYLE
  2
STANDARD
  9
$DIMCLRD
 70
    0
  9
$DIMCLRE
 70
    0
  9
$DIMCLRT
 70
    0
  9
$DIMTFAC
 40
1
  9
$DIMGAP
 40
0.625
  9
$DIMJUST
 70
    0
  9
$DIMSD1
 70
    0
  9
$DIMSD2
 70
    0
  9
$DIMTOLJ
 70
    0
  9
$DIMTZIN
 70
    8
  9
$DIMALTZ
 70
    0
  9
$DIMALTTZ
 70
    0
  9
$DIMUPT
 70
    0
  9
$DIMDEC
 70
    2
  9
$DIMTDEC
 70
    2
  9
$DIMALTU
 70
    2
  9
$DIMALTTD
 70
    3
  9
$DIMTXSTY
  7
STANDARD
  9
$DIMAUNIT
 70
    0
  9
$DIMADEC
 70
    0
  9
$DIMALTRND
 40
0
  9
$DIMAZIN
 70
    0
  9
$DIMDSEP
 70
   44
  9
$DIMATFIT
 70
    3
  9
$DIMFRAC
 70
    0
  9
$DIMLDRBLK
  1
STANDARD
  9
$DIMLUNIT
 70
    2
  9
$DIMLWD
 70
   -2
  9
$DIMLWE
 70
   -2
  9
$DIMTMOVE
 70
    0
  9
$DIMFXL
 40
1
  9
$DIMFXLON
 70
    0
  9
$DIMJOGANG
 40
0.7854
  9
$DIMTFILL
 70
    0
  9
$DIMTFILLCLR
 70
    0
  9
$DIMARCSYM
 70
    0
  9
$DIMLTYPE
  6

  9
$DIMLTEX1
  6

  9
$DIMLTEX2
  6

  9
$LUNITS
 70
    2
  9
$LUPREC
 70
    4
  9
$SKETCHINC
 40
1
  9
$FILLETRAD
 40
0
  9
$AUNITS
 70
    0
  9
$AUPREC
 70
    2
  9
$MENU
  1
.
  9
$ELEVATION
 40
0
  9
$PELEVATION
 40
0
  9
$THICKNESS
 40
0
  9
$LIMCHECK
 70
    0
  9
$CHAMFERA
 40
0
  9
$CHAMFERB
 40
0
  9
$CHAMFERC
 40
0
  9
$CHAMFERD
 40
0
  9
$SKPOLY
 70
    0
  9
$USRTIMER
 70
    1
  9
$ANGBASE
 50
0
  9
$ANGDIR
 70
    0
  9
$PDMODE
 70
   34
  9
$PDSIZE
 40
0
  9
$PLINEWID
 40
0
  9
$SPLFRAME
 70
    0
  9
$SPLINETYPE
 70
    2
  9
$SPLINESEGS
 70
    8
  9
$HANDSEED
  5
20000
  9
$SURFTAB1
 70
    6
  9
$SURFTAB2
 70
    6
  9
$SURFTYPE
 70
    6
  9
$SURFU
 70
    6
  9
$SURFV
 70
    6
  9
$UCSBASE
  2

  9
$UCSNAME
  2

  9
$UCSORG
 10
0
 20
0
 30
0
  9
$UCSXDIR
 10
1
 20
0
 30
0
  9
$UCSYDIR
 10
0
 20
1
 30
0
  9
$UCSORTHOREF
  2

  9
$UCSORTHOVIEW
 70
    0
  9
$UCSORGTOP
 10
0
 20
0
 30
0
  9
$UCSORGBOTTOM
 10
0
 20
0
 30
0
  9
$UCSORGLEFT
 10
0
 20
0
 30
0
  9
$UCSORGRIGHT
 10
0
 20
0
 30
0
  9
$UCSORGFRONT
 10
0
 20
0
 30
0
  9
$UCSORGBACK
 10
0
 20
0
 30
0
  9
$PUCSBASE
  2

  9
$PUCSNAME
  2

  9
$PUCSORG
 10
0
 20
0
 30
0
  9
$PUCSXDIR
 10
1
 20
0
 30
0
  9
$PUCSYDIR
 10
0
 20
1
 30
0
  9
$PUCSORTHOREF
  2

  9
$PUCSORTHOVIEW
 70
    0
  9
$PUCSORGTOP
 10
0
 20
0
 30
0
  9
$PUCSORGBOTTOM
 10
0
 20
0
 30
0
  9
$PUCSORGLEFT
 10
0
 20
0
 30
0
  9
$PUCSORGRIGHT
 10
0
 20
0
 30
0
  9
$PUCSORGFRONT
 10
0
 20
0
 30
0
  9
$PUCSORGBACK
 10
0
 20
0
 30
0
  9
$USERI1
 70
    0
  9
$USERI2
 70
    0
  9
$USERI3
 70
    0
  9
$USERI4
 70
    0
  9
$USERI5
 70
    0
  9
$USERR1
 40
0
  9
$USERR2
 40
0
  9
$USERR3
 40
0
  9
$USERR4
 40
0
  9
$USERR5
 40
0
  9
$WORLDVIEW
 70
    1
  9
$SHADEDGE
 70
    3
  9
$SHADEDIF
 70
   70
  9
$TILEMODE
 70
    1
  9
$MAXACTVP
 70
   64
  9
$PINSBASE
 10
0
 20
0
 30
0
  9
$PLIMCHECK
 70
    0
  9
$PEXTMIN
 10
0
 20
0
 30
0
  9
$PEXTMAX
 10
0
 20
0
 30
0
  9
$GRIDMODE
 70
    1
  9
$SNAPSTYLE
 70
    0
  9
$PLIMMIN
 10
0
 20
0
  9
$PLIMMAX
 10
297
 20
210
  9
$UNITMODE
 70
    0
  9
$VISRETAIN
 70
    1
  9
$PLINEGEN
 70
    0
  9
$PSLTSCALE
 70
    1
  9
$TREEDEPTH
 70
 3020
  9
$CMLSTYLE
  2
Standard
  9
$CMLJUST
 70
    0
  9
$CMLSCALE
 40
20
  9
$PROXYGRAPHICS
 70
    1
  9
$MEASUREMENT
 70
    1
  9
$CELWEIGHT
370
   -1
  9
$ENDCAPS
280
    0
  9
$JOINSTYLE
280
    0
  9
$LWDISPLAY
290
    0
  9
$INSUNITS
 70
    4
  9
$HYPERLINKBASE
  1

  9
$STYLESHEET
  1

  9
$XEDIT
290
    1
  9
$CEPSNTYPE
380
    0
  9
$PSTYLEMODE
290
    1
  9
$EXTNAMES
290
    1
  9
$PSVPSCALE
 40
1
  9
$OLESTARTUP
290
    0
  9
$SORTENTS
280
  127
  9
$INDEXCTL
280
    0
  9
$HIDETEXT
280
    1
  9
$XCLIPFRAME
290
    0
  9
$HALOGAP
280
    0
  9
$OBSCOLOR
 70
  257
  9
$OBSLTYPE
280
    0
  9
$INTERSECTIONDISPLAY
280
    0
  9
$INTERSECTIONCOLOR
 70
  257
  9
$DIMASSOC
280
    1
  9
$PROJECTNAME
  1

  9
$CAMERADISPLAY
290
    0
  9
$LENSLENGTH
 40
50
  9
$CAMERAHEIGHT
 40
0
  9
$STEPSPERSEC
 40
2
  9
$STEPSIZE
 40
50
  9
$3DDWFPREC
 40
2
  9
$PSOLWIDTH
 40
5
  9
$PSOLHEIGHT
 40
80
  9
$LOFTANG1
 40
1.570796326794897
  9
$LOFTANG2
 40
1.570796326794897
  9
$LOFTMAG1
 40
0
  9
$LOFTMAG2
 40
0
  9
$LOFTPARAM
 70
    7
  9
$LOFTNORMALS
280
    1
  9
$LATITUDE
 40
1
  9
$LONGITUDE
 40
1
  9
$NORTHDIRECTION
 40
0
  9
$TIMEZONE
 70
-8000
  9
$LIGHTGLYPHDISPLAY
280
    1
  9
$TILEMODELIGHTSYNCH
280
    1
  9
$SOLIDHIST
280
    1
  9
$SHOWHIST
280
    1
  9
$DWFFRAME
280
    2
  9
$DGNFRAME
280
    0
  9
$REALWORLDSCALE
290
    1
  9
$INTERFERECOLOR
 62
    1
  9
$CSHADOW
280
    0
  9
$SHADOWPLANELOCATION
 40
0
  0
ENDSEC
  0
SECTION
  2
CLASSES
  0
ENDSEC
  0
SECTION
  2
TABLES
  0
TABLE
  2
VPORT
  5
8
330
0
100
AcDbSymbolTable
 70
    1
  0
VPORT
  5
31
330
2
100
AcDbSymbolTableRecord
100
AcDbViewportTableRecord
  2
*ACTIVE
 70
    0
 10
0
 20
0
 11
1
 21
1
 12
326.3278486453728
 22
281.7159402229674
 13
0
 23
0
 14
10
 24
10
 15
10
 25
10
 16
0
 26
0
 36
1
 17
0
 27
0
 37
0
 40
678.2662373110154
 41
1.425091352009744
 42
50
 43
0
 44
0
 50
0
 51
0
 71
    0
 72
  100
 73
    1
 74
    3
 75
    0
 76
    1
 77
    0
 78
    0
281
    0
 65
    1
110
0
120
0
130
0
111
1
121
0
131
0
112
0
122
1
132
0
 79
    0
146
0
348
10020
 60
    7
 61
    5
292
1
282
    1
141
0
142
0
 63
  250
421
3358443
  0
ENDTAB
  0
TABLE
  2
LTYPE
  5
5
330
0
100
AcDbSymbolTable
 70
    4
  0
LTYPE
  5
14
330
5
100
AcDbSymbolTableRecord
100
AcDbLinetypeTableRecord
  2
ByBlock
 70
    0
  3

 72
   65
 73
    0
 40
0
  0
LTYPE
  5
15
330
5
100
AcDbSymbolTableRecord
100
AcDbLinetypeTableRecord
  2
ByLayer
 70
    0
  3

 72
   65
 73
    0
 40
0
  0
LTYPE
  5
16
330
5
100
AcDbSymbolTableRecord
100
AcDbLinetypeTableRecord
  2
Continuous
 70
    0
  3
Solid line
 72
   65
 73
    0
 40
0
  0
LTYPE
  5
32
330
5
100
AcDbSymbolTableRecord
100
AcDbLinetypeTableRecord
  2
DOT
 70
    0
  3
Dot . . . . . . . . . . . . . . . . . . . . . .
 72
   65
 73
    2
 40
6.35
 49
0
 74
    0
 49
-6.35
 74
    0
  0
LTYPE
  5
33
330
5
100
AcDbSymbolTableRecord
100
AcDbLinetypeTableRecord
  2
DOTTINY
 70
    0
  3
Dot (.15x) .....................................
 72
   65
 73
    2
 40
0.9525
 49
0
 74
    0
 49
-0.9525
 74
    0
  0
LTYPE
  5
34
330
5
100
AcDbSymbolTableRecord
100
AcDbLinetypeTableRecord
  2
DOT2
 70
    0
  3
Dot (.5x) .....................................
 72
   65
 73
    2
 40
3.175
 49
0
 74
    0
 49
-3.175
 74
    0
  0
LTYPE
  5
35
330
5
100
AcDbSymbolTableRecord
100
AcDbLinetypeTableRecord
  2
DOTX2
 70
    0
  3
Dot (2x) .  .  .  .  .  .  .  .  .  .  .  .  .
 72
   65
 73
    2
 40
12.7
 49
0
 74
    0
 49
-12.7
 74
    0
  0
LTYPE
  5
36
330
5
100
AcDbSymbolTableRecord
100
AcDbLinetypeTableRecord
  2
DASHED
 70
    0
  3
Dashed _ _ _ _ _ _ _ _ _ _ _ _ _ _ _ _ _
 72
   65
 73
    2
 40
19.05
 49
12.7
 74
    0
 49
-6.35
 74
    0
  0
LTYPE
  5
37
330
5
100
AcDbSymbolTableRecord
100
AcDbLinetypeTableRecord
  2
DASHEDTINY
 70
    0
  3
Dashed (.15x) _ _ _ _ _ _ _ _ _ _ _ _ _ _ _ _ _
 72
   65
 73
    2
 40
2.8575
 49
1.905
 74
    0
 49
-0.9525
 74
    0
  0
LTYPE
  5
38
330
5
100
AcDbSymbolTableRecord
100
AcDbLinetypeTableRecord
  2
DASHED2
 70
    0
  3
Dashed (.5x) _ _ _ _ _ _ _ _ _ _ _ _ _ _ _ _ _
 72
   65
 73
    2
 40
9.524999999999999
 49
6.35
 74
    0
 49
-3.175
 74
    0
  0
LTYPE
  5
39
330
5
100
AcDbSymbolTableRecord
100
AcDbLinetypeTableRecord
  2
DASHEDX2
 70
    0
  3
Dashed (2x) ____  ____  ____  ____  ____  ___
 72
   65
 73
    2
 40
38.09999999999999
 49
25.4
 74
    0
 49
-12.7
 74
    0
  0
LTYPE
  5
3A
330
5
100
AcDbSymbolTableRecord
100
AcDbLinetypeTableRecord
  2
DASHDOT
 70
    0
  3
Dash dot __ . __ . __ . __ . __ . __ . __ . __
 72
   65
 73
    4
 40
25.4
 49
12.7
 74
    0
 49
-6.35
 74
    0
 49
0
 74
    0
 49
-6.35
 74
    0
  0
LTYPE
  5
3B
330
5
100
AcDbSymbolTableRecord
100
AcDbLinetypeTableRecord
  2
DASHDOTTINY
 70
    0
  3
Dash dot (.15x) _._._._._._._._._._._._._._._.
 72
   65
 73
    4
 40
3.81
 49
1.905
 74
    0
 49
-0.9525
 74
    0
 49
0
 74
    0
 49
-0.9525
 74
    0
  0
LTYPE
  5
3C
330
5
100
AcDbSymbolTableRecord
100
AcDbLinetypeTableRecord
  2
DASHDOT2
 70
    0
  3
Dash dot (.5x) _._._._._._._._._._._._._._._.
 72
   65
 73
    4
 40
12.7
 49
6.35
 74
    0
 49
-3.175
 74
    0
 49
0
 74
    0
 49
-3.175
 74
    0
  0
LTYPE
  5
3D
330
5
100
AcDbSymbolTableRecord
100
AcDbLinetypeTableRecord
  2
DASHDOTX2
 70
    0
  3
Dash dot (2x) ____  .  ____  .  ____  .  ___
 72
   65
 73
    4
 40
50.8
 49
25.4
 74
    0
 49
-12.7
 74
    0
 49
0
 74
    0
 49
-12.7
 74
    0
  0
LTYPE
  5
3E
330
5
100
AcDbSymbolTableRecord
100
AcDbLinetypeTableRecord
  2
DIVIDE
 70
    0
  3
Divide ____ . . ____ . . ____ . . ____ . . ____
 72
   65
 73
    6
 40
31.75
 49
12.7
 74
    0
 49
-6.35
 74
    0
 49
0
 74
    0
 49
-6.35
 74
    0
 49
0
 74
    0
 49
-6.35
 74
    0
  0
LTYPE
  5
3F
330
5
100
AcDbSymbolTableRecord
100
AcDbLinetypeTableRecord
  2
DIVIDETINY
 70
    0
  3
Divide (.15x) __..__..__..__..__..__..__..__.._
 72
   65
 73
    6
 40
4.7625
 49
1.905
 74
    0
 49
-0.9525
 74
    0
 49
0
 74
    0
 49
-0.9525
 74
    0
 49
0
 74
    0
 49
-0.9525
 74
    0
  0
LTYPE
  5
40
330
5
100
AcDbSymbolTableRecord
100
AcDbLinetypeTableRecord
  2
DIVIDE2
 70
    0
  3
Divide (.5x) __..__..__..__..__..__..__..__.._
 72
   65
 73
    6
 40
15.875
 49
6.35
 74
    0
 49
-3.175
 74
    0
 49
0
 74
    0
 49
-3.175
 74
    0
 49
0
 74
    0
 49
-3.175
 74
    0
  0
LTYPE
  5
41
330
5
100
AcDbSymbolTableRecord
100
AcDbLinetypeTableRecord
  2
DIVIDEX2
 70
    0
  3
Divide (2x) ________  .  .  ________  .  .  _
 72
   65
 73
    6
 40
63.5
 49
25.4
 74
    0
 49
-12.7
 74
    0
 49
0
 74
    0
 49
-12.7
 74
    0
 49
0
 74
    0
 49
-12.7
 74
    0
  0
LTYPE
  5
42
330
5
100
AcDbSymbolTableRecord
100
AcDbLinetypeTableRecord
  2
BORDER
 70
    0
  3
Border __ __ . __ __ . __ __ . __ __ . __ __ .
 72
   65
 73
    6
 40
44.45
 49
12.7
 74
    0
 49
-6.35
 74
    0
 49
12.7
 74
    0
 49
-6.35
 74
    0
 49
0
 74
    0
 49
-6.35
 74
    0
  0
LTYPE
  5
43
330
5
100
AcDbSymbolTableRecord
100
AcDbLinetypeTableRecord
  2
BORDERTINY
 70
    0
  3
Border (.15x) __.__.__.__.__.__.__.__.__.__.__.
 72
   65
 73
    6
 40
6.6675
 49
1.905
 74
    0
 49
-0.9525
 74
    0
 49
1.905
 74
    0
 49
-0.9525
 74
    0
 49
0
 74
    0
 49
-0.9525
 74
    0
  0
LTYPE
  5
44
330
5
100
AcDbSymbolTableRecord
100
AcDbLinetypeTableRecord
  2
BORDER2
 70
    0
  3
Border (.5x) __.__.__.__.__.__.__.__.__.__.__.
 72
   65
 73
    6
 40
22.225
 49
6.35
 74
    0
 49
-3.175
 74
    0
 49
6.35
 74
    0
 49
-3.175
 74
    0
 49
0
 74
    0
 49
-3.175
 74
    0
  0
LTYPE
  5
45
330
5
100
AcDbSymbolTableRecord
100
AcDbLinetypeTableRecord
  2
BORDERX2
 70
    0
  3
Border (2x) ____  ____  .  ____  ____  .  ___
 72
   65
 73
    6
 40
88.89999999999999
 49
25.4
 74
    0
 49
-12.7
 74
    0
 49
25.4
 74
    0
 49
-12.7
 74
    0
 49
0
 74
    0
 49
-12.7
 74
    0
  0
LTYPE
  5
46
330
5
100
AcDbSymbolTableRecord
100
AcDbLinetypeTableRecord
  2
CENTER
 70
    0
  3
Center ____ _ ____ _ ____ _ ____ _ ____ _ ____
 72
   65
 73
    4
 40
50.8
 49
31.75
 74
    0
 49
-6.35
 74
    0
 49
6.35
 74
    0
 49
-6.35
 74
    0
  0
LTYPE
  5
47
330
5
100
AcDbSymbolTableRecord
100
AcDbLinetypeTableRecord
  2
CENTERTINY
 70
    0
  3
Center (.15x) ___ _ ___ _ ___ _ ___ _ ___ _ ___
 72
   65
 73
    4
 40
7.619999999999999
 49
4.7625
 74
    0
 49
-0.9525
 74
    0
 49
0.9525
 74
    0
 49
-0.9525
 74
    0
  0
LTYPE
  5
48
330
5
100
AcDbSymbolTableRecord
100
AcDbLinetypeTableRecord
  2
CENTER2
 70
    0
  3
Center (.5x) ___ _ ___ _ ___ _ ___ _ ___ _ ___
 72
   65
 73
    4
 40
28.575
 49
19.05
 74
    0
 49
-3.175
 74
    0
 49
3.175
 74
    0
 49
-3.175
 74
    0
  0
LTYPE
  5
49
330
5
100
AcDbSymbolTableRecord
100
AcDbLinetypeTableRecord
  2
CENTERX2
 70
    0
  3
Center (2x) ________  __  ________  __  _____
 72
   65
 73
    4
 40
101.6
 49
63.5
 74
    0
 49
-12.7
 74
    0
 49
12.7
 74
    0
 49
-12.7
 74
    0
  0
ENDTAB
  0
TABLE
  2
LAYER
  5
2
330
0
100
AcDbSymbolTable
 70
    1
  0
LAYER
  5
10
330
2
100
AcDbSymbolTableRecord
100
AcDbLayerTableRecord
  2
0
 70
    1
 62
    7
  6
CONTINUOUS
370
    0
390
F
  0
LAYER
  5
4A
330
2
100
AcDbSymbolTableRecord
100
AcDbLayerTableRecord
  2
2x4_back
 70
    0
 62
    5
  6
CONTINUOUS
370
    0
390
F
  0
LAYER
  5
4B
330
2
100
AcDbSymbolTableRecord
100
AcDbLayerTableRecord
  2
left
 70
    0
 62
    7
  6
CONTINUOUS
370
    0
390
F
  0
LAYER
  5
4C
330
2
100
AcDbSymbolTableRecord
100
AcDbLayerTableRecord
  2
middle
 70
    0
 62
    7
  6
CONTINUOUS
370
    0
390
F
  0
LAYER
  5
4D
330
2
100
AcDbSymbolTableRecord
100
AcDbLayerTableRecord
  2
right
 70
    0
 62
    7
  6
CONTINUOUS
370
    0
390
F
  0
LAYER
  5
4E
330
2
100
AcDbSymbolTableRecord
100
AcDbLayerTableRecord
  2
trace
 70
    0
 62
    4
  6
CONTINUOUS
370
  100
390
F
  0
LAYER
  5
4F
330
2
100
AcDbSymbolTableRecord
100
AcDbLayerTableRecord
  2
wheels
 70
    0
 62
    3
  6
CONTINUOUS
370
  100
390
F
  0
LAYER
  5
50
330
2
100
AcDbSymbolTableRecord
100
AcDbLayerTableRecord
  2
windows
 70
    0
 62
    6
  6
CONTINUOUS
370
  100
390
F
  0
LAYER
  5
51
330
2
100
AcDbSymbolTableRecord
100
AcDbLayerTableRecord
  2
wing
 70
    0
 62
    7
  6
CONTINUOUS
370
    0
390
F
  0
LAYER
  5
52
330
2
100
AcDbSymbolTableRecord
100
AcDbLayerTableRecord
  2
working
 70
    0
 62
    1
  6
CONTINUOUS
370
  100
390
F
  0
ENDTAB
  0
TABLE
  2
STYLE
  5
3
330
0
100
AcDbSymbolTable
 70
    3
  0
STYLE
  5
53
330
2
100
AcDbSymbolTableRecord
100
AcDbTextStyleTableRecord
  2
Standard
 70
    0
 40
0
 41
1
 50
0
 71
    0
 42
1
  3
txt
  4

  0
ENDTAB
  0
TABLE
  2
VIEW
  5
6
330
0
100
AcDbSymbolTable
 70
    0
  0
ENDTAB
  0
TABLE
  2
UCS
  5
7
330
0
100
AcDbSymbolTable
 70
    0
  0
ENDTAB
  0
TABLE
  2
APPID
  5
9
330
0
100
AcDbSymbolTable
 70
    1
  0
APPID
  5
12
330
9
100
AcDbSymbolTableRecord
100
AcDbRegAppTableRecord
  2
ACAD
 70
    0
  0
APPID
  5
54
330
9
100
AcDbSymbolTableRecord
100
AcDbRegAppTableRecord
  2
LibreCad
 70
    0
  0
ENDTAB
  0
TABLE
  2
DIMSTYLE
  5
A
330
0
100
AcDbSymbolTable
 70
    1
100
AcDbDimStyleTable
 71
    1
  0
DIMSTYLE
105
55
330
A
100
AcDbSymbolTableRecord
100
AcDbDimStyleTableRecord
  2
Standard
 70
    0
 40
2.5
 41
2.5
 42
0.625
 43
0.38
 44
1.25
 45
0
 46
0
 47
0
 48
0
 49
1
140
2.5
141
0.09
142
0
143
25.4
144
1
145
0
146
1
147
0.625
148
0
 71
    0
 72
    0
 73
    0
 74
    1
 75
    0
 76
    0
 77
    0
 78
    8
 79
    0
170
    0
171
    2
172
    0
173
    0
174
    0
175
    0
176
    0
177
    0
178
    0
179
    0
271
    2
272
    4
273
    2
274
    2
275
    0
276
    0
277
    2
278
   44
279
    0
280
    0
281
    0
282
    0
283
    1
284
    0
285
    0
286
    0
288
    0
289
    3
340
STANDARD
341

371
   -2
372
   -2
  0
ENDTAB
  0
TABLE
  2
BLOCK_RECORD
  5
1
330
0
100
AcDbSymbolTable
 70
    2
  0
BLOCK_RECORD
  5
1F
330
1
100
AcDbSymbolTableRecord
100
AcDbBlockTableRecord
  2
*Model_Space
 70
    0
280
    1
281
    0
  0
BLOCK_RECORD
  5
1E
330
1
100
AcDbSymbolTableRecord
100
AcDbBlockTableRecord
  2
*Paper_Space
 70
    0
280
    1
281
    0
  0
ENDTAB
  0
ENDSEC
  0
SECTION
  2
BLOCKS
  0
BLOCK
  5
20
330
1F
100
AcDbEntity
  8
0
100
AcDbBlockBegin
  2
*Model_Space
 70
    0
 10
0
 20
0
 30
0
  3
*Model_Space
  1

  0
ENDBLK
  5
21
330
1F
100
AcDbEntity
  8
0
100
AcDbBlockEnd
  0
BLOCK
  5
1C
330
1B
100
AcDbEntity
  8
0
100
AcDbBlockBegin
  2
*Paper_Space
 70
    0
 10
0
 20
0
 30
0
  3
*Paper_Space
  1

  0
ENDBLK
  5
1D
330
1F
100
AcDbEntity
  8
0
100
AcDbBlockEnd
  0
ENDSEC
  0
SECTION
  2
ENTITIES
  0
IMAGE
  5
58
100
AcDbEntity
  8
0
  6
ByLayer
 62
  256
370
   -1
100
AcDbRasterImage
 10
0
 20
0
 30
0
 11
1
 21
0
 31
0
 12
6.123233995736766e-17
 22
1
 32
0
 13
1000
 23
750
340
56
 70
    1
280
    0
281
   50
282
   50
283
    0
360
57
  0
ARC
  5
59
100
AcDbEntity
  8
trace
  6
ByLayer
 62
  256
370
   -1
100
AcDbCircle
 10
67.1032
 20
21.5038
 40
15.8883
100
AcDbArc
 50
180
 51
0
  0
LINE
  5
5A
100
AcDbEntity
  8
trace
  6
ByLayer
 62
  256
370
   -1
100
AcDbLine
 10
0
 20
40
 11
0
 21
57.9081
  0
ARC
  5
5B
100
AcDbEntity
  8
trace
  6
ByLayer
 62
  256
370
   -1
100
AcDbCircle
 10
6
 20
40
 40
6
100
AcDbArc
 50
180
 51
265.513
  0
SPLINE
  5
5C
100
AcDbEntity
  8
trace
  6
ByLayer
 62
  256
370
   -1
100
AcDbSpline
210
0
220
0
230
0
 70
    8
 71
    2
 72
    8
 73
    5
 74
    0
 42
1e-07
 43
1e-07
 40
0
 40
0
 40
0
 40
0.3333333333333333
 40
0.6666666666666666
 40
1
 40
1
 40
1
 10
4.809539542544378
 20
63.78881457386213
 30
0
 10
11.30916969948426
 20
64.88493322532385
 30
0
 10
17.70320811358868
 20
65.5385829329277
 30
0
 10
23.40255784987897
 20
65.90096810767069
 30
0
 10
25.25564429985376
 20
65.989341048534
 30
0
  0
ARC
  5
5D
100
AcDbEntity
  8
trace
  6
ByLayer
 62
  256
370
   -1
100
AcDbCircle
 10
6
 20
57.9081
 40
6
100
AcDbArc
 50
101.444
 51
180
  0
SPLINE
  5
5E
100
AcDbEntity
  8
windows
  6
ByLayer
 62
  256
370
   -1
100
AcDbSpline
210
0
220
0
230
0
 70
    8
 71
    2
 72
    7
 73
    4
 74
    0
 42
1e-07
 43
1e-07
 40
0
 40
0
 40
0
 40
0.5
 40
1
 40
1
 40
1
 10
72.1634
 20
71.1566
 30
0
 10
63.96900835205376
 20
72.82460285162925
 30
0
 10
41.82206562494299
 20
70.38497804205379
 30
0
 10
31.9704
 20
58.9338
 30
0
  0
LINE
  5
5F
100
AcDbEntity
  8
windows
  6
ByLayer
 62
  256
370
   -1
100
AcDbLine
 10
67.88590000000001
 20
58.3971
 11
31.9704
 21
58.9338
  0
LINE
  5
60
100
AcDbEntity
  8
windows
  6
ByLayer
 62
  256
370
   -1
100
AcDbLine
 10
72.1634
 20
71.1566
 11
67.88590000000001
 21
58.3971
  0
LINE
  5
61
100
AcDbEntity
  8
windows
  6
ByLayer
 62
  256
370
   -1
100
AcDbLine
 10
77.1662
 20
70.5881
 11
72.9024
 21
58.4222
  0
LINE
  5
62
100
AcDbEntity
  8
windows
  6
ByLayer
 62
  256
370
   -1
100
AcDbLine
 10
72.9024
 20
58.4222
 11
97.3069
 21
60.1693
  0
LINE
  5
63
100
AcDbEntity
  8
windows
  6
ByLayer
 62
  256
370
   -1
100
AcDbLine
 10
97.7334
 20
66.0924
 11
77.1662
 21
70.5881
  0
ARC
  5
64
100
AcDbEntity
  8
windows
  6
ByLayer
 62
  256
370
   -1
100
AcDbCircle
 10
97.09269999999999
 20
63.1616
 40
3
100
AcDbArc
 50
274.095
 51
77.6699
  0
SPLINE
  5
65
100
AcDbEntity
  8
trace
  6
ByLayer
 62
  256
370
   -1
100
AcDbSpline
210
0
220
0
230
0
 70
    8
 71
    2
 72
   11
 73
    8
 74
    0
 42
1e-07
 43
1e-07
 40
0
 40
0
 40
0
 40
0.1666666666666667
 40
0.3333333333333333
 40
0.5
 40
0.6666666666666666
 40
0.8333333333333334
 40
1
 40
1
 40
1
 10
25.2556
 20
65.9893
 30
0
 10
26.4288
 20
66.0453
 30
0
 10
30.1813
 20
66.17489999999999
 30
0
 10
35.6403
 20
71.17619999999999
 30
0
 10
44.8935
 20
76.8824
 30
0
 10
66.39149999999999
 20
79.11969999999999
 30
0
 10
114.7050970763059
 20
67.67419666730365
 30
0
 10
126.5625553907296
 20
65.5900473625257
 30
0
  0
CIRCLE
  5
66
100
AcDbEntity
  8
trace
  6
ByLayer
 62
  256
370
   -1
100
AcDbCircle
 10
67.1032
 20
21.5038
 40
2.5
  0
LINE
  5
67
100
AcDbEntity
  8
working
  6
ByLayer
 62
  256
370
   -1
100
AcDbLine
 10
0
 20
48.954
 11
30
 21
48.954
  0
SPLINE
  5
68
100
AcDbEntity
  8
trace
  6
ByLayer
 62
  256
370
   -1
100
AcDbSpline
210
0
220
0
230
0
 70
    8
 71
    2
 72
    6
 73
    3
 74
    0
 42
1e-07
 43
1e-07
 40
0
 40
0
 40
0
 40
1
 40
1
 40
1
 10
5.530602597946406
 20
34.0183893407423
 30
0
 10
17.70158075342773
 20
32.45758644682659
 30
0
 10
29.96346441708025
 20
32.96602124892718
 30
0
  0
CIRCLE
  5
69
100
AcDbEntity
  8
wheels
  6
ByLayer
 62
  256
370
   -1
100
AcDbCircle
 10
67.1032
 20
21.5038
 40
19.90298632567485
  0
LINE
  5
6A
100
AcDbEntity
  8
working
  6
ByLayer
 62
  256
370
   -1
100
AcDbLine
 10
29.96346441708025
 20
39
 11
67.1032
 21
38.96602124892718
  0
LINE
  5
6B
100
AcDbEntity
  8
working
  6
ByLayer
 62
  256
370
   -1
100
AcDbLine
 10
29.96346441708025
 20
39
 11
29.96346441708025
 21
27
  0
LINE
  5
6C
100
AcDbEntity
  8
working
  6
ByLayer
 62
  256
370
   -1
100
AcDbLine
 10
29.96346441708025
 20
27
 11
104
 21
27
  0
SPLINE
  5
6D
100
AcDbEntity
  8
trace
  6
ByLayer
 62
  256
370
   -1
100
AcDbSpline
210
0
220
0
230
0
 70
    8
 71
    2
 72
   15
 73
   12
 74
    0
 42
1e-07
 43
1e-07
 40
0
 40
0
 40
0
 40
0.1
 40
0.2
 40
0.3
 40
0.4
 40
0.5
 40
0.6
 40
0.7
 40
0.8
 40
0.9
 40
1
 40
1
 40
1
 10
126.5625553907296
 20
65.5900473625257
 30
0
 10
126.5625553907296
 20
65.5900473625257
 30
0
 10
155.632064381801
 20
64.22577437738516
 30
0
 10
171.2702683243749
 20
71.99212167900194
 30
0
 10
177.4662683243749
 20
88.42212167900195
 30
0
 10
183.5472683243748
 20
93.07262167900194
 30
0
 10
189.2102683243749
 20
92.50702167900192
 30
0
 10
194.8222683243748
 20
92.25912167900194
 30
0
 10
200.0892683243748
 20
91.55002167900193
 30
0
 10
199.4422683243749
 20
81.95052167900192
 30
0
 10
198.0842683243748
 20
63.33042167900194
 30
0
 10
197.3382683243748
 20
58.96602124892718
 30
0
  0
LINE
  5
6E
100
AcDbEntity
  8
trace
  6
ByLayer
 62
  256
370
   -1
100
AcDbLine
 10
169
 20
59
 11
197.338
 21
58.966
  0
LINE
  5
6F
100
AcDbEntity
  8
trace
  6
ByLayer
 62
  256
370
   -1
100
AcDbLine
 10
169
 20
59
 11
169
 21
47
  0
LINE
  5
70
100
AcDbEntity
  8
trace
  6
ByLayer
 62
  256
370
   -1
100
AcDbLine
 10
169
 20
47
 11
195.64
 21
47
  0
LINE
  5
71
100
AcDbEntity
  8
trace
  6
ByLayer
 62
  256
370
   -1
100
AcDbLine
 10
29.96346441708025
 20
32.96602124892718
 11
29.96346441708025
 21
39
  0
LINE
  5
72
100
AcDbEntity
  8
trace
  6
ByLayer
 62
  256
370
   -1
100
AcDbLine
 10
82.9915
 20
21.5038
 11
82.9915
 21
38.96602124892718
  0
LINE
  5
73
100
AcDbEntity
  8
trace
  6
ByLayer
 62
  256
370
   -1
100
AcDbLine
 10
51.2149
 20
21.5038
 11
51.2149
 21
38.98063275627037
  0
LINE
  5
74
100
AcDbEntity
  8
trace
  6
ByLayer
 62
  256
370
   -1
100
AcDbLine
 10
29.96346441708025
 20
39
 11
51.2149
 21
38.98063275627037
  0
LINE
  5
75
100
AcDbEntity
  8
working
  6
ByLayer
 62
  256
370
   -1
100
AcDbLine
 10
104
 20
39
 11
67.1032
 21
38.96602124892718
  0
LINE
  5
76
100
AcDbEntity
  8
working
  6
ByLayer
 62
  256
370
   -1
100
AcDbLine
 10
104
 20
27
 11
104
 21
39
  0
SPLINE
  5
77
100
AcDbEntity
  8
trace
  6
ByLayer
 62
  256
370
   -1
100
AcDbSpline
210
0
220
0
230
0
 70
    8
 71
    2
 72
    9
 73
    6
 74
    0
 42
1e-07
 43
1e-07
 40
0
 40
0
 40
0
 40
0.25
 40
0.5
 40
0.75
 40
1
 40
1
 40
1
 10
104
 20
33
 30
0
 10
133.5634533473826
 20
33.33299355636586
 30
0
 10
183.6972891450188
 20
39.16935094876909
 30
0
 10
195.2988677083216
 20
41.3260402659247
 30
0
 10
196.1789290156822
 20
47.90427532282798
 30
0
 10
195.6400697116685
 20
47
 30
0
  0
LINE
  5
78
100
AcDbEntity
  8
trace
  6
ByLayer
 62
  256
370
   -1
100
AcDbLine
 10
104
 20
39
 11
104
 21
33
  0
LINE
  5
79
100
AcDbEntity
  8
trace
  6
ByLayer
 62
  256
370
   -1
100
AcDbLine
 10
82.9915
 20
38.96602124892718
 11
104
 21
39
  0
LINE
  5
7A
100
AcDbEntity
  8
middle
  6
ByLayer
 62
  256
370
   -1
100
AcDbLine
 10
0
 20
140
 11
0
 21
157.908
  0
ARC
  5
7B
100
AcDbEntity
  8
middle
  6
ByLayer
 62
  256
370
   -1
100
AcDbCircle
 10
6
 20
157.908
 40
6
100
AcDbArc
 50
101.444
 51
180
  0
ARC
  5
7C
100
AcDbEntity
  8
middle
  6
ByLayer
 62
  256
370
   -1
100
AcDbCircle
 10
67.1032
 20
121.5038
 40
15.8883
100
AcDbArc
 50
180
 51
0
  0
ARC
  5
7D
100
AcDbEntity
  8
middle
  6
ByLayer
 62
  256
370
   -1
100
AcDbCircle
 10
6
 20
140
 40
6
100
AcDbArc
 50
180
 51
265.513
  0
SPLINE
  5
7E
100
AcDbEntity
  8
middle
  6
ByLayer
 62
  256
370
   -1
100
AcDbSpline
210
0
220
0
230
0
 70
    8
 71
    2
 72
    8
 73
    5
 74
    0
 42
1e-07
 43
1e-07
 40
0
 40
0
 40
0
 40
0.3333333333333333
 40
0.6666666666666666
 40
1
 40
1
 40
1
 10
4.809539542544378
 20
163.7888145738621
 30
0
 10
11.30916969948426
 20
164.8849332253238
 30
0
 10
17.70320811358868
 20
165.5385829329277
 30
0
 10
23.40255784987897
 20
165.9009681076707
 30
0
 10
25.25564429985376
 20
165.989341048534
 30
0
  0
SPLINE
  5
7F
100
AcDbEntity
  8
middle
  6
ByLayer
 62
  256
370
   -1
100
AcDbSpline
210
0
220
0
230
0
 70
    8
 71
    2
 72
   11
 73
    8
 74
    0
 42
1e-07
 43
1e-07
 40
0
 40
0
 40
0
 40
0.1666666666666667
 40
0.3333333333333333
 40
0.5
 40
0.6666666666666666
 40
0.8333333333333334
 40
1
 40
1
 40
1
 10
25.2556
 20
165.9893
 30
0
 10
26.4288
 20
166.0453
 30
0
 10
30.1813
 20
166.1749
 30
0
 10
35.6403
 20
171.1762
 30
0
 10
44.8935
 20
176.8824
 30
0
 10
66.39149999999999
 20
179.1197
 30
0
 10
114.7050970763059
 20
167.6741966673036
 30
0
 10
126.5625553907296
 20
165.5900473625257
 30
0
  0
CIRCLE
  5
80
100
AcDbEntity
  8
middle
  6
ByLayer
 62
  256
370
   -1
100
AcDbCircle
 10
67.1032
 20
121.5038
 40
2.5
  0
SPLINE
  5
81
100
AcDbEntity
  8
middle
  6
ByLayer
 62
  256
370
   -1
100
AcDbSpline
210
0
220
0
230
0
 70
    8
 71
    2
 72
    6
 73
    3
 74
    0
 42
1e-07
 43
1e-07
 40
0
 40
0
 40
0
 40
1
 40
1
 40
1
 10
5.530602597946406
 20
134.0183893407423
 30
0
 10
17.70158075342773
 20
132.4575864468266
 30
0
 10
29.96346441708025
 20
132.9660212489272
 30
0
  0
SPLINE
  5
82
100
AcDbEntity
  8
middle
  6
ByLayer
 62
  256
370
   -1
100
AcDbSpline
210
0
220
0
230
0
 70
    8
 71
    2
 72
   15
 73
   12
 74
    0
 42
1e-07
 43
1e-07
 40
0
 40
0
 40
0
 40
0.1
 40
0.2
 40
0.3
 40
0.4
 40
0.5
 40
0.6
 40
0.7
 40
0.8
 40
0.9
 40
1
 40
1
 40
1
 10
126.5625553907296
 20
165.5900473625257
 30
0
 10
126.5625553907296
 20
165.5900473625257
 30
0
 10
155.632064381801
 20
164.2257743773852
 30
0
 10
171.2702683243749
 20
171.9921216790019
 30
0
 10
177.4662683243749
 20
188.4221216790019
 30
0
 10
183.5472683243748
 20
193.0726216790019
 30
0
 10
189.2102683243749
 20
192.5070216790019
 30
0
 10
194.8222683243748
 20
192.2591216790019
 30
0
 10
200.0892683243748
 20
191.5500216790019
 30
0
 10
199.4422683243749
 20
181.9505216790019
 30
0
 10
198.0842683243748
 20
163.3304216790019
 30
0
 10
197.3382683243748
 20
158.9660212489272
 30
0
  0
LINE
  5
83
100
AcDbEntity
  8
middle
  6
ByLayer
 62
  256
370
   -1
100
AcDbLine
 10
169
 20
159
 11
197.338
 21
158.966
  0
LINE
  5
84
100
AcDbEntity
  8
middle
  6
ByLayer
 62
  256
370
   -1
100
AcDbLine
 10
169
 20
159
 11
169
 21
147
  0
LINE
  5
85
100
AcDbEntity
  8
middle
  6
ByLayer
 62
  256
370
   -1
100
AcDbLine
 10
169
 20
147
 11
195.64
 21
147
  0
LINE
  5
86
100
AcDbEntity
  8
middle
  6
ByLayer
 62
  256
370
   -1
100
AcDbLine
 10
29.96346441708025
 20
132.9660212489272
 11
29.96346441708025
 21
139
  0
LINE
  5
87
100
AcDbEntity
  8
middle
  6
ByLayer
 62
  256
370
   -1
100
AcDbLine
 10
82.9915
 20
121.5038
 11
82.9915
 21
138.9660212489272
  0
LINE
  5
88
100
AcDbEntity
  8
middle
  6
ByLayer
 62
  256
370
   -1
100
AcDbLine
 10
51.2149
 20
121.5038
 11
51.2149
 21
138.9806327562704
  0
LINE
  5
89
100
AcDbEntity
  8
middle
  6
ByLayer
 62
  256
370
   -1
100
AcDbLine
 10
29.96346441708025
 20
139
 11
51.2149
 21
138.9806327562704
  0
SPLINE
  5
8A
100
AcDbEntity
  8
middle
  6
ByLayer
 62
  256
370
   -1
100
AcDbSpline
210
0
220
0
230
0
 70
    8
 71
    2
 72
    9
 73
    6
 74
    0
 42
1e-07
 43
1e-07
 40
0
 40
0
 40
0
 40
0.25
 40
0.5
 40
0.75
 40
1
 40
1
 40
1
 10
104
 20
133
 30
0
 10
133.5634533473826
 20
133.3329935563659
 30
0
 10
183.6972891450188
 20
139.1693509487691
 30
0
 10
195.2988677083216
 20
141.3260402659247
 30
0
 10
196.1789290156822
 20
147.904275322828
 30
0
 10
195.6400697116685
 20
147
 30
0
  0
LINE
  5
8B
100
AcDbEntity
  8
middle
  6
ByLayer
 62
  256
370
   -1
100
AcDbLine
 10
104
 20
139
 11
104
 21
133
  0
LINE
  5
8C
100
AcDbEntity
  8
middle
  6
ByLayer
 62
  256
370
   -1
100
AcDbLine
 10
82.9915
 20
138.9660212489272
 11
104
 21
139
  0
ARC
  5
8D
100
AcDbEntity
  8
left
  6
ByLayer
 62
  256
370
   -1
100
AcDbCircle
 10
67.1032
 20
221.5038
 40
15.8883
100
AcDbArc
 50
180
 51
0
  0
LINE
  5
8E
100
AcDbEntity
  8
left
  6
ByLayer
 62
  256
370
   -1
100
AcDbLine
 10
0
 20
240
 11
0
 21
257.9081
  0
ARC
  5
8F
100
AcDbEntity
  8
left
  6
ByLayer
 62
  256
370
   -1
100
AcDbCircle
 10
6
 20
240
 40
6
100
AcDbArc
 50
180
 51
265.513
  0
SPLINE
  5
90
100
AcDbEntity
  8
left
  6
ByLayer
 62
  256
370
   -1
100
AcDbSpline
210
0
220
0
230
0
 70
    8
 71
    2
 72
    8
 73
    5
 74
    0
 42
1e-07
 43
1e-07
 40
0
 40
0
 40
0
 40
0.3333333333333333
 40
0.6666666666666666
 40
1
 40
1
 40
1
 10
4.809539542544378
 20
263.7888145738621
 30
0
 10
11.30916969948426
 20
264.8849332253238
 30
0
 10
17.70320811358868
 20
265.5385829329277
 30
0
 10
23.40255784987897
 20
265.9009681076707
 30
0
 10
25.25564429985376
 20
265.989341048534
 30
0
  0
ARC
  5
91
100
AcDbEntity
  8
left
  6
ByLayer
 62
  256
370
   -1
100
AcDbCircle
 10
6
 20
257.9081
 40
6
100
AcDbArc
 50
101.444
 51
180
  0
SPLINE
  5
92
100
AcDbEntity
  8
left
  6
ByLayer
 62
  256
370
   -1
100
AcDbSpline
210
0
220
0
230
0
 70
    8
 71
    2
 72
    7
 73
    4
 74
    0
 42
1e-07
 43
1e-07
 40
0
 40
0
 40
0
 40
0.5
 40
1
 40
1
 40
1
 10
72.1634
 20
271.1566
 30
0
 10
63.96900835205376
 20
272.8246028516293
 30
0
 10
41.82206562494299
 20
270.3849780420538
 30
0
 10
31.9704
 20
258.9338
 30
0
  0
LINE
  5
93
100
AcDbEntity
  8
left
  6
ByLayer
 62
  256
370
   -1
100
AcDbLine
 10
67.88590000000001
 20
258.3971
 11
31.9704
 21
258.9338
  0
LINE
  5
94
100
AcDbEntity
  8
left
  6
ByLayer
 62
  256
370
   -1
100
AcDbLine
 10
72.1634
 20
271.1566
 11
67.88590000000001
 21
258.3971
  0
LINE
  5
95
100
AcDbEntity
  8
left
  6
ByLayer
 62
  256
370
   -1
100
AcDbLine
 10
77.1662
 20
270.5881
 11
72.9024
 21
258.4222
  0
LINE
  5
96
100
AcDbEntity
  8
left
  6
ByLayer
 62
  256
370
   -1
100
AcDbLine
 10
72.9024
 20
258.4222
 11
97.3069
 21
260.1693
  0
LINE
  5
97
100
AcDbEntity
  8
left
  6
ByLayer
 62
  256
370
   -1
100
AcDbLine
 10
97.7334
 20
266.0924
 11
77.1662
 21
270.5881
  0
ARC
  5
98
100
AcDbEntity
  8
left
  6
ByLayer
 62
  256
370
   -1
100
AcDbCircle
 10
97.09269999999999
 20
263.1616
 40
3
100
AcDbArc
 50
274.095
 51
77.6699
  0
SPLINE
  5
99
100
AcDbEntity
  8
left
  6
ByLayer
 62
  256
370
   -1
100
AcDbSpline
210
0
220
0
230
0
 70
    8
 71
    2
 72
   11
 73
    8
 74
    0
 42
1e-07
 43
1e-07
 40
0
 40
0
 40
0
 40
0.1666666666666667
 40
0.3333333333333333
 40
0.5
 40
0.6666666666666666
 40
0.8333333333333334
 40
1
 40
1
 40
1
 10
25.2556
 20
265.9893
 30
0
 10
26.4288
 20
266.0453
 30
0
 10
30.1813
 20
266.1749
 30
0
 10
35.6403
 20
271.1762
 30
0
 10
44.8935
 20
276.8824
 30
0
 10
66.39149999999999
 20
279.1197
 30
0
 10
114.7050970763059
 20
267.6741966673036
 30
0
 10
126.5625553907296
 20
265.5900473625257
 30
0
  0
CIRCLE
  5
9A
100
AcDbEntity
  8
left
  6
ByLayer
 62
  256
370
   -1
100
AcDbCircle
 10
67.1032
 20
221.5038
 40
2.5
  0
SPLINE
  5
9B
100
AcDbEntity
  8
left
  6
ByLayer
 62
  256
370
   -1
100
AcDbSpline
210
0
220
0
230
0
 70
    8
 71
    2
 72
    6
 73
    3
 74
    0
 42
1e-07
 43
1e-07
 40
0
 40
0
 40
0
 40
1
 40
1
 40
1
 10
5.530602597946406
 20
234.0183893407423
 30
0
 10
17.70158075342773
 20
232.4575864468266
 30
0
 10
29.96346441708025
 20
232.9660212489272
 30
0
  0
LINE
  5
9C
100
AcDbEntity
  8
left
  6
ByLayer
 62
  256
370
   -1
100
AcDbLine
 10
169
 20
259
 11
197.338
 21
258.966
  0
LINE
  5
9D
100
AcDbEntity
  8
left
  6
ByLayer
 62
  256
370
   -1
100
AcDbLine
 10
169
 20
259
 11
169
 21
247
  0
LINE
  5
9E
100
AcDbEntity
  8
left
  6
ByLayer
 62
  256
370
   -1
100
AcDbLine
 10
169
 20
247
 11
195.64
 21
247
  0
LINE
  5
9F
100
AcDbEntity
  8
left
  6
ByLayer
 62
  256
370
   -1
100
AcDbLine
 10
29.96346441708025
 20
232.9660212489272
 11
29.96346441708025
 21
239
  0
LINE
  5
A0
100
AcDbEntity
  8
left
  6
ByLayer
 62
  256
370
   -1
100
AcDbLine
 10
82.9915
 20
221.5038
 11
82.9915
 21
238.9660212489272
  0
LINE
  5
A1
100
AcDbEntity
  8
left
  6
ByLayer
 62
  256
370
   -1
100
AcDbLine
 10
51.2149
 20
221.5038
 11
51.2149
 21
238.9806327562704
  0
LINE
  5
A2
100
AcDbEntity
  8
left
  6
ByLayer
 62
  256
370
   -1
100
AcDbLine
 10
29.96346441708025
 20
239
 11
51.2149
 21
238.9806327562704
  0
SPLINE
  5
A3
100
AcDbEntity
  8
left
  6
ByLayer
 62
  256
370
   -1
100
AcDbSpline
210
0
220
0
230
0
 70
    8
 71
    2
 72
    9
 73
    6
 74
    0
 42
1e-07
 43
1e-07
 40
0
 40
0
 40
0
 40
0.25
 40
0.5
 40
0.75
 40
1
 40
1
 40
1
 10
104
 20
233
 30
0
 10
133.5634533473826
 20
233.3329935563659
 30
0
 10
183.6972891450188
 20
239.1693509487691
 30
0
 10
195.2988677083216
 20
241.3260402659247
 30
0
 10
196.1789290156822
 20
247.904275322828
 30
0
 10
195.6400697116685
 20
247
 30
0
  0
LINE
  5
A4
100
AcDbEntity
  8
left
  6
ByLayer
 62
  256
370
   -1
100
AcDbLine
 10
104
 20
239
 11
104
 21
233
  0
LINE
  5
A5
100
AcDbEntity
  8
left
  6
ByLayer
 62
  256
370
   -1
100
AcDbLine
 10
82.9915
 20
238.9660212489272
 11
104
 21
239
  0
SPLINE
  5
A6
100
AcDbEntity
  8
left
  6
ByLayer
 62
  256
370
   -1
100
AcDbSpline
210
0
220
0
230
0
 70
    8
 71
    2
 72
    7
 73
    4
 74
    0
 42
1e-07
 43
1e-07
 40
0
 40
0
 40
0
 40
0.5
 40
1
 40
1
 40
1
 10
126.5625553907296
 20
265.5900473625257
 30
0
 10
135.270313375456
 20
265.1387543197881
 30
0
 10
166.8078847550655
 20
263.8537522047851
 30
0
 10
194.4435017946616
 20
264.4563147974259
 30
0
  0
ARC
  5
A7
100
AcDbEntity
  8
right
  6
ByLayer
 62
  256
370
   -1
100
AcDbCircle
 10
332.8968
 20
221.5038
 40
15.8883
100
AcDbArc
 50
180
 51
0
  0
ARC
  5
A8
100
AcDbEntity
  8
right
  6
ByLayer
 62
  256
370
   -1
100
AcDbCircle
 10
332.8968
 20
221.5038
 40
15.8883
100
AcDbArc
 50
180
 51
0
  0
LINE
  5
A9
100
AcDbEntity
  8
right
  6
ByLayer
 62
  256
370
   -1
100
AcDbLine
 10
400
 20
240
 11
400
 21
257.9081
  0
ARC
  5
AA
100
AcDbEntity
  8
right
  6
ByLayer
 62
  256
370
   -1
100
AcDbCircle
 10
394
 20
240
 40
6
100
AcDbArc
 50
274.487
 51
0
  0
SPLINE
  5
AB
100
AcDbEntity
  8
right
  6
ByLayer
 62
  256
370
   -1
100
AcDbSpline
210
0
220
0
230
0
 70
    8
 71
    2
 72
    8
 73
    5
 74
    0
 42
1e-07
 43
1e-07
 40
0
 40
0
 40
0
 40
0.3333333333333333
 40
0.6666666666666666
 40
1
 40
1
 40
1
 10
395.1904604574556
 20
263.7888145738621
 30
0
 10
388.6908303005158
 20
264.8849332253238
 30
0
 10
382.2967918864113
 20
265.5385829329277
 30
0
 10
376.597442150121
 20
265.9009681076707
 30
0
 10
374.7443557001462
 20
265.989341048534
 30
0
  0
ARC
  5
AC
100
AcDbEntity
  8
right
  6
ByLayer
 62
  256
370
   -1
100
AcDbCircle
 10
394
 20
257.9081
 40
6
100
AcDbArc
 50
0
 51
78.556
  0
SPLINE
  5
AD
100
AcDbEntity
  8
right
  6
ByLayer
 62
  256
370
   -1
100
AcDbSpline
210
0
220
0
230
0
 70
    8
 71
    2
 72
    7
 73
    4
 74
    0
 42
1e-07
 43
1e-07
 40
0
 40
0
 40
0
 40
0.5
 40
1
 40
1
 40
1
 10
327.8366
 20
271.1566
 30
0
 10
336.0309916479462
 20
272.8246028516293
 30
0
 10
358.177934375057
 20
270.3849780420538
 30
0
 10
368.0296
 20
258.9338
 30
0
  0
LINE
  5
AE
100
AcDbEntity
  8
right
  6
ByLayer
 62
  256
370
   -1
100
AcDbLine
 10
332.1141
 20
258.3971
 11
368.0296
 21
258.9338
  0
LINE
  5
AF
100
AcDbEntity
  8
right
  6
ByLayer
 62
  256
370
   -1
100
AcDbLine
 10
327.8366
 20
271.1566
 11
332.1141
 21
258.3971
  0
LINE
  5
B0
100
AcDbEntity
  8
right
  6
ByLayer
 62
  256
370
   -1
100
AcDbLine
 10
322.8338
 20
270.5881
 11
327.0976
 21
258.4222
  0
LINE
  5
B1
100
AcDbEntity
  8
right
  6
ByLayer
 62
  256
370
   -1
100
AcDbLine
 10
327.0976
 20
258.4222
 11
302.6931
 21
260.1693
  0
LINE
  5
B2
100
AcDbEntity
  8
right
  6
ByLayer
 62
  256
370
   -1
100
AcDbLine
 10
302.2666
 20
266.0924
 11
322.8338
 21
270.5881
  0
ARC
  5
B3
100
AcDbEntity
  8
right
  6
ByLayer
 62
  256
370
   -1
100
AcDbCircle
 10
302.9073
 20
263.1616
 40
3
100
AcDbArc
 50
102.3301
 51
265.905
  0
SPLINE
  5
B4
100
AcDbEntity
  8
right
  6
ByLayer
 62
  256
370
   -1
100
AcDbSpline
210
0
220
0
230
0
 70
    8
 71
    2
 72
   11
 73
    8
 74
    0
 42
1e-07
 43
1e-07
 40
0
 40
0
 40
0
 40
0.1666666666666667
 40
0.3333333333333333
 40
0.5
 40
0.6666666666666666
 40
0.8333333333333334
 40
1
 40
1
 40
1
 10
374.7444
 20
265.9893
 30
0
 10
373.5712
 20
266.0453
 30
0
 10
369.8187
 20
266.1749
 30
0
 10
364.3597
 20
271.1762
 30
0
 10
355.1065
 20
276.8824
 30
0
 10
333.6085
 20
279.1197
 30
0
 10
285.2949029236941
 20
267.6741966673036
 30
0
 10
273.4374446092704
 20
265.5900473625257
 30
0
  0
CIRCLE
  5
B5
100
AcDbEntity
  8
right
  6
ByLayer
 62
  256
370
   -1
100
AcDbCircle
 10
332.8968
 20
221.5038
 40
2.5
  0
SPLINE
  5
B6
100
AcDbEntity
  8
right
  6
ByLayer
 62
  256
370
   -1
100
AcDbSpline
210
0
220
0
230
0
 70
    8
 71
    2
 72
    6
 73
    3
 74
    0
 42
1e-07
 43
1e-07
 40
0
 40
0
 40
0
 40
1
 40
1
 40
1
 10
394.4693974020536
 20
234.0183893407423
 30
0
 10
382.2984192465723
 20
232.4575864468266
 30
0
 10
370.0365355829197
 20
232.9660212489272
 30
0
  0
LINE
  5
B7
100
AcDbEntity
  8
right
  6
ByLayer
 62
  256
370
   -1
100
AcDbLine
 10
231
 20
259
 11
202.662
 21
258.966
  0
LINE
  5
B8
100
AcDbEntity
  8
right
  6
ByLayer
 62
  256
370
   -1
100
AcDbLine
 10
231
 20
259
 11
231
 21
247
  0
LINE
  5
B9
100
AcDbEntity
  8
right
  6
ByLayer
 62
  256
370
   -1
100
AcDbLine
 10
231
 20
247
 11
204.36
 21
247
  0
LINE
  5
BA
100
AcDbEntity
  8
right
  6
ByLayer
 62
  256
370
   -1
100
AcDbLine
 10
370.0365355829197
 20
232.9660212489272
 11
370.0365355829197
 21
239
  0
LINE
  5
BB
100
AcDbEntity
  8
right
  6
ByLayer
 62
  256
370
   -1
100
AcDbLine
 10
317.0085
 20
221.5038
 11
317.0085
 21
238.9660212489272
  0
LINE
  5
BC
100
AcDbEntity
  8
right
  6
ByLayer
 62
  256
370
   -1
100
AcDbLine
 10
348.7851
 20
221.5038
 11
348.7851
 21
238.9806327562704
  0
LINE
  5
BD
100
AcDbEntity
  8
right
  6
ByLayer
 62
  256
370
   -1
100
AcDbLine
 10
370.0365355829197
 20
239
 11
348.7851
 21
238.9806327562704
  0
SPLINE
  5
BE
100
AcDbEntity
  8
right
  6
ByLayer
 62
  256
370
   -1
100
AcDbSpline
210
0
220
0
230
0
 70
    8
 71
    2
 72
    9
 73
    6
 74
    0
 42
1e-07
 43
1e-07
 40
0
 40
0
 40
0
 40
0.25
 40
0.5
 40
0.75
 40
1
 40
1
 40
1
 10
296
 20
233
 30
0
 10
266.4365466526174
 20
233.3329935563659
 30
0
 10
216.3027108549812
 20
239.1693509487691
 30
0
 10
204.7011322916784
 20
241.3260402659247
 30
0
 10
203.8210709843178
 20
247.904275322828
 30
0
 10
204.3599302883315
 20
247
 30
0
  0
LINE
  5
BF
100
AcDbEntity
  8
right
  6
ByLayer
 62
  256
370
   -1
100
AcDbLine
 10
296
 20
239
 11
296
 21
233
  0
LINE
  5
C0
100
AcDbEntity
  8
right
  6
ByLayer
 62
  256
370
   -1
100
AcDbLine
 10
317.0085
 20
238.9660212489272
 11
296
 21
239
  0
SPLINE
  5
C1
100
AcDbEntity
  8
right
  6
ByLayer
 62
  256
370
   -1
100
AcDbSpline
210
0
220
0
230
0
 70
    8
 71
    2
 72
    7
 73
    4
 74
    0
 42
1e-07
 43
1e-07
 40
0
 40
0
 40
0
 40
0.5
 40
1
 40
1
 40
1
 10
273.4374446092704
 20
265.5900473625257
 30
0
 10
264.729686624544
 20
265.1387543197881
 30
0
 10
233.1921152449345
 20
263.8537522047851
 30
0
 10
205.5564982053384
 20
264.4563147974259
 30
0
  0
LINE
  5
C2
100
AcDbEntity
  8
right
  6
ByLayer
 62
  256
370
   -1
100
AcDbLine
 10
202.6617316756252
 20
258.9660212489272
 11
202.4032779357289
 21
261.0966932767309
  0
LINE
  5
C3
100
AcDbEntity
  8
right
  6
ByLayer
 62
  256
370
   -1
100
AcDbLine
 10
205.5564982053384
 20
264.4563147974259
 11
205.4121598555343
 21
264.4577925333061
  0
ARC
  5
C4
100
AcDbEntity
  8
right
  6
ByLayer
 62
  256
370
   -1
100
AcDbCircle
 10
205.381447468092
 20
261.4579497458825
 40
3
100
AcDbArc
 50
89.41342636058752
 51
186.9162746551209
  0
LINE
  5
C5
100
AcDbEntity
  8
left
  6
ByLayer
 62
  256
370
   -1
100
AcDbLine
 10
197.3382683243748
 20
258.9660212489272
 11
197.5967220642711
 21
261.0966932767309
  0
LINE
  5
C6
100
AcDbEntity
  8
left
  6
ByLayer
 62
  256
370
   -1
100
AcDbLine
 10
194.4435017946616
 20
264.4563147974259
 11
194.5878401444657
 21
264.4577925333061
  0
ARC
  5
C7
100
AcDbEntity
  8
left
  6
ByLayer
 62
  256
370
   -1
100
AcDbCircle
 10
194.618552531908
 20
261.4579497458825
 40
3
100
AcDbArc
 50
353.083725344879
 51
90.58657363941248
  0
CIRCLE
  5
C8
100
AcDbEntity
  8
left
  6
ByLayer
 62
  256
370
   -1
100
AcDbCircle
 10
60
 20
250
 40
4
  0
CIRCLE
  5
C9
100
AcDbEntity
  8
left
  6
ByLayer
 62
  256
370
   -1
100
AcDbCircle
 10
140
 20
250
 40
4
  0
CIRCLE
  5
CA
100
AcDbEntity
  8
middle
  6
ByLayer
 62
  256
370
   -1
100
AcDbCircle
 10
60
 20
150
 40
4
  0
CIRCLE
  5
CB
100
AcDbEntity
  8
middle
  6
ByLayer
 62
  256
370
   -1
100
AcDbCircle
 10
140
 20
150
 40
4
  0
CIRCLE
  5
CC
100
AcDbEntity
  8
right
  6
ByLayer
 62
  256
370
   -1
100
AcDbCircle
 10
260
 20
250
 40
4
  0
CIRCLE
  5
CD
100
AcDbEntity
  8
right
  6
ByLayer
 62
  256
370
   -1
100
AcDbCircle
 10
340
 20
250
 40
4
  0
ARC
  5
CE
100
AcDbEntity
  8
wing
  6
ByLayer
 62
  256
370
   -1
100
AcDbCircle
 10
469.979915854399
 20
29.99999999999999
 40
30
100
AcDbArc
 50
270
 51
360
  0
LINE
  5
CF
100
AcDbEntity
  8
wing
  6
ByLayer
 62
  256
370
   -1
100
AcDbLine
 10
499.979915854399
 20
36.23069198142092
 11
499.979915854399
 21
29.99999999999999
  0
ARC
  5
D0
100
AcDbEntity
  8
wing
  6
ByLayer
 62
  256
370
   -1
100
AcDbCircle
 10
469.979915854399
 20
36.23069198142092
 40
30
100
AcDbArc
 50
360
 51
76.86597769360371
  0
ARC
  5
D1
100
AcDbEntity
  8
wing
  6
ByLayer
 62
  256
370
   -1
100
AcDbCircle
 10
329.979915854399
 20
30
 40
30
100
AcDbArc
 50
180
 51
270
  0
LINE
  5
D2
100
AcDbEntity
  8
wing
  6
ByLayer
 62
  256
370
   -1
100
AcDbLine
 10
299.979915854399
 20
36.23069198142093
 11
299.979915854399
 21
30
  0
ARC
  5
D3
100
AcDbEntity
  8
wing
  6
ByLayer
 62
  256
370
   -1
100
AcDbCircle
 10
329.979915854399
 20
36.23069198142093
 40
30
100
AcDbArc
 50
103.1340223063964
 51
180
  0
LINE
  5
D4
100
AcDbEntity
  8
wing
  6
ByLayer
 62
  256
370
   -1
100
AcDbLine
 10
356.6166428212008
 20
73.2517718751734
 11
323.1630273862064
 21
65.44592827367484
  0
ARC
  5
D5
100
AcDbEntity
  8
wing
  6
ByLayer
 62
  256
370
   -1
100
AcDbCircle
 10
363.4335312893934
 20
44.03653558291973
 40
30
100
AcDbArc
 50
90
 51
103.1340223063964
  0
LINE
  5
D6
100
AcDbEntity
  8
wing
  6
ByLayer
 62
  256
370
   -1
100
AcDbLine
 10
443.343188887597
 20
73.2517718751735
 11
476.7968043225916
 21
65.44592827367482
  0
ARC
  5
D7
100
AcDbEntity
  8
wing
  6
ByLayer
 62
  256
370
   -1
100
AcDbCircle
 10
436.5263004194044
 20
44.03653558291973
 40
30
100
AcDbArc
 50
76.86597769360371
 51
90
  0
LINE
  5
D8
100
AcDbEntity
  8
wing
  6
ByLayer
 62
  256
370
   -1
100
AcDbLine
 10
359.979915854399
 20
60.03653558291973
 11
359.979915854399
 21
14.03653558291972
  0
LINE
  5
D9
100
AcDbEntity
  8
wing
  6
ByLayer
 62
  256
370
   -1
100
AcDbLine
 10
439.979915854399
 20
60.03653558291973
 11
439.979915854399
 21
14.03653558291972
  0
CIRCLE
  5
DA
100
AcDbEntity
  8
wing
  6
ByLayer
 62
  256
370
   -1
100
AcDbCircle
 10
310
 20
70
 40
4
  0
CIRCLE
  5
DB
100
AcDbEntity
  8
wing
  6
ByLayer
 62
  256
370
   -1
100
AcDbCircle
 10
490
 20
70
 40
4
  0
LINE
  5
DC
100
AcDbEntity
  8
wing
  6
ByLayer
 62
  256
370
   -1
100
AcDbLine
 10
329.979915854399
 20
0
 11
380
 21
-2.538671959411839e-15
  0
LINE
  5
DD
100
AcDbEntity
  8
wing
  6
ByLayer
 62
  256
370
   -1
100
AcDbLine
 10
380
 20
-2.538671959411839e-15
 11
420
 21
-4.568794061583555e-15
  0
LINE
  5
DE
100
AcDbEntity
  8
wing
  6
ByLayer
 62
  256
370
   -1
100
AcDbLine
 10
420
 20
-4.568794061583555e-15
 11
469.979915854399
 21
-7.105427357601002e-15
  0
LINE
  5
DF
100
AcDbEntity
  8
wing
  6
ByLayer
 62
  256
370
   -1
100
AcDbLine
 10
436.5263004194044
 20
74.03653558291971
 11
420
 21
74.03653558291971
  0
LINE
  5
E0
100
AcDbEntity
  8
wing
  6
ByLayer
 62
  256
370
   -1
100
AcDbLine
 10
420
 20
74.03653558291971
 11
380
 21
74.03653558291973
  0
LINE
  5
E1
100
AcDbEntity
  8
wing
  6
ByLayer
 62
  256
370
   -1
100
AcDbLine
 10
380
 20
74.03653558291973
 11
363.4335312893934
 21
74.03653558291973
  0
CIRCLE
  5
E2
100
AcDbEntity
  8
wing
  6
ByLayer
 62
  256
370
   -1
100
AcDbCircle
 10
388
 20
62
 40
2
  0
CIRCLE
  5
E3
100
AcDbEntity
  8
wing
  6
ByLayer
 62
  256
370
   -1
100
AcDbCircle
 10
412
 20
62
 40
2
  0
CIRCLE
  5
E4
100
AcDbEntity
  8
wing
  6
ByLayer
 62
  256
370
   -1
100
AcDbCircle
 10
412
 20
12
 40
2
  0
CIRCLE
  5
E5
100
AcDbEntity
  8
wing
  6
ByLayer
 62
  256
370
   -1
100
AcDbCircle
 10
388
 20
12
 40
2
  0
LINE
  5
E6
100
AcDbEntity
  8
wing
  6
ByLayer
 62
  256
370
   -1
100
AcDbLine
 10
378
 20
60
 11
359.979915854399
 21
60.03653558291973
  0
LINE
  5
E7
100
AcDbEntity
  8
wing
  6
ByLayer
 62
  256
370
   -1
100
AcDbLine
 10
378
 20
53
 11
400
 21
53
  0
LINE
  5
E8
100
AcDbEntity
  8
wing
  6
ByLayer
 62
  256
370
   -1
100
AcDbLine
 10
378
 20
53
 11
378
 21
60
  0
LINE
  5
E9
100
AcDbEntity
  8
wing
  6
ByLayer
 62
  256
370
   -1
100
AcDbLine
 10
422
 20
53
 11
422
 21
60
  0
LINE
  5
EA
100
AcDbEntity
  8
wing
  6
ByLayer
 62
  256
370
   -1
100
AcDbLine
 10
422
 20
60
 11
439.979915854399
 21
60.03653558291973
  0
LINE
  5
EB
100
AcDbEntity
  8
wing
  6
ByLayer
 62
  256
370
   -1
100
AcDbLine
 10
422
 20
53
 11
400
 21
53
  0
LINE
  5
EC
100
AcDbEntity
  8
wing
  6
ByLayer
 62
  256
370
   -1
100
AcDbLine
 10
399.979915854399
 20
21.04503558291969
 11
422
 21
21
  0
LINE
  5
ED
100
AcDbEntity
  8
wing
  6
ByLayer
 62
  256
370
   -1
100
AcDbLine
 10
422
 20
21
 11
422
 21
14
  0
LINE
  5
EE
100
AcDbEntity
  8
wing
  6
ByLayer
 62
  256
370
   -1
100
AcDbLine
 10
422
 20
14
 11
439.979915854399
 21
14.03653558291972
  0
LINE
  5
EF
100
AcDbEntity
  8
wing
  6
ByLayer
 62
  256
370
   -1
100
AcDbLine
 10
399.979915854399
 20
21.04503558291969
 11
378
 21
21
  0
LINE
  5
F0
100
AcDbEntity
  8
wing
  6
ByLayer
 62
  256
370
   -1
100
AcDbLine
 10
378
 20
21
 11
378
 21
14
  0
LINE
  5
F1
100
AcDbEntity
  8
wing
  6
ByLayer
 62
  256
370
   -1
100
AcDbLine
 10
378
 20
14
 11
359.979915854399
 21
14.03653558291972
  0
LINE
  5
F2
100
AcDbEntity
  8
wing
  6
ByLayer
 62
  256
370
   -1
100
AcDbLine
 10
549.979915854399
 20
44.03653558291973
 11
528.717174154602
 21
40.99900105437729
  0
ARC
  5
F3
100
AcDbEntity
  8
wing
  6
ByLayer
 62
  256
370
   -1
100
AcDbCircle
 10
530.979915854399
 20
25.1598091557986
 40
16
100
AcDbArc
 50
98.13010235415595
 51
180
  0
LINE
  5
F4
100
AcDbEntity
  8
wing
  6
ByLayer
 62
  256
370
   -1
100
AcDbLine
 10
514.979915854399
 20
25.1598091557986
 11
514.979915854399
 21
20.03653558291973
  0
ARC
  5
F5
100
AcDbEntity
  8
wing
  6
ByLayer
 62
  256
370
   -1
100
AcDbCircle
 10
530.979915854399
 20
20.03653558291973
 40
16
100
AcDbArc
 50
180
 51
270
  0
LINE
  5
F6
100
AcDbEntity
  8
wing
  6
ByLayer
 62
  256
370
   -1
100
AcDbLine
 10
609.979915854399
 20
44.03653558291973
 11
631.2426575541959
 21
40.99900105437729
  0
ARC
  5
F7
100
AcDbEntity
  8
wing
  6
ByLayer
 62
  256
370
   -1
100
AcDbCircle
 10
628.979915854399
 20
25.15980915579858
 40
16
100
AcDbArc
 50
360
 51
81.86989764584406
  0
LINE
  5
F8
100
AcDbEntity
  8
wing
  6
ByLayer
 62
  256
370
   -1
100
AcDbLine
 10
644.979915854399
 20
25.15980915579858
 11
644.979915854399
 21
20.03653558291971
  0
ARC
  5
F9
100
AcDbEntity
  8
wing
  6
ByLayer
 62
  256
370
   -1
100
AcDbCircle
 10
628.979915854399
 20
20.03653558291971
 40
16
100
AcDbArc
 50
270
 51
360
  0
LINE
  5
FA
100
AcDbEntity
  8
wing
  6
ByLayer
 62
  256
370
   -1
100
AcDbLine
 10
560
 20
4.036535582919726
 11
530.979915854399
 21
4.036535582919726
  0
LINE
  5
FB
100
AcDbEntity
  8
wing
  6
ByLayer
 62
  256
370
   -1
100
AcDbLine
 10
549.979915854399
 20
44.03653558291973
 11
560
 21
44.03653558291973
  0
LINE
  5
FC
100
AcDbEntity
  8
wing
  6
ByLayer
 62
  256
370
   -1
100
AcDbLine
 10
560
 20
44.03653558291973
 11
579.979915854399
 21
44.03653558291973
  0
LINE
  5
FD
100
AcDbEntity
  8
wing
  6
ByLayer
 62
  256
370
   -1
100
AcDbLine
 10
609.979915854399
 20
44.03653558291973
 11
600
 21
44.03653558291973
  0
LINE
  5
FE
100
AcDbEntity
  8
wing
  6
ByLayer
 62
  256
370
   -1
100
AcDbLine
 10
600
 20
44.03653558291973
 11
579.979915854399
 21
44.03653558291973
  0
LINE
  5
FF
100
AcDbEntity
  8
wing
  6
ByLayer
 62
  256
370
   -1
100
AcDbLine
 10
600
 20
4.036535582919697
 11
628.979915854399
 21
4.036535582919711
  0
LINE
  5
100
100
AcDbEntity
  8
wing
  6
ByLayer
 62
  256
370
   -1
100
AcDbLine
 10
560
 20
10
 11
600
 21
10
  0
LINE
  5
101
100
AcDbEntity
  8
wing
  6
ByLayer
 62
  256
370
   -1
100
AcDbLine
 10
600
 20
10
 11
600
 21
4.036535582919697
  0
LINE
  5
102
100
AcDbEntity
  8
wing
  6
ByLayer
 62
  256
370
   -1
100
AcDbLine
 10
560
 20
10
 11
560
 21
4.036535582919726
  0
CIRCLE
  5
103
100
AcDbEntity
  8
wheels
  6
ByLayer
 62
  256
370
   -1
100
AcDbCircle
 10
230
 20
170
 40
19.90298632567485
  0
CIRCLE
  5
104
100
AcDbEntity
  8
wheels
  6
ByLayer
 62
  256
370
   -1
100
AcDbCircle
 10
230
 20
170
 40
14.31782106327635
  0
CIRCLE
  5
105
100
AcDbEntity
  8
wheels
  6
ByLayer
 62
  256
370
   -1
100
AcDbCircle
 10
230
 20
120
 40
19.90298632567485
  0
CIRCLE
  5
106
100
AcDbEntity
  8
wheels
  6
ByLayer
 62
  256
370
   -1
100
AcDbCircle
 10
230
 20
120
 40
14.31782106327635
  0
CIRCLE
  5
107
100
AcDbEntity
  8
wheels
  6
ByLayer
 62
  256
370
   -1
100
AcDbCircle
 10
230
 20
170
 40
2
  0
CIRCLE
  5
108
100
AcDbEntity
  8
wheels
  6
ByLayer
 62
  256
370
   -1
100
AcDbCircle
 10
230
 20
120
 40
2
  0
CIRCLE
  5
109
100
AcDbEntity
  8
wheels
  6
ByLayer
 62
  256
370
   -1
100
AcDbCircle
 10
230
 20
170
 40
4
  0
CIRCLE
  5
10A
100
AcDbEntity
  8
wheels
  6
ByLayer
 62
  256
370
   -1
100
AcDbCircle
 10
230
 20
120
 40
4
  0
ENDSEC
  0
SECTION
  2
OBJECTS
  0
DICTIONARY
  5
C
330
0
100
AcDbDictionary
281
    1
  3
ACAD_GROUP
350
D
  3
ACAD_IMAGE_DICT
350
10B
  0
DICTIONARY
  5
D
330
C
100
AcDbDictionary
281
    1
  0
IMAGEDEF_REACTOR
  5
57
330
58
100
AcDbRasterImageDefReactor
 90
    2
330
58
  0
DICTIONARY
  5
10B
330
C
100
AcDbDictionary
281
    1
  3
10-fastest-single-engine-planes-today-g
350
56
  0
IMAGEDEF
  5
56
102
{ACAD_REACTORS
330
57
102
}
100
AcDbRasterImageDef
 90
    0
  1
/home/duncan/Downloads/10-fastest-single-engine-planes-today-g.jpg
 10
1000
 20
750
 11
1
 21
1
280
    1
281
    0
  0
ENDSEC
  0
EOF
