999
dxfrw 0.6.3
  0
SECTION
  2
HEADER
  9
$ACADVER
  1
AC1021
  9
$DWGCODEPAGE
  3
ANSI_1252
  9
$INSBASE
 10
0
 20
0
 30
0
  9
$EXTMIN
 10
-195.0000000000001
 20
-2.407417371093175
 30
0
  9
$EXTMAX
 10
745.8819045102523
 20
360
 30
0
  9
$LIMMIN
 10
0
 20
0
  9
$LIMMAX
 10
420
 20
297
  9
$ORTHOMODE
 70
    0
  9
$REGENMODE
 70
    1
  9
$FILLMODE
 70
    1
  9
$QTEXTMODE
 70
    0
  9
$MIRRTEXT
 70
    0
  9
$LTSCALE
 40
1
  9
$ATTMODE
 70
    0
  9
$TEXTSIZE
 40
2.5
  9
$TRACEWID
 40
15.68
  9
$TEXTSTYLE
  7
STANDARD
  9
$CLAYER
  8
0
  9
$CELTYPE
  6
BYLAYER
  9
$CECOLOR
 62
  256
  9
$CELTSCALE
 40
1
  9
$DISPSILH
 70
    0
  9
$DIMSCALE
 40
2.5
  9
$DIMASZ
 40
2.5
  9
$DIMEXO
 40
0.625
  9
$DIMDLI
 40
3.75
  9
$DIMRND
 40
0
  9
$DIMDLE
 40
0
  9
$DIMEXE
 40
1.25
  9
$DIMTP
 40
0
  9
$DIMTM
 40
0
  9
$DIMTXT
 40
2.5
  9
$DIMCEN
 40
2.5
  9
$DIMTSZ
 40
0
  9
$DIMTOL
 70
    0
  9
$DIMLIM
 70
    0
  9
$DIMTIH
 70
    0
  9
$DIMTOH
 70
    0
  9
$DIMSE1
 70
    0
  9
$DIMSE2
 70
    0
  9
$DIMTAD
 70
    1
  9
$DIMZIN
 70
    8
  9
$DIMBLK
  1

  9
$DIMASO
 70
    1
  9
$DIMSHO
 70
    1
  9
$DIMPOST
  1

  9
$DIMAPOST
  1

  9
$DIMALT
 70
    0
  9
$DIMALTD
 70
    3
  9
$DIMALTF
 40
0.03937
  9
$DIMLFAC
 40
1
  9
$DIMTOFL
 70
    1
  9
$DIMTVP
 40
0
  9
$DIMTIX
 70
    0
  9
$DIMSOXD
 70
    0
  9
$DIMSAH
 70
    0
  9
$DIMBLK1
  1

  9
$DIMBLK2
  1

  9
$DIMSTYLE
  2
STANDARD
  9
$DIMCLRD
 70
    0
  9
$DIMCLRE
 70
    0
  9
$DIMCLRT
 70
    0
  9
$DIMTFAC
 40
1
  9
$DIMGAP
 40
0.625
  9
$DIMJUST
 70
    0
  9
$DIMSD1
 70
    0
  9
$DIMSD2
 70
    0
  9
$DIMTOLJ
 70
    0
  9
$DIMTZIN
 70
    8
  9
$DIMALTZ
 70
    0
  9
$DIMALTTZ
 70
    0
  9
$DIMUPT
 70
    0
  9
$DIMDEC
 70
    2
  9
$DIMTDEC
 70
    2
  9
$DIMALTU
 70
    2
  9
$DIMALTTD
 70
    3
  9
$DIMTXSTY
  7
STANDARD
  9
$DIMAUNIT
 70
    0
  9
$DIMADEC
 70
    0
  9
$DIMALTRND
 40
0
  9
$DIMAZIN
 70
    0
  9
$DIMDSEP
 70
   44
  9
$DIMATFIT
 70
    3
  9
$DIMFRAC
 70
    0
  9
$DIMLDRBLK
  1
STANDARD
  9
$DIMLUNIT
 70
    2
  9
$DIMLWD
 70
   -2
  9
$DIMLWE
 70
   -2
  9
$DIMTMOVE
 70
    0
  9
$DIMFXL
 40
1
  9
$DIMFXLON
 70
    0
  9
$DIMJOGANG
 40
0.7854
  9
$DIMTFILL
 70
    0
  9
$DIMTFILLCLR
 70
    0
  9
$DIMARCSYM
 70
    0
  9
$DIMLTYPE
  6

  9
$DIMLTEX1
  6

  9
$DIMLTEX2
  6

  9
$LUNITS
 70
    2
  9
$LUPREC
 70
    4
  9
$SKETCHINC
 40
1
  9
$FILLETRAD
 40
0
  9
$AUNITS
 70
    0
  9
$AUPREC
 70
    2
  9
$MENU
  1
.
  9
$ELEVATION
 40
0
  9
$PELEVATION
 40
0
  9
$THICKNESS
 40
0
  9
$LIMCHECK
 70
    0
  9
$CHAMFERA
 40
0
  9
$CHAMFERB
 40
0
  9
$CHAMFERC
 40
0
  9
$CHAMFERD
 40
0
  9
$SKPOLY
 70
    0
  9
$USRTIMER
 70
    1
  9
$ANGBASE
 50
0
  9
$ANGDIR
 70
    0
  9
$PDMODE
 70
   34
  9
$PDSIZE
 40
0
  9
$PLINEWID
 40
0
  9
$SPLFRAME
 70
    0
  9
$SPLINETYPE
 70
    2
  9
$SPLINESEGS
 70
    8
  9
$HANDSEED
  5
20000
  9
$SURFTAB1
 70
    6
  9
$SURFTAB2
 70
    6
  9
$SURFTYPE
 70
    6
  9
$SURFU
 70
    6
  9
$SURFV
 70
    6
  9
$UCSBASE
  2

  9
$UCSNAME
  2

  9
$UCSORG
 10
0
 20
0
 30
0
  9
$UCSXDIR
 10
1
 20
0
 30
0
  9
$UCSYDIR
 10
0
 20
1
 30
0
  9
$UCSORTHOREF
  2

  9
$UCSORTHOVIEW
 70
    0
  9
$UCSORGTOP
 10
0
 20
0
 30
0
  9
$UCSORGBOTTOM
 10
0
 20
0
 30
0
  9
$UCSORGLEFT
 10
0
 20
0
 30
0
  9
$UCSORGRIGHT
 10
0
 20
0
 30
0
  9
$UCSORGFRONT
 10
0
 20
0
 30
0
  9
$UCSORGBACK
 10
0
 20
0
 30
0
  9
$PUCSBASE
  2

  9
$PUCSNAME
  2

  9
$PUCSORG
 10
0
 20
0
 30
0
  9
$PUCSXDIR
 10
1
 20
0
 30
0
  9
$PUCSYDIR
 10
0
 20
1
 30
0
  9
$PUCSORTHOREF
  2

  9
$PUCSORTHOVIEW
 70
    0
  9
$PUCSORGTOP
 10
0
 20
0
 30
0
  9
$PUCSORGBOTTOM
 10
0
 20
0
 30
0
  9
$PUCSORGLEFT
 10
0
 20
0
 30
0
  9
$PUCSORGRIGHT
 10
0
 20
0
 30
0
  9
$PUCSORGFRONT
 10
0
 20
0
 30
0
  9
$PUCSORGBACK
 10
0
 20
0
 30
0
  9
$USERI1
 70
    0
  9
$USERI2
 70
    0
  9
$USERI3
 70
    0
  9
$USERI4
 70
    0
  9
$USERI5
 70
    0
  9
$USERR1
 40
0
  9
$USERR2
 40
0
  9
$USERR3
 40
0
  9
$USERR4
 40
0
  9
$USERR5
 40
0
  9
$WORLDVIEW
 70
    1
  9
$SHADEDGE
 70
    3
  9
$SHADEDIF
 70
   70
  9
$TILEMODE
 70
    1
  9
$MAXACTVP
 70
   64
  9
$PINSBASE
 10
0
 20
0
 30
0
  9
$PLIMCHECK
 70
    0
  9
$PEXTMIN
 10
0
 20
0
 30
0
  9
$PEXTMAX
 10
0
 20
0
 30
0
  9
$GRIDMODE
 70
    1
  9
$SNAPSTYLE
 70
    0
  9
$PLIMMIN
 10
0
 20
0
  9
$PLIMMAX
 10
297
 20
210
  9
$UNITMODE
 70
    0
  9
$VISRETAIN
 70
    1
  9
$PLINEGEN
 70
    0
  9
$PSLTSCALE
 70
    1
  9
$TREEDEPTH
 70
 3020
  9
$CMLSTYLE
  2
Standard
  9
$CMLJUST
 70
    0
  9
$CMLSCALE
 40
20
  9
$PROXYGRAPHICS
 70
    1
  9
$MEASUREMENT
 70
    1
  9
$CELWEIGHT
370
   -1
  9
$ENDCAPS
280
    0
  9
$JOINSTYLE
280
    0
  9
$LWDISPLAY
290
    0
  9
$INSUNITS
 70
    4
  9
$HYPERLINKBASE
  1

  9
$STYLESHEET
  1

  9
$XEDIT
290
    1
  9
$CEPSNTYPE
380
    0
  9
$PSTYLEMODE
290
    1
  9
$EXTNAMES
290
    1
  9
$PSVPSCALE
 40
1
  9
$OLESTARTUP
290
    0
  9
$SORTENTS
280
  127
  9
$INDEXCTL
280
    0
  9
$HIDETEXT
280
    1
  9
$XCLIPFRAME
290
    0
  9
$HALOGAP
280
    0
  9
$OBSCOLOR
 70
  257
  9
$OBSLTYPE
280
    0
  9
$INTERSECTIONDISPLAY
280
    0
  9
$INTERSECTIONCOLOR
 70
  257
  9
$DIMASSOC
280
    1
  9
$PROJECTNAME
  1

  9
$CAMERADISPLAY
290
    0
  9
$LENSLENGTH
 40
50
  9
$CAMERAHEIGHT
 40
0
  9
$STEPSPERSEC
 40
2
  9
$STEPSIZE
 40
50
  9
$3DDWFPREC
 40
2
  9
$PSOLWIDTH
 40
5
  9
$PSOLHEIGHT
 40
80
  9
$LOFTANG1
 40
1.570796326794897
  9
$LOFTANG2
 40
1.570796326794897
  9
$LOFTMAG1
 40
0
  9
$LOFTMAG2
 40
0
  9
$LOFTPARAM
 70
    7
  9
$LOFTNORMALS
280
    1
  9
$LATITUDE
 40
1
  9
$LONGITUDE
 40
1
  9
$NORTHDIRECTION
 40
0
  9
$TIMEZONE
 70
-8000
  9
$LIGHTGLYPHDISPLAY
280
    1
  9
$TILEMODELIGHTSYNCH
280
    1
  9
$SOLIDHIST
280
    1
  9
$SHOWHIST
280
    1
  9
$DWFFRAME
280
    2
  9
$DGNFRAME
280
    0
  9
$REALWORLDSCALE
290
    1
  9
$INTERFERECOLOR
 62
    1
  9
$CSHADOW
280
    0
  9
$SHADOWPLANELOCATION
 40
0
  0
ENDSEC
  0
SECTION
  2
CLASSES
  0
ENDSEC
  0
SECTION
  2
TABLES
  0
TABLE
  2
VPORT
  5
8
330
0
100
AcDbSymbolTable
 70
    1
  0
VPORT
  5
31
330
2
100
AcDbSymbolTableRecord
100
AcDbViewportTableRecord
  2
*ACTIVE
 70
    0
 10
0
 20
0
 11
1
 21
1
 12
140.5344791105869
 22
284.9925096684238
 13
0
 23
0
 14
10
 24
10
 15
10
 25
10
 16
0
 26
0
 36
1
 17
0
 27
0
 37
0
 40
579.2588682121655
 41
1.413793103448276
 42
50
 43
0
 44
0
 50
0
 51
0
 71
    0
 72
  100
 73
    1
 74
    3
 75
    0
 76
    1
 77
    0
 78
    0
281
    0
 65
    1
110
0
120
0
130
0
111
1
121
0
131
0
112
0
122
1
132
0
 79
    0
146
0
348
10020
 60
    7
 61
    5
292
1
282
    1
141
0
142
0
 63
  250
421
3358443
  0
ENDTAB
  0
TABLE
  2
LTYPE
  5
5
330
0
100
AcDbSymbolTable
 70
    4
  0
LTYPE
  5
14
330
5
100
AcDbSymbolTableRecord
100
AcDbLinetypeTableRecord
  2
ByBlock
 70
    0
  3

 72
   65
 73
    0
 40
0
  0
LTYPE
  5
15
330
5
100
AcDbSymbolTableRecord
100
AcDbLinetypeTableRecord
  2
ByLayer
 70
    0
  3

 72
   65
 73
    0
 40
0
  0
LTYPE
  5
16
330
5
100
AcDbSymbolTableRecord
100
AcDbLinetypeTableRecord
  2
Continuous
 70
    0
  3
Solid line
 72
   65
 73
    0
 40
0
  0
LTYPE
  5
32
330
5
100
AcDbSymbolTableRecord
100
AcDbLinetypeTableRecord
  2
DOT
 70
    0
  3
Dot . . . . . . . . . . . . . . . . . . . . . .
 72
   65
 73
    2
 40
6.35
 49
0
 74
    0
 49
-6.35
 74
    0
  0
LTYPE
  5
33
330
5
100
AcDbSymbolTableRecord
100
AcDbLinetypeTableRecord
  2
DOTTINY
 70
    0
  3
Dot (.15x) .....................................
 72
   65
 73
    2
 40
0.9525
 49
0
 74
    0
 49
-0.9525
 74
    0
  0
LTYPE
  5
34
330
5
100
AcDbSymbolTableRecord
100
AcDbLinetypeTableRecord
  2
DOT2
 70
    0
  3
Dot (.5x) .....................................
 72
   65
 73
    2
 40
3.175
 49
0
 74
    0
 49
-3.175
 74
    0
  0
LTYPE
  5
35
330
5
100
AcDbSymbolTableRecord
100
AcDbLinetypeTableRecord
  2
DOTX2
 70
    0
  3
Dot (2x) .  .  .  .  .  .  .  .  .  .  .  .  .
 72
   65
 73
    2
 40
12.7
 49
0
 74
    0
 49
-12.7
 74
    0
  0
LTYPE
  5
36
330
5
100
AcDbSymbolTableRecord
100
AcDbLinetypeTableRecord
  2
DASHED
 70
    0
  3
Dashed _ _ _ _ _ _ _ _ _ _ _ _ _ _ _ _ _
 72
   65
 73
    2
 40
19.05
 49
12.7
 74
    0
 49
-6.35
 74
    0
  0
LTYPE
  5
37
330
5
100
AcDbSymbolTableRecord
100
AcDbLinetypeTableRecord
  2
DASHEDTINY
 70
    0
  3
Dashed (.15x) _ _ _ _ _ _ _ _ _ _ _ _ _ _ _ _ _
 72
   65
 73
    2
 40
2.8575
 49
1.905
 74
    0
 49
-0.9525
 74
    0
  0
LTYPE
  5
38
330
5
100
AcDbSymbolTableRecord
100
AcDbLinetypeTableRecord
  2
DASHED2
 70
    0
  3
Dashed (.5x) _ _ _ _ _ _ _ _ _ _ _ _ _ _ _ _ _
 72
   65
 73
    2
 40
9.524999999999999
 49
6.35
 74
    0
 49
-3.175
 74
    0
  0
LTYPE
  5
39
330
5
100
AcDbSymbolTableRecord
100
AcDbLinetypeTableRecord
  2
DASHEDX2
 70
    0
  3
Dashed (2x) ____  ____  ____  ____  ____  ___
 72
   65
 73
    2
 40
38.09999999999999
 49
25.4
 74
    0
 49
-12.7
 74
    0
  0
LTYPE
  5
3A
330
5
100
AcDbSymbolTableRecord
100
AcDbLinetypeTableRecord
  2
DASHDOT
 70
    0
  3
Dash dot __ . __ . __ . __ . __ . __ . __ . __
 72
   65
 73
    4
 40
25.4
 49
12.7
 74
    0
 49
-6.35
 74
    0
 49
0
 74
    0
 49
-6.35
 74
    0
  0
LTYPE
  5
3B
330
5
100
AcDbSymbolTableRecord
100
AcDbLinetypeTableRecord
  2
DASHDOTTINY
 70
    0
  3
Dash dot (.15x) _._._._._._._._._._._._._._._.
 72
   65
 73
    4
 40
3.81
 49
1.905
 74
    0
 49
-0.9525
 74
    0
 49
0
 74
    0
 49
-0.9525
 74
    0
  0
LTYPE
  5
3C
330
5
100
AcDbSymbolTableRecord
100
AcDbLinetypeTableRecord
  2
DASHDOT2
 70
    0
  3
Dash dot (.5x) _._._._._._._._._._._._._._._.
 72
   65
 73
    4
 40
12.7
 49
6.35
 74
    0
 49
-3.175
 74
    0
 49
0
 74
    0
 49
-3.175
 74
    0
  0
LTYPE
  5
3D
330
5
100
AcDbSymbolTableRecord
100
AcDbLinetypeTableRecord
  2
DASHDOTX2
 70
    0
  3
Dash dot (2x) ____  .  ____  .  ____  .  ___
 72
   65
 73
    4
 40
50.8
 49
25.4
 74
    0
 49
-12.7
 74
    0
 49
0
 74
    0
 49
-12.7
 74
    0
  0
LTYPE
  5
3E
330
5
100
AcDbSymbolTableRecord
100
AcDbLinetypeTableRecord
  2
DIVIDE
 70
    0
  3
Divide ____ . . ____ . . ____ . . ____ . . ____
 72
   65
 73
    6
 40
31.75
 49
12.7
 74
    0
 49
-6.35
 74
    0
 49
0
 74
    0
 49
-6.35
 74
    0
 49
0
 74
    0
 49
-6.35
 74
    0
  0
LTYPE
  5
3F
330
5
100
AcDbSymbolTableRecord
100
AcDbLinetypeTableRecord
  2
DIVIDETINY
 70
    0
  3
Divide (.15x) __..__..__..__..__..__..__..__.._
 72
   65
 73
    6
 40
4.7625
 49
1.905
 74
    0
 49
-0.9525
 74
    0
 49
0
 74
    0
 49
-0.9525
 74
    0
 49
0
 74
    0
 49
-0.9525
 74
    0
  0
LTYPE
  5
40
330
5
100
AcDbSymbolTableRecord
100
AcDbLinetypeTableRecord
  2
DIVIDE2
 70
    0
  3
Divide (.5x) __..__..__..__..__..__..__..__.._
 72
   65
 73
    6
 40
15.875
 49
6.35
 74
    0
 49
-3.175
 74
    0
 49
0
 74
    0
 49
-3.175
 74
    0
 49
0
 74
    0
 49
-3.175
 74
    0
  0
LTYPE
  5
41
330
5
100
AcDbSymbolTableRecord
100
AcDbLinetypeTableRecord
  2
DIVIDEX2
 70
    0
  3
Divide (2x) ________  .  .  ________  .  .  _
 72
   65
 73
    6
 40
63.5
 49
25.4
 74
    0
 49
-12.7
 74
    0
 49
0
 74
    0
 49
-12.7
 74
    0
 49
0
 74
    0
 49
-12.7
 74
    0
  0
LTYPE
  5
42
330
5
100
AcDbSymbolTableRecord
100
AcDbLinetypeTableRecord
  2
BORDER
 70
    0
  3
Border __ __ . __ __ . __ __ . __ __ . __ __ .
 72
   65
 73
    6
 40
44.45
 49
12.7
 74
    0
 49
-6.35
 74
    0
 49
12.7
 74
    0
 49
-6.35
 74
    0
 49
0
 74
    0
 49
-6.35
 74
    0
  0
LTYPE
  5
43
330
5
100
AcDbSymbolTableRecord
100
AcDbLinetypeTableRecord
  2
BORDERTINY
 70
    0
  3
Border (.15x) __.__.__.__.__.__.__.__.__.__.__.
 72
   65
 73
    6
 40
6.6675
 49
1.905
 74
    0
 49
-0.9525
 74
    0
 49
1.905
 74
    0
 49
-0.9525
 74
    0
 49
0
 74
    0
 49
-0.9525
 74
    0
  0
LTYPE
  5
44
330
5
100
AcDbSymbolTableRecord
100
AcDbLinetypeTableRecord
  2
BORDER2
 70
    0
  3
Border (.5x) __.__.__.__.__.__.__.__.__.__.__.
 72
   65
 73
    6
 40
22.225
 49
6.35
 74
    0
 49
-3.175
 74
    0
 49
6.35
 74
    0
 49
-3.175
 74
    0
 49
0
 74
    0
 49
-3.175
 74
    0
  0
LTYPE
  5
45
330
5
100
AcDbSymbolTableRecord
100
AcDbLinetypeTableRecord
  2
BORDERX2
 70
    0
  3
Border (2x) ____  ____  .  ____  ____  .  ___
 72
   65
 73
    6
 40
88.89999999999999
 49
25.4
 74
    0
 49
-12.7
 74
    0
 49
25.4
 74
    0
 49
-12.7
 74
    0
 49
0
 74
    0
 49
-12.7
 74
    0
  0
LTYPE
  5
46
330
5
100
AcDbSymbolTableRecord
100
AcDbLinetypeTableRecord
  2
CENTER
 70
    0
  3
Center ____ _ ____ _ ____ _ ____ _ ____ _ ____
 72
   65
 73
    4
 40
50.8
 49
31.75
 74
    0
 49
-6.35
 74
    0
 49
6.35
 74
    0
 49
-6.35
 74
    0
  0
LTYPE
  5
47
330
5
100
AcDbSymbolTableRecord
100
AcDbLinetypeTableRecord
  2
CENTERTINY
 70
    0
  3
Center (.15x) ___ _ ___ _ ___ _ ___ _ ___ _ ___
 72
   65
 73
    4
 40
7.619999999999999
 49
4.7625
 74
    0
 49
-0.9525
 74
    0
 49
0.9525
 74
    0
 49
-0.9525
 74
    0
  0
LTYPE
  5
48
330
5
100
AcDbSymbolTableRecord
100
AcDbLinetypeTableRecord
  2
CENTER2
 70
    0
  3
Center (.5x) ___ _ ___ _ ___ _ ___ _ ___ _ ___
 72
   65
 73
    4
 40
28.575
 49
19.05
 74
    0
 49
-3.175
 74
    0
 49
3.175
 74
    0
 49
-3.175
 74
    0
  0
LTYPE
  5
49
330
5
100
AcDbSymbolTableRecord
100
AcDbLinetypeTableRecord
  2
CENTERX2
 70
    0
  3
Center (2x) ________  __  ________  __  _____
 72
   65
 73
    4
 40
101.6
 49
63.5
 74
    0
 49
-12.7
 74
    0
 49
12.7
 74
    0
 49
-12.7
 74
    0
  0
ENDTAB
  0
TABLE
  2
LAYER
  5
2
330
0
100
AcDbSymbolTable
 70
    1
  0
LAYER
  5
10
330
2
100
AcDbSymbolTableRecord
100
AcDbLayerTableRecord
  2
0
 70
    1
 62
    7
  6
CONTINUOUS
370
    0
390
F
  0
LAYER
  5
4A
330
2
100
AcDbSymbolTableRecord
100
AcDbLayerTableRecord
  2
back
 70
    0
 62
    7
  6
CONTINUOUS
370
    0
390
F
  0
LAYER
  5
4B
330
2
100
AcDbSymbolTableRecord
100
AcDbLayerTableRecord
  2
back2
 70
    0
 62
    7
  6
CONTINUOUS
370
    0
390
F
  0
LAYER
  5
4C
330
2
100
AcDbSymbolTableRecord
100
AcDbLayerTableRecord
  2
board
 70
    0
 62
    7
  6
CONTINUOUS
370
    0
390
F
  0
LAYER
  5
4D
330
2
100
AcDbSymbolTableRecord
100
AcDbLayerTableRecord
  2
board_chamfer
 70
    0
 62
    1
  6
CONTINUOUS
370
    0
390
F
  0
LAYER
  5
4E
330
2
100
AcDbSymbolTableRecord
100
AcDbLayerTableRecord
  2
frame
 70
    5
 62
    5
  6
CONTINUOUS
370
    0
390
F
  0
LAYER
  5
4F
330
2
100
AcDbSymbolTableRecord
100
AcDbLayerTableRecord
  2
strut
 70
    0
 62
    7
  6
CONTINUOUS
370
    0
390
F
  0
ENDTAB
  0
TABLE
  2
STYLE
  5
3
330
0
100
AcDbSymbolTable
 70
    3
  0
STYLE
  5
50
330
2
100
AcDbSymbolTableRecord
100
AcDbTextStyleTableRecord
  2
Standard
 70
    0
 40
0
 41
1
 50
0
 71
    0
 42
1
  3
txt
  4

  0
ENDTAB
  0
TABLE
  2
VIEW
  5
6
330
0
100
AcDbSymbolTable
 70
    0
  0
ENDTAB
  0
TABLE
  2
UCS
  5
7
330
0
100
AcDbSymbolTable
 70
    0
  0
ENDTAB
  0
TABLE
  2
APPID
  5
9
330
0
100
AcDbSymbolTable
 70
    1
  0
APPID
  5
12
330
9
100
AcDbSymbolTableRecord
100
AcDbRegAppTableRecord
  2
ACAD
 70
    0
  0
APPID
  5
51
330
9
100
AcDbSymbolTableRecord
100
AcDbRegAppTableRecord
  2
LibreCad
 70
    0
  0
ENDTAB
  0
TABLE
  2
DIMSTYLE
  5
A
330
0
100
AcDbSymbolTable
 70
    1
100
AcDbDimStyleTable
 71
    1
  0
DIMSTYLE
105
52
330
A
100
AcDbSymbolTableRecord
100
AcDbDimStyleTableRecord
  2
Standard
 70
    0
 40
2.5
 41
2.5
 42
0.625
 43
0.38
 44
1.25
 45
0
 46
0
 47
0
 48
0
 49
1
140
2.5
141
0.09
142
0
143
25.4
144
1
145
0
146
1
147
0.625
148
0
 71
    0
 72
    0
 73
    0
 74
    1
 75
    0
 76
    0
 77
    0
 78
    8
 79
    0
170
    0
171
    2
172
    0
173
    0
174
    0
175
    0
176
    0
177
    0
178
    0
179
    0
271
    2
272
    4
273
    2
274
    2
275
    0
276
    0
277
    2
278
   44
279
    0
280
    0
281
    0
282
    0
283
    1
284
    0
285
    0
286
    0
288
    0
289
    3
340
STANDARD
341

371
   -2
372
   -2
  0
ENDTAB
  0
TABLE
  2
BLOCK_RECORD
  5
1
330
0
100
AcDbSymbolTable
 70
    2
  0
BLOCK_RECORD
  5
1F
330
1
100
AcDbSymbolTableRecord
100
AcDbBlockTableRecord
  2
*Model_Space
 70
    0
280
    1
281
    0
  0
BLOCK_RECORD
  5
1E
330
1
100
AcDbSymbolTableRecord
100
AcDbBlockTableRecord
  2
*Paper_Space
 70
    0
280
    1
281
    0
  0
ENDTAB
  0
ENDSEC
  0
SECTION
  2
BLOCKS
  0
BLOCK
  5
20
330
1F
100
AcDbEntity
  8
0
100
AcDbBlockBegin
  2
*Model_Space
 70
    0
 10
0
 20
0
 30
0
  3
*Model_Space
  1

  0
ENDBLK
  5
21
330
1F
100
AcDbEntity
  8
0
100
AcDbBlockEnd
  0
BLOCK
  5
1C
330
1B
100
AcDbEntity
  8
0
100
AcDbBlockBegin
  2
*Paper_Space
 70
    0
 10
0
 20
0
 30
0
  3
*Paper_Space
  1

  0
ENDBLK
  5
1D
330
1F
100
AcDbEntity
  8
0
100
AcDbBlockEnd
  0
ENDSEC
  0
SECTION
  2
ENTITIES
  0
LINE
  5
53
100
AcDbEntity
  8
frame
  6
ByLayer
 62
  256
370
   -1
100
AcDbLine
 10
100
 20
20
 11
125.8819045102521
 21
116.5925826289068
  0
LINE
  5
54
100
AcDbEntity
  8
frame
  6
ByLayer
 62
  256
370
   -1
100
AcDbLine
 10
-91.14330039770554
 20
46.70652940897597
 11
-136.168542925007
 21
193.9774618272834
  0
LINE
  5
55
100
AcDbEntity
  8
frame
  6
ByLayer
 62
  256
370
   -1
100
AcDbLine
 10
125.8819045102521
 20
105.5925826289068
 11
-112.5096110730912
 21
105.5925826289068
  0
LINE
  5
56
100
AcDbEntity
  8
frame
  6
ByLayer
 62
  256
370
   -1
100
AcDbLine
 10
125.8819045102521
 20
127.5925826289068
 11
-112.5096110730912
 21
127.5925826289068
  0
LINE
  5
57
100
AcDbEntity
  8
frame
  6
ByLayer
 62
  256
370
   -1
100
AcDbLine
 10
-79.1894909481676
 20
50.36117571801018
 11
-124.214733475469
 21
197.6321081363176
  0
LINE
  5
58
100
AcDbEntity
  8
frame
  6
ByLayer
 62
  256
370
   -1
100
AcDbLine
 10
-103.0971098472435
 20
43.05188309994176
 11
-148.1223523745449
 21
190.3228155182492
  0
LINE
  5
59
100
AcDbEntity
  8
frame
  6
ByLayer
 62
  256
370
   -1
100
AcDbLine
 10
87.92592717138665
 20
23.23523806378151
 11
113.8078316816387
 21
119.8278206926883
  0
LINE
  5
5A
100
AcDbEntity
  8
frame
  6
ByLayer
 62
  256
370
   -1
100
AcDbLine
 10
112.0740728286134
 20
16.76476193621849
 11
137.9559773388654
 21
113.3573445651253
  0
LINE
  5
5B
100
AcDbEntity
  8
frame
  6
ByLayer
 62
  256
370
   -1
100
AcDbLine
 10
-87.6956717747961
 20
83.31409497783753
 11
-114.4722049417611
 21
75.1276872456009
  0
LINE
  5
5C
100
AcDbEntity
  8
frame
  6
ByLayer
 62
  256
370
   -1
100
AcDbLine
 10
-108.3323991425836
 20
55.04528737037715
 11
-114.4722049417611
 21
75.1276872456009
  0
LINE
  5
5D
100
AcDbEntity
  8
frame
  6
ByLayer
 62
  256
370
   -1
100
AcDbLine
 10
-81.55586597561864
 20
63.23169510261378
 11
-87.6956717747961
 21
83.31409497783751
  0
LINE
  5
5E
100
AcDbEntity
  8
frame
  6
ByLayer
 62
  256
370
   -1
100
AcDbLine
 10
-81.55586597561864
 20
63.23169510261378
 11
-108.3323991425836
 21
55.04528737037715
  0
CIRCLE
  5
5F
100
AcDbEntity
  8
frame
  6
ByLayer
 62
  256
370
   -1
100
AcDbCircle
 10
-136.168542925007
 20
193.9774618272834
 40
3
  0
CIRCLE
  5
60
100
AcDbEntity
  8
frame
  6
ByLayer
 62
  256
370
   -1
100
AcDbCircle
 10
125.8819045102521
 20
116.5925826289068
 40
3
  0
CIRCLE
  5
61
100
AcDbEntity
  8
frame
  6
ByLayer
 62
  256
370
   -1
100
AcDbCircle
 10
100
 20
20
 40
3
  0
CIRCLE
  5
62
100
AcDbEntity
  8
frame
  6
ByLayer
 62
  256
370
   -1
100
AcDbCircle
 10
-91.14330039770554
 20
46.70652940897597
 40
3
  0
LINE
  5
63
100
AcDbEntity
  8
strut
  6
ByLayer
 62
   16
420
8388608
370
   -1
100
AcDbLine
 10
232
 20
5.592582628906826
 11
232
 21
5.592582628906826
  0
LWPOLYLINE
  5
64
100
AcDbEntity
  8
back2
  6
ByLayer
 62
  256
370
   -1
100
AcDbPolyline
 90
    4
 70
    1
 43
0
 10
491.6676008574163
 20
55.04528737037715
 10
518.4441340243814
 20
63.23169510261378
 10
512.3043282252039
 20
83.31409497783751
 10
485.5277950582389
 20
75.1276872456009
  0
LWPOLYLINE
  5
65
100
AcDbEntity
  8
back2
  6
ByLayer
 62
  256
370
   -1
100
AcDbPolyline
 90
   11
 70
    0
 43
0
 10
468
 20
25.59258262890682
 10
468
 20
81.59258262890683
 10
456
 20
81.59258262890683
 10
456
 20
93.59258262890683
 10
475
 20
93.59258262890683
 10
475
 20
105.5925826289068
 10
425
 20
105.5925826289068
 10
425
 20
93.59258262890683
 10
444
 20
93.59258262890683
 10
444
 20
25.59258262890683
 10
468
 20
25.59258262890682
  0
LWPOLYLINE
  5
66
100
AcDbEntity
  8
back2
  6
ByLayer
 62
  256
370
   -1
100
AcDbPolyline
 90
    5
 70
    0
 43
0
 10
702
 20
16.75
 10
698
 20
16.75
 42
-1.000000152342578
 10
698
 20
23.25
 10
702.0000019112661
 20
23.24999999999944
 42
-0.9999995613737138
 10
702
 20
16.75
 42
-0.9999995613737138
  0
LWPOLYLINE
  5
67
100
AcDbEntity
  8
back2
  6
ByLayer
 62
  256
370
   -1
100
AcDbPolyline
 90
    5
 70
    0
 43
0
 10
512.1066996022945
 20
44.70652940897597
 10
512.1066996022944
 20
48.70652840498399
 42
1.000000396116247
 10
505.6066996022944
 20
48.70652940897597
 10
505.6066996022947
 20
44.70653079231239
 42
1.000000302469271
 10
512.1066996022945
 20
44.70652940897597
 42
1.000000302469271
  0
LWPOLYLINE
  5
68
100
AcDbEntity
  8
back2
  6
ByLayer
 62
  256
370
   -1
100
AcDbPolyline
 90
   12
 70
    1
 43
0
 10
698.3319498823403
 20
125.5925826289068
 10
425
 20
125.5925826289068
 42
0.414213562373095
 10
405
 20
105.5925826289068
 10
405.0000000000001
 20
93.59258467609664
 42
0.2601625841600155
 10
414.5
 20
76.57053809835764
 42
-0.2601625430598654
 10
424
 20
59.54849356780848
 10
424.0000000000001
 20
25.00000000000001
 42
0.4142135623730935
 10
443.9999999999999
 20
4.999999999999993
 10
701.3397459621556
 20
4.999999999999996
 42
0.3394542588633754
 10
720.658262487937
 20
19.82361909794959
 10
745.2004210360336
 20
111.4162017268564
 42
0.7571940301863164
 10
712.1069271962962
 20
131.0925826289068
 42
-0.192258120042802
  0
LWPOLYLINE
  5
69
100
AcDbEntity
  8
back2
  6
ByLayer
 62
  256
370
   -1
100
AcDbPolyline
 90
    4
 70
    1
 43
0
 10
723.8819045102521
 20
113.3425826289068
 42
-1.000000231983336
 10
723.8819045102521
 20
119.8425826289068
 10
727.8819045102521
 20
119.8425826289068
 42
-0.9999999999999999
 10
727.8819045102521
 20
113.3425826289068
  0
LINE
  5
6A
100
AcDbEntity
  8
strut
  6
ByLayer
 62
  256
370
   -1
100
AcDbLine
 10
232
 20
17.59258262890683
 11
232
 21
-2.407417371093175
  0
LINE
  5
6B
100
AcDbEntity
  8
strut
  6
ByLayer
 62
  256
370
   -1
100
AcDbLine
 10
232
 20
-2.407417371093175
 11
232
 21
-2.407417371093175
  0
LINE
  5
6C
100
AcDbEntity
  8
strut
  6
ByLayer
 62
  256
370
   -1
100
AcDbLine
 10
300
 20
75.59258262890683
 11
300
 21
85.59258262890684
  0
LINE
  5
6D
100
AcDbEntity
  8
strut
  6
ByLayer
 62
  256
370
   -1
100
AcDbLine
 10
300
 20
85.59258262890684
 11
232
 21
85.59258262890684
  0
LINE
  5
6E
100
AcDbEntity
  8
strut
  6
ByLayer
 62
  256
370
   -1
100
AcDbLine
 10
232
 20
85.59258262890684
 11
232
 21
73.59258262890684
  0
LINE
  5
6F
100
AcDbEntity
  8
strut
  6
ByLayer
 62
  256
370
   -1
100
AcDbLine
 10
232
 20
73.59258262890684
 11
220
 21
73.59258262890684
  0
LINE
  5
70
100
AcDbEntity
  8
strut
  6
ByLayer
 62
  256
370
   -1
100
AcDbLine
 10
220
 20
73.59258262890684
 11
220
 21
95.59258262890684
  0
LINE
  5
71
100
AcDbEntity
  8
strut
  6
ByLayer
 62
  256
370
   -1
100
AcDbLine
 10
220
 20
95.59258262890684
 11
200
 21
95.59258262890684
  0
LINE
  5
72
100
AcDbEntity
  8
strut
  6
ByLayer
 62
  256
370
   -1
100
AcDbLine
 10
200
 20
95.59258262890684
 11
200.0000000000001
 21
12.27137150961337
  0
ARC
  5
73
100
AcDbEntity
  8
strut
  6
ByLayer
 62
  256
370
   -1
100
AcDbCircle
 10
232
 20
85.59258262890683
 40
79.99999999999999
100
AcDbArc
 50
246.4218215217982
 51
261.3730734413214
  0
LINE
  5
74
100
AcDbEntity
  8
strut
  6
ByLayer
 62
  256
370
   -1
100
AcDbLine
 10
219.9999999999999
 20
6.497702895766096
 11
220
 21
17.59258262890683
  0
LINE
  5
75
100
AcDbEntity
  8
strut
  6
ByLayer
 62
  256
370
   -1
100
AcDbLine
 10
220
 20
17.59258262890683
 11
232
 21
17.59258262890683
  0
LINE
  5
76
100
AcDbEntity
  8
strut
  6
ByLayer
 62
  256
370
   -1
100
AcDbLine
 10
247.4078864224938
 20
4.841228348222311
 11
295.4078864224938
 21
62.8412283482223
  0
ARC
  5
77
100
AcDbEntity
  8
strut
  6
ByLayer
 62
  256
370
   -1
100
AcDbCircle
 10
232
 20
17.59258262890683
 40
20
100
AcDbArc
 50
270
 51
320.3893191839941
  0
ARC
  5
78
100
AcDbEntity
  8
strut
  6
ByLayer
 62
  256
370
   -1
100
AcDbCircle
 10
280
 20
75.59258262890683
 40
20
100
AcDbArc
 50
320.3893117599733
 51
0
  0
CIRCLE
  5
79
100
AcDbEntity
  8
strut
  6
ByLayer
 62
  256
370
   -1
100
AcDbCircle
 10
255
 20
50
 40
10
  0
LWPOLYLINE
  5
7A
100
AcDbEntity
  8
back
  6
ByLayer
 62
  256
370
   -1
100
AcDbPolyline
 90
   17
 70
    1
 43
0
 10
101.3397459621556
 20
5
 42
0.3394542588633764
 10
120.658262487937
 20
19.82361909794958
 10
145.2004210360335
 20
111.4162017268564
 42
0.4931454260313029
 10
125.8819045102521
 20
136.5925826289068
 10
-82.91116807195174
 20
136.5925826289068
 42
-0.3297505471403161
 10
-102.0372631912124
 20
150.7451485344521
 10
-117.0424478057463
 20
199.8248959217382
 42
0.999999999999999
 10
-155.2946380442677
 20
188.1300277328287
 10
-144.0773759756176
 20
151.4400167233616
 42
-0.5040414943246928
 10
-163.2034710948783
 20
125.5925826289068
 10
-175
 20
125.5925826289068
 42
0.414213562373095
 10
-195
 20
105.5925826289068
 10
-194.9999999999999
 20
93.59258467609664
 42
0.2601625841600161
 10
-185.5
 20
76.57053809835764
 42
-0.2601625430598654
 10
-176
 20
59.54849356780848
 10
-176
 20
25.00000000000001
 42
0.4142135623730941
 10
-156.0000000000001
 20
5.000000000000004
  0
LWPOLYLINE
  5
7B
100
AcDbEntity
  8
back
  6
ByLayer
 62
  256
370
   -1
100
AcDbPolyline
 90
    4
 70
    1
 43
0
 10
-108.3323991425836
 20
55.04528737037715
 10
-81.55586597561864
 20
63.23169510261378
 10
-87.6956717747961
 20
83.31409497783751
 10
-114.4722049417611
 20
75.1276872456009
  0
LWPOLYLINE
  5
7C
100
AcDbEntity
  8
back
  6
ByLayer
 62
  256
370
   -1
100
AcDbPolyline
 90
   11
 70
    0
 43
0
 10
-132
 20
25.59258262890682
 10
-132
 20
81.59258262890683
 10
-144
 20
81.59258262890683
 10
-144
 20
93.59258262890683
 10
-125
 20
93.59258262890683
 10
-125
 20
105.5925826289068
 10
-175
 20
105.5925826289068
 10
-175
 20
93.59258262890683
 10
-156
 20
93.59258262890683
 10
-156
 20
25.59258262890683
 10
-132
 20
25.59258262890682
  0
LWPOLYLINE
  5
7D
100
AcDbEntity
  8
back
  6
ByLayer
 62
  256
370
   -1
100
AcDbPolyline
 90
    5
 70
    0
 43
0
 10
127.8819045102521
 20
113.3425826289068
 10
123.8819045102521
 20
113.3425826289068
 42
-1.000000231983332
 10
123.8819045102521
 20
119.8425826289068
 10
127.8819045102521
 20
119.8425826289068
 42
-0.9999999999999999
 10
127.8819045102521
 20
113.3425826289068
 42
-0.9999999999999999
  0
LWPOLYLINE
  5
7E
100
AcDbEntity
  8
back
  6
ByLayer
 62
  256
370
   -1
100
AcDbPolyline
 90
    5
 70
    0
 43
0
 10
102
 20
16.75
 10
98
 20
16.75
 42
-1.000000152342587
 10
98
 20
23.25
 10
102.0000019112661
 20
23.24999999999944
 42
-0.9999995613737072
 10
102
 20
16.75
 42
-0.9999995613737072
  0
LWPOLYLINE
  5
7F
100
AcDbEntity
  8
back
  6
ByLayer
 62
  256
370
   -1
100
AcDbPolyline
 90
    5
 70
    0
 43
0
 10
-87.89330039770554
 20
44.70652940897597
 10
-87.8933003977057
 20
48.70652840498399
 42
1.000000396116247
 10
-94.39330039770553
 20
48.70652940897597
 10
-94.39330039770525
 20
44.70653079231239
 42
1.000000302469271
 10
-87.89330039770554
 20
44.70652940897597
 42
1.000000302469271
  0
LWPOLYLINE
  5
80
100
AcDbEntity
  8
back
  6
ByLayer
 62
  256
370
   -1
100
AcDbPolyline
 90
    5
 70
    0
 43
0
 10
-132.918542925007
 20
191.9774618272834
 10
-132.918542925007
 20
195.9774613150043
 42
0.9999998385464656
 10
-139.418542925007
 20
195.9774618272834
 10
-139.418542925007
 20
191.9774618272834
 42
0.9999999999999999
 10
-132.918542925007
 20
191.9774618272834
 42
0.9999999999999999
  0
LWPOLYLINE
  5
81
100
AcDbEntity
  8
back2
  6
ByLayer
 62
  256
370
   -1
100
AcDbPolyline
 90
   10
 70
    1
 43
0
 10
570.5
 20
93.59258262890683
 10
570.5
 20
81.59258262890683
 10
558.5
 20
81.59258262890683
 10
558.5
 20
25.59258262890683
 10
582.5
 20
25.59258262890683
 10
582.5
 20
93.59258262890683
 10
600.75
 20
93.59258262890683
 10
600.75
 20
105.5925826289068
 10
510
 20
105.5925826289068
 10
510
 20
93.59258262890683
  0
LWPOLYLINE
  5
82
100
AcDbEntity
  8
back2
  6
ByLayer
 62
  256
370
   -1
100
AcDbPolyline
 90
   10
 70
    1
 43
0
 10
673
 20
25.59258262890682
 10
673
 20
81.59258262890683
 10
661
 20
81.59258262890683
 10
661
 20
93.59258262890683
 10
704
 20
93.59258262890683
 10
704
 20
105.5925826289068
 10
630.75
 20
105.5925826289068
 10
630.75
 20
93.59258262890683
 10
649
 20
93.59258262890683
 10
649
 20
25.59258262890682
  0
LWPOLYLINE
  5
83
100
AcDbEntity
  8
back
  6
ByLayer
 62
  256
370
   -1
100
AcDbPolyline
 90
   10
 70
    1
 43
0
 10
73
 20
25.59258262890682
 10
73
 20
81.59258262890683
 10
61
 20
81.59258262890683
 10
61
 20
93.59258262890683
 10
104
 20
93.59258262890683
 10
104
 20
105.5925826289068
 10
30.75
 20
105.5925826289068
 10
30.75
 20
93.59258262890683
 10
49
 20
93.59258262890683
 10
49
 20
25.59258262890682
  0
LWPOLYLINE
  5
84
100
AcDbEntity
  8
back
  6
ByLayer
 62
  256
370
   -1
100
AcDbPolyline
 90
   10
 70
    1
 43
0
 10
-17.5
 20
25.59258262890683
 10
-17.5
 20
93.59258262890683
 10
0.75
 20
93.59258262890683
 10
0.7500000000000008
 20
105.5925826289068
 10
-90
 20
105.5925826289068
 10
-90
 20
93.59258262890683
 10
-29.5
 20
93.59258262890683
 10
-29.5
 20
81.59258262890683
 10
-41.5
 20
81.59258262890683
 10
-41.5
 20
25.59258262890683
  0
LWPOLYLINE
  5
85
100
AcDbEntity
  8
board_chamfer
  6
ByLayer
 62
    1
370
   -1
100
AcDbPolyline
 90
    6
 70
    0
 43
0
 10
-185
 20
260
 10
-185
 20
340
 42
-0.414213562373095
 10
-165
 20
360
 10
60
 20
360
 42
-0.3054428983870382
 10
78.53577897344829
 20
347.5116508070777
 10
114
 20
260
  0
CIRCLE
  5
86
100
AcDbEntity
  8
board
  6
ByLayer
 62
  256
370
   -1
100
AcDbCircle
 10
-138
 20
310
 40
2
  0
CIRCLE
  5
87
100
AcDbEntity
  8
board
  6
ByLayer
 62
  256
370
   -1
100
AcDbCircle
 10
-138
 20
280
 40
2
  0
CIRCLE
  5
88
100
AcDbEntity
  8
board
  6
ByLayer
 62
  256
370
   -1
100
AcDbCircle
 10
67
 20
310
 40
2
  0
CIRCLE
  5
89
100
AcDbEntity
  8
board
  6
ByLayer
 62
  256
370
   -1
100
AcDbCircle
 10
67
 20
280
 40
2
  0
CIRCLE
  5
8A
100
AcDbEntity
  8
board
  6
ByLayer
 62
  256
370
   -1
100
AcDbCircle
 10
-35.5
 20
280
 40
2
  0
CIRCLE
  5
8B
100
AcDbEntity
  8
board
  6
ByLayer
 62
  256
370
   -1
100
AcDbCircle
 10
-35.5
 20
310
 40
2
  0
LWPOLYLINE
  5
8C
100
AcDbEntity
  8
board
  6
ByLayer
 62
  256
370
   -1
100
AcDbPolyline
 90
    4
 70
    1
 43
0
 10
14.39339690431777
 20
292.6776695296635
 42
-1.000000534185469
 10
14.39339432143839
 20
282.6776695296637
 10
-165.2512657812218
 20
282.6776695296637
 42
0.9999999099989663
 10
-165.2512648750216
 20
292.6776695296637
  0
LWPOLYLINE
  5
8D
100
AcDbEntity
  8
board
  6
ByLayer
 62
  256
370
   -1
100
AcDbPolyline
 90
   10
 70
    1
 43
0
 10
75.60660171779827
 20
306.4644660940672
 10
35.60660171779826
 20
266.4644660940672
 42
-1.000000349590324
 10
28.53553390593279
 20
273.5355339059328
 10
60
 20
305
 10
-150.0000031227511
 20
305
 42
0.9999999999999999
 10
-150.0000031227511
 20
315
 10
60.00000000000011
 20
315
 10
28.53554178951754
 20
346.4644582105001
 42
-1.000001114910245
 10
35.60660171779827
 20
353.5355339059327
 10
75.6066017177983
 20
313.5355339059327
 42
-0.4142135623730945
  0
LWPOLYLINE
  5
8E
100
AcDbEntity
  8
board
  6
ByLayer
 62
  256
370
   -1
100
AcDbPolyline
 90
    4
 70
    1
 43
0
 10
14.39339828220193
 20
337.3223304703363
 42
-1.000000461233773
 10
14.39339366835173
 20
327.3223304703363
 10
-165.2512686522779
 20
327.3223304703371
 42
1.000000287094029
 10
-165.2512657812219
 20
337.3223304703363
  0
LWPOLYLINE
  5
8F
100
AcDbEntity
  8
board
  6
ByLayer
 62
  256
370
   -1
100
AcDbPolyline
 90
   30
 70
    1
 43
0
 10
-132
 20
240
 10
-132
 20
248
 10
-144
 20
248
 10
-144
 20
240
 10
-175
 20
240
 10
-175
 20
260
 10
-185
 20
260
 10
-185
 20
340
 42
-0.414213562373095
 10
-165
 20
360
 10
60
 20
360
 42
-0.3054428983870382
 10
78.53577897344829
 20
347.5116508070777
 10
114
 20
260
 10
104
 20
260
 10
104
 20
240
 10
73
 20
240
 10
73
 20
248
 10
61
 20
248
 10
61
 20
240
 10
30.75
 20
240
 10
30.75
 20
260
 10
0.7500000000000104
 20
260
 10
0.7500000000000092
 20
240
 10
-29.5
 20
240
 10
-29.5
 20
248
 10
-41.5
 20
248
 10
-41.5
 20
240
 10
-90
 20
240
 10
-90
 20
260
 10
-125
 20
260
 10
-125
 20
240
  0
ENDSEC
  0
SECTION
  2
OBJECTS
  0
DICTIONARY
  5
C
330
0
100
AcDbDictionary
281
    1
  3
ACAD_GROUP
350
D
  0
DICTIONARY
  5
D
330
C
100
AcDbDictionary
281
    1
  0
ENDSEC
  0
EOF
