999
dxfrw 0.6.3
  0
SECTION
  2
HEADER
  9
$ACADVER
  1
AC1021
  9
$DWGCODEPAGE
  3
ANSI_1252
  9
$INSBASE
 10
0
 20
0
 30
0
  9
$EXTMIN
 10
0
 20
0
 30
0
  9
$EXTMAX
 10
1000
 20
2400
 30
0
  9
$LIMMIN
 10
0
 20
0
  9
$LIMMAX
 10
420
 20
297
  9
$ORTHOMODE
 70
    0
  9
$REGENMODE
 70
    1
  9
$FILLMODE
 70
    1
  9
$QTEXTMODE
 70
    0
  9
$MIRRTEXT
 70
    0
  9
$LTSCALE
 40
1
  9
$ATTMODE
 70
    0
  9
$TEXTSIZE
 40
2.5
  9
$TRACEWID
 40
15.68
  9
$TEXTSTYLE
  7
STANDARD
  9
$CLAYER
  8
voronoi
  9
$CELTYPE
  6
BYLAYER
  9
$CECOLOR
 62
  256
  9
$CELTSCALE
 40
1
  9
$DISPSILH
 70
    0
  9
$DIMSCALE
 40
1
  9
$DIMASZ
 40
2.5
  9
$DIMEXO
 40
0.625
  9
$DIMDLI
 40
3.75
  9
$DIMRND
 40
0
  9
$DIMDLE
 40
0
  9
$DIMEXE
 40
1.25
  9
$DIMTP
 40
0
  9
$DIMTM
 40
0
  9
$DIMTXT
 40
2.5
  9
$DIMCEN
 40
2.5
  9
$DIMTSZ
 40
0
  9
$DIMTOL
 70
    0
  9
$DIMLIM
 70
    0
  9
$DIMTIH
 70
    0
  9
$DIMTOH
 70
    0
  9
$DIMSE1
 70
    0
  9
$DIMSE2
 70
    0
  9
$DIMTAD
 70
    1
  9
$DIMZIN
 70
    1
  9
$DIMBLK
  1

  9
$DIMASO
 70
    1
  9
$DIMSHO
 70
    1
  9
$DIMPOST
  1

  9
$DIMAPOST
  1

  9
$DIMALT
 70
    0
  9
$DIMALTD
 70
    3
  9
$DIMALTF
 40
0.03937
  9
$DIMLFAC
 40
1
  9
$DIMTOFL
 70
    1
  9
$DIMTVP
 40
0
  9
$DIMTIX
 70
    0
  9
$DIMSOXD
 70
    0
  9
$DIMSAH
 70
    0
  9
$DIMBLK1
  1

  9
$DIMBLK2
  1

  9
$DIMSTYLE
  2
Standard
  9
$DIMCLRD
 70
    0
  9
$DIMCLRE
 70
    0
  9
$DIMCLRT
 70
    0
  9
$DIMTFAC
 40
1
  9
$DIMGAP
 40
0.625
  9
$DIMJUST
 70
    0
  9
$DIMSD1
 70
    0
  9
$DIMSD2
 70
    0
  9
$DIMTOLJ
 70
    0
  9
$DIMTZIN
 70
    8
  9
$DIMALTZ
 70
    0
  9
$DIMALTTZ
 70
    0
  9
$DIMUPT
 70
    0
  9
$DIMDEC
 70
    4
  9
$DIMTDEC
 70
    2
  9
$DIMALTU
 70
    2
  9
$DIMALTTD
 70
    3
  9
$DIMTXSTY
  7
standard
  9
$DIMAUNIT
 70
    0
  9
$DIMADEC
 70
    2
  9
$DIMALTRND
 40
0
  9
$DIMAZIN
 70
    0
  9
$DIMDSEP
 70
    0
  9
$DIMATFIT
 70
    3
  9
$DIMFRAC
 70
    0
  9
$DIMLDRBLK
  1
STANDARD
  9
$DIMLUNIT
 70
    2
  9
$DIMLWD
 70
   -2
  9
$DIMLWE
 70
   -2
  9
$DIMTMOVE
 70
    0
  9
$DIMFXL
 40
1
  9
$DIMFXLON
 70
    0
  9
$DIMJOGANG
 40
0.7854
  9
$DIMTFILL
 70
    0
  9
$DIMTFILLCLR
 70
    0
  9
$DIMARCSYM
 70
    0
  9
$DIMLTYPE
  6

  9
$DIMLTEX1
  6

  9
$DIMLTEX2
  6

  9
$LUNITS
 70
    2
  9
$LUPREC
 70
    4
  9
$SKETCHINC
 40
1
  9
$FILLETRAD
 40
0
  9
$AUNITS
 70
    0
  9
$AUPREC
 70
    2
  9
$MENU
  1
.
  9
$ELEVATION
 40
0
  9
$PELEVATION
 40
0
  9
$THICKNESS
 40
0
  9
$LIMCHECK
 70
    0
  9
$CHAMFERA
 40
0
  9
$CHAMFERB
 40
0
  9
$CHAMFERC
 40
0
  9
$CHAMFERD
 40
0
  9
$SKPOLY
 70
    0
  9
$USRTIMER
 70
    1
  9
$ANGBASE
 50
0
  9
$ANGDIR
 70
    0
  9
$PDMODE
 70
   34
  9
$PDSIZE
 40
0
  9
$PLINEWID
 40
0
  9
$SPLFRAME
 70
    0
  9
$SPLINETYPE
 70
    2
  9
$SPLINESEGS
 70
    8
  9
$HANDSEED
  5
20000
  9
$SURFTAB1
 70
    6
  9
$SURFTAB2
 70
    6
  9
$SURFTYPE
 70
    6
  9
$SURFU
 70
    6
  9
$SURFV
 70
    6
  9
$UCSBASE
  2

  9
$UCSNAME
  2

  9
$UCSORG
 10
0
 20
0
 30
0
  9
$UCSXDIR
 10
1
 20
0
 30
0
  9
$UCSYDIR
 10
0
 20
1
 30
0
  9
$UCSORTHOREF
  2

  9
$UCSORTHOVIEW
 70
    0
  9
$UCSORGTOP
 10
0
 20
0
 30
0
  9
$UCSORGBOTTOM
 10
0
 20
0
 30
0
  9
$UCSORGLEFT
 10
0
 20
0
 30
0
  9
$UCSORGRIGHT
 10
0
 20
0
 30
0
  9
$UCSORGFRONT
 10
0
 20
0
 30
0
  9
$UCSORGBACK
 10
0
 20
0
 30
0
  9
$PUCSBASE
  2

  9
$PUCSNAME
  2

  9
$PUCSORG
 10
0
 20
0
 30
0
  9
$PUCSXDIR
 10
1
 20
0
 30
0
  9
$PUCSYDIR
 10
0
 20
1
 30
0
  9
$PUCSORTHOREF
  2

  9
$PUCSORTHOVIEW
 70
    0
  9
$PUCSORGTOP
 10
0
 20
0
 30
0
  9
$PUCSORGBOTTOM
 10
0
 20
0
 30
0
  9
$PUCSORGLEFT
 10
0
 20
0
 30
0
  9
$PUCSORGRIGHT
 10
0
 20
0
 30
0
  9
$PUCSORGFRONT
 10
0
 20
0
 30
0
  9
$PUCSORGBACK
 10
0
 20
0
 30
0
  9
$USERI1
 70
    0
  9
$USERI2
 70
    0
  9
$USERI3
 70
    0
  9
$USERI4
 70
    0
  9
$USERI5
 70
    0
  9
$USERR1
 40
0
  9
$USERR2
 40
0
  9
$USERR3
 40
0
  9
$USERR4
 40
0
  9
$USERR5
 40
0
  9
$WORLDVIEW
 70
    1
  9
$SHADEDGE
 70
    3
  9
$SHADEDIF
 70
   70
  9
$TILEMODE
 70
    1
  9
$MAXACTVP
 70
   64
  9
$PINSBASE
 10
0
 20
0
 30
0
  9
$PLIMCHECK
 70
    0
  9
$PEXTMIN
 10
0
 20
0
 30
0
  9
$PEXTMAX
 10
0
 20
0
 30
0
  9
$GRIDMODE
 70
    1
  9
$SNAPSTYLE
 70
    0
  9
$GRIDUNIT
 10
0
 20
0
  9
$PLIMMIN
 10
0
 20
0
  9
$PLIMMAX
 10
297
 20
210
  9
$UNITMODE
 70
    0
  9
$VISRETAIN
 70
    1
  9
$PLINEGEN
 70
    0
  9
$PSLTSCALE
 70
    1
  9
$TREEDEPTH
 70
 3020
  9
$CMLSTYLE
  2
Standard
  9
$CMLJUST
 70
    0
  9
$CMLSCALE
 40
20
  9
$PROXYGRAPHICS
 70
    1
  9
$MEASUREMENT
 70
    1
  9
$CELWEIGHT
370
   -1
  9
$ENDCAPS
280
    0
  9
$JOINSTYLE
280
    0
  9
$LWDISPLAY
290
    0
  9
$INSUNITS
 70
    4
  9
$HYPERLINKBASE
  1

  9
$STYLESHEET
  1

  9
$XEDIT
290
    1
  9
$CEPSNTYPE
380
    0
  9
$PSTYLEMODE
290
    1
  9
$EXTNAMES
290
    1
  9
$PSVPSCALE
 40
1
  9
$OLESTARTUP
290
    0
  9
$SORTENTS
280
  127
  9
$INDEXCTL
280
    0
  9
$HIDETEXT
280
    1
  9
$XCLIPFRAME
290
    0
  9
$HALOGAP
280
    0
  9
$OBSCOLOR
 70
  257
  9
$OBSLTYPE
280
    0
  9
$INTERSECTIONDISPLAY
280
    0
  9
$INTERSECTIONCOLOR
 70
  257
  9
$DIMASSOC
280
    1
  9
$PROJECTNAME
  1

  9
$CAMERADISPLAY
290
    0
  9
$LENSLENGTH
 40
50
  9
$CAMERAHEIGHT
 40
0
  9
$STEPSPERSEC
 40
2
  9
$STEPSIZE
 40
50
  9
$3DDWFPREC
 40
2
  9
$PSOLWIDTH
 40
5
  9
$PSOLHEIGHT
 40
80
  9
$LOFTANG1
 40
1.570796326794897
  9
$LOFTANG2
 40
1.570796326794897
  9
$LOFTMAG1
 40
0
  9
$LOFTMAG2
 40
0
  9
$LOFTPARAM
 70
    7
  9
$LOFTNORMALS
280
    1
  9
$LATITUDE
 40
1
  9
$LONGITUDE
 40
1
  9
$NORTHDIRECTION
 40
0
  9
$TIMEZONE
 70
-8000
  9
$LIGHTGLYPHDISPLAY
280
    1
  9
$TILEMODELIGHTSYNCH
280
    1
  9
$SOLIDHIST
280
    1
  9
$SHOWHIST
280
    1
  9
$DWFFRAME
280
    2
  9
$DGNFRAME
280
    0
  9
$REALWORLDSCALE
290
    1
  9
$INTERFERECOLOR
 62
    1
  9
$CSHADOW
280
    0
  9
$SHADOWPLANELOCATION
 40
0
  0
ENDSEC
  0
SECTION
  2
CLASSES
  0
ENDSEC
  0
SECTION
  2
TABLES
  0
TABLE
  2
VPORT
  5
8
330
0
100
AcDbSymbolTable
 70
    1
  0
VPORT
  5
31
330
2
100
AcDbSymbolTableRecord
100
AcDbViewportTableRecord
  2
*ACTIVE
 70
    0
 10
0
 20
0
 11
1
 21
1
 12
1091.584158415842
 22
1191.089108910891
 13
0
 23
0
 14
10
 24
10
 15
10
 25
10
 16
0
 26
0
 36
1
 17
0
 27
0
 37
0
 40
2411.881188118812
 41
1.394088669950739
 42
50
 43
0
 44
0
 50
0
 51
0
 71
    0
 72
  100
 73
    1
 74
    3
 75
    0
 76
    1
 77
    0
 78
    0
281
    0
 65
    1
110
0
120
0
130
0
111
1
121
0
131
0
112
0
122
1
132
0
 79
    0
146
0
348
10020
 60
    7
 61
    5
292
1
282
    1
141
0
142
0
 63
  250
421
3358443
  0
ENDTAB
  0
TABLE
  2
LTYPE
  5
5
330
0
100
AcDbSymbolTable
 70
    4
  0
LTYPE
  5
14
330
5
100
AcDbSymbolTableRecord
100
AcDbLinetypeTableRecord
  2
ByBlock
 70
    0
  3

 72
   65
 73
    0
 40
0
  0
LTYPE
  5
15
330
5
100
AcDbSymbolTableRecord
100
AcDbLinetypeTableRecord
  2
ByLayer
 70
    0
  3

 72
   65
 73
    0
 40
0
  0
LTYPE
  5
16
330
5
100
AcDbSymbolTableRecord
100
AcDbLinetypeTableRecord
  2
Continuous
 70
    0
  3
Solid line
 72
   65
 73
    0
 40
0
  0
LTYPE
  5
32
330
5
100
AcDbSymbolTableRecord
100
AcDbLinetypeTableRecord
  2
DOT
 70
    0
  3
Dot . . . . . . . . . . . . . . . . . . . . . .
 72
   65
 73
    2
 40
6.35
 49
0
 74
    0
 49
-6.35
 74
    0
  0
LTYPE
  5
33
330
5
100
AcDbSymbolTableRecord
100
AcDbLinetypeTableRecord
  2
DOTTINY
 70
    0
  3
Dot (.15x) .....................................
 72
   65
 73
    2
 40
0.9525
 49
0
 74
    0
 49
-0.9525
 74
    0
  0
LTYPE
  5
34
330
5
100
AcDbSymbolTableRecord
100
AcDbLinetypeTableRecord
  2
DOT2
 70
    0
  3
Dot (.5x) .....................................
 72
   65
 73
    2
 40
3.175
 49
0
 74
    0
 49
-3.175
 74
    0
  0
LTYPE
  5
35
330
5
100
AcDbSymbolTableRecord
100
AcDbLinetypeTableRecord
  2
DOTX2
 70
    0
  3
Dot (2x) .  .  .  .  .  .  .  .  .  .  .  .  .
 72
   65
 73
    2
 40
12.7
 49
0
 74
    0
 49
-12.7
 74
    0
  0
LTYPE
  5
36
330
5
100
AcDbSymbolTableRecord
100
AcDbLinetypeTableRecord
  2
DASHED
 70
    0
  3
Dashed _ _ _ _ _ _ _ _ _ _ _ _ _ _ _ _ _
 72
   65
 73
    2
 40
19.05
 49
12.7
 74
    0
 49
-6.35
 74
    0
  0
LTYPE
  5
37
330
5
100
AcDbSymbolTableRecord
100
AcDbLinetypeTableRecord
  2
DASHEDTINY
 70
    0
  3
Dashed (.15x) _ _ _ _ _ _ _ _ _ _ _ _ _ _ _ _ _
 72
   65
 73
    2
 40
2.8575
 49
1.905
 74
    0
 49
-0.9525
 74
    0
  0
LTYPE
  5
38
330
5
100
AcDbSymbolTableRecord
100
AcDbLinetypeTableRecord
  2
DASHED2
 70
    0
  3
Dashed (.5x) _ _ _ _ _ _ _ _ _ _ _ _ _ _ _ _ _
 72
   65
 73
    2
 40
9.524999999999999
 49
6.35
 74
    0
 49
-3.175
 74
    0
  0
LTYPE
  5
39
330
5
100
AcDbSymbolTableRecord
100
AcDbLinetypeTableRecord
  2
DASHEDX2
 70
    0
  3
Dashed (2x) ____  ____  ____  ____  ____  ___
 72
   65
 73
    2
 40
38.09999999999999
 49
25.4
 74
    0
 49
-12.7
 74
    0
  0
LTYPE
  5
3A
330
5
100
AcDbSymbolTableRecord
100
AcDbLinetypeTableRecord
  2
DASHDOT
 70
    0
  3
Dash dot __ . __ . __ . __ . __ . __ . __ . __
 72
   65
 73
    4
 40
25.4
 49
12.7
 74
    0
 49
-6.35
 74
    0
 49
0
 74
    0
 49
-6.35
 74
    0
  0
LTYPE
  5
3B
330
5
100
AcDbSymbolTableRecord
100
AcDbLinetypeTableRecord
  2
DASHDOTTINY
 70
    0
  3
Dash dot (.15x) _._._._._._._._._._._._._._._.
 72
   65
 73
    4
 40
3.81
 49
1.905
 74
    0
 49
-0.9525
 74
    0
 49
0
 74
    0
 49
-0.9525
 74
    0
  0
LTYPE
  5
3C
330
5
100
AcDbSymbolTableRecord
100
AcDbLinetypeTableRecord
  2
DASHDOT2
 70
    0
  3
Dash dot (.5x) _._._._._._._._._._._._._._._.
 72
   65
 73
    4
 40
12.7
 49
6.35
 74
    0
 49
-3.175
 74
    0
 49
0
 74
    0
 49
-3.175
 74
    0
  0
LTYPE
  5
3D
330
5
100
AcDbSymbolTableRecord
100
AcDbLinetypeTableRecord
  2
DASHDOTX2
 70
    0
  3
Dash dot (2x) ____  .  ____  .  ____  .  ___
 72
   65
 73
    4
 40
50.8
 49
25.4
 74
    0
 49
-12.7
 74
    0
 49
0
 74
    0
 49
-12.7
 74
    0
  0
LTYPE
  5
3E
330
5
100
AcDbSymbolTableRecord
100
AcDbLinetypeTableRecord
  2
DIVIDE
 70
    0
  3
Divide ____ . . ____ . . ____ . . ____ . . ____
 72
   65
 73
    6
 40
31.75
 49
12.7
 74
    0
 49
-6.35
 74
    0
 49
0
 74
    0
 49
-6.35
 74
    0
 49
0
 74
    0
 49
-6.35
 74
    0
  0
LTYPE
  5
3F
330
5
100
AcDbSymbolTableRecord
100
AcDbLinetypeTableRecord
  2
DIVIDETINY
 70
    0
  3
Divide (.15x) __..__..__..__..__..__..__..__.._
 72
   65
 73
    6
 40
4.7625
 49
1.905
 74
    0
 49
-0.9525
 74
    0
 49
0
 74
    0
 49
-0.9525
 74
    0
 49
0
 74
    0
 49
-0.9525
 74
    0
  0
LTYPE
  5
40
330
5
100
AcDbSymbolTableRecord
100
AcDbLinetypeTableRecord
  2
DIVIDE2
 70
    0
  3
Divide (.5x) __..__..__..__..__..__..__..__.._
 72
   65
 73
    6
 40
15.875
 49
6.35
 74
    0
 49
-3.175
 74
    0
 49
0
 74
    0
 49
-3.175
 74
    0
 49
0
 74
    0
 49
-3.175
 74
    0
  0
LTYPE
  5
41
330
5
100
AcDbSymbolTableRecord
100
AcDbLinetypeTableRecord
  2
DIVIDEX2
 70
    0
  3
Divide (2x) ________  .  .  ________  .  .  _
 72
   65
 73
    6
 40
63.5
 49
25.4
 74
    0
 49
-12.7
 74
    0
 49
0
 74
    0
 49
-12.7
 74
    0
 49
0
 74
    0
 49
-12.7
 74
    0
  0
LTYPE
  5
42
330
5
100
AcDbSymbolTableRecord
100
AcDbLinetypeTableRecord
  2
BORDER
 70
    0
  3
Border __ __ . __ __ . __ __ . __ __ . __ __ .
 72
   65
 73
    6
 40
44.45
 49
12.7
 74
    0
 49
-6.35
 74
    0
 49
12.7
 74
    0
 49
-6.35
 74
    0
 49
0
 74
    0
 49
-6.35
 74
    0
  0
LTYPE
  5
43
330
5
100
AcDbSymbolTableRecord
100
AcDbLinetypeTableRecord
  2
BORDERTINY
 70
    0
  3
Border (.15x) __.__.__.__.__.__.__.__.__.__.__.
 72
   65
 73
    6
 40
6.6675
 49
1.905
 74
    0
 49
-0.9525
 74
    0
 49
1.905
 74
    0
 49
-0.9525
 74
    0
 49
0
 74
    0
 49
-0.9525
 74
    0
  0
LTYPE
  5
44
330
5
100
AcDbSymbolTableRecord
100
AcDbLinetypeTableRecord
  2
BORDER2
 70
    0
  3
Border (.5x) __.__.__.__.__.__.__.__.__.__.__.
 72
   65
 73
    6
 40
22.225
 49
6.35
 74
    0
 49
-3.175
 74
    0
 49
6.35
 74
    0
 49
-3.175
 74
    0
 49
0
 74
    0
 49
-3.175
 74
    0
  0
LTYPE
  5
45
330
5
100
AcDbSymbolTableRecord
100
AcDbLinetypeTableRecord
  2
BORDERX2
 70
    0
  3
Border (2x) ____  ____  .  ____  ____  .  ___
 72
   65
 73
    6
 40
88.89999999999999
 49
25.4
 74
    0
 49
-12.7
 74
    0
 49
25.4
 74
    0
 49
-12.7
 74
    0
 49
0
 74
    0
 49
-12.7
 74
    0
  0
LTYPE
  5
46
330
5
100
AcDbSymbolTableRecord
100
AcDbLinetypeTableRecord
  2
CENTER
 70
    0
  3
Center ____ _ ____ _ ____ _ ____ _ ____ _ ____
 72
   65
 73
    4
 40
50.8
 49
31.75
 74
    0
 49
-6.35
 74
    0
 49
6.35
 74
    0
 49
-6.35
 74
    0
  0
LTYPE
  5
47
330
5
100
AcDbSymbolTableRecord
100
AcDbLinetypeTableRecord
  2
CENTERTINY
 70
    0
  3
Center (.15x) ___ _ ___ _ ___ _ ___ _ ___ _ ___
 72
   65
 73
    4
 40
7.619999999999999
 49
4.7625
 74
    0
 49
-0.9525
 74
    0
 49
0.9525
 74
    0
 49
-0.9525
 74
    0
  0
LTYPE
  5
48
330
5
100
AcDbSymbolTableRecord
100
AcDbLinetypeTableRecord
  2
CENTER2
 70
    0
  3
Center (.5x) ___ _ ___ _ ___ _ ___ _ ___ _ ___
 72
   65
 73
    4
 40
28.575
 49
19.05
 74
    0
 49
-3.175
 74
    0
 49
3.175
 74
    0
 49
-3.175
 74
    0
  0
LTYPE
  5
49
330
5
100
AcDbSymbolTableRecord
100
AcDbLinetypeTableRecord
  2
CENTERX2
 70
    0
  3
Center (2x) ________  __  ________  __  _____
 72
   65
 73
    4
 40
101.6
 49
63.5
 74
    0
 49
-12.7
 74
    0
 49
12.7
 74
    0
 49
-12.7
 74
    0
  0
ENDTAB
  0
TABLE
  2
LAYER
  5
2
330
0
100
AcDbSymbolTable
 70
    1
  0
LAYER
  5
10
330
2
100
AcDbSymbolTableRecord
100
AcDbLayerTableRecord
  2
0
 70
    0
 62
    7
  6
CONTINUOUS
370
   -3
390
F
  0
LAYER
  5
4A
330
2
100
AcDbSymbolTableRecord
100
AcDbLayerTableRecord
  2
frame
 70
    0
 62
    7
  6
CONTINUOUS
370
    0
390
F
  0
LAYER
  5
4B
330
2
100
AcDbSymbolTableRecord
100
AcDbLayerTableRecord
  2
voronoi
 70
    0
 62
    7
  6
CONTINUOUS
370
    0
390
F
  0
ENDTAB
  0
TABLE
  2
STYLE
  5
3
330
0
100
AcDbSymbolTable
 70
    3
  0
STYLE
  5
4C
330
2
100
AcDbSymbolTableRecord
100
AcDbTextStyleTableRecord
  2
Standard
 70
    0
 40
0
 41
1
 50
0
 71
    0
 42
1
  3
txt
  4

  0
ENDTAB
  0
TABLE
  2
VIEW
  5
6
330
0
100
AcDbSymbolTable
 70
    0
  0
ENDTAB
  0
TABLE
  2
UCS
  5
7
330
0
100
AcDbSymbolTable
 70
    0
  0
ENDTAB
  0
TABLE
  2
APPID
  5
9
330
0
100
AcDbSymbolTable
 70
    1
  0
APPID
  5
12
330
9
100
AcDbSymbolTableRecord
100
AcDbRegAppTableRecord
  2
ACAD
 70
    0
  0
APPID
  5
4D
330
9
100
AcDbSymbolTableRecord
100
AcDbRegAppTableRecord
  2
LibreCad
 70
    0
  0
ENDTAB
  0
TABLE
  2
DIMSTYLE
  5
A
330
0
100
AcDbSymbolTable
 70
    1
100
AcDbDimStyleTable
 71
    1
  0
DIMSTYLE
105
4E
330
A
100
AcDbSymbolTableRecord
100
AcDbDimStyleTableRecord
  2
Standard
 70
    0
 40
1
 41
2.5
 42
0.625
 43
0.38
 44
1.25
 45
0
 46
0
 47
0
 48
0
 49
1
140
2.5
141
0.09
142
0
143
25.4
144
1
145
0
146
1
147
0.625
148
0
 71
    0
 72
    0
 73
    0
 74
    1
 75
    0
 76
    0
 77
    0
 78
    1
 79
    0
170
    0
171
    2
172
    0
173
    0
174
    0
175
    0
176
    0
177
    0
178
    0
179
    2
271
    4
272
    4
273
    2
274
    2
275
    0
276
    0
277
    2
278
    0
279
    0
280
    0
281
    0
282
    0
283
    1
284
    0
285
    0
286
    0
288
    0
289
    3
340
standard
341

371
   -2
372
   -2
  0
ENDTAB
  0
TABLE
  2
BLOCK_RECORD
  5
1
330
0
100
AcDbSymbolTable
 70
    2
  0
BLOCK_RECORD
  5
1F
330
1
100
AcDbSymbolTableRecord
100
AcDbBlockTableRecord
  2
*Model_Space
 70
    0
280
    1
281
    0
  0
BLOCK_RECORD
  5
1E
330
1
100
AcDbSymbolTableRecord
100
AcDbBlockTableRecord
  2
*Paper_Space
 70
    0
280
    1
281
    0
  0
ENDTAB
  0
ENDSEC
  0
SECTION
  2
BLOCKS
  0
BLOCK
  5
20
330
1F
100
AcDbEntity
  8
0
100
AcDbBlockBegin
  2
*Model_Space
 70
    0
 10
0
 20
0
 30
0
  3
*Model_Space
  1

  0
ENDBLK
  5
21
330
1F
100
AcDbEntity
  8
0
100
AcDbBlockEnd
  0
BLOCK
  5
1C
330
1B
100
AcDbEntity
  8
0
100
AcDbBlockBegin
  2
*Paper_Space
 70
    0
 10
0
 20
0
 30
0
  3
*Paper_Space
  1

  0
ENDBLK
  5
1D
330
1F
100
AcDbEntity
  8
0
100
AcDbBlockEnd
  0
ENDSEC
  0
SECTION
  2
ENTITIES
  0
LINE
  5
4F
100
AcDbEntity
  8
frame
  6
ByLayer
 62
  256
370
   -1
100
AcDbLine
 10
0
 20
0
 11
1000
 21
0
  0
LINE
  5
50
100
AcDbEntity
  8
frame
  6
ByLayer
 62
  256
370
   -1
100
AcDbLine
 10
1000
 20
0
 11
1000
 21
2400
  0
LINE
  5
51
100
AcDbEntity
  8
frame
  6
ByLayer
 62
  256
370
   -1
100
AcDbLine
 10
1000
 20
2400
 11
0
 21
2400
  0
LINE
  5
52
100
AcDbEntity
  8
frame
  6
ByLayer
 62
  256
370
   -1
100
AcDbLine
 10
0
 20
2400
 11
0
 21
0
  0
LINE
  5
53
100
AcDbEntity
  8
frame
  6
ByLayer
 62
  256
370
   -1
100
AcDbLine
 10
100
 20
2300
 11
100
 21
100
  0
LINE
  5
54
100
AcDbEntity
  8
frame
  6
ByLayer
 62
  256
370
   -1
100
AcDbLine
 10
100
 20
100
 11
900
 21
100
  0
LINE
  5
55
100
AcDbEntity
  8
frame
  6
ByLayer
 62
  256
370
   -1
100
AcDbLine
 10
900
 20
100
 11
900
 21
2300
  0
LINE
  5
56
100
AcDbEntity
  8
frame
  6
ByLayer
 62
  256
370
   -1
100
AcDbLine
 10
900
 20
2300
 11
100
 21
2300
  0
LWPOLYLINE
  5
57
100
AcDbEntity
  8
frame
  6
ByLayer
 62
  256
370
   -1
100
AcDbPolyline
 90
    1
 70
    1
 43
0
 10
596.0799634
 20
2245.5106538
  0
SPLINE
  5
58
100
AcDbEntity
  8
voronoi
  6
ByLayer
 62
    7
370
   -1
100
AcDbSpline
210
0
220
0
230
0
 70
    8
 71
    3
 72
    8
 73
    4
 74
    0
 42
1e-07
 43
1e-07
 40
0
 40
0
 40
0
 40
0
 40
1
 40
1
 40
1
 40
1
 10
203.8054090042901
 20
2161.348638562924
 30
0
 10
267.5643570042901
 20
2116.453865562924
 30
0
 10
267.5643570042901
 20
2116.453865562924
 30
0
 10
298.85754500429
 20
2118.961183562924
 30
0
  0
SPLINE
  5
59
100
AcDbEntity
  8
voronoi
  6
ByLayer
 62
    7
370
   -1
100
AcDbSpline
210
0
220
0
230
0
 70
    8
 71
    3
 72
    8
 73
    4
 74
    0
 42
1e-07
 43
1e-07
 40
0
 40
0
 40
0
 40
0
 40
1
 40
1
 40
1
 40
1
 10
298.85754500429
 20
2118.961183562924
 30
0
 10
330.15073400429
 20
2121.468511562924
 30
0
 10
330.15073400429
 20
2121.468511562924
 30
0
 10
383.8237260042901
 20
2186.483518562924
 30
0
  0
SPLINE
  5
5A
100
AcDbEntity
  8
voronoi
  6
ByLayer
 62
    7
370
   -1
100
AcDbSpline
210
0
220
0
230
0
 70
    8
 71
    3
 72
    8
 73
    4
 74
    0
 42
1e-07
 43
1e-07
 40
0
 40
0
 40
0
 40
0
 40
1
 40
1
 40
1
 40
1
 10
383.8237260042901
 20
2186.483518562924
 30
0
 10
437.4967170042901
 20
2251.498527562924
 30
0
 10
437.4967170042901
 20
2251.498527562924
 30
0
 10
288.77158700429
 20
2251.498527562924
 30
0
  0
SPLINE
  5
5B
100
AcDbEntity
  8
voronoi
  6
ByLayer
 62
    7
370
   -1
100
AcDbSpline
210
0
220
0
230
0
 70
    8
 71
    3
 72
    8
 73
    4
 74
    0
 42
1e-07
 43
1e-07
 40
0
 40
0
 40
0
 40
0
 40
1
 40
1
 40
1
 40
1
 10
288.77158700429
 20
2251.498527562924
 30
0
 10
140.0464570042901
 20
2251.498527562924
 30
0
 10
140.0464570042901
 20
2251.498527562924
 30
0
 10
140.0464570042901
 20
2228.870969562924
 30
0
  0
SPLINE
  5
5C
100
AcDbEntity
  8
voronoi
  6
ByLayer
 62
    7
370
   -1
100
AcDbSpline
210
0
220
0
230
0
 70
    8
 71
    3
 72
    8
 73
    4
 74
    0
 42
1e-07
 43
1e-07
 40
0
 40
0
 40
0
 40
0
 40
1
 40
1
 40
1
 40
1
 10
140.0464570042901
 20
2228.870969562924
 30
0
 10
140.0464570042901
 20
2206.243411562924
 30
0
 10
140.0464570042901
 20
2206.243411562924
 30
0
 10
203.8054090042901
 20
2161.348638562924
 30
0
  0
LINE
  5
5D
100
AcDbEntity
  8
voronoi
  6
ByLayer
 62
    7
370
   -1
100
AcDbLine
 10
203.8054090042901
 20
2161.348638562924
 11
203.8054090042901
 21
2161.348638562924
  0
SPLINE
  5
5E
100
AcDbEntity
  8
voronoi
  6
ByLayer
 62
    7
370
   -1
100
AcDbSpline
210
0
220
0
230
0
 70
    8
 71
    3
 72
    8
 73
    4
 74
    0
 42
1e-07
 43
1e-07
 40
0
 40
0
 40
0
 40
0
 40
1
 40
1
 40
1
 40
1
 10
596.33639400429
 20
2233.616361562924
 30
0
 10
604.78714400429
 20
2215.734196562924
 30
0
 10
604.78714400429
 20
2215.734196562924
 30
0
 10
668.7040160042901
 20
2181.282174562924
 30
0
  0
SPLINE
  5
5F
100
AcDbEntity
  8
voronoi
  6
ByLayer
 62
    7
370
   -1
100
AcDbSpline
210
0
220
0
230
0
 70
    8
 71
    3
 72
    8
 73
    4
 74
    0
 42
1e-07
 43
1e-07
 40
0
 40
0
 40
0
 40
0
 40
1
 40
1
 40
1
 40
1
 10
668.7040160042901
 20
2181.282174562924
 30
0
 10
732.6208880042901
 20
2146.830150562924
 30
0
 10
732.6208880042901
 20
2146.830150562924
 30
0
 10
796.75966700429
 20
2166.277118562924
 30
0
  0
SPLINE
  5
60
100
AcDbEntity
  8
voronoi
  6
ByLayer
 62
    7
370
   -1
100
AcDbSpline
210
0
220
0
230
0
 70
    8
 71
    3
 72
    8
 73
    4
 74
    0
 42
1e-07
 43
1e-07
 40
0
 40
0
 40
0
 40
0
 40
1
 40
1
 40
1
 40
1
 10
796.75966700429
 20
2166.277118562924
 30
0
 10
860.89845700429
 20
2185.724086562924
 30
0
 10
860.89845700429
 20
2185.724086562924
 30
0
 10
860.89845700429
 20
2218.611306562924
 30
0
  0
SPLINE
  5
61
100
AcDbEntity
  8
voronoi
  6
ByLayer
 62
    7
370
   -1
100
AcDbSpline
210
0
220
0
230
0
 70
    8
 71
    3
 72
    8
 73
    4
 74
    0
 42
1e-07
 43
1e-07
 40
0
 40
0
 40
0
 40
0
 40
1
 40
1
 40
1
 40
1
 10
860.89845700429
 20
2218.611306562924
 30
0
 10
860.89845700429
 20
2251.498527562924
 30
0
 10
860.89845700429
 20
2251.498527562924
 30
0
 10
724.39204500429
 20
2251.498527562924
 30
0
  0
SPLINE
  5
62
100
AcDbEntity
  8
voronoi
  6
ByLayer
 62
    7
370
   -1
100
AcDbSpline
210
0
220
0
230
0
 70
    8
 71
    3
 72
    8
 73
    4
 74
    0
 42
1e-07
 43
1e-07
 40
0
 40
0
 40
0
 40
0
 40
1
 40
1
 40
1
 40
1
 10
724.39204500429
 20
2251.498527562924
 30
0
 10
587.88564300429
 20
2251.498527562924
 30
0
 10
587.88564300429
 20
2251.498527562924
 30
0
 10
596.33639400429
 20
2233.616361562924
 30
0
  0
LINE
  5
63
100
AcDbEntity
  8
voronoi
  6
ByLayer
 62
    7
370
   -1
100
AcDbLine
 10
596.33639400429
 20
2233.616361562924
 11
596.33639400429
 21
2233.616361562924
  0
SPLINE
  5
64
100
AcDbEntity
  8
voronoi
  6
ByLayer
 62
    7
370
   -1
100
AcDbSpline
210
0
220
0
230
0
 70
    8
 71
    3
 72
    8
 73
    4
 74
    0
 42
1e-07
 43
1e-07
 40
0
 40
0
 40
0
 40
0
 40
1
 40
1
 40
1
 40
1
 10
398.1634580042901
 20
2041.292470562924
 30
0
 10
451.69429600429
 20
1969.093773562924
 30
0
 10
451.69429600429
 20
1969.093773562924
 30
0
 10
506.74024500429
 20
2003.032341562924
 30
0
  0
SPLINE
  5
65
100
AcDbEntity
  8
voronoi
  6
ByLayer
 62
    7
370
   -1
100
AcDbSpline
210
0
220
0
230
0
 70
    8
 71
    3
 72
    8
 73
    4
 74
    0
 42
1e-07
 43
1e-07
 40
0
 40
0
 40
0
 40
0
 40
1
 40
1
 40
1
 40
1
 10
506.74024500429
 20
2003.032341562924
 30
0
 10
561.78619300429
 20
2036.970919562924
 30
0
 10
561.78619300429
 20
2036.970919562924
 30
0
 10
575.8918530042901
 20
2122.900368562924
 30
0
  0
SPLINE
  5
66
100
AcDbEntity
  8
voronoi
  6
ByLayer
 62
    7
370
   -1
100
AcDbSpline
210
0
220
0
230
0
 70
    8
 71
    3
 72
    8
 73
    4
 74
    0
 42
1e-07
 43
1e-07
 40
0
 40
0
 40
0
 40
0
 40
1
 40
1
 40
1
 40
1
 10
575.8918530042901
 20
2122.900368562924
 30
0
 10
589.99751400429
 20
2208.829811562924
 30
0
 10
589.99751400429
 20
2208.829811562924
 30
0
 10
579.91532400429
 20
2230.164169562924
 30
0
  0
SPLINE
  5
67
100
AcDbEntity
  8
voronoi
  6
ByLayer
 62
    7
370
   -1
100
AcDbSpline
210
0
220
0
230
0
 70
    8
 71
    3
 72
    8
 73
    4
 74
    0
 42
1e-07
 43
1e-07
 40
0
 40
0
 40
0
 40
0
 40
1
 40
1
 40
1
 40
1
 10
579.91532400429
 20
2230.164169562924
 30
0
 10
569.8331330042901
 20
2251.498527562924
 30
0
 10
569.8331330042901
 20
2251.498527562924
 30
0
 10
514.19870800429
 20
2251.498527562924
 30
0
  0
SPLINE
  5
68
100
AcDbEntity
  8
voronoi
  6
ByLayer
 62
    7
370
   -1
100
AcDbSpline
210
0
220
0
230
0
 70
    8
 71
    3
 72
    8
 73
    4
 74
    0
 42
1e-07
 43
1e-07
 40
0
 40
0
 40
0
 40
0
 40
1
 40
1
 40
1
 40
1
 10
514.19870800429
 20
2251.498527562924
 30
0
 10
458.56428200429
 20
2251.498527562924
 30
0
 10
458.56428200429
 20
2251.498527562924
 30
0
 10
401.59845100429
 20
2182.494848562924
 30
0
  0
SPLINE
  5
69
100
AcDbEntity
  8
voronoi
  6
ByLayer
 62
    7
370
   -1
100
AcDbSpline
210
0
220
0
230
0
 70
    8
 71
    3
 72
    8
 73
    4
 74
    0
 42
1e-07
 43
1e-07
 40
0
 40
0
 40
0
 40
0
 40
1
 40
1
 40
1
 40
1
 10
401.59845100429
 20
2182.494848562924
 30
0
 10
344.6326200042901
 20
2113.491168562924
 30
0
 10
344.6326200042901
 20
2113.491168562924
 30
0
 10
398.1634580042901
 20
2041.292470562924
 30
0
  0
LINE
  5
6A
100
AcDbEntity
  8
voronoi
  6
ByLayer
 62
    7
370
   -1
100
AcDbLine
 10
398.1634580042901
 20
2041.292470562924
 11
398.1634580042901
 21
2041.292470562924
  0
SPLINE
  5
6B
100
AcDbEntity
  8
voronoi
  6
ByLayer
 62
    7
370
   -1
100
AcDbSpline
210
0
220
0
230
0
 70
    8
 71
    3
 72
    8
 73
    4
 74
    0
 42
1e-07
 43
1e-07
 40
0
 40
0
 40
0
 40
0
 40
1
 40
1
 40
1
 40
1
 10
753.51580700429
 20
2057.879884562924
 30
0
 10
766.0697520042901
 20
1983.196300562924
 30
0
 10
766.0697520042901
 20
1983.196300562924
 30
0
 10
813.48409900429
 20
1966.742215562924
 30
0
  0
SPLINE
  5
6C
100
AcDbEntity
  8
voronoi
  6
ByLayer
 62
    7
370
   -1
100
AcDbSpline
210
0
220
0
230
0
 70
    8
 71
    3
 72
    8
 73
    4
 74
    0
 42
1e-07
 43
1e-07
 40
0
 40
0
 40
0
 40
0
 40
1
 40
1
 40
1
 40
1
 10
813.48409900429
 20
1966.742215562924
 30
0
 10
860.89845700429
 20
1950.288129562924
 30
0
 10
860.89845700429
 20
1950.288129562924
 30
0
 10
860.89845700429
 20
2059.608260562924
 30
0
  0
SPLINE
  5
6D
100
AcDbEntity
  8
voronoi
  6
ByLayer
 62
    7
370
   -1
100
AcDbSpline
210
0
220
0
230
0
 70
    8
 71
    3
 72
    8
 73
    4
 74
    0
 42
1e-07
 43
1e-07
 40
0
 40
0
 40
0
 40
0
 40
1
 40
1
 40
1
 40
1
 10
860.89845700429
 20
2059.608260562924
 30
0
 10
860.89845700429
 20
2168.928396562924
 30
0
 10
860.89845700429
 20
2168.928396562924
 30
0
 10
800.9301650042901
 20
2150.745930562924
 30
0
  0
SPLINE
  5
6E
100
AcDbEntity
  8
voronoi
  6
ByLayer
 62
    7
370
   -1
100
AcDbSpline
210
0
220
0
230
0
 70
    8
 71
    3
 72
    8
 73
    4
 74
    0
 42
1e-07
 43
1e-07
 40
0
 40
0
 40
0
 40
0
 40
1
 40
1
 40
1
 40
1
 10
800.9301650042901
 20
2150.745930562924
 30
0
 10
740.9618730042901
 20
2132.563458562924
 30
0
 10
740.9618730042901
 20
2132.563458562924
 30
0
 10
753.51580700429
 20
2057.879884562924
 30
0
  0
LINE
  5
6F
100
AcDbEntity
  8
voronoi
  6
ByLayer
 62
    7
370
   -1
100
AcDbLine
 10
753.51580700429
 20
2057.879884562924
 11
753.51580700429
 21
2057.879884562924
  0
SPLINE
  5
70
100
AcDbEntity
  8
voronoi
  6
ByLayer
 62
    7
370
   -1
100
AcDbSpline
210
0
220
0
230
0
 70
    8
 71
    3
 72
    8
 73
    4
 74
    0
 42
1e-07
 43
1e-07
 40
0
 40
0
 40
0
 40
0
 40
1
 40
1
 40
1
 40
1
 10
634.4466410042901
 20
2002.177469562924
 30
0
 10
690.6516660042901
 20
1968.224290562924
 30
0
 10
690.6516660042901
 20
1968.224290562924
 30
0
 10
720.06319600429
 20
1975.685035562924
 30
0
  0
SPLINE
  5
71
100
AcDbEntity
  8
voronoi
  6
ByLayer
 62
    7
370
   -1
100
AcDbSpline
210
0
220
0
230
0
 70
    8
 71
    3
 72
    8
 73
    4
 74
    0
 42
1e-07
 43
1e-07
 40
0
 40
0
 40
0
 40
0
 40
1
 40
1
 40
1
 40
1
 10
720.06319600429
 20
1975.685035562924
 30
0
 10
749.47473500429
 20
1983.145791562924
 30
0
 10
749.47473500429
 20
1983.145791562924
 30
0
 10
736.87899300429
 20
2058.078042562924
 30
0
  0
SPLINE
  5
72
100
AcDbEntity
  8
voronoi
  6
ByLayer
 62
    7
370
   -1
100
AcDbSpline
210
0
220
0
230
0
 70
    8
 71
    3
 72
    8
 73
    4
 74
    0
 42
1e-07
 43
1e-07
 40
0
 40
0
 40
0
 40
0
 40
1
 40
1
 40
1
 40
1
 10
736.87899300429
 20
2058.078042562924
 30
0
 10
724.28325200429
 20
2133.010283562924
 30
0
 10
724.28325200429
 20
2133.010283562924
 30
0
 10
664.5034050042901
 20
2165.232398562924
 30
0
  0
SPLINE
  5
73
100
AcDbEntity
  8
voronoi
  6
ByLayer
 62
    7
370
   -1
100
AcDbSpline
210
0
220
0
230
0
 70
    8
 71
    3
 72
    8
 73
    4
 74
    0
 42
1e-07
 43
1e-07
 40
0
 40
0
 40
0
 40
0
 40
1
 40
1
 40
1
 40
1
 10
664.5034050042901
 20
2165.232398562924
 30
0
 10
604.72355800429
 20
2197.454510562924
 30
0
 10
604.72355800429
 20
2197.454510562924
 30
0
 10
591.48259200429
 20
2116.792581562924
 30
0
  0
SPLINE
  5
74
100
AcDbEntity
  8
voronoi
  6
ByLayer
 62
    7
370
   -1
100
AcDbSpline
210
0
220
0
230
0
 70
    8
 71
    3
 72
    8
 73
    4
 74
    0
 42
1e-07
 43
1e-07
 40
0
 40
0
 40
0
 40
0
 40
1
 40
1
 40
1
 40
1
 10
591.48259200429
 20
2116.792581562924
 30
0
 10
578.2416160042901
 20
2036.130657562924
 30
0
 10
578.2416160042901
 20
2036.130657562924
 30
0
 10
634.4466410042901
 20
2002.177469562924
 30
0
  0
LINE
  5
75
100
AcDbEntity
  8
voronoi
  6
ByLayer
 62
    7
370
   -1
100
AcDbLine
 10
634.4466410042901
 20
2002.177469562924
 11
634.4466410042901
 21
2002.177469562924
  0
SPLINE
  5
76
100
AcDbEntity
  8
voronoi
  6
ByLayer
 62
    7
370
   -1
100
AcDbSpline
210
0
220
0
230
0
 70
    8
 71
    3
 72
    8
 73
    4
 74
    0
 42
1e-07
 43
1e-07
 40
0
 40
0
 40
0
 40
0
 40
1
 40
1
 40
1
 40
1
 10
174.73744300429
 20
1990.499892562924
 30
0
 10
209.4284290042901
 20
2000.768746562924
 30
0
 10
209.4284290042901
 20
2000.768746562924
 30
0
 10
232.27237200429
 20
2053.113364562924
 30
0
  0
SPLINE
  5
77
100
AcDbEntity
  8
voronoi
  6
ByLayer
 62
    7
370
   -1
100
AcDbSpline
210
0
220
0
230
0
 70
    8
 71
    3
 72
    8
 73
    4
 74
    0
 42
1e-07
 43
1e-07
 40
0
 40
0
 40
0
 40
0
 40
1
 40
1
 40
1
 40
1
 10
232.27237200429
 20
2053.113364562924
 30
0
 10
255.11631800429
 20
2105.457981562924
 30
0
 10
255.11631800429
 20
2105.457981562924
 30
0
 10
197.58138600429
 20
2145.970214562924
 30
0
  0
SPLINE
  5
78
100
AcDbEntity
  8
voronoi
  6
ByLayer
 62
    7
370
   -1
100
AcDbSpline
210
0
220
0
230
0
 70
    8
 71
    3
 72
    8
 73
    4
 74
    0
 42
1e-07
 43
1e-07
 40
0
 40
0
 40
0
 40
0
 40
1
 40
1
 40
1
 40
1
 10
197.58138600429
 20
2145.970214562924
 30
0
 10
140.0464570042901
 20
2186.482451562924
 30
0
 10
140.0464570042901
 20
2186.482451562924
 30
0
 10
140.0464570042901
 20
2083.356741562924
 30
0
  0
SPLINE
  5
79
100
AcDbEntity
  8
voronoi
  6
ByLayer
 62
    7
370
   -1
100
AcDbSpline
210
0
220
0
230
0
 70
    8
 71
    3
 72
    8
 73
    4
 74
    0
 42
1e-07
 43
1e-07
 40
0
 40
0
 40
0
 40
0
 40
1
 40
1
 40
1
 40
1
 10
140.0464570042901
 20
2083.356741562924
 30
0
 10
140.0464570042901
 20
1980.231037562924
 30
0
 10
140.0464570042901
 20
1980.231037562924
 30
0
 10
174.73744300429
 20
1990.499892562924
 30
0
  0
LINE
  5
7A
100
AcDbEntity
  8
voronoi
  6
ByLayer
 62
    7
370
   -1
100
AcDbLine
 10
174.73744300429
 20
1990.499892562924
 11
174.73744300429
 21
1990.499892562924
  0
SPLINE
  5
7B
100
AcDbEntity
  8
voronoi
  6
ByLayer
 62
    7
370
   -1
100
AcDbSpline
210
0
220
0
230
0
 70
    8
 71
    3
 72
    8
 73
    4
 74
    0
 42
1e-07
 43
1e-07
 40
0
 40
0
 40
0
 40
0
 40
1
 40
1
 40
1
 40
1
 10
250.30967900429
 20
1944.777533562924
 30
0
 10
276.12389100429
 20
1895.086638562924
 30
0
 10
276.12389100429
 20
1895.086638562924
 30
0
 10
292.9453820042901
 20
1890.740158562924
 30
0
  0
SPLINE
  5
7C
100
AcDbEntity
  8
voronoi
  6
ByLayer
 62
    7
370
   -1
100
AcDbSpline
210
0
220
0
230
0
 70
    8
 71
    3
 72
    8
 73
    4
 74
    0
 42
1e-07
 43
1e-07
 40
0
 40
0
 40
0
 40
0
 40
1
 40
1
 40
1
 40
1
 10
292.9453820042901
 20
1890.740158562924
 30
0
 10
309.76686200429
 20
1886.393678562924
 30
0
 10
309.76686200429
 20
1886.393678562924
 30
0
 10
373.80230600429
 20
1923.434658562924
 30
0
  0
SPLINE
  5
7D
100
AcDbEntity
  8
voronoi
  6
ByLayer
 62
    7
370
   -1
100
AcDbSpline
210
0
220
0
230
0
 70
    8
 71
    3
 72
    8
 73
    4
 74
    0
 42
1e-07
 43
1e-07
 40
0
 40
0
 40
0
 40
0
 40
1
 40
1
 40
1
 40
1
 10
373.80230600429
 20
1923.434658562924
 30
0
 10
437.83776000429
 20
1960.475639562924
 30
0
 10
437.83776000429
 20
1960.475639562924
 30
0
 10
384.1152820042901
 20
2032.932801562924
 30
0
  0
SPLINE
  5
7E
100
AcDbEntity
  8
voronoi
  6
ByLayer
 62
    7
370
   -1
100
AcDbSpline
210
0
220
0
230
0
 70
    8
 71
    3
 72
    8
 73
    4
 74
    0
 42
1e-07
 43
1e-07
 40
0
 40
0
 40
0
 40
0
 40
1
 40
1
 40
1
 40
1
 10
384.1152820042901
 20
2032.932801562924
 30
0
 10
330.39281400429
 20
2105.389963562924
 30
0
 10
330.39281400429
 20
2105.389963562924
 30
0
 10
300.60647200429
 20
2103.003379562924
 30
0
  0
SPLINE
  5
7F
100
AcDbEntity
  8
voronoi
  6
ByLayer
 62
    7
370
   -1
100
AcDbSpline
210
0
220
0
230
0
 70
    8
 71
    3
 72
    8
 73
    4
 74
    0
 42
1e-07
 43
1e-07
 40
0
 40
0
 40
0
 40
0
 40
1
 40
1
 40
1
 40
1
 10
300.60647200429
 20
2103.003379562924
 30
0
 10
270.8201200042901
 20
2100.616784562924
 30
0
 10
270.8201200042901
 20
2100.616784562924
 30
0
 10
247.6577930042901
 20
2047.542611562924
 30
0
  0
SPLINE
  5
80
100
AcDbEntity
  8
voronoi
  6
ByLayer
 62
    7
370
   -1
100
AcDbSpline
210
0
220
0
230
0
 70
    8
 71
    3
 72
    8
 73
    4
 74
    0
 42
1e-07
 43
1e-07
 40
0
 40
0
 40
0
 40
0
 40
1
 40
1
 40
1
 40
1
 10
247.6577930042901
 20
2047.542611562924
 30
0
 10
224.49545900429
 20
1994.468427562924
 30
0
 10
224.49545900429
 20
1994.468427562924
 30
0
 10
250.30967900429
 20
1944.777533562924
 30
0
  0
LINE
  5
81
100
AcDbEntity
  8
voronoi
  6
ByLayer
 62
    7
370
   -1
100
AcDbLine
 10
250.30967900429
 20
1944.777533562924
 11
250.30967900429
 21
1944.777533562924
  0
SPLINE
  5
82
100
AcDbEntity
  8
voronoi
  6
ByLayer
 62
    7
370
   -1
100
AcDbSpline
210
0
220
0
230
0
 70
    8
 71
    3
 72
    8
 73
    4
 74
    0
 42
1e-07
 43
1e-07
 40
0
 40
0
 40
0
 40
0
 40
1
 40
1
 40
1
 40
1
 10
491.4057670042901
 20
1894.867873562924
 30
0
 10
522.76433400429
 20
1834.451151562924
 30
0
 10
522.76433400429
 20
1834.451151562924
 30
0
 10
538.6605750042901
 20
1828.303163562924
 30
0
  0
SPLINE
  5
83
100
AcDbEntity
  8
voronoi
  6
ByLayer
 62
    7
370
   -1
100
AcDbSpline
210
0
220
0
230
0
 70
    8
 71
    3
 72
    8
 73
    4
 74
    0
 42
1e-07
 43
1e-07
 40
0
 40
0
 40
0
 40
0
 40
1
 40
1
 40
1
 40
1
 10
538.6605750042901
 20
1828.303163562924
 30
0
 10
554.5568260042901
 20
1822.155165562924
 30
0
 10
554.5568260042901
 20
1822.155165562924
 30
0
 10
588.8339730042901
 20
1830.021913562924
 30
0
  0
SPLINE
  5
84
100
AcDbEntity
  8
voronoi
  6
ByLayer
 62
    7
370
   -1
100
AcDbSpline
210
0
220
0
230
0
 70
    8
 71
    3
 72
    8
 73
    4
 74
    0
 42
1e-07
 43
1e-07
 40
0
 40
0
 40
0
 40
0
 40
1
 40
1
 40
1
 40
1
 10
588.8339730042901
 20
1830.021913562924
 30
0
 10
623.1111200042901
 20
1837.888650562924
 30
0
 10
623.1111200042901
 20
1837.888650562924
 30
0
 10
650.9808970042901
 20
1897.195315562924
 30
0
  0
SPLINE
  5
85
100
AcDbEntity
  8
voronoi
  6
ByLayer
 62
    7
370
   -1
100
AcDbSpline
210
0
220
0
230
0
 70
    8
 71
    3
 72
    8
 73
    4
 74
    0
 42
1e-07
 43
1e-07
 40
0
 40
0
 40
0
 40
0
 40
1
 40
1
 40
1
 40
1
 10
650.9808970042901
 20
1897.195315562924
 30
0
 10
678.85066300429
 20
1956.501979562924
 30
0
 10
678.85066300429
 20
1956.501979562924
 30
0
 10
624.0903320042901
 20
1989.582436562924
 30
0
  0
SPLINE
  5
86
100
AcDbEntity
  8
voronoi
  6
ByLayer
 62
    7
370
   -1
100
AcDbSpline
210
0
220
0
230
0
 70
    8
 71
    3
 72
    8
 73
    4
 74
    0
 42
1e-07
 43
1e-07
 40
0
 40
0
 40
0
 40
0
 40
1
 40
1
 40
1
 40
1
 10
624.0903320042901
 20
1989.582436562924
 30
0
 10
569.32999100429
 20
2022.662894562924
 30
0
 10
569.32999100429
 20
2022.662894562924
 30
0
 10
514.68860000429
 20
1988.973745562924
 30
0
  0
SPLINE
  5
87
100
AcDbEntity
  8
voronoi
  6
ByLayer
 62
    7
370
   -1
100
AcDbSpline
210
0
220
0
230
0
 70
    8
 71
    3
 72
    8
 73
    4
 74
    0
 42
1e-07
 43
1e-07
 40
0
 40
0
 40
0
 40
0
 40
1
 40
1
 40
1
 40
1
 10
514.68860000429
 20
1988.973745562924
 30
0
 10
460.04721000429
 20
1955.284595562924
 30
0
 10
460.04721000429
 20
1955.284595562924
 30
0
 10
491.4057670042901
 20
1894.867873562924
 30
0
  0
LINE
  5
88
100
AcDbEntity
  8
voronoi
  6
ByLayer
 62
    7
370
   -1
100
AcDbLine
 10
491.4057670042901
 20
1894.867873562924
 11
491.4057670042901
 21
1894.867873562924
  0
SPLINE
  5
89
100
AcDbEntity
  8
voronoi
  6
ByLayer
 62
    7
370
   -1
100
AcDbSpline
210
0
220
0
230
0
 70
    8
 71
    3
 72
    8
 73
    4
 74
    0
 42
1e-07
 43
1e-07
 40
0
 40
0
 40
0
 40
0
 40
1
 40
1
 40
1
 40
1
 10
200.01880400429
 20
1848.753371562924
 30
0
 10
259.99115100429
 20
1890.758178562924
 30
0
 10
259.99115100429
 20
1890.758178562924
 30
0
 10
235.6285450042901
 20
1937.654811562924
 30
0
  0
SPLINE
  5
8A
100
AcDbEntity
  8
voronoi
  6
ByLayer
 62
    7
370
   -1
100
AcDbSpline
210
0
220
0
230
0
 70
    8
 71
    3
 72
    8
 73
    4
 74
    0
 42
1e-07
 43
1e-07
 40
0
 40
0
 40
0
 40
0
 40
1
 40
1
 40
1
 40
1
 10
235.6285450042901
 20
1937.654811562924
 30
0
 10
211.26593500429
 20
1984.551445562924
 30
0
 10
211.26593500429
 20
1984.551445562924
 30
0
 10
175.65619700429
 20
1974.010629562924
 30
0
  0
SPLINE
  5
8B
100
AcDbEntity
  8
voronoi
  6
ByLayer
 62
    7
370
   -1
100
AcDbSpline
210
0
220
0
230
0
 70
    8
 71
    3
 72
    8
 73
    4
 74
    0
 42
1e-07
 43
1e-07
 40
0
 40
0
 40
0
 40
0
 40
1
 40
1
 40
1
 40
1
 10
175.65619700429
 20
1974.010629562924
 30
0
 10
140.0464570042901
 20
1963.469823562924
 30
0
 10
140.0464570042901
 20
1963.469823562924
 30
0
 10
140.0464570042901
 20
1885.109188562924
 30
0
  0
SPLINE
  5
8C
100
AcDbEntity
  8
voronoi
  6
ByLayer
 62
    7
370
   -1
100
AcDbSpline
210
0
220
0
230
0
 70
    8
 71
    3
 72
    8
 73
    4
 74
    0
 42
1e-07
 43
1e-07
 40
0
 40
0
 40
0
 40
0
 40
1
 40
1
 40
1
 40
1
 10
140.0464570042901
 20
1885.109188562924
 30
0
 10
140.0464570042901
 20
1806.748554562924
 30
0
 10
140.0464570042901
 20
1806.748554562924
 30
0
 10
200.01880400429
 20
1848.753371562924
 30
0
  0
LINE
  5
8D
100
AcDbEntity
  8
voronoi
  6
ByLayer
 62
    7
370
   -1
100
AcDbLine
 10
200.01880400429
 20
1848.753371562924
 11
200.01880400429
 21
1848.753371562924
  0
SPLINE
  5
8E
100
AcDbEntity
  8
voronoi
  6
ByLayer
 62
    7
370
   -1
100
AcDbSpline
210
0
220
0
230
0
 70
    8
 71
    3
 72
    8
 73
    4
 74
    0
 42
1e-07
 43
1e-07
 40
0
 40
0
 40
0
 40
0
 40
1
 40
1
 40
1
 40
1
 10
685.17630400429
 20
1802.669864562924
 30
0
 10
731.1540770042901
 20
1771.594808562924
 30
0
 10
731.1540770042901
 20
1771.594808562924
 30
0
 10
796.0262620042901
 20
1808.525424562924
 30
0
  0
SPLINE
  5
8F
100
AcDbEntity
  8
voronoi
  6
ByLayer
 62
    7
370
   -1
100
AcDbSpline
210
0
220
0
230
0
 70
    8
 71
    3
 72
    8
 73
    4
 74
    0
 42
1e-07
 43
1e-07
 40
0
 40
0
 40
0
 40
0
 40
1
 40
1
 40
1
 40
1
 10
796.0262620042901
 20
1808.525424562924
 30
0
 10
860.89845700429
 20
1845.456050562924
 30
0
 10
860.89845700429
 20
1845.456050562924
 30
0
 10
860.89845700429
 20
1889.361157562924
 30
0
  0
SPLINE
  5
90
100
AcDbEntity
  8
voronoi
  6
ByLayer
 62
    7
370
   -1
100
AcDbSpline
210
0
220
0
230
0
 70
    8
 71
    3
 72
    8
 73
    4
 74
    0
 42
1e-07
 43
1e-07
 40
0
 40
0
 40
0
 40
0
 40
1
 40
1
 40
1
 40
1
 10
860.89845700429
 20
1889.361157562924
 30
0
 10
860.89845700429
 20
1933.266275562924
 30
0
 10
860.89845700429
 20
1933.266275562924
 30
0
 10
809.64925900429
 20
1951.051148562924
 30
0
  0
SPLINE
  5
91
100
AcDbEntity
  8
voronoi
  6
ByLayer
 62
    7
370
   -1
100
AcDbSpline
210
0
220
0
230
0
 70
    8
 71
    3
 72
    8
 73
    4
 74
    0
 42
1e-07
 43
1e-07
 40
0
 40
0
 40
0
 40
0
 40
1
 40
1
 40
1
 40
1
 10
809.64925900429
 20
1951.051148562924
 30
0
 10
758.40006100429
 20
1968.836030562924
 30
0
 10
758.40006100429
 20
1968.836030562924
 30
0
 10
726.7703140042901
 20
1960.812590562924
 30
0
  0
SPLINE
  5
92
100
AcDbEntity
  8
voronoi
  6
ByLayer
 62
    7
370
   -1
100
AcDbSpline
210
0
220
0
230
0
 70
    8
 71
    3
 72
    8
 73
    4
 74
    0
 42
1e-07
 43
1e-07
 40
0
 40
0
 40
0
 40
0
 40
1
 40
1
 40
1
 40
1
 10
726.7703140042901
 20
1960.812590562924
 30
0
 10
695.1405770042901
 20
1952.789150562924
 30
0
 10
695.1405770042901
 20
1952.789150562924
 30
0
 10
667.16955400429
 20
1893.267040562924
 30
0
  0
SPLINE
  5
93
100
AcDbEntity
  8
voronoi
  6
ByLayer
 62
    7
370
   -1
100
AcDbSpline
210
0
220
0
230
0
 70
    8
 71
    3
 72
    8
 73
    4
 74
    0
 42
1e-07
 43
1e-07
 40
0
 40
0
 40
0
 40
0
 40
1
 40
1
 40
1
 40
1
 10
667.16955400429
 20
1893.267040562924
 30
0
 10
639.1985300042901
 20
1833.744920562924
 30
0
 10
639.1985300042901
 20
1833.744920562924
 30
0
 10
685.17630400429
 20
1802.669864562924
 30
0
  0
LINE
  5
94
100
AcDbEntity
  8
voronoi
  6
ByLayer
 62
    7
370
   -1
100
AcDbLine
 10
685.17630400429
 20
1802.669864562924
 11
685.17630400429
 21
1802.669864562924
  0
SPLINE
  5
95
100
AcDbEntity
  8
voronoi
  6
ByLayer
 62
    7
370
   -1
100
AcDbSpline
210
0
220
0
230
0
 70
    8
 71
    3
 72
    8
 73
    4
 74
    0
 42
1e-07
 43
1e-07
 40
0
 40
0
 40
0
 40
0
 40
1
 40
1
 40
1
 40
1
 10
332.5101630042901
 20
1826.591022562924
 30
0
 10
344.6033770042901
 20
1779.261934562924
 30
0
 10
344.6033770042901
 20
1779.261934562924
 30
0
 10
377.47775000429
 20
1763.657406562924
 30
0
  0
SPLINE
  5
96
100
AcDbEntity
  8
voronoi
  6
ByLayer
 62
    7
370
   -1
100
AcDbSpline
210
0
220
0
230
0
 70
    8
 71
    3
 72
    8
 73
    4
 74
    0
 42
1e-07
 43
1e-07
 40
0
 40
0
 40
0
 40
0
 40
1
 40
1
 40
1
 40
1
 10
377.47775000429
 20
1763.657406562924
 30
0
 10
410.35212400429
 20
1748.052888562924
 30
0
 10
410.35212400429
 20
1748.052888562924
 30
0
 10
458.5106790042901
 20
1789.052828562924
 30
0
  0
SPLINE
  5
97
100
AcDbEntity
  8
voronoi
  6
ByLayer
 62
    7
370
   -1
100
AcDbSpline
210
0
220
0
230
0
 70
    8
 71
    3
 72
    8
 73
    4
 74
    0
 42
1e-07
 43
1e-07
 40
0
 40
0
 40
0
 40
0
 40
1
 40
1
 40
1
 40
1
 10
458.5106790042901
 20
1789.052828562924
 30
0
 10
506.66923500429
 20
1830.052768562924
 30
0
 10
506.66923500429
 20
1830.052768562924
 30
0
 10
476.4099970042901
 20
1888.351487562924
 30
0
  0
SPLINE
  5
98
100
AcDbEntity
  8
voronoi
  6
ByLayer
 62
    7
370
   -1
100
AcDbSpline
210
0
220
0
230
0
 70
    8
 71
    3
 72
    8
 73
    4
 74
    0
 42
1e-07
 43
1e-07
 40
0
 40
0
 40
0
 40
0
 40
1
 40
1
 40
1
 40
1
 10
476.4099970042901
 20
1888.351487562924
 30
0
 10
446.1507600042901
 20
1946.650207562924
 30
0
 10
446.1507600042901
 20
1946.650207562924
 30
0
 10
383.28385500429
 20
1910.285164562924
 30
0
  0
SPLINE
  5
99
100
AcDbEntity
  8
voronoi
  6
ByLayer
 62
    7
370
   -1
100
AcDbSpline
210
0
220
0
230
0
 70
    8
 71
    3
 72
    8
 73
    4
 74
    0
 42
1e-07
 43
1e-07
 40
0
 40
0
 40
0
 40
0
 40
1
 40
1
 40
1
 40
1
 10
383.28385500429
 20
1910.285164562924
 30
0
 10
320.41694900429
 20
1873.920121562924
 30
0
 10
320.41694900429
 20
1873.920121562924
 30
0
 10
332.5101630042901
 20
1826.591022562924
 30
0
  0
LINE
  5
9A
100
AcDbEntity
  8
voronoi
  6
ByLayer
 62
    7
370
   -1
100
AcDbLine
 10
332.5101630042901
 20
1826.591022562924
 11
332.5101630042901
 21
1826.591022562924
  0
SPLINE
  5
9B
100
AcDbEntity
  8
voronoi
  6
ByLayer
 62
    7
370
   -1
100
AcDbSpline
210
0
220
0
230
0
 70
    8
 71
    3
 72
    8
 73
    4
 74
    0
 42
1e-07
 43
1e-07
 40
0
 40
0
 40
0
 40
0
 40
1
 40
1
 40
1
 40
1
 10
182.60573300429
 20
1726.493666562924
 30
0
 10
225.1650090042901
 20
1710.319784562924
 30
0
 10
225.1650090042901
 20
1710.319784562924
 30
0
 10
276.69953800429
 20
1743.775629562924
 30
0
  0
SPLINE
  5
9C
100
AcDbEntity
  8
voronoi
  6
ByLayer
 62
    7
370
   -1
100
AcDbSpline
210
0
220
0
230
0
 70
    8
 71
    3
 72
    8
 73
    4
 74
    0
 42
1e-07
 43
1e-07
 40
0
 40
0
 40
0
 40
0
 40
1
 40
1
 40
1
 40
1
 10
276.69953800429
 20
1743.775629562924
 30
0
 10
328.23405600429
 20
1777.231473562924
 30
0
 10
328.23405600429
 20
1777.231473562924
 30
0
 10
316.2244980042901
 20
1824.233157562924
 30
0
  0
SPLINE
  5
9D
100
AcDbEntity
  8
voronoi
  6
ByLayer
 62
    7
370
   -1
100
AcDbSpline
210
0
220
0
230
0
 70
    8
 71
    3
 72
    8
 73
    4
 74
    0
 42
1e-07
 43
1e-07
 40
0
 40
0
 40
0
 40
0
 40
1
 40
1
 40
1
 40
1
 10
316.2244980042901
 20
1824.233157562924
 30
0
 10
304.21495000429
 20
1871.234841562924
 30
0
 10
304.21495000429
 20
1871.234841562924
 30
0
 10
288.1674230042901
 20
1875.381339562924
 30
0
  0
SPLINE
  5
9E
100
AcDbEntity
  8
voronoi
  6
ByLayer
 62
    7
370
   -1
100
AcDbSpline
210
0
220
0
230
0
 70
    8
 71
    3
 72
    8
 73
    4
 74
    0
 42
1e-07
 43
1e-07
 40
0
 40
0
 40
0
 40
0
 40
1
 40
1
 40
1
 40
1
 10
288.1674230042901
 20
1875.381339562924
 30
0
 10
272.11989600429
 20
1879.527836562924
 30
0
 10
272.11989600429
 20
1879.527836562924
 30
0
 10
206.08317700429
 20
1833.275523562924
 30
0
  0
SPLINE
  5
9F
100
AcDbEntity
  8
voronoi
  6
ByLayer
 62
    7
370
   -1
100
AcDbSpline
210
0
220
0
230
0
 70
    8
 71
    3
 72
    8
 73
    4
 74
    0
 42
1e-07
 43
1e-07
 40
0
 40
0
 40
0
 40
0
 40
1
 40
1
 40
1
 40
1
 10
206.08317700429
 20
1833.275523562924
 30
0
 10
140.0464570042901
 20
1787.023209562924
 30
0
 10
140.0464570042901
 20
1787.023209562924
 30
0
 10
140.0464570042901
 20
1764.845378562924
 30
0
  0
SPLINE
  5
A0
100
AcDbEntity
  8
voronoi
  6
ByLayer
 62
    7
370
   -1
100
AcDbSpline
210
0
220
0
230
0
 70
    8
 71
    3
 72
    8
 73
    4
 74
    0
 42
1e-07
 43
1e-07
 40
0
 40
0
 40
0
 40
0
 40
1
 40
1
 40
1
 40
1
 10
140.0464570042901
 20
1764.845378562924
 30
0
 10
140.0464570042901
 20
1742.667547562924
 30
0
 10
140.0464570042901
 20
1742.667547562924
 30
0
 10
182.60573300429
 20
1726.493666562924
 30
0
  0
LINE
  5
A1
100
AcDbEntity
  8
voronoi
  6
ByLayer
 62
    7
370
   -1
100
AcDbLine
 10
182.60573300429
 20
1726.493666562924
 11
182.60573300429
 21
1726.493666562924
  0
SPLINE
  5
A2
100
AcDbEntity
  8
voronoi
  6
ByLayer
 62
    7
370
   -1
100
AcDbSpline
210
0
220
0
230
0
 70
    8
 71
    3
 72
    8
 73
    4
 74
    0
 42
1e-07
 43
1e-07
 40
0
 40
0
 40
0
 40
0
 40
1
 40
1
 40
1
 40
1
 10
574.34557500429
 20
1731.748947562924
 30
0
 10
585.5755990042901
 20
1655.857485562924
 30
0
 10
585.5755990042901
 20
1655.857485562924
 30
0
 10
610.0575150042901
 20
1646.404345562924
 30
0
  0
SPLINE
  5
A3
100
AcDbEntity
  8
voronoi
  6
ByLayer
 62
    7
370
   -1
100
AcDbSpline
210
0
220
0
230
0
 70
    8
 71
    3
 72
    8
 73
    4
 74
    0
 42
1e-07
 43
1e-07
 40
0
 40
0
 40
0
 40
0
 40
1
 40
1
 40
1
 40
1
 10
610.0575150042901
 20
1646.404345562924
 30
0
 10
634.53942000429
 20
1636.951214562924
 30
0
 10
634.53942000429
 20
1636.951214562924
 30
0
 10
673.93333700429
 20
1653.876351562924
 30
0
  0
SPLINE
  5
A4
100
AcDbEntity
  8
voronoi
  6
ByLayer
 62
    7
370
   -1
100
AcDbSpline
210
0
220
0
230
0
 70
    8
 71
    3
 72
    8
 73
    4
 74
    0
 42
1e-07
 43
1e-07
 40
0
 40
0
 40
0
 40
0
 40
1
 40
1
 40
1
 40
1
 10
673.93333700429
 20
1653.876351562924
 30
0
 10
713.3272530042901
 20
1670.801488562924
 30
0
 10
713.3272530042901
 20
1670.801488562924
 30
0
 10
717.7392360042901
 20
1714.493387562924
 30
0
  0
SPLINE
  5
A5
100
AcDbEntity
  8
voronoi
  6
ByLayer
 62
    7
370
   -1
100
AcDbSpline
210
0
220
0
230
0
 70
    8
 71
    3
 72
    8
 73
    4
 74
    0
 42
1e-07
 43
1e-07
 40
0
 40
0
 40
0
 40
0
 40
1
 40
1
 40
1
 40
1
 10
717.7392360042901
 20
1714.493387562924
 30
0
 10
722.15122900429
 20
1758.185275562924
 30
0
 10
722.15122900429
 20
1758.185275562924
 30
0
 10
674.68225500429
 20
1790.268186562924
 30
0
  0
SPLINE
  5
A6
100
AcDbEntity
  8
voronoi
  6
ByLayer
 62
    7
370
   -1
100
AcDbSpline
210
0
220
0
230
0
 70
    8
 71
    3
 72
    8
 73
    4
 74
    0
 42
1e-07
 43
1e-07
 40
0
 40
0
 40
0
 40
0
 40
1
 40
1
 40
1
 40
1
 10
674.68225500429
 20
1790.268186562924
 30
0
 10
627.21329000429
 20
1822.351107562924
 30
0
 10
627.21329000429
 20
1822.351107562924
 30
0
 10
595.16441500429
 20
1814.995753562924
 30
0
  0
SPLINE
  5
A7
100
AcDbEntity
  8
voronoi
  6
ByLayer
 62
    7
370
   -1
100
AcDbSpline
210
0
220
0
230
0
 70
    8
 71
    3
 72
    8
 73
    4
 74
    0
 42
1e-07
 43
1e-07
 40
0
 40
0
 40
0
 40
0
 40
1
 40
1
 40
1
 40
1
 10
595.16441500429
 20
1814.995753562924
 30
0
 10
563.1155400042901
 20
1807.640408562924
 30
0
 10
563.1155400042901
 20
1807.640408562924
 30
0
 10
574.34557500429
 20
1731.748947562924
 30
0
  0
LINE
  5
A8
100
AcDbEntity
  8
voronoi
  6
ByLayer
 62
    7
370
   -1
100
AcDbLine
 10
574.34557500429
 20
1731.748947562924
 11
574.34557500429
 21
1731.748947562924
  0
SPLINE
  5
A9
100
AcDbEntity
  8
voronoi
  6
ByLayer
 62
    7
370
   -1
100
AcDbSpline
210
0
220
0
230
0
 70
    8
 71
    3
 72
    8
 73
    4
 74
    0
 42
1e-07
 43
1e-07
 40
0
 40
0
 40
0
 40
0
 40
1
 40
1
 40
1
 40
1
 10
755.4802410042901
 20
1651.463594562924
 30
0
 10
781.33031200429
 20
1633.710118562924
 30
0
 10
781.33031200429
 20
1633.710118562924
 30
0
 10
821.11438900429
 20
1644.512617562924
 30
0
  0
SPLINE
  5
AA
100
AcDbEntity
  8
voronoi
  6
ByLayer
 62
    7
370
   -1
100
AcDbSpline
210
0
220
0
230
0
 70
    8
 71
    3
 72
    8
 73
    4
 74
    0
 42
1e-07
 43
1e-07
 40
0
 40
0
 40
0
 40
0
 40
1
 40
1
 40
1
 40
1
 10
821.11438900429
 20
1644.512617562924
 30
0
 10
860.89845700429
 20
1655.315117562924
 30
0
 10
860.89845700429
 20
1655.315117562924
 30
0
 10
860.89845700429
 20
1741.106503562924
 30
0
  0
SPLINE
  5
AB
100
AcDbEntity
  8
voronoi
  6
ByLayer
 62
    7
370
   -1
100
AcDbSpline
210
0
220
0
230
0
 70
    8
 71
    3
 72
    8
 73
    4
 74
    0
 42
1e-07
 43
1e-07
 40
0
 40
0
 40
0
 40
0
 40
1
 40
1
 40
1
 40
1
 10
860.89845700429
 20
1741.106503562924
 30
0
 10
860.89845700429
 20
1826.897880562924
 30
0
 10
860.89845700429
 20
1826.897880562924
 30
0
 10
799.7079930042901
 20
1792.063206562924
 30
0
  0
SPLINE
  5
AC
100
AcDbEntity
  8
voronoi
  6
ByLayer
 62
    7
370
   -1
100
AcDbSpline
210
0
220
0
230
0
 70
    8
 71
    3
 72
    8
 73
    4
 74
    0
 42
1e-07
 43
1e-07
 40
0
 40
0
 40
0
 40
0
 40
1
 40
1
 40
1
 40
1
 10
799.7079930042901
 20
1792.063206562924
 30
0
 10
738.5175290042901
 20
1757.228532562924
 30
0
 10
738.5175290042901
 20
1757.228532562924
 30
0
 10
734.0738550042901
 20
1713.222796562924
 30
0
  0
SPLINE
  5
AD
100
AcDbEntity
  8
voronoi
  6
ByLayer
 62
    7
370
   -1
100
AcDbSpline
210
0
220
0
230
0
 70
    8
 71
    3
 72
    8
 73
    4
 74
    0
 42
1e-07
 43
1e-07
 40
0
 40
0
 40
0
 40
0
 40
1
 40
1
 40
1
 40
1
 10
734.0738550042901
 20
1713.222796562924
 30
0
 10
729.63017100429
 20
1669.217070562924
 30
0
 10
729.63017100429
 20
1669.217070562924
 30
0
 10
755.4802410042901
 20
1651.463594562924
 30
0
  0
LINE
  5
AE
100
AcDbEntity
  8
voronoi
  6
ByLayer
 62
    7
370
   -1
100
AcDbLine
 10
755.4802410042901
 20
1651.463594562924
 11
755.4802410042901
 21
1651.463594562924
  0
SPLINE
  5
AF
100
AcDbEntity
  8
voronoi
  6
ByLayer
 62
    7
370
   -1
100
AcDbSpline
210
0
220
0
230
0
 70
    8
 71
    3
 72
    8
 73
    4
 74
    0
 42
1e-07
 43
1e-07
 40
0
 40
0
 40
0
 40
0
 40
1
 40
1
 40
1
 40
1
 10
422.6267380042901
 20
1707.037384562924
 30
0
 10
425.09041400429
 20
1678.928655562924
 30
0
 10
425.09041400429
 20
1678.928655562924
 30
0
 10
470.4679960042901
 20
1656.527597562924
 30
0
  0
SPLINE
  5
B0
100
AcDbEntity
  8
voronoi
  6
ByLayer
 62
    7
370
   -1
100
AcDbSpline
210
0
220
0
230
0
 70
    8
 71
    3
 72
    8
 73
    4
 74
    0
 42
1e-07
 43
1e-07
 40
0
 40
0
 40
0
 40
0
 40
1
 40
1
 40
1
 40
1
 10
470.4679960042901
 20
1656.527597562924
 30
0
 10
515.84557800429
 20
1634.126539562924
 30
0
 10
515.84557800429
 20
1634.126539562924
 30
0
 10
542.4833840042901
 20
1644.655051562924
 30
0
  0
SPLINE
  5
B1
100
AcDbEntity
  8
voronoi
  6
ByLayer
 62
    7
370
   -1
100
AcDbSpline
210
0
220
0
230
0
 70
    8
 71
    3
 72
    8
 73
    4
 74
    0
 42
1e-07
 43
1e-07
 40
0
 40
0
 40
0
 40
0
 40
1
 40
1
 40
1
 40
1
 10
542.4833840042901
 20
1644.655051562924
 30
0
 10
569.12119000429
 20
1655.183563562924
 30
0
 10
569.12119000429
 20
1655.183563562924
 30
0
 10
557.81329500429
 20
1731.601249562924
 30
0
  0
SPLINE
  5
B2
100
AcDbEntity
  8
voronoi
  6
ByLayer
 62
    7
370
   -1
100
AcDbSpline
210
0
220
0
230
0
 70
    8
 71
    3
 72
    8
 73
    4
 74
    0
 42
1e-07
 43
1e-07
 40
0
 40
0
 40
0
 40
0
 40
1
 40
1
 40
1
 40
1
 10
557.81329500429
 20
1731.601249562924
 30
0
 10
546.5054000042901
 20
1808.018934562924
 30
0
 10
546.5054000042901
 20
1808.018934562924
 30
0
 10
532.4965020042901
 20
1813.436985562924
 30
0
  0
SPLINE
  5
B3
100
AcDbEntity
  8
voronoi
  6
ByLayer
 62
    7
370
   -1
100
AcDbSpline
210
0
220
0
230
0
 70
    8
 71
    3
 72
    8
 73
    4
 74
    0
 42
1e-07
 43
1e-07
 40
0
 40
0
 40
0
 40
0
 40
1
 40
1
 40
1
 40
1
 10
532.4965020042901
 20
1813.436985562924
 30
0
 10
518.4876030042901
 20
1818.855036562924
 30
0
 10
518.4876030042901
 20
1818.855036562924
 30
0
 10
469.32533300429
 20
1777.000575562924
 30
0
  0
SPLINE
  5
B4
100
AcDbEntity
  8
voronoi
  6
ByLayer
 62
    7
370
   -1
100
AcDbSpline
210
0
220
0
230
0
 70
    8
 71
    3
 72
    8
 73
    4
 74
    0
 42
1e-07
 43
1e-07
 40
0
 40
0
 40
0
 40
0
 40
1
 40
1
 40
1
 40
1
 10
469.32533300429
 20
1777.000575562924
 30
0
 10
420.1630630042901
 20
1735.146124562924
 30
0
 10
420.1630630042901
 20
1735.146124562924
 30
0
 10
422.6267380042901
 20
1707.037384562924
 30
0
  0
LINE
  5
B5
100
AcDbEntity
  8
voronoi
  6
ByLayer
 62
    7
370
   -1
100
AcDbLine
 10
422.6267380042901
 20
1707.037384562924
 11
422.6267380042901
 21
1707.037384562924
  0
SPLINE
  5
B6
100
AcDbEntity
  8
voronoi
  6
ByLayer
 62
    7
370
   -1
100
AcDbSpline
210
0
220
0
230
0
 70
    8
 71
    3
 72
    8
 73
    4
 74
    0
 42
1e-07
 43
1e-07
 40
0
 40
0
 40
0
 40
0
 40
1
 40
1
 40
1
 40
1
 10
272.6818840042901
 20
1642.985207562924
 30
0
 10
308.0629380042901
 20
1587.021539562924
 30
0
 10
313.5078380042901
 20
1585.208550562924
 30
0
 10
361.1682180042901
 20
1631.033613562924
 30
0
  0
SPLINE
  5
B7
100
AcDbEntity
  8
voronoi
  6
ByLayer
 62
    7
370
   -1
100
AcDbSpline
210
0
220
0
230
0
 70
    8
 71
    3
 72
    8
 73
    4
 74
    0
 42
1e-07
 43
1e-07
 40
0
 40
0
 40
0
 40
0
 40
1
 40
1
 40
1
 40
1
 10
361.1682180042901
 20
1631.033613562924
 30
0
 10
408.8286070042901
 20
1676.858675562924
 30
0
 10
408.8286070042901
 20
1676.858675562924
 30
0
 10
406.35536800429
 20
1705.076536562924
 30
0
  0
SPLINE
  5
B8
100
AcDbEntity
  8
voronoi
  6
ByLayer
 62
    7
370
   -1
100
AcDbSpline
210
0
220
0
230
0
 70
    8
 71
    3
 72
    8
 73
    4
 74
    0
 42
1e-07
 43
1e-07
 40
0
 40
0
 40
0
 40
0
 40
1
 40
1
 40
1
 40
1
 10
406.35536800429
 20
1705.076536562924
 30
0
 10
403.8821290042901
 20
1733.294397562924
 30
0
 10
403.8821290042901
 20
1733.294397562924
 30
0
 10
371.04992100429
 20
1748.878900562924
 30
0
  0
SPLINE
  5
B9
100
AcDbEntity
  8
voronoi
  6
ByLayer
 62
    7
370
   -1
100
AcDbSpline
210
0
220
0
230
0
 70
    8
 71
    3
 72
    8
 73
    4
 74
    0
 42
1e-07
 43
1e-07
 40
0
 40
0
 40
0
 40
0
 40
1
 40
1
 40
1
 40
1
 10
371.04992100429
 20
1748.878900562924
 30
0
 10
338.2177230042901
 20
1764.463403562924
 30
0
 10
338.2177230042901
 20
1764.463403562924
 30
0
 10
287.7592810042901
 20
1731.706139562924
 30
0
  0
SPLINE
  5
BA
100
AcDbEntity
  8
voronoi
  6
ByLayer
 62
    7
370
   -1
100
AcDbSpline
210
0
220
0
230
0
 70
    8
 71
    3
 72
    8
 73
    4
 74
    0
 42
1e-07
 43
1e-07
 40
0
 40
0
 40
0
 40
0
 40
1
 40
1
 40
1
 40
1
 10
287.7592810042901
 20
1731.706139562924
 30
0
 10
237.3008290042901
 20
1698.948874562924
 30
0
 10
237.3008290042901
 20
1698.948874562924
 30
0
 10
272.6818840042901
 20
1642.985207562924
 30
0
  0
LINE
  5
BB
100
AcDbEntity
  8
voronoi
  6
ByLayer
 62
    7
370
   -1
100
AcDbLine
 10
272.6818840042901
 20
1642.985207562924
 11
272.6818840042901
 21
1642.985207562924
  0
SPLINE
  5
BC
100
AcDbEntity
  8
voronoi
  6
ByLayer
 62
    7
370
   -1
100
AcDbSpline
210
0
220
0
230
0
 70
    8
 71
    3
 72
    8
 73
    4
 74
    0
 42
1e-07
 43
1e-07
 40
0
 40
0
 40
0
 40
0
 40
1
 40
1
 40
1
 40
1
 10
215.4569760042901
 20
1548.540740562924
 30
0
 10
290.86749500429
 20
1583.741787562924
 30
0
 10
290.86749500429
 20
1583.741787562924
 30
0
 10
255.7512820042901
 20
1639.286537562924
 30
0
  0
SPLINE
  5
BD
100
AcDbEntity
  8
voronoi
  6
ByLayer
 62
    7
370
   -1
100
AcDbSpline
210
0
220
0
230
0
 70
    8
 71
    3
 72
    8
 73
    4
 74
    0
 42
1e-07
 43
1e-07
 40
0
 40
0
 40
0
 40
0
 40
1
 40
1
 40
1
 40
1
 10
255.7512820042901
 20
1639.286537562924
 30
0
 10
220.6350770042901
 20
1694.831297562924
 30
0
 10
220.6350770042901
 20
1694.831297562924
 30
0
 10
180.3407670042901
 20
1710.144410562924
 30
0
  0
SPLINE
  5
BE
100
AcDbEntity
  8
voronoi
  6
ByLayer
 62
    7
370
   -1
100
AcDbSpline
210
0
220
0
230
0
 70
    8
 71
    3
 72
    8
 73
    4
 74
    0
 42
1e-07
 43
1e-07
 40
0
 40
0
 40
0
 40
0
 40
1
 40
1
 40
1
 40
1
 10
180.3407670042901
 20
1710.144410562924
 30
0
 10
140.0464570042901
 20
1725.457533562924
 30
0
 10
140.0464570042901
 20
1725.457533562924
 30
0
 10
140.0464570042901
 20
1619.398613562924
 30
0
  0
SPLINE
  5
BF
100
AcDbEntity
  8
voronoi
  6
ByLayer
 62
    7
370
   -1
100
AcDbSpline
210
0
220
0
230
0
 70
    8
 71
    3
 72
    8
 73
    4
 74
    0
 42
1e-07
 43
1e-07
 40
0
 40
0
 40
0
 40
0
 40
1
 40
1
 40
1
 40
1
 10
140.0464570042901
 20
1619.398613562924
 30
0
 10
140.0464570042901
 20
1513.339693562924
 30
0
 10
140.0464570042901
 20
1513.339693562924
 30
0
 10
215.4569760042901
 20
1548.540740562924
 30
0
  0
LINE
  5
C0
100
AcDbEntity
  8
voronoi
  6
ByLayer
 62
    7
370
   -1
100
AcDbLine
 10
215.4569760042901
 20
1548.540740562924
 11
215.4569760042901
 21
1548.540740562924
  0
SPLINE
  5
C1
100
AcDbEntity
  8
voronoi
  6
ByLayer
 62
    7
370
   -1
100
AcDbSpline
210
0
220
0
230
0
 70
    8
 71
    3
 72
    8
 73
    4
 74
    0
 42
1e-07
 43
1e-07
 40
0
 40
0
 40
0
 40
0
 40
1
 40
1
 40
1
 40
1
 10
345.68344600429
 20
1543.792279562924
 30
0
 10
365.3050380042901
 20
1512.789874562924
 30
0
 10
365.3050380042901
 20
1512.789874562924
 30
0
 10
415.3974530042901
 20
1489.455678562924
 30
0
  0
SPLINE
  5
C2
100
AcDbEntity
  8
voronoi
  6
ByLayer
 62
    7
370
   -1
100
AcDbSpline
210
0
220
0
230
0
 70
    8
 71
    3
 72
    8
 73
    4
 74
    0
 42
1e-07
 43
1e-07
 40
0
 40
0
 40
0
 40
0
 40
1
 40
1
 40
1
 40
1
 10
415.3974530042901
 20
1489.455678562924
 30
0
 10
465.4898780042901
 20
1466.121481562924
 30
0
 10
465.4898780042901
 20
1466.121481562924
 30
0
 10
485.69746900429
 20
1543.593881562924
 30
0
  0
SPLINE
  5
C3
100
AcDbEntity
  8
voronoi
  6
ByLayer
 62
    7
370
   -1
100
AcDbSpline
210
0
220
0
230
0
 70
    8
 71
    3
 72
    8
 73
    4
 74
    0
 42
1e-07
 43
1e-07
 40
0
 40
0
 40
0
 40
0
 40
1
 40
1
 40
1
 40
1
 10
485.69746900429
 20
1543.593881562924
 30
0
 10
505.9050700042901
 20
1621.066291562924
 30
0
 10
505.9050700042901
 20
1621.066291562924
 30
0
 10
462.3885560042901
 20
1642.548611562924
 30
0
  0
SPLINE
  5
C4
100
AcDbEntity
  8
voronoi
  6
ByLayer
 62
    7
370
   -1
100
AcDbSpline
210
0
220
0
230
0
 70
    8
 71
    3
 72
    8
 73
    4
 74
    0
 42
1e-07
 43
1e-07
 40
0
 40
0
 40
0
 40
0
 40
1
 40
1
 40
1
 40
1
 10
462.3885560042901
 20
1642.548611562924
 30
0
 10
418.87205200429
 20
1664.030930562924
 30
0
 10
418.87205200429
 20
1664.030930562924
 30
0
 10
372.46694800429
 20
1619.412812562924
 30
0
  0
SPLINE
  5
C5
100
AcDbEntity
  8
voronoi
  6
ByLayer
 62
    7
370
   -1
100
AcDbSpline
210
0
220
0
230
0
 70
    8
 71
    3
 72
    8
 73
    4
 74
    0
 42
1e-07
 43
1e-07
 40
0
 40
0
 40
0
 40
0
 40
1
 40
1
 40
1
 40
1
 10
372.46694800429
 20
1619.412812562924
 30
0
 10
326.0618550042901
 20
1574.794695562924
 30
0
 10
326.0618550042901
 20
1574.794695562924
 30
0
 10
345.68344600429
 20
1543.792279562924
 30
0
  0
LINE
  5
C6
100
AcDbEntity
  8
voronoi
  6
ByLayer
 62
    7
370
   -1
100
AcDbLine
 10
345.68344600429
 20
1543.792279562924
 11
345.68344600429
 21
1543.792279562924
  0
SPLINE
  5
C7
100
AcDbEntity
  8
voronoi
  6
ByLayer
 62
    7
370
   -1
100
AcDbSpline
210
0
220
0
230
0
 70
    8
 71
    3
 72
    8
 73
    4
 74
    0
 42
1e-07
 43
1e-07
 40
0
 40
0
 40
0
 40
0
 40
1
 40
1
 40
1
 40
1
 10
792.4118030042901
 20
1563.940723562924
 30
0
 10
796.3871490042901
 20
1508.891412562924
 30
0
 10
796.3871490042901
 20
1508.891412562924
 30
0
 10
828.6427980042901
 20
1507.232859562924
 30
0
  0
SPLINE
  5
C8
100
AcDbEntity
  8
voronoi
  6
ByLayer
 62
    7
370
   -1
100
AcDbSpline
210
0
220
0
230
0
 70
    8
 71
    3
 72
    8
 73
    4
 74
    0
 42
1e-07
 43
1e-07
 40
0
 40
0
 40
0
 40
0
 40
1
 40
1
 40
1
 40
1
 10
828.6427980042901
 20
1507.232859562924
 30
0
 10
860.89845700429
 20
1505.574296562924
 30
0
 10
860.89845700429
 20
1505.574296562924
 30
0
 10
860.89845700429
 20
1572.119904562924
 30
0
  0
SPLINE
  5
C9
100
AcDbEntity
  8
voronoi
  6
ByLayer
 62
    7
370
   -1
100
AcDbSpline
210
0
220
0
230
0
 70
    8
 71
    3
 72
    8
 73
    4
 74
    0
 42
1e-07
 43
1e-07
 40
0
 40
0
 40
0
 40
0
 40
1
 40
1
 40
1
 40
1
 10
860.89845700429
 20
1572.119904562924
 30
0
 10
860.89845700429
 20
1638.665511562924
 30
0
 10
860.89845700429
 20
1638.665511562924
 30
0
 10
824.66746300429
 20
1628.827777562924
 30
0
  0
SPLINE
  5
CA
100
AcDbEntity
  8
voronoi
  6
ByLayer
 62
    7
370
   -1
100
AcDbSpline
210
0
220
0
230
0
 70
    8
 71
    3
 72
    8
 73
    4
 74
    0
 42
1e-07
 43
1e-07
 40
0
 40
0
 40
0
 40
0
 40
1
 40
1
 40
1
 40
1
 10
824.66746300429
 20
1628.827777562924
 30
0
 10
788.4364580042901
 20
1618.990034562924
 30
0
 10
788.4364580042901
 20
1618.990034562924
 30
0
 10
792.4118030042901
 20
1563.940723562924
 30
0
  0
LINE
  5
CB
100
AcDbEntity
  8
voronoi
  6
ByLayer
 62
    7
370
   -1
100
AcDbLine
 10
792.4118030042901
 20
1563.940723562924
 11
792.4118030042901
 21
1563.940723562924
  0
SPLINE
  5
CC
100
AcDbEntity
  8
voronoi
  6
ByLayer
 62
    7
370
   -1
100
AcDbSpline
210
0
220
0
230
0
 70
    8
 71
    3
 72
    8
 73
    4
 74
    0
 42
1e-07
 43
1e-07
 40
0
 40
0
 40
0
 40
0
 40
1
 40
1
 40
1
 40
1
 10
645.70075900429
 20
1559.100810562924
 30
0
 10
648.2881360042901
 20
1495.087108562924
 30
0
 10
648.2881360042901
 20
1495.087108562924
 30
0
 10
709.9079570042901
 20
1495.348440562924
 30
0
  0
SPLINE
  5
CD
100
AcDbEntity
  8
voronoi
  6
ByLayer
 62
    7
370
   -1
100
AcDbSpline
210
0
220
0
230
0
 70
    8
 71
    3
 72
    8
 73
    4
 74
    0
 42
1e-07
 43
1e-07
 40
0
 40
0
 40
0
 40
0
 40
1
 40
1
 40
1
 40
1
 10
709.9079570042901
 20
1495.348440562924
 30
0
 10
771.52777900429
 20
1495.609763562924
 30
0
 10
771.52777900429
 20
1495.609763562924
 30
0
 10
775.91107100429
 20
1499.957817562924
 30
0
  0
SPLINE
  5
CE
100
AcDbEntity
  8
voronoi
  6
ByLayer
 62
    7
370
   -1
100
AcDbSpline
210
0
220
0
230
0
 70
    8
 71
    3
 72
    8
 73
    4
 74
    0
 42
1e-07
 43
1e-07
 40
0
 40
0
 40
0
 40
0
 40
1
 40
1
 40
1
 40
1
 10
775.91107100429
 20
1499.957817562924
 30
0
 10
780.2943630042901
 20
1504.305861562924
 30
0
 10
780.2943630042901
 20
1504.305861562924
 30
0
 10
776.09559500429
 20
1562.449172562924
 30
0
  0
SPLINE
  5
CF
100
AcDbEntity
  8
voronoi
  6
ByLayer
 62
    7
370
   -1
100
AcDbSpline
210
0
220
0
230
0
 70
    8
 71
    3
 72
    8
 73
    4
 74
    0
 42
1e-07
 43
1e-07
 40
0
 40
0
 40
0
 40
0
 40
1
 40
1
 40
1
 40
1
 10
776.09559500429
 20
1562.449172562924
 30
0
 10
771.89681600429
 20
1620.592492562924
 30
0
 10
771.89681600429
 20
1620.592492562924
 30
0
 10
745.98718400429
 20
1638.386881562924
 30
0
  0
SPLINE
  5
D0
100
AcDbEntity
  8
voronoi
  6
ByLayer
 62
    7
370
   -1
100
AcDbSpline
210
0
220
0
230
0
 70
    8
 71
    3
 72
    8
 73
    4
 74
    0
 42
1e-07
 43
1e-07
 40
0
 40
0
 40
0
 40
0
 40
1
 40
1
 40
1
 40
1
 10
745.98718400429
 20
1638.386881562924
 30
0
 10
720.0775510042901
 20
1656.181260562924
 30
0
 10
720.0775510042901
 20
1656.181260562924
 30
0
 10
681.5954710042901
 20
1639.647885562924
 30
0
  0
SPLINE
  5
D1
100
AcDbEntity
  8
voronoi
  6
ByLayer
 62
    7
370
   -1
100
AcDbSpline
210
0
220
0
230
0
 70
    8
 71
    3
 72
    8
 73
    4
 74
    0
 42
1e-07
 43
1e-07
 40
0
 40
0
 40
0
 40
0
 40
1
 40
1
 40
1
 40
1
 10
681.5954710042901
 20
1639.647885562924
 30
0
 10
643.1133910042901
 20
1623.114501562924
 30
0
 10
643.1133910042901
 20
1623.114501562924
 30
0
 10
645.70075900429
 20
1559.100810562924
 30
0
  0
LINE
  5
D2
100
AcDbEntity
  8
voronoi
  6
ByLayer
 62
    7
370
   -1
100
AcDbLine
 10
645.70075900429
 20
1559.100810562924
 11
645.70075900429
 21
1559.100810562924
  0
SPLINE
  5
D3
100
AcDbEntity
  8
voronoi
  6
ByLayer
 62
    7
370
   -1
100
AcDbSpline
210
0
220
0
230
0
 70
    8
 71
    3
 72
    8
 73
    4
 74
    0
 42
1e-07
 43
1e-07
 40
0
 40
0
 40
0
 40
0
 40
1
 40
1
 40
1
 40
1
 10
545.87349800429
 20
1463.860544562924
 30
0
 10
611.42280200429
 20
1469.553845562924
 30
0
 10
611.42280200429
 20
1469.553845562924
 30
0
 10
621.75677900429
 20
1479.865508562924
 30
0
  0
SPLINE
  5
D4
100
AcDbEntity
  8
voronoi
  6
ByLayer
 62
    7
370
   -1
100
AcDbSpline
210
0
220
0
230
0
 70
    8
 71
    3
 72
    8
 73
    4
 74
    0
 42
1e-07
 43
1e-07
 40
0
 40
0
 40
0
 40
0
 40
1
 40
1
 40
1
 40
1
 10
621.75677900429
 20
1479.865508562924
 30
0
 10
632.09075500429
 20
1490.177181562924
 30
0
 10
632.09075500429
 20
1490.177181562924
 30
0
 10
629.4121550042901
 20
1556.448029562924
 30
0
  0
SPLINE
  5
D5
100
AcDbEntity
  8
voronoi
  6
ByLayer
 62
    7
370
   -1
100
AcDbSpline
210
0
220
0
230
0
 70
    8
 71
    3
 72
    8
 73
    4
 74
    0
 42
1e-07
 43
1e-07
 40
0
 40
0
 40
0
 40
0
 40
1
 40
1
 40
1
 40
1
 10
629.4121550042901
 20
1556.448029562924
 30
0
 10
626.7335550042901
 20
1622.718878562924
 30
0
 10
626.7335550042901
 20
1622.718878562924
 30
0
 10
602.45963200429
 20
1632.091706562924
 30
0
  0
SPLINE
  5
D6
100
AcDbEntity
  8
voronoi
  6
ByLayer
 62
    7
370
   -1
100
AcDbSpline
210
0
220
0
230
0
 70
    8
 71
    3
 72
    8
 73
    4
 74
    0
 42
1e-07
 43
1e-07
 40
0
 40
0
 40
0
 40
0
 40
1
 40
1
 40
1
 40
1
 10
602.45963200429
 20
1632.091706562924
 30
0
 10
578.1857090042901
 20
1641.464535562924
 30
0
 10
578.1857090042901
 20
1641.464535562924
 30
0
 10
550.28366800429
 20
1630.436342562924
 30
0
  0
SPLINE
  5
D7
100
AcDbEntity
  8
voronoi
  6
ByLayer
 62
    7
370
   -1
100
AcDbSpline
210
0
220
0
230
0
 70
    8
 71
    3
 72
    8
 73
    4
 74
    0
 42
1e-07
 43
1e-07
 40
0
 40
0
 40
0
 40
0
 40
1
 40
1
 40
1
 40
1
 10
550.28366800429
 20
1630.436342562924
 30
0
 10
522.3816270042901
 20
1619.408139562924
 30
0
 10
522.3816270042901
 20
1619.408139562924
 30
0
 10
501.35291000429
 20
1538.787691562924
 30
0
  0
SPLINE
  5
D8
100
AcDbEntity
  8
voronoi
  6
ByLayer
 62
    7
370
   -1
100
AcDbSpline
210
0
220
0
230
0
 70
    8
 71
    3
 72
    8
 73
    4
 74
    0
 42
1e-07
 43
1e-07
 40
0
 40
0
 40
0
 40
0
 40
1
 40
1
 40
1
 40
1
 10
501.35291000429
 20
1538.787691562924
 30
0
 10
480.32418300429
 20
1458.167252562924
 30
0
 10
480.32418300429
 20
1458.167252562924
 30
0
 10
545.87349800429
 20
1463.860544562924
 30
0
  0
LINE
  5
D9
100
AcDbEntity
  8
voronoi
  6
ByLayer
 62
    7
370
   -1
100
AcDbLine
 10
545.87349800429
 20
1463.860544562924
 11
545.87349800429
 21
1463.860544562924
  0
SPLINE
  5
DA
100
AcDbEntity
  8
voronoi
  6
ByLayer
 62
    7
370
   -1
100
AcDbSpline
210
0
220
0
230
0
 70
    8
 71
    3
 72
    8
 73
    4
 74
    0
 42
1e-07
 43
1e-07
 40
0
 40
0
 40
0
 40
0
 40
1
 40
1
 40
1
 40
1
 10
213.45839000429
 20
1430.616745562924
 30
0
 10
286.8703190042901
 20
1434.092790562924
 30
0
 10
286.8703190042901
 20
1434.092790562924
 30
0
 10
318.1983830042901
 20
1470.679305562924
 30
0
  0
SPLINE
  5
DB
100
AcDbEntity
  8
voronoi
  6
ByLayer
 62
    7
370
   -1
100
AcDbSpline
210
0
220
0
230
0
 70
    8
 71
    3
 72
    8
 73
    4
 74
    0
 42
1e-07
 43
1e-07
 40
0
 40
0
 40
0
 40
0
 40
1
 40
1
 40
1
 40
1
 10
318.1983830042901
 20
1470.679305562924
 30
0
 10
349.52645800429
 20
1507.265810562924
 30
0
 10
349.52645800429
 20
1507.265810562924
 30
0
 10
329.8786940042901
 20
1538.309570562924
 30
0
  0
SPLINE
  5
DC
100
AcDbEntity
  8
voronoi
  6
ByLayer
 62
    7
370
   -1
100
AcDbSpline
210
0
220
0
230
0
 70
    8
 71
    3
 72
    8
 73
    4
 74
    0
 42
1e-07
 43
1e-07
 40
0
 40
0
 40
0
 40
0
 40
1
 40
1
 40
1
 40
1
 10
329.8786940042901
 20
1538.309570562924
 30
0
 10
310.23093100429
 20
1569.353329562924
 30
0
 10
310.23093100429
 20
1569.353329562924
 30
0
 10
306.6964730042901
 20
1570.530201562924
 30
0
  0
SPLINE
  5
DD
100
AcDbEntity
  8
voronoi
  6
ByLayer
 62
    7
370
   -1
100
AcDbSpline
210
0
220
0
230
0
 70
    8
 71
    3
 72
    8
 73
    4
 74
    0
 42
1e-07
 43
1e-07
 40
0
 40
0
 40
0
 40
0
 40
1
 40
1
 40
1
 40
1
 10
306.6964730042901
 20
1570.530201562924
 30
0
 10
303.1620050042901
 20
1571.707073562924
 30
0
 10
303.1620050042901
 20
1571.707073562924
 30
0
 10
221.6042310042901
 20
1533.636537562924
 30
0
  0
SPLINE
  5
DE
100
AcDbEntity
  8
voronoi
  6
ByLayer
 62
    7
370
   -1
100
AcDbSpline
210
0
220
0
230
0
 70
    8
 71
    3
 72
    8
 73
    4
 74
    0
 42
1e-07
 43
1e-07
 40
0
 40
0
 40
0
 40
0
 40
1
 40
1
 40
1
 40
1
 10
221.6042310042901
 20
1533.636537562924
 30
0
 10
140.0464570042901
 20
1495.566002562924
 30
0
 10
140.0464570042901
 20
1495.566002562924
 30
0
 10
140.0464570042901
 20
1461.353356562924
 30
0
  0
SPLINE
  5
DF
100
AcDbEntity
  8
voronoi
  6
ByLayer
 62
    7
370
   -1
100
AcDbSpline
210
0
220
0
230
0
 70
    8
 71
    3
 72
    8
 73
    4
 74
    0
 42
1e-07
 43
1e-07
 40
0
 40
0
 40
0
 40
0
 40
1
 40
1
 40
1
 40
1
 10
140.0464570042901
 20
1461.353356562924
 30
0
 10
140.0464570042901
 20
1427.140700562924
 30
0
 10
140.0464570042901
 20
1427.140700562924
 30
0
 10
213.45839000429
 20
1430.616745562924
 30
0
  0
LINE
  5
E0
100
AcDbEntity
  8
voronoi
  6
ByLayer
 62
    7
370
   -1
100
AcDbLine
 10
213.45839000429
 20
1430.616745562924
 11
213.45839000429
 21
1430.616745562924
  0
SPLINE
  5
E1
100
AcDbEntity
  8
voronoi
  6
ByLayer
 62
    7
370
   -1
100
AcDbSpline
210
0
220
0
230
0
 70
    8
 71
    3
 72
    8
 73
    4
 74
    0
 42
1e-07
 43
1e-07
 40
0
 40
0
 40
0
 40
0
 40
1
 40
1
 40
1
 40
1
 10
790.34626600429
 20
1400.017083562924
 30
0
 10
797.26147900429
 20
1315.453750562924
 30
0
 10
797.26147900429
 20
1315.453750562924
 30
0
 10
829.07996800429
 20
1316.719377562924
 30
0
  0
SPLINE
  5
E2
100
AcDbEntity
  8
voronoi
  6
ByLayer
 62
    7
370
   -1
100
AcDbSpline
210
0
220
0
230
0
 70
    8
 71
    3
 72
    8
 73
    4
 74
    0
 42
1e-07
 43
1e-07
 40
0
 40
0
 40
0
 40
0
 40
1
 40
1
 40
1
 40
1
 10
829.07996800429
 20
1316.719377562924
 30
0
 10
860.89845700429
 20
1317.984994562924
 30
0
 10
860.89845700429
 20
1317.984994562924
 30
0
 10
860.89845700429
 20
1403.746428562924
 30
0
  0
SPLINE
  5
E3
100
AcDbEntity
  8
voronoi
  6
ByLayer
 62
    7
370
   -1
100
AcDbSpline
210
0
220
0
230
0
 70
    8
 71
    3
 72
    8
 73
    4
 74
    0
 42
1e-07
 43
1e-07
 40
0
 40
0
 40
0
 40
0
 40
1
 40
1
 40
1
 40
1
 10
860.89845700429
 20
1403.746428562924
 30
0
 10
860.89845700429
 20
1489.507862562924
 30
0
 10
860.89845700429
 20
1489.507862562924
 30
0
 10
826.4349020042901
 20
1491.279948562924
 30
0
  0
SPLINE
  5
E4
100
AcDbEntity
  8
voronoi
  6
ByLayer
 62
    7
370
   -1
100
AcDbSpline
210
0
220
0
230
0
 70
    8
 71
    3
 72
    8
 73
    4
 74
    0
 42
1e-07
 43
1e-07
 40
0
 40
0
 40
0
 40
0
 40
1
 40
1
 40
1
 40
1
 10
826.4349020042901
 20
1491.279948562924
 30
0
 10
791.97134600429
 20
1493.052035562924
 30
0
 10
791.97134600429
 20
1493.052035562924
 30
0
 10
787.7011990042901
 20
1488.816231562924
 30
0
  0
SPLINE
  5
E5
100
AcDbEntity
  8
voronoi
  6
ByLayer
 62
    7
370
   -1
100
AcDbSpline
210
0
220
0
230
0
 70
    8
 71
    3
 72
    8
 73
    4
 74
    0
 42
1e-07
 43
1e-07
 40
0
 40
0
 40
0
 40
0
 40
1
 40
1
 40
1
 40
1
 10
787.7011990042901
 20
1488.816231562924
 30
0
 10
783.4310420042901
 20
1484.580416562924
 30
0
 10
783.4310420042901
 20
1484.580416562924
 30
0
 10
790.34626600429
 20
1400.017083562924
 30
0
  0
LINE
  5
E6
100
AcDbEntity
  8
voronoi
  6
ByLayer
 62
    7
370
   -1
100
AcDbLine
 10
790.34626600429
 20
1400.017083562924
 11
790.34626600429
 21
1400.017083562924
  0
SPLINE
  5
E7
100
AcDbEntity
  8
voronoi
  6
ByLayer
 62
    7
370
   -1
100
AcDbSpline
210
0
220
0
230
0
 70
    8
 71
    3
 72
    8
 73
    4
 74
    0
 42
1e-07
 43
1e-07
 40
0
 40
0
 40
0
 40
0
 40
1
 40
1
 40
1
 40
1
 10
666.5859200042901
 20
1362.007145562924
 30
0
 10
708.36476100429
 20
1264.010643562924
 30
0
 10
708.36476100429
 20
1264.010643562924
 30
0
 10
744.7692100042901
 20
1287.606663562924
 30
0
  0
SPLINE
  5
E8
100
AcDbEntity
  8
voronoi
  6
ByLayer
 62
    7
370
   -1
100
AcDbSpline
210
0
220
0
230
0
 70
    8
 71
    3
 72
    8
 73
    4
 74
    0
 42
1e-07
 43
1e-07
 40
0
 40
0
 40
0
 40
0
 40
1
 40
1
 40
1
 40
1
 10
744.7692100042901
 20
1287.606663562924
 30
0
 10
781.17365900429
 20
1311.202673562924
 30
0
 10
781.17365900429
 20
1311.202673562924
 30
0
 10
774.29039300429
 20
1395.375247562924
 30
0
  0
SPLINE
  5
E9
100
AcDbEntity
  8
voronoi
  6
ByLayer
 62
    7
370
   -1
100
AcDbSpline
210
0
220
0
230
0
 70
    8
 71
    3
 72
    8
 73
    4
 74
    0
 42
1e-07
 43
1e-07
 40
0
 40
0
 40
0
 40
0
 40
1
 40
1
 40
1
 40
1
 10
774.29039300429
 20
1395.375247562924
 30
0
 10
767.4071370042901
 20
1479.547811562924
 30
0
 10
767.4071370042901
 20
1479.547811562924
 30
0
 10
705.6378000042901
 20
1479.285847562924
 30
0
  0
SPLINE
  5
EA
100
AcDbEntity
  8
voronoi
  6
ByLayer
 62
    7
370
   -1
100
AcDbSpline
210
0
220
0
230
0
 70
    8
 71
    3
 72
    8
 73
    4
 74
    0
 42
1e-07
 43
1e-07
 40
0
 40
0
 40
0
 40
0
 40
1
 40
1
 40
1
 40
1
 10
705.6378000042901
 20
1479.285847562924
 30
0
 10
643.8684630042901
 20
1479.023883562924
 30
0
 10
643.8684630042901
 20
1479.023883562924
 30
0
 10
634.3377660042901
 20
1469.513755562924
 30
0
  0
SPLINE
  5
EB
100
AcDbEntity
  8
voronoi
  6
ByLayer
 62
    7
370
   -1
100
AcDbSpline
210
0
220
0
230
0
 70
    8
 71
    3
 72
    8
 73
    4
 74
    0
 42
1e-07
 43
1e-07
 40
0
 40
0
 40
0
 40
0
 40
1
 40
1
 40
1
 40
1
 10
634.3377660042901
 20
1469.513755562924
 30
0
 10
624.80707800429
 20
1460.003636562924
 30
0
 10
624.80707800429
 20
1460.003636562924
 30
0
 10
666.5859200042901
 20
1362.007145562924
 30
0
  0
LINE
  5
EC
100
AcDbEntity
  8
voronoi
  6
ByLayer
 62
    7
370
   -1
100
AcDbLine
 10
666.5859200042901
 20
1362.007145562924
 11
666.5859200042901
 21
1362.007145562924
  0
SPLINE
  5
ED
100
AcDbEntity
  8
voronoi
  6
ByLayer
 62
    7
370
   -1
100
AcDbSpline
210
0
220
0
230
0
 70
    8
 71
    3
 72
    8
 73
    4
 74
    0
 42
1e-07
 43
1e-07
 40
0
 40
0
 40
0
 40
0
 40
1
 40
1
 40
1
 40
1
 10
309.1609880042901
 20
1387.270422562924
 30
0
 10
318.52344300429
 20
1350.319570562924
 30
0
 10
318.52344300429
 20
1350.319570562924
 30
0
 10
363.88736600429
 20
1340.639462562924
 30
0
  0
SPLINE
  5
EE
100
AcDbEntity
  8
voronoi
  6
ByLayer
 62
    7
370
   -1
100
AcDbSpline
210
0
220
0
230
0
 70
    8
 71
    3
 72
    8
 73
    4
 74
    0
 42
1e-07
 43
1e-07
 40
0
 40
0
 40
0
 40
0
 40
1
 40
1
 40
1
 40
1
 10
363.88736600429
 20
1340.639462562924
 30
0
 10
409.2512880042901
 20
1330.959344562924
 30
0
 10
409.2512880042901
 20
1330.959344562924
 30
0
 10
432.61981500429
 20
1356.403010562924
 30
0
  0
SPLINE
  5
EF
100
AcDbEntity
  8
voronoi
  6
ByLayer
 62
    7
370
   -1
100
AcDbSpline
210
0
220
0
230
0
 70
    8
 71
    3
 72
    8
 73
    4
 74
    0
 42
1e-07
 43
1e-07
 40
0
 40
0
 40
0
 40
0
 40
1
 40
1
 40
1
 40
1
 10
432.61981500429
 20
1356.403010562924
 30
0
 10
455.98833200429
 20
1381.846675562924
 30
0
 10
455.98833200429
 20
1381.846675562924
 30
0
 10
461.07000100429
 20
1414.699593562924
 30
0
  0
SPLINE
  5
F0
100
AcDbEntity
  8
voronoi
  6
ByLayer
 62
    7
370
   -1
100
AcDbSpline
210
0
220
0
230
0
 70
    8
 71
    3
 72
    8
 73
    4
 74
    0
 42
1e-07
 43
1e-07
 40
0
 40
0
 40
0
 40
0
 40
1
 40
1
 40
1
 40
1
 10
461.07000100429
 20
1414.699593562924
 30
0
 10
465.5820730042901
 20
1448.311670562924
 30
0
 10
465.5820730042901
 20
1448.311670562924
 30
0
 10
413.6989960042901
 20
1472.479991562924
 30
0
  0
SPLINE
  5
F1
100
AcDbEntity
  8
voronoi
  6
ByLayer
 62
    7
370
   -1
100
AcDbSpline
210
0
220
0
230
0
 70
    8
 71
    3
 72
    8
 73
    4
 74
    0
 42
1e-07
 43
1e-07
 40
0
 40
0
 40
0
 40
0
 40
1
 40
1
 40
1
 40
1
 10
413.6989960042901
 20
1472.479991562924
 30
0
 10
361.8159090042901
 20
1496.648312562924
 30
0
 10
361.8159090042901
 20
1496.648312562924
 30
0
 10
330.80723200429
 20
1460.434798562924
 30
0
  0
SPLINE
  5
F2
100
AcDbEntity
  8
voronoi
  6
ByLayer
 62
    7
370
   -1
100
AcDbSpline
210
0
220
0
230
0
 70
    8
 71
    3
 72
    8
 73
    4
 74
    0
 42
1e-07
 43
1e-07
 40
0
 40
0
 40
0
 40
0
 40
1
 40
1
 40
1
 40
1
 10
330.80723200429
 20
1460.434798562924
 30
0
 10
299.7985440042901
 20
1424.221273562924
 30
0
 10
299.7985440042901
 20
1424.221273562924
 30
0
 10
309.1609880042901
 20
1387.270422562924
 30
0
  0
LINE
  5
F3
100
AcDbEntity
  8
voronoi
  6
ByLayer
 62
    7
370
   -1
100
AcDbLine
 10
309.1609880042901
 20
1387.270422562924
 11
309.1609880042901
 21
1387.270422562924
  0
SPLINE
  5
F4
100
AcDbEntity
  8
voronoi
  6
ByLayer
 62
    7
370
   -1
100
AcDbSpline
210
0
220
0
230
0
 70
    8
 71
    3
 72
    8
 73
    4
 74
    0
 42
1e-07
 43
1e-07
 40
0
 40
0
 40
0
 40
0
 40
1
 40
1
 40
1
 40
1
 10
199.7715800042901
 20
1341.343357562924
 30
0
 10
259.4967020042901
 20
1319.424662562924
 30
0
 10
259.4967020042901
 20
1319.424662562924
 30
0
 10
280.9752240042901
 20
1333.273398562924
 30
0
  0
SPLINE
  5
F5
100
AcDbEntity
  8
voronoi
  6
ByLayer
 62
    7
370
   -1
100
AcDbSpline
210
0
220
0
230
0
 70
    8
 71
    3
 72
    8
 73
    4
 74
    0
 42
1e-07
 43
1e-07
 40
0
 40
0
 40
0
 40
0
 40
1
 40
1
 40
1
 40
1
 10
280.9752240042901
 20
1333.273398562924
 30
0
 10
302.4537570042901
 20
1347.122135562924
 30
0
 10
302.4537570042901
 20
1347.122135562924
 30
0
 10
293.48475100429
 20
1382.520176562924
 30
0
  0
SPLINE
  5
F6
100
AcDbEntity
  8
voronoi
  6
ByLayer
 62
    7
370
   -1
100
AcDbSpline
210
0
220
0
230
0
 70
    8
 71
    3
 72
    8
 73
    4
 74
    0
 42
1e-07
 43
1e-07
 40
0
 40
0
 40
0
 40
0
 40
1
 40
1
 40
1
 40
1
 10
293.48475100429
 20
1382.520176562924
 30
0
 10
284.5157440042901
 20
1417.918227562924
 30
0
 10
284.5157440042901
 20
1417.918227562924
 30
0
 10
212.2811030042901
 20
1414.497926562924
 30
0
  0
SPLINE
  5
F7
100
AcDbEntity
  8
voronoi
  6
ByLayer
 62
    7
370
   -1
100
AcDbSpline
210
0
220
0
230
0
 70
    8
 71
    3
 72
    8
 73
    4
 74
    0
 42
1e-07
 43
1e-07
 40
0
 40
0
 40
0
 40
0
 40
1
 40
1
 40
1
 40
1
 10
212.2811030042901
 20
1414.497926562924
 30
0
 10
140.0464570042901
 20
1411.077625562924
 30
0
 10
140.0464570042901
 20
1411.077625562924
 30
0
 10
140.0464570042901
 20
1387.169844562924
 30
0
  0
SPLINE
  5
F8
100
AcDbEntity
  8
voronoi
  6
ByLayer
 62
    7
370
   -1
100
AcDbSpline
210
0
220
0
230
0
 70
    8
 71
    3
 72
    8
 73
    4
 74
    0
 42
1e-07
 43
1e-07
 40
0
 40
0
 40
0
 40
0
 40
1
 40
1
 40
1
 40
1
 10
140.0464570042901
 20
1387.169844562924
 30
0
 10
140.0464570042901
 20
1363.262052562924
 30
0
 10
140.0464570042901
 20
1363.262052562924
 30
0
 10
199.7715800042901
 20
1341.343357562924
 30
0
  0
LINE
  5
F9
100
AcDbEntity
  8
voronoi
  6
ByLayer
 62
    7
370
   -1
100
AcDbLine
 10
199.7715800042901
 20
1341.343357562924
 11
199.7715800042901
 21
1341.343357562924
  0
SPLINE
  5
FA
100
AcDbEntity
  8
voronoi
  6
ByLayer
 62
    7
370
   -1
100
AcDbSpline
210
0
220
0
230
0
 70
    8
 71
    3
 72
    8
 73
    4
 74
    0
 42
1e-07
 43
1e-07
 40
0
 40
0
 40
0
 40
0
 40
1
 40
1
 40
1
 40
1
 10
549.7582450042901
 20
1314.494228562924
 30
0
 10
627.0294530042901
 20
1247.602083562924
 30
0
 10
627.0294530042901
 20
1247.602083562924
 30
0
 10
660.7786070042901
 20
1251.212961562924
 30
0
  0
SPLINE
  5
FB
100
AcDbEntity
  8
voronoi
  6
ByLayer
 62
    7
370
   -1
100
AcDbSpline
210
0
220
0
230
0
 70
    8
 71
    3
 72
    8
 73
    4
 74
    0
 42
1e-07
 43
1e-07
 40
0
 40
0
 40
0
 40
0
 40
1
 40
1
 40
1
 40
1
 10
660.7786070042901
 20
1251.212961562924
 30
0
 10
694.52776100429
 20
1254.823838562924
 30
0
 10
694.52776100429
 20
1254.823838562924
 30
0
 10
652.2164520042901
 20
1354.069281562924
 30
0
  0
SPLINE
  5
FC
100
AcDbEntity
  8
voronoi
  6
ByLayer
 62
    7
370
   -1
100
AcDbSpline
210
0
220
0
230
0
 70
    8
 71
    3
 72
    8
 73
    4
 74
    0
 42
1e-07
 43
1e-07
 40
0
 40
0
 40
0
 40
0
 40
1
 40
1
 40
1
 40
1
 10
652.2164520042901
 20
1354.069281562924
 30
0
 10
609.90515300429
 20
1453.314714562924
 30
0
 10
609.90515300429
 20
1453.314714562924
 30
0
 10
545.89910600429
 20
1447.755463562924
 30
0
  0
SPLINE
  5
FD
100
AcDbEntity
  8
voronoi
  6
ByLayer
 62
    7
370
   -1
100
AcDbSpline
210
0
220
0
230
0
 70
    8
 71
    3
 72
    8
 73
    4
 74
    0
 42
1e-07
 43
1e-07
 40
0
 40
0
 40
0
 40
0
 40
1
 40
1
 40
1
 40
1
 10
545.89910600429
 20
1447.755463562924
 30
0
 10
481.8930600042901
 20
1442.196201562924
 30
0
 10
481.8930600042901
 20
1442.196201562924
 30
0
 10
477.19004300429
 20
1411.791267562924
 30
0
  0
SPLINE
  5
FE
100
AcDbEntity
  8
voronoi
  6
ByLayer
 62
    7
370
   -1
100
AcDbSpline
210
0
220
0
230
0
 70
    8
 71
    3
 72
    8
 73
    4
 74
    0
 42
1e-07
 43
1e-07
 40
0
 40
0
 40
0
 40
0
 40
1
 40
1
 40
1
 40
1
 10
477.19004300429
 20
1411.791267562924
 30
0
 10
472.4870370042901
 20
1381.386333562924
 30
0
 10
472.4870370042901
 20
1381.386333562924
 30
0
 10
549.7582450042901
 20
1314.494228562924
 30
0
  0
LINE
  5
FF
100
AcDbEntity
  8
voronoi
  6
ByLayer
 62
    7
370
   -1
100
AcDbLine
 10
549.7582450042901
 20
1314.494228562924
 11
549.7582450042901
 21
1314.494228562924
  0
SPLINE
  5
100
100
AcDbEntity
  8
voronoi
  6
ByLayer
 62
    7
370
   -1
100
AcDbSpline
210
0
220
0
230
0
 70
    8
 71
    3
 72
    8
 73
    4
 74
    0
 42
1e-07
 43
1e-07
 40
0
 40
0
 40
0
 40
0
 40
1
 40
1
 40
1
 40
1
 10
280.1191310042901
 20
1244.010158562924
 30
0
 10
290.76091300429
 20
1181.369872562924
 30
0
 10
290.76091300429
 20
1181.369872562924
 30
0
 10
343.2951530042901
 20
1210.064561562924
 30
0
  0
SPLINE
  5
101
100
AcDbEntity
  8
voronoi
  6
ByLayer
 62
    7
370
   -1
100
AcDbSpline
210
0
220
0
230
0
 70
    8
 71
    3
 72
    8
 73
    4
 74
    0
 42
1e-07
 43
1e-07
 40
0
 40
0
 40
0
 40
0
 40
1
 40
1
 40
1
 40
1
 10
343.2951530042901
 20
1210.064561562924
 30
0
 10
395.82938300429
 20
1238.759149562924
 30
0
 10
395.82938300429
 20
1238.759149562924
 30
0
 10
399.57240700429
 20
1277.282165562924
 30
0
  0
SPLINE
  5
102
100
AcDbEntity
  8
voronoi
  6
ByLayer
 62
    7
370
   -1
100
AcDbSpline
210
0
220
0
230
0
 70
    8
 71
    3
 72
    8
 73
    4
 74
    0
 42
1e-07
 43
1e-07
 40
0
 40
0
 40
0
 40
0
 40
1
 40
1
 40
1
 40
1
 10
399.57240700429
 20
1277.282165562924
 30
0
 10
403.3154310042901
 20
1315.805201562924
 30
0
 10
403.3154310042901
 20
1315.805201562924
 30
0
 10
358.37028800429
 20
1325.395952562924
 30
0
  0
SPLINE
  5
103
100
AcDbEntity
  8
voronoi
  6
ByLayer
 62
    7
370
   -1
100
AcDbSpline
210
0
220
0
230
0
 70
    8
 71
    3
 72
    8
 73
    4
 74
    0
 42
1e-07
 43
1e-07
 40
0
 40
0
 40
0
 40
0
 40
1
 40
1
 40
1
 40
1
 10
358.37028800429
 20
1325.395952562924
 30
0
 10
313.42513500429
 20
1334.986703562924
 30
0
 10
313.42513500429
 20
1334.986703562924
 30
0
 10
291.4512420042901
 20
1320.818564562924
 30
0
  0
SPLINE
  5
104
100
AcDbEntity
  8
voronoi
  6
ByLayer
 62
    7
370
   -1
100
AcDbSpline
210
0
220
0
230
0
 70
    8
 71
    3
 72
    8
 73
    4
 74
    0
 42
1e-07
 43
1e-07
 40
0
 40
0
 40
0
 40
0
 40
1
 40
1
 40
1
 40
1
 10
291.4512420042901
 20
1320.818564562924
 30
0
 10
269.4773380042901
 20
1306.650424562924
 30
0
 10
269.4773380042901
 20
1306.650424562924
 30
0
 10
280.1191310042901
 20
1244.010158562924
 30
0
  0
LINE
  5
105
100
AcDbEntity
  8
voronoi
  6
ByLayer
 62
    7
370
   -1
100
AcDbLine
 10
280.1191310042901
 20
1244.010158562924
 11
280.1191310042901
 21
1244.010158562924
  0
SPLINE
  5
106
100
AcDbEntity
  8
voronoi
  6
ByLayer
 62
    7
370
   -1
100
AcDbSpline
210
0
220
0
230
0
 70
    8
 71
    3
 72
    8
 73
    4
 74
    0
 42
1e-07
 43
1e-07
 40
0
 40
0
 40
0
 40
0
 40
1
 40
1
 40
1
 40
1
 10
461.1580390042901
 20
1202.477897562924
 30
0
 10
510.1437210042901
 20
1167.370289562924
 30
0
 10
510.1437210042901
 20
1167.370289562924
 30
0
 10
560.70625600429
 20
1203.601001562924
 30
0
  0
SPLINE
  5
107
100
AcDbEntity
  8
voronoi
  6
ByLayer
 62
    7
370
   -1
100
AcDbSpline
210
0
220
0
230
0
 70
    8
 71
    3
 72
    8
 73
    4
 74
    0
 42
1e-07
 43
1e-07
 40
0
 40
0
 40
0
 40
0
 40
1
 40
1
 40
1
 40
1
 10
560.70625600429
 20
1203.601001562924
 30
0
 10
611.26879200429
 20
1239.831712562924
 30
0
 10
611.26879200429
 20
1239.831712562924
 30
0
 10
537.8240590042901
 20
1303.411344562924
 30
0
  0
SPLINE
  5
108
100
AcDbEntity
  8
voronoi
  6
ByLayer
 62
    7
370
   -1
100
AcDbSpline
210
0
220
0
230
0
 70
    8
 71
    3
 72
    8
 73
    4
 74
    0
 42
1e-07
 43
1e-07
 40
0
 40
0
 40
0
 40
0
 40
1
 40
1
 40
1
 40
1
 10
537.8240590042901
 20
1303.411344562924
 30
0
 10
464.3793260042901
 20
1366.990946562924
 30
0
 10
464.3793260042901
 20
1366.990946562924
 30
0
 10
442.2181030042901
 20
1342.861793562924
 30
0
  0
SPLINE
  5
109
100
AcDbEntity
  8
voronoi
  6
ByLayer
 62
    7
370
   -1
100
AcDbSpline
210
0
220
0
230
0
 70
    8
 71
    3
 72
    8
 73
    4
 74
    0
 42
1e-07
 43
1e-07
 40
0
 40
0
 40
0
 40
0
 40
1
 40
1
 40
1
 40
1
 10
442.2181030042901
 20
1342.861793562924
 30
0
 10
420.05687000429
 20
1318.732630562924
 30
0
 10
420.05687000429
 20
1318.732630562924
 30
0
 10
416.11461900429
 20
1278.159068562924
 30
0
  0
SPLINE
  5
10A
100
AcDbEntity
  8
voronoi
  6
ByLayer
 62
    7
370
   -1
100
AcDbSpline
210
0
220
0
230
0
 70
    8
 71
    3
 72
    8
 73
    4
 74
    0
 42
1e-07
 43
1e-07
 40
0
 40
0
 40
0
 40
0
 40
1
 40
1
 40
1
 40
1
 10
416.11461900429
 20
1278.159068562924
 30
0
 10
412.1723570042901
 20
1237.585506562924
 30
0
 10
412.1723570042901
 20
1237.585506562924
 30
0
 10
461.1580390042901
 20
1202.477897562924
 30
0
  0
LINE
  5
10B
100
AcDbEntity
  8
voronoi
  6
ByLayer
 62
    7
370
   -1
100
AcDbLine
 10
461.1580390042901
 20
1202.477897562924
 11
461.1580390042901
 21
1202.477897562924
  0
SPLINE
  5
10C
100
AcDbEntity
  8
voronoi
  6
ByLayer
 62
    7
370
   -1
100
AcDbSpline
210
0
220
0
230
0
 70
    8
 71
    3
 72
    8
 73
    4
 74
    0
 42
1e-07
 43
1e-07
 40
0
 40
0
 40
0
 40
0
 40
1
 40
1
 40
1
 40
1
 10
199.7862920042901
 20
1150.312756562924
 30
0
 10
259.5261300042901
 20
1147.162451562924
 30
0
 10
259.5261300042901
 20
1147.162451562924
 30
0
 10
267.7473040042901
 20
1158.922145562924
 30
0
  0
SPLINE
  5
10D
100
AcDbEntity
  8
voronoi
  6
ByLayer
 62
    7
370
   -1
100
AcDbSpline
210
0
220
0
230
0
 70
    8
 71
    3
 72
    8
 73
    4
 74
    0
 42
1e-07
 43
1e-07
 40
0
 40
0
 40
0
 40
0
 40
1
 40
1
 40
1
 40
1
 10
267.7473040042901
 20
1158.922145562924
 30
0
 10
275.9684880042901
 20
1170.681739562924
 30
0
 10
275.9684880042901
 20
1170.681739562924
 30
0
 10
264.5934220042901
 20
1237.638352562924
 30
0
  0
SPLINE
  5
10E
100
AcDbEntity
  8
voronoi
  6
ByLayer
 62
    7
370
   -1
100
AcDbSpline
210
0
220
0
230
0
 70
    8
 71
    3
 72
    8
 73
    4
 74
    0
 42
1e-07
 43
1e-07
 40
0
 40
0
 40
0
 40
0
 40
1
 40
1
 40
1
 40
1
 10
264.5934220042901
 20
1237.638352562924
 30
0
 10
253.2183570042901
 20
1304.594885562924
 30
0
 10
253.2183570042901
 20
1304.594885562924
 30
0
 10
196.6324050042901
 20
1325.361527562924
 30
0
  0
SPLINE
  5
10F
100
AcDbEntity
  8
voronoi
  6
ByLayer
 62
    7
370
   -1
100
AcDbSpline
210
0
220
0
230
0
 70
    8
 71
    3
 72
    8
 73
    4
 74
    0
 42
1e-07
 43
1e-07
 40
0
 40
0
 40
0
 40
0
 40
1
 40
1
 40
1
 40
1
 10
196.6324050042901
 20
1325.361527562924
 30
0
 10
140.0464570042901
 20
1346.128168562924
 30
0
 10
140.0464570042901
 20
1346.128168562924
 30
0
 10
140.0464570042901
 20
1249.795645562924
 30
0
  0
SPLINE
  5
110
100
AcDbEntity
  8
voronoi
  6
ByLayer
 62
    7
370
   -1
100
AcDbSpline
210
0
220
0
230
0
 70
    8
 71
    3
 72
    8
 73
    4
 74
    0
 42
1e-07
 43
1e-07
 40
0
 40
0
 40
0
 40
0
 40
1
 40
1
 40
1
 40
1
 10
140.0464570042901
 20
1249.795645562924
 30
0
 10
140.0464570042901
 20
1153.463061562924
 30
0
 10
140.0464570042901
 20
1153.463061562924
 30
0
 10
199.7862920042901
 20
1150.312756562924
 30
0
  0
LINE
  5
111
100
AcDbEntity
  8
voronoi
  6
ByLayer
 62
    7
370
   -1
100
AcDbLine
 10
199.7862920042901
 20
1150.312756562924
 11
199.7862920042901
 21
1150.312756562924
  0
SPLINE
  5
112
100
AcDbEntity
  8
voronoi
  6
ByLayer
 62
    7
370
   -1
100
AcDbSpline
210
0
220
0
230
0
 70
    8
 71
    3
 72
    8
 73
    4
 74
    0
 42
1e-07
 43
1e-07
 40
0
 40
0
 40
0
 40
0
 40
1
 40
1
 40
1
 40
1
 10
712.3776230042901
 20
1242.126854562924
 30
0
 10
713.8699100042901
 20
1237.849335562924
 30
0
 10
713.8699100042901
 20
1237.849335562924
 30
0
 10
787.38418800429
 20
1170.459725562924
 30
0
  0
SPLINE
  5
113
100
AcDbEntity
  8
voronoi
  6
ByLayer
 62
    7
370
   -1
100
AcDbSpline
210
0
220
0
230
0
 70
    8
 71
    3
 72
    8
 73
    4
 74
    0
 42
1e-07
 43
1e-07
 40
0
 40
0
 40
0
 40
0
 40
1
 40
1
 40
1
 40
1
 10
787.38418800429
 20
1170.459725562924
 30
0
 10
860.89845700429
 20
1103.070116562924
 30
0
 10
860.89845700429
 20
1103.070116562924
 30
0
 10
860.89845700429
 20
1202.498755562924
 30
0
  0
SPLINE
  5
114
100
AcDbEntity
  8
voronoi
  6
ByLayer
 62
    7
370
   -1
100
AcDbSpline
210
0
220
0
230
0
 70
    8
 71
    3
 72
    8
 73
    4
 74
    0
 42
1e-07
 43
1e-07
 40
0
 40
0
 40
0
 40
0
 40
1
 40
1
 40
1
 40
1
 10
860.89845700429
 20
1202.498755562924
 30
0
 10
860.89845700429
 20
1301.927434562924
 30
0
 10
860.89845700429
 20
1301.927434562924
 30
0
 10
826.6194150042901
 20
1300.563936562924
 30
0
  0
SPLINE
  5
115
100
AcDbEntity
  8
voronoi
  6
ByLayer
 62
    7
370
   -1
100
AcDbSpline
210
0
220
0
230
0
 70
    8
 71
    3
 72
    8
 73
    4
 74
    0
 42
1e-07
 43
1e-07
 40
0
 40
0
 40
0
 40
0
 40
1
 40
1
 40
1
 40
1
 10
826.6194150042901
 20
1300.563936562924
 30
0
 10
792.34036300429
 20
1299.200439562924
 30
0
 10
792.34036300429
 20
1299.200439562924
 30
0
 10
751.6128500042901
 20
1272.802376562924
 30
0
  0
SPLINE
  5
116
100
AcDbEntity
  8
voronoi
  6
ByLayer
 62
    7
370
   -1
100
AcDbSpline
210
0
220
0
230
0
 70
    8
 71
    3
 72
    8
 73
    4
 74
    0
 42
1e-07
 43
1e-07
 40
0
 40
0
 40
0
 40
0
 40
1
 40
1
 40
1
 40
1
 10
751.6128500042901
 20
1272.802376562924
 30
0
 10
710.8853260042901
 20
1246.404274562924
 30
0
 10
710.8853260042901
 20
1246.404274562924
 30
0
 10
712.3776230042901
 20
1242.126854562924
 30
0
  0
LINE
  5
117
100
AcDbEntity
  8
voronoi
  6
ByLayer
 62
    7
370
   -1
100
AcDbLine
 10
712.3776230042901
 20
1242.126854562924
 11
712.3776230042901
 21
1242.126854562924
  0
SPLINE
  5
118
100
AcDbEntity
  8
voronoi
  6
ByLayer
 62
    7
370
   -1
100
AcDbSpline
210
0
220
0
230
0
 70
    8
 71
    3
 72
    8
 73
    4
 74
    0
 42
1e-07
 43
1e-07
 40
0
 40
0
 40
0
 40
0
 40
1
 40
1
 40
1
 40
1
 10
307.82591700429
 20
1083.334583562924
 30
0
 10
342.21895400429
 20
1028.015025562924
 30
0
 10
342.21895400429
 20
1028.015025562924
 30
0
 10
413.6490590042901
 20
1032.827924562924
 30
0
  0
SPLINE
  5
119
100
AcDbEntity
  8
voronoi
  6
ByLayer
 62
    7
370
   -1
100
AcDbSpline
210
0
220
0
230
0
 70
    8
 71
    3
 72
    8
 73
    4
 74
    0
 42
1e-07
 43
1e-07
 40
0
 40
0
 40
0
 40
0
 40
1
 40
1
 40
1
 40
1
 10
413.6490590042901
 20
1032.827924562924
 30
0
 10
485.07915400429
 20
1037.640823562924
 30
0
 10
485.07915400429
 20
1037.640823562924
 30
0
 10
493.22124900429
 20
1095.711082562924
 30
0
  0
SPLINE
  5
11A
100
AcDbEntity
  8
voronoi
  6
ByLayer
 62
    7
370
   -1
100
AcDbSpline
210
0
220
0
230
0
 70
    8
 71
    3
 72
    8
 73
    4
 74
    0
 42
1e-07
 43
1e-07
 40
0
 40
0
 40
0
 40
0
 40
1
 40
1
 40
1
 40
1
 10
493.22124900429
 20
1095.711082562924
 30
0
 10
501.3633440042901
 20
1153.781340562924
 30
0
 10
501.3633440042901
 20
1153.781340562924
 30
0
 10
452.1708880042901
 20
1189.037158562924
 30
0
  0
SPLINE
  5
11B
100
AcDbEntity
  8
voronoi
  6
ByLayer
 62
    7
370
   -1
100
AcDbSpline
210
0
220
0
230
0
 70
    8
 71
    3
 72
    8
 73
    4
 74
    0
 42
1e-07
 43
1e-07
 40
0
 40
0
 40
0
 40
0
 40
1
 40
1
 40
1
 40
1
 10
452.1708880042901
 20
1189.037158562924
 30
0
 10
402.9784420042901
 20
1224.292876562924
 30
0
 10
402.9784420042901
 20
1224.292876562924
 30
0
 10
346.61994000429
 20
1193.509416562924
 30
0
  0
SPLINE
  5
11C
100
AcDbEntity
  8
voronoi
  6
ByLayer
 62
    7
370
   -1
100
AcDbSpline
210
0
220
0
230
0
 70
    8
 71
    3
 72
    8
 73
    4
 74
    0
 42
1e-07
 43
1e-07
 40
0
 40
0
 40
0
 40
0
 40
1
 40
1
 40
1
 40
1
 10
346.61994000429
 20
1193.509416562924
 30
0
 10
290.26143700429
 20
1162.725956562924
 30
0
 10
290.26143700429
 20
1162.725956562924
 30
0
 10
281.8471580042901
 20
1150.690098562924
 30
0
  0
SPLINE
  5
11D
100
AcDbEntity
  8
voronoi
  6
ByLayer
 62
    7
370
   -1
100
AcDbSpline
210
0
220
0
230
0
 70
    8
 71
    3
 72
    8
 73
    4
 74
    0
 42
1e-07
 43
1e-07
 40
0
 40
0
 40
0
 40
0
 40
1
 40
1
 40
1
 40
1
 10
281.8471580042901
 20
1150.690098562924
 30
0
 10
273.43288000429
 20
1138.654241562924
 30
0
 10
273.43288000429
 20
1138.654241562924
 30
0
 10
307.82591700429
 20
1083.334583562924
 30
0
  0
LINE
  5
11E
100
AcDbEntity
  8
voronoi
  6
ByLayer
 62
    7
370
   -1
100
AcDbLine
 10
307.82591700429
 20
1083.334583562924
 11
307.82591700429
 21
1083.334583562924
  0
SPLINE
  5
11F
100
AcDbEntity
  8
voronoi
  6
ByLayer
 62
    7
370
   -1
100
AcDbSpline
210
0
220
0
230
0
 70
    8
 71
    3
 72
    8
 73
    4
 74
    0
 42
1e-07
 43
1e-07
 40
0
 40
0
 40
0
 40
0
 40
1
 40
1
 40
1
 40
1
 10
517.36764100429
 20
1017.950716562924
 30
0
 10
533.75786000429
 20
1002.814191562924
 30
0
 10
533.75786000429
 20
1002.814191562924
 30
0
 10
545.7231730042901
 20
1003.343554562924
 30
0
  0
SPLINE
  5
120
100
AcDbEntity
  8
voronoi
  6
ByLayer
 62
    7
370
   -1
100
AcDbSpline
210
0
220
0
230
0
 70
    8
 71
    3
 72
    8
 73
    4
 74
    0
 42
1e-07
 43
1e-07
 40
0
 40
0
 40
0
 40
0
 40
1
 40
1
 40
1
 40
1
 10
545.7231730042901
 20
1003.343554562924
 30
0
 10
557.68848700429
 20
1003.872816562924
 30
0
 10
557.68848700429
 20
1003.872816562924
 30
0
 10
614.9065550042901
 20
1042.314337562924
 30
0
  0
SPLINE
  5
121
100
AcDbEntity
  8
voronoi
  6
ByLayer
 62
    7
370
   -1
100
AcDbSpline
210
0
220
0
230
0
 70
    8
 71
    3
 72
    8
 73
    4
 74
    0
 42
1e-07
 43
1e-07
 40
0
 40
0
 40
0
 40
0
 40
1
 40
1
 40
1
 40
1
 10
614.9065550042901
 20
1042.314337562924
 30
0
 10
672.1246230042901
 20
1080.755858562924
 30
0
 10
672.1246230042901
 20
1080.755858562924
 30
0
 10
685.2404120042901
 20
1156.724172562924
 30
0
  0
SPLINE
  5
122
100
AcDbEntity
  8
voronoi
  6
ByLayer
 62
    7
370
   -1
100
AcDbSpline
210
0
220
0
230
0
 70
    8
 71
    3
 72
    8
 73
    4
 74
    0
 42
1e-07
 43
1e-07
 40
0
 40
0
 40
0
 40
0
 40
1
 40
1
 40
1
 40
1
 10
685.2404120042901
 20
1156.724172562924
 30
0
 10
698.35620200429
 20
1232.692385562924
 30
0
 10
698.35620200429
 20
1232.692385562924
 30
0
 10
697.2797770042901
 20
1235.777811562924
 30
0
  0
SPLINE
  5
123
100
AcDbEntity
  8
voronoi
  6
ByLayer
 62
    7
370
   -1
100
AcDbSpline
210
0
220
0
230
0
 70
    8
 71
    3
 72
    8
 73
    4
 74
    0
 42
1e-07
 43
1e-07
 40
0
 40
0
 40
0
 40
0
 40
1
 40
1
 40
1
 40
1
 10
697.2797770042901
 20
1235.777811562924
 30
0
 10
696.2033530042901
 20
1238.863337562924
 30
0
 10
696.2033530042901
 20
1238.863337562924
 30
0
 10
661.79493600429
 20
1235.181964562924
 30
0
  0
SPLINE
  5
124
100
AcDbEntity
  8
voronoi
  6
ByLayer
 62
    7
370
   -1
100
AcDbSpline
210
0
220
0
230
0
 70
    8
 71
    3
 72
    8
 73
    4
 74
    0
 42
1e-07
 43
1e-07
 40
0
 40
0
 40
0
 40
0
 40
1
 40
1
 40
1
 40
1
 10
661.79493600429
 20
1235.181964562924
 30
0
 10
627.3865200042901
 20
1231.500492562924
 30
0
 10
627.3865200042901
 20
1231.500492562924
 30
0
 10
572.58612200429
 20
1192.233189562924
 30
0
  0
SPLINE
  5
125
100
AcDbEntity
  8
voronoi
  6
ByLayer
 62
    7
370
   -1
100
AcDbSpline
210
0
220
0
230
0
 70
    8
 71
    3
 72
    8
 73
    4
 74
    0
 42
1e-07
 43
1e-07
 40
0
 40
0
 40
0
 40
0
 40
1
 40
1
 40
1
 40
1
 10
572.58612200429
 20
1192.233189562924
 30
0
 10
517.7857140042901
 20
1152.965787562924
 30
0
 10
517.7857140042901
 20
1152.965787562924
 30
0
 10
509.38157300429
 20
1093.026564562924
 30
0
  0
SPLINE
  5
126
100
AcDbEntity
  8
voronoi
  6
ByLayer
 62
    7
370
   -1
100
AcDbSpline
210
0
220
0
230
0
 70
    8
 71
    3
 72
    8
 73
    4
 74
    0
 42
1e-07
 43
1e-07
 40
0
 40
0
 40
0
 40
0
 40
1
 40
1
 40
1
 40
1
 10
509.38157300429
 20
1093.026564562924
 30
0
 10
500.97742200429
 20
1033.087341562924
 30
0
 10
500.97742200429
 20
1033.087341562924
 30
0
 10
517.36764100429
 20
1017.950716562924
 30
0
  0
LINE
  5
127
100
AcDbEntity
  8
voronoi
  6
ByLayer
 62
    7
370
   -1
100
AcDbLine
 10
517.36764100429
 20
1017.950716562924
 11
517.36764100429
 21
1017.950716562924
  0
SPLINE
  5
128
100
AcDbEntity
  8
voronoi
  6
ByLayer
 62
    7
370
   -1
100
AcDbSpline
210
0
220
0
230
0
 70
    8
 71
    3
 72
    8
 73
    4
 74
    0
 42
1e-07
 43
1e-07
 40
0
 40
0
 40
0
 40
0
 40
1
 40
1
 40
1
 40
1
 10
722.88952900429
 20
1053.083795562924
 30
0
 10
757.26655200429
 20
1026.730175562924
 30
0
 10
757.26655200429
 20
1026.730175562924
 30
0
 10
803.91371400429
 20
1058.650076562924
 30
0
  0
SPLINE
  5
129
100
AcDbEntity
  8
voronoi
  6
ByLayer
 62
    7
370
   -1
100
AcDbSpline
210
0
220
0
230
0
 70
    8
 71
    3
 72
    8
 73
    4
 74
    0
 42
1e-07
 43
1e-07
 40
0
 40
0
 40
0
 40
0
 40
1
 40
1
 40
1
 40
1
 10
803.91371400429
 20
1058.650076562924
 30
0
 10
850.56087600429
 20
1090.570076562924
 30
0
 10
850.56087600429
 20
1090.570076562924
 30
0
 10
781.4374870042901
 20
1153.934563562924
 30
0
  0
SPLINE
  5
12A
100
AcDbEntity
  8
voronoi
  6
ByLayer
 62
    7
370
   -1
100
AcDbSpline
210
0
220
0
230
0
 70
    8
 71
    3
 72
    8
 73
    4
 74
    0
 42
1e-07
 43
1e-07
 40
0
 40
0
 40
0
 40
0
 40
1
 40
1
 40
1
 40
1
 10
781.4374870042901
 20
1153.934563562924
 30
0
 10
712.31409800429
 20
1217.299051562924
 30
0
 10
712.31409800429
 20
1217.299051562924
 30
0
 10
700.4133020042901
 20
1148.368283562924
 30
0
  0
SPLINE
  5
12B
100
AcDbEntity
  8
voronoi
  6
ByLayer
 62
    7
370
   -1
100
AcDbSpline
210
0
220
0
230
0
 70
    8
 71
    3
 72
    8
 73
    4
 74
    0
 42
1e-07
 43
1e-07
 40
0
 40
0
 40
0
 40
0
 40
1
 40
1
 40
1
 40
1
 10
700.4133020042901
 20
1148.368283562924
 30
0
 10
688.5125070042901
 20
1079.437415562924
 30
0
 10
688.5125070042901
 20
1079.437415562924
 30
0
 10
722.88952900429
 20
1053.083795562924
 30
0
  0
LINE
  5
12C
100
AcDbEntity
  8
voronoi
  6
ByLayer
 62
    7
370
   -1
100
AcDbLine
 10
722.88952900429
 20
1053.083795562924
 11
722.88952900429
 21
1053.083795562924
  0
SPLINE
  5
12D
100
AcDbEntity
  8
voronoi
  6
ByLayer
 62
    7
370
   -1
100
AcDbSpline
210
0
220
0
230
0
 70
    8
 71
    3
 72
    8
 73
    4
 74
    0
 42
1e-07
 43
1e-07
 40
0
 40
0
 40
0
 40
0
 40
1
 40
1
 40
1
 40
1
 10
208.44404700429
 20
914.694902562924
 30
0
 10
276.8416400042901
 20
921.7587215629241
 30
0
 10
276.8416400042901
 20
921.7587215629241
 30
0
 10
302.6309800042901
 20
970.558363562924
 30
0
  0
SPLINE
  5
12E
100
AcDbEntity
  8
voronoi
  6
ByLayer
 62
    7
370
   -1
100
AcDbSpline
210
0
220
0
230
0
 70
    8
 71
    3
 72
    8
 73
    4
 74
    0
 42
1e-07
 43
1e-07
 40
0
 40
0
 40
0
 40
0
 40
1
 40
1
 40
1
 40
1
 10
302.6309800042901
 20
970.558363562924
 30
0
 10
328.42032100429
 20
1019.358005562924
 30
0
 10
328.42032100429
 20
1019.358005562924
 30
0
 10
293.67636000429
 20
1075.242122562924
 30
0
  0
SPLINE
  5
12F
100
AcDbEntity
  8
voronoi
  6
ByLayer
 62
    7
370
   -1
100
AcDbSpline
210
0
220
0
230
0
 70
    8
 71
    3
 72
    8
 73
    4
 74
    0
 42
1e-07
 43
1e-07
 40
0
 40
0
 40
0
 40
0
 40
1
 40
1
 40
1
 40
1
 10
293.67636000429
 20
1075.242122562924
 30
0
 10
258.93238900429
 20
1131.126140562924
 30
0
 10
258.93238900429
 20
1131.126140562924
 30
0
 10
199.48942200429
 20
1134.260902562924
 30
0
  0
SPLINE
  5
130
100
AcDbEntity
  8
voronoi
  6
ByLayer
 62
    7
370
   -1
100
AcDbSpline
210
0
220
0
230
0
 70
    8
 71
    3
 72
    8
 73
    4
 74
    0
 42
1e-07
 43
1e-07
 40
0
 40
0
 40
0
 40
0
 40
1
 40
1
 40
1
 40
1
 10
199.48942200429
 20
1134.260902562924
 30
0
 10
140.0464570042901
 20
1137.395563562924
 30
0
 10
140.0464570042901
 20
1137.395563562924
 30
0
 10
140.0464570042901
 20
1022.513323562924
 30
0
  0
SPLINE
  5
131
100
AcDbEntity
  8
voronoi
  6
ByLayer
 62
    7
370
   -1
100
AcDbSpline
210
0
220
0
230
0
 70
    8
 71
    3
 72
    8
 73
    4
 74
    0
 42
1e-07
 43
1e-07
 40
0
 40
0
 40
0
 40
0
 40
1
 40
1
 40
1
 40
1
 10
140.0464570042901
 20
1022.513323562924
 30
0
 10
140.0464570042901
 20
907.631083562924
 30
0
 10
140.0464570042901
 20
907.631083562924
 30
0
 10
208.44404700429
 20
914.694902562924
 30
0
  0
LINE
  5
132
100
AcDbEntity
  8
voronoi
  6
ByLayer
 62
    7
370
   -1
100
AcDbLine
 10
208.44404700429
 20
914.694902562924
 11
208.44404700429
 21
914.694902562924
  0
SPLINE
  5
133
100
AcDbEntity
  8
voronoi
  6
ByLayer
 62
    7
370
   -1
100
AcDbSpline
210
0
220
0
230
0
 70
    8
 71
    3
 72
    8
 73
    4
 74
    0
 42
1e-07
 43
1e-07
 40
0
 40
0
 40
0
 40
0
 40
1
 40
1
 40
1
 40
1
 10
658.9140060042901
 20
949.726400562924
 30
0
 10
742.0642130042901
 20
902.892991562924
 30
0
 10
742.0642130042901
 20
902.892991562924
 30
0
 10
745.3144770042901
 20
957.959349562924
 30
0
  0
SPLINE
  5
134
100
AcDbEntity
  8
voronoi
  6
ByLayer
 62
    7
370
   -1
100
AcDbSpline
210
0
220
0
230
0
 70
    8
 71
    3
 72
    8
 73
    4
 74
    0
 42
1e-07
 43
1e-07
 40
0
 40
0
 40
0
 40
0
 40
1
 40
1
 40
1
 40
1
 10
745.3144770042901
 20
957.959349562924
 30
0
 10
748.56474200429
 20
1013.025607562924
 30
0
 10
748.56474200429
 20
1013.025607562924
 30
0
 10
713.93396700429
 20
1039.573764562924
 30
0
  0
SPLINE
  5
135
100
AcDbEntity
  8
voronoi
  6
ByLayer
 62
    7
370
   -1
100
AcDbSpline
210
0
220
0
230
0
 70
    8
 71
    3
 72
    8
 73
    4
 74
    0
 42
1e-07
 43
1e-07
 40
0
 40
0
 40
0
 40
0
 40
1
 40
1
 40
1
 40
1
 10
713.93396700429
 20
1039.573764562924
 30
0
 10
679.30320300429
 20
1066.121922562924
 30
0
 10
679.30320300429
 20
1066.121922562924
 30
0
 10
627.5334960042901
 20
1031.340815562924
 30
0
  0
SPLINE
  5
136
100
AcDbEntity
  8
voronoi
  6
ByLayer
 62
    7
370
   -1
100
AcDbSpline
210
0
220
0
230
0
 70
    8
 71
    3
 72
    8
 73
    4
 74
    0
 42
1e-07
 43
1e-07
 40
0
 40
0
 40
0
 40
0
 40
1
 40
1
 40
1
 40
1
 10
627.5334960042901
 20
1031.340815562924
 30
0
 10
575.7637900042901
 20
996.559709562924
 30
0
 10
575.7637900042901
 20
996.559709562924
 30
0
 10
658.9140060042901
 20
949.726400562924
 30
0
  0
LINE
  5
137
100
AcDbEntity
  8
voronoi
  6
ByLayer
 62
    7
370
   -1
100
AcDbLine
 10
658.9140060042901
 20
949.726400562924
 11
658.9140060042901
 21
949.726400562924
  0
SPLINE
  5
138
100
AcDbEntity
  8
voronoi
  6
ByLayer
 62
    7
370
   -1
100
AcDbSpline
210
0
220
0
230
0
 70
    8
 71
    3
 72
    8
 73
    4
 74
    0
 42
1e-07
 43
1e-07
 40
0
 40
0
 40
0
 40
0
 40
1
 40
1
 40
1
 40
1
 10
759.4537640042901
 20
888.210320562924
 30
0
 10
761.1197410042901
 20
885.163100562924
 30
0
 10
761.1197410042901
 20
885.163100562924
 30
0
 10
811.0090990042901
 20
891.275691562924
 30
0
  0
SPLINE
  5
139
100
AcDbEntity
  8
voronoi
  6
ByLayer
 62
    7
370
   -1
100
AcDbSpline
210
0
220
0
230
0
 70
    8
 71
    3
 72
    8
 73
    4
 74
    0
 42
1e-07
 43
1e-07
 40
0
 40
0
 40
0
 40
0
 40
1
 40
1
 40
1
 40
1
 10
811.0090990042901
 20
891.275691562924
 30
0
 10
860.89845700429
 20
897.388180562924
 30
0
 10
860.89845700429
 20
897.388180562924
 30
0
 10
860.89845700429
 20
987.729610562924
 30
0
  0
SPLINE
  5
13A
100
AcDbEntity
  8
voronoi
  6
ByLayer
 62
    7
370
   -1
100
AcDbSpline
210
0
220
0
230
0
 70
    8
 71
    3
 72
    8
 73
    4
 74
    0
 42
1e-07
 43
1e-07
 40
0
 40
0
 40
0
 40
0
 40
1
 40
1
 40
1
 40
1
 10
860.89845700429
 20
987.729610562924
 30
0
 10
860.89845700429
 20
1078.070939562924
 30
0
 10
860.89845700429
 20
1078.070939562924
 30
0
 10
812.91851700429
 20
1045.239018562924
 30
0
  0
SPLINE
  5
13B
100
AcDbEntity
  8
voronoi
  6
ByLayer
 62
    7
370
   -1
100
AcDbSpline
210
0
220
0
230
0
 70
    8
 71
    3
 72
    8
 73
    4
 74
    0
 42
1e-07
 43
1e-07
 40
0
 40
0
 40
0
 40
0
 40
1
 40
1
 40
1
 40
1
 10
812.91851700429
 20
1045.239018562924
 30
0
 10
764.9385770042901
 20
1012.407098562924
 30
0
 10
764.9385770042901
 20
1012.407098562924
 30
0
 10
761.36318200429
 20
951.832319562924
 30
0
  0
SPLINE
  5
13C
100
AcDbEntity
  8
voronoi
  6
ByLayer
 62
    7
370
   -1
100
AcDbSpline
210
0
220
0
230
0
 70
    8
 71
    3
 72
    8
 73
    4
 74
    0
 42
1e-07
 43
1e-07
 40
0
 40
0
 40
0
 40
0
 40
1
 40
1
 40
1
 40
1
 10
761.36318200429
 20
951.832319562924
 30
0
 10
757.7877870042901
 20
891.257540562924
 30
0
 10
757.7877870042901
 20
891.257540562924
 30
0
 10
759.4537640042901
 20
888.210320562924
 30
0
  0
LINE
  5
13D
100
AcDbEntity
  8
voronoi
  6
ByLayer
 62
    7
370
   -1
100
AcDbLine
 10
759.4537640042901
 20
888.210320562924
 11
759.4537640042901
 21
888.210320562924
  0
SPLINE
  5
13E
100
AcDbEntity
  8
voronoi
  6
ByLayer
 62
    7
370
   -1
100
AcDbSpline
210
0
220
0
230
0
 70
    8
 71
    3
 72
    8
 73
    4
 74
    0
 42
1e-07
 43
1e-07
 40
0
 40
0
 40
0
 40
0
 40
1
 40
1
 40
1
 40
1
 10
329.79320600429
 20
853.443453562924
 30
0
 10
368.0970390042901
 20
792.317552562924
 30
0
 10
368.0970390042901
 20
792.317552562924
 30
0
 10
433.2355290042901
 20
795.4985415629241
 30
0
  0
SPLINE
  5
13F
100
AcDbEntity
  8
voronoi
  6
ByLayer
 62
    7
370
   -1
100
AcDbSpline
210
0
220
0
230
0
 70
    8
 71
    3
 72
    8
 73
    4
 74
    0
 42
1e-07
 43
1e-07
 40
0
 40
0
 40
0
 40
0
 40
1
 40
1
 40
1
 40
1
 10
433.2355290042901
 20
795.4985415629241
 30
0
 10
498.3740200042901
 20
798.679431562924
 30
0
 10
498.3740200042901
 20
798.679431562924
 30
0
 10
510.20504400429
 20
895.132949562924
 30
0
  0
SPLINE
  5
140
100
AcDbEntity
  8
voronoi
  6
ByLayer
 62
    7
370
   -1
100
AcDbSpline
210
0
220
0
230
0
 70
    8
 71
    3
 72
    8
 73
    4
 74
    0
 42
1e-07
 43
1e-07
 40
0
 40
0
 40
0
 40
0
 40
1
 40
1
 40
1
 40
1
 10
510.20504400429
 20
895.132949562924
 30
0
 10
522.0360690042901
 20
991.586467562924
 30
0
 10
522.0360690042901
 20
991.586467562924
 30
0
 10
505.6557210042901
 20
1006.713867562924
 30
0
  0
SPLINE
  5
141
100
AcDbEntity
  8
voronoi
  6
ByLayer
 62
    7
370
   -1
100
AcDbSpline
210
0
220
0
230
0
 70
    8
 71
    3
 72
    8
 73
    4
 74
    0
 42
1e-07
 43
1e-07
 40
0
 40
0
 40
0
 40
0
 40
1
 40
1
 40
1
 40
1
 10
505.6557210042901
 20
1006.713867562924
 30
0
 10
489.2753630042901
 20
1021.841266562924
 30
0
 10
489.2753630042901
 20
1021.841266562924
 30
0
 10
416.12274900429
 20
1016.912347562924
 30
0
  0
SPLINE
  5
142
100
AcDbEntity
  8
voronoi
  6
ByLayer
 62
    7
370
   -1
100
AcDbSpline
210
0
220
0
230
0
 70
    8
 71
    3
 72
    8
 73
    4
 74
    0
 42
1e-07
 43
1e-07
 40
0
 40
0
 40
0
 40
0
 40
1
 40
1
 40
1
 40
1
 10
416.12274900429
 20
1016.912347562924
 30
0
 10
342.97012500429
 20
1011.983327562924
 30
0
 10
342.97012500429
 20
1011.983327562924
 30
0
 10
317.2297490042901
 20
963.276341562924
 30
0
  0
SPLINE
  5
143
100
AcDbEntity
  8
voronoi
  6
ByLayer
 62
    7
370
   -1
100
AcDbSpline
210
0
220
0
230
0
 70
    8
 71
    3
 72
    8
 73
    4
 74
    0
 42
1e-07
 43
1e-07
 40
0
 40
0
 40
0
 40
0
 40
1
 40
1
 40
1
 40
1
 10
317.2297490042901
 20
963.276341562924
 30
0
 10
291.48937300429
 20
914.569355562924
 30
0
 10
291.48937300429
 20
914.569355562924
 30
0
 10
329.79320600429
 20
853.443453562924
 30
0
  0
LINE
  5
144
100
AcDbEntity
  8
voronoi
  6
ByLayer
 62
    7
370
   -1
100
AcDbLine
 10
329.79320600429
 20
853.443453562924
 11
329.79320600429
 21
853.443453562924
  0
SPLINE
  5
145
100
AcDbEntity
  8
voronoi
  6
ByLayer
 62
    7
370
   -1
100
AcDbSpline
210
0
220
0
230
0
 70
    8
 71
    3
 72
    8
 73
    4
 74
    0
 42
1e-07
 43
1e-07
 40
0
 40
0
 40
0
 40
0
 40
1
 40
1
 40
1
 40
1
 10
538.81870100429
 20
774.130096562924
 30
0
 10
563.29419700429
 20
753.914437562924
 30
0
 10
563.29419700429
 20
753.914437562924
 30
0
 10
629.3866700042901
 20
760.8627365629239
 30
0
  0
SPLINE
  5
146
100
AcDbEntity
  8
voronoi
  6
ByLayer
 62
    7
370
   -1
100
AcDbSpline
210
0
220
0
230
0
 70
    8
 71
    3
 72
    8
 73
    4
 74
    0
 42
1e-07
 43
1e-07
 40
0
 40
0
 40
0
 40
0
 40
1
 40
1
 40
1
 40
1
 10
629.3866700042901
 20
760.8627365629239
 30
0
 10
695.47913200429
 20
767.810936562924
 30
0
 10
695.47913200429
 20
767.810936562924
 30
0
 10
721.43598900429
 20
822.045395562924
 30
0
  0
SPLINE
  5
147
100
AcDbEntity
  8
voronoi
  6
ByLayer
 62
    7
370
   -1
100
AcDbSpline
210
0
220
0
230
0
 70
    8
 71
    3
 72
    8
 73
    4
 74
    0
 42
1e-07
 43
1e-07
 40
0
 40
0
 40
0
 40
0
 40
1
 40
1
 40
1
 40
1
 10
721.43598900429
 20
822.045395562924
 30
0
 10
747.3928450042901
 20
876.279955562924
 30
0
 10
747.3928450042901
 20
876.279955562924
 30
0
 10
745.37711100429
 20
879.9668425629239
 30
0
  0
SPLINE
  5
148
100
AcDbEntity
  8
voronoi
  6
ByLayer
 62
    7
370
   -1
100
AcDbSpline
210
0
220
0
230
0
 70
    8
 71
    3
 72
    8
 73
    4
 74
    0
 42
1e-07
 43
1e-07
 40
0
 40
0
 40
0
 40
0
 40
1
 40
1
 40
1
 40
1
 10
745.37711100429
 20
879.9668425629239
 30
0
 10
743.3613680042901
 20
883.653830562924
 30
0
 10
743.3613680042901
 20
883.653830562924
 30
0
 10
650.8703630042901
 20
935.748276562924
 30
0
  0
SPLINE
  5
149
100
AcDbEntity
  8
voronoi
  6
ByLayer
 62
    7
370
   -1
100
AcDbSpline
210
0
220
0
230
0
 70
    8
 71
    3
 72
    8
 73
    4
 74
    0
 42
1e-07
 43
1e-07
 40
0
 40
0
 40
0
 40
0
 40
1
 40
1
 40
1
 40
1
 10
650.8703630042901
 20
935.748276562924
 30
0
 10
558.37934800429
 20
987.842722562924
 30
0
 10
558.37934800429
 20
987.842722562924
 30
0
 10
548.17311800429
 20
987.391175562924
 30
0
  0
SPLINE
  5
14A
100
AcDbEntity
  8
voronoi
  6
ByLayer
 62
    7
370
   -1
100
AcDbSpline
210
0
220
0
230
0
 70
    8
 71
    3
 72
    8
 73
    4
 74
    0
 42
1e-07
 43
1e-07
 40
0
 40
0
 40
0
 40
0
 40
1
 40
1
 40
1
 40
1
 10
548.17311800429
 20
987.391175562924
 30
0
 10
537.96688800429
 20
986.939727562924
 30
0
 10
537.96688800429
 20
986.939727562924
 30
0
 10
526.1550420042901
 20
890.642641562924
 30
0
  0
SPLINE
  5
14B
100
AcDbEntity
  8
voronoi
  6
ByLayer
 62
    7
370
   -1
100
AcDbSpline
210
0
220
0
230
0
 70
    8
 71
    3
 72
    8
 73
    4
 74
    0
 42
1e-07
 43
1e-07
 40
0
 40
0
 40
0
 40
0
 40
1
 40
1
 40
1
 40
1
 10
526.1550420042901
 20
890.642641562924
 30
0
 10
514.3432060042901
 20
794.345656562924
 30
0
 10
514.3432060042901
 20
794.345656562924
 30
0
 10
538.81870100429
 20
774.130096562924
 30
0
  0
LINE
  5
14C
100
AcDbEntity
  8
voronoi
  6
ByLayer
 62
    7
370
   -1
100
AcDbLine
 10
538.81870100429
 20
774.130096562924
 11
538.81870100429
 21
774.130096562924
  0
SPLINE
  5
14D
100
AcDbEntity
  8
voronoi
  6
ByLayer
 62
    7
370
   -1
100
AcDbSpline
210
0
220
0
230
0
 70
    8
 71
    3
 72
    8
 73
    4
 74
    0
 42
1e-07
 43
1e-07
 40
0
 40
0
 40
0
 40
0
 40
1
 40
1
 40
1
 40
1
 10
226.1910670042901
 20
747.0641085629239
 30
0
 10
312.3356760042901
 20
721.654497562924
 30
0
 10
312.3356760042901
 20
721.654497562924
 30
0
 10
333.14944800429
 20
752.926106562924
 30
0
  0
SPLINE
  5
14E
100
AcDbEntity
  8
voronoi
  6
ByLayer
 62
    7
370
   -1
100
AcDbSpline
210
0
220
0
230
0
 70
    8
 71
    3
 72
    8
 73
    4
 74
    0
 42
1e-07
 43
1e-07
 40
0
 40
0
 40
0
 40
0
 40
1
 40
1
 40
1
 40
1
 10
333.14944800429
 20
752.926106562924
 30
0
 10
353.96321000429
 20
784.197815562924
 30
0
 10
353.96321000429
 20
784.197815562924
 30
0
 10
315.88628100429
 20
844.961516562924
 30
0
  0
SPLINE
  5
14F
100
AcDbEntity
  8
voronoi
  6
ByLayer
 62
    7
370
   -1
100
AcDbSpline
210
0
220
0
230
0
 70
    8
 71
    3
 72
    8
 73
    4
 74
    0
 42
1e-07
 43
1e-07
 40
0
 40
0
 40
0
 40
0
 40
1
 40
1
 40
1
 40
1
 10
315.88628100429
 20
844.961516562924
 30
0
 10
277.80936300429
 20
905.725317562924
 30
0
 10
277.80936300429
 20
905.725317562924
 30
0
 10
208.9279090042901
 20
898.611561562924
 30
0
  0
SPLINE
  5
150
100
AcDbEntity
  8
voronoi
  6
ByLayer
 62
    7
370
   -1
100
AcDbSpline
210
0
220
0
230
0
 70
    8
 71
    3
 72
    8
 73
    4
 74
    0
 42
1e-07
 43
1e-07
 40
0
 40
0
 40
0
 40
0
 40
1
 40
1
 40
1
 40
1
 10
208.9279090042901
 20
898.611561562924
 30
0
 10
140.0464570042901
 20
891.497704562924
 30
0
 10
140.0464570042901
 20
891.497704562924
 30
0
 10
140.0464570042901
 20
831.9856625629239
 30
0
  0
SPLINE
  5
151
100
AcDbEntity
  8
voronoi
  6
ByLayer
 62
    7
370
   -1
100
AcDbSpline
210
0
220
0
230
0
 70
    8
 71
    3
 72
    8
 73
    4
 74
    0
 42
1e-07
 43
1e-07
 40
0
 40
0
 40
0
 40
0
 40
1
 40
1
 40
1
 40
1
 10
140.0464570042901
 20
831.9856625629239
 30
0
 10
140.0464570042901
 20
772.473619562924
 30
0
 10
140.0464570042901
 20
772.473619562924
 30
0
 10
226.1910670042901
 20
747.0641085629239
 30
0
  0
LINE
  5
152
100
AcDbEntity
  8
voronoi
  6
ByLayer
 62
    7
370
   -1
100
AcDbLine
 10
226.1910670042901
 20
747.0641085629239
 11
226.1910670042901
 21
747.0641085629239
  0
SPLINE
  5
153
100
AcDbEntity
  8
voronoi
  6
ByLayer
 62
    7
370
   -1
100
AcDbSpline
210
0
220
0
230
0
 70
    8
 71
    3
 72
    8
 73
    4
 74
    0
 42
1e-07
 43
1e-07
 40
0
 40
0
 40
0
 40
0
 40
1
 40
1
 40
1
 40
1
 10
742.50385100429
 20
722.785623562924
 30
0
 10
774.47469200429
 20
684.110958562924
 30
0
 10
774.47469200429
 20
684.110958562924
 30
0
 10
817.68657400429
 20
666.853272562924
 30
0
  0
SPLINE
  5
154
100
AcDbEntity
  8
voronoi
  6
ByLayer
 62
    7
370
   -1
100
AcDbSpline
210
0
220
0
230
0
 70
    8
 71
    3
 72
    8
 73
    4
 74
    0
 42
1e-07
 43
1e-07
 40
0
 40
0
 40
0
 40
0
 40
1
 40
1
 40
1
 40
1
 10
817.68657400429
 20
666.853272562924
 30
0
 10
860.89845700429
 20
649.595686562924
 30
0
 10
860.89845700429
 20
649.595686562924
 30
0
 10
860.89845700429
 20
765.407194562924
 30
0
  0
SPLINE
  5
155
100
AcDbEntity
  8
voronoi
  6
ByLayer
 62
    7
370
   -1
100
AcDbSpline
210
0
220
0
230
0
 70
    8
 71
    3
 72
    8
 73
    4
 74
    0
 42
1e-07
 43
1e-07
 40
0
 40
0
 40
0
 40
0
 40
1
 40
1
 40
1
 40
1
 10
860.89845700429
 20
765.407194562924
 30
0
 10
860.89845700429
 20
881.218802562924
 30
0
 10
860.89845700429
 20
881.218802562924
 30
0
 10
811.4760760042901
 20
875.163470562924
 30
0
  0
SPLINE
  5
156
100
AcDbEntity
  8
voronoi
  6
ByLayer
 62
    7
370
   -1
100
AcDbSpline
210
0
220
0
230
0
 70
    8
 71
    3
 72
    8
 73
    4
 74
    0
 42
1e-07
 43
1e-07
 40
0
 40
0
 40
0
 40
0
 40
1
 40
1
 40
1
 40
1
 10
811.4760760042901
 20
875.163470562924
 30
0
 10
762.05370500429
 20
869.108138562924
 30
0
 10
762.05370500429
 20
869.108138562924
 30
0
 10
736.2933520042901
 20
815.284213562924
 30
0
  0
SPLINE
  5
157
100
AcDbEntity
  8
voronoi
  6
ByLayer
 62
    7
370
   -1
100
AcDbSpline
210
0
220
0
230
0
 70
    8
 71
    3
 72
    8
 73
    4
 74
    0
 42
1e-07
 43
1e-07
 40
0
 40
0
 40
0
 40
0
 40
1
 40
1
 40
1
 40
1
 10
736.2933520042901
 20
815.284213562924
 30
0
 10
710.5330100042901
 20
761.460288562924
 30
0
 10
710.5330100042901
 20
761.460288562924
 30
0
 10
742.50385100429
 20
722.785623562924
 30
0
  0
LINE
  5
158
100
AcDbEntity
  8
voronoi
  6
ByLayer
 62
    7
370
   -1
100
AcDbLine
 10
742.50385100429
 20
722.785623562924
 11
742.50385100429
 21
722.785623562924
  0
SPLINE
  5
159
100
AcDbEntity
  8
voronoi
  6
ByLayer
 62
    7
370
   -1
100
AcDbSpline
210
0
220
0
230
0
 70
    8
 71
    3
 72
    8
 73
    4
 74
    0
 42
1e-07
 43
1e-07
 40
0
 40
0
 40
0
 40
0
 40
1
 40
1
 40
1
 40
1
 10
220.84380200429
 20
640.275232562924
 30
0
 10
301.6411500042901
 20
665.537335562924
 30
0
 10
301.6411500042901
 20
665.537335562924
 30
0
 10
304.2520170042901
 20
686.024946562924
 30
0
  0
SPLINE
  5
15A
100
AcDbEntity
  8
voronoi
  6
ByLayer
 62
    7
370
   -1
100
AcDbSpline
210
0
220
0
230
0
 70
    8
 71
    3
 72
    8
 73
    4
 74
    0
 42
1e-07
 43
1e-07
 40
0
 40
0
 40
0
 40
0
 40
1
 40
1
 40
1
 40
1
 10
304.2520170042901
 20
686.024946562924
 30
0
 10
306.8628730042901
 20
706.512557562924
 30
0
 10
306.8628730042901
 20
706.512557562924
 30
0
 10
223.4546670042901
 20
731.1149385629241
 30
0
  0
SPLINE
  5
15B
100
AcDbEntity
  8
voronoi
  6
ByLayer
 62
    7
370
   -1
100
AcDbSpline
210
0
220
0
230
0
 70
    8
 71
    3
 72
    8
 73
    4
 74
    0
 42
1e-07
 43
1e-07
 40
0
 40
0
 40
0
 40
0
 40
1
 40
1
 40
1
 40
1
 10
223.4546670042901
 20
731.1149385629241
 30
0
 10
140.0464570042901
 20
755.717319562924
 30
0
 10
140.0464570042901
 20
755.717319562924
 30
0
 10
140.0464570042901
 20
685.365223562924
 30
0
  0
SPLINE
  5
15C
100
AcDbEntity
  8
voronoi
  6
ByLayer
 62
    7
370
   -1
100
AcDbSpline
210
0
220
0
230
0
 70
    8
 71
    3
 72
    8
 73
    4
 74
    0
 42
1e-07
 43
1e-07
 40
0
 40
0
 40
0
 40
0
 40
1
 40
1
 40
1
 40
1
 10
140.0464570042901
 20
685.365223562924
 30
0
 10
140.0464570042901
 20
615.0131285629241
 30
0
 10
140.0464570042901
 20
615.0131285629241
 30
0
 10
220.84380200429
 20
640.275232562924
 30
0
  0
LINE
  5
15D
100
AcDbEntity
  8
voronoi
  6
ByLayer
 62
    7
370
   -1
100
AcDbLine
 10
220.84380200429
 20
640.275232562924
 11
220.84380200429
 21
640.275232562924
  0
SPLINE
  5
15E
100
AcDbEntity
  8
voronoi
  6
ByLayer
 62
    7
370
   -1
100
AcDbSpline
210
0
220
0
230
0
 70
    8
 71
    3
 72
    8
 73
    4
 74
    0
 42
1e-07
 43
1e-07
 40
0
 40
0
 40
0
 40
0
 40
1
 40
1
 40
1
 40
1
 10
323.48558700429
 20
649.526294562924
 30
0
 10
329.4102430042901
 20
638.1474525629241
 30
0
 10
329.4102430042901
 20
638.1474525629241
 30
0
 10
404.77674300429
 20
613.632513562924
 30
0
  0
SPLINE
  5
15F
100
AcDbEntity
  8
voronoi
  6
ByLayer
 62
    7
370
   -1
100
AcDbSpline
210
0
220
0
230
0
 70
    8
 71
    3
 72
    8
 73
    4
 74
    0
 42
1e-07
 43
1e-07
 40
0
 40
0
 40
0
 40
0
 40
1
 40
1
 40
1
 40
1
 10
404.77674300429
 20
613.632513562924
 30
0
 10
480.1432430042901
 20
589.117574562924
 30
0
 10
480.1432430042901
 20
589.117574562924
 30
0
 10
506.3703980042901
 20
619.052088562924
 30
0
  0
SPLINE
  5
160
100
AcDbEntity
  8
voronoi
  6
ByLayer
 62
    7
370
   -1
100
AcDbSpline
210
0
220
0
230
0
 70
    8
 71
    3
 72
    8
 73
    4
 74
    0
 42
1e-07
 43
1e-07
 40
0
 40
0
 40
0
 40
0
 40
1
 40
1
 40
1
 40
1
 10
506.3703980042901
 20
619.052088562924
 30
0
 10
532.59755400429
 20
648.986603562924
 30
0
 10
532.59755400429
 20
648.986603562924
 30
0
 10
542.15186400429
 20
695.741796562924
 30
0
  0
SPLINE
  5
161
100
AcDbEntity
  8
voronoi
  6
ByLayer
 62
    7
370
   -1
100
AcDbSpline
210
0
220
0
230
0
 70
    8
 71
    3
 72
    8
 73
    4
 74
    0
 42
1e-07
 43
1e-07
 40
0
 40
0
 40
0
 40
0
 40
1
 40
1
 40
1
 40
1
 10
542.15186400429
 20
695.741796562924
 30
0
 10
551.70618400429
 20
742.496989562924
 30
0
 10
551.70618400429
 20
742.496989562924
 30
0
 10
527.28726100429
 20
762.665819562924
 30
0
  0
SPLINE
  5
162
100
AcDbEntity
  8
voronoi
  6
ByLayer
 62
    7
370
   -1
100
AcDbSpline
210
0
220
0
230
0
 70
    8
 71
    3
 72
    8
 73
    4
 74
    0
 42
1e-07
 43
1e-07
 40
0
 40
0
 40
0
 40
0
 40
1
 40
1
 40
1
 40
1
 10
527.28726100429
 20
762.665819562924
 30
0
 10
502.8683270042901
 20
782.834649562924
 30
0
 10
502.8683270042901
 20
782.834649562924
 30
0
 10
435.55220800429
 20
779.547365562924
 30
0
  0
SPLINE
  5
163
100
AcDbEntity
  8
voronoi
  6
ByLayer
 62
    7
370
   -1
100
AcDbSpline
210
0
220
0
230
0
 70
    8
 71
    3
 72
    8
 73
    4
 74
    0
 42
1e-07
 43
1e-07
 40
0
 40
0
 40
0
 40
0
 40
1
 40
1
 40
1
 40
1
 10
435.55220800429
 20
779.547365562924
 30
0
 10
368.2361000042901
 20
776.260082562924
 30
0
 10
368.2361000042901
 20
776.260082562924
 30
0
 10
345.98917400429
 20
742.8352235629239
 30
0
  0
SPLINE
  5
164
100
AcDbEntity
  8
voronoi
  6
ByLayer
 62
    7
370
   -1
100
AcDbSpline
210
0
220
0
230
0
 70
    8
 71
    3
 72
    8
 73
    4
 74
    0
 42
1e-07
 43
1e-07
 40
0
 40
0
 40
0
 40
0
 40
1
 40
1
 40
1
 40
1
 10
345.98917400429
 20
742.8352235629239
 30
0
 10
323.7422580042901
 20
709.410364562924
 30
0
 10
323.7422580042901
 20
709.410364562924
 30
0
 10
320.65159400429
 20
685.157750562924
 30
0
  0
SPLINE
  5
165
100
AcDbEntity
  8
voronoi
  6
ByLayer
 62
    7
370
   -1
100
AcDbSpline
210
0
220
0
230
0
 70
    8
 71
    3
 72
    8
 73
    4
 74
    0
 42
1e-07
 43
1e-07
 40
0
 40
0
 40
0
 40
0
 40
1
 40
1
 40
1
 40
1
 10
320.65159400429
 20
685.157750562924
 30
0
 10
317.5609310042901
 20
660.905136562924
 30
0
 10
317.5609310042901
 20
660.905136562924
 30
0
 10
323.48558700429
 20
649.526294562924
 30
0
  0
LINE
  5
166
100
AcDbEntity
  8
voronoi
  6
ByLayer
 62
    7
370
   -1
100
AcDbLine
 10
323.48558700429
 20
649.526294562924
 11
323.48558700429
 21
649.526294562924
  0
SPLINE
  5
167
100
AcDbEntity
  8
voronoi
  6
ByLayer
 62
    7
370
   -1
100
AcDbSpline
210
0
220
0
230
0
 70
    8
 71
    3
 72
    8
 73
    4
 74
    0
 42
1e-07
 43
1e-07
 40
0
 40
0
 40
0
 40
0
 40
1
 40
1
 40
1
 40
1
 10
606.6458160042901
 20
597.179250562924
 30
0
 10
664.13850400429
 20
546.1170565629241
 30
0
 10
664.13850400429
 20
546.1170565629241
 30
0
 10
711.64692100429
 20
611.630481562924
 30
0
  0
SPLINE
  5
168
100
AcDbEntity
  8
voronoi
  6
ByLayer
 62
    7
370
   -1
100
AcDbSpline
210
0
220
0
230
0
 70
    8
 71
    3
 72
    8
 73
    4
 74
    0
 42
1e-07
 43
1e-07
 40
0
 40
0
 40
0
 40
0
 40
1
 40
1
 40
1
 40
1
 10
711.64692100429
 20
611.630481562924
 30
0
 10
759.1553370042901
 20
677.1438065629239
 30
0
 10
759.1553370042901
 20
677.1438065629239
 30
0
 10
728.2670340042901
 20
714.508953562924
 30
0
  0
SPLINE
  5
169
100
AcDbEntity
  8
voronoi
  6
ByLayer
 62
    7
370
   -1
100
AcDbSpline
210
0
220
0
230
0
 70
    8
 71
    3
 72
    8
 73
    4
 74
    0
 42
1e-07
 43
1e-07
 40
0
 40
0
 40
0
 40
0
 40
1
 40
1
 40
1
 40
1
 10
728.2670340042901
 20
714.508953562924
 30
0
 10
697.37873100429
 20
751.874099562924
 30
0
 10
697.37873100429
 20
751.874099562924
 30
0
 10
632.4598340042901
 20
745.0492415629241
 30
0
  0
SPLINE
  5
16A
100
AcDbEntity
  8
voronoi
  6
ByLayer
 62
    7
370
   -1
100
AcDbSpline
210
0
220
0
230
0
 70
    8
 71
    3
 72
    8
 73
    4
 74
    0
 42
1e-07
 43
1e-07
 40
0
 40
0
 40
0
 40
0
 40
1
 40
1
 40
1
 40
1
 10
632.4598340042901
 20
745.0492415629241
 30
0
 10
567.54094700429
 20
738.224383562924
 30
0
 10
567.54094700429
 20
738.224383562924
 30
0
 10
558.3470330042901
 20
693.232863562924
 30
0
  0
SPLINE
  5
16B
100
AcDbEntity
  8
voronoi
  6
ByLayer
 62
    7
370
   -1
100
AcDbSpline
210
0
220
0
230
0
 70
    8
 71
    3
 72
    8
 73
    4
 74
    0
 42
1e-07
 43
1e-07
 40
0
 40
0
 40
0
 40
0
 40
1
 40
1
 40
1
 40
1
 10
558.3470330042901
 20
693.232863562924
 30
0
 10
549.15311800429
 20
648.241444562924
 30
0
 10
549.15311800429
 20
648.241444562924
 30
0
 10
606.6458160042901
 20
597.179250562924
 30
0
  0
LINE
  5
16C
100
AcDbEntity
  8
voronoi
  6
ByLayer
 62
    7
370
   -1
100
AcDbLine
 10
606.6458160042901
 20
597.179250562924
 11
606.6458160042901
 21
597.179250562924
  0
SPLINE
  5
16D
100
AcDbEntity
  8
voronoi
  6
ByLayer
 62
    7
370
   -1
100
AcDbSpline
210
0
220
0
230
0
 70
    8
 71
    3
 72
    8
 73
    4
 74
    0
 42
1e-07
 43
1e-07
 40
0
 40
0
 40
0
 40
0
 40
1
 40
1
 40
1
 40
1
 10
191.48937900429
 20
485.576371562924
 30
0
 10
242.9323010042901
 20
461.020319562924
 30
0
 10
242.9323010042901
 20
461.020319562924
 30
0
 10
269.19626700429
 20
482.7890705629241
 30
0
  0
SPLINE
  5
16E
100
AcDbEntity
  8
voronoi
  6
ByLayer
 62
    7
370
   -1
100
AcDbSpline
210
0
220
0
230
0
 70
    8
 71
    3
 72
    8
 73
    4
 74
    0
 42
1e-07
 43
1e-07
 40
0
 40
0
 40
0
 40
0
 40
1
 40
1
 40
1
 40
1
 10
269.19626700429
 20
482.7890705629241
 30
0
 10
295.46023300429
 20
504.557720562924
 30
0
 10
295.46023300429
 20
504.557720562924
 30
0
 10
305.3011120042901
 20
567.394550562924
 30
0
  0
SPLINE
  5
16F
100
AcDbEntity
  8
voronoi
  6
ByLayer
 62
    7
370
   -1
100
AcDbSpline
210
0
220
0
230
0
 70
    8
 71
    3
 72
    8
 73
    4
 74
    0
 42
1e-07
 43
1e-07
 40
0
 40
0
 40
0
 40
0
 40
1
 40
1
 40
1
 40
1
 10
305.3011120042901
 20
567.394550562924
 30
0
 10
315.14200200429
 20
630.2313795629241
 30
0
 10
315.14200200429
 20
630.2313795629241
 30
0
 10
310.0630980042901
 20
639.9859325629241
 30
0
  0
SPLINE
  5
170
100
AcDbEntity
  8
voronoi
  6
ByLayer
 62
    7
370
   -1
100
AcDbSpline
210
0
220
0
230
0
 70
    8
 71
    3
 72
    8
 73
    4
 74
    0
 42
1e-07
 43
1e-07
 40
0
 40
0
 40
0
 40
0
 40
1
 40
1
 40
1
 40
1
 10
310.0630980042901
 20
639.9859325629241
 30
0
 10
304.98419400429
 20
649.7403865629241
 30
0
 10
304.98419400429
 20
649.7403865629241
 30
0
 10
222.51532700429
 20
623.955638562924
 30
0
  0
SPLINE
  5
171
100
AcDbEntity
  8
voronoi
  6
ByLayer
 62
    7
370
   -1
100
AcDbSpline
210
0
220
0
230
0
 70
    8
 71
    3
 72
    8
 73
    4
 74
    0
 42
1e-07
 43
1e-07
 40
0
 40
0
 40
0
 40
0
 40
1
 40
1
 40
1
 40
1
 10
222.51532700429
 20
623.955638562924
 30
0
 10
140.0464570042901
 20
598.170990562924
 30
0
 10
140.0464570042901
 20
598.170990562924
 30
0
 10
140.0464570042901
 20
554.151757562924
 30
0
  0
SPLINE
  5
172
100
AcDbEntity
  8
voronoi
  6
ByLayer
 62
    7
370
   -1
100
AcDbSpline
210
0
220
0
230
0
 70
    8
 71
    3
 72
    8
 73
    4
 74
    0
 42
1e-07
 43
1e-07
 40
0
 40
0
 40
0
 40
0
 40
1
 40
1
 40
1
 40
1
 10
140.0464570042901
 20
554.151757562924
 30
0
 10
140.0464570042901
 20
510.132524562924
 30
0
 10
140.0464570042901
 20
510.132524562924
 30
0
 10
191.48937900429
 20
485.576371562924
 30
0
  0
LINE
  5
173
100
AcDbEntity
  8
voronoi
  6
ByLayer
 62
    7
370
   -1
100
AcDbLine
 10
191.48937900429
 20
485.576371562924
 11
191.48937900429
 21
485.576371562924
  0
SPLINE
  5
174
100
AcDbEntity
  8
voronoi
  6
ByLayer
 62
    7
370
   -1
100
AcDbSpline
210
0
220
0
230
0
 70
    8
 71
    3
 72
    8
 73
    4
 74
    0
 42
1e-07
 43
1e-07
 40
0
 40
0
 40
0
 40
0
 40
1
 40
1
 40
1
 40
1
 10
674.8986540042901
 20
504.674343562924
 30
0
 10
676.0256610042901
 20
477.6570895629241
 30
0
 10
676.0256610042901
 20
477.6570895629241
 30
0
 10
684.2299290042901
 20
468.429090562924
 30
0
  0
SPLINE
  5
175
100
AcDbEntity
  8
voronoi
  6
ByLayer
 62
    7
370
   -1
100
AcDbSpline
210
0
220
0
230
0
 70
    8
 71
    3
 72
    8
 73
    4
 74
    0
 42
1e-07
 43
1e-07
 40
0
 40
0
 40
0
 40
0
 40
1
 40
1
 40
1
 40
1
 10
684.2299290042901
 20
468.429090562924
 30
0
 10
692.43418800429
 20
459.201092562924
 30
0
 10
692.43418800429
 20
459.201092562924
 30
0
 10
709.82030800429
 20
454.1639735629241
 30
0
  0
SPLINE
  5
176
100
AcDbEntity
  8
voronoi
  6
ByLayer
 62
    7
370
   -1
100
AcDbSpline
210
0
220
0
230
0
 70
    8
 71
    3
 72
    8
 73
    4
 74
    0
 42
1e-07
 43
1e-07
 40
0
 40
0
 40
0
 40
0
 40
1
 40
1
 40
1
 40
1
 10
709.82030800429
 20
454.1639735629241
 30
0
 10
727.20642900429
 20
449.126855562924
 30
0
 10
727.20642900429
 20
449.126855562924
 30
0
 10
794.0524480042901
 20
490.299623562924
 30
0
  0
SPLINE
  5
177
100
AcDbEntity
  8
voronoi
  6
ByLayer
 62
    7
370
   -1
100
AcDbSpline
210
0
220
0
230
0
 70
    8
 71
    3
 72
    8
 73
    4
 74
    0
 42
1e-07
 43
1e-07
 40
0
 40
0
 40
0
 40
0
 40
1
 40
1
 40
1
 40
1
 10
794.0524480042901
 20
490.299623562924
 30
0
 10
860.89845700429
 20
531.472491562924
 30
0
 10
860.89845700429
 20
531.472491562924
 30
0
 10
860.89845700429
 20
581.870449562924
 30
0
  0
SPLINE
  5
178
100
AcDbEntity
  8
voronoi
  6
ByLayer
 62
    7
370
   -1
100
AcDbSpline
210
0
220
0
230
0
 70
    8
 71
    3
 72
    8
 73
    4
 74
    0
 42
1e-07
 43
1e-07
 40
0
 40
0
 40
0
 40
0
 40
1
 40
1
 40
1
 40
1
 10
860.89845700429
 20
581.870449562924
 30
0
 10
860.89845700429
 20
632.268508562924
 30
0
 10
860.89845700429
 20
632.268508562924
 30
0
 10
816.6249970042901
 20
649.950065562924
 30
0
  0
SPLINE
  5
179
100
AcDbEntity
  8
voronoi
  6
ByLayer
 62
    7
370
   -1
100
AcDbSpline
210
0
220
0
230
0
 70
    8
 71
    3
 72
    8
 73
    4
 74
    0
 42
1e-07
 43
1e-07
 40
0
 40
0
 40
0
 40
0
 40
1
 40
1
 40
1
 40
1
 10
816.6249970042901
 20
649.950065562924
 30
0
 10
772.35153700429
 20
667.631723562924
 30
0
 10
772.35153700429
 20
667.631723562924
 30
0
 10
723.06159200429
 20
599.661709562924
 30
0
  0
SPLINE
  5
17A
100
AcDbEntity
  8
voronoi
  6
ByLayer
 62
    7
370
   -1
100
AcDbSpline
210
0
220
0
230
0
 70
    8
 71
    3
 72
    8
 73
    4
 74
    0
 42
1e-07
 43
1e-07
 40
0
 40
0
 40
0
 40
0
 40
1
 40
1
 40
1
 40
1
 10
723.06159200429
 20
599.661709562924
 30
0
 10
673.77164700429
 20
531.691596562924
 30
0
 10
673.77164700429
 20
531.691596562924
 30
0
 10
674.8986540042901
 20
504.674343562924
 30
0
  0
LINE
  5
17B
100
AcDbEntity
  8
voronoi
  6
ByLayer
 62
    7
370
   -1
100
AcDbLine
 10
674.8986540042901
 20
504.674343562924
 11
674.8986540042901
 21
504.674343562924
  0
SPLINE
  5
17C
100
AcDbEntity
  8
voronoi
  6
ByLayer
 62
    7
370
   -1
100
AcDbSpline
210
0
220
0
230
0
 70
    8
 71
    3
 72
    8
 73
    4
 74
    0
 42
1e-07
 43
1e-07
 40
0
 40
0
 40
0
 40
0
 40
1
 40
1
 40
1
 40
1
 10
392.04210400429
 20
487.324602562924
 30
0
 10
471.75767600429
 20
468.228737562924
 30
0
 10
472.9853770042901
 20
469.821638562924
 30
0
 10
473.7442680042901
 20
521.9338345629241
 30
0
  0
SPLINE
  5
17D
100
AcDbEntity
  8
voronoi
  6
ByLayer
 62
    7
370
   -1
100
AcDbSpline
210
0
220
0
230
0
 70
    8
 71
    3
 72
    8
 73
    4
 74
    0
 42
1e-07
 43
1e-07
 40
0
 40
0
 40
0
 40
0
 40
1
 40
1
 40
1
 40
1
 10
473.7442680042901
 20
521.9338345629241
 30
0
 10
474.50317000429
 20
574.046029562924
 30
0
 10
474.50317000429
 20
574.046029562924
 30
0
 10
402.3841290042901
 20
597.504649562924
 30
0
  0
SPLINE
  5
17E
100
AcDbEntity
  8
voronoi
  6
ByLayer
 62
    7
370
   -1
100
AcDbSpline
210
0
220
0
230
0
 70
    8
 71
    3
 72
    8
 73
    4
 74
    0
 42
1e-07
 43
1e-07
 40
0
 40
0
 40
0
 40
0
 40
1
 40
1
 40
1
 40
1
 10
402.3841290042901
 20
597.504649562924
 30
0
 10
330.26507700429
 20
620.963269562924
 30
0
 10
330.26507700429
 20
620.963269562924
 30
0
 10
321.2958050042901
 20
563.691818562924
 30
0
  0
SPLINE
  5
17F
100
AcDbEntity
  8
voronoi
  6
ByLayer
 62
    7
370
   -1
100
AcDbSpline
210
0
220
0
230
0
 70
    8
 71
    3
 72
    8
 73
    4
 74
    0
 42
1e-07
 43
1e-07
 40
0
 40
0
 40
0
 40
0
 40
1
 40
1
 40
1
 40
1
 10
321.2958050042901
 20
563.691818562924
 30
0
 10
312.32653200429
 20
506.420467562924
 30
0
 10
312.32653200429
 20
506.420467562924
 30
0
 10
392.04210400429
 20
487.324602562924
 30
0
  0
LINE
  5
180
100
AcDbEntity
  8
voronoi
  6
ByLayer
 62
    7
370
   -1
100
AcDbLine
 10
392.04210400429
 20
487.324602562924
 11
392.04210400429
 21
487.324602562924
  0
SPLINE
  5
181
100
AcDbEntity
  8
voronoi
  6
ByLayer
 62
    7
370
   -1
100
AcDbSpline
210
0
220
0
230
0
 70
    8
 71
    3
 72
    8
 73
    4
 74
    0
 42
1e-07
 43
1e-07
 40
0
 40
0
 40
0
 40
0
 40
1
 40
1
 40
1
 40
1
 10
574.4456030042901
 20
478.8235125629241
 30
0
 10
659.43931700429
 20
482.204254562924
 30
0
 10
659.43931700429
 20
482.204254562924
 30
0
 10
658.4337290042901
 20
506.3107645629241
 30
0
  0
SPLINE
  5
182
100
AcDbEntity
  8
voronoi
  6
ByLayer
 62
    7
370
   -1
100
AcDbSpline
210
0
220
0
230
0
 70
    8
 71
    3
 72
    8
 73
    4
 74
    0
 42
1e-07
 43
1e-07
 40
0
 40
0
 40
0
 40
0
 40
1
 40
1
 40
1
 40
1
 10
658.4337290042901
 20
506.3107645629241
 30
0
 10
657.4281400042901
 20
530.417275562924
 30
0
 10
657.4281400042901
 20
530.417275562924
 30
0
 10
599.18572500429
 20
582.145309562924
 30
0
  0
SPLINE
  5
183
100
AcDbEntity
  8
voronoi
  6
ByLayer
 62
    7
370
   -1
100
AcDbSpline
210
0
220
0
230
0
 70
    8
 71
    3
 72
    8
 73
    4
 74
    0
 42
1e-07
 43
1e-07
 40
0
 40
0
 40
0
 40
0
 40
1
 40
1
 40
1
 40
1
 10
599.18572500429
 20
582.145309562924
 30
0
 10
540.9433100042901
 20
633.873342562924
 30
0
 10
540.9433100042901
 20
633.873342562924
 30
0
 10
515.93554100429
 20
605.330574562924
 30
0
  0
SPLINE
  5
184
100
AcDbEntity
  8
voronoi
  6
ByLayer
 62
    7
370
   -1
100
AcDbSpline
210
0
220
0
230
0
 70
    8
 71
    3
 72
    8
 73
    4
 74
    0
 42
1e-07
 43
1e-07
 40
0
 40
0
 40
0
 40
0
 40
1
 40
1
 40
1
 40
1
 10
515.93554100429
 20
605.330574562924
 30
0
 10
490.9277620042901
 20
576.7878055629241
 30
0
 10
490.9277620042901
 20
576.7878055629241
 30
0
 10
490.1898310042901
 20
526.1153885629241
 30
0
  0
SPLINE
  5
185
100
AcDbEntity
  8
voronoi
  6
ByLayer
 62
    7
370
   -1
100
AcDbSpline
210
0
220
0
230
0
 70
    8
 71
    3
 72
    8
 73
    4
 74
    0
 42
1e-07
 43
1e-07
 40
0
 40
0
 40
0
 40
0
 40
1
 40
1
 40
1
 40
1
 10
490.1898310042901
 20
526.1153885629241
 30
0
 10
489.4519000042901
 20
475.442871562924
 30
0
 10
489.4519000042901
 20
475.442871562924
 30
0
 10
574.4456030042901
 20
478.8235125629241
 30
0
  0
LINE
  5
186
100
AcDbEntity
  8
voronoi
  6
ByLayer
 62
    7
370
   -1
100
AcDbLine
 10
574.4456030042901
 20
478.8235125629241
 11
574.4456030042901
 21
478.8235125629241
  0
SPLINE
  5
187
100
AcDbEntity
  8
voronoi
  6
ByLayer
 62
    7
370
   -1
100
AcDbSpline
210
0
220
0
230
0
 70
    8
 71
    3
 72
    8
 73
    4
 74
    0
 42
1e-07
 43
1e-07
 40
0
 40
0
 40
0
 40
0
 40
1
 40
1
 40
1
 40
1
 10
257.97201800429
 20
419.809346562924
 30
0
 10
262.93776700429
 20
391.267780562924
 30
0
 10
262.93776700429
 20
391.267780562924
 30
0
 10
306.8448830042901
 20
367.856491562924
 30
0
  0
SPLINE
  5
188
100
AcDbEntity
  8
voronoi
  6
ByLayer
 62
    7
370
   -1
100
AcDbSpline
210
0
220
0
230
0
 70
    8
 71
    3
 72
    8
 73
    4
 74
    0
 42
1e-07
 43
1e-07
 40
0
 40
0
 40
0
 40
0
 40
1
 40
1
 40
1
 40
1
 10
306.8448830042901
 20
367.856491562924
 30
0
 10
350.7519880042901
 20
344.445201562924
 30
0
 10
350.7519880042901
 20
344.445201562924
 30
0
 10
408.02028000429
 20
394.536011562924
 30
0
  0
SPLINE
  5
189
100
AcDbEntity
  8
voronoi
  6
ByLayer
 62
    7
370
   -1
100
AcDbSpline
210
0
220
0
230
0
 70
    8
 71
    3
 72
    8
 73
    4
 74
    0
 42
1e-07
 43
1e-07
 40
0
 40
0
 40
0
 40
0
 40
1
 40
1
 40
1
 40
1
 10
408.02028000429
 20
394.536011562924
 30
0
 10
465.28856200429
 20
444.6268215629241
 30
0
 10
465.28856200429
 20
444.6268215629241
 30
0
 10
465.72982800429
 20
448.838157562924
 30
0
  0
SPLINE
  5
18A
100
AcDbEntity
  8
voronoi
  6
ByLayer
 62
    7
370
   -1
100
AcDbSpline
210
0
220
0
230
0
 70
    8
 71
    3
 72
    8
 73
    4
 74
    0
 42
1e-07
 43
1e-07
 40
0
 40
0
 40
0
 40
0
 40
1
 40
1
 40
1
 40
1
 10
465.72982800429
 20
448.838157562924
 30
0
 10
466.17108300429
 20
453.049594562924
 30
0
 10
466.17108300429
 20
453.049594562924
 30
0
 10
385.68511100429
 20
472.330070562924
 30
0
  0
SPLINE
  5
18B
100
AcDbEntity
  8
voronoi
  6
ByLayer
 62
    7
370
   -1
100
AcDbSpline
210
0
220
0
230
0
 70
    8
 71
    3
 72
    8
 73
    4
 74
    0
 42
1e-07
 43
1e-07
 40
0
 40
0
 40
0
 40
0
 40
1
 40
1
 40
1
 40
1
 10
385.68511100429
 20
472.330070562924
 30
0
 10
305.19913900429
 20
491.610545562924
 30
0
 10
305.19913900429
 20
491.610545562924
 30
0
 10
279.10270900429
 20
469.980678562924
 30
0
  0
SPLINE
  5
18C
100
AcDbEntity
  8
voronoi
  6
ByLayer
 62
    7
370
   -1
100
AcDbSpline
210
0
220
0
230
0
 70
    8
 71
    3
 72
    8
 73
    4
 74
    0
 42
1e-07
 43
1e-07
 40
0
 40
0
 40
0
 40
0
 40
1
 40
1
 40
1
 40
1
 10
279.10270900429
 20
469.980678562924
 30
0
 10
253.00627900429
 20
448.350811562924
 30
0
 10
253.00627900429
 20
448.350811562924
 30
0
 10
257.97201800429
 20
419.809346562924
 30
0
  0
LINE
  5
18D
100
AcDbEntity
  8
voronoi
  6
ByLayer
 62
    7
370
   -1
100
AcDbLine
 10
257.97201800429
 20
419.809346562924
 11
257.97201800429
 21
419.809346562924
  0
SPLINE
  5
18E
100
AcDbEntity
  8
voronoi
  6
ByLayer
 62
    7
370
   -1
100
AcDbSpline
210
0
220
0
230
0
 70
    8
 71
    3
 72
    8
 73
    4
 74
    0
 42
1e-07
 43
1e-07
 40
0
 40
0
 40
0
 40
0
 40
1
 40
1
 40
1
 40
1
 10
770.76667600429
 20
381.8869595629239
 30
0
 10
802.19022200429
 20
326.1254805629241
 30
0
 10
802.19022200429
 20
326.1254805629241
 30
0
 10
831.5443400042901
 20
329.162272562924
 30
0
  0
SPLINE
  5
18F
100
AcDbEntity
  8
voronoi
  6
ByLayer
 62
    7
370
   -1
100
AcDbSpline
210
0
220
0
230
0
 70
    8
 71
    3
 72
    8
 73
    4
 74
    0
 42
1e-07
 43
1e-07
 40
0
 40
0
 40
0
 40
0
 40
1
 40
1
 40
1
 40
1
 10
831.5443400042901
 20
329.162272562924
 30
0
 10
860.89845700429
 20
332.199063562924
 30
0
 10
860.89845700429
 20
332.199063562924
 30
0
 10
860.89845700429
 20
422.358890562924
 30
0
  0
SPLINE
  5
190
100
AcDbEntity
  8
voronoi
  6
ByLayer
 62
    7
370
   -1
100
AcDbSpline
210
0
220
0
230
0
 70
    8
 71
    3
 72
    8
 73
    4
 74
    0
 42
1e-07
 43
1e-07
 40
0
 40
0
 40
0
 40
0
 40
1
 40
1
 40
1
 40
1
 10
860.89845700429
 20
422.358890562924
 30
0
 10
860.89845700429
 20
512.5187185629241
 30
0
 10
860.89845700429
 20
512.5187185629241
 30
0
 10
800.12078300429
 20
475.083578562924
 30
0
  0
SPLINE
  5
191
100
AcDbEntity
  8
voronoi
  6
ByLayer
 62
    7
370
   -1
100
AcDbSpline
210
0
220
0
230
0
 70
    8
 71
    3
 72
    8
 73
    4
 74
    0
 42
1e-07
 43
1e-07
 40
0
 40
0
 40
0
 40
0
 40
1
 40
1
 40
1
 40
1
 10
800.12078300429
 20
475.083578562924
 30
0
 10
739.3431190042901
 20
437.6484385629241
 30
0
 10
739.3431190042901
 20
437.6484385629241
 30
0
 10
770.76667600429
 20
381.8869595629239
 30
0
  0
LINE
  5
192
100
AcDbEntity
  8
voronoi
  6
ByLayer
 62
    7
370
   -1
100
AcDbLine
 10
770.76667600429
 20
381.8869595629239
 11
770.76667600429
 21
381.8869595629239
  0
SPLINE
  5
193
100
AcDbEntity
  8
voronoi
  6
ByLayer
 62
    7
370
   -1
100
AcDbSpline
210
0
220
0
230
0
 70
    8
 71
    3
 72
    8
 73
    4
 74
    0
 42
1e-07
 43
1e-07
 40
0
 40
0
 40
0
 40
0
 40
1
 40
1
 40
1
 40
1
 10
514.6696270042901
 20
378.827205562924
 30
0
 10
547.82990400429
 20
315.396936562924
 30
0
 10
547.82990400429
 20
315.396936562924
 30
0
 10
571.3363660042901
 20
316.6237255629241
 30
0
  0
SPLINE
  5
194
100
AcDbEntity
  8
voronoi
  6
ByLayer
 62
    7
370
   -1
100
AcDbSpline
210
0
220
0
230
0
 70
    8
 71
    3
 72
    8
 73
    4
 74
    0
 42
1e-07
 43
1e-07
 40
0
 40
0
 40
0
 40
0
 40
1
 40
1
 40
1
 40
1
 10
571.3363660042901
 20
316.6237255629241
 30
0
 10
594.84282700429
 20
317.850515562924
 30
0
 10
594.84282700429
 20
317.850515562924
 30
0
 10
636.2773700042901
 20
384.5888255629239
 30
0
  0
SPLINE
  5
195
100
AcDbEntity
  8
voronoi
  6
ByLayer
 62
    7
370
   -1
100
AcDbSpline
210
0
220
0
230
0
 70
    8
 71
    3
 72
    8
 73
    4
 74
    0
 42
1e-07
 43
1e-07
 40
0
 40
0
 40
0
 40
0
 40
1
 40
1
 40
1
 40
1
 10
636.2773700042901
 20
384.5888255629239
 30
0
 10
677.71192200429
 20
451.327135562924
 30
0
 10
677.71192200429
 20
451.327135562924
 30
0
 10
671.03711900429
 20
458.834780562924
 30
0
  0
SPLINE
  5
196
100
AcDbEntity
  8
voronoi
  6
ByLayer
 62
    7
370
   -1
100
AcDbSpline
210
0
220
0
230
0
 70
    8
 71
    3
 72
    8
 73
    4
 74
    0
 42
1e-07
 43
1e-07
 40
0
 40
0
 40
0
 40
0
 40
1
 40
1
 40
1
 40
1
 10
671.03711900429
 20
458.834780562924
 30
0
 10
664.36232700429
 20
466.342525562924
 30
0
 10
664.36232700429
 20
466.342525562924
 30
0
 10
574.85205500429
 20
462.782187562924
 30
0
  0
SPLINE
  5
197
100
AcDbEntity
  8
voronoi
  6
ByLayer
 62
    7
370
   -1
100
AcDbSpline
210
0
220
0
230
0
 70
    8
 71
    3
 72
    8
 73
    4
 74
    0
 42
1e-07
 43
1e-07
 40
0
 40
0
 40
0
 40
0
 40
1
 40
1
 40
1
 40
1
 10
574.85205500429
 20
462.782187562924
 30
0
 10
482.96347400429
 20
456.1359225629241
 30
0
 10
482.96347400429
 20
456.1359225629241
 30
0
 10
482.2364070042901
 20
449.196748562924
 30
0
  0
SPLINE
  5
198
100
AcDbEntity
  8
voronoi
  6
ByLayer
 62
    7
370
   -1
100
AcDbSpline
210
0
220
0
230
0
 70
    8
 71
    3
 72
    8
 73
    4
 74
    0
 42
1e-07
 43
1e-07
 40
0
 40
0
 40
0
 40
0
 40
1
 40
1
 40
1
 40
1
 10
482.2364070042901
 20
449.196748562924
 30
0
 10
481.5093500042901
 20
442.257474562924
 30
0
 10
481.5093500042901
 20
442.257474562924
 30
0
 10
514.6696270042901
 20
378.827205562924
 30
0
  0
LINE
  5
199
100
AcDbEntity
  8
voronoi
  6
ByLayer
 62
    7
370
   -1
100
AcDbLine
 10
514.6696270042901
 20
378.827205562924
 11
514.6696270042901
 21
378.827205562924
  0
SPLINE
  5
19A
100
AcDbEntity
  8
voronoi
  6
ByLayer
 62
    7
370
   -1
100
AcDbSpline
210
0
220
0
230
0
 70
    8
 71
    3
 72
    8
 73
    4
 74
    0
 42
1e-07
 43
1e-07
 40
0
 40
0
 40
0
 40
0
 40
1
 40
1
 40
1
 40
1
 10
166.53380200429
 20
325.240234562924
 30
0
 10
193.02114800429
 20
323.628280562924
 30
0
 10
193.02114800429
 20
323.628280562924
 30
0
 10
219.9258140042901
 20
355.977166562924
 30
0
  0
SPLINE
  5
19B
100
AcDbEntity
  8
voronoi
  6
ByLayer
 62
    7
370
   -1
100
AcDbSpline
210
0
220
0
230
0
 70
    8
 71
    3
 72
    8
 73
    4
 74
    0
 42
1e-07
 43
1e-07
 40
0
 40
0
 40
0
 40
0
 40
1
 40
1
 40
1
 40
1
 10
219.9258140042901
 20
355.977166562924
 30
0
 10
246.83048200429
 20
388.325951562924
 30
0
 10
246.83048200429
 20
388.325951562924
 30
0
 10
241.80377900429
 20
417.217885562924
 30
0
  0
SPLINE
  5
19C
100
AcDbEntity
  8
voronoi
  6
ByLayer
 62
    7
370
   -1
100
AcDbSpline
210
0
220
0
230
0
 70
    8
 71
    3
 72
    8
 73
    4
 74
    0
 42
1e-07
 43
1e-07
 40
0
 40
0
 40
0
 40
0
 40
1
 40
1
 40
1
 40
1
 10
241.80377900429
 20
417.217885562924
 30
0
 10
236.7770850042901
 20
446.1097185629241
 30
0
 10
236.7770850042901
 20
446.1097185629241
 30
0
 10
188.41177000429
 20
469.1967125629241
 30
0
  0
SPLINE
  5
19D
100
AcDbEntity
  8
voronoi
  6
ByLayer
 62
    7
370
   -1
100
AcDbSpline
210
0
220
0
230
0
 70
    8
 71
    3
 72
    8
 73
    4
 74
    0
 42
1e-07
 43
1e-07
 40
0
 40
0
 40
0
 40
0
 40
1
 40
1
 40
1
 40
1
 10
188.41177000429
 20
469.1967125629241
 30
0
 10
140.0464570042901
 20
492.2837055629241
 30
0
 10
140.0464570042901
 20
492.2837055629241
 30
0
 10
140.0464570042901
 20
409.568047562924
 30
0
  0
SPLINE
  5
19E
100
AcDbEntity
  8
voronoi
  6
ByLayer
 62
    7
370
   -1
100
AcDbSpline
210
0
220
0
230
0
 70
    8
 71
    3
 72
    8
 73
    4
 74
    0
 42
1e-07
 43
1e-07
 40
0
 40
0
 40
0
 40
0
 40
1
 40
1
 40
1
 40
1
 10
140.0464570042901
 20
409.568047562924
 30
0
 10
140.0464570042901
 20
326.8522895629239
 30
0
 10
140.0464570042901
 20
326.8522895629239
 30
0
 10
166.53380200429
 20
325.240234562924
 30
0
  0
LINE
  5
19F
100
AcDbEntity
  8
voronoi
  6
ByLayer
 62
    7
370
   -1
100
AcDbLine
 10
166.53380200429
 20
325.240234562924
 11
166.53380200429
 21
325.240234562924
  0
SPLINE
  5
1A0
100
AcDbEntity
  8
voronoi
  6
ByLayer
 62
    7
370
   -1
100
AcDbSpline
210
0
220
0
230
0
 70
    8
 71
    3
 72
    8
 73
    4
 74
    0
 42
1e-07
 43
1e-07
 40
0
 40
0
 40
0
 40
0
 40
1
 40
1
 40
1
 40
1
 10
667.1568260042901
 20
266.448683562924
 30
0
 10
724.0126660042901
 20
221.0312875629241
 30
0
 10
724.0126660042901
 20
221.0312875629241
 30
0
 10
756.05780400429
 20
269.474744562924
 30
0
  0
SPLINE
  5
1A1
100
AcDbEntity
  8
voronoi
  6
ByLayer
 62
    7
370
   -1
100
AcDbSpline
210
0
220
0
230
0
 70
    8
 71
    3
 72
    8
 73
    4
 74
    0
 42
1e-07
 43
1e-07
 40
0
 40
0
 40
0
 40
0
 40
1
 40
1
 40
1
 40
1
 10
756.05780400429
 20
269.474744562924
 30
0
 10
788.1029410042901
 20
317.918202562924
 30
0
 10
788.1029410042901
 20
317.918202562924
 30
0
 10
755.49435100429
 20
375.782592562924
 30
0
  0
SPLINE
  5
1A2
100
AcDbEntity
  8
voronoi
  6
ByLayer
 62
    7
370
   -1
100
AcDbSpline
210
0
220
0
230
0
 70
    8
 71
    3
 72
    8
 73
    4
 74
    0
 42
1e-07
 43
1e-07
 40
0
 40
0
 40
0
 40
0
 40
1
 40
1
 40
1
 40
1
 10
755.49435100429
 20
375.782592562924
 30
0
 10
722.8857710042901
 20
433.646881562924
 30
0
 10
722.8857710042901
 20
433.646881562924
 30
0
 10
707.21586200429
 20
438.186826562924
 30
0
  0
SPLINE
  5
1A3
100
AcDbEntity
  8
voronoi
  6
ByLayer
 62
    7
370
   -1
100
AcDbSpline
210
0
220
0
230
0
 70
    8
 71
    3
 72
    8
 73
    4
 74
    0
 42
1e-07
 43
1e-07
 40
0
 40
0
 40
0
 40
0
 40
1
 40
1
 40
1
 40
1
 10
707.21586200429
 20
438.186826562924
 30
0
 10
691.54595200429
 20
442.726670562924
 30
0
 10
691.54595200429
 20
442.726670562924
 30
0
 10
650.92347500429
 20
377.296375562924
 30
0
  0
SPLINE
  5
1A4
100
AcDbEntity
  8
voronoi
  6
ByLayer
 62
    7
370
   -1
100
AcDbSpline
210
0
220
0
230
0
 70
    8
 71
    3
 72
    8
 73
    4
 74
    0
 42
1e-07
 43
1e-07
 40
0
 40
0
 40
0
 40
0
 40
1
 40
1
 40
1
 40
1
 10
650.92347500429
 20
377.296375562924
 30
0
 10
610.30099700429
 20
311.866079562924
 30
0
 10
610.30099700429
 20
311.866079562924
 30
0
 10
667.1568260042901
 20
266.448683562924
 30
0
  0
LINE
  5
1A5
100
AcDbEntity
  8
voronoi
  6
ByLayer
 62
    7
370
   -1
100
AcDbLine
 10
667.1568260042901
 20
266.448683562924
 11
667.1568260042901
 21
266.448683562924
  0
SPLINE
  5
1A6
100
AcDbEntity
  8
voronoi
  6
ByLayer
 62
    7
370
   -1
100
AcDbSpline
210
0
220
0
230
0
 70
    8
 71
    3
 72
    8
 73
    4
 74
    0
 42
1e-07
 43
1e-07
 40
0
 40
0
 40
0
 40
0
 40
1
 40
1
 40
1
 40
1
 10
368.41321000429
 20
309.989995562924
 30
0
 10
375.5235140042901
 20
287.818231562924
 30
0
 10
375.5235140042901
 20
287.818231562924
 30
0
 10
429.1518000042901
 20
266.087284562924
 30
0
  0
SPLINE
  5
1A7
100
AcDbEntity
  8
voronoi
  6
ByLayer
 62
    7
370
   -1
100
AcDbSpline
210
0
220
0
230
0
 70
    8
 71
    3
 72
    8
 73
    4
 74
    0
 42
1e-07
 43
1e-07
 40
0
 40
0
 40
0
 40
0
 40
1
 40
1
 40
1
 40
1
 10
429.1518000042901
 20
266.087284562924
 30
0
 10
482.78007600429
 20
244.356338562924
 30
0
 10
482.78007600429
 20
244.356338562924
 30
0
 10
508.03590400429
 20
276.178067562924
 30
0
  0
SPLINE
  5
1A8
100
AcDbEntity
  8
voronoi
  6
ByLayer
 62
    7
370
   -1
100
AcDbSpline
210
0
220
0
230
0
 70
    8
 71
    3
 72
    8
 73
    4
 74
    0
 42
1e-07
 43
1e-07
 40
0
 40
0
 40
0
 40
0
 40
1
 40
1
 40
1
 40
1
 10
508.03590400429
 20
276.178067562924
 30
0
 10
533.29173200429
 20
307.999696562924
 30
0
 10
533.29173200429
 20
307.999696562924
 30
0
 10
501.9742560042901
 20
367.905025562924
 30
0
  0
SPLINE
  5
1A9
100
AcDbEntity
  8
voronoi
  6
ByLayer
 62
    7
370
   -1
100
AcDbSpline
210
0
220
0
230
0
 70
    8
 71
    3
 72
    8
 73
    4
 74
    0
 42
1e-07
 43
1e-07
 40
0
 40
0
 40
0
 40
0
 40
1
 40
1
 40
1
 40
1
 10
501.9742560042901
 20
367.905025562924
 30
0
 10
470.6567790042901
 20
427.810253562924
 30
0
 10
470.6567790042901
 20
427.810253562924
 30
0
 10
415.9798380042901
 20
379.986107562924
 30
0
  0
SPLINE
  5
1AA
100
AcDbEntity
  8
voronoi
  6
ByLayer
 62
    7
370
   -1
100
AcDbSpline
210
0
220
0
230
0
 70
    8
 71
    3
 72
    8
 73
    4
 74
    0
 42
1e-07
 43
1e-07
 40
0
 40
0
 40
0
 40
0
 40
1
 40
1
 40
1
 40
1
 10
415.9798380042901
 20
379.986107562924
 30
0
 10
361.3028960042901
 20
332.1618605629239
 30
0
 10
361.3028960042901
 20
332.1618605629239
 30
0
 10
368.41321000429
 20
309.989995562924
 30
0
  0
LINE
  5
1AB
100
AcDbEntity
  8
voronoi
  6
ByLayer
 62
    7
370
   -1
100
AcDbLine
 10
368.41321000429
 20
309.989995562924
 11
368.41321000429
 21
309.989995562924
  0
SPLINE
  5
1AC
100
AcDbEntity
  8
voronoi
  6
ByLayer
 62
    7
370
   -1
100
AcDbSpline
210
0
220
0
230
0
 70
    8
 71
    3
 72
    8
 73
    4
 74
    0
 42
1e-07
 43
1e-07
 40
0
 40
0
 40
0
 40
0
 40
1
 40
1
 40
1
 40
1
 10
216.61605600429
 20
265.278449562924
 30
0
 10
227.65236200429
 20
217.234295562924
 30
0
 10
227.65236200429
 20
217.234295562924
 30
0
 10
250.9393490042901
 20
199.464995562924
 30
0
  0
SPLINE
  5
1AD
100
AcDbEntity
  8
voronoi
  6
ByLayer
 62
    7
370
   -1
100
AcDbSpline
210
0
220
0
230
0
 70
    8
 71
    3
 72
    8
 73
    4
 74
    0
 42
1e-07
 43
1e-07
 40
0
 40
0
 40
0
 40
0
 40
1
 40
1
 40
1
 40
1
 10
250.9393490042901
 20
199.464995562924
 30
0
 10
274.22633000429
 20
181.695695562924
 30
0
 10
274.22633000429
 20
181.695695562924
 30
0
 10
316.96897200429
 20
232.636454562924
 30
0
  0
SPLINE
  5
1AE
100
AcDbEntity
  8
voronoi
  6
ByLayer
 62
    7
370
   -1
100
AcDbSpline
210
0
220
0
230
0
 70
    8
 71
    3
 72
    8
 73
    4
 74
    0
 42
1e-07
 43
1e-07
 40
0
 40
0
 40
0
 40
0
 40
1
 40
1
 40
1
 40
1
 10
316.96897200429
 20
232.636454562924
 30
0
 10
359.7116260042901
 20
283.577212562924
 30
0
 10
359.7116260042901
 20
283.577212562924
 30
0
 10
352.3960320042901
 20
306.389045562924
 30
0
  0
SPLINE
  5
1AF
100
AcDbEntity
  8
voronoi
  6
ByLayer
 62
    7
370
   -1
100
AcDbSpline
210
0
220
0
230
0
 70
    8
 71
    3
 72
    8
 73
    4
 74
    0
 42
1e-07
 43
1e-07
 40
0
 40
0
 40
0
 40
0
 40
1
 40
1
 40
1
 40
1
 10
352.3960320042901
 20
306.389045562924
 30
0
 10
345.08043900429
 20
329.200979562924
 30
0
 10
345.08043900429
 20
329.200979562924
 30
0
 10
301.33341600429
 20
352.526932562924
 30
0
  0
SPLINE
  5
1B0
100
AcDbEntity
  8
voronoi
  6
ByLayer
 62
    7
370
   -1
100
AcDbSpline
210
0
220
0
230
0
 70
    8
 71
    3
 72
    8
 73
    4
 74
    0
 42
1e-07
 43
1e-07
 40
0
 40
0
 40
0
 40
0
 40
1
 40
1
 40
1
 40
1
 10
301.33341600429
 20
352.526932562924
 30
0
 10
257.58638300429
 20
375.852886562924
 30
0
 10
257.58638300429
 20
375.852886562924
 30
0
 10
231.5830680042901
 20
344.587795562924
 30
0
  0
SPLINE
  5
1B1
100
AcDbEntity
  8
voronoi
  6
ByLayer
 62
    7
370
   -1
100
AcDbSpline
210
0
220
0
230
0
 70
    8
 71
    3
 72
    8
 73
    4
 74
    0
 42
1e-07
 43
1e-07
 40
0
 40
0
 40
0
 40
0
 40
1
 40
1
 40
1
 40
1
 10
231.5830680042901
 20
344.587795562924
 30
0
 10
205.5797490042901
 20
313.3227045629239
 30
0
 10
205.5797490042901
 20
313.3227045629239
 30
0
 10
216.61605600429
 20
265.278449562924
 30
0
  0
LINE
  5
1B2
100
AcDbEntity
  8
voronoi
  6
ByLayer
 62
    7
370
   -1
100
AcDbLine
 10
216.61605600429
 20
265.278449562924
 11
216.61605600429
 21
265.278449562924
  0
SPLINE
  5
1B3
100
AcDbEntity
  8
voronoi
  6
ByLayer
 62
    7
370
   -1
100
AcDbSpline
210
0
220
0
230
0
 70
    8
 71
    3
 72
    8
 73
    4
 74
    0
 42
1e-07
 43
1e-07
 40
0
 40
0
 40
0
 40
0
 40
1
 40
1
 40
1
 40
1
 10
175.3168230042901
 20
209.142034562924
 30
0
 10
210.5871880042901
 20
218.421575562924
 30
0
 10
210.5871880042901
 20
218.421575562924
 30
0
 10
200.32931100429
 20
263.077066562924
 30
0
  0
SPLINE
  5
1B4
100
AcDbEntity
  8
voronoi
  6
ByLayer
 62
    7
370
   -1
100
AcDbSpline
210
0
220
0
230
0
 70
    8
 71
    3
 72
    8
 73
    4
 74
    0
 42
1e-07
 43
1e-07
 40
0
 40
0
 40
0
 40
0
 40
1
 40
1
 40
1
 40
1
 10
200.32931100429
 20
263.077066562924
 30
0
 10
190.07143500429
 20
307.7325585629239
 30
0
 10
190.07143500429
 20
307.7325585629239
 30
0
 10
165.0589450042901
 20
309.254764562924
 30
0
  0
SPLINE
  5
1B5
100
AcDbEntity
  8
voronoi
  6
ByLayer
 62
    7
370
   -1
100
AcDbSpline
210
0
220
0
230
0
 70
    8
 71
    3
 72
    8
 73
    4
 74
    0
 42
1e-07
 43
1e-07
 40
0
 40
0
 40
0
 40
0
 40
1
 40
1
 40
1
 40
1
 10
165.0589450042901
 20
309.254764562924
 30
0
 10
140.0464570042901
 20
310.776970562924
 30
0
 10
140.0464570042901
 20
310.776970562924
 30
0
 10
140.0464570042901
 20
255.319732562924
 30
0
  0
SPLINE
  5
1B6
100
AcDbEntity
  8
voronoi
  6
ByLayer
 62
    7
370
   -1
100
AcDbSpline
210
0
220
0
230
0
 70
    8
 71
    3
 72
    8
 73
    4
 74
    0
 42
1e-07
 43
1e-07
 40
0
 40
0
 40
0
 40
0
 40
1
 40
1
 40
1
 40
1
 10
140.0464570042901
 20
255.319732562924
 30
0
 10
140.0464570042901
 20
199.862393562924
 30
0
 10
140.0464570042901
 20
199.862393562924
 30
0
 10
175.3168230042901
 20
209.142034562924
 30
0
  0
LINE
  5
1B7
100
AcDbEntity
  8
voronoi
  6
ByLayer
 62
    7
370
   -1
100
AcDbLine
 10
175.3168230042901
 20
209.142034562924
 11
175.3168230042901
 21
209.142034562924
  0
SPLINE
  5
1B8
100
AcDbEntity
  8
voronoi
  6
ByLayer
 62
    7
370
   -1
100
AcDbSpline
210
0
220
0
230
0
 70
    8
 71
    3
 72
    8
 73
    4
 74
    0
 42
1e-07
 43
1e-07
 40
0
 40
0
 40
0
 40
0
 40
1
 40
1
 40
1
 40
1
 10
735.6674300042901
 20
174.307280562924
 30
0
 10
737.11928100429
 20
141.668694562924
 30
0
 10
737.11928100429
 20
141.668694562924
 30
0
 10
799.00886900429
 20
141.668694562924
 30
0
  0
SPLINE
  5
1B9
100
AcDbEntity
  8
voronoi
  6
ByLayer
 62
    7
370
   -1
100
AcDbSpline
210
0
220
0
230
0
 70
    8
 71
    3
 72
    8
 73
    4
 74
    0
 42
1e-07
 43
1e-07
 40
0
 40
0
 40
0
 40
0
 40
1
 40
1
 40
1
 40
1
 10
799.00886900429
 20
141.668694562924
 30
0
 10
860.89845700429
 20
141.668694562924
 30
0
 10
860.89845700429
 20
141.668694562924
 30
0
 10
860.89845700429
 20
228.867038562924
 30
0
  0
SPLINE
  5
1BA
100
AcDbEntity
  8
voronoi
  6
ByLayer
 62
    7
370
   -1
100
AcDbSpline
210
0
220
0
230
0
 70
    8
 71
    3
 72
    8
 73
    4
 74
    0
 42
1e-07
 43
1e-07
 40
0
 40
0
 40
0
 40
0
 40
1
 40
1
 40
1
 40
1
 10
860.89845700429
 20
228.867038562924
 30
0
 10
860.89845700429
 20
316.065383562924
 30
0
 10
860.89845700429
 20
316.065383562924
 30
0
 10
831.64621100429
 20
313.039221562924
 30
0
  0
SPLINE
  5
1BB
100
AcDbEntity
  8
voronoi
  6
ByLayer
 62
    7
370
   -1
100
AcDbSpline
210
0
220
0
230
0
 70
    8
 71
    3
 72
    8
 73
    4
 74
    0
 42
1e-07
 43
1e-07
 40
0
 40
0
 40
0
 40
0
 40
1
 40
1
 40
1
 40
1
 10
831.64621100429
 20
313.039221562924
 30
0
 10
802.39397600429
 20
310.012959562924
 30
0
 10
802.39397600429
 20
310.012959562924
 30
0
 10
768.3047820042901
 20
258.479462562924
 30
0
  0
SPLINE
  5
1BC
100
AcDbEntity
  8
voronoi
  6
ByLayer
 62
    7
370
   -1
100
AcDbSpline
210
0
220
0
230
0
 70
    8
 71
    3
 72
    8
 73
    4
 74
    0
 42
1e-07
 43
1e-07
 40
0
 40
0
 40
0
 40
0
 40
1
 40
1
 40
1
 40
1
 10
768.3047820042901
 20
258.479462562924
 30
0
 10
734.2155890042901
 20
206.9458665629241
 30
0
 10
734.2155890042901
 20
206.9458665629241
 30
0
 10
735.6674300042901
 20
174.307280562924
 30
0
  0
LINE
  5
1BD
100
AcDbEntity
  8
voronoi
  6
ByLayer
 62
    7
370
   -1
100
AcDbLine
 10
735.6674300042901
 20
174.307280562924
 11
735.6674300042901
 21
174.307280562924
  0
SPLINE
  5
1BE
100
AcDbEntity
  8
voronoi
  6
ByLayer
 62
    7
370
   -1
100
AcDbSpline
210
0
220
0
230
0
 70
    8
 71
    3
 72
    8
 73
    4
 74
    0
 42
1e-07
 43
1e-07
 40
0
 40
0
 40
0
 40
0
 40
1
 40
1
 40
1
 40
1
 10
498.95472600429
 20
186.957735562924
 30
0
 10
503.99056300429
 20
141.668694562924
 30
0
 10
503.99056300429
 20
141.668694562924
 30
0
 10
612.3556500042901
 20
141.668694562924
 30
0
  0
SPLINE
  5
1BF
100
AcDbEntity
  8
voronoi
  6
ByLayer
 62
    7
370
   -1
100
AcDbSpline
210
0
220
0
230
0
 70
    8
 71
    3
 72
    8
 73
    4
 74
    0
 42
1e-07
 43
1e-07
 40
0
 40
0
 40
0
 40
0
 40
1
 40
1
 40
1
 40
1
 10
612.3556500042901
 20
141.668694562924
 30
0
 10
720.72074800429
 20
141.668694562924
 30
0
 10
720.72074800429
 20
141.668694562924
 30
0
 10
719.3074170042901
 20
173.441387562924
 30
0
  0
SPLINE
  5
1C0
100
AcDbEntity
  8
voronoi
  6
ByLayer
 62
    7
370
   -1
100
AcDbSpline
210
0
220
0
230
0
 70
    8
 71
    3
 72
    8
 73
    4
 74
    0
 42
1e-07
 43
1e-07
 40
0
 40
0
 40
0
 40
0
 40
1
 40
1
 40
1
 40
1
 10
719.3074170042901
 20
173.441387562924
 30
0
 10
717.89408600429
 20
205.214081562924
 30
0
 10
717.89408600429
 20
205.214081562924
 30
0
 10
657.38260500429
 20
253.551646562924
 30
0
  0
SPLINE
  5
1C1
100
AcDbEntity
  8
voronoi
  6
ByLayer
 62
    7
370
   -1
100
AcDbSpline
210
0
220
0
230
0
 70
    8
 71
    3
 72
    8
 73
    4
 74
    0
 42
1e-07
 43
1e-07
 40
0
 40
0
 40
0
 40
0
 40
1
 40
1
 40
1
 40
1
 10
657.38260500429
 20
253.551646562924
 30
0
 10
596.87112500429
 20
301.8892115629239
 30
0
 10
596.87112500429
 20
301.8892115629239
 30
0
 10
572.00138200429
 20
300.591325562924
 30
0
  0
SPLINE
  5
1C2
100
AcDbEntity
  8
voronoi
  6
ByLayer
 62
    7
370
   -1
100
AcDbSpline
210
0
220
0
230
0
 70
    8
 71
    3
 72
    8
 73
    4
 74
    0
 42
1e-07
 43
1e-07
 40
0
 40
0
 40
0
 40
0
 40
1
 40
1
 40
1
 40
1
 10
572.00138200429
 20
300.591325562924
 30
0
 10
547.1316300042901
 20
299.293439562924
 30
0
 10
547.1316300042901
 20
299.293439562924
 30
0
 10
520.5252690042901
 20
265.770108562924
 30
0
  0
SPLINE
  5
1C3
100
AcDbEntity
  8
voronoi
  6
ByLayer
 62
    7
370
   -1
100
AcDbSpline
210
0
220
0
230
0
 70
    8
 71
    3
 72
    8
 73
    4
 74
    0
 42
1e-07
 43
1e-07
 40
0
 40
0
 40
0
 40
0
 40
1
 40
1
 40
1
 40
1
 10
520.5252690042901
 20
265.770108562924
 30
0
 10
493.91889900429
 20
232.246777562924
 30
0
 10
493.91889900429
 20
232.246777562924
 30
0
 10
498.95472600429
 20
186.957735562924
 30
0
  0
LINE
  5
1C4
100
AcDbEntity
  8
voronoi
  6
ByLayer
 62
    7
370
   -1
100
AcDbLine
 10
498.95472600429
 20
186.957735562924
 11
498.95472600429
 21
186.957735562924
  0
SPLINE
  5
1C5
100
AcDbEntity
  8
voronoi
  6
ByLayer
 62
    7
370
   -1
100
AcDbSpline
210
0
220
0
230
0
 70
    8
 71
    3
 72
    8
 73
    4
 74
    0
 42
1e-07
 43
1e-07
 40
0
 40
0
 40
0
 40
0
 40
1
 40
1
 40
1
 40
1
 10
288.08539500429
 20
155.152351562924
 30
0
 10
291.6978470042901
 20
141.668694562924
 30
0
 10
291.6978470042901
 20
141.668694562924
 30
0
 10
389.60428300429
 20
141.668694562924
 30
0
  0
SPLINE
  5
1C6
100
AcDbEntity
  8
voronoi
  6
ByLayer
 62
    7
370
   -1
100
AcDbSpline
210
0
220
0
230
0
 70
    8
 71
    3
 72
    8
 73
    4
 74
    0
 42
1e-07
 43
1e-07
 40
0
 40
0
 40
0
 40
0
 40
1
 40
1
 40
1
 40
1
 10
389.60428300429
 20
141.668694562924
 30
0
 10
487.51070900429
 20
141.668694562924
 30
0
 10
487.51070900429
 20
141.668694562924
 30
0
 10
482.65475700429
 20
185.340065562924
 30
0
  0
SPLINE
  5
1C7
100
AcDbEntity
  8
voronoi
  6
ByLayer
 62
    7
370
   -1
100
AcDbSpline
210
0
220
0
230
0
 70
    8
 71
    3
 72
    8
 73
    4
 74
    0
 42
1e-07
 43
1e-07
 40
0
 40
0
 40
0
 40
0
 40
1
 40
1
 40
1
 40
1
 10
482.65475700429
 20
185.340065562924
 30
0
 10
477.7988150042901
 20
229.0113375629241
 30
0
 10
477.7988150042901
 20
229.0113375629241
 30
0
 10
424.5649390042901
 20
250.5824425629241
 30
0
  0
SPLINE
  5
1C8
100
AcDbEntity
  8
voronoi
  6
ByLayer
 62
    7
370
   -1
100
AcDbSpline
210
0
220
0
230
0
 70
    8
 71
    3
 72
    8
 73
    4
 74
    0
 42
1e-07
 43
1e-07
 40
0
 40
0
 40
0
 40
0
 40
1
 40
1
 40
1
 40
1
 10
424.5649390042901
 20
250.5824425629241
 30
0
 10
371.3310630042901
 20
272.153546562924
 30
0
 10
371.3310630042901
 20
272.153546562924
 30
0
 10
327.9020040042901
 20
220.394728562924
 30
0
  0
SPLINE
  5
1C9
100
AcDbEntity
  8
voronoi
  6
ByLayer
 62
    7
370
   -1
100
AcDbSpline
210
0
220
0
230
0
 70
    8
 71
    3
 72
    8
 73
    4
 74
    0
 42
1e-07
 43
1e-07
 40
0
 40
0
 40
0
 40
0
 40
1
 40
1
 40
1
 40
1
 10
327.9020040042901
 20
220.394728562924
 30
0
 10
284.4729440042901
 20
168.635909562924
 30
0
 10
284.4729440042901
 20
168.635909562924
 30
0
 10
288.08539500429
 20
155.152351562924
 30
0
  0
LINE
  5
1CA
100
AcDbEntity
  8
voronoi
  6
ByLayer
 62
    7
370
   -1
100
AcDbLine
 10
288.08539500429
 20
155.152351562924
 11
288.08539500429
 21
155.152351562924
  0
SPLINE
  5
1CB
100
AcDbEntity
  8
voronoi
  6
ByLayer
 62
    7
370
   -1
100
AcDbSpline
210
0
220
0
230
0
 70
    8
 71
    3
 72
    8
 73
    4
 74
    0
 42
1e-07
 43
1e-07
 40
0
 40
0
 40
0
 40
0
 40
1
 40
1
 40
1
 40
1
 10
271.51398100429
 20
153.785775562924
 30
0
 10
268.2676380042901
 20
165.902857562924
 30
0
 10
268.2676380042901
 20
165.902857562924
 30
0
 10
243.37810300429
 20
184.895036562924
 30
0
  0
SPLINE
  5
1CC
100
AcDbEntity
  8
voronoi
  6
ByLayer
 62
    7
370
   -1
100
AcDbSpline
210
0
220
0
230
0
 70
    8
 71
    3
 72
    8
 73
    4
 74
    0
 42
1e-07
 43
1e-07
 40
0
 40
0
 40
0
 40
0
 40
1
 40
1
 40
1
 40
1
 10
243.37810300429
 20
184.895036562924
 30
0
 10
218.48857000429
 20
203.887114562924
 30
0
 10
218.48857000429
 20
203.887114562924
 30
0
 10
179.2675140042901
 20
193.568201562924
 30
0
  0
SPLINE
  5
1CD
100
AcDbEntity
  8
voronoi
  6
ByLayer
 62
    7
370
   -1
100
AcDbSpline
210
0
220
0
230
0
 70
    8
 71
    3
 72
    8
 73
    4
 74
    0
 42
1e-07
 43
1e-07
 40
0
 40
0
 40
0
 40
0
 40
1
 40
1
 40
1
 40
1
 10
179.2675140042901
 20
193.568201562924
 30
0
 10
140.0464570042901
 20
183.249188562924
 30
0
 10
140.0464570042901
 20
183.249188562924
 30
0
 10
140.0464570042901
 20
162.458941562924
 30
0
  0
SPLINE
  5
1CE
100
AcDbEntity
  8
voronoi
  6
ByLayer
 62
    7
370
   -1
100
AcDbSpline
210
0
220
0
230
0
 70
    8
 71
    3
 72
    8
 73
    4
 74
    0
 42
1e-07
 43
1e-07
 40
0
 40
0
 40
0
 40
0
 40
1
 40
1
 40
1
 40
1
 10
140.0464570042901
 20
162.458941562924
 30
0
 10
140.0464570042901
 20
141.668694562924
 30
0
 10
140.0464570042901
 20
141.668694562924
 30
0
 10
207.4033900042901
 20
141.668694562924
 30
0
  0
SPLINE
  5
1CF
100
AcDbEntity
  8
voronoi
  6
ByLayer
 62
    7
370
   -1
100
AcDbSpline
210
0
220
0
230
0
 70
    8
 71
    3
 72
    8
 73
    4
 74
    0
 42
1e-07
 43
1e-07
 40
0
 40
0
 40
0
 40
0
 40
1
 40
1
 40
1
 40
1
 10
207.4033900042901
 20
141.668694562924
 30
0
 10
274.7603230042901
 20
141.668694562924
 30
0
 10
274.7603230042901
 20
141.668694562924
 30
0
 10
271.51398100429
 20
153.785775562924
 30
0
  0
LINE
  5
1D0
100
AcDbEntity
  8
voronoi
  6
ByLayer
 62
    7
370
   -1
100
AcDbLine
 10
271.51398100429
 20
153.785775562924
 11
271.51398100429
 21
153.785775562924
  0
ENDSEC
  0
SECTION
  2
OBJECTS
  0
DICTIONARY
  5
C
330
0
100
AcDbDictionary
281
    1
  3
ACAD_GROUP
350
D
  0
DICTIONARY
  5
D
330
C
100
AcDbDictionary
281
    1
  0
ENDSEC
  0
EOF
