999
dxfrw 0.6.3
  0
SECTION
  2
HEADER
  9
$ACADVER
  1
AC1021
  9
$DWGCODEPAGE
  3
ANSI_1252
  9
$INSBASE
 10
0
 20
0
 30
0
  9
$EXTMIN
 10
0
 20
0
 30
0
  9
$EXTMAX
 10
395.4600277777777
 20
50.55134444444445
 30
0
  9
$LIMMIN
 10
0
 20
0
  9
$LIMMAX
 10
420
 20
297
  9
$ORTHOMODE
 70
    0
  9
$REGENMODE
 70
    1
  9
$FILLMODE
 70
    1
  9
$QTEXTMODE
 70
    0
  9
$MIRRTEXT
 70
    0
  9
$LTSCALE
 40
1
  9
$ATTMODE
 70
    0
  9
$TEXTSIZE
 40
2.5
  9
$TRACEWID
 40
15.68
  9
$TEXTSTYLE
  7
STANDARD
  9
$CLAYER
  8
0
  9
$CELTYPE
  6
BYLAYER
  9
$CECOLOR
 62
  256
  9
$CELTSCALE
 40
1
  9
$DISPSILH
 70
    0
  9
$DIMSCALE
 40
2.5
  9
$DIMASZ
 40
2.5
  9
$DIMEXO
 40
0.625
  9
$DIMDLI
 40
3.75
  9
$DIMRND
 40
0
  9
$DIMDLE
 40
0
  9
$DIMEXE
 40
1.25
  9
$DIMTP
 40
0
  9
$DIMTM
 40
0
  9
$DIMTXT
 40
2.5
  9
$DIMCEN
 40
2.5
  9
$DIMTSZ
 40
0
  9
$DIMTOL
 70
    0
  9
$DIMLIM
 70
    0
  9
$DIMTIH
 70
    0
  9
$DIMTOH
 70
    0
  9
$DIMSE1
 70
    0
  9
$DIMSE2
 70
    0
  9
$DIMTAD
 70
    1
  9
$DIMZIN
 70
    8
  9
$DIMBLK
  1

  9
$DIMASO
 70
    1
  9
$DIMSHO
 70
    1
  9
$DIMPOST
  1

  9
$DIMAPOST
  1

  9
$DIMALT
 70
    0
  9
$DIMALTD
 70
    3
  9
$DIMALTF
 40
0.03937
  9
$DIMLFAC
 40
1
  9
$DIMTOFL
 70
    1
  9
$DIMTVP
 40
0
  9
$DIMTIX
 70
    0
  9
$DIMSOXD
 70
    0
  9
$DIMSAH
 70
    0
  9
$DIMBLK1
  1

  9
$DIMBLK2
  1

  9
$DIMSTYLE
  2
STANDARD
  9
$DIMCLRD
 70
    0
  9
$DIMCLRE
 70
    0
  9
$DIMCLRT
 70
    0
  9
$DIMTFAC
 40
1
  9
$DIMGAP
 40
0.625
  9
$DIMJUST
 70
    0
  9
$DIMSD1
 70
    0
  9
$DIMSD2
 70
    0
  9
$DIMTOLJ
 70
    0
  9
$DIMTZIN
 70
    8
  9
$DIMALTZ
 70
    0
  9
$DIMALTTZ
 70
    0
  9
$DIMUPT
 70
    0
  9
$DIMDEC
 70
    2
  9
$DIMTDEC
 70
    2
  9
$DIMALTU
 70
    2
  9
$DIMALTTD
 70
    3
  9
$DIMTXSTY
  7
STANDARD
  9
$DIMAUNIT
 70
    0
  9
$DIMADEC
 70
    0
  9
$DIMALTRND
 40
0
  9
$DIMAZIN
 70
    0
  9
$DIMDSEP
 70
   44
  9
$DIMATFIT
 70
    3
  9
$DIMFRAC
 70
    0
  9
$DIMLDRBLK
  1
STANDARD
  9
$DIMLUNIT
 70
    2
  9
$DIMLWD
 70
   -2
  9
$DIMLWE
 70
   -2
  9
$DIMTMOVE
 70
    0
  9
$DIMFXL
 40
1
  9
$DIMFXLON
 70
    0
  9
$DIMJOGANG
 40
0.7854
  9
$DIMTFILL
 70
    0
  9
$DIMTFILLCLR
 70
    0
  9
$DIMARCSYM
 70
    0
  9
$DIMLTYPE
  6

  9
$DIMLTEX1
  6

  9
$DIMLTEX2
  6

  9
$LUNITS
 70
    2
  9
$LUPREC
 70
    4
  9
$SKETCHINC
 40
1
  9
$FILLETRAD
 40
0
  9
$AUNITS
 70
    0
  9
$AUPREC
 70
    2
  9
$MENU
  1
.
  9
$ELEVATION
 40
0
  9
$PELEVATION
 40
0
  9
$THICKNESS
 40
0
  9
$LIMCHECK
 70
    0
  9
$CHAMFERA
 40
0
  9
$CHAMFERB
 40
0
  9
$CHAMFERC
 40
0
  9
$CHAMFERD
 40
0
  9
$SKPOLY
 70
    0
  9
$USRTIMER
 70
    1
  9
$ANGBASE
 50
0
  9
$ANGDIR
 70
    0
  9
$PDMODE
 70
   34
  9
$PDSIZE
 40
0
  9
$PLINEWID
 40
0
  9
$SPLFRAME
 70
    0
  9
$SPLINETYPE
 70
    2
  9
$SPLINESEGS
 70
    8
  9
$HANDSEED
  5
20000
  9
$SURFTAB1
 70
    6
  9
$SURFTAB2
 70
    6
  9
$SURFTYPE
 70
    6
  9
$SURFU
 70
    6
  9
$SURFV
 70
    6
  9
$UCSBASE
  2

  9
$UCSNAME
  2

  9
$UCSORG
 10
0
 20
0
 30
0
  9
$UCSXDIR
 10
1
 20
0
 30
0
  9
$UCSYDIR
 10
0
 20
1
 30
0
  9
$UCSORTHOREF
  2

  9
$UCSORTHOVIEW
 70
    0
  9
$UCSORGTOP
 10
0
 20
0
 30
0
  9
$UCSORGBOTTOM
 10
0
 20
0
 30
0
  9
$UCSORGLEFT
 10
0
 20
0
 30
0
  9
$UCSORGRIGHT
 10
0
 20
0
 30
0
  9
$UCSORGFRONT
 10
0
 20
0
 30
0
  9
$UCSORGBACK
 10
0
 20
0
 30
0
  9
$PUCSBASE
  2

  9
$PUCSNAME
  2

  9
$PUCSORG
 10
0
 20
0
 30
0
  9
$PUCSXDIR
 10
1
 20
0
 30
0
  9
$PUCSYDIR
 10
0
 20
1
 30
0
  9
$PUCSORTHOREF
  2

  9
$PUCSORTHOVIEW
 70
    0
  9
$PUCSORGTOP
 10
0
 20
0
 30
0
  9
$PUCSORGBOTTOM
 10
0
 20
0
 30
0
  9
$PUCSORGLEFT
 10
0
 20
0
 30
0
  9
$PUCSORGRIGHT
 10
0
 20
0
 30
0
  9
$PUCSORGFRONT
 10
0
 20
0
 30
0
  9
$PUCSORGBACK
 10
0
 20
0
 30
0
  9
$USERI1
 70
    0
  9
$USERI2
 70
    0
  9
$USERI3
 70
    0
  9
$USERI4
 70
    0
  9
$USERI5
 70
    0
  9
$USERR1
 40
0
  9
$USERR2
 40
0
  9
$USERR3
 40
0
  9
$USERR4
 40
0
  9
$USERR5
 40
0
  9
$WORLDVIEW
 70
    1
  9
$SHADEDGE
 70
    3
  9
$SHADEDIF
 70
   70
  9
$TILEMODE
 70
    1
  9
$MAXACTVP
 70
   64
  9
$PINSBASE
 10
0
 20
0
 30
0
  9
$PLIMCHECK
 70
    0
  9
$PEXTMIN
 10
0
 20
0
 30
0
  9
$PEXTMAX
 10
0
 20
0
 30
0
  9
$SNAPSTYLE
 70
    0
  9
$PLIMMIN
 10
0
 20
0
  9
$PLIMMAX
 10
297
 20
210
  9
$UNITMODE
 70
    0
  9
$VISRETAIN
 70
    1
  9
$PLINEGEN
 70
    0
  9
$PSLTSCALE
 70
    1
  9
$TREEDEPTH
 70
 3020
  9
$CMLSTYLE
  2
Standard
  9
$CMLJUST
 70
    0
  9
$CMLSCALE
 40
20
  9
$PROXYGRAPHICS
 70
    1
  9
$MEASUREMENT
 70
    1
  9
$CELWEIGHT
370
   -1
  9
$ENDCAPS
280
    0
  9
$JOINSTYLE
280
    0
  9
$LWDISPLAY
290
    0
  9
$INSUNITS
 70
    4
  9
$HYPERLINKBASE
  1

  9
$STYLESHEET
  1

  9
$XEDIT
290
    1
  9
$CEPSNTYPE
380
    0
  9
$PSTYLEMODE
290
    1
  9
$EXTNAMES
290
    1
  9
$PSVPSCALE
 40
1
  9
$OLESTARTUP
290
    0
  9
$SORTENTS
280
  127
  9
$INDEXCTL
280
    0
  9
$HIDETEXT
280
    1
  9
$XCLIPFRAME
290
    0
  9
$HALOGAP
280
    0
  9
$OBSCOLOR
 70
  257
  9
$OBSLTYPE
280
    0
  9
$INTERSECTIONDISPLAY
280
    0
  9
$INTERSECTIONCOLOR
 70
  257
  9
$DIMASSOC
280
    1
  9
$PROJECTNAME
  1

  9
$CAMERADISPLAY
290
    0
  9
$LENSLENGTH
 40
50
  9
$CAMERAHEIGHT
 40
0
  9
$STEPSPERSEC
 40
2
  9
$STEPSIZE
 40
50
  9
$3DDWFPREC
 40
2
  9
$PSOLWIDTH
 40
5
  9
$PSOLHEIGHT
 40
80
  9
$LOFTANG1
 40
1.570796326794897
  9
$LOFTANG2
 40
1.570796326794897
  9
$LOFTMAG1
 40
0
  9
$LOFTMAG2
 40
0
  9
$LOFTPARAM
 70
    7
  9
$LOFTNORMALS
280
    1
  9
$LATITUDE
 40
1
  9
$LONGITUDE
 40
1
  9
$NORTHDIRECTION
 40
0
  9
$TIMEZONE
 70
-8000
  9
$LIGHTGLYPHDISPLAY
280
    1
  9
$TILEMODELIGHTSYNCH
280
    1
  9
$SOLIDHIST
280
    1
  9
$SHOWHIST
280
    1
  9
$DWFFRAME
280
    2
  9
$DGNFRAME
280
    0
  9
$REALWORLDSCALE
290
    1
  9
$INTERFERECOLOR
 62
    1
  9
$CSHADOW
280
    0
  9
$SHADOWPLANELOCATION
 40
0
  0
ENDSEC
  0
SECTION
  2
CLASSES
  0
ENDSEC
  0
SECTION
  2
TABLES
  0
TABLE
  2
VPORT
  5
8
330
0
100
AcDbSymbolTable
 70
    1
  0
VPORT
  5
31
330
2
100
AcDbSymbolTableRecord
100
AcDbViewportTableRecord
  2
*ACTIVE
 70
    0
 10
0
 20
0
 11
1
 21
1
 12
374.6260599198322
 22
206.3009261476337
 13
0
 23
0
 14
10
 24
10
 15
10
 25
10
 16
0
 26
0
 36
1
 17
0
 27
0
 37
0
 40
833.4146867257639
 41
1.370689655172414
 42
50
 43
0
 44
0
 50
0
 51
0
 71
    0
 72
  100
 73
    1
 74
    3
 75
    0
 76
    1
 77
    0
 78
    0
281
    0
 65
    1
110
0
120
0
130
0
111
1
121
0
131
0
112
0
122
1
132
0
 79
    0
146
0
348
10020
 60
    7
 61
    5
292
1
282
    1
141
0
142
0
 63
  250
421
3358443
  0
ENDTAB
  0
TABLE
  2
LTYPE
  5
5
330
0
100
AcDbSymbolTable
 70
    4
  0
LTYPE
  5
14
330
5
100
AcDbSymbolTableRecord
100
AcDbLinetypeTableRecord
  2
ByBlock
 70
    0
  3

 72
   65
 73
    0
 40
0
  0
LTYPE
  5
15
330
5
100
AcDbSymbolTableRecord
100
AcDbLinetypeTableRecord
  2
ByLayer
 70
    0
  3

 72
   65
 73
    0
 40
0
  0
LTYPE
  5
16
330
5
100
AcDbSymbolTableRecord
100
AcDbLinetypeTableRecord
  2
Continuous
 70
    0
  3
Solid line
 72
   65
 73
    0
 40
0
  0
LTYPE
  5
32
330
5
100
AcDbSymbolTableRecord
100
AcDbLinetypeTableRecord
  2
DOT
 70
    0
  3
Dot . . . . . . . . . . . . . . . . . . . . . .
 72
   65
 73
    2
 40
6.35
 49
0
 74
    0
 49
-6.35
 74
    0
  0
LTYPE
  5
33
330
5
100
AcDbSymbolTableRecord
100
AcDbLinetypeTableRecord
  2
DOTTINY
 70
    0
  3
Dot (.15x) .....................................
 72
   65
 73
    2
 40
0.9525
 49
0
 74
    0
 49
-0.9525
 74
    0
  0
LTYPE
  5
34
330
5
100
AcDbSymbolTableRecord
100
AcDbLinetypeTableRecord
  2
DOT2
 70
    0
  3
Dot (.5x) .....................................
 72
   65
 73
    2
 40
3.175
 49
0
 74
    0
 49
-3.175
 74
    0
  0
LTYPE
  5
35
330
5
100
AcDbSymbolTableRecord
100
AcDbLinetypeTableRecord
  2
DOTX2
 70
    0
  3
Dot (2x) .  .  .  .  .  .  .  .  .  .  .  .  .
 72
   65
 73
    2
 40
12.7
 49
0
 74
    0
 49
-12.7
 74
    0
  0
LTYPE
  5
36
330
5
100
AcDbSymbolTableRecord
100
AcDbLinetypeTableRecord
  2
DASHED
 70
    0
  3
Dashed _ _ _ _ _ _ _ _ _ _ _ _ _ _ _ _ _
 72
   65
 73
    2
 40
19.05
 49
12.7
 74
    0
 49
-6.35
 74
    0
  0
LTYPE
  5
37
330
5
100
AcDbSymbolTableRecord
100
AcDbLinetypeTableRecord
  2
DASHEDTINY
 70
    0
  3
Dashed (.15x) _ _ _ _ _ _ _ _ _ _ _ _ _ _ _ _ _
 72
   65
 73
    2
 40
2.8575
 49
1.905
 74
    0
 49
-0.9525
 74
    0
  0
LTYPE
  5
38
330
5
100
AcDbSymbolTableRecord
100
AcDbLinetypeTableRecord
  2
DASHED2
 70
    0
  3
Dashed (.5x) _ _ _ _ _ _ _ _ _ _ _ _ _ _ _ _ _
 72
   65
 73
    2
 40
9.524999999999999
 49
6.35
 74
    0
 49
-3.175
 74
    0
  0
LTYPE
  5
39
330
5
100
AcDbSymbolTableRecord
100
AcDbLinetypeTableRecord
  2
DASHEDX2
 70
    0
  3
Dashed (2x) ____  ____  ____  ____  ____  ___
 72
   65
 73
    2
 40
38.09999999999999
 49
25.4
 74
    0
 49
-12.7
 74
    0
  0
LTYPE
  5
3A
330
5
100
AcDbSymbolTableRecord
100
AcDbLinetypeTableRecord
  2
DASHDOT
 70
    0
  3
Dash dot __ . __ . __ . __ . __ . __ . __ . __
 72
   65
 73
    4
 40
25.4
 49
12.7
 74
    0
 49
-6.35
 74
    0
 49
0
 74
    0
 49
-6.35
 74
    0
  0
LTYPE
  5
3B
330
5
100
AcDbSymbolTableRecord
100
AcDbLinetypeTableRecord
  2
DASHDOTTINY
 70
    0
  3
Dash dot (.15x) _._._._._._._._._._._._._._._.
 72
   65
 73
    4
 40
3.81
 49
1.905
 74
    0
 49
-0.9525
 74
    0
 49
0
 74
    0
 49
-0.9525
 74
    0
  0
LTYPE
  5
3C
330
5
100
AcDbSymbolTableRecord
100
AcDbLinetypeTableRecord
  2
DASHDOT2
 70
    0
  3
Dash dot (.5x) _._._._._._._._._._._._._._._.
 72
   65
 73
    4
 40
12.7
 49
6.35
 74
    0
 49
-3.175
 74
    0
 49
0
 74
    0
 49
-3.175
 74
    0
  0
LTYPE
  5
3D
330
5
100
AcDbSymbolTableRecord
100
AcDbLinetypeTableRecord
  2
DASHDOTX2
 70
    0
  3
Dash dot (2x) ____  .  ____  .  ____  .  ___
 72
   65
 73
    4
 40
50.8
 49
25.4
 74
    0
 49
-12.7
 74
    0
 49
0
 74
    0
 49
-12.7
 74
    0
  0
LTYPE
  5
3E
330
5
100
AcDbSymbolTableRecord
100
AcDbLinetypeTableRecord
  2
DIVIDE
 70
    0
  3
Divide ____ . . ____ . . ____ . . ____ . . ____
 72
   65
 73
    6
 40
31.75
 49
12.7
 74
    0
 49
-6.35
 74
    0
 49
0
 74
    0
 49
-6.35
 74
    0
 49
0
 74
    0
 49
-6.35
 74
    0
  0
LTYPE
  5
3F
330
5
100
AcDbSymbolTableRecord
100
AcDbLinetypeTableRecord
  2
DIVIDETINY
 70
    0
  3
Divide (.15x) __..__..__..__..__..__..__..__.._
 72
   65
 73
    6
 40
4.7625
 49
1.905
 74
    0
 49
-0.9525
 74
    0
 49
0
 74
    0
 49
-0.9525
 74
    0
 49
0
 74
    0
 49
-0.9525
 74
    0
  0
LTYPE
  5
40
330
5
100
AcDbSymbolTableRecord
100
AcDbLinetypeTableRecord
  2
DIVIDE2
 70
    0
  3
Divide (.5x) __..__..__..__..__..__..__..__.._
 72
   65
 73
    6
 40
15.875
 49
6.35
 74
    0
 49
-3.175
 74
    0
 49
0
 74
    0
 49
-3.175
 74
    0
 49
0
 74
    0
 49
-3.175
 74
    0
  0
LTYPE
  5
41
330
5
100
AcDbSymbolTableRecord
100
AcDbLinetypeTableRecord
  2
DIVIDEX2
 70
    0
  3
Divide (2x) ________  .  .  ________  .  .  _
 72
   65
 73
    6
 40
63.5
 49
25.4
 74
    0
 49
-12.7
 74
    0
 49
0
 74
    0
 49
-12.7
 74
    0
 49
0
 74
    0
 49
-12.7
 74
    0
  0
LTYPE
  5
42
330
5
100
AcDbSymbolTableRecord
100
AcDbLinetypeTableRecord
  2
BORDER
 70
    0
  3
Border __ __ . __ __ . __ __ . __ __ . __ __ .
 72
   65
 73
    6
 40
44.45
 49
12.7
 74
    0
 49
-6.35
 74
    0
 49
12.7
 74
    0
 49
-6.35
 74
    0
 49
0
 74
    0
 49
-6.35
 74
    0
  0
LTYPE
  5
43
330
5
100
AcDbSymbolTableRecord
100
AcDbLinetypeTableRecord
  2
BORDERTINY
 70
    0
  3
Border (.15x) __.__.__.__.__.__.__.__.__.__.__.
 72
   65
 73
    6
 40
6.6675
 49
1.905
 74
    0
 49
-0.9525
 74
    0
 49
1.905
 74
    0
 49
-0.9525
 74
    0
 49
0
 74
    0
 49
-0.9525
 74
    0
  0
LTYPE
  5
44
330
5
100
AcDbSymbolTableRecord
100
AcDbLinetypeTableRecord
  2
BORDER2
 70
    0
  3
Border (.5x) __.__.__.__.__.__.__.__.__.__.__.
 72
   65
 73
    6
 40
22.225
 49
6.35
 74
    0
 49
-3.175
 74
    0
 49
6.35
 74
    0
 49
-3.175
 74
    0
 49
0
 74
    0
 49
-3.175
 74
    0
  0
LTYPE
  5
45
330
5
100
AcDbSymbolTableRecord
100
AcDbLinetypeTableRecord
  2
BORDERX2
 70
    0
  3
Border (2x) ____  ____  .  ____  ____  .  ___
 72
   65
 73
    6
 40
88.89999999999999
 49
25.4
 74
    0
 49
-12.7
 74
    0
 49
25.4
 74
    0
 49
-12.7
 74
    0
 49
0
 74
    0
 49
-12.7
 74
    0
  0
LTYPE
  5
46
330
5
100
AcDbSymbolTableRecord
100
AcDbLinetypeTableRecord
  2
CENTER
 70
    0
  3
Center ____ _ ____ _ ____ _ ____ _ ____ _ ____
 72
   65
 73
    4
 40
50.8
 49
31.75
 74
    0
 49
-6.35
 74
    0
 49
6.35
 74
    0
 49
-6.35
 74
    0
  0
LTYPE
  5
47
330
5
100
AcDbSymbolTableRecord
100
AcDbLinetypeTableRecord
  2
CENTERTINY
 70
    0
  3
Center (.15x) ___ _ ___ _ ___ _ ___ _ ___ _ ___
 72
   65
 73
    4
 40
7.619999999999999
 49
4.7625
 74
    0
 49
-0.9525
 74
    0
 49
0.9525
 74
    0
 49
-0.9525
 74
    0
  0
LTYPE
  5
48
330
5
100
AcDbSymbolTableRecord
100
AcDbLinetypeTableRecord
  2
CENTER2
 70
    0
  3
Center (.5x) ___ _ ___ _ ___ _ ___ _ ___ _ ___
 72
   65
 73
    4
 40
28.575
 49
19.05
 74
    0
 49
-3.175
 74
    0
 49
3.175
 74
    0
 49
-3.175
 74
    0
  0
LTYPE
  5
49
330
5
100
AcDbSymbolTableRecord
100
AcDbLinetypeTableRecord
  2
CENTERX2
 70
    0
  3
Center (2x) ________  __  ________  __  _____
 72
   65
 73
    4
 40
101.6
 49
63.5
 74
    0
 49
-12.7
 74
    0
 49
12.7
 74
    0
 49
-12.7
 74
    0
  0
ENDTAB
  0
TABLE
  2
LAYER
  5
2
330
0
100
AcDbSymbolTable
 70
    1
  0
LAYER
  5
10
330
2
100
AcDbSymbolTableRecord
100
AcDbLayerTableRecord
  2
0
 70
    0
 62
    7
  6
CONTINUOUS
370
    0
390
F
  0
ENDTAB
  0
TABLE
  2
STYLE
  5
3
330
0
100
AcDbSymbolTable
 70
    3
  0
STYLE
  5
4A
330
2
100
AcDbSymbolTableRecord
100
AcDbTextStyleTableRecord
  2
Standard
 70
    0
 40
0
 41
1
 50
0
 71
    0
 42
1
  3
txt
  4

  0
ENDTAB
  0
TABLE
  2
VIEW
  5
6
330
0
100
AcDbSymbolTable
 70
    0
  0
ENDTAB
  0
TABLE
  2
UCS
  5
7
330
0
100
AcDbSymbolTable
 70
    0
  0
ENDTAB
  0
TABLE
  2
APPID
  5
9
330
0
100
AcDbSymbolTable
 70
    1
  0
APPID
  5
12
330
9
100
AcDbSymbolTableRecord
100
AcDbRegAppTableRecord
  2
ACAD
 70
    0
  0
APPID
  5
4B
330
9
100
AcDbSymbolTableRecord
100
AcDbRegAppTableRecord
  2
LibreCad
 70
    0
  0
ENDTAB
  0
TABLE
  2
DIMSTYLE
  5
A
330
0
100
AcDbSymbolTable
 70
    1
100
AcDbDimStyleTable
 71
    1
  0
DIMSTYLE
105
4C
330
A
100
AcDbSymbolTableRecord
100
AcDbDimStyleTableRecord
  2
Standard
 70
    0
 40
1
 41
2.5
 42
0.625
 43
0.38
 44
1.25
 45
0
 46
0
 47
0
 48
0
 49
1
140
2.5
141
0.09
142
2.5
143
25.4
144
1
145
0
146
1
147
0.625
148
0
 71
    0
 72
    0
 73
    0
 74
    1
 75
    0
 76
    0
 77
    0
 78
    1
 79
    0
170
    0
171
    2
172
    0
173
    0
174
    0
175
    0
176
    0
177
    0
178
    0
179
    0
271
    2
272
    4
273
    2
274
    2
275
    0
276
    0
277
    2
278
    0
279
    0
280
    0
281
    0
282
    0
283
    1
284
    0
285
    0
286
    0
288
    0
289
    3
340
standard
341

371
   -2
372
   -2
  0
ENDTAB
  0
TABLE
  2
BLOCK_RECORD
  5
1
330
0
100
AcDbSymbolTable
 70
    2
  0
BLOCK_RECORD
  5
1F
330
1
100
AcDbSymbolTableRecord
100
AcDbBlockTableRecord
  2
*Model_Space
 70
    0
280
    1
281
    0
  0
BLOCK_RECORD
  5
1E
330
1
100
AcDbSymbolTableRecord
100
AcDbBlockTableRecord
  2
*Paper_Space
 70
    0
280
    1
281
    0
  0
ENDTAB
  0
ENDSEC
  0
SECTION
  2
BLOCKS
  0
BLOCK
  5
20
330
1F
100
AcDbEntity
  8
0
100
AcDbBlockBegin
  2
*Model_Space
 70
    0
 10
0
 20
0
 30
0
  3
*Model_Space
  1

  0
ENDBLK
  5
21
330
1F
100
AcDbEntity
  8
0
100
AcDbBlockEnd
  0
BLOCK
  5
1C
330
1B
100
AcDbEntity
  8
0
100
AcDbBlockBegin
  2
*Paper_Space
 70
    0
 10
0
 20
0
 30
0
  3
*Paper_Space
  1

  0
ENDBLK
  5
1D
330
1F
100
AcDbEntity
  8
0
100
AcDbBlockEnd
  0
ENDSEC
  0
SECTION
  2
ENTITIES
  0
LWPOLYLINE
  5
4D
100
AcDbEntity
  8
0
  6
ByLayer
 62
  256
370
   -1
100
AcDbPolyline
 90
   32
 70
    1
 43
0
 10
41.59200555555555
 20
0.5513444444444444
 10
41.59200555555555
 20
0.5513444444444444
 10
41.59200555555555
 20
0.5513444444444444
 10
40.95020555555556
 20
0.5901111111111113
 10
40.36871111111111
 20
0.7064111111111113
 10
39.84751666666666
 20
0.9002444444444445
 10
39.38662777777778
 20
1.171605555555556
 10
39.38662777777778
 20
1.171605555555556
 10
39.38662777777778
 20
1.171605555555556
 10
38.99896666666667
 20
1.520505555555555
 10
38.66298888888889
 20
1.912472222222222
 10
38.37870555555556
 20
2.347522222222223
 10
38.14610555555555
 20
2.825638888888888
 10
34.76912222222222
 20
12.37077777777778
 10
14.85182777777778
 20
12.37077777777778
 10
11.47484444444444
 20
2.825638888888888
 10
11.47484444444444
 20
2.825638888888888
 10
11.47484444444444
 20
2.825638888888888
 10
11.27024444444444
 20
2.403516666666667
 10
11.00103333333333
 20
1.998622222222222
 10
10.66721111111111
 20
1.610961111111111
 10
10.26877777777778
 20
1.240522222222222
 10
10.26877777777778
 20
1.240522222222222
 10
10.26877777777778
 20
1.240522222222222
 10
9.810044444444443
 20
0.9390055555555556
 10
9.295311111111111
 20
0.7236388888888886
 10
8.724588888888889
 20
0.5944166666666667
 10
8.097861111111111
 20
0.5513444444444444
 10
0
 20
0.5513444444444444
 10
19.53825
 20
50.55134444444445
 10
30.11716111111111
 20
50.55134444444445
 10
49.62094999999999
 20
0.5513444444444444
  0
LWPOLYLINE
  5
4E
100
AcDbEntity
  8
0
  6
ByLayer
 62
  256
370
   -1
100
AcDbPolyline
 90
   27
 70
    1
 43
0
 10
32.25361666666667
 20
19.53825
 10
26.84355555555555
 20
34.83804444444444
 10
26.84355555555555
 20
34.83804444444444
 10
26.84355555555555
 20
34.83804444444444
 10
26.59803333333333
 20
35.46692222222222
 10
26.3439
 20
36.14748333333333
 10
26.08115
 20
36.87973888888889
 10
25.80978888888889
 20
37.66368333333334
 10
25.80978888888889
 20
37.66368333333334
 10
25.80978888888889
 20
37.66368333333334
 10
25.55134444444445
 20
38.48854444444444
 10
25.2929
 20
39.34355555555556
 10
25.03446111111111
 20
40.22872222222222
 10
24.77601666666667
 20
41.14403888888889
 10
24.77601666666667
 20
41.14403888888889
 10
24.77601666666667
 20
41.14403888888889
 10
24.53265
 20
40.21149444444445
 10
24.28497777777778
 20
39.3091
 10
24.03299444444444
 20
38.43685555555555
 10
23.77670555555556
 20
37.59476111111111
 10
23.77670555555556
 20
37.59476111111111
 10
23.77670555555556
 20
37.59476111111111
 10
23.52041666666667
 20
36.81082222222222
 10
23.26843333333333
 20
36.07856666666667
 10
23.02076111111111
 20
35.398
 10
22.77739444444444
 20
34.76912777777778
 10
17.36733333333333
 20
19.53825
  0
LWPOLYLINE
  5
4F
100
AcDbEntity
  8
0
  6
ByLayer
 62
  256
370
   -1
100
AcDbPolyline
 90
   86
 70
    1
 43
0
 10
66.28761666666666
 20
36.07856666666667
 10
72.14564444444444
 20
36.07856666666667
 10
72.14564444444444
 20
36.07856666666667
 10
72.14564444444444
 20
36.07856666666667
 10
72.9662
 20
35.97518888888889
 10
73.63599444444448
 20
35.66506111111111
 10
74.15503333333332
 20
35.14817222222222
 10
74.52331666666669
 20
34.42453333333334
 10
75.10911666666664
 20
31.94348888888889
 10
75.10911666666664
 20
31.94348888888889
 10
75.10911666666664
 20
31.94348888888889
 10
75.6475388888889
 20
32.44960555555555
 10
76.19457777777778
 20
32.93418333333333
 10
76.75022777777775
 20
33.39722777777778
 10
77.31449444444442
 20
33.83873333333333
 10
77.31449444444442
 20
33.83873333333333
 10
77.31449444444442
 20
33.83873333333333
 10
77.90676111111114
 20
34.25439444444444
 10
78.51194444444442
 20
34.63990555555556
 10
79.13005555555554
 20
34.99526111111111
 10
79.76108333333333
 20
35.32046666666667
 10
79.76108333333333
 20
35.32046666666667
 10
79.76108333333333
 20
35.32046666666667
 10
80.42657222222222
 20
35.61337222222222
 10
81.11360000000001
 20
35.87181111111111
 10
81.82216111111109
 20
36.09579444444444
 10
82.55226111111115
 20
36.28532222222222
 10
82.55226111111115
 20
36.28532222222222
 10
82.55226111111115
 20
36.28532222222222
 10
83.32543333333331
 20
36.43607777777778
 10
84.12876111111109
 20
36.54376111111111
 10
84.96223888888885
 20
36.60837222222222
 10
85.82586666666668
 20
36.62991111111111
 10
85.82586666666668
 20
36.62991111111111
 10
85.82586666666668
 20
36.62991111111111
 10
87.23222222222219
 20
36.56745555555555
 10
88.5567388888889
 20
36.38008333333333
 10
89.79941666666666
 20
36.0678
 10
90.96025555555553
 20
35.6306
 10
90.96025555555553
 20
35.6306
 10
90.96025555555553
 20
35.6306
 10
92.03494444444442
 20
35.08141111111111
 10
93.01918333333336
 20
34.43315
 10
93.91296111111109
 20
33.68582222222222
 10
94.71628888888887
 20
32.83942222222223
 10
94.71628888888887
 20
32.83942222222223
 10
94.71628888888887
 20
32.83942222222223
 10
95.4420777777778
 20
31.90041666666667
 10
96.0688
 20
30.87526111111111
 10
96.59645555555554
 20
29.76395555555556
 10
97.02503888888889
 20
28.56650555555555
 10
97.02503888888889
 20
28.56650555555555
 10
97.02503888888889
 20
28.56650555555555
 10
97.37178333333335
 20
27.29583333333333
 10
97.61945555555553
 20
25.96485
 10
97.76806111111107
 20
24.57357222222222
 10
97.81759444444448
 20
23.12198333333333
 10
97.81759444444448
 20
0.5513444444444444
 10
88.34137222222226
 20
0.5513444444444444
 10
88.34137222222226
 20
23.12198333333333
 10
88.34137222222226
 20
23.12198333333333
 10
88.34137222222226
 20
23.12198333333333
 10
88.2552277777778
 20
24.51972777777778
 10
87.99678333333335
 20
25.74948333333333
 10
87.56604444444446
 20
26.81125
 10
86.96301111111109
 20
27.70503333333333
 10
86.96301111111109
 20
27.70503333333333
 10
86.96301111111109
 20
27.70503333333333
 10
86.1919944444444
 20
28.42867222222222
 10
85.25729444444443
 20
28.94555555555556
 10
84.15891111111108
 20
29.25568888888889
 10
82.89684999999997
 20
29.35906111111111
 10
82.89684999999997
 20
29.35906111111111
 10
82.89684999999997
 20
29.35906111111111
 10
81.8975388888889
 20
29.30306666666667
 10
80.93268888888886
 20
29.13507777777778
 10
80.00229444444446
 20
28.8551
 10
79.10636111111108
 20
28.46312777777778
 10
79.10636111111108
 20
28.46312777777778
 10
79.10636111111108
 20
28.46312777777778
 10
78.25349999999997
 20
27.99147222222222
 10
77.4178722222222
 20
27.43797222222222
 10
76.5994722222222
 20
26.80263888888889
 10
75.79829999999998
 20
26.08546111111111
 10
75.79829999999998
 20
0.5513444444444444
 10
66.28761666666666
 20
0.5513444444444444
  0
LWPOLYLINE
  5
50
100
AcDbEntity
  8
0
  6
ByLayer
 62
  256
370
   -1
100
AcDbPolyline
 90
   86
 70
    1
 43
0
 10
114.4842611111111
 20
36.07856666666667
 10
120.3422888888889
 20
36.07856666666667
 10
120.3422888888889
 20
36.07856666666667
 10
120.3422888888889
 20
36.07856666666667
 10
121.1628444444444
 20
35.97518888888889
 10
121.8326388888889
 20
35.66506111111111
 10
122.3516777777778
 20
35.14817222222222
 10
122.7199611111111
 20
34.42453333333334
 10
123.3057611111111
 20
31.94348888888889
 10
123.3057611111111
 20
31.94348888888889
 10
123.3057611111111
 20
31.94348888888889
 10
123.8441833333333
 20
32.44960555555555
 10
124.3912222222222
 20
32.93418333333333
 10
124.9468722222222
 20
33.39722777777778
 10
125.5111388888889
 20
33.83873333333333
 10
125.5111388888889
 20
33.83873333333333
 10
125.5111388888889
 20
33.83873333333333
 10
126.1034055555556
 20
34.25439444444444
 10
126.7085888888889
 20
34.63990555555556
 10
127.3267
 20
34.99526111111111
 10
127.9577277777778
 20
35.32046666666667
 10
127.9577277777778
 20
35.32046666666667
 10
127.9577277777778
 20
35.32046666666667
 10
128.6232166666667
 20
35.61337222222222
 10
129.3102444444445
 20
35.87181111111111
 10
130.0188055555555
 20
36.09579444444444
 10
130.7489055555556
 20
36.28532222222222
 10
130.7489055555556
 20
36.28532222222222
 10
130.7489055555556
 20
36.28532222222222
 10
131.5220777777778
 20
36.43607777777778
 10
132.3254055555555
 20
36.54376111111111
 10
133.1588833333333
 20
36.60837222222222
 10
134.0225111111111
 20
36.62991111111111
 10
134.0225111111111
 20
36.62991111111111
 10
134.0225111111111
 20
36.62991111111111
 10
135.4288666666666
 20
36.56745555555555
 10
136.7533833333333
 20
36.38008333333333
 10
137.9960611111111
 20
36.0678
 10
139.1569
 20
35.6306
 10
139.1569
 20
35.6306
 10
139.1569
 20
35.6306
 10
140.2315888888889
 20
35.08141111111111
 10
141.2158277777778
 20
34.43315
 10
142.1096055555555
 20
33.68582222222222
 10
142.9129333333333
 20
32.83942222222223
 10
142.9129333333333
 20
32.83942222222223
 10
142.9129333333333
 20
32.83942222222223
 10
143.6387222222222
 20
31.90041666666667
 10
144.2654444444445
 20
30.87526111111111
 10
144.7931
 20
29.76395555555556
 10
145.2216833333333
 20
28.56650555555555
 10
145.2216833333333
 20
28.56650555555555
 10
145.2216833333333
 20
28.56650555555555
 10
145.5684277777778
 20
27.29583333333333
 10
145.8161
 20
25.96485
 10
145.9647055555555
 20
24.57357222222222
 10
146.0142388888889
 20
23.12198333333333
 10
146.0142388888889
 20
0.5513444444444444
 10
136.5380166666667
 20
0.5513444444444444
 10
136.5380166666667
 20
23.12198333333333
 10
136.5380166666667
 20
23.12198333333333
 10
136.5380166666667
 20
23.12198333333333
 10
136.4518722222222
 20
24.51972777777778
 10
136.1934277777778
 20
25.74948333333333
 10
135.7626888888889
 20
26.81125
 10
135.1596555555555
 20
27.70503333333333
 10
135.1596555555555
 20
27.70503333333333
 10
135.1596555555555
 20
27.70503333333333
 10
134.3886388888889
 20
28.42867222222222
 10
133.4539388888889
 20
28.94555555555556
 10
132.3555555555555
 20
29.25568888888889
 10
131.0934944444444
 20
29.35906111111111
 10
131.0934944444444
 20
29.35906111111111
 10
131.0934944444444
 20
29.35906111111111
 10
130.0941833333333
 20
29.30306666666667
 10
129.1293333333333
 20
29.13507777777778
 10
128.1989388888889
 20
28.8551
 10
127.3030055555555
 20
28.46312777777778
 10
127.3030055555555
 20
28.46312777777778
 10
127.3030055555555
 20
28.46312777777778
 10
126.4501444444444
 20
27.99147222222222
 10
125.6145166666666
 20
27.43797222222222
 10
124.7961166666666
 20
26.80263888888889
 10
123.9949444444444
 20
26.08546111111111
 10
123.9949444444444
 20
0.5513444444444444
 10
114.4842611111111
 20
0.5513444444444444
  0
LWPOLYLINE
  5
51
100
AcDbEntity
  8
0
  6
ByLayer
 62
  256
370
   -1
100
AcDbPolyline
 90
  173
 70
    1
 43
0
 10
188.6629888888888
 20
1.102688888888889
 10
188.6629888888888
 20
1.102688888888889
 10
188.0298055555556
 20
1.126377777777778
 10
187.47415
 20
1.197450000000001
 10
186.9960333333333
 20
1.315905555555555
 10
186.59545
 20
1.481738888888889
 10
186.59545
 20
1.481738888888889
 10
186.59545
 20
1.481738888888889
 10
186.2659333333333
 20
1.72295
 10
185.9665722222222
 20
2.067538888888889
 10
185.6973611111111
 20
2.515505555555556
 10
185.4583
 20
3.066850000000001
 10
184.7001999999999
 20
5.306688888888889
 10
184.7001999999999
 20
5.306688888888889
 10
184.7001999999999
 20
5.306688888888889
 10
184.0325611111111
 20
4.738111111111111
 10
183.3735333333333
 20
4.204
 10
182.7231166666666
 20
3.704344444444444
 10
182.0813166666667
 20
3.239144444444445
 10
182.0813166666667
 20
3.239144444444445
 10
182.0813166666667
 20
3.239144444444445
 10
181.4524444444444
 20
2.823483333333334
 10
180.8063388888888
 20
2.437972222222222
 10
180.143
 20
2.082616666666667
 10
179.4624333333334
 20
1.757411111111111
 10
179.4624333333334
 20
1.757411111111111
 10
179.4624333333334
 20
1.757411111111111
 10
178.7775611111111
 20
1.481738888888889
 10
178.0668444444443
 20
1.240522222222222
 10
177.3302833333333
 20
1.033772222222222
 10
176.5678777777777
 20
0.861477777777778
 10
176.5678777777777
 20
0.861477777777778
 10
176.5678777777777
 20
0.861477777777778
 10
175.7882444444444
 20
0.7257944444444442
 10
174.9655388888888
 20
0.6288777777777779
 10
174.0997555555556
 20
0.5707277777777778
 10
173.1908999999999
 20
0.5513444444444441
 10
173.1908999999999
 20
0.5513444444444441
 10
173.1908999999999
 20
0.5513444444444441
 10
172.0451388888889
 20
0.5901111111111116
 10
170.9510666666667
 20
0.7064111111111104
 10
169.9086777777777
 20
0.9002444444444442
 10
168.9179833333333
 20
1.171605555555556
 10
168.9179833333333
 20
1.171605555555556
 10
168.9179833333333
 20
1.171605555555556
 10
167.9854388888888
 20
1.51835
 10
167.1175
 20
1.938322222222222
 10
166.3141777777777
 20
2.431511111111111
 10
165.5754611111111
 20
2.997933333333333
 10
165.5754611111111
 20
2.997933333333333
 10
165.5754611111111
 20
2.997933333333333
 10
164.9250499999999
 20
3.654805555555555
 10
164.3521666666666
 20
4.384905555555555
 10
163.8568166666667
 20
5.188233333333333
 10
163.4390055555556
 20
6.064783333333335
 10
163.4390055555556
 20
6.064783333333335
 10
163.4390055555556
 20
6.064783333333335
 10
163.1073333333332
 20
7.012405555555556
 10
162.8704277777777
 20
8.028944444444445
 10
162.7282888888889
 20
9.114405555555553
 10
162.6809055555555
 20
10.26878333333333
 10
162.6809055555555
 20
10.26878333333333
 10
162.6809055555555
 20
10.26878333333333
 10
162.7433611111111
 20
11.24871111111111
 10
162.9307333333334
 20
12.22432777777778
 10
163.2430166666666
 20
13.19564444444444
 10
163.6802166666667
 20
14.16265
 10
163.6802166666667
 20
14.16265
 10
163.6802166666667
 20
14.16265
 10
164.2681722222222
 20
15.12103888888889
 10
165.0327333333333
 20
16.03205
 10
165.9738944444444
 20
16.89567777777778
 10
167.0916555555556
 20
17.71192222222222
 10
167.0916555555556
 20
17.71192222222222
 10
167.0916555555556
 20
17.71192222222222
 10
168.4140222222222
 20
18.48725
 10
169.9345222222223
 20
19.19366111111111
 10
171.6531666666666
 20
19.83115
 10
173.5699499999999
 20
20.39972777777778
 10
173.5699499999999
 20
20.39972777777778
 10
173.5699499999999
 20
20.39972777777778
 10
175.7300944444444
 20
20.87568888888889
 10
178.1443777777777
 20
21.23535555555555
 10
180.8128
 20
21.47872222222222
 10
183.7353500000001
 20
21.60578888888888
 10
183.7353500000001
 20
23.43211666666667
 10
183.7353500000001
 20
23.43211666666667
 10
183.7353500000001
 20
23.43211666666667
 10
183.64705
 20
24.9913888888889
 10
183.3821444444445
 20
26.32667222222222
 10
182.9406388888888
 20
27.43797222222222
 10
182.3225333333333
 20
28.32529444444445
 10
182.3225333333333
 20
28.32529444444445
 10
182.3225333333333
 20
28.32529444444445
 10
181.5385888888889
 20
29.01878333333334
 10
180.5995833333333
 20
29.51412777777778
 10
179.505511111111
 20
29.81133888888889
 10
178.2563722222222
 20
29.91040555555556
 10
178.2563722222222
 20
29.91040555555556
 10
178.2563722222222
 20
29.91040555555556
 10
177.3152111111111
 20
29.88025555555555
 10
176.4558888888889
 20
29.7898
 10
175.6784055555555
 20
29.63904444444445
 10
174.9827666666667
 20
29.42798333333334
 10
174.9827666666667
 20
29.42798333333334
 10
174.9827666666667
 20
29.42798333333334
 10
174.3474277777778
 20
29.19753888888889
 10
173.7508555555556
 20
28.95417222222223
 10
173.19305
 20
28.69788333333334
 10
172.674011111111
 20
28.42867222222223
 10
172.674011111111
 20
28.42867222222223
 10
172.674011111111
 20
28.42867222222223
 10
172.19805
 20
28.17238333333334
 10
171.7350055555555
 20
27.9204
 10
171.2848833333334
 20
27.67272777777778
 10
170.8476888888889
 20
27.42936111111111
 10
170.8476888888889
 20
27.42936111111111
 10
170.8476888888889
 20
27.42936111111111
 10
170.3997222222222
 20
27.23337222222223
 10
169.9172944444444
 20
27.09338333333334
 10
169.4004111111111
 20
27.00938888888889
 10
168.8490666666666
 20
26.98139444444445
 10
168.8490666666666
 20
26.98139444444445
 10
168.8490666666666
 20
26.98139444444445
 10
168.3687944444444
 20
27.01154444444444
 10
167.9272888888888
 20
27.102
 10
167.52455
 20
27.25275555555556
 10
167.1605722222222
 20
27.46381666666667
 10
167.1605722222222
 20
27.46381666666667
 10
167.1605722222222
 20
27.46381666666667
 10
166.8461388888889
 20
27.73302777777778
 10
166.5575444444445
 20
28.02377777777778
 10
166.2947944444444
 20
28.33606111111112
 10
166.0578888888888
 20
28.66988333333333
 10
164.3693944444445
 20
31.70227777777778
 10
164.3693944444445
 20
31.70227777777778
 10
164.3693944444445
 20
31.70227777777778
 10
165.9782
 20
33.02463888888889
 10
167.6688444444444
 20
34.16609444444445
 10
169.4413277777778
 20
35.12663888888889
 10
171.2956555555556
 20
35.90627222222222
 10
171.2956555555556
 20
35.90627222222222
 10
171.2956555555556
 20
35.90627222222222
 10
173.2296666666666
 20
36.52438333333334
 10
175.2412111111111
 20
36.9658888888889
 10
177.3302833333333
 20
37.2307888888889
 10
179.4968944444445
 20
37.31908888888889
 10
179.4968944444445
 20
37.31908888888889
 10
179.4968944444445
 20
37.31908888888889
 10
181.0389333333332
 20
37.25448333333334
 10
182.4948277777778
 20
37.06065
 10
183.8645722222223
 20
36.73759444444445
 10
185.1481722222222
 20
36.28532222222223
 10
185.1481722222222
 20
36.28532222222223
 10
185.1481722222222
 20
36.28532222222223
 10
186.3563888888888
 20
35.71675
 10
187.4655388888888
 20
35.04480000000001
 10
188.4756166666666
 20
34.26947222222223
 10
189.3866277777777
 20
33.39076666666667
 10
189.3866277777777
 20
33.39076666666667
 10
189.3866277777777
 20
33.39076666666667
 10
190.2136388888889
 20
32.43237777777779
 10
190.9372777777778
 20
31.38352777777778
 10
191.5575444444445
 20
30.24422777777778
 10
192.0744277777777
 20
29.01447222222222
 10
192.0744277777777
 20
29.01447222222222
 10
192.0744277777777
 20
29.01447222222222
 10
192.4814722222222
 20
27.70933888888889
 10
192.7722222222222
 20
26.3439
 10
192.9466722222222
 20
24.91816111111111
 10
193.0048222222222
 20
23.43211666666667
 10
193.0048222222222
 20
1.102688888888889
 10
188.6629888888888
 20
1.102688888888889
  0
LWPOLYLINE
  5
52
100
AcDbEntity
  8
0
  6
ByLayer
 62
  256
370
   -1
100
AcDbPolyline
 90
   49
 70
    1
 43
0
 10
176.1543722222221
 20
6.960716666666666
 10
176.1543722222221
 20
6.960716666666666
 10
177.2893666666667
 20
7.012405555555556
 10
178.3511333333333
 20
7.167472222222221
 10
179.3396777777778
 20
7.425916666666666
 10
180.2549944444443
 20
7.787733333333335
 10
180.2549944444443
 20
7.787733333333335
 10
180.2549944444443
 20
7.787733333333335
 10
181.1315444444444
 20
8.274466666666667
 10
182.0037888888888
 20
8.873194444444444
 10
182.8717222222222
 20
9.58391111111111
 10
183.7353500000001
 20
10.40661666666667
 10
183.7353500000001
 20
15.92005555555555
 10
183.7353500000001
 20
15.92005555555555
 10
183.7353500000001
 20
15.92005555555555
 10
182.0683944444444
 20
15.83175555555555
 10
180.5478944444444
 20
15.70468888888889
 10
179.1738388888889
 20
15.53885555555556
 10
177.9462388888889
 20
15.33425555555555
 10
177.9462388888889
 20
15.33425555555555
 10
177.9462388888889
 20
15.33425555555555
 10
176.8500111111112
 20
15.09519444444445
 10
175.8700833333334
 20
14.82598333333333
 10
175.0064555555556
 20
14.52662222222222
 10
174.2591277777778
 20
14.19710555555555
 10
174.2591277777778
 20
14.19710555555555
 10
174.2591277777778
 20
14.19710555555555
 10
173.6345555555555
 20
13.85467222222222
 10
173.10475
 20
13.48208333333333
 10
172.6697055555556
 20
13.07934444444444
 10
172.3294222222221
 20
12.64645
 10
172.3294222222221
 20
12.64645
 10
172.3294222222221
 20
12.64645
 10
172.0882111111112
 20
12.20494444444444
 10
171.9159166666667
 20
11.74190555555555
 10
171.8125388888889
 20
11.25732222222222
 10
171.7780777777778
 20
10.75120555555556
 10
171.7780777777778
 20
10.75120555555556
 10
171.7780777777778
 20
10.75120555555556
 10
171.84915
 20
9.792816666666663
 10
172.0623666666666
 20
8.985183333333334
 10
172.4177222222222
 20
8.328311111111111
 10
172.9152277777777
 20
7.822194444444444
 10
172.9152277777777
 20
7.822194444444444
 10
172.9152277777777
 20
7.822194444444444
 10
173.5570277777778
 20
7.4453
 10
174.3108166666666
 20
7.176088888888888
 10
175.1766
 20
7.014561111111112
 10
176.1543722222221
 20
6.960716666666666
  0
LWPOLYLINE
  5
53
100
AcDbEntity
  8
0
  6
ByLayer
 62
  256
370
   -1
100
AcDbPolyline
 90
    6
 70
    1
 43
0
 10
276.8406833333333
 20
8.959338888888887
 10
276.8406833333333
 20
0.5513444444444444
 10
247.1714888888889
 20
0.5513444444444444
 10
247.1714888888889
 20
50.55134444444445
 10
257.5091888888888
 20
50.55134444444445
 10
257.5091888888888
 20
8.959338888888887
  0
LWPOLYLINE
  5
54
100
AcDbEntity
  8
0
  6
ByLayer
 62
  256
370
   -1
100
AcDbPolyline
 90
  173
 70
    1
 43
0
 10
319.4894333333334
 20
1.102688888888889
 10
319.4894333333334
 20
1.102688888888889
 10
318.8562499999998
 20
1.126377777777778
 10
318.3005944444444
 20
1.197450000000001
 10
317.8224777777779
 20
1.315905555555555
 10
317.4218944444444
 20
1.481738888888889
 10
317.4218944444444
 20
1.481738888888889
 10
317.4218944444444
 20
1.481738888888889
 10
317.0923777777776
 20
1.72295
 10
316.7930166666666
 20
2.067538888888889
 10
316.5238055555556
 20
2.515505555555556
 10
316.2847444444446
 20
3.066850000000001
 10
315.5266444444445
 20
5.306688888888889
 10
315.5266444444445
 20
5.306688888888889
 10
315.5266444444445
 20
5.306688888888889
 10
314.8590055555555
 20
4.738111111111111
 10
314.1999777777777
 20
4.204
 10
313.5495611111111
 20
3.704344444444444
 10
312.9077611111111
 20
3.239144444444445
 10
312.9077611111111
 20
3.239144444444445
 10
312.9077611111111
 20
3.239144444444445
 10
312.2788888888888
 20
2.823483333333334
 10
311.6327833333334
 20
2.437972222222222
 10
310.9694444444443
 20
2.082616666666667
 10
310.2888777777777
 20
1.757411111111111
 10
310.2888777777777
 20
1.757411111111111
 10
310.2888777777777
 20
1.757411111111111
 10
309.6040055555556
 20
1.481738888888889
 10
308.8932888888889
 20
1.240522222222222
 10
308.1567277777777
 20
1.033772222222222
 10
307.3943222222223
 20
0.861477777777778
 10
307.3943222222223
 20
0.861477777777778
 10
307.3943222222223
 20
0.861477777777778
 10
306.614688888889
 20
0.7257944444444442
 10
305.7919833333332
 20
0.6288777777777779
 10
304.9261999999999
 20
0.5707277777777778
 10
304.0173444444443
 20
0.5513444444444441
 10
304.0173444444443
 20
0.5513444444444441
 10
304.0173444444443
 20
0.5513444444444441
 10
302.8715833333333
 20
0.5901111111111116
 10
301.7775111111111
 20
0.7064111111111104
 10
300.7351222222221
 20
0.9002444444444442
 10
299.7444277777778
 20
1.171605555555556
 10
299.7444277777778
 20
1.171605555555556
 10
299.7444277777778
 20
1.171605555555556
 10
298.8118833333333
 20
1.51835
 10
297.9439444444444
 20
1.938322222222222
 10
297.1406222222223
 20
2.431511111111111
 10
296.4019055555556
 20
2.997933333333333
 10
296.4019055555556
 20
2.997933333333333
 10
296.4019055555556
 20
2.997933333333333
 10
295.7514944444445
 20
3.654805555555555
 10
295.1786111111113
 20
4.384905555555555
 10
294.683261111111
 20
5.188233333333333
 10
294.26545
 20
6.064783333333335
 10
294.26545
 20
6.064783333333335
 10
294.26545
 20
6.064783333333335
 10
293.9337777777777
 20
7.012405555555556
 10
293.6968722222221
 20
8.028944444444445
 10
293.5547333333334
 20
9.114405555555553
 10
293.50735
 20
10.26878333333333
 10
293.50735
 20
10.26878333333333
 10
293.50735
 20
10.26878333333333
 10
293.5698055555554
 20
11.24871111111111
 10
293.7571777777777
 20
12.22432777777778
 10
294.0694611111111
 20
13.19564444444444
 10
294.506661111111
 20
14.16265
 10
294.506661111111
 20
14.16265
 10
294.506661111111
 20
14.16265
 10
295.0946166666666
 20
15.12103888888889
 10
295.8591777777779
 20
16.03205
 10
296.8003388888889
 20
16.89567777777778
 10
297.9180999999999
 20
17.71192222222222
 10
297.9180999999999
 20
17.71192222222222
 10
297.9180999999999
 20
17.71192222222222
 10
299.2404666666667
 20
18.48725
 10
300.7609666666667
 20
19.19366111111111
 10
302.479611111111
 20
19.83115
 10
304.3963944444445
 20
20.39972777777778
 10
304.3963944444445
 20
20.39972777777778
 10
304.3963944444445
 20
20.39972777777778
 10
306.556538888889
 20
20.87568888888889
 10
308.9708222222223
 20
21.23535555555555
 10
311.6392444444443
 20
21.47872222222222
 10
314.5617944444445
 20
21.60578888888888
 10
314.5617944444445
 20
23.43211666666667
 10
314.5617944444445
 20
23.43211666666667
 10
314.5617944444445
 20
23.43211666666667
 10
314.4734944444445
 20
24.9913888888889
 10
314.2085888888889
 20
26.32667222222222
 10
313.7670833333333
 20
27.43797222222222
 10
313.1489777777776
 20
28.32529444444445
 10
313.1489777777776
 20
28.32529444444445
 10
313.1489777777776
 20
28.32529444444445
 10
312.3650333333333
 20
29.01878333333334
 10
311.4260277777778
 20
29.51412777777778
 10
310.3319555555556
 20
29.81133888888889
 10
309.0828166666666
 20
29.91040555555556
 10
309.0828166666666
 20
29.91040555555556
 10
309.0828166666666
 20
29.91040555555556
 10
308.1416555555557
 20
29.88025555555555
 10
307.2823333333332
 20
29.7898
 10
306.5048499999998
 20
29.63904444444445
 10
305.8092111111111
 20
29.42798333333334
 10
305.8092111111111
 20
29.42798333333334
 10
305.8092111111111
 20
29.42798333333334
 10
305.173872222222
 20
29.19753888888889
 10
304.5773
 20
28.95417222222223
 10
304.0194944444443
 20
28.69788333333334
 10
303.5004555555556
 20
28.42867222222223
 10
303.5004555555556
 20
28.42867222222223
 10
303.5004555555556
 20
28.42867222222223
 10
303.0244944444443
 20
28.17238333333334
 10
302.5614499999998
 20
27.9204
 10
302.1113277777778
 20
27.67272777777778
 10
301.6741333333331
 20
27.42936111111111
 10
301.6741333333331
 20
27.42936111111111
 10
301.6741333333331
 20
27.42936111111111
 10
301.2261666666666
 20
27.23337222222223
 10
300.7437388888889
 20
27.09338333333334
 10
300.2268555555556
 20
27.00938888888889
 10
299.6755111111112
 20
26.98139444444445
 10
299.6755111111112
 20
26.98139444444445
 10
299.6755111111112
 20
26.98139444444445
 10
299.1952388888889
 20
27.01154444444444
 10
298.7537333333332
 20
27.102
 10
298.3509944444443
 20
27.25275555555556
 10
297.9870166666665
 20
27.46381666666667
 10
297.9870166666665
 20
27.46381666666667
 10
297.9870166666665
 20
27.46381666666667
 10
297.6725833333335
 20
27.73302777777778
 10
297.3839888888888
 20
28.02377777777778
 10
297.121238888889
 20
28.33606111111112
 10
296.8843333333334
 20
28.66988333333333
 10
295.1958388888888
 20
31.70227777777778
 10
295.1958388888888
 20
31.70227777777778
 10
295.1958388888888
 20
31.70227777777778
 10
296.8046444444442
 20
33.02463888888889
 10
298.4952888888889
 20
34.16609444444445
 10
300.2677722222223
 20
35.12663888888889
 10
302.1221
 20
35.90627222222222
 10
302.1221
 20
35.90627222222222
 10
302.1221
 20
35.90627222222222
 10
304.0561111111111
 20
36.52438333333334
 10
306.0676555555555
 20
36.9658888888889
 10
308.1567277777777
 20
37.2307888888889
 10
310.3233388888889
 20
37.31908888888889
 10
310.3233388888889
 20
37.31908888888889
 10
310.3233388888889
 20
37.31908888888889
 10
311.8653777777777
 20
37.25448333333334
 10
313.3212722222222
 20
37.06065
 10
314.6910166666667
 20
36.73759444444445
 10
315.9746166666666
 20
36.28532222222223
 10
315.9746166666666
 20
36.28532222222223
 10
315.9746166666666
 20
36.28532222222223
 10
317.1828333333334
 20
35.71675
 10
318.2919833333332
 20
35.04480000000001
 10
319.3020611111112
 20
34.26947222222223
 10
320.2130722222222
 20
33.39076666666667
 10
320.2130722222222
 20
33.39076666666667
 10
320.2130722222222
 20
33.39076666666667
 10
321.0400833333333
 20
32.43237777777779
 10
321.7637222222221
 20
31.38352777777778
 10
322.3839888888888
 20
30.24422777777778
 10
322.9008722222223
 20
29.01447222222222
 10
322.9008722222223
 20
29.01447222222222
 10
322.9008722222223
 20
29.01447222222222
 10
323.3079166666666
 20
27.70933888888889
 10
323.5986666666665
 20
26.3439
 10
323.7731166666666
 20
24.91816111111111
 10
323.8312666666666
 20
23.43211666666667
 10
323.8312666666666
 20
1.102688888888889
 10
319.4894333333334
 20
1.102688888888889
  0
LWPOLYLINE
  5
55
100
AcDbEntity
  8
0
  6
ByLayer
 62
  256
370
   -1
100
AcDbPolyline
 90
   49
 70
    1
 43
0
 10
306.9808166666667
 20
6.960716666666666
 10
306.9808166666667
 20
6.960716666666666
 10
308.1158111111111
 20
7.012405555555556
 10
309.1775777777779
 20
7.167472222222221
 10
310.1661222222222
 20
7.425916666666666
 10
311.081438888889
 20
7.787733333333335
 10
311.081438888889
 20
7.787733333333335
 10
311.081438888889
 20
7.787733333333335
 10
311.957988888889
 20
8.274466666666667
 10
312.8302333333332
 20
8.873194444444444
 10
313.6981666666666
 20
9.58391111111111
 10
314.5617944444445
 20
10.40661666666667
 10
314.5617944444445
 20
15.92005555555555
 10
314.5617944444445
 20
15.92005555555555
 10
314.5617944444445
 20
15.92005555555555
 10
312.894838888889
 20
15.83175555555555
 10
311.3743388888887
 20
15.70468888888889
 10
310.0002833333333
 20
15.53885555555556
 10
308.7726833333335
 20
15.33425555555555
 10
308.7726833333335
 20
15.33425555555555
 10
308.7726833333335
 20
15.33425555555555
 10
307.6764555555554
 20
15.09519444444445
 10
306.6965277777778
 20
14.82598333333333
 10
305.8328999999999
 20
14.52662222222222
 10
305.085572222222
 20
14.19710555555555
 10
305.085572222222
 20
14.19710555555555
 10
305.085572222222
 20
14.19710555555555
 10
304.461
 20
13.85467222222222
 10
303.9311944444443
 20
13.48208333333333
 10
303.4961499999999
 20
13.07934444444444
 10
303.1558666666667
 20
12.64645
 10
303.1558666666667
 20
12.64645
 10
303.1558666666667
 20
12.64645
 10
302.9146555555554
 20
12.20494444444444
 10
302.7423611111112
 20
11.74190555555555
 10
302.6389833333332
 20
11.25732222222222
 10
302.6045222222223
 20
10.75120555555556
 10
302.6045222222223
 20
10.75120555555556
 10
302.6045222222223
 20
10.75120555555556
 10
302.6755944444444
 20
9.792816666666663
 10
302.8888111111112
 20
8.985183333333334
 10
303.2441666666667
 20
8.328311111111111
 10
303.7416722222221
 20
7.822194444444444
 10
303.7416722222221
 20
7.822194444444444
 10
303.7416722222221
 20
7.822194444444444
 10
304.3834722222221
 20
7.4453
 10
305.1372611111112
 20
7.176088888888888
 10
306.0030444444445
 20
7.014561111111112
 10
306.9808166666667
 20
6.960716666666666
  0
LWPOLYLINE
  5
56
100
AcDbEntity
  8
0
  6
ByLayer
 62
  256
370
   -1
100
AcDbPolyline
 90
  151
 70
    1
 43
0
 10
348.0789111111111
 20
36.07856666666667
 10
348.0789111111111
 20
36.07856666666667
 10
348.0789111111111
 20
36.07856666666667
 10
348.574261111111
 20
36.04841666666667
 10
349.0265333333333
 20
35.95796111111111
 10
349.4357333333334
 20
35.8072
 10
349.8018611111112
 20
35.59613888888889
 10
349.8018611111112
 20
35.59613888888889
 10
349.8018611111112
 20
35.59613888888889
 10
350.1335277777777
 20
35.3377
 10
350.4048944444444
 20
35.0448
 10
350.6159555555554
 20
34.71743888888889
 10
350.7667111111112
 20
34.35561666666666
 10
355.1430055555556
 20
16.78152777777778
 10
355.1430055555556
 20
16.78152777777778
 10
355.1430055555556
 20
16.78152777777778
 10
355.3282222222221
 20
15.94374444444444
 10
355.5048277777777
 20
15.11888333333333
 10
355.672811111111
 20
14.30694444444445
 10
355.8321833333331
 20
13.50792777777778
 10
355.8321833333331
 20
13.50792777777778
 10
355.8321833333331
 20
13.50792777777778
 10
355.9980222222221
 20
12.71752222222223
 10
356.1509333333333
 20
11.93142777777778
 10
356.2909222222222
 20
11.14963888888889
 10
356.4179888888889
 20
10.37215555555555
 10
356.4179888888889
 20
10.37215555555555
 10
356.4179888888889
 20
10.37215555555555
 10
356.6290499999999
 20
11.14963888888889
 10
356.8487277777779
 20
11.93142777777778
 10
357.0770166666667
 20
12.71752222222223
 10
357.3139222222223
 20
13.50792777777778
 10
357.3139222222223
 20
13.50792777777778
 10
357.3139222222223
 20
13.50792777777778
 10
357.557288888889
 20
14.30694444444445
 10
357.8049611111112
 20
15.11888333333333
 10
358.0569444444444
 20
15.94374444444444
 10
358.3132333333332
 20
16.78152777777778
 10
363.5165388888889
 20
34.42453333333334
 10
363.5165388888889
 20
34.42453333333334
 10
363.5165388888889
 20
34.42453333333334
 10
363.6651444444444
 20
34.77127777777778
 10
363.8697444444445
 20
35.08787222222222
 10
364.1303444444443
 20
35.37431111111111
 10
364.4469333333332
 20
35.6306
 10
364.4469333333332
 20
35.6306
 10
364.4469333333332
 20
35.6306
 10
364.8066
 20
35.84166111111111
 10
365.1964166666666
 20
35.99242222222222
 10
365.6163888888889
 20
36.08287222222222
 10
366.0665055555556
 20
36.11302777777778
 10
370.2705055555555
 20
36.11302777777778
 10
370.2705055555555
 20
36.11302777777778
 10
370.2705055555555
 20
36.11302777777778
 10
370.7507777777778
 20
36.08287222222222
 10
371.1922833333334
 20
35.99242222222222
 10
371.5950222222224
 20
35.84166111111111
 10
371.9589944444443
 20
35.6306
 10
371.9589944444443
 20
35.6306
 10
371.9589944444443
 20
35.6306
 10
372.2906611111111
 20
35.37431111111111
 10
372.5620277777779
 20
35.08787222222222
 10
372.7730888888889
 20
34.77127777777778
 10
372.9238444444443
 20
34.42453333333334
 10
377.9548611111112
 20
16.78152777777778
 10
377.9548611111112
 20
16.78152777777778
 10
377.9548611111112
 20
16.78152777777778
 10
378.1939166666667
 20
15.94374444444444
 10
378.4286722222223
 20
15.11888333333333
 10
378.6591166666666
 20
14.30694444444445
 10
378.88525
 20
13.50792777777778
 10
378.88525
 20
13.50792777777778
 10
378.88525
 20
13.50792777777778
 10
379.1049277777777
 20
12.71536666666667
 10
379.315988888889
 20
11.92281111111111
 10
379.5184388888888
 20
11.13025555555555
 10
379.7122666666667
 20
10.3377
 10
379.7122666666667
 20
10.3377
 10
379.7122666666667
 20
10.3377
 10
379.8522555555555
 20
11.11517777777778
 10
379.9965555555556
 20
11.89696666666667
 10
380.1451611111112
 20
12.68306666666667
 10
380.2980722222221
 20
13.47346666666667
 10
380.2980722222221
 20
13.47346666666667
 10
380.2980722222221
 20
13.47346666666667
 10
380.4768277777776
 20
14.28756111111111
 10
380.6685055555556
 20
15.11026666666667
 10
380.8731055555556
 20
15.94159444444444
 10
381.0906277777779
 20
16.78152777777778
 10
385.6736722222223
 20
34.35561666666666
 10
385.6736722222223
 20
34.35561666666666
 10
385.6736722222223
 20
34.35561666666666
 10
385.8222777777779
 20
34.71743888888889
 10
386.0268777777776
 20
35.0448
 10
386.2874777777778
 20
35.3377
 10
386.6040666666667
 20
35.59613888888889
 10
386.6040666666667
 20
35.59613888888889
 10
386.6040666666667
 20
35.59613888888889
 10
386.9637333333332
 20
35.8072
 10
387.35355
 20
35.95796111111111
 10
387.7735166666668
 20
36.04841666666667
 10
388.2236388888888
 20
36.07856666666667
 10
395.4600277777777
 20
36.07856666666667
 10
384.2953166666667
 20
0.5513444444444444
 10
376.610961111111
 20
0.5513444444444444
 10
376.610961111111
 20
0.5513444444444444
 10
376.610961111111
 20
0.5513444444444444
 10
376.3245166666666
 20
0.5750333333333335
 10
376.0509999999998
 20
0.6461055555555555
 10
375.7904055555555
 20
0.7645611111111114
 10
375.5427277777778
 20
0.9303944444444443
 10
375.5427277777778
 20
0.9303944444444443
 10
375.5427277777778
 20
0.9303944444444443
 10
375.3316666666668
 20
1.152222222222222
 10
375.1464500000001
 20
1.438661111111111
 10
374.9870777777779
 20
1.789716666666666
 10
374.85355
 20
2.205377777777778
 10
369.064438888889
 20
21.43349444444445
 10
369.064438888889
 20
21.43349444444445
 10
369.064438888889
 20
21.43349444444445
 10
368.8964500000001
 20
21.98268333333333
 10
368.7370777777779
 20
22.52756666666667
 10
368.5863222222221
 20
23.06814444444444
 10
368.4441777777778
 20
23.60441111111111
 10
368.4441777777778
 20
23.60441111111111
 10
368.4441777777778
 20
23.60441111111111
 10
368.3106499999999
 20
24.14067777777778
 10
368.1857333333334
 20
24.68125555555556
 10
368.0694333333334
 20
25.22613888888889
 10
367.96175
 20
25.77532777777778
 10
367.96175
 20
25.77532777777778
 10
367.96175
 20
25.77532777777778
 10
367.8540666666667
 20
25.22398333333333
 10
367.7377666666666
 20
24.67263888888889
 10
367.6128555555557
 20
24.12129444444444
 10
367.4793277777778
 20
23.56995
 10
367.4793277777778
 20
23.56995
 10
367.4793277777778
 20
23.56995
 10
367.3522555555555
 20
23.01861111111111
 10
367.2122666666667
 20
22.46726666666667
 10
367.0593555555554
 20
21.91592222222222
 10
366.8935222222224
 20
21.36457777777778
 10
361.0354944444443
 20
2.205377777777778
 10
361.0354944444443
 20
2.205377777777778
 10
361.0354944444443
 20
2.205377777777778
 10
360.7253611111112
 20
1.481738888888889
 10
360.2773944444443
 20
0.9648500000000001
 10
359.6915944444444
 20
0.654722222222222
 10
358.9679555555556
 20
0.5513444444444444
 10
351.6626500000001
 20
0.5513444444444444
 10
340.4979333333333
 20
36.07856666666667
  0
ENDSEC
  0
SECTION
  2
OBJECTS
  0
DICTIONARY
  5
C
330
0
100
AcDbDictionary
281
    1
  3
ACAD_GROUP
350
D
  0
DICTIONARY
  5
D
330
C
100
AcDbDictionary
281
    1
  0
ENDSEC
  0
EOF
