999
dxfrw 0.6.3
  0
SECTION
  2
HEADER
  9
$ACADVER
  1
AC1021
  9
$DWGCODEPAGE
  3
ANSI_1252
  9
$INSBASE
 10
0
 20
0
 30
0
  9
$EXTMIN
 10
-43.52737118931624
 20
-43.4850478651304
 30
0
  9
$EXTMAX
 10
43.52737118931624
 20
43.4850478651304
 30
0
  9
$LIMMIN
 10
0
 20
0
  9
$LIMMAX
 10
420
 20
297
  9
$ORTHOMODE
 70
    0
  9
$REGENMODE
 70
    1
  9
$FILLMODE
 70
    1
  9
$QTEXTMODE
 70
    0
  9
$MIRRTEXT
 70
    0
  9
$LTSCALE
 40
1
  9
$ATTMODE
 70
    0
  9
$TEXTSIZE
 40
2.5
  9
$TRACEWID
 40
15.68
  9
$TEXTSTYLE
  7
STANDARD
  9
$CLAYER
  8
0
  9
$CELTYPE
  6
BYLAYER
  9
$CECOLOR
 62
  256
  9
$CELTSCALE
 40
1
  9
$DISPSILH
 70
    0
  9
$DIMSCALE
 40
2.5
  9
$DIMASZ
 40
2.5
  9
$DIMEXO
 40
0.625
  9
$DIMDLI
 40
3.75
  9
$DIMRND
 40
0
  9
$DIMDLE
 40
0
  9
$DIMEXE
 40
1.25
  9
$DIMTP
 40
0
  9
$DIMTM
 40
0
  9
$DIMTXT
 40
2.5
  9
$DIMCEN
 40
2.5
  9
$DIMTSZ
 40
0
  9
$DIMTOL
 70
    0
  9
$DIMLIM
 70
    0
  9
$DIMTIH
 70
    0
  9
$DIMTOH
 70
    0
  9
$DIMSE1
 70
    0
  9
$DIMSE2
 70
    0
  9
$DIMTAD
 70
    1
  9
$DIMZIN
 70
    8
  9
$DIMBLK
  1

  9
$DIMASO
 70
    1
  9
$DIMSHO
 70
    1
  9
$DIMPOST
  1

  9
$DIMAPOST
  1

  9
$DIMALT
 70
    0
  9
$DIMALTD
 70
    3
  9
$DIMALTF
 40
0.03937
  9
$DIMLFAC
 40
1
  9
$DIMTOFL
 70
    1
  9
$DIMTVP
 40
0
  9
$DIMTIX
 70
    0
  9
$DIMSOXD
 70
    0
  9
$DIMSAH
 70
    0
  9
$DIMBLK1
  1

  9
$DIMBLK2
  1

  9
$DIMSTYLE
  2
Standard
  9
$DIMCLRD
 70
    0
  9
$DIMCLRE
 70
    0
  9
$DIMCLRT
 70
    0
  9
$DIMTFAC
 40
1
  9
$DIMGAP
 40
0.625
  9
$DIMJUST
 70
    0
  9
$DIMSD1
 70
    0
  9
$DIMSD2
 70
    0
  9
$DIMTOLJ
 70
    0
  9
$DIMTZIN
 70
    8
  9
$DIMALTZ
 70
    0
  9
$DIMALTTZ
 70
    0
  9
$DIMUPT
 70
    0
  9
$DIMDEC
 70
    2
  9
$DIMTDEC
 70
    2
  9
$DIMALTU
 70
    2
  9
$DIMALTTD
 70
    3
  9
$DIMTXSTY
  7
STANDARD
  9
$DIMAUNIT
 70
    0
  9
$DIMADEC
 70
    0
  9
$DIMALTRND
 40
0
  9
$DIMAZIN
 70
    0
  9
$DIMDSEP
 70
   44
  9
$DIMATFIT
 70
    3
  9
$DIMFRAC
 70
    0
  9
$DIMLDRBLK
  1
STANDARD
  9
$DIMLUNIT
 70
    2
  9
$DIMLWD
 70
   -2
  9
$DIMLWE
 70
   -2
  9
$DIMTMOVE
 70
    0
  9
$DIMFXL
 40
1
  9
$DIMFXLON
 70
    0
  9
$DIMJOGANG
 40
0.7854
  9
$DIMTFILL
 70
    0
  9
$DIMTFILLCLR
 70
    0
  9
$DIMARCSYM
 70
    0
  9
$DIMLTYPE
  6

  9
$DIMLTEX1
  6

  9
$DIMLTEX2
  6

  9
$LUNITS
 70
    2
  9
$LUPREC
 70
    4
  9
$SKETCHINC
 40
1
  9
$FILLETRAD
 40
0
  9
$AUNITS
 70
    0
  9
$AUPREC
 70
    2
  9
$MENU
  1
.
  9
$ELEVATION
 40
0
  9
$PELEVATION
 40
0
  9
$THICKNESS
 40
0
  9
$LIMCHECK
 70
    0
  9
$CHAMFERA
 40
0
  9
$CHAMFERB
 40
0
  9
$CHAMFERC
 40
0
  9
$CHAMFERD
 40
0
  9
$SKPOLY
 70
    0
  9
$USRTIMER
 70
    1
  9
$ANGBASE
 50
0
  9
$ANGDIR
 70
    0
  9
$PDMODE
 70
   34
  9
$PDSIZE
 40
0
  9
$PLINEWID
 40
0
  9
$SPLFRAME
 70
    0
  9
$SPLINETYPE
 70
    2
  9
$SPLINESEGS
 70
    8
  9
$HANDSEED
  5
20000
  9
$SURFTAB1
 70
    6
  9
$SURFTAB2
 70
    6
  9
$SURFTYPE
 70
    6
  9
$SURFU
 70
    6
  9
$SURFV
 70
    6
  9
$UCSBASE
  2

  9
$UCSNAME
  2

  9
$UCSORG
 10
0
 20
0
 30
0
  9
$UCSXDIR
 10
1
 20
0
 30
0
  9
$UCSYDIR
 10
0
 20
1
 30
0
  9
$UCSORTHOREF
  2

  9
$UCSORTHOVIEW
 70
    0
  9
$UCSORGTOP
 10
0
 20
0
 30
0
  9
$UCSORGBOTTOM
 10
0
 20
0
 30
0
  9
$UCSORGLEFT
 10
0
 20
0
 30
0
  9
$UCSORGRIGHT
 10
0
 20
0
 30
0
  9
$UCSORGFRONT
 10
0
 20
0
 30
0
  9
$UCSORGBACK
 10
0
 20
0
 30
0
  9
$PUCSBASE
  2

  9
$PUCSNAME
  2

  9
$PUCSORG
 10
0
 20
0
 30
0
  9
$PUCSXDIR
 10
1
 20
0
 30
0
  9
$PUCSYDIR
 10
0
 20
1
 30
0
  9
$PUCSORTHOREF
  2

  9
$PUCSORTHOVIEW
 70
    0
  9
$PUCSORGTOP
 10
0
 20
0
 30
0
  9
$PUCSORGBOTTOM
 10
0
 20
0
 30
0
  9
$PUCSORGLEFT
 10
0
 20
0
 30
0
  9
$PUCSORGRIGHT
 10
0
 20
0
 30
0
  9
$PUCSORGFRONT
 10
0
 20
0
 30
0
  9
$PUCSORGBACK
 10
0
 20
0
 30
0
  9
$USERI1
 70
    0
  9
$USERI2
 70
    0
  9
$USERI3
 70
    0
  9
$USERI4
 70
    0
  9
$USERI5
 70
    0
  9
$USERR1
 40
0
  9
$USERR2
 40
0
  9
$USERR3
 40
0
  9
$USERR4
 40
0
  9
$USERR5
 40
0
  9
$WORLDVIEW
 70
    1
  9
$SHADEDGE
 70
    3
  9
$SHADEDIF
 70
   70
  9
$TILEMODE
 70
    1
  9
$MAXACTVP
 70
   64
  9
$PINSBASE
 10
0
 20
0
 30
0
  9
$PLIMCHECK
 70
    0
  9
$PEXTMIN
 10
0
 20
0
 30
0
  9
$PEXTMAX
 10
0
 20
0
 30
0
  9
$GRIDMODE
 70
    0
  9
$SNAPSTYLE
 70
    0
  9
$PLIMMIN
 10
0
 20
0
  9
$PLIMMAX
 10
297
 20
210
  9
$UNITMODE
 70
    0
  9
$VISRETAIN
 70
    1
  9
$PLINEGEN
 70
    0
  9
$PSLTSCALE
 70
    1
  9
$TREEDEPTH
 70
 3020
  9
$CMLSTYLE
  2
Standard
  9
$CMLJUST
 70
    0
  9
$CMLSCALE
 40
20
  9
$PROXYGRAPHICS
 70
    1
  9
$MEASUREMENT
 70
    1
  9
$CELWEIGHT
370
   -1
  9
$ENDCAPS
280
    0
  9
$JOINSTYLE
280
    0
  9
$LWDISPLAY
290
    0
  9
$INSUNITS
 70
    4
  9
$HYPERLINKBASE
  1

  9
$STYLESHEET
  1

  9
$XEDIT
290
    1
  9
$CEPSNTYPE
380
    0
  9
$PSTYLEMODE
290
    1
  9
$EXTNAMES
290
    1
  9
$PSVPSCALE
 40
1
  9
$OLESTARTUP
290
    0
  9
$SORTENTS
280
  127
  9
$INDEXCTL
280
    0
  9
$HIDETEXT
280
    1
  9
$XCLIPFRAME
290
    0
  9
$HALOGAP
280
    0
  9
$OBSCOLOR
 70
  257
  9
$OBSLTYPE
280
    0
  9
$INTERSECTIONDISPLAY
280
    0
  9
$INTERSECTIONCOLOR
 70
  257
  9
$DIMASSOC
280
    1
  9
$PROJECTNAME
  1

  9
$CAMERADISPLAY
290
    0
  9
$LENSLENGTH
 40
50
  9
$CAMERAHEIGHT
 40
0
  9
$STEPSPERSEC
 40
2
  9
$STEPSIZE
 40
50
  9
$3DDWFPREC
 40
2
  9
$PSOLWIDTH
 40
5
  9
$PSOLHEIGHT
 40
80
  9
$LOFTANG1
 40
1.570796326794897
  9
$LOFTANG2
 40
1.570796326794897
  9
$LOFTMAG1
 40
0
  9
$LOFTMAG2
 40
0
  9
$LOFTPARAM
 70
    7
  9
$LOFTNORMALS
280
    1
  9
$LATITUDE
 40
1
  9
$LONGITUDE
 40
1
  9
$NORTHDIRECTION
 40
0
  9
$TIMEZONE
 70
-8000
  9
$LIGHTGLYPHDISPLAY
280
    1
  9
$TILEMODELIGHTSYNCH
280
    1
  9
$SOLIDHIST
280
    1
  9
$SHOWHIST
280
    1
  9
$DWFFRAME
280
    2
  9
$DGNFRAME
280
    0
  9
$REALWORLDSCALE
290
    1
  9
$INTERFERECOLOR
 62
    1
  9
$CSHADOW
280
    0
  9
$SHADOWPLANELOCATION
 40
0
  0
ENDSEC
  0
SECTION
  2
CLASSES
  0
ENDSEC
  0
SECTION
  2
TABLES
  0
TABLE
  2
VPORT
  5
8
330
0
100
AcDbSymbolTable
 70
    1
  0
VPORT
  5
31
330
2
100
AcDbSymbolTableRecord
100
AcDbViewportTableRecord
  2
*ACTIVE
 70
    0
 10
0
 20
0
 11
1
 21
1
 12
30.58228745060308
 22
22.29157756722594
 13
0
 23
0
 14
10
 24
10
 15
10
 25
10
 16
0
 26
0
 36
1
 17
0
 27
0
 37
0
 40
89.16631026890376
 41
1.37192118226601
 42
50
 43
0
 44
0
 50
0
 51
0
 71
    0
 72
  100
 73
    1
 74
    3
 75
    0
 76
    0
 77
    0
 78
    0
281
    0
 65
    1
110
0
120
0
130
0
111
1
121
0
131
0
112
0
122
1
132
0
 79
    0
146
0
348
10020
 60
    7
 61
    5
292
1
282
    1
141
0
142
0
 63
  250
421
3358443
  0
ENDTAB
  0
TABLE
  2
LTYPE
  5
5
330
0
100
AcDbSymbolTable
 70
    4
  0
LTYPE
  5
14
330
5
100
AcDbSymbolTableRecord
100
AcDbLinetypeTableRecord
  2
ByBlock
 70
    0
  3

 72
   65
 73
    0
 40
0
  0
LTYPE
  5
15
330
5
100
AcDbSymbolTableRecord
100
AcDbLinetypeTableRecord
  2
ByLayer
 70
    0
  3

 72
   65
 73
    0
 40
0
  0
LTYPE
  5
16
330
5
100
AcDbSymbolTableRecord
100
AcDbLinetypeTableRecord
  2
Continuous
 70
    0
  3
Solid line
 72
   65
 73
    0
 40
0
  0
LTYPE
  5
32
330
5
100
AcDbSymbolTableRecord
100
AcDbLinetypeTableRecord
  2
DOT
 70
    0
  3
Dot . . . . . . . . . . . . . . . . . . . . . .
 72
   65
 73
    2
 40
6.35
 49
0
 74
    0
 49
-6.35
 74
    0
  0
LTYPE
  5
33
330
5
100
AcDbSymbolTableRecord
100
AcDbLinetypeTableRecord
  2
DOTTINY
 70
    0
  3
Dot (.15x) .....................................
 72
   65
 73
    2
 40
0.9525
 49
0
 74
    0
 49
-0.9525
 74
    0
  0
LTYPE
  5
34
330
5
100
AcDbSymbolTableRecord
100
AcDbLinetypeTableRecord
  2
DOT2
 70
    0
  3
Dot (.5x) .....................................
 72
   65
 73
    2
 40
3.175
 49
0
 74
    0
 49
-3.175
 74
    0
  0
LTYPE
  5
35
330
5
100
AcDbSymbolTableRecord
100
AcDbLinetypeTableRecord
  2
DOTX2
 70
    0
  3
Dot (2x) .  .  .  .  .  .  .  .  .  .  .  .  .
 72
   65
 73
    2
 40
12.7
 49
0
 74
    0
 49
-12.7
 74
    0
  0
LTYPE
  5
36
330
5
100
AcDbSymbolTableRecord
100
AcDbLinetypeTableRecord
  2
DASHED
 70
    0
  3
Dashed _ _ _ _ _ _ _ _ _ _ _ _ _ _ _ _ _
 72
   65
 73
    2
 40
19.05
 49
12.7
 74
    0
 49
-6.35
 74
    0
  0
LTYPE
  5
37
330
5
100
AcDbSymbolTableRecord
100
AcDbLinetypeTableRecord
  2
DASHEDTINY
 70
    0
  3
Dashed (.15x) _ _ _ _ _ _ _ _ _ _ _ _ _ _ _ _ _
 72
   65
 73
    2
 40
2.8575
 49
1.905
 74
    0
 49
-0.9525
 74
    0
  0
LTYPE
  5
38
330
5
100
AcDbSymbolTableRecord
100
AcDbLinetypeTableRecord
  2
DASHED2
 70
    0
  3
Dashed (.5x) _ _ _ _ _ _ _ _ _ _ _ _ _ _ _ _ _
 72
   65
 73
    2
 40
9.524999999999999
 49
6.35
 74
    0
 49
-3.175
 74
    0
  0
LTYPE
  5
39
330
5
100
AcDbSymbolTableRecord
100
AcDbLinetypeTableRecord
  2
DASHEDX2
 70
    0
  3
Dashed (2x) ____  ____  ____  ____  ____  ___
 72
   65
 73
    2
 40
38.09999999999999
 49
25.4
 74
    0
 49
-12.7
 74
    0
  0
LTYPE
  5
3A
330
5
100
AcDbSymbolTableRecord
100
AcDbLinetypeTableRecord
  2
DASHDOT
 70
    0
  3
Dash dot __ . __ . __ . __ . __ . __ . __ . __
 72
   65
 73
    4
 40
25.4
 49
12.7
 74
    0
 49
-6.35
 74
    0
 49
0
 74
    0
 49
-6.35
 74
    0
  0
LTYPE
  5
3B
330
5
100
AcDbSymbolTableRecord
100
AcDbLinetypeTableRecord
  2
DASHDOTTINY
 70
    0
  3
Dash dot (.15x) _._._._._._._._._._._._._._._.
 72
   65
 73
    4
 40
3.81
 49
1.905
 74
    0
 49
-0.9525
 74
    0
 49
0
 74
    0
 49
-0.9525
 74
    0
  0
LTYPE
  5
3C
330
5
100
AcDbSymbolTableRecord
100
AcDbLinetypeTableRecord
  2
DASHDOT2
 70
    0
  3
Dash dot (.5x) _._._._._._._._._._._._._._._.
 72
   65
 73
    4
 40
12.7
 49
6.35
 74
    0
 49
-3.175
 74
    0
 49
0
 74
    0
 49
-3.175
 74
    0
  0
LTYPE
  5
3D
330
5
100
AcDbSymbolTableRecord
100
AcDbLinetypeTableRecord
  2
DASHDOTX2
 70
    0
  3
Dash dot (2x) ____  .  ____  .  ____  .  ___
 72
   65
 73
    4
 40
50.8
 49
25.4
 74
    0
 49
-12.7
 74
    0
 49
0
 74
    0
 49
-12.7
 74
    0
  0
LTYPE
  5
3E
330
5
100
AcDbSymbolTableRecord
100
AcDbLinetypeTableRecord
  2
DIVIDE
 70
    0
  3
Divide ____ . . ____ . . ____ . . ____ . . ____
 72
   65
 73
    6
 40
31.75
 49
12.7
 74
    0
 49
-6.35
 74
    0
 49
0
 74
    0
 49
-6.35
 74
    0
 49
0
 74
    0
 49
-6.35
 74
    0
  0
LTYPE
  5
3F
330
5
100
AcDbSymbolTableRecord
100
AcDbLinetypeTableRecord
  2
DIVIDETINY
 70
    0
  3
Divide (.15x) __..__..__..__..__..__..__..__.._
 72
   65
 73
    6
 40
4.7625
 49
1.905
 74
    0
 49
-0.9525
 74
    0
 49
0
 74
    0
 49
-0.9525
 74
    0
 49
0
 74
    0
 49
-0.9525
 74
    0
  0
LTYPE
  5
40
330
5
100
AcDbSymbolTableRecord
100
AcDbLinetypeTableRecord
  2
DIVIDE2
 70
    0
  3
Divide (.5x) __..__..__..__..__..__..__..__.._
 72
   65
 73
    6
 40
15.875
 49
6.35
 74
    0
 49
-3.175
 74
    0
 49
0
 74
    0
 49
-3.175
 74
    0
 49
0
 74
    0
 49
-3.175
 74
    0
  0
LTYPE
  5
41
330
5
100
AcDbSymbolTableRecord
100
AcDbLinetypeTableRecord
  2
DIVIDEX2
 70
    0
  3
Divide (2x) ________  .  .  ________  .  .  _
 72
   65
 73
    6
 40
63.5
 49
25.4
 74
    0
 49
-12.7
 74
    0
 49
0
 74
    0
 49
-12.7
 74
    0
 49
0
 74
    0
 49
-12.7
 74
    0
  0
LTYPE
  5
42
330
5
100
AcDbSymbolTableRecord
100
AcDbLinetypeTableRecord
  2
BORDER
 70
    0
  3
Border __ __ . __ __ . __ __ . __ __ . __ __ .
 72
   65
 73
    6
 40
44.45
 49
12.7
 74
    0
 49
-6.35
 74
    0
 49
12.7
 74
    0
 49
-6.35
 74
    0
 49
0
 74
    0
 49
-6.35
 74
    0
  0
LTYPE
  5
43
330
5
100
AcDbSymbolTableRecord
100
AcDbLinetypeTableRecord
  2
BORDERTINY
 70
    0
  3
Border (.15x) __.__.__.__.__.__.__.__.__.__.__.
 72
   65
 73
    6
 40
6.6675
 49
1.905
 74
    0
 49
-0.9525
 74
    0
 49
1.905
 74
    0
 49
-0.9525
 74
    0
 49
0
 74
    0
 49
-0.9525
 74
    0
  0
LTYPE
  5
44
330
5
100
AcDbSymbolTableRecord
100
AcDbLinetypeTableRecord
  2
BORDER2
 70
    0
  3
Border (.5x) __.__.__.__.__.__.__.__.__.__.__.
 72
   65
 73
    6
 40
22.225
 49
6.35
 74
    0
 49
-3.175
 74
    0
 49
6.35
 74
    0
 49
-3.175
 74
    0
 49
0
 74
    0
 49
-3.175
 74
    0
  0
LTYPE
  5
45
330
5
100
AcDbSymbolTableRecord
100
AcDbLinetypeTableRecord
  2
BORDERX2
 70
    0
  3
Border (2x) ____  ____  .  ____  ____  .  ___
 72
   65
 73
    6
 40
88.89999999999999
 49
25.4
 74
    0
 49
-12.7
 74
    0
 49
25.4
 74
    0
 49
-12.7
 74
    0
 49
0
 74
    0
 49
-12.7
 74
    0
  0
LTYPE
  5
46
330
5
100
AcDbSymbolTableRecord
100
AcDbLinetypeTableRecord
  2
CENTER
 70
    0
  3
Center ____ _ ____ _ ____ _ ____ _ ____ _ ____
 72
   65
 73
    4
 40
50.8
 49
31.75
 74
    0
 49
-6.35
 74
    0
 49
6.35
 74
    0
 49
-6.35
 74
    0
  0
LTYPE
  5
47
330
5
100
AcDbSymbolTableRecord
100
AcDbLinetypeTableRecord
  2
CENTERTINY
 70
    0
  3
Center (.15x) ___ _ ___ _ ___ _ ___ _ ___ _ ___
 72
   65
 73
    4
 40
7.619999999999999
 49
4.7625
 74
    0
 49
-0.9525
 74
    0
 49
0.9525
 74
    0
 49
-0.9525
 74
    0
  0
LTYPE
  5
48
330
5
100
AcDbSymbolTableRecord
100
AcDbLinetypeTableRecord
  2
CENTER2
 70
    0
  3
Center (.5x) ___ _ ___ _ ___ _ ___ _ ___ _ ___
 72
   65
 73
    4
 40
28.575
 49
19.05
 74
    0
 49
-3.175
 74
    0
 49
3.175
 74
    0
 49
-3.175
 74
    0
  0
LTYPE
  5
49
330
5
100
AcDbSymbolTableRecord
100
AcDbLinetypeTableRecord
  2
CENTERX2
 70
    0
  3
Center (2x) ________  __  ________  __  _____
 72
   65
 73
    4
 40
101.6
 49
63.5
 74
    0
 49
-12.7
 74
    0
 49
12.7
 74
    0
 49
-12.7
 74
    0
  0
ENDTAB
  0
TABLE
  2
LAYER
  5
2
330
0
100
AcDbSymbolTable
 70
    1
  0
LAYER
  5
10
330
2
100
AcDbSymbolTableRecord
100
AcDbLayerTableRecord
  2
0
 70
    0
 62
    7
  6
CONTINUOUS
370
   -3
390
F
  0
ENDTAB
  0
TABLE
  2
STYLE
  5
3
330
0
100
AcDbSymbolTable
 70
    3
  0
STYLE
  5
4A
330
2
100
AcDbSymbolTableRecord
100
AcDbTextStyleTableRecord
  2
Standard
 70
    0
 40
0
 41
1
 50
0
 71
    0
 42
1
  3
txt
  4

  0
ENDTAB
  0
TABLE
  2
VIEW
  5
6
330
0
100
AcDbSymbolTable
 70
    0
  0
ENDTAB
  0
TABLE
  2
UCS
  5
7
330
0
100
AcDbSymbolTable
 70
    0
  0
ENDTAB
  0
TABLE
  2
APPID
  5
9
330
0
100
AcDbSymbolTable
 70
    1
  0
APPID
  5
12
330
9
100
AcDbSymbolTableRecord
100
AcDbRegAppTableRecord
  2
ACAD
 70
    0
  0
APPID
  5
4B
330
9
100
AcDbSymbolTableRecord
100
AcDbRegAppTableRecord
  2
LibreCad
 70
    0
  0
ENDTAB
  0
TABLE
  2
DIMSTYLE
  5
A
330
0
100
AcDbSymbolTable
 70
    1
100
AcDbDimStyleTable
 71
    1
  0
DIMSTYLE
105
4C
330
A
100
AcDbSymbolTableRecord
100
AcDbDimStyleTableRecord
  2
Standard
 70
    0
 40
1
 41
2.5
 42
0.625
 43
0.38
 44
1.25
 45
0
 46
0
 47
0
 48
0
 49
1
140
2.5
141
0.09
142
2.5
143
25.4
144
1
145
0
146
1
147
0.625
148
0
 71
    0
 72
    0
 73
    0
 74
    1
 75
    0
 76
    0
 77
    0
 78
    1
 79
    0
170
    0
171
    2
172
    0
173
    0
174
    0
175
    0
176
    0
177
    0
178
    0
179
    0
271
    2
272
    4
273
    2
274
    2
275
    0
276
    0
277
    2
278
    0
279
    0
280
    0
281
    0
282
    0
283
    1
284
    0
285
    0
286
    0
288
    0
289
    3
340
standard
341

371
   -2
372
   -2
  0
ENDTAB
  0
TABLE
  2
BLOCK_RECORD
  5
1
330
0
100
AcDbSymbolTable
 70
    2
  0
BLOCK_RECORD
  5
1F
330
1
100
AcDbSymbolTableRecord
100
AcDbBlockTableRecord
  2
*Model_Space
 70
    0
280
    1
281
    0
  0
BLOCK_RECORD
  5
1E
330
1
100
AcDbSymbolTableRecord
100
AcDbBlockTableRecord
  2
*Paper_Space
 70
    0
280
    1
281
    0
  0
ENDTAB
  0
ENDSEC
  0
SECTION
  2
BLOCKS
  0
BLOCK
  5
20
330
1F
100
AcDbEntity
  8
0
100
AcDbBlockBegin
  2
*Model_Space
 70
    0
 10
0
 20
0
 30
0
  3
*Model_Space
  1

  0
ENDBLK
  5
21
330
1F
100
AcDbEntity
  8
0
100
AcDbBlockEnd
  0
BLOCK
  5
1C
330
1B
100
AcDbEntity
  8
0
100
AcDbBlockBegin
  2
*Paper_Space
 70
    0
 10
0
 20
0
 30
0
  3
*Paper_Space
  1

  0
ENDBLK
  5
1D
330
1F
100
AcDbEntity
  8
0
100
AcDbBlockEnd
  0
ENDSEC
  0
SECTION
  2
ENTITIES
  0
CIRCLE
  5
4D
100
AcDbEntity
  8
0
  6
ByLayer
 62
  256
370
   -1
100
AcDbCircle
 10
0
 20
0
 40
7.9375
  0
LWPOLYLINE
  5
4E
100
AcDbEntity
  8
0
  6
ByLayer
 62
  256
370
   -1
100
AcDbPolyline
 90
 1932
 70
    1
 43
0
 10
-43.23997717427643
 20
-5.068300500962177
 10
-43.00393263604815
 20
-6.785652056673204
 10
-42.83895974624387
 20
-6.822638599627762
 10
-42.6741995132265
 20
-6.857735019508816
 10
-42.50966468984521
 20
-6.890906778501932
 10
-42.3453686383975
 20
-6.922115877497823
 10
-42.18132542928674
 20
-6.95132030133089
 10
-42.01754996272613
 20
-6.978473334640826
 10
-41.8540581208529
 20
-7.003522707019032
 10
-41.6908669607062
 20
-7.026409508756022
 10
-41.52799496327012
 20
-7.047066791851788
 10
-41.36546236130989
 20
-7.06541772869958
 10
-41.2032915810968
 20
-7.081373131422883
 10
-41.04150785432162
 20
-7.094828015809836
 10
-40.8801400947379
 20
-7.10565667911143
 10
-40.71922220743409
 20
-7.11370534915042
 10
-40.55879515064007
 20
-7.118780608858498
 10
-40.39891041795348
 20
-7.120629846869167
 10
-40.23963652067736
 20
-7.118904866103025
 10
-40.08107295984637
 20
-7.11308344677766
 10
-39.92338910989005
 20
-7.102251060596796
 10
-39.76705425300097
 20
-7.083809504072736
 42
-0.7981585520250417
 10
-39.29698901511873
 20
-9.345887619522937
 10
-39.44772824889428
 20
-9.391256792827278
 10
-39.5966732925992
 20
-9.444142623473665
 10
-39.744428842404
 20
-9.501975047322604
 10
-39.89120389523767
 20
-9.563847769727884
 10
-40.03711524055715
 20
-9.629242163482553
 10
-40.18223876111694
 20
-9.697811563312442
 10
-40.32662786705102
 20
-9.769303756111883
 10
-40.47032204857889
 20
-9.843525019756502
 10
-40.61335147057324
 20
-9.920320804843284
 10
-40.75573969312475
 20
-9.999564296119281
 10
-40.8975053992659
 20
-10.08114914854579
 10
-41.03866355191442
 20
-10.16498462334359
 10
-41.17922620155164
 20
-10.25099219260779
 10
-41.31920306936627
 20
-10.33910308803196
 10
-41.45860198014168
 20
-10.42925648142181
 10
-41.59742919118987
 20
-10.52139810230706
 10
-41.73568964731735
 20
-10.6154791665701
 10
-41.8733871818789
 20
-10.71145553176216
 10
-42.0105246777108
 20
-10.80928702111689
 10
-42.14710419765854
 20
-10.90893687541153
 10
-41.67941218433575
 20
-12.57815153225006
 10
-41.51093952731389
 20
-12.59232977495124
 10
-41.34293491810742
 20
-12.60466445604929
 10
-41.17541569368329
 20
-12.6151230959296
 10
-41.00840026609319
 20
-12.62366986890791
 10
-40.84190829575233
 20
-12.63026506706981
 10
-40.67596090516658
 20
-12.63486443907649
 10
-40.51058094603247
 20
-12.63741836398616
 10
-40.34579333805671
 20
-12.63787080337741
 10
-40.18162550617534
 20
-12.63615794930119
 10
-40.01810795606229
 20
-12.63220644475509
 10
-39.85527504952361
 20
-12.62593098627347
 10
-39.69316607858911
 20
-12.61723100318789
 10
-39.53182680423019
 20
-12.60598590064045
 10
-39.37131175438356
 20
-12.59204795543856
 10
-39.211687842746
 20
-12.57523112915582
 10
-39.05304048054433
 20
-12.55529217497228
 10
-38.89548495379312
 20
-12.53189546788949
 10
-38.73919094568691
 20
-12.50453720083075
 10
-38.58445078134625
 20
-12.47233442661418
 10
-38.43208316070663
 20
-12.43277704214323
 42
-0.7981585520250377
 10
-37.65837653884166
 20
-14.60977883165704
 10
-37.80153401095826
 20
-14.67525109038349
 10
-37.9418904861447
 20
-14.74792568705011
 10
-38.08039498542057
 20
-14.82533883468477
 10
-38.21737796621124
 20
-14.90662113832997
 10
-38.35302574991925
 20
-14.99127470412957
 10
-38.48746071677176
 20
-15.07896642836886
 10
-38.62077012245138
 20
-15.16945371974763
 10
-38.75301946785604
 20
-15.26255003773069
 10
-38.88425968137557
 20
-15.35810637984614
 10
-39.0145313716687
 20
-15.45600032010373
 10
-39.14386752840071
 20
-15.55612904797412
 10
-39.27229533071945
 20
-15.65840470727435
 10
-39.39983740974906
 20
-15.76275114238633
 10
-39.52651276008442
 20
-15.86910154921704
 10
-39.65233741639984
 20
-15.97739673160381
 10
-39.77732496755446
 20
-16.08758377659164
 10
-39.90148695506842
 20
-16.19961502775857
 10
-40.02483318732176
 20
-16.31344727577606
 10
-40.14737199103551
 20
-16.42904111063247
 10
-40.2691104152219
 20
-16.5463603963732
 10
-39.57848314410553
 20
-18.13634384355774
 10
-39.40964904670388
 20
-18.12744967217028
 10
-39.24152966930091
 20
-18.1167928427146
 10
-39.07414661002641
 20
-18.10434353880964
 10
-38.90752298770461
 20
-18.09006877556089
 10
-38.74168368652619
 20
-18.07393189198847
 10
-38.57665565781738
 20
-18.05589192509375
 10
-38.41246829715016
 20
-18.03590282774602
 10
-38.24915392269181
 20
-18.01391247670172
 10
-38.08674839245563
 20
-17.98986139268412
 10
-37.92529191676127
 20
-17.96368105579727
 10
-37.76483015285415
 20
-17.93529163602863
 10
-37.60541572116688
 20
-17.90459884969439
 10
-37.44711037744842
 20
-17.87148945628184
 10
-37.28998825673147
 20
-17.83582453338656
 10
-37.13414098170415
 20
-17.797428886768
 10
-36.97968629017288
 20
-17.75607316538075
 10
-36.82678409530346
 20
-17.71144056836599
 10
-36.67567110157341
 20
-17.66305508632534
 10
-36.52675713933044
 20
-17.61008180082673
 10
-36.3811950754222
 20
-17.55014546763615
 42
-0.7981585520250377
 10
-35.3182597600307
 20
-19.60151750692048
 10
-35.45116871764716
 20
-19.68587322676724
 10
-35.58032204874705
 20
-19.77698279922383
 10
-35.70699542073304
 20
-19.87253461017506
 10
-35.83163459573034
 20
-19.9717123595353
 10
-35.95449195627185
 20
-20.07404816161968
 10
-36.07573410034537
 20
-20.17922867936491
 10
-36.19548050377377
 20
-20.28702546229316
 10
-36.31382145797573
 20
-20.39726262635563
 10
-36.43082770615857
 20
-20.50979949164567
 10
-36.54655614908668
 20
-20.62452030200031
 10
-36.66105346852305
 20
-20.74132769656519
 10
-36.77435855354953
 20
-20.86013833834806
 10
-36.88650419435809
 20
-20.98087986265272
 10
-36.9975183051164
 20
-21.10348867403342
 10
-37.10742483169406
 20
-21.22790831107158
 10
-37.21624444136263
 20
-21.35408820399577
 10
-37.32399505735919
 20
-21.48198271182862
 10
-37.43069228037747
 20
-21.61155036326985
 10
-37.5363497259122
 20
-21.7427532491965
 10
-37.64097929783259
 20
-21.87555653006659
 10
-36.74028184826656
 20
-23.35669038434031
 10
-36.57423137027332
 20
-23.32488948044874
 10
-36.40912897058081
 20
-23.29143965700858
 10
-36.24500010614931
 20
-23.25631431629512
 10
-36.08187217191566
 20
-23.21948392864975
 10
-35.91977481230062
 20
-23.18091556295179
 10
-35.7587403053986
 20
-23.14057230760599
 10
-35.59880404307308
 20
-23.09841254706364
 10
-35.44000513992562
 20
-23.0543890442164
 10
-35.28238721907987
 20
-23.00844775644627
 10
-35.12599944645901
 20
-22.96052627735978
 10
-34.97089792423971
 20
-22.91055173747955
 10
-34.81714762103832
 20
-22.85843789643309
 10
-34.66482513698859
 20
-22.80408097750932
 10
-34.51402283322381
 20
-22.74735344695357
 10
-34.36485533466612
 20
-22.68809421824833
 10
-34.21747051246897
 20
-22.62609210849878
 10
-34.07206992806969
 20
-22.56105504238633
 10
-33.92895289787224
 20
-22.49254367534534
 10
-33.78863912308751
 20
-22.41978667064423
 10
-33.65259416174724
 20
-22.34058788921744
 42
-0.7981585520250374
 10
-32.3202306266041
 20
-24.22811699852542
 10
-32.44041522731344
 20
-24.32978479203889
 10
-32.55595953213587
 20
-24.43763214133649
 10
-32.66844209158712
 20
-24.54954266615726
 10
-32.7784156687872
 20
-24.66476836741347
 10
-32.8861940059904
 20
-24.78288008341656
 10
-32.99198481553976
 20
-24.90359008063132
 10
-33.09593756778998
 20
-25.02668830500244
 10
-33.19816566272213
 20
-25.15201280535457
 10
-33.29875834054897
 20
-25.27943384494677
 10
-33.39778773418691
 20
-25.40884449376166
 10
-33.4953133479038
 20
-25.54015465426835
 10
-33.59138505628544
 20
-25.67328706107583
 10
-33.68604519777237
 20
-25.80817448842711
 10
-33.77933008611697
 20
-25.94475773418654
 10
-33.87127113231787
 20
-26.08298412344908
 10
-33.96189569706687
 20
-26.22280637164597
 10
-34.05122775144201
 20
-26.36418170344952
 10
-34.1392883978393
 20
-26.50707115811956
 10
-34.22609628689627
 20
-26.65143903359703
 10
-34.31166795559253
 20
-26.79725243574731
 10
-33.21767861687723
 20
-28.14194597581797
 10
-33.05750496451787
 20
-28.08783073009218
 10
-32.89849508785633
 20
-28.03221101958874
 10
-32.74067782846845
 20
-27.97506396070456
 10
-32.58408434708782
 20
-27.91636402909863
 10
-32.42874849614582
 20
-27.85608263695395
 10
-32.27470727922516
 20
-27.79418761167179
 10
-32.12200142519745
 20
-27.73064254450438
 10
-31.97067611646747
 20
-27.66540596441659
 10
-31.82078192865294
 20
-27.59843027216082
 10
-31.67237606741247
 20
-27.52966033735915
 10
-31.52552403477658
 20
-27.45903160848985
 10
-31.38030193730297
 20
-27.38646749498669
 10
-31.23679979259461
 20
-27.311875617104
 10
-31.09512646737221
 20
-27.23514220544943
 10
-30.95541745354654
 20
-27.15612328196552
 10
-30.81784800105825
 20
-27.07462976584581
 10
-30.682657564908
 20
-26.99039974812249
 10
-30.55020249772791
 20
-26.90303873322064
 10
-30.42110269054179
 20
-26.81185333465308
 10
-30.29710909199233
 20
-26.71486742843822
 42
-0.7981585520250377
 10
-28.72013674882866
 20
-28.40339251180562
 10
-28.82535818091765
 20
-28.5204785003555
 10
-28.92514108768199
 20
-28.64305463443174
 10
-29.0213374973411
 20
-28.76923919178746
 10
-29.11459687707874
 20
-28.89836640814063
 10
-29.20528848444597
 20
-29.03005384026925
 10
-29.29365727685318
 20
-29.16404471809752
 10
-29.37987993483695
 20
-29.30015129690226
 10
-29.46409085451369
 20
-29.43822857522554
 10
-29.54639611072527
 20
-29.57816017624218
 10
-29.62688172484039
 20
-29.71984998798424
 10
-29.70561891517979
 20
-29.86321685459088
 10
-29.78266761276408
 20
-30.00819102158032
 10
-29.85807891559737
 20
-30.15471165442348
 10
-29.93189686056017
 20
-30.30272504711857
 10
-30.00415973865273
 20
-30.4521832925079
 10
-30.07490109430915
 20
-30.60304327204744
 10
-30.14415049991259
 20
-30.75526587288258
 10
-30.21193416646365
 20
-30.90881537059816
 10
-30.27827543231656
 20
-31.06365893526082
 10
-30.3431951595087
 20
-31.21976623089879
 10
-29.07629288311708
 20
-32.40297036037276
 10
-28.92497978847486
 20
-32.32754883745062
 10
-28.77502448798825
 20
-32.25079532985404
 10
-28.62645867058468
 20
-32.17269109437978
 10
-28.47931668232895
 20
-32.09321508747458
 10
-28.3336359530563
 20
-32.01234359716204
 10
-28.18945752253107
 20
-31.93004978915467
 10
-28.04682669793112
 20
-31.84630313973164
 10
-27.90579388780178
 20
-31.76106871645797
 10
-27.76641567812677
 20
-31.67430625014042
 10
-27.62875624866692
 20
-31.58596891339122
 10
-27.49288928112773
 20
-31.49600167511698
 10
-27.35890060228708
 20
-31.40433902129511
 10
-27.22689197035951
 20
-31.3109016900052
 10
-27.09698672967219
 20
-31.21559179552575
 10
-26.96933871516649
 20
-31.11828515029814
 10
-26.84414729099552
 20
-31.01881829782192
 10
-26.72168534512965
 20
-30.91696437434859
 10
-26.60235962825386
 20
-30.81238108200013
 10
-26.48687867380804
 20
-30.704465901012
 10
-26.37724620418546
 20
-30.59149953393748
 42
-0.7981585520250399
 10
-24.58504106400811
 20
-32.04956656387335
 10
-24.67333925128354
 20
-32.17988965702816
 10
-24.75550199323328
 20
-32.31491121442814
 10
-24.83362029599891
 20
-32.45301922476563
 10
-24.90842823248313
 20
-32.59364256049317
 10
-24.98034369696423
 20
-32.73645262104895
 10
-25.04964432882693
 20
-32.88122838295726
 10
-25.11653072756554
 20
-33.02780790815603
 10
-25.18115578188648
 20
-33.17606584600754
 10
-25.24364042528709
 20
-33.32590134748244
 10
-25.30408296517306
 20
-33.47723090904633
 10
-25.36256500725544
 20
-33.62998382828857
 10
-25.41915542258813
 20
-33.7840991610306
 10
-25.47391311687962
 20
-33.93952359720348
 10
-25.52688902981491
 20
-34.09620992738041
 10
-25.57812761910686
 20
-34.25411590457079
 10
-25.62766798806262
 20
-34.41320337947219
 10
-25.67554475949285
 20
-34.57343763030162
 10
-25.72178876474148
 20
-34.73478683444708
 10
-25.76642759512998
 20
-34.89722164566054
 10
-25.80948604913324
 20
-35.06071485123481
 10
-24.39327082740332
 20
-36.06038871588816
 10
-24.25363696713605
 20
-35.96506587603874
 10
-24.11552962634612
 20
-35.86860834397233
 10
-23.97898275100777
 20
-35.77100186603597
 10
-23.84403323271478
 20
-35.67223027146577
 10
-23.71072138145934
 20
-35.57227516583517
 10
-23.57909150869413
 20
-35.47111555303987
 10
-23.44919265591638
 20
-35.36872736298523
 10
-23.32107951879604
 20
-35.26508285256157
 10
-23.19481363959309
 20
-35.16014983276884
 10
-23.07046497662307
 20
-35.05389065151508
 10
-22.94811401871568
 20
-34.9462608232604
 10
-22.82785471407845
 20
-34.83720713092812
 10
-22.70979866597458
 20
-34.72666490692271
 10
-22.59408139866615
 20
-34.61455397261928
 10
-22.48087222447135
 20
-34.50077224433731
 10
-22.37039090797874
 20
-34.38518493476771
 10
-22.26293868674184
 20
-34.26760445142365
 10
-22.15896513250284
 20
-34.14774707048583
 10
-22.05925422248025
 20
-34.02511236271562
 10
-21.96602512726102
 20
-33.89826988445945
 42
-0.7981585520250403
 10
-19.99197258084919
 20
-35.09871783096482
 10
-20.06170269514869
 20
-35.23985035607983
 10
-20.1247147358592
 20
-35.38480214065979
 10
-20.18329973555631
 20
-35.53226091305687
 10
-20.23826269847245
 20
-35.68176082148375
 10
-20.29006237103345
 20
-35.83303322924556
 10
-20.33900390270184
 20
-35.98589697671581
 10
-20.38530807514073
 20
-36.14021894909327
 10
-20.42914342161917
 20
-36.29589578160563
 10
-20.47064348152775
 20
-36.45284403164595
 10
-20.50991701702816
 20
-36.61099435962628
 10
-20.54705450106179
 20
-36.77028783363824
 10
-20.58213246177841
 20
-36.93067345508131
 10
-20.61521651528901
 20
-37.09210643141231
 10
-20.64636355517307
 20
-37.25454692920182
 10
-20.67562337769305
 20
-37.41795914860776
 10
-20.70303991660847
 20
-37.58231062021869
 10
-20.72865220020011
 20
-37.74757166012426
 10
-20.75249510582551
 20
-37.9137149403108
 10
-20.77459996379938
 20
-38.08071514488063
 10
-20.79499504708541
 20
-38.24854869131237
 10
-19.25584829001592
 20
-39.04607025850222
 10
-19.13049477874296
 20
-38.93262178587415
 10
-19.00680807609951
 20
-38.81825705065565
 10
-18.88482375275731
 20
-38.70296655426261
 10
-18.76458055861858
 20
-38.58673929995121
 10
-18.64612093293352
 20
-38.46956255349813
 10
-18.52949163340469
 20
-38.35142154809995
 10
-18.4147445222983
 20
-38.23229911566852
 10
-18.30193756353216
 20
-38.1121752192211
 10
-18.19113610922659
 20
-37.99102634957103
 10
-18.08241459306083
 20
-37.86882473130938
 10
-17.97585881163414
 20
-37.7455372531312
 10
-17.87156908450639
 20
-37.62112398623915
 10
-17.76966478103176
 20
-37.49553606199753
 10
-17.67029108084672
 20
-37.36871250245417
 10
-17.57362961967809
 20
-37.24057522943244
 10
-17.47991646875141
 20
-37.11102063564714
 10
-17.3894756037177
 20
-36.97990389436624
 10
-17.30279104270544
 20
-36.84700514106706
 10
-17.22070760269953
 20
-36.71193535908674
 10
-17.14561856353135
 20
-36.57357960502366
 42
-0.798158552025037
 10
-15.0264914747738
 20
-37.49404639418989
 10
-15.07635457600241
 20
-37.64335931935522
 10
-15.11904212037861
 20
-37.79554115362774
 10
-15.15700248930992
 20
-37.94960381015735
 10
-15.19109662265278
 20
-38.10519539085427
 10
-15.22181557340259
 20
-38.26211222708388
 10
-15.24948631674264
 20
-38.42021639773004
 10
-15.27434570376013
 20
-38.57940609092917
 10
-15.29657477283082
 20
-38.73960185326455
 10
-15.31631718165241
 20
-38.90073920292954
 10
-15.33369012110927
 20
-39.06276425594794
 10
-15.34879124603343
 20
-39.22563094870362
 10
-15.36170331609588
 20
-39.38929917818149
 10
-15.37249743550612
 20
-39.55373350376448
 10
-15.38123539191836
 20
-39.71890221004197
 10
-15.38797139253454
 20
-39.88477661120375
 10
-15.3927533831637
 20
-40.05133052257301
 10
-15.39562407053373
 20
-40.21853985106718
 10
-15.39662172831663
 20
-40.38638227234011
 10
-15.39578084219581
 20
-40.55483697243167
 10
-15.39313263295197
 20
-40.72388443830413
 10
-13.7597257324496
 20
-41.30439739020247
 10
-13.65098766890803
 20
-41.17493661518807
 10
-13.54402565365707
 20
-41.04479507544821
 10
-13.43887621945169
 20
-40.91396820440829
 10
-13.33557925266517
 20
-40.7824503841931
 10
-13.23417853124277
 20
-40.65023477799703
 10
-13.13472238812943
 20
-40.51731312339518
 10
-13.03726454026443
 20
-40.38367547411487
 10
-12.94186514005536
 20
-40.24930987255136
 10
-12.8485921320965
 20
-40.11420192726307
 10
-12.75752303887213
 20
-39.9783342569274
 10
-12.66874736652285
 20
-39.84168574127531
 10
-12.58236993719723
 20
-39.70423048358674
 10
-12.49851566271523
 20
-39.56593632451607
 10
-12.41733667366575
 20
-39.42676262268765
 10
-12.33902354565435
 20
-39.28665675987753
 10
-12.26382425898329
 20
-39.14554823883205
 10
-12.19207949234766
 20
-39.00333769642198
 10
-12.1242986939203
 20
-38.85987322308132
 10
-12.06137178311055
 20
-38.71488446136732
 10
-12.00582156671922
 20
-38.56759273741638
 42
-0.7981585520250359
 10
-9.781095263737075
 20
-39.19093181455136
 10
-9.81016249666353
 20
-39.34564372248207
 10
-9.831730356521623
 20
-39.50222074681374
 10
-9.848358964837722
 20
-39.66001739168248
 10
-9.860949159411692
 20
-39.81880226789163
 10
-9.870015152420345
 20
-39.97844046882815
 10
-9.875899653838683
 20
-40.13883988109564
 10
-9.8788511720904
 20
-40.29993189233061
 10
-9.87905987825558
 20
-40.46166244053875
 10
-9.876676872267899
 20
-40.62398720588771
 10
-9.871825590689994
 20
-40.78686876376963
 10
-9.864609051119768
 20
-40.95027477693861
 10
-9.855114703093358
 20
-41.11417678500828
 10
-9.843417814381882
 20
-41.27854935947935
 10
-9.829583915727204
 20
-41.44336949375806
 10
-9.813670615493091
 20
-41.60861615042844
 10
-9.79572897839846
 20
-41.77426991731933
 10
-9.775804594072724
 20
-41.94031274098446
 10
-9.753938419536265
 20
-42.10672771660549
 10
-9.73016745343817
 20
-42.27349891988462
 10
-9.704525282792069
 20
-42.44061127075869
 10
-8.00728551888864
 20
-42.79330174944435
 10
-7.91718848746191
 20
-42.65024028133293
 10
-7.828943659567661
 20
-42.50674622771983
 10
-7.742587849507973
 20
-42.36282003910656
 10
-7.658161337119536
 20
-42.21846158113691
 10
-7.575708423542364
 20
-42.07367004177976
 10
-7.495278116612462
 20
-41.92844381690202
 10
-7.416924987297266
 20
-41.78278036732679
 10
-7.34071025596854
 20
-41.63667603757483
 10
-7.266703194015347
 20
-41.490125822035
 10
-7.194982968629822
 20
-41.34312305725216
 10
-7.125641128163776
 20
-41.19565900742384
 10
-7.058785044716256
 20
-41.04772229031415
 10
-6.994542845702104
 20
-40.89929805493531
 10
-6.933070778757642
 20
-40.75036675356017
 10
-6.874564809304201
 20
-40.60090220809533
 10
-6.819280207316906
 20
-40.45086834454917
 10
-6.767568008335478
 20
-40.30021311434234
 10
-6.719953600521523
 20
-40.14885539265332
 10
-6.677355428194034
 20
-39.99664851750711
 10
-6.642378830005877
 20
-39.84316458979887
 42
-0.79815855202504
 10
-4.353495754479917
 20
-40.15776432729839
 10
-4.361225651552108
 20
-40.3149932278759
 10
-4.361272058470898
 20
-40.47304870855853
 10
-4.356259146661393
 20
-40.63163988883522
 10
-4.347110870963125
 20
-40.79066019874535
 10
-4.334355023934384
 20
-40.9500460067524
 10
-4.318343666303488
 20
-41.10975272307803
 10
-4.299332334588894
 20
-41.26974621297732
 10
-4.277516790047589
 20
-41.42999881295103
 10
-4.25305276014337
 20
-41.59048719073578
 10
-4.226067627727518
 20
-41.75119107824161
 10
-4.196667854140884
 20
-41.9120924669746
 10
-4.164943949765347
 20
-42.07317506934024
 10
-4.130973943837488
 20
-42.23442394264185
 10
-4.094825889473081
 20
-42.39582521767185
 10
-4.056559723062928
 20
-42.55736589729574
 10
-4.016228676996688
 20
-42.71903370346004
 10
-3.973880374556797
 20
-42.88081695865634
 10
-3.929557693160199
 20
-43.04270449249889
 10
-3.883299455206842
 20
-43.20468556699173
 10
-3.835140988280768
 20
-43.36674981595934
 10
-2.105684726476843
 20
-43.4850478651304
 10
-2.035907064390308
 20
-43.33105066839021
 10
-1.968023258030813
 20
-43.17687712362149
 10
-1.902069717466762
 20
-43.02253269000992
 10
-1.838086365661103
 20
-42.8680227192211
 10
-1.7761172017022
 20
-42.71335243912498
 10
-1.716210995393858
 20
-42.55852693376227
 10
-1.658422155177786
 20
-42.40355111835186
 10
-1.602811828970259
 20
-42.24842970763473
 10
-1.549449324560182
 20
-42.09316717507519
 10
-1.498413979112549
 20
-41.93776769921318
 10
-1.449797677817827
 20
-41.78223509144424
 10
-1.403708342586462
 20
-41.62657269604616
 10
-1.360274929656881
 20
-41.47078324703483
 10
-1.319654893114996
 20
-41.31486865446873
 10
-1.282045937732881
 20
-41.1588296680334
 10
-1.2477058679619
 20
-41.00266530898946
 10
-1.216989537058451
 20
-40.84637181287399
 10
-1.190428486185559
 20
-40.68994035081187
 10
-1.168952575691953
 20
-40.53335068833096
 10
-1.155201143552948
 20
-40.37653367203588
 42
-0.7981585520250417
 10
1.155201143552938
 20
-40.37653367203588
 10
1.168952575691938
 20
-40.53335068833096
 10
1.190428486185544
 20
-40.68994035081187
 10
1.216989537058436
 20
-40.84637181287399
 10
1.247705867961884
 20
-41.00266530898946
 10
1.282045937732866
 20
-41.1588296680334
 10
1.319654893114981
 20
-41.31486865446873
 10
1.360274929656865
 20
-41.47078324703483
 10
1.403708342586447
 20
-41.62657269604617
 10
1.449797677817811
 20
-41.78223509144424
 10
1.498413979112533
 20
-41.93776769921318
 10
1.549449324560167
 20
-42.09316717507519
 10
1.602811828970244
 20
-42.24842970763473
 10
1.658422155177771
 20
-42.40355111835186
 10
1.716210995393842
 20
-42.55852693376227
 10
1.776117201702184
 20
-42.71335243912499
 10
1.838086365661087
 20
-42.8680227192211
 10
1.902069717466746
 20
-43.02253269000992
 10
1.968023258030797
 20
-43.17687712362149
 10
2.035907064390292
 20
-43.33105066839021
 10
2.105684726476827
 20
-43.4850478651304
 10
3.835140988280752
 20
-43.36674981595934
 10
3.883299455206827
 20
-43.20468556699174
 10
3.929557693160183
 20
-43.04270449249889
 10
3.97388037455678
 20
-42.88081695865635
 10
4.016228676996673
 20
-42.71903370346005
 10
4.056559723062913
 20
-42.55736589729574
 10
4.094825889473066
 20
-42.39582521767185
 10
4.130973943837472
 20
-42.23442394264185
 10
4.164943949765332
 20
-42.07317506934024
 10
4.196667854140868
 20
-41.9120924669746
 10
4.226067627727503
 20
-41.75119107824161
 10
4.253052760143355
 20
-41.59048719073579
 10
4.277516790047574
 20
-41.42999881295103
 10
4.29933233458888
 20
-41.26974621297733
 10
4.318343666303473
 20
-41.10975272307803
 10
4.334355023934369
 20
-40.9500460067524
 10
4.347110870963111
 20
-40.79066019874535
 10
4.356259146661378
 20
-40.63163988883522
 10
4.361272058470884
 20
-40.47304870855854
 10
4.361225651552094
 20
-40.3149932278759
 10
4.353495754479907
 20
-40.15776432729839
 42
-0.7981585520250405
 10
6.642378830005869
 20
-39.84316458979888
 10
6.677355428194018
 20
-39.99664851750712
 10
6.719953600521508
 20
-40.14885539265333
 10
6.767568008335463
 20
-40.30021311434235
 10
6.819280207316891
 20
-40.45086834454917
 10
6.874564809304186
 20
-40.60090220809533
 10
6.933070778757627
 20
-40.75036675356017
 10
6.994542845702089
 20
-40.89929805493532
 10
7.058785044716241
 20
-41.04772229031415
 10
7.125641128163761
 20
-41.19565900742384
 10
7.194982968629806
 20
-41.34312305725216
 10
7.266703194015331
 20
-41.490125822035
 10
7.340710255968524
 20
-41.63667603757484
 10
7.416924987297251
 20
-41.78278036732679
 10
7.495278116612447
 20
-41.92844381690203
 10
7.575708423542348
 20
-42.07367004177976
 10
7.65816133711952
 20
-42.21846158113691
 10
7.742587849507958
 20
-42.36282003910656
 10
7.828943659567645
 20
-42.50674622771983
 10
7.917188487461894
 20
-42.65024028133294
 10
8.007285518888624
 20
-42.79330174944435
 10
9.704525282792055
 20
-42.44061127075869
 10
9.730167453438154
 20
-42.27349891988463
 10
9.753938419536251
 20
-42.1067277166055
 10
9.775804594072708
 20
-41.94031274098446
 10
9.795728978398445
 20
-41.77426991731933
 10
9.813670615493077
 20
-41.60861615042844
 10
9.829583915727188
 20
-41.44336949375807
 10
9.843417814381866
 20
-41.27854935947935
 10
9.855114703093342
 20
-41.11417678500828
 10
9.864609051119754
 20
-40.95027477693861
 10
9.87182559068998
 20
-40.78686876376963
 10
9.876676872267884
 20
-40.62398720588772
 10
9.879059878255566
 20
-40.46166244053875
 10
9.878851172090386
 20
-40.29993189233062
 10
9.875899653838667
 20
-40.13883988109564
 10
9.870015152420333
 20
-39.97844046882815
 10
9.860949159411678
 20
-39.81880226789163
 10
9.848358964837708
 20
-39.66001739168249
 10
9.831730356521609
 20
-39.50222074681374
 10
9.810162496663516
 20
-39.34564372248207
 10
9.781095263737067
 20
-39.19093181455136
 42
-0.7981585520250368
 10
12.00582156671922
 20
-38.56759273741639
 10
12.06137178311054
 20
-38.71488446136733
 10
12.12429869392029
 20
-38.85987322308133
 10
12.19207949234765
 20
-39.00333769642199
 10
12.26382425898327
 20
-39.14554823883206
 10
12.33902354565434
 20
-39.28665675987754
 10
12.41733667366574
 20
-39.42676262268766
 10
12.49851566271522
 20
-39.56593632451607
 10
12.58236993719721
 20
-39.70423048358674
 10
12.66874736652283
 20
-39.84168574127532
 10
12.75752303887212
 20
-39.9783342569274
 10
12.84859213209648
 20
-40.11420192726307
 10
12.94186514005534
 20
-40.24930987255136
 10
13.03726454026442
 20
-40.38367547411487
 10
13.13472238812941
 20
-40.51731312339518
 10
13.23417853124275
 20
-40.65023477799704
 10
13.33557925266516
 20
-40.7824503841931
 10
13.43887621945167
 20
-40.9139682044083
 10
13.54402565365705
 20
-41.04479507544822
 10
13.65098766890801
 20
-41.17493661518807
 10
13.75972573244959
 20
-41.30439739020247
 10
15.39313263295196
 20
-40.72388443830413
 10
15.3957808421958
 20
-40.55483697243167
 10
15.39662172831662
 20
-40.38638227234011
 10
15.39562407053372
 20
-40.21853985106718
 10
15.39275338316369
 20
-40.05133052257302
 10
15.38797139253452
 20
-39.88477661120375
 10
15.38123539191835
 20
-39.71890221004198
 10
15.3724974355061
 20
-39.55373350376449
 10
15.36170331609587
 20
-39.3892991781815
 10
15.34879124603341
 20
-39.22563094870363
 10
15.33369012110926
 20
-39.06276425594795
 10
15.3163171816524
 20
-38.90073920292955
 10
15.29657477283081
 20
-38.73960185326456
 10
15.27434570376011
 20
-38.57940609092918
 10
15.24948631674263
 20
-38.42021639773004
 10
15.22181557340258
 20
-38.26211222708389
 10
15.19109662265276
 20
-38.10519539085428
 10
15.1570024893099
 20
-37.94960381015736
 10
15.11904212037859
 20
-37.79554115362775
 10
15.07635457600239
 20
-37.64335931935523
 10
15.02649147477378
 20
-37.49404639418989
 42
-0.7981585520250379
 10
17.14561856353132
 20
-36.57357960502368
 10
17.22070760269948
 20
-36.71193535908676
 10
17.30279104270539
 20
-36.84700514106709
 10
17.38947560371766
 20
-36.97990389436626
 10
17.47991646875136
 20
-37.11102063564716
 10
17.57362961967804
 20
-37.24057522943246
 10
17.67029108084667
 20
-37.36871250245419
 10
17.76966478103172
 20
-37.49553606199756
 10
17.87156908450634
 20
-37.62112398623917
 10
17.97585881163409
 20
-37.74553725313122
 10
18.08241459306078
 20
-37.8688247313094
 10
18.19113610922655
 20
-37.99102634957106
 10
18.30193756353211
 20
-38.11217521922112
 10
18.41474452229825
 20
-38.23229911566855
 10
18.52949163340464
 20
-38.35142154809997
 10
18.64612093293347
 20
-38.46956255349815
 10
18.76458055861854
 20
-38.58673929995124
 10
18.88482375275726
 20
-38.70296655426263
 10
19.00680807609946
 20
-38.81825705065568
 10
19.13049477874291
 20
-38.93262178587417
 10
19.25584829001587
 20
-39.04607025850224
 10
20.79499504708537
 20
-38.24854869131239
 10
20.77459996379933
 20
-38.08071514488065
 10
20.75249510582546
 20
-37.91371494031083
 10
20.72865220020006
 20
-37.74757166012429
 10
20.70303991660842
 20
-37.58231062021871
 10
20.675623377693
 20
-37.41795914860779
 10
20.64636355517302
 20
-37.25454692920184
 10
20.61521651528896
 20
-37.09210643141234
 10
20.58213246177837
 20
-36.93067345508134
 10
20.54705450106175
 20
-36.77028783363826
 10
20.50991701702811
 20
-36.6109943596263
 10
20.4706434815277
 20
-36.45284403164597
 10
20.42914342161912
 20
-36.29589578160565
 10
20.38530807514068
 20
-36.1402189490933
 10
20.3390039027018
 20
-35.98589697671584
 10
20.2900623710334
 20
-35.83303322924558
 10
20.23826269847241
 20
-35.68176082148377
 10
20.18329973555626
 20
-35.53226091305689
 10
20.12471473585916
 20
-35.38480214065982
 10
20.06170269514865
 20
-35.23985035607986
 10
19.99197258084915
 20
-35.09871783096484
 42
-0.7981585520250403
 10
21.96602512726101
 20
-33.89826988445947
 10
22.05925422248024
 20
-34.02511236271562
 10
22.15896513250283
 20
-34.14774707048583
 10
22.26293868674183
 20
-34.26760445142366
 10
22.37039090797873
 20
-34.38518493476772
 10
22.48087222447134
 20
-34.50077224433733
 10
22.59408139866613
 20
-34.61455397261929
 10
22.70979866597457
 20
-34.72666490692271
 10
22.82785471407843
 20
-34.83720713092813
 10
22.94811401871567
 20
-34.94626082326041
 10
23.07046497662305
 20
-35.05389065151509
 10
23.19481363959307
 20
-35.16014983276884
 10
23.32107951879603
 20
-35.26508285256158
 10
23.44919265591637
 20
-35.36872736298525
 10
23.57909150869413
 20
-35.47111555303989
 10
23.71072138145933
 20
-35.57227516583518
 10
23.84403323271476
 20
-35.67223027146578
 10
23.97898275100776
 20
-35.77100186603597
 10
24.11552962634611
 20
-35.86860834397234
 10
24.25363696713603
 20
-35.96506587603874
 10
24.39327082740331
 20
-36.06038871588817
 10
25.80948604913323
 20
-35.06071485123481
 10
25.76642759512997
 20
-34.89722164566054
 10
25.72178876474147
 20
-34.73478683444709
 10
25.67554475949284
 20
-34.57343763030163
 10
25.62766798806261
 20
-34.4132033794722
 10
25.57812761910685
 20
-34.2541159045708
 10
25.5268890298149
 20
-34.09620992738042
 10
25.47391311687961
 20
-33.93952359720349
 10
25.41915542258812
 20
-33.78409916103061
 10
25.36256500725542
 20
-33.62998382828857
 10
25.30408296517304
 20
-33.47723090904633
 10
25.24364042528708
 20
-33.32590134748244
 10
25.18115578188647
 20
-33.17606584600755
 10
25.11653072756552
 20
-33.02780790815604
 10
25.04964432882691
 20
-32.88122838295727
 10
24.98034369696423
 20
-32.73645262104896
 10
24.90842823248311
 20
-32.59364256049318
 10
24.83362029599889
 20
-32.45301922476565
 10
24.75550199323327
 20
-32.31491121442815
 10
24.67333925128352
 20
-32.17988965702816
 10
24.5850410640081
 20
-32.04956656387336
 42
-0.79815855202504
 10
26.37724620418543
 20
-30.59149953393752
 10
26.48687867380801
 20
-30.70446590101204
 10
26.60235962825385
 20
-30.81238108200014
 10
26.72168534512962
 20
-30.91696437434861
 10
26.84414729099549
 20
-31.01881829782195
 10
26.96933871516645
 20
-31.11828515029817
 10
27.09698672967214
 20
-31.21559179552579
 10
27.22689197035949
 20
-31.31090169000522
 10
27.35890060228704
 20
-31.40433902129514
 10
27.49288928112771
 20
-31.496001675117
 10
27.62875624866689
 20
-31.58596891339125
 10
27.76641567812672
 20
-31.67430625014045
 10
27.90579388780174
 20
-31.761068716458
 10
28.0468266979311
 20
-31.84630313973166
 10
28.18945752253103
 20
-31.9300497891547
 10
28.33363595305628
 20
-32.01234359716207
 10
28.47931668232891
 20
-32.09321508747462
 10
28.62645867058467
 20
-32.17269109437979
 10
28.77502448798822
 20
-32.25079532985407
 10
28.92497978847483
 20
-32.32754883745064
 10
29.07629288311706
 20
-32.40297036037278
 10
30.34319515950867
 20
-31.21976623089881
 10
30.27827543231653
 20
-31.06365893526085
 10
30.21193416646363
 20
-30.90881537059818
 10
30.14415049991255
 20
-30.75526587288262
 10
30.07490109430913
 20
-30.60304327204745
 10
30.00415973865271
 20
-30.45218329250793
 10
29.93189686056016
 20
-30.30272504711859
 10
29.85807891559734
 20
-30.1547116544235
 10
29.78266761276408
 20
-30.00819102158032
 10
29.70561891517978
 20
-29.86321685459089
 10
29.62688172484038
 20
-29.71984998798425
 10
29.54639611072525
 20
-29.5781601762422
 10
29.46409085451369
 20
-29.43822857522555
 10
29.37987993483693
 20
-29.30015129690228
 10
29.29365727685317
 20
-29.16404471809753
 10
29.20528848444595
 20
-29.03005384026926
 10
29.11459687707874
 20
-28.89836640814064
 10
29.02133749734108
 20
-28.76923919178749
 10
28.92514108768196
 20
-28.64305463443177
 10
28.82535818091763
 20
-28.52047850035553
 10
28.72013674882863
 20
-28.40339251180564
 42
-0.7981585520250374
 10
30.29710909199233
 20
-26.71486742843823
 10
30.42110269054178
 20
-26.81185333465309
 10
30.55020249772791
 20
-26.90303873322064
 10
30.68265756490799
 20
-26.9903997481225
 10
30.81784800105823
 20
-27.07462976584583
 10
30.95541745354652
 20
-27.15612328196555
 10
31.0951264673722
 20
-27.23514220544946
 10
31.2367997925946
 20
-27.31187561710401
 10
31.38030193730295
 20
-27.38646749498671
 10
31.52552403477656
 20
-27.45903160848986
 10
31.67237606741245
 20
-27.52966033735918
 10
31.82078192865292
 20
-27.59843027216084
 10
31.97067611646744
 20
-27.66540596441661
 10
32.12200142519743
 20
-27.73064254450439
 10
32.27470727922514
 20
-27.79418761167182
 10
32.42874849614581
 20
-27.85608263695396
 10
32.5840843470878
 20
-27.91636402909866
 10
32.74067782846846
 20
-27.97506396070456
 10
32.89849508785632
 20
-28.03221101958875
 10
33.05750496451786
 20
-28.08783073009219
 10
33.21767861687722
 20
-28.14194597581798
 10
34.31166795559251
 20
-26.79725243574732
 10
34.22609628689625
 20
-26.65143903359705
 10
34.13928839783929
 20
-26.50707115811957
 10
34.05122775144198
 20
-26.36418170344955
 10
33.96189569706687
 20
-26.22280637164597
 10
33.87127113231787
 20
-26.08298412344909
 10
33.77933008611697
 20
-25.94475773418654
 10
33.68604519777237
 20
-25.80817448842713
 10
33.59138505628545
 20
-25.67328706107583
 10
33.49531334790381
 20
-25.54015465426835
 10
33.39778773418691
 20
-25.40884449376166
 10
33.29875834054896
 20
-25.27943384494678
 10
33.19816566272213
 20
-25.15201280535456
 10
33.09593756778997
 20
-25.02668830500245
 10
32.99198481553977
 20
-24.90359008063132
 10
32.8861940059904
 20
-24.78288008341655
 10
32.7784156687872
 20
-24.66476836741346
 10
32.6684420915871
 20
-24.54954266615727
 10
32.55595953213584
 20
-24.43763214133652
 10
32.44041522731342
 20
-24.3297847920389
 10
32.32023062660409
 20
-24.22811699852543
 42
-0.7981585520250416
 10
33.65259416174724
 20
-22.34058788921745
 10
33.7886391230875
 20
-22.41978667064425
 10
33.92895289787224
 20
-22.49254367534533
 10
34.07206992806968
 20
-22.56105504238635
 10
34.21747051246895
 20
-22.62609210849881
 10
34.3648553346661
 20
-22.68809421824836
 10
34.51402283322379
 20
-22.7473534469536
 10
34.66482513698858
 20
-22.80408097750933
 10
34.8171476210383
 20
-22.85843789643312
 10
34.97089792423969
 20
-22.91055173747956
 10
35.125999446459
 20
-22.96052627735981
 10
35.28238721907985
 20
-23.0084477564463
 10
35.44000513992561
 20
-23.05438904421643
 10
35.59880404307307
 20
-23.09841254706365
 10
35.75874030539858
 20
-23.14057230760602
 10
35.91977481230062
 20
-23.18091556295181
 10
36.08187217191564
 20
-23.21948392864978
 10
36.24500010614931
 20
-23.25631431629512
 10
36.4091289705808
 20
-23.2914396570086
 10
36.57423137027332
 20
-23.32488948044876
 10
36.74028184826655
 20
-23.35669038434032
 10
37.64097929783258
 20
-21.8755565300666
 10
37.53634972591219
 20
-21.74275324919652
 10
37.43069228037746
 20
-21.61155036326987
 10
37.32399505735917
 20
-21.48198271182865
 10
37.21624444136263
 20
-21.35408820399577
 10
37.10742483169405
 20
-21.22790831107159
 10
36.9975183051164
 20
-21.10348867403341
 10
36.88650419435807
 20
-20.98087986265273
 10
36.77435855354953
 20
-20.86013833834806
 10
36.66105346852306
 20
-20.74132769656518
 10
36.54655614908668
 20
-20.62452030200031
 10
36.43082770615857
 20
-20.50979949164568
 10
36.31382145797573
 20
-20.39726262635563
 10
36.19548050377376
 20
-20.28702546229317
 10
36.07573410034537
 20
-20.17922867936491
 10
35.95449195627185
 20
-20.07404816161967
 10
35.83163459573034
 20
-19.9717123595353
 10
35.70699542073304
 20
-19.87253461017508
 10
35.58032204874704
 20
-19.77698279922386
 10
35.45116871764716
 20
-19.68587322676726
 10
35.31825976003069
 20
-19.60151750692049
 42
-0.7981585520250403
 10
36.38119507542218
 20
-17.55014546763617
 10
36.52675713933043
 20
-17.61008180082677
 10
36.6756711015734
 20
-17.66305508632535
 10
36.82678409530345
 20
-17.71144056836602
 10
36.97968629017285
 20
-17.75607316538079
 10
37.13414098170413
 20
-17.79742888676805
 10
37.28998825673145
 20
-17.83582453338661
 10
37.4471103774484
 20
-17.87148945628187
 10
37.60541572116686
 20
-17.90459884969444
 10
37.76483015285413
 20
-17.93529163602866
 10
37.92529191676125
 20
-17.96368105579732
 10
38.0867483924556
 20
-17.98986139268417
 10
38.24915392269178
 20
-18.01391247670177
 10
38.41246829715015
 20
-18.03590282774605
 10
38.57665565781736
 20
-18.05589192509379
 10
38.74168368652617
 20
-18.0739318919885
 10
38.90752298770459
 20
-18.09006877556094
 10
39.0741466100264
 20
-18.10434353880965
 10
39.2415296693009
 20
-18.11679284271463
 10
39.40964904670386
 20
-18.12744967217031
 10
39.57848314410551
 20
-18.13634384355777
 10
40.26911041522188
 20
-16.54636039637323
 10
40.14737199103549
 20
-16.4290411106325
 10
40.02483318732175
 20
-16.31344727577609
 10
39.90148695506841
 20
-16.19961502775862
 10
39.77732496755445
 20
-16.08758377659165
 10
39.65233741639983
 20
-15.97739673160384
 10
39.52651276008442
 20
-15.86910154921706
 10
39.39983740974905
 20
-15.76275114238636
 10
39.27229533071944
 20
-15.65840470727436
 10
39.14386752840071
 20
-15.55612904797413
 10
39.0145313716687
 20
-15.45600032010374
 10
38.88425968137555
 20
-15.35810637984617
 10
38.75301946785604
 20
-15.26255003773071
 10
38.62077012245136
 20
-15.16945371974767
 10
38.48746071677176
 20
-15.07896642836887
 10
38.35302574991924
 20
-14.99127470412958
 10
38.21737796621123
 20
-14.90662113832999
 10
38.08039498542056
 20
-14.8253388346848
 10
37.94189048614469
 20
-14.74792568705016
 10
37.80153401095826
 20
-14.67525109038352
 10
37.65837653884164
 20
-14.60977883165706
 42
-0.7981585520250437
 10
38.43208316070663
 20
-12.43277704214324
 10
38.58445078134624
 20
-12.47233442661419
 10
38.73919094568691
 20
-12.50453720083074
 10
38.89548495379312
 20
-12.53189546788951
 10
39.05304048054432
 20
-12.55529217497232
 10
39.21168784274599
 20
-12.57523112915585
 10
39.37131175438354
 20
-12.59204795543859
 10
39.53182680423018
 20
-12.60598590064047
 10
39.6931660785891
 20
-12.61723100318792
 10
39.85527504952361
 20
-12.62593098627348
 10
40.01810795606228
 20
-12.63220644475512
 10
40.18162550617533
 20
-12.63615794930123
 10
40.3457933380567
 20
-12.63787080337744
 10
40.51058094603246
 20
-12.63741836398617
 10
40.67596090516657
 20
-12.63486443907652
 10
40.84190829575233
 20
-12.63026506706983
 10
41.00840026609318
 20
-12.62366986890794
 10
41.17541569368329
 20
-12.6151230959296
 10
41.34293491810742
 20
-12.60466445604931
 10
41.51093952731388
 20
-12.59232977495125
 10
41.67941218433575
 20
-12.57815153225007
 10
42.14710419765854
 20
-10.90893687541155
 10
42.01052467771079
 20
-10.8092870211169
 10
41.8733871818789
 20
-10.71145553176218
 10
41.73568964731734
 20
-10.61547916657013
 10
41.59742919118987
 20
-10.52139810230706
 10
41.45860198014168
 20
-10.42925648142183
 10
41.31920306936627
 20
-10.33910308803196
 10
41.17922620155164
 20
-10.2509921926078
 10
41.03866355191442
 20
-10.16498462334359
 10
40.8975053992659
 20
-10.08114914854578
 10
40.75573969312475
 20
-9.999564296119278
 10
40.61335147057324
 20
-9.9203208048433
 10
40.47032204857889
 20
-9.843525019756498
 10
40.32662786705102
 20
-9.769303756111899
 10
40.18223876111694
 20
-9.69781156331244
 10
40.03711524055715
 20
-9.62924216348255
 10
39.89120389523767
 20
-9.563847769727881
 10
39.744428842404
 20
-9.501975047322619
 10
39.59667329259918
 20
-9.444142623473699
 10
39.44772824889428
 20
-9.391256792827292
 10
39.29698901511872
 20
-9.345887619522941
 42
-0.7981585520250301
 10
39.76705425300096
 20
-7.083809504072763
 10
39.92338910989005
 20
-7.102251060596828
 10
40.08107295984637
 20
-7.113083446777674
 10
40.23963652067735
 20
-7.118904866103057
 10
40.39891041795347
 20
-7.120629846869217
 10
40.55879515064005
 20
-7.118780608858549
 10
40.71922220743408
 20
-7.113705349150472
 10
40.8801400947379
 20
-7.105656679111464
 10
41.04150785432161
 20
-7.094828015809887
 10
41.20329158109679
 20
-7.081373131422917
 10
41.36546236130989
 20
-7.065417728699632
 10
41.5279949632701
 20
-7.04706679185184
 10
41.69086696070618
 20
-7.026409508756074
 10
41.85405812085289
 20
-7.003522707019066
 10
42.01754996272612
 20
-6.97847333464088
 10
42.18132542928673
 20
-6.951320301330925
 10
42.34536863839749
 20
-6.922115877497876
 10
42.50966468984521
 20
-6.890906778501948
 10
42.6741995132265
 20
-6.85773501950885
 10
42.83895974624387
 20
-6.822638599627797
 10
43.00393263604814
 20
-6.785652056673238
 10
43.23997717427643
 20
-5.068300500962212
 10
43.09110077660557
 20
-4.9881763663544
 10
42.94191920072877
 20
-4.90992963804375
 10
42.79243540839415
 20
-4.833597013766399
 10
42.64265201435198
 20
-4.759218688626228
 10
42.49257123168087
 20
-4.686838915902033
 10
42.34219480440036
 20
-4.616506698651158
 10
42.19152392330744
 20
-4.548276653903078
 10
42.04055911927058
 20
-4.48221010876946
 10
41.88930012559464
 20
-4.418376514746761
 10
41.73774569691876
 20
-4.356855309200377
 10
41.58589336528614
 20
-4.297738423214023
 10
41.43373910232666
 20
-4.241133755328846
 10
41.28127683539763
 20
-4.187170147732361
 10
41.12849772505794
 20
-4.136004817795664
 10
40.97538902739466
 20
-4.087835060555723
 10
40.82193217275215
 20
-4.042918012670685
 10
40.6680991894007
 20
-4.001607443256071
 10
40.51384499539558
 20
-3.964433051826023
 10
40.35908594752157
 20
-3.932321150160963
 10
40.20357293880271
 20
-3.907900204135612
 42
-0.7981585520250388
 10
40.36124036671809
 20
-1.602883998023665
 10
40.5186302372697
 20
-1.59986619529556
 10
40.67632042106629
 20
-1.589126406581838
 10
40.83419979549755
 20
-1.573302536146347
 10
40.99222509195012
 20
-1.553323657467955
 10
41.15036884506519
 20
-1.529720675068322
 10
41.30861059448727
 20
-1.502847871855033
 10
41.46693372347612
 20
-1.472962518069315
 10
41.6253239922431
 20
-1.440261806427388
 10
41.78376875013571
 20
-1.4049026936064
 10
41.94225646922676
 20
-1.367013648642138
 10
42.10077644818313
 20
-1.32670211363261
 10
42.25931861402733
 20
-1.284059499463862
 10
42.41787338380097
 20
-1.239164673193996
 10
42.57643156473768
 20
-1.192086475759428
 10
42.73498428020621
 20
-1.142885590781278
 10
42.8935229134828
 20
-1.09161596443617
 10
43.05203906420973
 20
-1.038325905887099
 10
43.21052451410042
 20
-0.983058954887835
 10
43.36897119952593
 20
-0.9258545761212064
 10
43.52737118931624
 20
-0.8667487222272851
 10
43.52737118931624
 20
0.8667487222272851
 10
43.36897119952593
 20
0.9258545761212064
 10
43.21052451410042
 20
0.983058954887835
 10
43.05203906420973
 20
1.038325905887099
 10
42.8935229134828
 20
1.09161596443617
 10
42.73498428020621
 20
1.142885590781278
 10
42.57643156473768
 20
1.192086475759428
 10
42.41787338380097
 20
1.239164673193996
 10
42.25931861402733
 20
1.284059499463862
 10
42.10077644818313
 20
1.32670211363261
 10
41.94225646922676
 20
1.367013648642138
 10
41.78376875013571
 20
1.4049026936064
 10
41.6253239922431
 20
1.440261806427388
 10
41.46693372347612
 20
1.472962518069315
 10
41.30861059448727
 20
1.502847871855033
 10
41.15036884506519
 20
1.529720675068322
 10
40.99222509195012
 20
1.553323657467955
 10
40.83419979549755
 20
1.573302536146347
 10
40.67632042106629
 20
1.589126406581838
 10
40.5186302372697
 20
1.59986619529556
 10
40.36124036671808
 20
1.602883998023665
 42
-0.7981585520250376
 10
40.20357293880272
 20
3.907900204135594
 10
40.35908594752157
 20
3.932321150160943
 10
40.51384499539559
 20
3.96443305182598
 10
40.66809918940071
 20
4.001607443256037
 10
40.82193217275216
 20
4.042918012670671
 10
40.97538902739466
 20
4.087835060555715
 10
41.12849772505794
 20
4.136004817795652
 10
41.28127683539763
 20
4.18717014773233
 10
41.43373910232666
 20
4.241133755328829
 10
41.58589336528614
 20
4.297738423213998
 10
41.73774569691876
 20
4.356855309200366
 10
41.88930012559464
 20
4.418376514746752
 10
42.04055911927058
 20
4.482210108769448
 10
42.19152392330744
 20
4.548276653903049
 10
42.34219480440036
 20
4.616506698651148
 10
42.49257123168088
 20
4.686838915902011
 10
42.64265201435198
 20
4.759218688626217
 10
42.79243540839416
 20
4.833597013766354
 10
42.94191920072878
 20
4.909929638043732
 10
43.09110077660557
 20
4.988176366354367
 10
43.23997717427643
 20
5.068300500962179
 10
43.00393263604814
 20
6.785652056673215
 10
42.83895974624387
 20
6.822638599627774
 10
42.6741995132265
 20
6.857735019508816
 10
42.50966468984521
 20
6.890906778501938
 10
42.3453686383975
 20
6.922115877497832
 10
42.18132542928674
 20
6.951320301330892
 10
42.01754996272613
 20
6.978473334640837
 10
41.85405812085289
 20
7.00352270701904
 10
41.69086696070619
 20
7.026409508756034
 10
41.52799496327011
 20
7.047066791851797
 10
41.36546236130989
 20
7.065417728699591
 10
41.2032915810968
 20
7.081373131422888
 10
41.04150785432161
 20
7.094828015809852
 10
40.8801400947379
 20
7.105656679111441
 10
40.71922220743409
 20
7.113705349150431
 10
40.55879515064007
 20
7.118780608858504
 10
40.39891041795347
 20
7.12062984686918
 10
40.23963652067736
 20
7.118904866103041
 10
40.08107295984637
 20
7.113083446777665
 10
39.92338910989005
 20
7.102251060596798
 10
39.76705425300097
 20
7.083809504072736
 42
-0.7981585520250425
 10
39.29698901511873
 20
9.345887619522948
 10
39.44772824889428
 20
9.391256792827292
 10
39.59667329259919
 20
9.444142623473676
 10
39.744428842404
 20
9.501975047322604
 10
39.89120389523767
 20
9.563847769727886
 10
40.03711524055715
 20
9.629242163482562
 10
40.18223876111693
 20
9.697811563312449
 10
40.32662786705102
 20
9.769303756111889
 10
40.47032204857889
 20
9.843525019756502
 10
40.61335147057324
 20
9.920320804843296
 10
40.75573969312475
 20
9.999564296119289
 10
40.89750539926589
 20
10.08114914854579
 10
41.03866355191441
 20
10.16498462334359
 10
41.17922620155164
 20
10.2509921926078
 10
41.31920306936627
 20
10.33910308803197
 10
41.45860198014168
 20
10.42925648142183
 10
41.59742919118987
 20
10.52139810230707
 10
41.73568964731735
 20
10.61547916657011
 10
41.8733871818789
 20
10.71145553176218
 10
42.01052467771079
 20
10.80928702111689
 10
42.14710419765854
 20
10.90893687541154
 10
41.67941218433575
 20
12.57815153225007
 10
41.51093952731388
 20
12.59232977495125
 10
41.34293491810742
 20
12.6046644560493
 10
41.17541569368328
 20
12.61512309592961
 10
41.00840026609319
 20
12.62366986890792
 10
40.84190829575233
 20
12.63026506706982
 10
40.67596090516658
 20
12.6348644390765
 10
40.51058094603246
 20
12.63741836398617
 10
40.3457933380567
 20
12.63787080337742
 10
40.18162550617534
 20
12.6361579493012
 10
40.01810795606229
 20
12.6322064447551
 10
39.85527504952361
 20
12.62593098627348
 10
39.69316607858911
 20
12.61723100318791
 10
39.53182680423018
 20
12.60598590064047
 10
39.37131175438355
 20
12.59204795543857
 10
39.211687842746
 20
12.57523112915583
 10
39.05304048054432
 20
12.5552921749723
 10
38.89548495379312
 20
12.53189546788951
 10
38.7391909456869
 20
12.50453720083076
 10
38.58445078134624
 20
12.47233442661419
 10
38.43208316070663
 20
12.43277704214323
 42
-0.7981585520250414
 10
37.65837653884165
 20
14.60977883165705
 10
37.80153401095826
 20
14.6752510903835
 10
37.9418904861447
 20
14.74792568705013
 10
38.08039498542057
 20
14.82533883468477
 10
38.21737796621124
 20
14.90662113832998
 10
38.35302574991924
 20
14.99127470412958
 10
38.48746071677176
 20
15.07896642836887
 10
38.62077012245137
 20
15.16945371974764
 10
38.75301946785604
 20
15.26255003773069
 10
38.88425968137556
 20
15.35810637984615
 10
39.0145313716687
 20
15.45600032010374
 10
39.14386752840071
 20
15.55612904797413
 10
39.27229533071944
 20
15.65840470727436
 10
39.39983740974905
 20
15.76275114238634
 10
39.52651276008442
 20
15.86910154921705
 10
39.65233741639983
 20
15.97739673160382
 10
39.77732496755446
 20
16.08758377659165
 10
39.90148695506842
 20
16.19961502775858
 10
40.02483318732175
 20
16.31344727577608
 10
40.14737199103551
 20
16.42904111063248
 10
40.2691104152219
 20
16.54636039637321
 10
39.57848314410552
 20
18.13634384355776
 10
39.40964904670386
 20
18.1274496721703
 10
39.24152966930091
 20
18.1167928427146
 10
39.0741466100264
 20
18.10434353880965
 10
38.9075229877046
 20
18.0900687755609
 10
38.74168368652618
 20
18.07393189198847
 10
38.57665565781738
 20
18.05589192509376
 10
38.41246829715016
 20
18.03590282774603
 10
38.2491539226918
 20
18.01391247670173
 10
38.08674839245563
 20
17.98986139268413
 10
37.92529191676127
 20
17.96368105579728
 10
37.76483015285415
 20
17.93529163602863
 10
37.60541572116687
 20
17.90459884969441
 10
37.44711037744842
 20
17.87148945628185
 10
37.28998825673146
 20
17.83582453338658
 10
37.13414098170414
 20
17.79742888676801
 10
36.97968629017286
 20
17.75607316538076
 10
36.82678409530345
 20
17.71144056836601
 10
36.67567110157341
 20
17.66305508632535
 10
36.52675713933044
 20
17.61008180082674
 10
36.38119507542219
 20
17.55014546763615
 42
-0.7981585520250399
 10
35.31825976003069
 20
19.6015175069205
 10
35.45116871764716
 20
19.68587322676726
 10
35.58032204874704
 20
19.77698279922384
 10
35.70699542073304
 20
19.87253461017507
 10
35.83163459573033
 20
19.97171235953531
 10
35.95449195627184
 20
20.07404816161969
 10
36.07573410034536
 20
20.17922867936492
 10
36.19548050377377
 20
20.28702546229317
 10
36.31382145797573
 20
20.39726262635564
 10
36.43082770615857
 20
20.50979949164568
 10
36.54655614908667
 20
20.62452030200032
 10
36.66105346852304
 20
20.7413276965652
 10
36.77435855354953
 20
20.86013833834807
 10
36.88650419435808
 20
20.98087986265273
 10
36.99751830511639
 20
21.10348867403343
 10
37.10742483169405
 20
21.2279083110716
 10
37.21624444136263
 20
21.35408820399578
 10
37.32399505735918
 20
21.48198271182863
 10
37.43069228037746
 20
21.61155036326987
 10
37.5363497259122
 20
21.74275324919651
 10
37.64097929783259
 20
21.87555653006659
 10
36.74028184826655
 20
23.35669038434033
 10
36.57423137027332
 20
23.32488948044876
 10
36.4091289705808
 20
23.29143965700859
 10
36.24500010614931
 20
23.25631431629513
 10
36.08187217191566
 20
23.21948392864977
 10
35.91977481230062
 20
23.1809155629518
 10
35.75874030539859
 20
23.14057230760601
 10
35.59880404307307
 20
23.09841254706365
 10
35.44000513992562
 20
23.05438904421642
 10
35.28238721907987
 20
23.00844775644628
 10
35.12599944645901
 20
22.9605262773598
 10
34.97089792423969
 20
22.91055173747956
 10
34.81714762103831
 20
22.85843789643311
 10
34.66482513698858
 20
22.80408097750933
 10
34.5140228332238
 20
22.74735344695359
 10
34.36485533466611
 20
22.68809421824834
 10
34.21747051246896
 20
22.6260921084988
 10
34.07206992806967
 20
22.56105504238635
 10
33.92895289787223
 20
22.49254367534535
 10
33.7886391230875
 20
22.41978667064424
 10
33.65259416174724
 20
22.34058788921744
 42
-0.798158552025037
 10
32.3202306266041
 20
24.22811699852542
 10
32.44041522731344
 20
24.32978479203889
 10
32.55595953213587
 20
24.43763214133649
 10
32.66844209158712
 20
24.54954266615725
 10
32.7784156687872
 20
24.66476836741346
 10
32.8861940059904
 20
24.78288008341655
 10
32.99198481553977
 20
24.90359008063131
 10
33.09593756778999
 20
25.02668830500243
 10
33.19816566272214
 20
25.15201280535456
 10
33.29875834054897
 20
25.27943384494677
 10
33.39778773418692
 20
25.40884449376165
 10
33.49531334790381
 20
25.54015465426835
 10
33.59138505628545
 20
25.67328706107582
 10
33.68604519777237
 20
25.80817448842711
 10
33.77933008611697
 20
25.94475773418653
 10
33.87127113231787
 20
26.08298412344908
 10
33.96189569706687
 20
26.22280637164597
 10
34.05122775144201
 20
26.36418170344952
 10
34.13928839783929
 20
26.50707115811957
 10
34.22609628689627
 20
26.65143903359703
 10
34.31166795559253
 20
26.7972524357473
 10
33.21767861687723
 20
28.14194597581797
 10
33.05750496451787
 20
28.08783073009218
 10
32.89849508785633
 20
28.03221101958872
 10
32.74067782846846
 20
27.97506396070455
 10
32.58408434708782
 20
27.91636402909863
 10
32.42874849614582
 20
27.85608263695394
 10
32.27470727922516
 20
27.79418761167179
 10
32.12200142519745
 20
27.73064254450438
 10
31.97067611646747
 20
27.66540596441659
 10
31.82078192865294
 20
27.59843027216082
 10
31.67237606741247
 20
27.52966033735915
 10
31.52552403477658
 20
27.45903160848984
 10
31.38030193730296
 20
27.38646749498669
 10
31.23679979259461
 20
27.311875617104
 10
31.09512646737221
 20
27.23514220544943
 10
30.95541745354654
 20
27.15612328196552
 10
30.81784800105825
 20
27.07462976584581
 10
30.68265756490799
 20
26.99039974812249
 10
30.55020249772791
 20
26.90303873322064
 10
30.4211026905418
 20
26.81185333465307
 10
30.29710909199234
 20
26.71486742843821
 42
-0.7981585520250405
 10
28.72013674882866
 20
28.40339251180562
 10
28.82535818091764
 20
28.52047850035551
 10
28.92514108768199
 20
28.64305463443174
 10
29.0213374973411
 20
28.76923919178746
 10
29.11459687707875
 20
28.89836640814063
 10
29.20528848444597
 20
29.03005384026925
 10
29.29365727685318
 20
29.16404471809751
 10
29.37987993483695
 20
29.30015129690225
 10
29.4640908545137
 20
29.43822857522553
 10
29.54639611072527
 20
29.57816017624218
 10
29.62688172484039
 20
29.71984998798424
 10
29.70561891517979
 20
29.86321685459088
 10
29.78266761276409
 20
30.00819102158031
 10
29.85807891559737
 20
30.15471165442348
 10
29.93189686056018
 20
30.30272504711857
 10
30.00415973865272
 20
30.4521832925079
 10
30.07490109430915
 20
30.60304327204744
 10
30.14415049991259
 20
30.75526587288259
 10
30.21193416646365
 20
30.90881537059817
 10
30.27827543231656
 20
31.06365893526082
 10
30.3431951595087
 20
31.21976623089878
 10
29.07629288311708
 20
32.40297036037276
 10
28.92497978847485
 20
32.32754883745063
 10
28.77502448798826
 20
32.25079532985404
 10
28.62645867058468
 20
32.17269109437978
 10
28.47931668232894
 20
32.09321508747458
 10
28.33363595305631
 20
32.01234359716204
 10
28.18945752253107
 20
31.93004978915467
 10
28.04682669793112
 20
31.84630313973164
 10
27.90579388780178
 20
31.76106871645797
 10
27.76641567812677
 20
31.67430625014042
 10
27.62875624866692
 20
31.58596891339122
 10
27.49288928112773
 20
31.49600167511698
 10
27.35890060228707
 20
31.40433902129511
 10
27.22689197035951
 20
31.3109016900052
 10
27.09698672967218
 20
31.21559179552575
 10
26.96933871516649
 20
31.11828515029814
 10
26.84414729099552
 20
31.01881829782192
 10
26.72168534512964
 20
30.91696437434859
 10
26.60235962825386
 20
30.81238108200013
 10
26.48687867380803
 20
30.70446590101201
 10
26.37724620418545
 20
30.59149953393749
 42
-0.7981585520250345
 10
24.58504106400811
 20
32.04956656387336
 10
24.67333925128353
 20
32.17988965702816
 10
24.75550199323329
 20
32.31491121442813
 10
24.83362029599891
 20
32.45301922476563
 10
24.90842823248311
 20
32.59364256049318
 10
24.98034369696422
 20
32.73645262104897
 10
25.04964432882691
 20
32.88122838295727
 10
25.11653072756554
 20
33.02780790815603
 10
25.18115578188647
 20
33.17606584600755
 10
25.24364042528708
 20
33.32590134748244
 10
25.30408296517304
 20
33.47723090904633
 10
25.36256500725542
 20
33.62998382828858
 10
25.41915542258811
 20
33.78409916103062
 10
25.47391311687961
 20
33.93952359720348
 10
25.5268890298149
 20
34.09620992738042
 10
25.57812761910685
 20
34.2541159045708
 10
25.6276679880626
 20
34.4132033794722
 10
25.67554475949287
 20
34.5734376303016
 10
25.72178876474147
 20
34.73478683444709
 10
25.76642759512998
 20
34.89722164566054
 10
25.80948604913324
 20
35.06071485123481
 10
24.39327082740331
 20
36.06038871588817
 10
24.25363696713604
 20
35.96506587603874
 10
24.11552962634613
 20
35.86860834397233
 10
23.97898275100776
 20
35.77100186603598
 10
23.84403323271479
 20
35.67223027146576
 10
23.71072138145934
 20
35.57227516583517
 10
23.57909150869414
 20
35.47111555303987
 10
23.44919265591638
 20
35.36872736298523
 10
23.32107951879605
 20
35.26508285256156
 10
23.1948136395931
 20
35.16014983276883
 10
23.07046497662308
 20
35.05389065151508
 10
22.94811401871568
 20
34.94626082326041
 10
22.82785471407846
 20
34.83720713092812
 10
22.70979866597457
 20
34.72666490692271
 10
22.59408139866615
 20
34.61455397261928
 10
22.48087222447136
 20
34.50077224433731
 10
22.37039090797875
 20
34.38518493476771
 10
22.26293868674183
 20
34.26760445142366
 10
22.15896513250282
 20
34.14774707048584
 10
22.05925422248025
 20
34.02511236271562
 10
21.96602512726102
 20
33.89826988445945
 42
-0.7981585520250394
 10
19.99197258084918
 20
35.09871783096483
 10
20.06170269514866
 20
35.23985035607985
 10
20.1247147358592
 20
35.38480214065979
 10
20.1832997355563
 20
35.53226091305688
 10
20.23826269847243
 20
35.68176082148376
 10
20.29006237103341
 20
35.83303322924557
 10
20.3390039027018
 20
35.98589697671584
 10
20.38530807514071
 20
36.14021894909328
 10
20.42914342161914
 20
36.29589578160564
 10
20.47064348152773
 20
36.45284403164596
 10
20.50991701702812
 20
36.6109943596263
 10
20.54705450106175
 20
36.77028783363826
 10
20.58213246177838
 20
36.93067345508133
 10
20.61521651528899
 20
37.09210643141233
 10
20.64636355517304
 20
37.25454692920184
 10
20.67562337769303
 20
37.41795914860778
 10
20.70303991660843
 20
37.58231062021871
 10
20.7286522002001
 20
37.74757166012427
 10
20.75249510582548
 20
37.91371494031083
 10
20.77459996379937
 20
38.08071514488064
 10
20.7949950470854
 20
38.24854869131238
 10
19.25584829001589
 20
39.04607025850223
 10
19.13049477874293
 20
38.93262178587416
 10
19.00680807609949
 20
38.81825705065566
 10
18.88482375275727
 20
38.70296655426262
 10
18.76458055861858
 20
38.58673929995121
 10
18.6461209329335
 20
38.46956255349814
 10
18.52949163340469
 20
38.35142154809995
 10
18.41474452229827
 20
38.23229911566854
 10
18.30193756353215
 20
38.1121752192211
 10
18.19113610922659
 20
37.99102634957103
 10
18.08241459306082
 20
37.86882473130938
 10
17.97585881163412
 20
37.74553725313121
 10
17.87156908450638
 20
37.62112398623915
 10
17.76966478103175
 20
37.49553606199754
 10
17.67029108084671
 20
37.36871250245417
 10
17.57362961967808
 20
37.24057522943244
 10
17.4799164687514
 20
37.11102063564714
 10
17.38947560371767
 20
36.97990389436625
 10
17.3027910427054
 20
36.84700514106709
 10
17.22070760269952
 20
36.71193535908674
 10
17.14561856353135
 20
36.57357960502366
 42
-0.7981585520250396
 10
15.02649147477379
 20
37.4940463941899
 10
15.0763545760024
 20
37.64335931935522
 10
15.11904212037862
 20
37.79554115362773
 10
15.15700248930992
 20
37.94960381015735
 10
15.19109662265276
 20
38.10519539085428
 10
15.22181557340257
 20
38.26211222708389
 10
15.24948631674262
 20
38.42021639773004
 10
15.27434570376012
 20
38.57940609092917
 10
15.29657477283081
 20
38.73960185326456
 10
15.3163171816524
 20
38.90073920292954
 10
15.33369012110925
 20
39.06276425594795
 10
15.34879124603341
 20
39.22563094870363
 10
15.36170331609587
 20
39.3892991781815
 10
15.37249743550611
 20
39.55373350376448
 10
15.38123539191834
 20
39.71890221004198
 10
15.38797139253453
 20
39.88477661120375
 10
15.39275338316368
 20
40.05133052257302
 10
15.39562407053375
 20
40.21853985106718
 10
15.39662172831662
 20
40.38638227234011
 10
15.39578084219582
 20
40.55483697243167
 10
15.39313263295198
 20
40.72388443830413
 10
13.75972573244959
 20
41.30439739020247
 10
13.65098766890801
 20
41.17493661518807
 10
13.54402565365707
 20
41.04479507544821
 10
13.43887621945166
 20
40.9139682044083
 10
13.33557925266519
 20
40.7824503841931
 10
13.23417853124276
 20
40.65023477799703
 10
13.13472238812944
 20
40.51731312339518
 10
13.03726454026443
 20
40.38367547411487
 10
12.94186514005536
 20
40.24930987255135
 10
12.84859213209651
 20
40.11420192726307
 10
12.75752303887215
 20
39.9783342569274
 10
12.66874736652284
 20
39.84168574127531
 10
12.58236993719723
 20
39.70423048358674
 10
12.49851566271522
 20
39.56593632451607
 10
12.41733667366576
 20
39.42676262268765
 10
12.33902354565437
 20
39.28665675987753
 10
12.26382425898329
 20
39.14554823883205
 10
12.19207949234765
 20
39.00333769642199
 10
12.12429869392028
 20
38.85987322308133
 10
12.06137178311056
 20
38.71488446136732
 10
12.00582156671923
 20
38.56759273741638
 42
-0.7981585520250454
 10
9.781095263737088
 20
39.19093181455136
 10
9.810162496663533
 20
39.34564372248207
 10
9.831730356521653
 20
39.50222074681373
 10
9.848358964837743
 20
39.66001739168247
 10
9.860949159411696
 20
39.81880226789163
 10
9.870015152420342
 20
39.97844046882815
 10
9.875899653838676
 20
40.13883988109564
 10
9.878851172090412
 20
40.29993189233061
 10
9.879059878255585
 20
40.46166244053875
 10
9.876676872267913
 20
40.62398720588771
 10
9.871825590689989
 20
40.78686876376963
 10
9.864609051119764
 20
40.95027477693861
 10
9.855114703093362
 20
41.11417678500828
 10
9.843417814381894
 20
41.27854935947934
 10
9.829583915727198
 20
41.44336949375806
 10
9.813670615493105
 20
41.60861615042843
 10
9.795728978398454
 20
41.77426991731933
 10
9.775804594072756
 20
41.94031274098445
 10
9.753938419536269
 20
42.10672771660549
 10
9.730167453438193
 20
42.27349891988462
 10
9.704525282792094
 20
42.44061127075869
 10
8.007285518888644
 20
42.79330174944435
 10
7.917188487461916
 20
42.65024028133293
 10
7.828943659567684
 20
42.50674622771983
 10
7.742587849507968
 20
42.36282003910656
 10
7.658161337119568
 20
42.21846158113691
 10
7.575708423542377
 20
42.07367004177976
 10
7.495278116612494
 20
41.92844381690202
 10
7.416924987297279
 20
41.78278036732679
 10
7.340710255968563
 20
41.63667603757483
 10
7.266703194015379
 20
41.49012582203499
 10
7.194982968629854
 20
41.34312305725215
 10
7.12564112816379
 20
41.19565900742383
 10
7.058785044716278
 20
41.04772229031415
 10
6.994542845702116
 20
40.89929805493531
 10
6.933070778757674
 20
40.75036675356017
 10
6.874564809304232
 20
40.60090220809532
 10
6.819280207316928
 20
40.45086834454916
 10
6.767568008335481
 20
40.30021311434234
 10
6.719953600521518
 20
40.14885539265332
 10
6.677355428194056
 20
39.9966485175071
 10
6.642378830005898
 20
39.84316458979887
 42
-0.7981585520250385
 10
4.353495754479903
 20
40.15776432729839
 10
4.361225651552086
 20
40.31499322787591
 10
4.361272058470902
 20
40.47304870855853
 10
4.356259146661388
 20
40.63163988883522
 10
4.347110870963102
 20
40.79066019874536
 10
4.334355023934352
 20
40.95004600675241
 10
4.318343666303456
 20
41.10975272307803
 10
4.29933233458888
 20
41.26974621297733
 10
4.277516790047566
 20
41.42999881295103
 10
4.253052760143356
 20
41.59048719073579
 10
4.226067627727486
 20
41.75119107824161
 10
4.19666785414085
 20
41.9120924669746
 10
4.164943949765324
 20
42.07317506934024
 10
4.130973943837473
 20
42.23442394264185
 10
4.094825889473048
 20
42.39582521767186
 10
4.056559723062913
 20
42.55736589729574
 10
4.016228676996655
 20
42.71903370346005
 10
3.973880374556801
 20
42.88081695865634
 10
3.929557693160175
 20
43.04270449249889
 10
3.883299455206837
 20
43.20468556699173
 10
3.835140988280762
 20
43.36674981595934
 10
2.105684726476818
 20
43.4850478651304
 10
2.035907064390283
 20
43.33105066839021
 10
1.968023258030807
 20
43.17687712362149
 10
1.902069717466728
 20
43.02253269000992
 10
1.838086365661107
 20
42.8680227192211
 10
1.776117201702185
 20
42.71335243912499
 10
1.716210995393862
 20
42.55852693376227
 10
1.658422155177772
 20
42.40355111835186
 10
1.602811828970254
 20
42.24842970763473
 10
1.549449324560186
 20
42.09316717507519
 10
1.498413979112553
 20
41.93776769921318
 10
1.449797677817812
 20
41.78223509144424
 10
1.403708342586457
 20
41.62657269604617
 10
1.360274929656867
 20
41.47078324703483
 10
1.319654893115
 20
41.31486865446873
 10
1.282045937732885
 20
41.1588296680334
 10
1.247705867961894
 20
41.00266530898946
 10
1.216989537058428
 20
40.84637181287399
 10
1.190428486185527
 20
40.68994035081187
 10
1.168952575691948
 20
40.53335068833096
 10
1.155201143552943
 20
40.37653367203588
 42
-0.798158552025041
 10
-1.155201143552934
 20
40.37653367203588
 10
-1.168952575691943
 20
40.53335068833096
 10
-1.190428486185522
 20
40.68994035081187
 10
-1.216989537058423
 20
40.84637181287399
 10
-1.24770586796189
 20
41.00266530898946
 10
-1.28204593773288
 20
41.1588296680334
 10
-1.319654893114995
 20
41.31486865446873
 10
-1.360274929656861
 20
41.47078324703483
 10
-1.403708342586452
 20
41.62657269604617
 10
-1.449797677817807
 20
41.78223509144424
 10
-1.498413979112548
 20
41.93776769921318
 10
-1.549449324560181
 20
42.09316717507519
 10
-1.602811828970248
 20
42.24842970763473
 10
-1.658422155177766
 20
42.40355111835186
 10
-1.716210995393857
 20
42.55852693376227
 10
-1.77611720170218
 20
42.71335243912499
 10
-1.838086365661102
 20
42.8680227192211
 10
-1.902069717466723
 20
43.02253269000992
 10
-1.968023258030802
 20
43.17687712362149
 10
-2.035907064390278
 20
43.33105066839021
 10
-2.105684726476813
 20
43.4850478651304
 10
-3.835140988280757
 20
43.36674981595934
 10
-3.883299455206831
 20
43.20468556699174
 10
-3.929557693160169
 20
43.04270449249889
 10
-3.973880374556795
 20
42.88081695865634
 10
-4.016228676996649
 20
42.71903370346005
 10
-4.056559723062908
 20
42.55736589729574
 10
-4.094825889473043
 20
42.39582521767186
 10
-4.130973943837468
 20
42.23442394264185
 10
-4.164943949765319
 20
42.07317506934024
 10
-4.196667854140845
 20
41.9120924669746
 10
-4.22606762772748
 20
41.75119107824161
 10
-4.25305276014335
 20
41.59048719073579
 10
-4.277516790047561
 20
41.42999881295103
 10
-4.299332334588875
 20
41.26974621297733
 10
-4.318343666303451
 20
41.10975272307804
 10
-4.334355023934346
 20
40.95004600675241
 10
-4.347110870963097
 20
40.79066019874536
 10
-4.356259146661383
 20
40.63163988883522
 10
-4.361272058470897
 20
40.47304870855853
 10
-4.361225651552081
 20
40.31499322787591
 10
-4.353495754479893
 20
40.15776432729839
 42
-0.7981585520250374
 10
-6.642378830005883
 20
39.84316458979888
 10
-6.677355428194042
 20
39.99664851750711
 10
-6.719953600521504
 20
40.14885539265333
 10
-6.767568008335467
 20
40.30021311434234
 10
-6.819280207316914
 20
40.45086834454917
 10
-6.874564809304218
 20
40.60090220809532
 10
-6.933070778757659
 20
40.75036675356017
 10
-6.994542845702103
 20
40.89929805493531
 10
-7.058785044716264
 20
41.04772229031415
 10
-7.125641128163775
 20
41.19565900742384
 10
-7.194982968629839
 20
41.34312305725215
 10
-7.266703194015364
 20
41.49012582203499
 10
-7.340710255968548
 20
41.63667603757483
 10
-7.416924987297265
 20
41.78278036732679
 10
-7.49527811661248
 20
41.92844381690202
 10
-7.575708423542363
 20
42.07367004177976
 10
-7.658161337119553
 20
42.21846158113691
 10
-7.742587849507954
 20
42.36282003910657
 10
-7.828943659567669
 20
42.50674622771983
 10
-7.9171884874619
 20
42.65024028133294
 10
-8.007285518888629
 20
42.79330174944435
 10
-9.704525282792078
 20
42.44061127075869
 10
-9.730167453438179
 20
42.27349891988462
 10
-9.753938419536254
 20
42.10672771660549
 10
-9.775804594072742
 20
41.94031274098445
 10
-9.79572897839844
 20
41.77426991731933
 10
-9.813670615493091
 20
41.60861615042844
 10
-9.829583915727184
 20
41.44336949375807
 10
-9.84341781438188
 20
41.27854935947935
 10
-9.855114703093347
 20
41.11417678500828
 10
-9.86460905111975
 20
40.95027477693861
 10
-9.871825590689975
 20
40.78686876376963
 10
-9.876676872267899
 20
40.62398720588771
 10
-9.879059878255571
 20
40.46166244053875
 10
-9.8788511720904
 20
40.29993189233061
 10
-9.875899653838664
 20
40.13883988109564
 10
-9.870015152420327
 20
39.97844046882815
 10
-9.860949159411682
 20
39.81880226789163
 10
-9.848358964837729
 20
39.66001739168248
 10
-9.831730356521641
 20
39.50222074681373
 10
-9.810162496663521
 20
39.34564372248207
 10
-9.78109526373707
 20
39.19093181455136
 42
-0.7981585520250366
 10
-12.00582156671922
 20
38.56759273741639
 10
-12.06137178311055
 20
38.71488446136733
 10
-12.12429869392027
 20
38.85987322308134
 10
-12.19207949234764
 20
39.00333769642199
 10
-12.26382425898328
 20
39.14554823883205
 10
-12.33902354565436
 20
39.28665675987753
 10
-12.41733667366576
 20
39.42676262268765
 10
-12.49851566271522
 20
39.56593632451607
 10
-12.58236993719723
 20
39.70423048358674
 10
-12.66874736652284
 20
39.84168574127532
 10
-12.75752303887214
 20
39.9783342569274
 10
-12.8485921320965
 20
40.11420192726307
 10
-12.94186514005536
 20
40.24930987255136
 10
-13.03726454026443
 20
40.38367547411487
 10
-13.13472238812943
 20
40.51731312339518
 10
-13.23417853124276
 20
40.65023477799704
 10
-13.33557925266518
 20
40.7824503841931
 10
-13.43887621945166
 20
40.9139682044083
 10
-13.54402565365707
 20
41.04479507544821
 10
-13.65098766890801
 20
41.17493661518807
 10
-13.75972573244958
 20
41.30439739020247
 10
-15.39313263295197
 20
40.72388443830413
 10
-15.39578084219581
 20
40.55483697243167
 10
-15.39662172831661
 20
40.38638227234011
 10
-15.39562407053374
 20
40.21853985106718
 10
-15.39275338316368
 20
40.05133052257302
 10
-15.38797139253453
 20
39.88477661120375
 10
-15.38123539191834
 20
39.71890221004199
 10
-15.37249743550611
 20
39.55373350376449
 10
-15.36170331609586
 20
39.3892991781815
 10
-15.3487912460334
 20
39.22563094870364
 10
-15.33369012110924
 20
39.06276425594795
 10
-15.3163171816524
 20
38.90073920292954
 10
-15.2965747728308
 20
38.73960185326456
 10
-15.27434570376012
 20
38.57940609092917
 10
-15.24948631674261
 20
38.42021639773004
 10
-15.22181557340256
 20
38.2621122270839
 10
-15.19109662265276
 20
38.10519539085428
 10
-15.15700248930992
 20
37.94960381015735
 10
-15.11904212037862
 20
37.79554115362774
 10
-15.07635457600239
 20
37.64335931935523
 10
-15.02649147477378
 20
37.4940463941899
 42
-0.7981585520250388
 10
-17.14561856353134
 20
36.57357960502367
 10
-17.22070760269951
 20
36.71193535908675
 10
-17.3027910427054
 20
36.84700514106709
 10
-17.38947560371768
 20
36.97990389436625
 10
-17.4799164687514
 20
37.11102063564714
 10
-17.57362961967808
 20
37.24057522943244
 10
-17.67029108084671
 20
37.36871250245417
 10
-17.76966478103174
 20
37.49553606199754
 10
-17.87156908450638
 20
37.62112398623915
 10
-17.97585881163411
 20
37.74553725313121
 10
-18.08241459306082
 20
37.86882473130938
 10
-18.19113610922659
 20
37.99102634957104
 10
-18.30193756353215
 20
38.1121752192211
 10
-18.41474452229827
 20
38.23229911566854
 10
-18.52949163340468
 20
38.35142154809995
 10
-18.64612093293349
 20
38.46956255349814
 10
-18.76458055861858
 20
38.58673929995122
 10
-18.88482375275727
 20
38.70296655426263
 10
-19.00680807609948
 20
38.81825705065567
 10
-19.13049477874293
 20
38.93262178587416
 10
-19.25584829001589
 20
39.04607025850223
 10
-20.79499504708539
 20
38.24854869131239
 10
-20.77459996379935
 20
38.08071514488064
 10
-20.75249510582548
 20
37.91371494031082
 10
-20.7286522002001
 20
37.74757166012427
 10
-20.70303991660843
 20
37.58231062021871
 10
-20.67562337769303
 20
37.41795914860778
 10
-20.64636355517303
 20
37.25454692920184
 10
-20.61521651528899
 20
37.09210643141233
 10
-20.58213246177837
 20
36.93067345508133
 10
-20.54705450106175
 20
36.77028783363826
 10
-20.50991701702812
 20
36.6109943596263
 10
-20.47064348152772
 20
36.45284403164596
 10
-20.42914342161913
 20
36.29589578160565
 10
-20.38530807514071
 20
36.14021894909328
 10
-20.3390039027018
 20
35.98589697671584
 10
-20.29006237103341
 20
35.83303322924558
 10
-20.23826269847241
 20
35.68176082148377
 10
-20.18329973555628
 20
35.53226091305688
 10
-20.12471473585919
 20
35.38480214065979
 10
-20.06170269514866
 20
35.23985035607985
 10
-19.99197258084917
 20
35.09871783096483
 42
-0.7981585520250396
 10
-21.96602512726102
 20
33.89826988445947
 10
-22.05925422248024
 20
34.02511236271562
 10
-22.15896513250282
 20
34.14774707048585
 10
-22.26293868674183
 20
34.26760445142365
 10
-22.37039090797875
 20
34.38518493476771
 10
-22.48087222447136
 20
34.50077224433731
 10
-22.59408139866615
 20
34.61455397261928
 10
-22.70979866597457
 20
34.72666490692271
 10
-22.82785471407846
 20
34.83720713092811
 10
-22.94811401871567
 20
34.94626082326041
 10
-23.07046497662308
 20
35.05389065151508
 10
-23.19481363959309
 20
35.16014983276884
 10
-23.32107951879605
 20
35.26508285256156
 10
-23.44919265591637
 20
35.36872736298524
 10
-23.57909150869414
 20
35.47111555303987
 10
-23.71072138145933
 20
35.57227516583518
 10
-23.84403323271478
 20
35.67223027146576
 10
-23.97898275100775
 20
35.77100186603598
 10
-24.11552962634611
 20
35.86860834397233
 10
-24.25363696713604
 20
35.96506587603874
 10
-24.39327082740331
 20
36.06038871588817
 10
-25.80948604913323
 20
35.06071485123481
 10
-25.76642759512997
 20
34.89722164566054
 10
-25.72178876474147
 20
34.73478683444708
 10
-25.67554475949286
 20
34.57343763030161
 10
-25.62766798806259
 20
34.41320337947221
 10
-25.57812761910685
 20
34.2541159045708
 10
-25.52688902981489
 20
34.09620992738043
 10
-25.47391311687961
 20
33.93952359720349
 10
-25.4191554225881
 20
33.78409916103062
 10
-25.36256500725541
 20
33.62998382828858
 10
-25.30408296517303
 20
33.47723090904635
 10
-25.24364042528708
 20
33.32590134748244
 10
-25.18115578188646
 20
33.17606584600756
 10
-25.11653072756553
 20
33.02780790815604
 10
-25.0496443288269
 20
32.88122838295727
 10
-24.98034369696422
 20
32.73645262104897
 10
-24.90842823248311
 20
32.59364256049319
 10
-24.83362029599889
 20
32.45301922476564
 10
-24.75550199323329
 20
32.31491121442814
 10
-24.67333925128353
 20
32.17988965702816
 10
-24.58504106400811
 20
32.04956656387336
 42
-0.7981585520250399
 10
-26.37724620418545
 20
30.5914995339375
 10
-26.48687867380802
 20
30.70446590101202
 10
-26.60235962825385
 20
30.81238108200014
 10
-26.72168534512964
 20
30.91696437434859
 10
-26.84414729099552
 20
31.01881829782192
 10
-26.96933871516648
 20
31.11828515029815
 10
-27.09698672967217
 20
31.21559179552576
 10
-27.22689197035951
 20
31.31090169000521
 10
-27.35890060228707
 20
31.40433902129511
 10
-27.49288928112773
 20
31.49600167511699
 10
-27.62875624866691
 20
31.58596891339122
 10
-27.76641567812676
 20
31.67430625014043
 10
-27.90579388780177
 20
31.76106871645797
 10
-28.04682669793112
 20
31.84630313973164
 10
-28.18945752253107
 20
31.93004978915467
 10
-28.3336359530563
 20
32.01234359716206
 10
-28.47931668232894
 20
32.09321508747459
 10
-28.62645867058467
 20
32.17269109437979
 10
-28.77502448798824
 20
32.25079532985405
 10
-28.92497978847485
 20
32.32754883745063
 10
-29.07629288311707
 20
32.40297036037276
 10
-30.34319515950869
 20
31.2197662308988
 10
-30.27827543231655
 20
31.06365893526083
 10
-30.21193416646365
 20
30.90881537059817
 10
-30.14415049991258
 20
30.75526587288259
 10
-30.07490109430914
 20
30.60304327204745
 10
-30.00415973865272
 20
30.45218329250791
 10
-29.93189686056016
 20
30.30272504711859
 10
-29.85807891559736
 20
30.15471165442349
 10
-29.78266761276408
 20
30.00819102158032
 10
-29.70561891517978
 20
29.86321685459088
 10
-29.62688172484038
 20
29.71984998798424
 10
-29.54639611072527
 20
29.57816017624218
 10
-29.46409085451369
 20
29.43822857522554
 10
-29.37987993483694
 20
29.30015129690227
 10
-29.29365727685317
 20
29.16404471809753
 10
-29.20528848444596
 20
29.03005384026926
 10
-29.11459687707874
 20
28.89836640814064
 10
-29.0213374973411
 20
28.76923919178747
 10
-28.92514108768199
 20
28.64305463443174
 10
-28.82535818091764
 20
28.52047850035551
 10
-28.72013674882865
 20
28.40339251180562
 42
-0.798158552025041
 10
-30.29710909199233
 20
26.71486742843822
 10
-30.42110269054178
 20
26.81185333465308
 10
-30.55020249772789
 20
26.90303873322065
 10
-30.68265756490799
 20
26.99039974812249
 10
-30.81784800105825
 20
27.07462976584582
 10
-30.95541745354653
 20
27.15612328196553
 10
-31.09512646737221
 20
27.23514220544944
 10
-31.2367997925946
 20
27.311875617104
 10
-31.38030193730296
 20
27.3864674949867
 10
-31.52552403477657
 20
27.45903160848986
 10
-31.67237606741246
 20
27.52966033735916
 10
-31.82078192865293
 20
27.59843027216083
 10
-31.97067611646746
 20
27.6654059644166
 10
-32.12200142519744
 20
27.73064254450439
 10
-32.27470727922515
 20
27.79418761167181
 10
-32.42874849614581
 20
27.85608263695395
 10
-32.58408434708782
 20
27.91636402909864
 10
-32.74067782846845
 20
27.97506396070457
 10
-32.89849508785632
 20
28.03221101958874
 10
-33.05750496451786
 20
28.08783073009218
 10
-33.21767861687722
 20
28.14194597581798
 10
-34.31166795559252
 20
26.79725243574732
 10
-34.22609628689626
 20
26.65143903359704
 10
-34.13928839783929
 20
26.50707115811957
 10
-34.051227751442
 20
26.36418170344952
 10
-33.96189569706686
 20
26.22280637164598
 10
-33.87127113231787
 20
26.08298412344909
 10
-33.77933008611696
 20
25.94475773418655
 10
-33.68604519777237
 20
25.80817448842712
 10
-33.59138505628543
 20
25.67328706107584
 10
-33.4953133479038
 20
25.54015465426836
 10
-33.39778773418691
 20
25.40884449376166
 10
-33.29875834054897
 20
25.27943384494678
 10
-33.19816566272213
 20
25.15201280535457
 10
-33.09593756778997
 20
25.02668830500245
 10
-32.99198481553976
 20
24.90359008063133
 10
-32.88619400599039
 20
24.78288008341656
 10
-32.7784156687872
 20
24.66476836741347
 10
-32.66844209158711
 20
24.54954266615727
 10
-32.55595953213585
 20
24.4376321413365
 10
-32.44041522731343
 20
24.3297847920389
 10
-32.32023062660409
 20
24.22811699852542
 42
-0.7981585520250406
 10
-33.65259416174724
 20
22.34058788921746
 10
-33.78863912308748
 20
22.41978667064425
 10
-33.92895289787222
 20
22.49254367534536
 10
-34.07206992806967
 20
22.56105504238635
 10
-34.21747051246896
 20
22.6260921084988
 10
-34.3648553346661
 20
22.68809421824836
 10
-34.51402283322379
 20
22.7473534469536
 10
-34.66482513698857
 20
22.80408097750934
 10
-34.8171476210383
 20
22.85843789643312
 10
-34.97089792423969
 20
22.91055173747958
 10
-35.125999446459
 20
22.9605262773598
 10
-35.28238721907986
 20
23.00844775644629
 10
-35.44000513992561
 20
23.05438904421642
 10
-35.59880404307307
 20
23.09841254706366
 10
-35.75874030539858
 20
23.14057230760602
 10
-35.91977481230061
 20
23.18091556295182
 10
-36.08187217191565
 20
23.21948392864978
 10
-36.24500010614929
 20
23.25631431629514
 10
-36.4091289705808
 20
23.29143965700861
 10
-36.57423137027331
 20
23.32488948044877
 10
-36.74028184826654
 20
23.35669038434033
 10
-37.64097929783257
 20
21.87555653006661
 10
-37.53634972591218
 20
21.74275324919653
 10
-37.43069228037746
 20
21.61155036326988
 10
-37.32399505735917
 20
21.48198271182864
 10
-37.21624444136261
 20
21.35408820399579
 10
-37.10742483169405
 20
21.22790831107161
 10
-36.99751830511639
 20
21.10348867403344
 10
-36.88650419435807
 20
20.98087986265275
 10
-36.77435855354952
 20
20.86013833834809
 10
-36.66105346852304
 20
20.74132769656521
 10
-36.54655614908666
 20
20.62452030200033
 10
-36.43082770615856
 20
20.5097994916457
 10
-36.31382145797571
 20
20.39726262635566
 10
-36.19548050377376
 20
20.28702546229319
 10
-36.07573410034536
 20
20.17922867936493
 10
-35.95449195627184
 20
20.0740481616197
 10
-35.83163459573032
 20
19.97171235953533
 10
-35.70699542073303
 20
19.87253461017509
 10
-35.58032204874704
 20
19.77698279922385
 10
-35.45116871764715
 20
19.68587322676727
 10
-35.31825976003068
 20
19.6015175069205
 42
-0.798158552025038
 10
-36.38119507542218
 20
17.55014546763616
 10
-36.52675713933043
 20
17.61008180082676
 10
-36.6756711015734
 20
17.66305508632536
 10
-36.82678409530345
 20
17.71144056836602
 10
-36.97968629017286
 20
17.75607316538077
 10
-37.13414098170414
 20
17.79742888676802
 10
-37.28998825673145
 20
17.83582453338659
 10
-37.4471103774484
 20
17.87148945628186
 10
-37.60541572116686
 20
17.90459884969442
 10
-37.76483015285413
 20
17.93529163602865
 10
-37.92529191676127
 20
17.9636810557973
 10
-38.08674839245562
 20
17.98986139268415
 10
-38.2491539226918
 20
18.01391247670175
 10
-38.41246829715016
 20
18.03590282774605
 10
-38.57665565781737
 20
18.05589192509377
 10
-38.74168368652617
 20
18.07393189198849
 10
-38.9075229877046
 20
18.09006877556092
 10
-39.0741466100264
 20
18.10434353880967
 10
-39.2415296693009
 20
18.11679284271463
 10
-39.40964904670386
 20
18.12744967217031
 10
-39.57848314410552
 20
18.13634384355777
 10
-40.26911041522189
 20
16.54636039637322
 10
-40.14737199103549
 20
16.4290411106325
 10
-40.02483318732175
 20
16.31344727577609
 10
-39.90148695506841
 20
16.1996150277586
 10
-39.77732496755445
 20
16.08758377659166
 10
-39.65233741639983
 20
15.97739673160383
 10
-39.52651276008441
 20
15.86910154921707
 10
-39.39983740974905
 20
15.76275114238636
 10
-39.27229533071944
 20
15.65840470727438
 10
-39.1438675284007
 20
15.55612904797415
 10
-39.01453137166869
 20
15.45600032010376
 10
-38.88425968137555
 20
15.35810637984616
 10
-38.75301946785603
 20
15.26255003773072
 10
-38.62077012245136
 20
15.16945371974766
 10
-38.48746071677176
 20
15.07896642836889
 10
-38.35302574991923
 20
14.99127470412959
 10
-38.21737796621122
 20
14.90662113833
 10
-38.08039498542056
 20
14.82533883468479
 10
-37.94189048614469
 20
14.74792568705014
 10
-37.80153401095826
 20
14.67525109038351
 10
-37.65837653884164
 20
14.60977883165706
 42
-0.7981585520250483
 10
-38.43208316070663
 20
12.43277704214323
 10
-38.58445078134624
 20
12.47233442661419
 10
-38.7391909456869
 20
12.50453720083076
 10
-38.89548495379312
 20
12.5318954678895
 10
-39.05304048054433
 20
12.55529217497229
 10
-39.211687842746
 20
12.57523112915583
 10
-39.37131175438355
 20
12.59204795543857
 10
-39.53182680423019
 20
12.60598590064046
 10
-39.69316607858911
 20
12.6172310031879
 10
-39.85527504952361
 20
12.62593098627348
 10
-40.01810795606229
 20
12.6322064447551
 10
-40.18162550617534
 20
12.6361579493012
 10
-40.3457933380567
 20
12.63787080337742
 10
-40.51058094603246
 20
12.63741836398617
 10
-40.67596090516658
 20
12.6348644390765
 10
-40.84190829575233
 20
12.63026506706982
 10
-41.00840026609319
 20
12.62366986890792
 10
-41.17541569368328
 20
12.61512309592962
 10
-41.34293491810742
 20
12.6046644560493
 10
-41.51093952731388
 20
12.59232977495125
 10
-41.67941218433575
 20
12.57815153225007
 10
-42.14710419765854
 20
10.90893687541154
 10
-42.01052467771079
 20
10.8092870211169
 10
-41.8733871818789
 20
10.71145553176217
 10
-41.73568964731735
 20
10.61547916657011
 10
-41.59742919118987
 20
10.52139810230707
 10
-41.45860198014168
 20
10.42925648142182
 10
-41.31920306936627
 20
10.33910308803197
 10
-41.17922620155164
 20
10.2509921926078
 10
-41.03866355191441
 20
10.1649846233436
 10
-40.89750539926589
 20
10.0811491485458
 10
-40.75573969312475
 20
9.999564296119292
 10
-40.61335147057324
 20
9.920320804843294
 10
-40.47032204857889
 20
9.843525019756513
 10
-40.32662786705102
 20
9.769303756111894
 10
-40.18223876111693
 20
9.697811563312452
 10
-40.03711524055715
 20
9.629242163482562
 10
-39.89120389523767
 20
9.563847769727895
 10
-39.744428842404
 20
9.501975047322613
 10
-39.59667329259919
 20
9.444142623473676
 10
-39.44772824889428
 20
9.391256792827287
 10
-39.29698901511872
 20
9.345887619522939
 42
-0.7981585520250396
 10
-39.76705425300097
 20
7.083809504072739
 10
-39.92338910989005
 20
7.102251060596806
 10
-40.08107295984637
 20
7.11308344677767
 10
-40.23963652067736
 20
7.118904866103034
 10
-40.39891041795347
 20
7.120629846869176
 10
-40.55879515064007
 20
7.118780608858508
 10
-40.71922220743409
 20
7.113705349150431
 10
-40.8801400947379
 20
7.105656679111441
 10
-41.04150785432161
 20
7.094828015809846
 10
-41.20329158109679
 20
7.081373131422892
 10
-41.36546236130989
 20
7.065417728699591
 10
-41.52799496327011
 20
7.047066791851798
 10
-41.69086696070619
 20
7.026409508756031
 10
-41.85405812085289
 20
7.003522707019043
 10
-42.01754996272613
 20
6.978473334640837
 10
-42.18132542928674
 20
6.951320301330901
 10
-42.3453686383975
 20
6.922115877497833
 10
-42.50966468984521
 20
6.890906778501942
 10
-42.6741995132265
 20
6.857735019508826
 10
-42.83895974624387
 20
6.822638599627772
 10
-43.00393263604815
 20
6.785652056673214
 10
-43.23997717427643
 20
5.068300500962187
 10
-43.09110077660557
 20
4.988176366354376
 10
-42.94191920072878
 20
4.909929638043726
 10
-42.79243540839416
 20
4.833597013766356
 10
-42.64265201435198
 20
4.759218688626222
 10
-42.49257123168088
 20
4.68683891590201
 10
-42.34219480440036
 20
4.616506698651153
 10
-42.19152392330744
 20
4.548276653903053
 10
-42.04055911927058
 20
4.482210108769455
 10
-41.88930012559464
 20
4.418376514746756
 10
-41.73774569691876
 20
4.356855309200372
 10
-41.58589336528614
 20
4.297738423213999
 10
-41.43373910232666
 20
4.241133755328842
 10
-41.28127683539763
 20
4.187170147732338
 10
-41.12849772505794
 20
4.136004817795659
 10
-40.97538902739466
 20
4.087835060555718
 10
-40.82193217275215
 20
4.04291801267068
 10
-40.66809918940071
 20
4.001607443256048
 10
-40.51384499539559
 20
3.964433051825982
 10
-40.35908594752157
 20
3.93232115016094
 10
-40.20357293880272
 20
3.907900204135592
 42
-0.7981585520250443
 10
-40.36124036671809
 20
1.602883998023672
 10
-40.5186302372697
 20
1.599866195295571
 10
-40.67632042106629
 20
1.589126406581844
 10
-40.83419979549755
 20
1.573302536146343
 10
-40.99222509195012
 20
1.553323657467954
 10
-41.15036884506519
 20
1.529720675068327
 10
-41.30861059448727
 20
1.502847871855034
 10
-41.46693372347612
 20
1.472962518069316
 10
-41.6253239922431
 20
1.440261806427384
 10
-41.78376875013571
 20
1.404902693606406
 10
-41.94225646922676
 20
1.36701364864214
 10
-42.10077644818313
 20
1.326702113632614
 10
-42.25931861402733
 20
1.284059499463862
 10
-42.41787338380097
 20
1.239164673194001
 10
-42.57643156473768
 20
1.19208647575943
 10
-42.73498428020621
 20
1.142885590781287
 10
-42.8935229134828
 20
1.091615964436172
 10
-43.05203906420973
 20
1.038325905887107
 10
-43.21052451410042
 20
0.9830589548878491
 10
-43.36897119952593
 20
0.9258545761212064
 10
-43.52737118931624
 20
0.8667487222272848
 10
-43.52737118931624
 20
-0.8667487222272743
 10
-43.36897119952593
 20
-0.9258545761211958
 10
-43.21052451410042
 20
-0.9830589548878385
 10
-43.05203906420973
 20
-1.038325905887096
 10
-42.8935229134828
 20
-1.091615964436161
 10
-42.73498428020621
 20
-1.142885590781277
 10
-42.57643156473768
 20
-1.19208647575942
 10
-42.41787338380097
 20
-1.239164673193991
 10
-42.25931861402733
 20
-1.284059499463851
 10
-42.10077644818313
 20
-1.326702113632604
 10
-41.94225646922676
 20
-1.367013648642129
 10
-41.78376875013571
 20
-1.404902693606396
 10
-41.6253239922431
 20
-1.440261806427374
 10
-41.46693372347612
 20
-1.472962518069306
 10
-41.30861059448727
 20
-1.502847871855024
 10
-41.15036884506519
 20
-1.529720675068317
 10
-40.99222509195012
 20
-1.553323657467944
 10
-40.83419979549755
 20
-1.573302536146333
 10
-40.67632042106629
 20
-1.589126406581834
 10
-40.5186302372697
 20
-1.599866195295561
 10
-40.36124036671808
 20
-1.602883998023667
 42
-0.7981585520250417
 10
-40.20357293880272
 20
-3.907900204135585
 10
-40.35908594752158
 20
-3.93232115016093
 10
-40.51384499539559
 20
-3.964433051825972
 10
-40.66809918940071
 20
-4.001607443256038
 10
-40.82193217275216
 20
-4.04291801267067
 10
-40.97538902739466
 20
-4.087835060555708
 10
-41.12849772505794
 20
-4.136004817795649
 10
-41.28127683539763
 20
-4.187170147732328
 10
-41.43373910232666
 20
-4.241133755328831
 10
-41.58589336528615
 20
-4.297738423213988
 10
-41.73774569691876
 20
-4.356855309200362
 10
-41.88930012559464
 20
-4.418376514746746
 10
-42.04055911927058
 20
-4.482210108769445
 10
-42.19152392330744
 20
-4.548276653903043
 10
-42.34219480440036
 20
-4.616506698651143
 10
-42.49257123168088
 20
-4.686838915901999
 10
-42.64265201435198
 20
-4.759218688626212
 10
-42.79243540839416
 20
-4.833597013766346
 10
-42.94191920072878
 20
-4.909929638043716
 10
-43.09110077660557
 20
-4.988176366354366
  0
CIRCLE
  5
4F
100
AcDbEntity
  8
0
  6
ByLayer
 62
  256
370
   -1
100
AcDbCircle
 10
-12.303
 20
0
 40
2
  0
CIRCLE
  5
50
100
AcDbEntity
  8
0
  6
ByLayer
 62
  256
370
   -1
100
AcDbCircle
 10
12.303
 20
0
 40
2
  0
ENDSEC
  0
SECTION
  2
OBJECTS
  0
DICTIONARY
  5
C
330
0
100
AcDbDictionary
281
    1
  3
ACAD_GROUP
350
D
  0
DICTIONARY
  5
D
330
C
100
AcDbDictionary
281
    1
  0
ENDSEC
  0
EOF
