999
dxfrw 0.6.3
  0
SECTION
  2
HEADER
  9
$ACADVER
  1
AC1021
  9
$DWGCODEPAGE
  3
ANSI_1252
  9
$INSBASE
 10
0
 20
0
 30
0
  9
$EXTMIN
 10
-51.65740790555733
 20
-51.6955485335216
 30
0
  9
$EXTMAX
 10
51.699
 20
51.6955485335216
 30
0
  9
$LIMMIN
 10
0
 20
0
  9
$LIMMAX
 10
420
 20
297
  9
$ORTHOMODE
 70
    0
  9
$REGENMODE
 70
    1
  9
$FILLMODE
 70
    1
  9
$QTEXTMODE
 70
    0
  9
$MIRRTEXT
 70
    0
  9
$LTSCALE
 40
1
  9
$ATTMODE
 70
    0
  9
$TEXTSIZE
 40
2.5
  9
$TRACEWID
 40
15.68
  9
$TEXTSTYLE
  7
STANDARD
  9
$CLAYER
  8
0
  9
$CELTYPE
  6
BYLAYER
  9
$CECOLOR
 62
  256
  9
$CELTSCALE
 40
1
  9
$DISPSILH
 70
    0
  9
$DIMSCALE
 40
2.5
  9
$DIMASZ
 40
2.5
  9
$DIMEXO
 40
0.625
  9
$DIMDLI
 40
3.75
  9
$DIMRND
 40
0
  9
$DIMDLE
 40
0
  9
$DIMEXE
 40
1.25
  9
$DIMTP
 40
0
  9
$DIMTM
 40
0
  9
$DIMTXT
 40
2.5
  9
$DIMCEN
 40
2.5
  9
$DIMTSZ
 40
0
  9
$DIMTOL
 70
    0
  9
$DIMLIM
 70
    0
  9
$DIMTIH
 70
    0
  9
$DIMTOH
 70
    0
  9
$DIMSE1
 70
    0
  9
$DIMSE2
 70
    0
  9
$DIMTAD
 70
    1
  9
$DIMZIN
 70
    8
  9
$DIMBLK
  1

  9
$DIMASO
 70
    1
  9
$DIMSHO
 70
    1
  9
$DIMPOST
  1

  9
$DIMAPOST
  1

  9
$DIMALT
 70
    0
  9
$DIMALTD
 70
    3
  9
$DIMALTF
 40
0.03937
  9
$DIMLFAC
 40
1
  9
$DIMTOFL
 70
    1
  9
$DIMTVP
 40
0
  9
$DIMTIX
 70
    0
  9
$DIMSOXD
 70
    0
  9
$DIMSAH
 70
    0
  9
$DIMBLK1
  1

  9
$DIMBLK2
  1

  9
$DIMSTYLE
  2
Standard
  9
$DIMCLRD
 70
    0
  9
$DIMCLRE
 70
    0
  9
$DIMCLRT
 70
    0
  9
$DIMTFAC
 40
1
  9
$DIMGAP
 40
0.625
  9
$DIMJUST
 70
    0
  9
$DIMSD1
 70
    0
  9
$DIMSD2
 70
    0
  9
$DIMTOLJ
 70
    0
  9
$DIMTZIN
 70
    8
  9
$DIMALTZ
 70
    0
  9
$DIMALTTZ
 70
    0
  9
$DIMUPT
 70
    0
  9
$DIMDEC
 70
    2
  9
$DIMTDEC
 70
    2
  9
$DIMALTU
 70
    2
  9
$DIMALTTD
 70
    3
  9
$DIMTXSTY
  7
STANDARD
  9
$DIMAUNIT
 70
    0
  9
$DIMADEC
 70
    0
  9
$DIMALTRND
 40
0
  9
$DIMAZIN
 70
    0
  9
$DIMDSEP
 70
   44
  9
$DIMATFIT
 70
    3
  9
$DIMFRAC
 70
    0
  9
$DIMLDRBLK
  1
STANDARD
  9
$DIMLUNIT
 70
    2
  9
$DIMLWD
 70
   -2
  9
$DIMLWE
 70
   -2
  9
$DIMTMOVE
 70
    0
  9
$DIMFXL
 40
1
  9
$DIMFXLON
 70
    0
  9
$DIMJOGANG
 40
0.7854
  9
$DIMTFILL
 70
    0
  9
$DIMTFILLCLR
 70
    0
  9
$DIMARCSYM
 70
    0
  9
$DIMLTYPE
  6

  9
$DIMLTEX1
  6

  9
$DIMLTEX2
  6

  9
$LUNITS
 70
    2
  9
$LUPREC
 70
    4
  9
$SKETCHINC
 40
1
  9
$FILLETRAD
 40
0
  9
$AUNITS
 70
    0
  9
$AUPREC
 70
    2
  9
$MENU
  1
.
  9
$ELEVATION
 40
0
  9
$PELEVATION
 40
0
  9
$THICKNESS
 40
0
  9
$LIMCHECK
 70
    0
  9
$CHAMFERA
 40
0
  9
$CHAMFERB
 40
0
  9
$CHAMFERC
 40
0
  9
$CHAMFERD
 40
0
  9
$SKPOLY
 70
    0
  9
$USRTIMER
 70
    1
  9
$ANGBASE
 50
0
  9
$ANGDIR
 70
    0
  9
$PDMODE
 70
   34
  9
$PDSIZE
 40
0
  9
$PLINEWID
 40
0
  9
$SPLFRAME
 70
    0
  9
$SPLINETYPE
 70
    2
  9
$SPLINESEGS
 70
    8
  9
$HANDSEED
  5
20000
  9
$SURFTAB1
 70
    6
  9
$SURFTAB2
 70
    6
  9
$SURFTYPE
 70
    6
  9
$SURFU
 70
    6
  9
$SURFV
 70
    6
  9
$UCSBASE
  2

  9
$UCSNAME
  2

  9
$UCSORG
 10
0
 20
0
 30
0
  9
$UCSXDIR
 10
1
 20
0
 30
0
  9
$UCSYDIR
 10
0
 20
1
 30
0
  9
$UCSORTHOREF
  2

  9
$UCSORTHOVIEW
 70
    0
  9
$UCSORGTOP
 10
0
 20
0
 30
0
  9
$UCSORGBOTTOM
 10
0
 20
0
 30
0
  9
$UCSORGLEFT
 10
0
 20
0
 30
0
  9
$UCSORGRIGHT
 10
0
 20
0
 30
0
  9
$UCSORGFRONT
 10
0
 20
0
 30
0
  9
$UCSORGBACK
 10
0
 20
0
 30
0
  9
$PUCSBASE
  2

  9
$PUCSNAME
  2

  9
$PUCSORG
 10
0
 20
0
 30
0
  9
$PUCSXDIR
 10
1
 20
0
 30
0
  9
$PUCSYDIR
 10
0
 20
1
 30
0
  9
$PUCSORTHOREF
  2

  9
$PUCSORTHOVIEW
 70
    0
  9
$PUCSORGTOP
 10
0
 20
0
 30
0
  9
$PUCSORGBOTTOM
 10
0
 20
0
 30
0
  9
$PUCSORGLEFT
 10
0
 20
0
 30
0
  9
$PUCSORGRIGHT
 10
0
 20
0
 30
0
  9
$PUCSORGFRONT
 10
0
 20
0
 30
0
  9
$PUCSORGBACK
 10
0
 20
0
 30
0
  9
$USERI1
 70
    0
  9
$USERI2
 70
    0
  9
$USERI3
 70
    0
  9
$USERI4
 70
    0
  9
$USERI5
 70
    0
  9
$USERR1
 40
0
  9
$USERR2
 40
0
  9
$USERR3
 40
0
  9
$USERR4
 40
0
  9
$USERR5
 40
0
  9
$WORLDVIEW
 70
    1
  9
$SHADEDGE
 70
    3
  9
$SHADEDIF
 70
   70
  9
$TILEMODE
 70
    1
  9
$MAXACTVP
 70
   64
  9
$PINSBASE
 10
0
 20
0
 30
0
  9
$PLIMCHECK
 70
    0
  9
$PEXTMIN
 10
0
 20
0
 30
0
  9
$PEXTMAX
 10
0
 20
0
 30
0
  9
$GRIDMODE
 70
    0
  9
$SNAPSTYLE
 70
    0
  9
$PLIMMIN
 10
0
 20
0
  9
$PLIMMAX
 10
297
 20
210
  9
$UNITMODE
 70
    0
  9
$VISRETAIN
 70
    1
  9
$PLINEGEN
 70
    0
  9
$PSLTSCALE
 70
    1
  9
$TREEDEPTH
 70
 3020
  9
$CMLSTYLE
  2
Standard
  9
$CMLJUST
 70
    0
  9
$CMLSCALE
 40
20
  9
$PROXYGRAPHICS
 70
    1
  9
$MEASUREMENT
 70
    1
  9
$CELWEIGHT
370
   -1
  9
$ENDCAPS
280
    0
  9
$JOINSTYLE
280
    0
  9
$LWDISPLAY
290
    0
  9
$INSUNITS
 70
    4
  9
$HYPERLINKBASE
  1

  9
$STYLESHEET
  1

  9
$XEDIT
290
    1
  9
$CEPSNTYPE
380
    0
  9
$PSTYLEMODE
290
    1
  9
$EXTNAMES
290
    1
  9
$PSVPSCALE
 40
1
  9
$OLESTARTUP
290
    0
  9
$SORTENTS
280
  127
  9
$INDEXCTL
280
    0
  9
$HIDETEXT
280
    1
  9
$XCLIPFRAME
290
    0
  9
$HALOGAP
280
    0
  9
$OBSCOLOR
 70
  257
  9
$OBSLTYPE
280
    0
  9
$INTERSECTIONDISPLAY
280
    0
  9
$INTERSECTIONCOLOR
 70
  257
  9
$DIMASSOC
280
    1
  9
$PROJECTNAME
  1

  9
$CAMERADISPLAY
290
    0
  9
$LENSLENGTH
 40
50
  9
$CAMERAHEIGHT
 40
0
  9
$STEPSPERSEC
 40
2
  9
$STEPSIZE
 40
50
  9
$3DDWFPREC
 40
2
  9
$PSOLWIDTH
 40
5
  9
$PSOLHEIGHT
 40
80
  9
$LOFTANG1
 40
1.570796326794897
  9
$LOFTANG2
 40
1.570796326794897
  9
$LOFTMAG1
 40
0
  9
$LOFTMAG2
 40
0
  9
$LOFTPARAM
 70
    7
  9
$LOFTNORMALS
280
    1
  9
$LATITUDE
 40
1
  9
$LONGITUDE
 40
1
  9
$NORTHDIRECTION
 40
0
  9
$TIMEZONE
 70
-8000
  9
$LIGHTGLYPHDISPLAY
280
    1
  9
$TILEMODELIGHTSYNCH
280
    1
  9
$SOLIDHIST
280
    1
  9
$SHOWHIST
280
    1
  9
$DWFFRAME
280
    2
  9
$DGNFRAME
280
    0
  9
$REALWORLDSCALE
290
    1
  9
$INTERFERECOLOR
 62
    1
  9
$CSHADOW
280
    0
  9
$SHADOWPLANELOCATION
 40
0
  0
ENDSEC
  0
SECTION
  2
CLASSES
  0
ENDSEC
  0
SECTION
  2
TABLES
  0
TABLE
  2
VPORT
  5
8
330
0
100
AcDbSymbolTable
 70
    1
  0
VPORT
  5
31
330
2
100
AcDbSymbolTableRecord
100
AcDbViewportTableRecord
  2
*ACTIVE
 70
    0
 10
0
 20
0
 11
1
 21
1
 12
36.42186373952659
 22
26.50049583915375
 13
0
 23
0
 14
10
 24
10
 15
10
 25
10
 16
0
 26
0
 36
1
 17
0
 27
0
 37
0
 40
106.001983356615
 41
1.37192118226601
 42
50
 43
0
 44
0
 50
0
 51
0
 71
    0
 72
  100
 73
    1
 74
    3
 75
    0
 76
    0
 77
    0
 78
    0
281
    0
 65
    1
110
0
120
0
130
0
111
1
121
0
131
0
112
0
122
1
132
0
 79
    0
146
0
348
10020
 60
    7
 61
    5
292
1
282
    1
141
0
142
0
 63
  250
421
3358443
  0
ENDTAB
  0
TABLE
  2
LTYPE
  5
5
330
0
100
AcDbSymbolTable
 70
    4
  0
LTYPE
  5
14
330
5
100
AcDbSymbolTableRecord
100
AcDbLinetypeTableRecord
  2
ByBlock
 70
    0
  3

 72
   65
 73
    0
 40
0
  0
LTYPE
  5
15
330
5
100
AcDbSymbolTableRecord
100
AcDbLinetypeTableRecord
  2
ByLayer
 70
    0
  3

 72
   65
 73
    0
 40
0
  0
LTYPE
  5
16
330
5
100
AcDbSymbolTableRecord
100
AcDbLinetypeTableRecord
  2
Continuous
 70
    0
  3
Solid line
 72
   65
 73
    0
 40
0
  0
LTYPE
  5
32
330
5
100
AcDbSymbolTableRecord
100
AcDbLinetypeTableRecord
  2
DOT
 70
    0
  3
Dot . . . . . . . . . . . . . . . . . . . . . .
 72
   65
 73
    2
 40
6.35
 49
0
 74
    0
 49
-6.35
 74
    0
  0
LTYPE
  5
33
330
5
100
AcDbSymbolTableRecord
100
AcDbLinetypeTableRecord
  2
DOTTINY
 70
    0
  3
Dot (.15x) .....................................
 72
   65
 73
    2
 40
0.9525
 49
0
 74
    0
 49
-0.9525
 74
    0
  0
LTYPE
  5
34
330
5
100
AcDbSymbolTableRecord
100
AcDbLinetypeTableRecord
  2
DOT2
 70
    0
  3
Dot (.5x) .....................................
 72
   65
 73
    2
 40
3.175
 49
0
 74
    0
 49
-3.175
 74
    0
  0
LTYPE
  5
35
330
5
100
AcDbSymbolTableRecord
100
AcDbLinetypeTableRecord
  2
DOTX2
 70
    0
  3
Dot (2x) .  .  .  .  .  .  .  .  .  .  .  .  .
 72
   65
 73
    2
 40
12.7
 49
0
 74
    0
 49
-12.7
 74
    0
  0
LTYPE
  5
36
330
5
100
AcDbSymbolTableRecord
100
AcDbLinetypeTableRecord
  2
DASHED
 70
    0
  3
Dashed _ _ _ _ _ _ _ _ _ _ _ _ _ _ _ _ _
 72
   65
 73
    2
 40
19.05
 49
12.7
 74
    0
 49
-6.35
 74
    0
  0
LTYPE
  5
37
330
5
100
AcDbSymbolTableRecord
100
AcDbLinetypeTableRecord
  2
DASHEDTINY
 70
    0
  3
Dashed (.15x) _ _ _ _ _ _ _ _ _ _ _ _ _ _ _ _ _
 72
   65
 73
    2
 40
2.8575
 49
1.905
 74
    0
 49
-0.9525
 74
    0
  0
LTYPE
  5
38
330
5
100
AcDbSymbolTableRecord
100
AcDbLinetypeTableRecord
  2
DASHED2
 70
    0
  3
Dashed (.5x) _ _ _ _ _ _ _ _ _ _ _ _ _ _ _ _ _
 72
   65
 73
    2
 40
9.524999999999999
 49
6.35
 74
    0
 49
-3.175
 74
    0
  0
LTYPE
  5
39
330
5
100
AcDbSymbolTableRecord
100
AcDbLinetypeTableRecord
  2
DASHEDX2
 70
    0
  3
Dashed (2x) ____  ____  ____  ____  ____  ___
 72
   65
 73
    2
 40
38.09999999999999
 49
25.4
 74
    0
 49
-12.7
 74
    0
  0
LTYPE
  5
3A
330
5
100
AcDbSymbolTableRecord
100
AcDbLinetypeTableRecord
  2
DASHDOT
 70
    0
  3
Dash dot __ . __ . __ . __ . __ . __ . __ . __
 72
   65
 73
    4
 40
25.4
 49
12.7
 74
    0
 49
-6.35
 74
    0
 49
0
 74
    0
 49
-6.35
 74
    0
  0
LTYPE
  5
3B
330
5
100
AcDbSymbolTableRecord
100
AcDbLinetypeTableRecord
  2
DASHDOTTINY
 70
    0
  3
Dash dot (.15x) _._._._._._._._._._._._._._._.
 72
   65
 73
    4
 40
3.81
 49
1.905
 74
    0
 49
-0.9525
 74
    0
 49
0
 74
    0
 49
-0.9525
 74
    0
  0
LTYPE
  5
3C
330
5
100
AcDbSymbolTableRecord
100
AcDbLinetypeTableRecord
  2
DASHDOT2
 70
    0
  3
Dash dot (.5x) _._._._._._._._._._._._._._._.
 72
   65
 73
    4
 40
12.7
 49
6.35
 74
    0
 49
-3.175
 74
    0
 49
0
 74
    0
 49
-3.175
 74
    0
  0
LTYPE
  5
3D
330
5
100
AcDbSymbolTableRecord
100
AcDbLinetypeTableRecord
  2
DASHDOTX2
 70
    0
  3
Dash dot (2x) ____  .  ____  .  ____  .  ___
 72
   65
 73
    4
 40
50.8
 49
25.4
 74
    0
 49
-12.7
 74
    0
 49
0
 74
    0
 49
-12.7
 74
    0
  0
LTYPE
  5
3E
330
5
100
AcDbSymbolTableRecord
100
AcDbLinetypeTableRecord
  2
DIVIDE
 70
    0
  3
Divide ____ . . ____ . . ____ . . ____ . . ____
 72
   65
 73
    6
 40
31.75
 49
12.7
 74
    0
 49
-6.35
 74
    0
 49
0
 74
    0
 49
-6.35
 74
    0
 49
0
 74
    0
 49
-6.35
 74
    0
  0
LTYPE
  5
3F
330
5
100
AcDbSymbolTableRecord
100
AcDbLinetypeTableRecord
  2
DIVIDETINY
 70
    0
  3
Divide (.15x) __..__..__..__..__..__..__..__.._
 72
   65
 73
    6
 40
4.7625
 49
1.905
 74
    0
 49
-0.9525
 74
    0
 49
0
 74
    0
 49
-0.9525
 74
    0
 49
0
 74
    0
 49
-0.9525
 74
    0
  0
LTYPE
  5
40
330
5
100
AcDbSymbolTableRecord
100
AcDbLinetypeTableRecord
  2
DIVIDE2
 70
    0
  3
Divide (.5x) __..__..__..__..__..__..__..__.._
 72
   65
 73
    6
 40
15.875
 49
6.35
 74
    0
 49
-3.175
 74
    0
 49
0
 74
    0
 49
-3.175
 74
    0
 49
0
 74
    0
 49
-3.175
 74
    0
  0
LTYPE
  5
41
330
5
100
AcDbSymbolTableRecord
100
AcDbLinetypeTableRecord
  2
DIVIDEX2
 70
    0
  3
Divide (2x) ________  .  .  ________  .  .  _
 72
   65
 73
    6
 40
63.5
 49
25.4
 74
    0
 49
-12.7
 74
    0
 49
0
 74
    0
 49
-12.7
 74
    0
 49
0
 74
    0
 49
-12.7
 74
    0
  0
LTYPE
  5
42
330
5
100
AcDbSymbolTableRecord
100
AcDbLinetypeTableRecord
  2
BORDER
 70
    0
  3
Border __ __ . __ __ . __ __ . __ __ . __ __ .
 72
   65
 73
    6
 40
44.45
 49
12.7
 74
    0
 49
-6.35
 74
    0
 49
12.7
 74
    0
 49
-6.35
 74
    0
 49
0
 74
    0
 49
-6.35
 74
    0
  0
LTYPE
  5
43
330
5
100
AcDbSymbolTableRecord
100
AcDbLinetypeTableRecord
  2
BORDERTINY
 70
    0
  3
Border (.15x) __.__.__.__.__.__.__.__.__.__.__.
 72
   65
 73
    6
 40
6.6675
 49
1.905
 74
    0
 49
-0.9525
 74
    0
 49
1.905
 74
    0
 49
-0.9525
 74
    0
 49
0
 74
    0
 49
-0.9525
 74
    0
  0
LTYPE
  5
44
330
5
100
AcDbSymbolTableRecord
100
AcDbLinetypeTableRecord
  2
BORDER2
 70
    0
  3
Border (.5x) __.__.__.__.__.__.__.__.__.__.__.
 72
   65
 73
    6
 40
22.225
 49
6.35
 74
    0
 49
-3.175
 74
    0
 49
6.35
 74
    0
 49
-3.175
 74
    0
 49
0
 74
    0
 49
-3.175
 74
    0
  0
LTYPE
  5
45
330
5
100
AcDbSymbolTableRecord
100
AcDbLinetypeTableRecord
  2
BORDERX2
 70
    0
  3
Border (2x) ____  ____  .  ____  ____  .  ___
 72
   65
 73
    6
 40
88.89999999999999
 49
25.4
 74
    0
 49
-12.7
 74
    0
 49
25.4
 74
    0
 49
-12.7
 74
    0
 49
0
 74
    0
 49
-12.7
 74
    0
  0
LTYPE
  5
46
330
5
100
AcDbSymbolTableRecord
100
AcDbLinetypeTableRecord
  2
CENTER
 70
    0
  3
Center ____ _ ____ _ ____ _ ____ _ ____ _ ____
 72
   65
 73
    4
 40
50.8
 49
31.75
 74
    0
 49
-6.35
 74
    0
 49
6.35
 74
    0
 49
-6.35
 74
    0
  0
LTYPE
  5
47
330
5
100
AcDbSymbolTableRecord
100
AcDbLinetypeTableRecord
  2
CENTERTINY
 70
    0
  3
Center (.15x) ___ _ ___ _ ___ _ ___ _ ___ _ ___
 72
   65
 73
    4
 40
7.619999999999999
 49
4.7625
 74
    0
 49
-0.9525
 74
    0
 49
0.9525
 74
    0
 49
-0.9525
 74
    0
  0
LTYPE
  5
48
330
5
100
AcDbSymbolTableRecord
100
AcDbLinetypeTableRecord
  2
CENTER2
 70
    0
  3
Center (.5x) ___ _ ___ _ ___ _ ___ _ ___ _ ___
 72
   65
 73
    4
 40
28.575
 49
19.05
 74
    0
 49
-3.175
 74
    0
 49
3.175
 74
    0
 49
-3.175
 74
    0
  0
LTYPE
  5
49
330
5
100
AcDbSymbolTableRecord
100
AcDbLinetypeTableRecord
  2
CENTERX2
 70
    0
  3
Center (2x) ________  __  ________  __  _____
 72
   65
 73
    4
 40
101.6
 49
63.5
 74
    0
 49
-12.7
 74
    0
 49
12.7
 74
    0
 49
-12.7
 74
    0
  0
ENDTAB
  0
TABLE
  2
LAYER
  5
2
330
0
100
AcDbSymbolTable
 70
    1
  0
LAYER
  5
10
330
2
100
AcDbSymbolTableRecord
100
AcDbLayerTableRecord
  2
0
 70
    0
 62
    7
  6
CONTINUOUS
370
   -3
390
F
  0
ENDTAB
  0
TABLE
  2
STYLE
  5
3
330
0
100
AcDbSymbolTable
 70
    3
  0
STYLE
  5
4A
330
2
100
AcDbSymbolTableRecord
100
AcDbTextStyleTableRecord
  2
Standard
 70
    0
 40
0
 41
1
 50
0
 71
    0
 42
1
  3
txt
  4

  0
ENDTAB
  0
TABLE
  2
VIEW
  5
6
330
0
100
AcDbSymbolTable
 70
    0
  0
ENDTAB
  0
TABLE
  2
UCS
  5
7
330
0
100
AcDbSymbolTable
 70
    0
  0
ENDTAB
  0
TABLE
  2
APPID
  5
9
330
0
100
AcDbSymbolTable
 70
    1
  0
APPID
  5
12
330
9
100
AcDbSymbolTableRecord
100
AcDbRegAppTableRecord
  2
ACAD
 70
    0
  0
APPID
  5
4B
330
9
100
AcDbSymbolTableRecord
100
AcDbRegAppTableRecord
  2
LibreCad
 70
    0
  0
ENDTAB
  0
TABLE
  2
DIMSTYLE
  5
A
330
0
100
AcDbSymbolTable
 70
    1
100
AcDbDimStyleTable
 71
    1
  0
DIMSTYLE
105
4C
330
A
100
AcDbSymbolTableRecord
100
AcDbDimStyleTableRecord
  2
Standard
 70
    0
 40
1
 41
2.5
 42
0.625
 43
0.38
 44
1.25
 45
0
 46
0
 47
0
 48
0
 49
1
140
2.5
141
0.09
142
2.5
143
25.4
144
1
145
0
146
1
147
0.625
148
0
 71
    0
 72
    0
 73
    0
 74
    1
 75
    0
 76
    0
 77
    0
 78
    1
 79
    0
170
    0
171
    2
172
    0
173
    0
174
    0
175
    0
176
    0
177
    0
178
    0
179
    0
271
    2
272
    4
273
    2
274
    2
275
    0
276
    0
277
    2
278
    0
279
    0
280
    0
281
    0
282
    0
283
    1
284
    0
285
    0
286
    0
288
    0
289
    3
340
standard
341

371
   -2
372
   -2
  0
ENDTAB
  0
TABLE
  2
BLOCK_RECORD
  5
1
330
0
100
AcDbSymbolTable
 70
    2
  0
BLOCK_RECORD
  5
1F
330
1
100
AcDbSymbolTableRecord
100
AcDbBlockTableRecord
  2
*Model_Space
 70
    0
280
    1
281
    0
  0
BLOCK_RECORD
  5
1E
330
1
100
AcDbSymbolTableRecord
100
AcDbBlockTableRecord
  2
*Paper_Space
 70
    0
280
    1
281
    0
  0
ENDTAB
  0
ENDSEC
  0
SECTION
  2
BLOCKS
  0
BLOCK
  5
20
330
1F
100
AcDbEntity
  8
0
100
AcDbBlockBegin
  2
*Model_Space
 70
    0
 10
0
 20
0
 30
0
  3
*Model_Space
  1

  0
ENDBLK
  5
21
330
1F
100
AcDbEntity
  8
0
100
AcDbBlockEnd
  0
BLOCK
  5
1C
330
1B
100
AcDbEntity
  8
0
100
AcDbBlockBegin
  2
*Paper_Space
 70
    0
 10
0
 20
0
 30
0
  3
*Paper_Space
  1

  0
ENDBLK
  5
1D
330
1F
100
AcDbEntity
  8
0
100
AcDbBlockEnd
  0
ENDSEC
  0
SECTION
  2
ENTITIES
  0
CIRCLE
  5
4D
100
AcDbEntity
  8
0
  6
ByLayer
 62
  256
370
   -1
100
AcDbCircle
 10
0
 20
0
 40
7.9375
  0
CIRCLE
  5
4E
100
AcDbEntity
  8
0
  6
ByLayer
 62
  256
370
   -1
100
AcDbCircle
 10
-12.303
 20
0
 40
2
  0
CIRCLE
  5
4F
100
AcDbEntity
  8
0
  6
ByLayer
 62
  256
370
   -1
100
AcDbCircle
 10
12.303
 20
0
 40
2
  0
LWPOLYLINE
  5
50
100
AcDbEntity
  8
0
  6
ByLayer
 62
  256
370
   -1
100
AcDbPolyline
 90
 2310
 70
    1
 43
0
 10
51.69152697112642
 20
-0.8789996548974022
 42
0.008501742670708063
 10
51.69152553060054
 20
0.8790843641384296
 10
51.52027375076678
 20
0.9402164941365996
 10
51.34897944713914
 20
0.9994188657224889
 10
51.17764966851798
 20
1.056653761975451
 10
51.00629158241702
 20
1.111879814717173
 10
50.83491249481806
 20
1.165051422069823
 10
50.66351987455469
 20
1.216118030342306
 10
50.49212138380302
 20
1.265023236924226
 10
50.32072491677741
 20
1.311703652697615
 10
50.14933864968143
 20
1.356087434558341
 10
49.97797110647451
 20
1.398092354389573
 10
49.80663124749476
 20
1.437623198121652
 10
49.63532859223135
 20
1.47456816387238
 10
49.46407339520829
 20
1.508793703396107
 10
49.29287690865055
 20
1.540136819945331
 10
49.1217517960791
 20
1.568392942403699
 10
48.95071283074113
 20
1.593295450895094
 10
48.7797781955522
 20
1.614477572062666
 10
48.60897228444733
 20
1.631390267998355
 10
48.43833349673316
 20
1.643073780133466
 10
48.2679603343741
 20
1.646806512708641
 42
-0.599001928239477
 10
48.14105879092954
 20
3.86606065902692
 10
48.30989591647787
 20
3.889190137648116
 10
48.47809061539316
 20
3.920248849552622
 10
48.64585526631065
 20
3.956521710684715
 10
48.81326112445296
 20
3.997050841244949
 10
48.98034654049639
 20
4.041288001400607
 10
49.14713525905853
 20
4.088866735824464
 10
49.31364299556368
 20
4.139520478516044
 10
49.47988048838503
 20
4.193044548275056
 10
49.64585513887166
 20
4.249275728152952
 10
49.81157198269405
 20
4.308080171479238
 10
49.97703430686778
 20
4.369345719985983
 10
50.14224406304662
 20
4.432976758832455
 10
50.30720215613155
 20
4.4988906242283
 10
50.47190865271038
 20
4.567015009344779
 10
50.63636293584026
 20
4.637286038378346
 10
50.80056382270225
 20
4.709646802943489
 10
50.96450965583313
 20
4.784046227488578
 10
51.12819837509574
 20
4.860438174561726
 10
51.29162757531311
 20
4.938780728598357
 10
51.45478632804612
 20
5.019119936315372
 42
0.008501742670707841
 10
51.25437842087404
 20
6.765744134228053
 10
51.07727436777517
 20
6.806956556994675
 10
50.90034804394593
 20
6.846246952677841
 10
50.72361075164567
 20
6.88357865370847
 10
50.54707432728537
 20
6.91891137859197
 10
50.37075122744683
 20
6.952200655514793
 10
50.19465463496633
 20
6.983397111691049
 10
50.01879859148897
 20
7.012445585579743
 10
49.84319816558747
 20
7.039284001122573
 10
49.66786966966747
 20
7.06384191552475
 10
49.49283094542594
 20
7.086038608312224
 10
49.31810174838119
 20
7.105780507447414
 10
49.14370428042599
 20
7.12295762494237
 10
48.9696639525955
 20
7.137438451981904
 10
48.79601052399873
 20
7.149062336931435
 10
48.62277989496246
 20
7.157627485655897
 10
48.45001713481353
 20
7.162870700201367
 10
48.27778211695849
 20
7.164429670632978
 10
48.10616166193148
 20
7.161761718516106
 10
47.93530332297468
 20
7.153917718433512
 10
47.76561519852838
 20
7.138205043085065
 42
-0.5990019282394798
 10
47.38656492388443
 20
9.328527817694287
 10
47.55166496248738
 20
9.370752514235701
 10
47.71522289748278
 20
9.420781528101749
 10
47.87775921942523
 20
9.475941682213197
 10
48.03945390914576
 20
9.535289462967922
 10
48.20040756197233
 20
9.598284575753196
 10
48.36068554050822
 20
9.664565660577033
 10
48.52033384397468
 20
9.733869680410066
 10
48.67938647264791
 20
9.805994512300542
 10
48.83786938496314
 20
9.880778846881389
 10
48.99580284113771
 20
9.95809028395332
 10
49.15320289184063
 20
10.03781777101721
 10
49.31008237527478
 20
10.11986653894693
 10
49.46645161340478
 20
10.20415456592754
 10
49.62231891474175
 20
10.29061002403576
 10
49.77769094765713
 20
10.37916938350127
 10
49.93257302410901
 20
10.46977597205127
 10
50.08696931961209
 20
10.56237885812153
 10
50.24088304673095
 20
10.65693197015834
 10
50.39431659398046
 20
10.75339339164435
 10
50.5472538552258
 20
10.85180762340359
 42
0.008501742670707841
 10
50.14905210496192
 20
12.56420208265589
 10
49.96840460077581
 20
12.58495753123393
 10
49.78815276195002
 20
12.60382374061972
 10
49.60831199686067
 20
12.6207655706136
 10
49.42889865651021
 20
12.63574435153559
 10
49.24993018568992
 20
12.64871732139451
 10
49.0714253093803
 20
12.65963693195945
 10
48.89340426564115
 20
12.66844998187386
 10
48.71588910096163
 20
12.67509651739546
 10
48.53890405129231
 20
12.67950841436837
 10
48.36247604347388
 20
12.68160751227613
 10
48.18663537066146
 20
12.68130310096786
 10
48.01141662771583
 20
12.67848844021149
 10
47.83686005091154
 20
12.67303577504079
 10
47.66301351828619
 20
12.66478889327388
 10
47.48993569895669
 20
12.6535514084521
 10
47.31770137078193
 20
12.63906697573158
 10
47.14641131711804
 20
12.62098247186352
 10
46.97621365325983
 20
12.59876865253004
 10
46.80736316280286
 20
12.57149939876667
 10
46.64057222047603
 20
12.53654615424721
 42
-0.5990019282394811
 10
46.01431471464534
 20
14.66938335011337
 10
46.17352533481176
 20
14.73015280108123
 10
46.33031427807499
 20
14.79849991220356
 10
46.4855033615186
 20
14.87182826232894
 10
46.63937894525669
 20
14.94922100419529
 10
46.79210255785492
 20
15.03015283197641
 10
46.94378032780077
 20
15.11427219189569
 10
47.09448793844222
 20
15.20132300498482
 10
47.24428220871295
 20
15.29110834152235
 10
47.39320731572638
 20
15.38347090263699
 10
47.54129848012379
 20
15.47828146063972
 10
47.68858430698263
 20
15.57543151653941
 10
47.83508835368929
 20
15.674828382385
 10
47.9808302247094
 20
15.77639174761674
 10
48.12582636216325
 20
15.88005119960369
 10
48.27009063280418
 20
15.98574438281642
 10
48.4136347741178
 20
16.09341559990461
 10
48.5564687401625
 20
16.20301472726225
 10
48.6986009743239
 20
16.31449635984697
 10
48.84003862767079
 20
16.42781912663456
 10
48.98076062634073
 20
16.54302540241988
 42
0.008501742670707841
 10
48.38995620177081
 20
18.19886644246564
 10
48.2081202629793
 20
18.1988943378415
 10
48.0268927675357
 20
18.19709041103843
 10
47.8462930290612
 20
18.1934215073324
 10
47.66634169998941
 20
18.18785107297647
 10
47.4870609859015
 20
18.18033861326977
 10
47.3084749098135
 20
18.17083902440029
 10
47.13060964236578
 20
18.15930175875696
 10
46.95349392055429
 20
18.14566976650224
 10
46.77715958792183
 20
18.12987813022172
 10
46.60164230542029
 20
18.11185226829839
 10
46.42698250892396
 20
18.0915055150136
 10
46.25322673526473
 20
18.06873576941332
 10
46.08042952141517
 20
18.04342069586168
 10
45.90865624017803
 20
18.01541055809412
 10
45.73798756461867
 20
17.98451693752628
 10
45.5685270062843
 20
17.95049368427136
 10
45.40041494461544
 20
17.91300146526823
 10
45.23385885875818
 20
17.87153136982481
 10
45.06921744116769
 20
17.82519235880642
 10
44.90749805596744
 20
17.77145421411235
 42
-0.5990019282394801
 10
44.04219754327594
 20
19.81900103663323
 10
44.19344319109069
 20
19.89752301929928
 10
44.34141915896853
 20
19.98329721856097
 10
44.4872378768795
 20
20.07383781751514
 10
44.63128835107875
 20
20.16826658774594
 10
44.77379093759775
 20
20.2660800603785
 10
44.91489114726106
 20
20.3669410708927
 10
45.05469336089521
 20
20.47060383676224
 10
45.19327647536964
 20
20.57687918877609
 10
45.33070231055975
 20
20.68561588919006
 10
45.46702058837583
 20
20.79668956750597
 10
45.60227209539286
 20
20.90999569269093
 10
45.73649080107413
 20
21.02544486629817
 10
45.86970533681214
 20
21.14295953599411
 10
46.00194006398816
 20
21.26247162237643
 10
46.13321586696306
 20
21.38392075705632
 10
46.26355075573392
 20
21.50725294370605
 10
46.39296033313646
 20
21.6324195201157
 10
46.52145816330486
 20
21.75937633967841
 10
46.64905606663674
 20
21.88808311619766
 10
46.77572827627205
 20
22.01857954601891
 42
0.008501742670707841
 10
46.00002321658931
 20
23.59628074661862
 10
45.81936935273676
 20
23.57558072513343
 10
45.6395287782302
 20
23.55313017908613
 10
45.46052446015326
 20
23.52889837145086
 10
45.28238108313467
 20
23.50285134094771
 10
45.1051253240618
 20
23.47495138807651
 10
44.92878619080942
 20
23.44515644144126
 10
44.7533954454242
 20
23.41341926614183
 10
44.57898814077813
 20
23.37968645997729
 10
44.405603312877
 20
23.34389715857243
 10
44.23328489188884
 20
23.30598133149518
 10
44.06208292926367
 20
23.26585748727929
 10
43.8920552971257
 20
23.22342949529084
 10
43.72327012217268
 20
23.17858203405641
 10
43.55580941973804
 20
23.13117379526999
 10
43.38977481513884
 20
23.0810267845459
 10
43.22529720417926
 20
23.02790825589463
 10
43.06255473232356
 20
22.97149709016809
 10
42.90181153776112
 20
22.91131134472917
 10
42.74352554570199
 20
22.84650667633077
 10
42.58898597713231
 20
22.77468419036009
 42
-0.5990019282394803
 10
41.49592297306953
 20
24.71024773538483
 10
41.63723193021294
 20
24.80549859562111
 10
41.77446582966402
 20
24.90758168516007
 10
41.9090132120534
 20
25.01415419777165
 10
42.04136065848581
 20
25.12438797293674
 10
42.17178447978068
 20
25.23780794221857
 10
42.30046767214354
 20
25.35409572580859
 10
42.42754195311574
 20
25.47301904177367
 10
42.55310726896112
 20
25.59439894752312
 10
42.67724227640048
 20
25.71809223805518
 10
42.80001055041198
 20
25.84398102142212
 10
42.92146452735268
 20
25.97196609727119
 10
43.04164814591897
 20
26.10196252210536
 10
43.16059869117615
 20
26.23389651283048
 10
43.27834812617865
 20
26.367703210792
 10
43.39492408063528
 20
26.50332502173598
 10
43.51035060226673
 20
26.64071035428201
 10
43.62464873927922
 20
26.77981264200255
 10
43.73783699972627
 20
26.92058957224481
 10
43.84993171923738
 20
27.06300246883216
 10
43.96090277386531
 20
27.20708783215805
 42
0.008501742670707841
 10
43.01040958081066
 20
28.68608144537887
 10
42.83329289128688
 20
28.64492336346928
 10
42.65718373463677
 20
28.60211887537917
 10
42.48210843199534
 20
28.55764006248496
 10
42.30809537838459
 20
28.511455998711
 10
42.13517537422401
 20
28.46353227122844
 10
41.96338203408514
 20
28.41383038952232
 10
41.79275229735408
 20
28.36230704718256
 10
41.6233270758111
 20
28.30891318582423
 10
41.45515208903092
 20
28.25359278757154
 10
41.28827896370078
 20
28.19628128613111
 10
41.12276671434925
 20
28.13690342665497
 10
40.9586837939412
 20
28.07537030203918
 10
40.79611103076388
 20
28.0115751083645
 10
40.63514601348612
 20
27.94538680745337
 10
40.47590999483523
 20
27.87664014954777
 10
40.31855954844539
 20
27.80511882675544
 10
40.16330826340602
 20
27.7305241201205
 10
40.01047349350456
 20
27.65240733792011
 10
39.8606064269505
 20
27.56998184010024
 10
39.71526133462552
 20
27.48101132879591
 42
-0.5990019282394806
 10
38.40868558707383
 20
29.27935856545217
 10
38.53821567518533
 20
29.3900965626281
 10
38.66291845245813
 20
29.50715773325621
 10
38.78444046843276
 20
29.62837282384166
 10
38.90335953573475
 20
29.75297453810094
 10
39.02000431783739
 20
29.88052240127895
 10
39.13459291069176
 20
30.01072096884646
 10
39.24728265141447
 20
30.14335448761369
 10
39.35819323271137
 20
30.27825657440067
 10
39.46741912273799
 20
30.41529392384422
 10
39.57503692074327
 20
30.55435665944892
 10
39.68111002927832
 20
30.69535220477045
 10
39.78569178346445
 20
30.83820117862993
 10
39.88882763597197
 20
30.98283452904809
 10
39.99055673484113
 20
31.12919146364991
 10
40.09091309493321
 20
31.2772179131455
 10
40.18992648819366
 20
31.4268653636743
 10
40.28762313380367
 20
31.57808995165577
 10
40.38402624245531
 20
31.73085175000131
 10
40.47915645205002
 20
31.88511419675727
 10
40.57297967426513
 20
32.04091012052666
 42
0.008501742670707952
 10
39.46008948020207
 20
33.40191520279107
 10
39.28881895192005
 20
33.34083561899795
 10
39.11873706530757
 20
33.27823521082829
 10
38.94987315241476
 20
33.21408924202282
 10
38.78225894848432
 20
33.14837022487876
 10
38.61592897593734
 20
33.08104748186247
 10
38.45092101782474
 20
33.01208660512276
 10
38.28727670931068
 20
32.94144878130488
 10
38.12504228773609
 20
32.86908993539093
 10
37.96426956022002
 20
32.79495962628328
 10
37.80501717693614
 20
32.71899959354759
 10
37.64735234614691
 20
32.64114180001622
 10
37.49135320926878
 20
32.56130572115523
 10
37.33711224245819
 20
32.47939446295203
 10
37.18474133550179
 20
32.39528896564052
 10
37.03437978782243
 20
32.30883887837368
 10
36.88620780970752
 20
32.21984715126065
 10
36.7404716494112
 20
32.1280413597962
 10
36.59753773912703
 20
32.03301191255454
 10
36.45804334448273
 20
31.93404012773083
 10
36.32378752395758
 20
31.82908145777056
 42
-0.5990019282394825
 10
34.82073224593639
 20
33.4667681796109
 10
34.93679484222672
 20
33.59154967458133
 10
35.04734080591114
 20
33.72206285491747
 10
35.15425323014882
 20
33.85634029939643
 10
35.25819362641485
 20
33.99368557885077
 10
35.35953872620534
 20
34.1336985544691
 10
35.4585388820027
 20
34.27611056857281
 10
35.55537499936887
 20
34.42072520938825
 10
35.6501849570742
 20
34.56739082220533
 10
35.7430778031721
 20
34.71598573913875
 10
35.83414216259396
 20
34.86640953155357
 10
35.92345157753569
 20
35.0185774537894
 10
36.01106808423866
 20
35.17241672184058
 10
36.09704471043312
 20
35.32786391504089
 10
36.18142727879058
 20
35.48486309981639
 10
36.26425574588902
 20
35.64336443671712
 10
36.34556521977587
 20
35.80332312185476
 10
36.42538674880011
 20
35.96469856632463
 10
36.50374794370552
 20
36.12745374911295
 10
36.58067347561887
 20
36.29155469913007
 10
36.65612573623545
 20
36.45703014521749
 42
0.008501742670707841
 10
35.39534676678979
 20
37.68230391388911
 10
35.23215517301021
 20
37.6020990939964
 10
35.07031783393407
 20
37.52051885780268
 10
34.90986671013851
 20
37.43754197388791
 10
34.7508364633695
 20
37.35314475126653
 10
34.59326488799717
 20
37.26730064762859
 10
34.43719344299199
 20
37.17997978634565
 10
34.28266791651813
 20
37.09114835310973
 10
34.12973926870272
 20
37.00076783085527
 10
33.97846471882414
 20
36.90879401283956
 10
33.82890917594775
 20
36.81517570400122
 10
33.68114716590743
 20
36.71985297182145
 10
33.53526549987838
 20
36.62275472409677
 10
33.39136709631804
 20
36.52379523988284
 10
33.24957668747645
 20
36.4228689899512
 10
33.11004980349098
 20
36.31984248241901
 10
32.97298794198556
 20
36.21454049424351
 10
32.83866680015648
 20
36.10672044684014
 10
32.70749711159941
 20
35.99601718873082
 10
32.58019391162823
 20
35.88178936547629
 10
32.45877759284127
 20
35.76221083363662
 42
-0.5990019282394795
 10
30.77883740852638
 20
37.21788728972277
 10
30.87991945955802
 20
37.35508556487208
 10
30.97486747395918
 20
37.49734931601638
 10
31.0657765395085
 20
37.64293860254917
 10
31.15338324271688
 20
37.79123694143835
 10
31.23810747183212
 20
37.94188974623758
 10
31.32022857214041
 20
38.09465864848254
 10
31.3999486592684
 20
38.24936913834357
 10
31.47742200059033
 20
38.40588626663153
 10
31.55277080244934
 20
38.56410158906596
 10
31.62609456009772
 20
38.72392543411323
 10
31.69747599664122
 20
38.88528199168617
 10
31.76698504070398
 20
39.04810602380316
 10
31.83468160377864
 20
39.2123405678964
 10
31.90061758579935
 20
39.37793527837272
 10
31.96483836416572
 20
39.54484519535556
 10
32.02738392534003
 20
39.71302980901599
 10
32.08828974207637
 20
39.88245233426365
 10
32.14758746522195
 20
40.05307913878514
 10
32.205305477503
 20
40.22487928521987
 10
32.26140314091455
 20
40.3978770281235
 42
0.008501742670707841
 10
30.86917157806596
 20
41.47144616581298
 10
30.71618637078312
 20
41.37316170230542
 10
30.56470337645648
 20
41.27366516122732
 10
30.41475676753521
 20
41.17293909278189
 10
30.26638368039968
 20
41.07096391154895
 10
30.11962468866166
 20
40.96771755646193
 10
29.97452438673006
 20
40.86317507160263
 10
29.83113211885032
 20
40.75730808253108
 10
29.68950290359259
 20
40.65008413226287
 10
29.54969862645377
 20
40.54146582471279
 10
29.41178960920199
 20
40.43140969759825
 10
29.27585672368434
 20
40.31986470436137
 10
29.14199431911829
 20
40.20677011192471
 10
29.01031441456287
 20
40.09205248991583
 10
28.88095295865582
 20
39.9756212153787
 10
28.75407968467584
 20
39.85736139566559
 10
28.62991475075374
 20
39.73712191888211
 10
28.50875970889336
 20
39.61469321474725
 10
28.39106423955191
 20
39.48975933203855
 10
28.27761182615064
 20
39.36176460471825
 10
28.17061785649958
 20
39.22912510003349
 42
-0.5990019282394795
 10
26.33569335533092
 20
40.48381432159017
 10
26.42047710198362
 20
40.63164078758405
 10
26.49858937452952
 20
40.78380048397598
 10
26.57230994269354
 20
40.93880363356254
 10
26.64244086549077
 20
41.09612173624605
 10
26.70943971403521
 20
41.25545038052185
 10
26.77361118472389
 20
41.41658459463737
 10
26.83517596836183
 20
41.57937404570944
 10
26.89430270981603
 20
41.74370224933896
 10
26.95112518057276
 20
41.90947539858733
 10
27.00575244913249
 20
42.07661574802777
 10
27.05827534108857
 20
42.24505741144681
 10
27.10877076582138
 20
42.4147435473637
 10
27.15730473754802
 20
42.58562439390326
 10
27.20393455687025
 20
42.75765584978488
 10
27.24871043044552
 20
42.93079842082611
 10
27.29167670186627
 20
43.10501641936505
 10
27.33287280585012
 20
43.28027734367554
 10
27.37233402073048
 20
43.4565513885932
 10
27.41009207082083
 20
43.6338110538023
 10
27.44610381819449
 20
43.81207580337743
 42
0.008501742670707841
 10
25.94056952950844
 20
44.71994469456261
 10
25.79978510485998
 20
44.60486187572875
 10
25.66063126777728
 20
44.48874611933957
 10
25.52314395709138
 20
44.37158398470631
 10
25.38736229968753
 20
44.25336024730015
 10
25.25332911948007
 20
44.13405761489755
 10
25.12109156496004
 20
44.01365637762915
 10
24.99070189317644
 20
43.89213397082721
 10
24.86221846389125
 20
43.7694644207149
 10
24.73570702204778
 20
43.64561762937964
 10
24.61124238536515
 20
43.52055843391499
 10
24.48891071741544
 20
43.39424533919394
 10
24.36881267547207
 20
43.26662876301361
 10
24.25106791885591
 20
43.13764852285064
 10
24.135821840294
 20
43.00723008343031
 10
24.02325616347352
 20
42.87527864914131
 10
23.9136068369342
 20
42.74166918921231
 10
23.80719733629593
 20
42.60622787373492
 10
23.70451042660498
 20
42.46869207064969
 10
23.60638782548541
 20
42.32859904627696
 10
23.51521103499083
 20
42.18462772753667
 42
-0.5990019282394796
 10
21.54922326399652
 20
43.221972921761
 10
21.61660342047261
 20
43.3785004345438
 10
21.67686163823332
 20
43.53857244184262
 10
21.73243264866494
 20
43.7009687513813
 10
21.78417352722092
 20
43.86525573580364
 10
21.83257356274226
 20
44.03118312701612
 10
21.87795883055329
 20
44.19858202209819
 10
21.92056571959526
 20
44.3673282249322
 10
21.96057505368417
 20
44.53732523446136
 10
21.99813042553354
 20
44.70849510400584
 10
22.03334905501729
 20
44.8807730277763
 10
22.06632868616591
 20
45.05410390236045
 10
22.09715220648458
 20
45.22844002379406
 10
22.12589087231858
 20
45.40373947961672
 10
22.15260663793635
 20
45.579964987788
 10
22.1773538847326
 20
45.75708303468669
 10
22.20018073534337
 20
45.9350632200611
 10
22.22113007235798
 20
46.11387774925899
 10
22.24024034168901
 20
46.29350103282089
 10
22.25754619566224
 20
46.47390936598466
 10
22.27300255879812
 20
46.65511716859977
 42
0.008501742670707841
 10
20.67379248614556
 20
47.38545035387752
 10
20.54704418440883
 20
47.25506946025735
 10
20.42203358764481
 20
47.12384823501777
 10
20.2987979325488
 20
46.99177742179804
 10
20.17737782643218
 20
46.85884635543565
 10
20.05781778523661
 20
46.72504273798069
 10
19.94016689688259
 20
46.59035236256096
 10
19.82447964997214
 20
46.45475876844586
 10
19.7108169846503
 20
46.31824280367406
 10
19.59924764822093
 20
46.18078206087794
 10
19.48984997899074
 20
46.04235013492946
 10
19.38271430898286
 20
45.90291562308489
 10
19.27794629130522
 20
45.76244074039579
 10
19.17567166559818
 20
45.62087933675912
 10
19.07604337326162
 20
45.47817393626273
 10
18.97925275934502
 20
45.33425107613753
 10
18.88554848684695
 20
45.18901343670251
 10
18.79527173800397
 20
45.04232519456064
 10
18.70893206887074
 20
44.893980460626
 10
18.62741845819763
 20
44.7436154660182
 10
18.55324747576057
 20
44.59018921953791
 42
-0.5990019282394775
 10
16.48182609212631
 20
45.39666700540817
 10
16.53092425504146
 20
45.55985498947276
 10
16.57254285999538
 20
45.72575252426476
 10
16.60923985958872
 20
45.8934249095076
 10
16.641916172424
 20
46.06253904358226
 10
16.67108642644091
 20
46.23290206443372
 10
16.69709382500055
 20
46.40438333988131
 10
16.72018737348904
 20
46.57688642965928
 10
16.74055771735643
 20
46.75033607409195
 10
16.75835639859284
 20
46.92467120291246
 10
16.77370726030535
 20
47.09984079481143
 10
16.78671369071863
 20
47.27580124753507
 10
16.7974634748973
 20
47.4525146165298
 10
16.8060321823794
 20
47.62994738514293
 10
16.81248561343138
 20
47.8080695766027
 10
16.81688161524058
 20
47.98685409475036
 10
16.81927146213451
 20
48.16627622305828
 10
16.81970092553399
 20
48.34631323629389
 10
16.81821111772958
 20
48.52694409430041
 10
16.81483916731325
 20
48.70814919689705
 10
16.80953864888038
 20
48.88993773172345
 42
0.008501742670707841
 10
15.13750094123501
 20
49.433214201123
 10
15.02644112035965
 20
49.28923494705674
 10
14.9172034682222
 20
49.14461892231478
 10
14.80982603394491
 20
48.99936117553516
 10
14.70435037588687
 20
48.85345573995842
 10
14.6008221216837
 20
48.70689547223092
 10
14.49929165874923
 20
48.55967185368582
 10
14.39981499689625
 20
48.41177474212052
 10
14.30245486220486
 20
48.2631920570643
 10
14.20728210811326
 20
48.11390937380877
 10
14.11437757225609
 20
47.96390938923555
 10
14.0238345774915
 20
47.81317120236696
 10
13.93576239541201
 20
47.6616693180936
 10
13.8502912067691
 20
47.5093722203699
 10
13.76757950781034
 20
47.35624024193271
 10
13.68782577047217
 20
47.20222221055466
 10
13.6112881305096
 20
47.04724978635601
 10
13.53832102894356
 20
46.89122692311673
 10
13.4694541699947
 20
46.73400715880354
 10
13.40561220434218
 20
46.57533043161902
 10
13.34941396214861
 20
46.41444940315679
 42
-0.5990019282394794
 10
11.1995631114408
 20
46.97954610938535
 10
11.22973921115545
 20
47.14726715979562
 10
11.25217564113954
 20
47.31682749400719
 10
11.26952022838408
 20
47.48759008899067
 10
11.28270598978889
 20
47.65932671135324
 10
11.29226618343009
 20
47.83190441933023
 10
11.29855666652492
 20
48.00523255447109
 10
11.30183581473836
 20
48.17924368960826
 10
11.30230160979948
 20
48.35388478757223
 10
11.30011156739346
 20
48.52911245065337
 10
11.29539453937618
 20
48.7048901071631
 10
11.28825821034291
 20
48.88118622442816
 10
11.27879411850514
 20
49.05797311197087
 10
11.26708116142916
 20
49.23522608588717
 10
11.25318812757234
 20
49.41292286546695
 10
11.23717557578809
 20
49.59104312525385
 10
11.2190972636561
 20
49.76956815466199
 10
11.19900125472828
 20
49.9484805941367
 10
11.17693079171151
 20
50.12776422711441
 10
11.15292499543604
 20
50.3074038135141
 10
11.12693669579832
 20
50.48740318899058
 42
0.008501742670707841
 10
9.403868921731354
 20
50.83654050289904
 10
9.30994541632662
 20
50.68083987815133
 10
9.217904788668804
 20
50.5247143449512
 10
9.127785404278658
 20
50.36816332148407
 10
9.039629230786213
 20
50.21118561717933
 10
8.953482412695029
 20
50.05377933640413
 10
8.869395980035295
 20
49.89594175975092
 10
8.787426733656982
 20
49.73766919576416
 10
8.707638367844897
 20
49.57895679295116
 10
8.630102918488609
 20
49.4197982973109
 10
8.554902668708539
 20
49.26018573330725
 10
8.482132715591652
 20
49.10010897420482
 10
8.411904524692794
 20
48.93955514710098
 10
8.344351020769283
 20
48.77850778086746
 10
8.279634188675494
 20
48.61694553401357
 10
8.217957039849585
 20
48.45484019196192
 10
8.159583817608638
 20
48.29215328554885
 10
8.104877601077266
 20
48.1288297978407
 10
8.054381337137469
 20
47.96478460321343
 10
8.009043294161524
 20
47.7998647372558
 10
7.971550422242565
 20
47.63362625705348
 42
-0.5990019282394782
 10
5.771296698073314
 20
47.94997498387063
 10
5.782157342979291
 20
48.12004260023816
 10
5.785119104816626
 20
48.29105525560375
 10
5.7828851664925
 20
48.46268190875454
 10
5.776408479901889
 20
48.63480216989522
 10
5.766233981422841
 20
48.80734475065066
 10
5.752725542985671
 20
48.980260148172
 10
5.736147542212283
 20
49.15351082740614
 10
5.716702716116195
 20
49.32706666511029
 10
5.694552500619715
 20
49.50090250188763
 10
5.669829076546622
 20
49.67499669243824
 10
5.642643021029356
 20
49.84933018474599
 10
5.61308843208572
 20
50.02388590339687
 10
5.581246506759795
 20
50.19864831902785
 10
5.547188124937166
 20
50.37360313745363
 10
5.510975767660006
 20
50.54873706889363
 10
5.472664974947966
 20
50.7240376526248
 10
5.432305475902097
 20
50.89949312107872
 10
5.389942079910823
 20
51.07509229269279
 10
5.345615390042787
 20
51.25082448616347
 10
5.299278106429945
 20
51.42668813515714
 42
0.008501742670707841
 10
3.547643089468943
 20
51.57713475475099
 10
3.472080336065247
 20
51.41174255507884
 10
3.398436623226587
 20
51.24614284850902
 10
3.326750132718946
 20
51.08033943035922
 10
3.257062694331061
 20
50.91433590176855
 10
3.189420367870267
 20
50.74813563953744
 10
3.123874160728611
 20
50.58174175896925
 10
3.060480924307312
 20
50.4151570674793
 10
2.999304490743467
 20
50.24838400579952
 10
2.940417139280043
 20
50.08142457216675
 10
2.883901525836916
 20
49.91428022260042
 10
2.829853281993913
 20
49.7469517366249
 10
2.778384614144204
 20
49.5794390313623
 10
2.729629458173529
 20
49.41174089532802
 10
2.683751175822688
 20
49.24385459102279
 10
2.640954671467028
 20
49.07577522933935
 10
2.601506851169963
 20
48.90749471333451
 10
2.565774698868112
 20
48.73899977259085
 10
2.534307325961917
 20
48.57026772763626
 10
2.508064256388335
 20
48.40125470557072
 10
2.489765531667413
 20
48.23182594644673
 42
-0.5990019282394812
 10
0.2677926061856702
 20
48.29530260440536
 10
0.2591962111674049
 20
48.46549969526592
 10
0.2426446937630008
 20
48.63573526029268
 10
0.2208613526726339
 20
48.80598855571782
 10
0.1948066516011304
 20
48.97624860480863
 10
0.1650301011494007
 20
49.1465067019325
 10
0.1318988443337498
 20
49.31675514518762
 10
0.09567981416640156
 20
49.48698678096214
 10
0.05657785995826749
 20
49.65719479264256
 10
0.01475623330474075
 20
49.82737258713605
 10
-0.02965127918176994
 20
49.99751372771097
 10
-0.07653264937364805
 20
50.16761189138047
 10
-0.1257924461583542
 20
50.33766084039834
 10
-0.1773482315416456
 20
50.50765440239158
 10
-0.2311279582374529
 20
50.67758645604626
 10
-0.2870680375507451
 20
50.8474509205102
 10
-0.3451118710710336
 20
51.01724174736779
 10
-0.4052087124429889
 20
51.18695291444507
 10
-0.4673127697555571
 20
51.35657842094918
 10
-0.5313824870247896
 20
51.5261122836012
 10
-0.5974646772570854
 20
51.69554755449863
 42
0.008501742670707841
 10
-2.354831695885582
 20
51.64534217801304
 10
-2.411048621239262
 20
51.47241454367393
 10
-2.465335360838371
 20
51.29949950916168
 10
-2.517654414429382
 20
51.12660519744842
 10
-2.567964635380118
 20
50.95373995443669
 10
-2.6162206490395
 20
50.7809123853384
 10
-2.662372135612981
 20
50.60813139955508
 10
-2.706362934293054
 20
50.43540626677395
 10
-2.748129907239858
 20
50.26274668813291
 10
-2.787601474127495
 20
50.09016288805658
 10
-2.824695683782958
 20
49.91766573513851
 10
-2.859317616837448
 20
49.74526690500054
 10
-2.89135578884138
 20
49.57297910586994
 10
-2.920676998839765
 20
49.40081640169936
 10
-2.947118637875422
 20
49.22879469466842
 10
-2.970476579877738
 20
49.056932484877
 10
-2.990484735565684
 20
48.88525215315838
 10
-3.006777000387473
 20
48.71378234861161
 10
-3.018805256931092
 20
48.54256313357808
 10
-3.025611234556815
 20
48.37166029861935
 10
-3.024477260218671
 20
48.20125002355677
 42
-0.5990019282394824
 10
-5.239202571859613
 20
48.01102709734536
 10
-5.267143939646566
 20
48.17913488333668
 10
-5.302992961951058
 20
48.34637407709275
 10
-5.344041726643227
 20
48.5130345027175
 10
-5.389334779321626
 20
48.67921473963936
 10
-5.438325198873534
 20
48.84496877845945
 10
-5.490647357467347
 20
49.01033081862908
 10
-5.546035246580556
 20
49.17532418123592
 10
-5.604284575128879
 20
49.33996544516075
 10
-5.665232404078111
 20
49.50426666956579
 10
-5.728745085140241
 20
49.66823671020027
 10
-5.794710599650464
 20
49.83188205553647
 10
-5.863033427492002
 20
49.99520738681453
 10
-5.933630964425777
 20
50.1582159691178
 10
-6.00643093501179
 20
50.32090993380441
 10
-6.08136947187804
 20
50.48329048822379
 10
-6.158389656070037
 20
50.6453580751181
 10
-6.237440385534521
 20
50.80711249621611
 10
-6.3184754828054
 20
50.96855300972421
 10
-6.40145298072922
 20
51.12967840838927
 10
-6.486418595171631
 20
51.29047645331647
 42
0.008501742670707841
 10
-8.226607648833275
 20
51.04027358461314
 10
-8.262745872542268
 20
50.86206489177942
 10
-8.296967928230286
 20
50.68408874123908
 10
-8.329237486029426
 20
50.50635747772331
 10
-8.359514618873355
 20
50.32888408309649
 10
-8.387755228795214
 20
50.15168227879993
 10
-8.413910339593432
 20
49.97476665218563
 10
-8.437925213196227
 20
49.79815281436817
 10
-8.459738229159276
 20
49.62185760042225
 10
-8.479279439232764
 20
49.44589932766926
 10
-8.49646866534942
 20
49.27029813558813
 10
-8.511212937770608
 20
49.09507644368858
 10
-8.523402947360648
 20
48.92025958563189
 10
-8.532907964573377
 20
48.74587671746279
 10
-8.539568253091749
 20
48.57196217373057
 10
-8.543183126245351
 20
48.39855760256516
 10
-8.543490780416255
 20
48.22571557080796
 10
-8.540130763170223
 20
48.05350627358962
 10
-8.532563096632371
 20
47.88203199279116
 10
-8.519843255983483
 20
47.71146732475514
 10
-8.499291365675965
 20
47.54229709229832
 42
-0.5990019282394794
 10
-10.67789673205302
 20
47.10085442866851
 10
-10.72481881414874
 20
47.26468136771246
 10
-10.77949799452357
 20
47.42674397154786
 10
-10.83927704939379
 20
47.58763885384994
 10
-10.90321798947062
 20
47.74757286507464
 10
-10.97078361308266
 20
47.90666198820681
 10
-11.04161457410093
 20
48.06498187820867
 10
-11.11544925632055
 20
48.22258602684144
 10
-11.19208659013059
 20
48.37951419234906
 10
-11.27136607321746
 20
48.53579692893918
 10
-11.35315593792744
 20
48.69145826939369
 10
-11.43734563539311
 20
48.84651742905684
 10
-11.52384080174427
 20
49.00098994712797
 10
-11.61255974336958
 20
49.15488848358145
 10
-11.703430898896
 20
49.30822339466195
 10
-11.79639095488344
 20
49.46100316018085
 10
-11.89138341385901
 20
49.6132347082663
 10
-11.98835748426495
 20
49.76492366713451
 10
-12.087267205074
 20
49.91607456366159
 10
-12.18807074506924
 20
50.06669098235854
 10
-12.29081212699933
 20
50.21675555289098
 42
0.008501742670707841
 10
-13.99113719010352
 20
49.76981696899941
 10
-14.00672559515547
 20
49.58865044051725
 10
-14.02043683010061
 20
49.40793336525055
 10
-14.03223620907204
 20
49.22768214875715
 10
-14.04208554507963
 20
49.04791423962477
 10
-14.04994259172519
 20
48.86864829664417
 10
-14.0557603548798
 20
48.68990439494938
 10
-14.05948623280189
 20
48.5117042835676
 10
-14.0610609257594
 20
48.33407171203937
 10
-14.060417029461
 20
48.15703285178855
 10
-14.05747718418889
 20
47.98061685063055
 10
-14.05215158183731
 20
47.80485657969038
 10
-14.0443345135962
 20
47.62978966780029
 10
-14.03389942558788
 20
47.45545998300348
 10
-14.02069153654253
 20
47.28191984461556
 10
-14.00451621544763
 20
47.10923350584942
 10
-13.98511935735888
 20
46.93748303426541
 10
-13.96215086100831
 20
46.7667792559249
 10
-13.93508592749556
 20
46.59728533884784
 10
-13.90300609114741
 20
46.42928240902742
 10
-13.86330421019074
 20
46.26355761186895
 42
-0.5990019282394794
 10
-15.97738817860569
 20
45.57665009104071
 10
-16.04267927391198
 20
45.73406044844585
 10
-16.11547578561993
 20
45.88883372847676
 10
-16.19320581926767
 20
46.04186555660835
 10
-16.27496107880398
 20
46.19346835771204
 10
-16.36022108524406
 20
46.34381859514079
 10
-16.44863745878793
 20
46.49303239308966
 10
-16.53995638611563
 20
46.64119271664644
 10
-16.63398264033945
 20
46.78836198510876
 10
-16.7305602482596
 20
46.93458884940886
 10
-16.82956104064946
 20
47.07991220605724
 10
-16.93087737961257
 20
47.2243637467687
 10
-17.03441728770265
 20
47.36796966612459
 10
-17.14010104693727
 20
47.51075185394814
 10
-17.2478587429223
 20
47.65272875636106
 10
-17.35762844153704
 20
47.79391601508942
 10
-17.4693548033212
 20
47.93432695332854
 10
-17.58298800935811
 20
48.07397295240975
 10
-17.69848291423167
 20
48.21286374886406
 10
-17.81579836799535
 20
48.35100767223708
 10
-17.93497612637697
 20
48.48838244720366
 42
0.008501742670707841
 10
-19.57327086141407
 20
47.85053467606939
 10
-19.56810622910974
 20
47.66877209469604
 10
-19.56112789639587
 20
47.48767001815023
 10
-19.55230327358987
 20
47.30724869894488
 10
-19.54159641160366
 20
47.12752982492208
 10
-19.52896746635408
 20
46.94853674897611
 10
-19.51437203842525
 20
46.770294772313
 10
-19.49776034814992
 20
46.59283149834069
 10
-19.479076189571
 20
46.41617728145405
 10
-19.45825558107368
 20
46.24036580599481
 10
-19.43522498979183
 20
46.06543484812853
 10
-19.40989894003859
 20
45.89142730207013
 10
-19.38217670140556
 20
45.71839260127346
 10
-19.35193754550677
 20
45.54638875389316
 10
-19.31903366393027
 20
45.37548538194886
 10
-19.28327901863429
 20
45.20576850609754
 10
-19.24443051599474
 20
45.03734862474231
 10
-19.20215297001536
 20
44.87037575008809
 10
-19.15594360232654
 20
44.70507180914906
 10
-19.1049219800057
 20
44.54182079266181
 10
-19.04658768313435
 20
44.3817019069761
 42
-0.5990019282394815
 10
-21.06858993598416
 20
43.45828441897307
 10
-21.15139887522386
 20
43.6072261100025
 10
-21.24136370440691
 20
43.75269235982848
 10
-21.33603138697081
 20
43.89586612987787
 10
-21.43453516112998
 20
44.03716134650155
 10
-21.53637805582578
 20
44.17681265295095
 10
-21.64122719925066
 20
44.31497512879749
 10
-21.74883988981444
 20
44.4517601308787
 10
-21.85902928843363
 20
44.58725192581491
 10
-21.97164598437138
 20
44.72151662702369
 10
-22.08656707771012
 20
44.85460748766859
 10
-22.20368924474892
 20
44.98656826268503
 10
-22.32292409353208
 20
45.11743546054992
 10
-22.44419492095192
 20
45.24723991556803
 10
-22.56743437103421
 20
45.37600792326475
 10
-22.69258269638372
 20
45.50376208336694
 10
-22.81958643698716
 20
45.63052194044895
 10
-22.94839739603475
 20
45.75630448058411
 10
-23.07897183226111
 20
45.88112452302775
 10
-23.21126981344256
 20
46.00499503377177
 10
-23.34533028393632
 20
46.12788912289317
 42
0.008501742670707841
 10
-24.90023701358622
 20
45.30744748567536
 10
-24.87438667280599
 20
45.12745840462907
 10
-24.846809745672
 20
44.94833226933185
 10
-24.8174761635424
 20
44.77009291522925
 10
-24.78635268388237
 20
44.59276598668352
 10
-24.75340238435248
 20
44.41637922625176
 10
-24.7185840390641
 20
44.24096283137209
 10
-24.68185133937839
 20
44.06654989998061
 10
-24.64315190584386
 20
43.89317699561045
 10
-24.60242601362039
 20
43.72088487639441
 10
-24.55960491530692
 20
43.54971945437807
 10
-24.51460858194177
 20
43.37973308767455
 10
-24.46734257469307
 20
43.21098636991866
 10
-24.41769356454579
 20
43.04355069315147
 10
-24.36552264285449
 20
42.87751207446709
 10
-24.31065478983854
 20
42.71297718055582
 10
-24.25286109229123
 20
42.55008350014784
 10
-24.19182564915005
 20
42.38901827595313
 10
-24.12707425706109
 20
42.23005930082208
 10
-24.05777599364205
 20
42.07368842432815
 10
-23.98156975762654
 20
41.92126284466038
 42
-0.5990019282394808
 10
-25.88513040329138
 20
40.77337354862374
 10
-25.98437764530154
 20
40.91190489055793
 10
-26.09033796282781
 20
41.04616773515055
 10
-26.20070915629009
 20
41.1776169580691
 10
-26.31467729773385
 20
41.30676259098089
 10
-26.43177540280437
 20
41.43389439810223
 10
-26.55169044717965
 20
41.55920439268147
 10
-26.6741940049856
 20
41.68283087159929
 10
-26.79911006067618
 20
41.80487885025442
 10
-26.92629771377496
 20
41.92543104266021
 10
-27.05564093586174
 20
42.04455436439689
 10
-27.1870420644136
 20
42.16230406320798
 10
-27.32041744528977
 20
42.27872648552211
 10
-27.45569439019956
 20
42.39386100815329
 10
-27.59280897967687
 20
42.5077414332282
 10
-27.73170443195049
 20
42.62039702385248
 10
-27.87232986338725
 20
42.7318532911861
 10
-28.01463932760339
 20
42.84213260460493
 10
-28.15859105771846
 20
42.95125467289702
 10
-28.30414685980929
 20
43.05923692946896
 10
-28.45134235916323
 20
43.16604822035119
 42
0.008501742670707841
 10
-29.90259049628159
 20
42.17370842849476
 10
-29.85639144575052
 20
41.99783928070479
 10
-29.8085754316151
 20
41.82302426976788
 10
-29.75911529826486
 20
41.64929050333072
 10
-29.70798094308564
 20
41.47666724796221
 10
-29.65513884682079
 20
41.3051862742157
 10
-29.60055149455147
 20
41.13488228209153
 10
-29.54417665237123
 20
40.96579343257176
 10
-29.48596645018036
 20
40.79796202166624
 10
-29.4258661985181
 20
40.63143534995421
 10
-29.36381283167596
 20
40.46626686682756
 10
-29.29973281071732
 20
40.30251771172955
 10
-29.23353921954149
 20
40.14025884854524
 10
-29.16512760592135
 20
39.97957412249766
 10
-29.09436977186464
 20
39.82056482439111
 10
-29.02110399750238
 20
39.66335687638571
 10
-28.9451185342789
 20
39.50811296516289
 10
-28.86612088431894
 20
39.35505512294258
 10
-28.78367160125022
 20
39.20451338695674
 10
-28.69700010557467
 20
39.05706118396969
 10
-28.60391539524389
 20
38.9143160108557
 42
-0.5990019282394812
 10
-30.36421860958674
 20
37.5569193992297
 10
-30.47861031478866
 20
37.68323442417016
 10
-30.59918476587377
 20
37.80454354202161
 10
-30.72382061293667
 20
37.92255457616287
 10
-30.85176737264948
 20
38.03786701453498
 10
-30.98259413521667
 20
38.15082196479938
 10
-31.11601180455248
 20
38.26164587069506
 10
-31.25180920837956
 20
38.37050216623446
 10
-31.38982344932112
 20
38.47751524655841
 10
-31.52992397401433
 20
38.58278334797239
 10
-31.67200313814429
 20
38.68638617612638
 10
-31.81597021354641
 20
38.78838975133315
 10
-31.9617473744545
 20
38.88884965377652
 10
-32.10926689499794
 20
38.98781328944271
 10
-32.25846912550667
 20
39.08532152639728
 10
-32.40930099007081
 20
39.18140990963535
 10
-32.56171484478323
 20
39.27610958432548
 10
-32.71566759266757
 20
39.36944801152711
 10
-32.87111998572352
 20
39.46144953262675
 10
-33.02803606624455
 20
39.55213582117461
 10
-33.1864476760181
 20
39.64147186529421
 42
0.008501742670707841
 10
-34.51511798173961
 20
38.49017058557412
 10
-34.44917249673372
 20
38.32071409433912
 10
-34.38174075046628
 20
38.15248918877518
 10
-34.31279885437314
 20
37.98552589534052
 10
-34.24232023819441
 20
37.81985672127622
 10
-34.17027522273098
 20
37.65551705095408
 10
-34.09663049309816
 20
37.49254563456915
 10
-34.0213484407054
 20
37.33098519866264
 10
-33.94438632886479
 20
37.17088322032797
 10
-33.86569521645566
 20
37.01229292595544
 10
-33.78521854162
 20
36.85527460548869
 10
-33.70289021413884
 20
36.69989738265495
 10
-33.61863197372691
 20
36.54624166646677
 10
-33.53234960663954
 20
36.39440266227846
 10
-33.4439272967945
 20
36.24449561412393
 10
-33.3532187325003
 20
36.09666405804521
 10
-33.26003209031855
 20
35.9510937578053
 10
-33.16410208871839
 20
35.80803864060454
 10
-33.06502976716463
 20
35.66787668551642
 10
-32.96211493472568
 20
35.53126542100125
 10
-32.85336525163349
 20
35.4000615560732
 42
-0.5990019282394794
 10
-34.44746279021857
 20
33.85085336956098
 10
-34.57550768779536
 20
33.96330536798366
 10
-34.70912440007456
 20
34.07007930922435
 10
-34.84640008186565
 20
34.17311370028369
 10
-34.98665747816531
 20
34.2730896701343
 10
-35.12950737130535
 20
34.37039522302275
 10
-35.27468836224588
 20
34.46528828113819
 10
-35.42200928525982
 20
34.55795528501256
 10
-35.57132248475611
 20
34.64853838784789
 10
-35.72250945644826
 20
34.73715006758131
 10
-35.87547234343487
 20
34.82388178084751
 10
-36.03012853469012
 20
34.90880945985279
 10
-36.18640704740026
 20
34.99199719396341
 10
-36.34424600102503
 20
35.07349980032835
 10
-36.50359079331511
 20
35.15336468017424
 10
-36.66439274614756
 20
35.23163319700235
 10
-36.82660807645252
 20
35.30834172396493
 10
-36.99019709849602
 20
35.38352245580805
 10
-37.15512359481554
 20
35.45720404918952
 10
-37.32135431268499
 20
35.52941213525528
 10
-37.4889168952854
 20
35.60010830065526
 42
0.00850174267070773
 10
-38.67768812023562
 20
34.30485450594106
 10
-38.59285590100258
 20
34.14401979577457
 10
-38.50668749853929
 20
33.98457806449447
 10
-38.41916260275187
 20
33.82656186592968
 10
-38.33025852211868
 20
33.67000652421187
 10
-38.23994980441189
 20
33.51495057624188
 10
-38.14820776909142
 20
33.36143631724142
 10
-38.05499992316815
 20
33.20951048230506
 10
-37.96028922050402
 20
33.05922511067327
 10
-37.8640331063408
 20
32.91063866065998
 10
-37.76618226004134
 20
32.76381747678897
 10
-37.66667890169131
 20
32.61883776593798
 10
-37.56545444706342
 20
32.47578833399256
 10
-37.46242614911569
 20
32.33477450529095
 10
-37.35749208351564
 20
32.19592397471443
 10
-37.25052325414593
 20
32.05939602097511
 10
-37.14135026339738
 20
31.92539706320282
 10
-37.02973850443388
 20
31.79420961324892
 10
-36.91533470361814
 20
31.66625466449316
 10
-36.79751818664457
 20
31.54226527520284
 10
-36.6745212492213
 20
31.42431316149051
 42
-0.5990019282394812
 10
-38.08163161277517
 20
29.7034896980118
 10
-38.22166044166751
 20
29.80061268614412
 10
-38.36657751695581
 20
29.89145948916028
 10
-38.51470343502684
 20
29.97817402627943
 10
-38.66544299825654
 20
30.061510187948
 10
-38.81845375515159
 20
30.14189781676891
 10
-38.97350541145422
 20
30.21962295097136
 10
-39.13042930012523
 20
30.29489260706928
 10
-39.28909493227572
 20
30.36786484314154
 10
-39.44939739758009
 20
30.43866491243497
 10
-39.61124990226492
 20
30.5073948302919
 10
-39.77457902940412
 20
30.5741394509197
 10
-39.93932156450595
 20
30.63897053736421
 10
-40.10542227906798
 20
30.70194960331175
 10
-40.27283233008546
 20
30.76312996520258
 10
-40.44150807181615
 20
30.82255826580761
 10
-40.61141015280676
 20
30.88027563208309
 10
-40.7825028159299
 20
30.93631857275402
 10
-40.95475334641091
 20
30.99071968616612
 10
-41.12813163000422
 20
31.04350822691987
 10
-41.30266075091337
 20
31.09464288096843
 42
0.008501742670707841
 10
-42.33603544418377
 20
29.67232218530958
 10
-42.23342240843545
 20
29.52220598262361
 10
-42.12964068668
 20
29.37362599242929
 10
-42.02467381206697
 20
29.22661687153728
 10
-41.91850326763163
 20
29.08121630046579
 10
-41.81110815992617
 20
28.93746546625725
 10
-41.70246481664983
 20
28.79540965777714
 10
-41.59254628401068
 20
28.65509900940993
 10
-41.4813216893736
 20
28.51658944413208
 10
-41.36875541910918
 20
28.37994389008766
 10
-41.25480603677102
 20
28.24523388147822
 10
-41.139424825999
 20
28.1125417148588
 10
-41.02255377272407
 20
27.98196343526749
 10
-40.90412267534118
 20
27.85361311296255
 10
-40.78404483000721
 20
27.72762922897462
 10
-40.66221023784057
 20
27.60418472824429
 10
-40.53847413541818
 20
27.48350399427916
 10
-40.41263564905763
 20
27.36589444060763
 10
-40.2843917974816
 20
27.25181458662315
 10
-40.15320951444929
 20
27.1420634638644
 10
-40.01756877587385
 20
27.03890078755454
 42
-0.5990019282394817
 10
-41.21934812890959
 20
25.16889561261614
 10
-41.36953539918636
 20
25.2494234437773
 10
-41.52386362178528
 20
25.32315878155934
 10
-41.6809087282648
 20
25.39242300813418
 10
-41.8401653376914
 20
25.45803294730711
 10
-42.00134222912554
 20
25.52045467638178
 10
-42.16424321532941
 20
25.57999862068164
 10
-42.32872432678451
 20
25.63688967392577
 10
-42.49467394242628
 20
25.69129973854108
 10
-42.66200211355664
 20
25.74336521021656
 10
-42.8306342410196
 20
25.79319733307608
 10
-43.0005070590908
 20
25.84088877712378
 10
-43.17156594569802
 20
25.886518043544
 10
-43.34376304436469
 20
25.93015254063544
 10
-43.51705590807387
 20
25.97185080499067
 10
-43.69140649245305
 20
26.01166415059036
 10
-43.86678039067184
 20
26.04963792204201
 10
-44.04314624035832
 20
26.08581246610247
 10
-44.22047525591276
 20
26.12022389783609
 10
-44.39874085415537
 20
26.15290471391944
 10
-44.5779612593743
 20
26.18381123820065
 42
0.008501742670707841
 10
-45.44246780149523
 20
24.65296576702425
 10
-45.32341166707901
 20
24.51552506609395
 10
-45.20336957948818
 20
24.3797437843814
 10
-45.08232912978627
 20
24.24565822987449
 10
-44.96027621696241
 20
24.11330794825474
 10
-44.83719477872688
 20
23.98273623977014
 10
-44.71306645962284
 20
23.85399079652026
 10
-44.58787019643949
 20
23.72712449860117
 10
-44.46158169251666
 20
23.60219642368375
 10
-44.33417273963185
 20
23.47927314937758
 10
-44.20561032571688
 20
23.35843046700434
 10
-44.0758554330581
 20
23.23975568993491
 10
-43.94486137404682
 20
23.1233508502659
 10
-43.81257140770019
 20
23.0093372770954
 10
-43.67891518098161
 20
22.89786243229137
 10
-43.54380312624892
 20
22.78911067242107
 10
-43.40711700147775
 20
22.68332142018775
 10
-43.26869228483502
 20
22.58082298319132
 10
-43.12828023722768
 20
22.48210542933746
 10
-42.98544234981343
 20
22.38802334683816
 10
-42.83892609454889
 20
22.30099499118344
 42
-0.5990019282394796
 10
-43.81970740531508
 20
20.30618648204496
 10
-43.97809519622639
 20
20.36906935280436
 10
-44.13982266173975
 20
20.42473197246061
 10
-44.30373963349527
 20
20.47564292337174
 10
-44.46943713566328
 20
20.52267131415446
 10
-44.63667897436839
 20
20.56631338078267
 10
-44.80530562699338
 20
20.60689988880524
 10
-44.97519969840331
 20
20.6446706773129
 10
-45.14626989050927
 20
20.67980925206955
 10
-45.31844238885945
 20
20.71246137307988
 10
-45.49165576142947
 20
20.74274606301212
 10
-45.6658577184621
 20
20.77076259957189
 10
-45.84100294238695
 20
20.79659519869908
 10
-46.01705157263561
 20
20.82031628453446
 10
-46.19396811154078
 20
20.84198885070894
 10
-46.3717206120662
 20
20.86166821345672
 10
-46.55028006055008
 20
20.87940334390029
 10
-46.72961989823242
 20
20.89523790084661
 10
-46.90971564395277
 20
20.9092110452636
 10
-47.0905445921495
 20
20.92135809226004
 10
-47.27211986961391
 20
20.93163357296448
 42
0.008501742670707841
 10
-47.95648809571642
 20
19.3122202381137
 10
-47.82254094141733
 20
19.18924678866417
 10
-47.68780342018356
 20
19.06803433209122
 10
-47.55226734276214
 20
18.94862035422983
 10
-47.41592320792431
 20
18.83104575038641
 10
-47.2787599939349
 20
18.71535536952953
 10
-47.14076490147248
 20
18.60159868525344
 10
-47.00192303249855
 20
18.48983063399283
 10
-46.86221698307197
 20
18.38011267794524
 10
-46.7216263181145
 20
18.27251417624485
 10
-46.58012688029898
 20
18.1671141892776
 10
-46.43768985921378
 20
18.06400390896693
 10
-46.29428050235495
 20
17.96329002432358
 10
-46.14985626906734
 20
17.86509954157508
 10
-46.00436407428028
 20
17.76958698103576
 10
-45.85773594924225
 20
17.6769457075298
 10
-45.70988171479318
 20
17.58742706171495
 10
-45.56067534574303
 20
17.50137596527103
 10
-45.4099255878775
 20
17.41930764583131
 10
-45.25729420638613
 20
17.34212110741683
 10
-45.10181249788761
 20
17.27236162012594
 42
-0.5990019282394794
 10
-45.84880978208668
 20
15.17875515637048
 10
-46.01333326655511
 20
15.22317329234079
 10
-46.18035161013965
 20
15.26003754649905
 10
-46.34900353876564
 20
15.29193151964308
 10
-46.51898181333264
 20
15.31976527504107
 10
-46.69010834617776
 20
15.34405873814238
 10
-46.86226235892568
 20
15.36515870268654
 10
-47.03535456125011
 20
15.38331682646655
 10
-47.209315168248
 20
15.39872582630506
 10
-47.38408746199811
 20
15.4115389263179
 10
-47.55962397846803
 20
15.42188137607512
 10
-47.73588408554462
 20
15.42985776674714
 10
-47.91283236094313
 20
15.43555693114579
 10
-48.09043745964682
 20
15.43905536509454
 10
-48.26867129610436
 20
15.44041969804426
 10
-48.44750843709427
 20
15.43970852735102
 10
-48.62692564036077
 20
15.43697381223877
 10
-48.80690149698985
 20
15.43226195440532
 10
-48.98741614940969
 20
15.42561465019904
 10
-49.16845106567856
 20
15.41706957277445
 10
-49.3500141039631
 20
15.40658005329682
 42
0.008501742670707841
 10
-49.84532222761366
 20
13.71971038416496
 10
-49.69823025943374
 20
13.61280733317343
 10
-49.5505538142008
 20
13.50774389148206
 10
-49.40228902910477
 20
13.40455823408776
 10
-49.25343112656206
 20
13.30329207278895
 10
-49.10397426907722
 20
13.20399122059989
 10
-48.95391138032296
 20
13.10670628764555
 10
-48.80323392165179
 20
13.01149355051881
 10
-48.65193160872862
 20
12.91841605469013
 10
-48.49999204602193
 20
12.82754503661586
 10
-48.34740024587329
 20
12.73896179507324
 10
-48.19413798076086
 20
12.65276021171203
 10
-48.04018288633748
 20
12.56905024160269
 10
-47.88550717685818
 20
12.48796291238182
 10
-47.73007572726333
 20
12.40965778840148
 10
-47.57384305376865
 20
12.33433472193657
 10
-47.41674821570162
 20
12.26225369498952
 10
-47.25870532744635
 20
12.19377174673844
 10
-47.09958311295846
 20
12.12942254776407
 10
-46.93914802086733
 20
12.07013779800426
 10
-46.77672780098373
 20
12.01855660067742
 42
-0.5990019282394824
 10
-47.28020280663104
 20
9.853445544318419
 10
-47.44871716943029
 20
9.878819887168492
 10
-47.61884905155577
 20
9.896405193899176
 10
-47.79003730124269
 20
9.908866402560642
 10
-47.96208042145144
 20
9.917142667006049
 10
-48.13486075237663
 20
9.921770824136866
 10
-48.30829783441568
 20
9.92310917489654
 10
-48.48233164608691
 20
9.921417915036162
 10
-48.65691482542604
 20
9.916896460078608
 10
-48.8320084904473
 20
9.909703500740177
 10
-49.00757976387641
 20
9.899968880673054
 10
-49.18360020094612
 20
9.887801141006587
 10
-49.36004473644098
 20
9.873292573353021
 10
-49.53689094952609
 20
9.856522747978444
 10
-49.71411853290425
 20
9.837561061536931
 10
-49.89170889872969
 20
9.81646862860025
 10
-50.06964487915098
 20
9.793299719125882
 10
-50.24791049419804
 20
9.768102872785386
 10
-50.4264907687615
 20
9.740921777731907
 10
-50.60537158611173
 20
9.71179597403853
 10
-50.78455543334748
 20
9.680678201306824
 42
0.00850174267070773
 10
-51.08434635567813
 20
7.948343123765738
 10
-50.92602714237078
 20
7.858904115989017
 10
-50.76733696144431
 20
7.771359351815514
 10
-50.60827632688918
 20
7.685747197734551
 10
-50.44884524705003
 20
7.602109638259522
 10
-50.2890431447719
 20
7.520492853207648
 10
-50.12886875897233
 20
7.440947929454245
 10
-49.96832002170917
 20
7.363531750098937
 10
-49.80739390232542
 20
7.288308121990975
 10
-49.646086206431
 20
7.215349230232755
 10
-49.48439131142324
 20
7.144737552138869
 10
-49.32230181029376
 20
7.076568435194565
 10
-49.15980801840561
 20
7.010953667097517
 10
-48.99689726715371
 20
6.948026588747754
 10
-48.83355284939831
 20
6.887949728369723
 10
-48.66975235927305
 20
6.830926820309019
 10
-48.50546488904787
 20
6.777223098649745
 10
-48.34064581233133
 20
6.727203065516603
 10
-48.17522554263298
 20
6.681411877225641
 10
-48.00907825672135
 20
6.64080178349794
 10
-47.84183692140857
 20
6.608071315925582
 42
-0.599001928239483
 10
-48.09522608183972
 20
4.399681200693346
 10
-48.2655344805412
 20
4.405680957059074
 10
-48.43656197194093
 20
4.403758064995695
 10
-48.60805484205543
 20
4.396624058262724
 10
-48.77991996272795
 20
4.385234937991586
 10
-48.95210163588615
 20
4.37013745404586
 10
-49.12456076961411
 20
4.351696743572155
 10
-49.29726739374659
 20
4.330178148230112
 10
-49.47019718669374
 20
4.305785182556538
 10
-49.64332960929132
 20
4.278679935092028
 10
-49.81664679962883
 20
4.248995150860322
 10
-49.99013287110589
 20
4.216841905950086
 10
-50.16377344233977
 20
4.182314747611658
 10
-50.33755530896732
 20
4.145495283233658
 10
-50.51146620668212
 20
4.106454771981839
 10
-50.68549463533508
 20
4.065256048921762
 10
-50.85962972528836
 20
4.021954987252555
 10
-51.03386113383915
 20
3.976601631830669
 10
-51.20817896356395
 20
3.929241093072137
 10
-51.38257369697842
 20
3.879914262503296
 10
-51.55704241769028
 20
3.828573904273595
 42
0.008501742670707619
 10
-51.65740790555733
 20
2.073357055324065
 10
-51.48992538018606
 20
2.002548065007859
 10
-51.32229023275978
 20
1.933663258235682
 10
-51.15450734736884
 20
1.866740692823424
 10
-50.9865815181774
 20
1.80182207866709
 10
-50.81851743589497
 20
1.738953360362341
 10
-50.65031967112414
 20
1.678185435539285
 10
-50.48199265358686
 20
1.619575052246094
 10
-50.31354064581348
 20
1.563185946890949
 10
-50.14496770923565
 20
1.509090312179085
 10
-49.97627765960569
 20
1.457370728744535
 10
-49.80747400699031
 20
1.408122766907733
 10
-49.63855987271688
 20
1.361458589669976
 10
-49.46953787047482
 20
1.317512112892171
 10
-49.3004099288474
 20
1.276446709867199
 10
-49.13117701198092
 20
1.238467341022569
 10
-48.96183864801727
 20
1.203841034792158
 10
-48.79239205156276
 20
1.172935004404626
 10
-48.62283023284716
 20
1.146298784965038
 10
-48.45313673707643
 20
1.124892761946326
 10
-48.28325453290292
 20
1.111439715828048
 42
-0.5990019282394794
 10
-48.28325453290292
 20
-1.111439715828004
 10
-48.45313673707643
 20
-1.124892761946293
 10
-48.62283023284716
 20
-1.146298784965004
 10
-48.79239205156276
 20
-1.172935004404592
 10
-48.96183864801727
 20
-1.203841034792124
 10
-49.13117701198092
 20
-1.238467341022535
 10
-49.3004099288474
 20
-1.276446709867165
 10
-49.46953787047482
 20
-1.317512112892137
 10
-49.63855987271688
 20
-1.361458589669942
 10
-49.80747400699031
 20
-1.408122766907698
 10
-49.97627765960569
 20
-1.4573707287445
 10
-50.14496770923565
 20
-1.50909031217905
 10
-50.31354064581348
 20
-1.563185946890915
 10
-50.48199265358686
 20
-1.619575052246059
 10
-50.65031967112414
 20
-1.67818543553925
 10
-50.81851743589497
 20
-1.738953360362306
 10
-50.9865815181774
 20
-1.801822078667054
 10
-51.15450734736884
 20
-1.866740692823389
 10
-51.32229023275978
 20
-1.933663258235647
 10
-51.48992538018606
 20
-2.002548065007824
 10
-51.65740450778402
 20
-2.073441708650993
 42
0.008501742670707841
 10
-51.55703614356391
 20
-3.828658393124739
 10
-51.38257369697843
 20
-3.879914262503261
 10
-51.20817896356395
 20
-3.929241093072102
 10
-51.03386113383915
 20
-3.976601631830634
 10
-50.85962972528836
 20
-4.021954987252521
 10
-50.68549463533508
 20
-4.065256048921728
 10
-50.51146620668212
 20
-4.106454771981804
 10
-50.33755530896732
 20
-4.145495283233623
 10
-50.16377344233977
 20
-4.182314747611624
 10
-49.99013287110589
 20
-4.216841905950052
 10
-49.81664679962883
 20
-4.248995150860288
 10
-49.64332960929132
 20
-4.278679935091994
 10
-49.47019718669375
 20
-4.305785182556504
 10
-49.29726739374659
 20
-4.330178148230079
 10
-49.12456076961411
 20
-4.35169674357212
 10
-48.95210163588615
 20
-4.370137454045826
 10
-48.77991996272796
 20
-4.385234937991553
 10
-48.60805484205544
 20
-4.396624058262691
 10
-48.43656197194093
 20
-4.403758064995661
 10
-48.26553448054121
 20
-4.40568095705904
 10
-48.09522608183973
 20
-4.3996812006933
 42
-0.5990019282394796
 10
-47.84183692140857
 20
-6.608071315925534
 10
-48.00907825672136
 20
-6.640801783497906
 10
-48.17522554263298
 20
-6.681411877225607
 10
-48.34064581233134
 20
-6.727203065516568
 10
-48.50546488904787
 20
-6.777223098649713
 10
-48.66975235927305
 20
-6.830926820308984
 10
-48.83355284939832
 20
-6.887949728369689
 10
-48.99689726715371
 20
-6.948026588747721
 10
-49.15980801840562
 20
-7.010953667097484
 10
-49.32230181029377
 20
-7.07656843519453
 10
-49.48439131142325
 20
-7.144737552138835
 10
-49.646086206431
 20
-7.215349230232721
 10
-49.80739390232542
 20
-7.288308121990942
 10
-49.96832002170918
 20
-7.363531750098903
 10
-50.12886875897234
 20
-7.440947929454211
 10
-50.2890431447719
 20
-7.520492853207612
 10
-50.44884524705004
 20
-7.602109638259487
 10
-50.60827632688918
 20
-7.685747197734517
 10
-50.76733696144432
 20
-7.77135935181548
 10
-50.92602714237079
 20
-7.858904115988981
 10
-51.08433333030032
 20
-7.948426837982887
 42
0.008501742670707841
 10
-50.78453956911426
 20
-9.680761424240757
 10
-50.60537158611173
 20
-9.711795974038496
 10
-50.4264907687615
 20
-9.740921777731872
 10
-50.24791049419805
 20
-9.76810287278535
 10
-50.06964487915099
 20
-9.793299719125846
 10
-49.8917088987297
 20
-9.816468628600216
 10
-49.71411853290427
 20
-9.837561061536897
 10
-49.5368909495261
 20
-9.85652274797841
 10
-49.36004473644098
 20
-9.873292573352987
 10
-49.18360020094613
 20
-9.887801141006555
 10
-49.00757976387641
 20
-9.899968880673022
 10
-48.83200849044731
 20
-9.909703500740143
 10
-48.65691482542606
 20
-9.916896460078574
 10
-48.48233164608691
 20
-9.92141791503613
 10
-48.30829783441568
 20
-9.923109174896506
 10
-48.13486075237664
 20
-9.921770824136834
 10
-47.96208042145145
 20
-9.917142667006015
 10
-47.7900373012427
 20
-9.90886640256061
 10
-47.61884905155578
 20
-9.896405193899144
 10
-47.4487171694303
 20
-9.87881988716846
 10
-47.28020280663105
 20
-9.853445544318374
 42
-0.5990019282394806
 10
-46.77672780098374
 20
-12.01855660067737
 10
-46.93914802086734
 20
-12.07013779800422
 10
-47.09958311295846
 20
-12.12942254776404
 10
-47.25870532744636
 20
-12.1937717467384
 10
-47.41674821570163
 20
-12.26225369498949
 10
-47.57384305376866
 20
-12.33433472193654
 10
-47.73007572726334
 20
-12.40965778840144
 10
-47.88550717685819
 20
-12.48796291238179
 10
-48.04018288633748
 20
-12.56905024160266
 10
-48.19413798076086
 20
-12.652760211712
 10
-48.34740024587329
 20
-12.73896179507321
 10
-48.49999204602194
 20
-12.82754503661583
 10
-48.65193160872862
 20
-12.91841605469009
 10
-48.8032339216518
 20
-13.01149355051877
 10
-48.95391138032298
 20
-13.10670628764551
 10
-49.10397426907723
 20
-13.20399122059986
 10
-49.25343112656206
 20
-13.30329207278892
 10
-49.40228902910479
 20
-13.40455823408772
 10
-49.5505538142008
 20
-13.50774389148203
 10
-49.69823025943374
 20
-13.61280733317339
 10
-49.84529974443705
 20
-13.71979206792958
 42
0.008501742670707619
 10
-49.34998885643758
 20
-15.4066609253753
 10
-49.16845106567857
 20
-15.41706957277442
 10
-48.9874161494097
 20
-15.42561465019901
 10
-48.80690149698986
 20
-15.43226195440528
 10
-48.62692564036078
 20
-15.43697381223873
 10
-48.44750843709428
 20
-15.43970852735099
 10
-48.26867129610437
 20
-15.44041969804423
 10
-48.09043745964683
 20
-15.4390553650945
 10
-47.91283236094315
 20
-15.43555693114575
 10
-47.73588408554463
 20
-15.4298577667471
 10
-47.55962397846804
 20
-15.42188137607509
 10
-47.38408746199813
 20
-15.41153892631787
 10
-47.20931516824801
 20
-15.39872582630503
 10
-47.03535456125012
 20
-15.38331682646652
 10
-46.86226235892568
 20
-15.36515870268651
 10
-46.69010834617777
 20
-15.34405873814235
 10
-46.51898181333265
 20
-15.31976527504104
 10
-46.34900353876564
 20
-15.29193151964305
 10
-46.18035161013967
 20
-15.26003754649901
 10
-46.01333326655512
 20
-15.22317329234076
 10
-45.8488097820867
 20
-15.17875515637044
 42
-0.5990019282394836
 10
-45.10181249788762
 20
-17.2723616201259
 10
-45.25729420638615
 20
-17.3421211074168
 10
-45.40992558787751
 20
-17.41930764583127
 10
-45.56067534574304
 20
-17.501375965271
 10
-45.70988171479319
 20
-17.58742706171492
 10
-45.85773594924227
 20
-17.67694570752977
 10
-46.0043640742803
 20
-17.76958698103573
 10
-46.14985626906736
 20
-17.86509954157505
 10
-46.29428050235497
 20
-17.96329002432354
 10
-46.4376898592138
 20
-18.0640039089669
 10
-46.580126880299
 20
-18.16711418927757
 10
-46.72162631811452
 20
-18.27251417624481
 10
-46.86221698307198
 20
-18.38011267794521
 10
-47.00192303249855
 20
-18.48983063399279
 10
-47.14076490147249
 20
-18.6015986852534
 10
-47.27875999393491
 20
-18.7153553695295
 10
-47.41592320792432
 20
-18.83104575038638
 10
-47.55226734276215
 20
-18.9486203542298
 10
-47.68780342018357
 20
-19.06803433209119
 10
-47.82254094141734
 20
-19.18924678866414
 10
-47.95645644784365
 20
-19.31229882655287
 42
0.008501742670707841
 10
-47.2720855679362
 20
-20.93171103989634
 10
-47.09054459214951
 20
-20.92135809226
 10
-46.90971564395278
 20
-20.90921104526357
 10
-46.72961989823243
 20
-20.89523790084657
 10
-46.55028006055009
 20
-20.87940334390026
 10
-46.37172061206622
 20
-20.8616682134567
 10
-46.19396811154079
 20
-20.84198885070891
 10
-46.01705157263562
 20
-20.82031628453443
 10
-45.84100294238696
 20
-20.79659519869904
 10
-45.66585771846211
 20
-20.77076259957186
 10
-45.49165576142948
 20
-20.74274606301209
 10
-45.31844238885947
 20
-20.71246137307985
 10
-45.14626989050927
 20
-20.67980925206952
 10
-44.97519969840332
 20
-20.64467067731287
 10
-44.80530562699339
 20
-20.60689988880521
 10
-44.63667897436841
 20
-20.56631338078263
 10
-44.46943713566331
 20
-20.52267131415443
 10
-44.30373963349528
 20
-20.47564292337172
 10
-44.13982266173976
 20
-20.42473197246058
 10
-43.97809519622641
 20
-20.36906935280432
 10
-43.81970740531509
 20
-20.30618648204492
 42
-0.5990019282394796
 10
-42.8389260945489
 20
-22.3009949911834
 10
-42.98544234981345
 20
-22.38802334683812
 10
-43.1282802372277
 20
-22.48210542933742
 10
-43.26869228483504
 20
-22.58082298319129
 10
-43.40711700147777
 20
-22.68332142018772
 10
-43.54380312624894
 20
-22.78911067242104
 10
-43.67891518098163
 20
-22.89786243229133
 10
-43.8125714077002
 20
-23.00933727709537
 10
-43.94486137404684
 20
-23.12335085026587
 10
-44.07585543305812
 20
-23.23975568993487
 10
-44.2056103257169
 20
-23.35843046700431
 10
-44.33417273963187
 20
-23.47927314937755
 10
-44.46158169251668
 20
-23.60219642368372
 10
-44.5878701964395
 20
-23.72712449860114
 10
-44.71306645962285
 20
-23.85399079652023
 10
-44.83719477872689
 20
-23.98273623977011
 10
-44.96027621696243
 20
-24.11330794825471
 10
-45.08232912978628
 20
-24.24565822987446
 10
-45.20336957948819
 20
-24.37974378438137
 10
-45.32341166707903
 20
-24.51552506609392
 10
-45.44242740150466
 20
-24.65304023561753
 42
0.008501742670707841
 10
-44.57791835071922
 20
-26.18388429008595
 10
-44.39874085415539
 20
-26.15290471391941
 10
-44.22047525591278
 20
-26.12022389783606
 10
-44.04314624035833
 20
-26.08581246610243
 10
-43.86678039067186
 20
-26.04963792204198
 10
-43.69140649245308
 20
-26.01166415059032
 10
-43.51705590807389
 20
-25.97185080499064
 10
-43.34376304436471
 20
-25.93015254063541
 10
-43.17156594569804
 20
-25.88651804354397
 10
-43.00050705909081
 20
-25.84088877712374
 10
-42.83063424101962
 20
-25.79319733307604
 10
-42.66200211355665
 20
-25.74336521021652
 10
-42.4946739424263
 20
-25.69129973854106
 10
-42.32872432678452
 20
-25.63688967392574
 10
-42.16424321532942
 20
-25.5799986206816
 10
-42.00134222912556
 20
-25.52045467638176
 10
-41.84016533769142
 20
-25.45803294730709
 10
-41.68090872826482
 20
-25.39242300813415
 10
-41.5238636217853
 20
-25.32315878155931
 10
-41.36953539918638
 20
-25.24942344377728
 10
-41.21934812890962
 20
-25.1688956126161
 42
-0.5990019282394806
 10
-40.01756877587385
 20
-27.03890078755452
 10
-40.1532095144493
 20
-27.14206346386439
 10
-40.2843917974816
 20
-27.25181458662314
 10
-40.41263564905763
 20
-27.36589444060762
 10
-40.53847413541818
 20
-27.48350399427915
 10
-40.66221023784058
 20
-27.60418472824428
 10
-40.78404483000722
 20
-27.72762922897461
 10
-40.90412267534119
 20
-27.85361311296254
 10
-41.02255377272408
 20
-27.98196343526748
 10
-41.13942482599901
 20
-28.11254171485879
 10
-41.25480603677103
 20
-28.24523388147821
 10
-41.36875541910918
 20
-28.37994389008765
 10
-41.48132168937361
 20
-28.51658944413208
 10
-41.59254628401068
 20
-28.65509900940992
 10
-41.70246481664984
 20
-28.79540965777712
 10
-41.81110815992619
 20
-28.93746546625724
 10
-41.91850326763164
 20
-29.08121630046578
 10
-42.02467381206699
 20
-29.22661687153727
 10
-42.12964068668001
 20
-29.37362599242927
 10
-42.23342240843547
 20
-29.5222059826236
 10
-42.33598681875108
 20
-29.67239156324501
 42
0.008501742670707841
 10
-41.30260979466084
 20
-31.09471056546413
 10
-41.12813163000423
 20
-31.04350822691986
 10
-40.95475334641092
 20
-30.99071968616612
 10
-40.78250281592991
 20
-30.93631857275401
 10
-40.61141015280677
 20
-30.88027563208309
 10
-40.44150807181617
 20
-30.8225582658076
 10
-40.27283233008547
 20
-30.76312996520257
 10
-40.10542227906798
 20
-30.70194960331174
 10
-39.93932156450596
 20
-30.63897053736421
 10
-39.77457902940414
 20
-30.57413945091969
 10
-39.61124990226493
 20
-30.50739483029189
 10
-39.4493973975801
 20
-30.43866491243496
 10
-39.28909493227572
 20
-30.36786484314153
 10
-39.13042930012524
 20
-30.29489260706927
 10
-38.97350541145422
 20
-30.21962295097135
 10
-38.81845375515161
 20
-30.1418978167689
 10
-38.66544299825655
 20
-30.06151018794799
 10
-38.51470343502685
 20
-29.97817402627943
 10
-38.36657751695581
 20
-29.89145948916027
 10
-38.22166044166752
 20
-29.80061268614411
 10
-38.08163161277518
 20
-29.70348969801178
 42
-0.5990019282394815
 10
-36.67452124922133
 20
-31.42431316149047
 10
-36.79751818664459
 20
-31.54226527520282
 10
-36.91533470361816
 20
-31.66625466449314
 10
-37.0297385044339
 20
-31.7942096132489
 10
-37.1413502633974
 20
-31.92539706320279
 10
-37.25052325414595
 20
-32.05939602097509
 10
-37.35749208351567
 20
-32.19592397471441
 10
-37.46242614911571
 20
-32.33477450529092
 10
-37.56545444706344
 20
-32.47578833399254
 10
-37.66667890169134
 20
-32.61883776593795
 10
-37.76618226004137
 20
-32.76381747678894
 10
-37.86403310634082
 20
-32.91063866065995
 10
-37.96028922050404
 20
-33.05922511067324
 10
-38.05499992316817
 20
-33.20951048230503
 10
-38.14820776909144
 20
-33.3614363172414
 10
-38.23994980441191
 20
-33.51495057624186
 10
-38.3302585221187
 20
-33.67000652421184
 10
-38.4191626027519
 20
-33.82656186592965
 10
-38.50668749853931
 20
-33.98457806449444
 10
-38.5928559010026
 20
-34.14401979577454
 10
-38.67763190326773
 20
-34.30491788877109
 42
0.008501742670708063
 10
-37.48885855572814
 20
-35.60016973539043
 10
-37.32135431268501
 20
-35.52941213525525
 10
-37.15512359481556
 20
-35.45720404918949
 10
-36.99019709849604
 20
-35.38352245580802
 10
-36.82660807645254
 20
-35.3083417239649
 10
-36.66439274614758
 20
-35.23163319700233
 10
-36.50359079331514
 20
-35.15336468017421
 10
-36.34424600102505
 20
-35.07349980032833
 10
-36.18640704740029
 20
-34.99199719396339
 10
-36.03012853469015
 20
-34.90880945985276
 10
-35.8754723434349
 20
-34.82388178084749
 10
-35.72250945644828
 20
-34.73715006758128
 10
-35.57132248475614
 20
-34.64853838784786
 10
-35.42200928525985
 20
-34.55795528501253
 10
-35.2746883622459
 20
-34.46528828113816
 10
-35.12950737130537
 20
-34.37039522302272
 10
-34.98665747816533
 20
-34.27308967013428
 10
-34.84640008186567
 20
-34.17311370028367
 10
-34.70912440007458
 20
-34.07007930922433
 10
-34.57550768779539
 20
-33.96330536798364
 10
-34.44746279021859
 20
-33.85085336956095
 42
-0.5990019282394796
 10
-32.85336525163351
 20
-35.40006155607318
 10
-32.96211493472568
 20
-35.53126542100124
 10
-33.06502976716464
 20
-35.66787668551641
 10
-33.16410208871839
 20
-35.80803864060454
 10
-33.26003209031856
 20
-35.95109375780529
 10
-33.3532187325003
 20
-36.09666405804521
 10
-33.44392729679451
 20
-36.24449561412393
 10
-33.53234960663956
 20
-36.39440266227844
 10
-33.61863197372691
 20
-36.54624166646676
 10
-33.70289021413885
 20
-36.69989738265494
 10
-33.78521854162001
 20
-36.85527460548868
 10
-33.86569521645566
 20
-37.01229292595544
 10
-33.9443863288648
 20
-37.17088322032797
 10
-34.02134844070541
 20
-37.33098519866262
 10
-34.09663049309817
 20
-37.49254563456914
 10
-34.17027522273099
 20
-37.65551705095407
 10
-34.24232023819442
 20
-37.81985672127622
 10
-34.31279885437315
 20
-37.98552589534051
 10
-34.38174075046629
 20
-38.15248918877517
 10
-34.44917249673373
 20
-38.3207140943391
 10
-34.51505490611063
 20
-38.49022714700666
 42
0.008501742670708063
 10
-33.18638271370142
 20
-39.64152624937314
 10
-33.02803606624455
 20
-39.55213582117462
 10
-32.87111998572352
 20
-39.46144953262674
 10
-32.7156675926676
 20
-39.36944801152709
 10
-32.56171484478325
 20
-39.27610958432548
 10
-32.40930099007082
 20
-39.18140990963535
 10
-32.25846912550669
 20
-39.08532152639727
 10
-32.10926689499794
 20
-38.98781328944271
 10
-31.9617473744545
 20
-38.8888496537765
 10
-31.8159702135464
 20
-38.78838975133316
 10
-31.6720031381443
 20
-38.68638617612637
 10
-31.52992397401434
 20
-38.58278334797237
 10
-31.38982344932113
 20
-38.4775152465584
 10
-31.25180920837958
 20
-38.37050216623444
 10
-31.1160118045525
 20
-38.26164587069504
 10
-30.98259413521668
 20
-38.15082196479938
 10
-30.85176737264948
 20
-38.03786701453499
 10
-30.72382061293667
 20
-37.92255457616286
 10
-30.59918476587378
 20
-37.8045435420216
 10
-30.47861031478865
 20
-37.68323442417016
 10
-30.36421860958676
 20
-37.55691939922969
 42
-0.5990019282394812
 10
-28.60391539524389
 20
-38.91431601085569
 10
-28.69700010557468
 20
-39.05706118396968
 10
-28.78367160125024
 20
-39.20451338695673
 10
-28.86612088431893
 20
-39.35505512294259
 10
-28.9451185342789
 20
-39.50811296516288
 10
-29.0211039975024
 20
-39.66335687638568
 10
-29.09436977186465
 20
-39.82056482439111
 10
-29.16512760592136
 20
-39.97957412249765
 10
-29.23353921954148
 20
-40.14025884854524
 10
-29.29973281071731
 20
-40.30251771172956
 10
-29.36381283167599
 20
-40.46626686682755
 10
-29.42586619851811
 20
-40.6314353499542
 10
-29.48596645018039
 20
-40.79796202166622
 10
-29.54417665237122
 20
-40.96579343257176
 10
-29.60055149455147
 20
-41.13488228209154
 10
-29.65513884682082
 20
-41.30518627421568
 10
-29.70798094308567
 20
-41.47666724796219
 10
-29.75911529826487
 20
-41.64929050333071
 10
-29.80857543161513
 20
-41.82302426976786
 10
-29.85639144575054
 20
-41.99783928070477
 10
-29.90252138427884
 20
-42.17375743116501
 42
0.008501742670708063
 10
-28.45127162097027
 20
-43.16609484479424
 10
-28.3041468598093
 20
-43.05923692946895
 10
-28.15859105771845
 20
-42.95125467289703
 10
-28.0146393276034
 20
-42.84213260460493
 10
-27.87232986338724
 20
-42.73185329118611
 10
-27.73170443195048
 20
-42.62039702385249
 10
-27.5928089796769
 20
-42.50774143322818
 10
-27.45569439019959
 20
-42.39386100815328
 10
-27.32041744528976
 20
-42.27872648552212
 10
-27.18704206441361
 20
-42.16230406320798
 10
-27.05564093586173
 20
-42.0445543643969
 10
-26.92629771377499
 20
-41.92543104266019
 10
-26.79911006067621
 20
-41.8048788502544
 10
-26.67419400498561
 20
-41.68283087159928
 10
-26.55169044717966
 20
-41.55920439268147
 10
-26.43177540280437
 20
-41.43389439810223
 10
-26.31467729773386
 20
-41.30676259098088
 10
-26.20070915629012
 20
-41.17761695806908
 10
-26.0903379628278
 20
-41.04616773515056
 10
-25.98437764530155
 20
-40.91190489055792
 10
-25.88513040329138
 20
-40.77337354862374
 42
-0.5990019282394796
 10
-23.98156975762654
 20
-41.92126284466038
 10
-24.05777599364206
 20
-42.07368842432815
 10
-24.12707425706111
 20
-42.23005930082206
 10
-24.19182564915004
 20
-42.38901827595314
 10
-24.25286109229124
 20
-42.55008350014784
 10
-24.31065478983857
 20
-42.7129771805558
 10
-24.3655226428545
 20
-42.87751207446708
 10
-24.4176935645458
 20
-43.04355069315146
 10
-24.46734257469306
 20
-43.21098636991867
 10
-24.51460858194176
 20
-43.37973308767455
 10
-24.55960491530695
 20
-43.54971945437806
 10
-24.60242601362041
 20
-43.7208848763944
 10
-24.64315190584389
 20
-43.89317699561044
 10
-24.68185133937838
 20
-44.06654989998062
 10
-24.71858403906409
 20
-44.2409628313721
 10
-24.75340238435251
 20
-44.41637922625175
 10
-24.7863526838824
 20
-44.5927659866835
 10
-24.81747616354241
 20
-44.77009291522925
 10
-24.84680974567204
 20
-44.94833226933184
 10
-24.874386672806
 20
-45.12745840462907
 10
-24.90016276619028
 20
-45.30748829075863
 42
0.008501742670708063
 10
-23.34525469204762
 20
-46.12792737987941
 10
-23.21126981344257
 20
-46.00499503377176
 10
-23.0789718322611
 20
-45.88112452302776
 10
-22.94839739603476
 20
-45.75630448058411
 10
-22.81958643698714
 20
-45.63052194044896
 10
-22.69258269638371
 20
-45.50376208336694
 10
-22.56743437103424
 20
-45.37600792326473
 10
-22.44419492095195
 20
-45.24723991556801
 10
-22.32292409353208
 20
-45.11743546054992
 10
-22.20368924474893
 20
-44.98656826268503
 10
-22.08656707771011
 20
-44.85460748766859
 10
-21.97164598437142
 20
-44.72151662702367
 10
-21.85902928843366
 20
-44.5872519258149
 10
-21.74883988981446
 20
-44.45176013087869
 10
-21.64122719925068
 20
-44.31497512879748
 10
-21.53637805582577
 20
-44.17681265295096
 10
-21.43453516112999
 20
-44.03716134650154
 10
-21.33603138697084
 20
-43.89586612987786
 10
-21.2413637044069
 20
-43.75269235982849
 10
-21.15139887522387
 20
-43.60722611000249
 10
-21.06858993598416
 20
-43.45828441897307
 42
-0.5990019282394803
 10
-19.04658768313437
 20
-44.38170190697608
 10
-19.10492198000573
 20
-44.54182079266179
 10
-19.15594360232658
 20
-44.70507180914904
 10
-19.20215297001537
 20
-44.87037575008809
 10
-19.24443051599476
 20
-45.03734862474229
 10
-19.28327901863433
 20
-45.20576850609752
 10
-19.31903366393031
 20
-45.37548538194885
 10
-19.3519375455068
 20
-45.54638875389315
 10
-19.38217670140557
 20
-45.71839260127346
 10
-19.40989894003862
 20
-45.89142730207012
 10
-19.43522498979188
 20
-46.06543484812851
 10
-19.45825558107371
 20
-46.24036580599479
 10
-19.47907618957106
 20
-46.41617728145402
 10
-19.49776034814994
 20
-46.59283149834069
 10
-19.51437203842527
 20
-46.77029477231299
 10
-19.52896746635412
 20
-46.9485367489761
 10
-19.5415964116037
 20
-47.12752982492206
 10
-19.55230327358992
 20
-47.30724869894486
 10
-19.56112789639591
 20
-47.4876700181502
 10
-19.56810622910977
 20
-47.66877209469602
 10
-19.57319244655335
 20
-47.85056675160897
 42
0.008501742670708063
 10
-17.93489666624844
 20
-48.48841183799476
 10
-17.8157983679954
 20
-48.35100767223707
 10
-17.69848291423169
 20
-48.21286374886405
 10
-17.58298800935813
 20
-48.07397295240975
 10
-17.46935480332122
 20
-47.93432695332854
 10
-17.35762844153706
 20
-47.79391601508941
 10
-17.24785874292234
 20
-47.65272875636105
 10
-17.14010104693732
 20
-47.51075185394811
 10
-17.03441728770266
 20
-47.36796966612459
 10
-16.9308773796126
 20
-47.22436374676869
 10
-16.82956104064947
 20
-47.07991220605724
 10
-16.73056024825965
 20
-46.93458884940885
 10
-16.63398264033951
 20
-46.78836198510874
 10
-16.53995638611566
 20
-46.64119271664643
 10
-16.44863745878795
 20
-46.49303239308966
 10
-16.36022108524408
 20
-46.34381859514078
 10
-16.27496107880402
 20
-46.19346835771202
 10
-16.19320581926772
 20
-46.04186555660834
 10
-16.11547578561995
 20
-45.88883372847675
 10
-16.04267927391201
 20
-45.73406044844584
 10
-15.9773881786057
 20
-45.57665009104072
 42
-0.5990019282394812
 10
-13.86330421019076
 20
-46.26355761186895
 10
-13.90300609114745
 20
-46.4292824090274
 10
-13.93508592749562
 20
-46.59728533884783
 10
-13.96215086100833
 20
-46.7667792559249
 10
-13.98511935735891
 20
-46.9374830342654
 10
-14.00451621544768
 20
-47.10923350584941
 10
-14.02069153654259
 20
-47.28191984461554
 10
-14.03389942558793
 20
-47.45545998300346
 10
-14.04433451359624
 20
-47.62978966780028
 10
-14.05215158183734
 20
-47.80485657969037
 10
-14.05747718418895
 20
-47.98061685063053
 10
-14.06041702946104
 20
-48.15703285178854
 10
-14.06106092575946
 20
-48.33407171203935
 10
-14.05948623280191
 20
-48.51170428356759
 10
-14.05576035487984
 20
-48.68990439494937
 10
-14.04994259172524
 20
-48.86864829664415
 10
-14.04208554507969
 20
-49.04791423962475
 10
-14.0322362090721
 20
-49.22768214875713
 10
-14.02043683010066
 20
-49.40793336525054
 10
-14.0067255951555
 20
-49.58865044051724
 10
-13.99105563003563
 20
-49.76983989684162
 42
0.008501742670708063
 10
-12.29072983451524
 20
-50.21677569433304
 10
-12.18807074506929
 20
-50.06669098235853
 10
-12.08726720507403
 20
-49.91607456366157
 10
-11.98835748426498
 20
-49.7649236671345
 10
-11.89138341385904
 20
-49.61323470826629
 10
-11.79639095488347
 20
-49.46100316018085
 10
-11.70343089889606
 20
-49.30822339466194
 10
-11.61255974336965
 20
-49.15488848358144
 10
-11.52384080174429
 20
-49.00098994712797
 10
-11.43734563539316
 20
-48.84651742905682
 10
-11.35315593792746
 20
-48.69145826939368
 10
-11.27136607321752
 20
-48.53579692893916
 10
-11.19208659013065
 20
-48.37951419234905
 10
-11.1154492563206
 20
-48.22258602684143
 10
-11.04161457410097
 20
-48.06498187820866
 10
-10.97078361308269
 20
-47.9066619882068
 10
-10.90321798947068
 20
-47.74757286507462
 10
-10.83927704939385
 20
-47.58763885384992
 10
-10.77949799452361
 20
-47.42674397154785
 10
-10.72481881414879
 20
-47.26468136771246
 10
-10.67789673205304
 20
-47.10085442866851
 42
-0.5990019282394784
 10
-8.499291365675957
 20
-47.54229709229831
 10
-8.519843255983496
 20
-47.71146732475513
 10
-8.532563096632392
 20
-47.88203199279116
 10
-8.540130763170213
 20
-48.05350627358962
 10
-8.543490780416256
 20
-48.22571557080796
 10
-8.543183126245374
 20
-48.39855760256516
 10
-8.539568253091771
 20
-48.57196217373057
 10
-8.53290796457339
 20
-48.74587671746279
 10
-8.523402947360639
 20
-48.92025958563189
 10
-8.51121293777061
 20
-49.09507644368858
 10
-8.496468665349456
 20
-49.27029813558812
 10
-8.479279439232775
 20
-49.44589932766926
 10
-8.45973822915931
 20
-49.62185760042225
 10
-8.437925213196216
 20
-49.79815281436817
 10
-8.413910339593432
 20
-49.97476665218563
 10
-8.387755228795235
 20
-50.15168227879992
 10
-8.359514618873378
 20
-50.32888408309649
 10
-8.32923748602945
 20
-50.50635747772331
 10
-8.296967928230309
 20
-50.68408874123908
 10
-8.26274587254227
 20
-50.86206489177942
 10
-8.226524006818417
 20
-51.04028706585848
 42
0.008501742670708063
 10
-6.486334543140311
 20
-51.290487082835
 10
-6.401452980729244
 20
-51.12967840838927
 10
-6.318475482805401
 20
-50.96855300972421
 10
-6.237440385534522
 20
-50.80711249621611
 10
-6.158389656070038
 20
-50.6453580751181
 10
-6.081369471878042
 20
-50.48329048822379
 10
-6.006430935011813
 20
-50.32090993380441
 10
-5.933630964425811
 20
-50.1582159691178
 10
-5.863033427491992
 20
-49.99520738681453
 10
-5.794710599650476
 20
-49.83188205553646
 10
-5.72874508514023
 20
-49.66823671020027
 10
-5.665232404078134
 20
-49.50426666956579
 10
-5.604284575128912
 20
-49.33996544516075
 10
-5.546035246580568
 20
-49.17532418123592
 10
-5.490647357467347
 20
-49.01033081862908
 10
-5.438325198873536
 20
-48.84496877845945
 10
-5.389334779321649
 20
-48.67921473963936
 10
-5.34404172664326
 20
-48.5130345027175
 10
-5.30299296195106
 20
-48.34637407709275
 10
-5.267143939646577
 20
-48.17913488333668
 10
-5.239202571859606
 20
-48.01102709734536
 42
-0.5990019282394812
 10
-3.024477260218676
 20
-48.20125002355676
 10
-3.025611234556838
 20
-48.37166029861935
 10
-3.018805256931126
 20
-48.54256313357808
 10
-3.006777000387474
 20
-48.71378234861161
 10
-2.990484735565696
 20
-48.88525215315838
 10
-2.970476579877772
 20
-49.05693248487699
 10
-2.947118637875456
 20
-49.22879469466842
 10
-2.920676998839788
 20
-49.40081640169936
 10
-2.891355788841392
 20
-49.57297910586994
 10
-2.85931761683746
 20
-49.74526690500054
 10
-2.824695683783003
 20
-49.91766573513851
 10
-2.787601474127518
 20
-50.09016288805658
 10
-2.748129907239904
 20
-50.26274668813291
 10
-2.706362934293055
 20
-50.43540626677395
 10
-2.662372135612994
 20
-50.60813139955508
 10
-2.616220649039535
 20
-50.7809123853384
 10
-2.567964635380153
 20
-50.95373995443668
 10
-2.517654414429417
 20
-51.12660519744842
 10
-2.465335360838406
 20
-51.29949950916168
 10
-2.411048621239274
 20
-51.47241454367393
 10
-2.354747062325349
 20
-51.64534603691284
 42
0.008501742670708063
 10
-0.5973799614253691
 20
-51.6955485335216
 10
-0.531382487024825
 20
-51.5261122836012
 10
-0.4673127697555697
 20
-51.35657842094918
 10
-0.4052087124430014
 20
-51.18695291444507
 10
-0.3451118710710461
 20
-51.01724174736779
 10
-0.2870680375507576
 20
-50.8474509205102
 10
-0.2311279582374878
 20
-50.67758645604626
 10
-0.1773482315416916
 20
-50.50765440239158
 10
-0.1257924461583553
 20
-50.33766084039834
 10
-0.07653264937367146
 20
-50.16761189138047
 10
-0.02965127918177108
 20
-49.99751372771097
 10
0.01475623330470642
 20
-49.82737258713605
 10
0.05657785995823328
 20
-49.65719479264256
 10
0.09567981416637844
 20
-49.48698678096214
 10
0.1318988443337377
 20
-49.31675514518762
 10
0.1650301011493887
 20
-49.1465067019325
 10
0.1948066516010967
 20
-48.97624860480863
 10
0.2208613526725894
 20
-48.80598855571782
 10
0.2426446937629889
 20
-48.63573526029268
 10
0.2591962111673823
 20
-48.46549969526592
 10
0.2677926061856684
 20
-48.29530260440536
 42
-0.59900192823948
 10
2.489765531667399
 20
-48.23182594644673
 10
2.508064256388301
 20
-48.40125470557072
 10
2.534307325961873
 20
-48.57026772763626
 10
2.5657746988681
 20
-48.73899977259085
 10
2.601506851169941
 20
-48.90749471333451
 10
2.640954671466983
 20
-49.07577522933936
 10
2.683751175822643
 20
-49.24385459102279
 10
2.729629458173494
 20
-49.41174089532802
 10
2.778384614144192
 20
-49.5794390313623
 10
2.829853281993889
 20
-49.74695173662491
 10
2.883901525836859
 20
-49.91428022260042
 10
2.940417139280008
 20
-50.08142457216675
 10
2.99930449074341
 20
-50.24838400579952
 10
3.0604809243073
 20
-50.4151570674793
 10
3.123874160728588
 20
-50.58174175896925
 10
3.189420367870221
 20
-50.74813563953745
 10
3.257062694331015
 20
-50.91433590176855
 10
3.3267501327189
 20
-51.08033943035922
 10
3.398436623226541
 20
-51.24614284850902
 10
3.472080336065223
 20
-51.41174255507884
 10
3.547727611246581
 20
-51.57712894099863
 42
0.008501742670708063
 10
5.299362381661659
 20
-51.42667945092148
 10
5.34561539004274
 20
-51.25082448616347
 10
5.389942079910798
 20
-51.07509229269279
 10
5.432305475902073
 20
-50.89949312107872
 10
5.472664974947943
 20
-50.72403765262481
 10
5.510975767659983
 20
-50.54873706889363
 10
5.54718812493712
 20
-50.37360313745363
 10
5.581246506759738
 20
-50.19864831902786
 10
5.613088432085709
 20
-50.02388590339687
 10
5.642643021029321
 20
-49.84933018474599
 10
5.66982907654661
 20
-49.67499669243824
 10
5.69455250061967
 20
-49.50090250188764
 10
5.716702716116139
 20
-49.32706666511029
 10
5.736147542212249
 20
-49.15351082740614
 10
5.752725542985647
 20
-48.980260148172
 10
5.766233981422819
 20
-48.80734475065066
 10
5.776408479901845
 20
-48.63480216989523
 10
5.782885166492445
 20
-48.46268190875454
 10
5.785119104816603
 20
-48.29105525560375
 10
5.782157342979258
 20
-48.12004260023816
 10
5.771296698073299
 20
-47.94997498387063
 42
-0.5990019282394836
 10
7.971550422242543
 20
-47.63362625705349
 10
8.009043294161479
 20
-47.79986473725581
 10
8.054381337137416
 20
-47.96478460321345
 10
8.104877601077243
 20
-48.12882979784071
 10
8.159583817608606
 20
-48.29215328554886
 10
8.21795703984953
 20
-48.45484019196193
 10
8.279634188675439
 20
-48.61694553401358
 10
8.34435102076924
 20
-48.77850778086746
 10
8.411904524692762
 20
-48.93955514710098
 10
8.482132715591618
 20
-49.10010897420483
 10
8.554902668708472
 20
-49.26018573330726
 10
8.630102918488562
 20
-49.4197982973109
 10
8.707638367844829
 20
-49.57895679295117
 10
8.787426733656957
 20
-49.73766919576416
 10
8.869395980035259
 20
-49.89594175975093
 10
8.953482412694973
 20
-50.05377933640414
 10
9.039629230786156
 20
-50.21118561717935
 10
9.127785404278601
 20
-50.36816332148408
 10
9.217904788668747
 20
-50.5247143449512
 10
9.309945416326585
 20
-50.68083987815133
 10
9.403952229855893
 20
-50.83652509228565
 42
0.008501742670708063
 10
11.12701943177347
 20
-50.48738495470859
 10
11.15292499543598
 20
-50.30740381351411
 10
11.17693079171148
 20
-50.12776422711443
 10
11.19900125472825
 20
-49.9484805941367
 10
11.21909726365607
 20
-49.769568154662
 10
11.23717557578805
 20
-49.59104312525387
 10
11.25318812757229
 20
-49.41292286546696
 10
11.26708116142909
 20
-49.23522608588718
 10
11.27879411850512
 20
-49.05797311197087
 10
11.28825821034286
 20
-48.88118622442817
 10
11.29539453937616
 20
-48.70489010716311
 10
11.3001115673934
 20
-48.52911245065338
 10
11.30230160979943
 20
-48.35388478757224
 10
11.30183581473831
 20
-48.17924368960827
 10
11.29855666652489
 20
-48.00523255447111
 10
11.29226618343006
 20
-47.83190441933024
 10
11.28270598978884
 20
-47.65932671135327
 10
11.26952022838402
 20
-47.48759008899069
 10
11.25217564113951
 20
-47.3168274940072
 10
11.22973921115541
 20
-47.14726715979562
 10
11.19956311144078
 20
-46.97954610938537
 42
-0.5990019282394798
 10
13.34941396214862
 20
-46.41444940315679
 10
13.40561220434217
 20
-46.57533043161902
 10
13.46945416999468
 20
-46.73400715880355
 10
13.53832102894357
 20
-46.89122692311673
 10
13.6112881305096
 20
-47.04724978635601
 10
13.68782577047215
 20
-47.20222221055467
 10
13.76757950781032
 20
-47.35624024193271
 10
13.85029120676909
 20
-47.5093722203699
 10
13.93576239541202
 20
-47.6616693180936
 10
14.0238345774915
 20
-47.81317120236696
 10
14.11437757225606
 20
-47.96390938923556
 10
14.20728210811325
 20
-48.11390937380877
 10
14.30245486220483
 20
-48.26319205706432
 10
14.39981499689626
 20
-48.41177474212051
 10
14.49929165874923
 20
-48.55967185368582
 10
14.60082212168367
 20
-48.70689547223093
 10
14.70435037588685
 20
-48.85345573995843
 10
14.80982603394489
 20
-48.99936117553518
 10
14.91720346822218
 20
-49.14461892231478
 10
15.02644112035965
 20
-49.28923494705674
 10
15.13758194965766
 20
-49.43318939454948
 42
0.008501742670707619
 10
16.80961876700908
 20
-48.88991018510686
 10
16.81483916731322
 20
-48.70814919689706
 10
16.81821111772958
 20
-48.52694409430041
 10
16.81970092553399
 20
-48.34631323629389
 10
16.81927146213451
 20
-48.16627622305828
 10
16.81688161524058
 20
-47.98685409475036
 10
16.81248561343136
 20
-47.8080695766027
 10
16.80603218237937
 20
-47.62994738514295
 10
16.79746347489731
 20
-47.45251461652979
 10
16.78671369071862
 20
-47.27580124753507
 10
16.77370726030536
 20
-47.09984079481143
 10
16.75835639859282
 20
-46.92467120291246
 10
16.7405577173564
 20
-46.75033607409195
 10
16.72018737348903
 20
-46.57688642965928
 10
16.69709382500055
 20
-46.40438333988131
 10
16.6710864264409
 20
-46.23290206443372
 10
16.64191617242398
 20
-46.06253904358226
 10
16.60923985958869
 20
-45.89342490950761
 10
16.57254285999537
 20
-45.72575252426476
 10
16.53092425504145
 20
-45.55985498947277
 10
16.48182609212632
 20
-45.39666700540817
 42
-0.5990019282394792
 10
18.55324747576057
 20
-44.5901892195379
 10
18.62741845819761
 20
-44.74361546601821
 10
18.70893206887071
 20
-44.89398046062601
 10
18.79527173800397
 20
-45.04232519456064
 10
18.88554848684694
 20
-45.18901343670252
 10
18.97925275934498
 20
-45.33425107613754
 10
19.07604337326159
 20
-45.47817393626275
 10
19.17567166559816
 20
-45.62087933675913
 10
19.27794629130521
 20
-45.76244074039579
 10
19.38271430898285
 20
-45.90291562308489
 10
19.48984997899069
 20
-46.04235013492947
 10
19.5992476482209
 20
-46.18078206087795
 10
19.71081698465025
 20
-46.31824280367408
 10
19.82447964997214
 20
-46.45475876844586
 10
19.94016689688258
 20
-46.59035236256096
 10
20.05781778523658
 20
-46.72504273798071
 10
20.17737782643215
 20
-46.85884635543565
 10
20.29879793254877
 20
-46.99177742179806
 10
20.42203358764478
 20
-47.12384823501779
 10
20.54704418440881
 20
-47.25506946025735
 10
20.67387013879753
 20
-47.38541647473551
 42
0.008501742670708063
 10
22.27307901461796
 20
-46.65508066876087
 10
22.2575461956622
 20
-46.47390936598467
 10
22.240240341689
 20
-46.2935010328209
 10
22.22113007235797
 20
-46.113877749259
 10
22.20018073534336
 20
-45.9350632200611
 10
22.17735388473259
 20
-45.75708303468669
 10
22.15260663793632
 20
-45.57996498778802
 10
22.12589087231854
 20
-45.40373947961674
 10
22.09715220648458
 20
-45.22844002379406
 10
22.06632868616589
 20
-45.05410390236045
 10
22.03334905501729
 20
-44.8807730277763
 10
21.99813042553351
 20
-44.70849510400586
 10
21.96057505368414
 20
-44.53732523446138
 10
21.92056571959523
 20
-44.36732822493222
 10
21.87795883055328
 20
-44.19858202209819
 10
21.83257356274225
 20
-44.03118312701613
 10
21.78417352722089
 20
-43.86525573580366
 10
21.7324326486649
 20
-43.70096875138132
 10
21.67686163823331
 20
-43.53857244184262
 10
21.61660342047259
 20
-43.37850043454381
 10
21.54922326399653
 20
-43.22197292176101
 42
-0.5990019282394808
 10
23.51521103499082
 20
-42.18462772753668
 10
23.60638782548538
 20
-42.32859904627698
 10
23.70451042660494
 20
-42.46869207064972
 10
23.80719733629592
 20
-42.60622787373493
 10
23.91360683693418
 20
-42.74166918921232
 10
24.02325616347348
 20
-42.87527864914134
 10
24.13582184029396
 20
-43.00723008343033
 10
24.25106791885588
 20
-43.13764852285065
 10
24.36881267547206
 20
-43.26662876301361
 10
24.48891071741541
 20
-43.39424533919394
 10
24.6112423853651
 20
-43.52055843391502
 10
24.73570702204775
 20
-43.64561762937966
 10
24.8622184638912
 20
-43.76946442071493
 10
24.99070189317643
 20
-43.89213397082722
 10
25.12109156496001
 20
-44.01365637762917
 10
25.25332911948002
 20
-44.13405761489757
 10
25.38736229968749
 20
-44.25336024730017
 10
25.52314395709134
 20
-44.37158398470633
 10
25.66063126777724
 20
-44.48874611933959
 10
25.79978510485996
 20
-44.60486187572877
 10
25.94064281406872
 20
-44.71990218451852
 42
0.008501742670707619
 10
27.44617561498698
 20
-43.81203082614745
 10
27.41009207082079
 20
-43.63381105380233
 10
27.37233402073046
 20
-43.4565513885932
 10
27.3328728058501
 20
-43.28027734367556
 10
27.29167670186625
 20
-43.10501641936506
 10
27.24871043044551
 20
-42.93079842082612
 10
27.20393455687021
 20
-42.7576558497849
 10
27.15730473754797
 20
-42.58562439390329
 10
27.10877076582137
 20
-42.41474354736371
 10
27.05827534108855
 20
-42.24505741144682
 10
27.00575244913248
 20
-42.07661574802778
 10
26.95112518057272
 20
-41.90947539858735
 10
26.89430270981599
 20
-41.74370224933899
 10
26.8351759683618
 20
-41.57937404570946
 10
26.77361118472388
 20
-41.41658459463738
 10
26.70943971403519
 20
-41.25545038052186
 10
26.64244086549073
 20
-41.09612173624607
 10
26.5723099426935
 20
-40.93880363356256
 10
26.49858937452951
 20
-40.78380048397599
 10
26.42047710198359
 20
-40.63164078758407
 10
26.33569335533091
 20
-40.48381432159017
 42
-0.5990019282394791
 10
28.17061785649955
 20
-39.22912510003351
 10
28.2776118261506
 20
-39.36176460471827
 10
28.39106423955186
 20
-39.48975933203858
 10
28.50875970889334
 20
-39.61469321474726
 10
28.62991475075371
 20
-39.73712191888213
 10
28.75407968467579
 20
-39.85736139566563
 10
28.88095295865577
 20
-39.97562121537874
 10
29.01031441456282
 20
-40.09205248991586
 10
29.14199431911826
 20
-40.20677011192473
 10
29.27585672368431
 20
-40.31986470436139
 10
29.41178960920194
 20
-40.43140969759828
 10
29.54969862645373
 20
-40.54146582471282
 10
29.68950290359253
 20
-40.65008413226291
 10
29.8311321188503
 20
-40.7573080825311
 10
29.97452438673002
 20
-40.86317507160265
 10
30.11962468866161
 20
-40.96771755646198
 10
30.26638368039963
 20
-41.070963911549
 10
30.41475676753516
 20
-41.17293909278192
 10
30.56470337645643
 20
-41.27366516122736
 10
30.71618637078309
 20
-41.37316170230545
 10
30.86923953915817
 20
-41.4713955790503
 42
0.008501742670708063
 10
32.26146934269869
 20
-40.39782415984941
 10
32.20530547750295
 20
-40.22487928521991
 10
32.14758746522191
 20
-40.05307913878517
 10
32.08828974207634
 20
-39.88245233426368
 10
32.02738392534
 20
-39.71302980901601
 10
31.9648383641657
 20
-39.54484519535558
 10
31.9006175857993
 20
-39.37793527837276
 10
31.83468160377859
 20
-39.21234056789645
 10
31.76698504070395
 20
-39.04810602380318
 10
31.69747599664118
 20
-38.8852819916862
 10
31.62609456009769
 20
-38.72392543411325
 10
31.55277080244929
 20
-38.564101589066
 10
31.47742200059028
 20
-38.40588626663157
 10
31.39994865926836
 20
-38.2493691383436
 10
31.32022857214038
 20
-38.09465864848256
 10
31.23810747183208
 20
-37.94188974623761
 10
31.15338324271683
 20
-37.79123694143838
 10
31.06577653950844
 20
-37.64293860254921
 10
30.97486747395916
 20
-37.4973493160164
 10
30.87991945955798
 20
-37.35508556487211
 10
30.77883740852635
 20
-37.2178872897228
 42
-0.5990019282394796
 10
32.45877759284127
 20
-35.76221083363662
 10
32.58019391162822
 20
-35.88178936547629
 10
32.70749711159938
 20
-35.99601718873085
 10
32.83866680015648
 20
-36.10672044684014
 10
32.97298794198555
 20
-36.21454049424351
 10
33.11004980349095
 20
-36.31984248241903
 10
33.24957668747643
 20
-36.42286898995121
 10
33.39136709631803
 20
-36.52379523988287
 10
33.53526549987837
 20
-36.62275472409677
 10
33.68114716590743
 20
-36.71985297182146
 10
33.82890917594772
 20
-36.81517570400124
 10
33.97846471882413
 20
-36.90879401283958
 10
34.1297392687027
 20
-37.00076783085529
 10
34.28266791651814
 20
-37.09114835310973
 10
34.43719344299198
 20
-37.17997978634565
 10
34.59326488799715
 20
-37.26730064762862
 10
34.75083646336947
 20
-37.35314475126655
 10
34.90986671013849
 20
-37.43754197388792
 10
35.07031783393404
 20
-37.5205188578027
 10
35.23215517301021
 20
-37.60209909399641
 10
35.39540851843726
 20
-37.68224590988359
 42
0.008501742670708063
 10
36.65618547996974
 20
-36.45697007511808
 10
36.58067347561884
 20
-36.29155469913009
 10
36.50374794370551
 20
-36.12745374911296
 10
36.42538674880011
 20
-35.96469856632464
 10
36.34556521977587
 20
-35.80332312185476
 10
36.26425574588902
 20
-35.64336443671712
 10
36.18142727879056
 20
-35.48486309981641
 10
36.0970447104331
 20
-35.32786391504092
 10
36.01106808423865
 20
-35.17241672184058
 10
35.92345157753567
 20
-35.01857745378941
 10
35.83414216259396
 20
-34.86640953155357
 10
35.74307780317208
 20
-34.71598573913877
 10
35.65018495707417
 20
-34.56739082220535
 10
35.55537499936885
 20
-34.42072520938826
 10
35.45853888200269
 20
-34.27611056857282
 10
35.35953872620534
 20
-34.13369855446911
 10
35.25819362641483
 20
-33.99368557885079
 10
35.1542532301488
 20
-33.85634029939645
 10
35.04734080591114
 20
-33.72206285491747
 10
34.9367948422267
 20
-33.59154967458134
 10
34.82073224593639
 20
-33.46676817961089
 42
-0.599001928239478
 10
36.32378752395757
 20
-31.82908145777057
 10
36.45804334448272
 20
-31.93404012773085
 10
36.597537739127
 20
-32.03301191255458
 10
36.74047164941119
 20
-32.12804135979621
 10
36.88620780970751
 20
-32.21984715126066
 10
37.0343797878224
 20
-32.30883887837371
 10
37.18474133550177
 20
-32.39528896564055
 10
37.33711224245817
 20
-32.47939446295206
 10
37.49135320926877
 20
-32.56130572115524
 10
37.6473523461469
 20
-32.64114180001623
 10
37.80501717693611
 20
-32.71899959354761
 10
37.96426956022
 20
-32.79495962628329
 10
38.12504228773606
 20
-32.86908993539097
 10
38.28727670931067
 20
-32.94144878130488
 10
38.45092101782473
 20
-33.01208660512277
 10
38.61592897593731
 20
-33.08104748186251
 10
38.78225894848429
 20
-33.1483702248788
 10
38.94987315241473
 20
-33.21408924202284
 10
39.11873706530754
 20
-33.27823521082833
 10
39.28881895192004
 20
-33.34083561899796
 10
39.46014421737758
 20
-33.40185053771365
 42
0.008501742670708063
 10
40.57303218109862
 20
-32.04084363170757
 10
40.47915645205
 20
-31.88511419675731
 10
40.3840262424553
 20
-31.73085175000132
 10
40.28762313380366
 20
-31.57808995165578
 10
40.18992648819365
 20
-31.4268653636743
 10
40.0909130949332
 20
-31.27721791314551
 10
39.9905567348411
 20
-31.12919146364995
 10
39.88882763597194
 20
-30.98283452904814
 10
39.78569178346444
 20
-30.83820117862994
 10
39.6811100292783
 20
-30.69535220477048
 10
39.57503692074326
 20
-30.55435665944893
 10
39.46741912273797
 20
-30.41529392384425
 10
39.35819323271134
 20
-30.27825657440071
 10
39.24728265141447
 20
-30.14335448761371
 10
39.13459291069175
 20
-30.01072096884647
 10
39.02000431783738
 20
-29.88052240127896
 10
38.90335953573473
 20
-29.75297453810098
 10
38.78444046843272
 20
-29.6283728238417
 10
38.66291845245812
 20
-29.50715773325622
 10
38.53821567518531
 20
-29.39009656262812
 10
38.40868558707383
 20
-29.27935856545218
 42
-0.5990019282394787
 10
39.71526133462551
 20
-27.48101132879593
 10
39.86060642695048
 20
-27.56998184010027
 10
40.01047349350453
 20
-27.65240733792016
 10
40.16330826340601
 20
-27.73052412012051
 10
40.31855954844538
 20
-27.80511882675547
 10
40.47590999483521
 20
-27.87664014954781
 10
40.63514601348609
 20
-27.94538680745341
 10
40.79611103076386
 20
-28.01157510836454
 10
40.95868379394118
 20
-28.0753703020392
 10
41.12276671434923
 20
-28.136903426655
 10
41.28827896370075
 20
-28.19628128613115
 10
41.4551520890309
 20
-28.25359278757157
 10
41.62332707581107
 20
-28.30891318582428
 10
41.79275229735407
 20
-28.36230704718258
 10
41.96338203408512
 20
-28.41383038952235
 10
42.13517537422398
 20
-28.46353227122848
 10
42.30809537838456
 20
-28.51145599871105
 10
42.48210843199531
 20
-28.557640062485
 10
42.65718373463674
 20
-28.6021188753792
 10
42.83329289128686
 20
-28.64492336346931
 10
43.01045658993144
 20
-28.68601096223772
 42
0.008501742670708063
 10
43.96094735929113
 20
-27.20701579140268
 10
43.84993171923735
 20
-27.0630024688322
 10
43.73783699972626
 20
-26.92058957224483
 10
43.62464873927921
 20
-26.77981264200257
 10
43.51035060226672
 20
-26.64071035428202
 10
43.39492408063527
 20
-26.503325021736
 10
43.27834812617862
 20
-26.36770321079204
 10
43.16059869117613
 20
-26.23389651283053
 10
43.04164814591896
 20
-26.10196252210537
 10
42.92146452735267
 20
-25.97196609727122
 10
42.80001055041197
 20
-25.84398102142215
 10
42.67724227640046
 20
-25.71809223805522
 10
42.55310726896109
 20
-25.59439894752317
 10
42.42754195311572
 20
-25.4730190417737
 10
42.30046767214352
 20
-25.35409572580862
 10
42.17178447978067
 20
-25.23780794221859
 10
42.04136065848579
 20
-25.12438797293679
 10
41.90901321205337
 20
-25.0141541977717
 10
41.77446582966402
 20
-24.90758168516009
 10
41.63723193021291
 20
-24.80549859562115
 10
41.49592297306951
 20
-24.71024773538485
 42
-0.5990019282394813
 10
42.58898597713231
 20
-22.77468419036008
 10
42.74352554570198
 20
-22.84650667633077
 10
42.90181153776111
 20
-22.91131134472919
 10
43.06255473232356
 20
-22.97149709016808
 10
43.22529720417926
 20
-23.02790825589463
 10
43.38977481513883
 20
-23.08102678454591
 10
43.55580941973803
 20
-23.13117379527001
 10
43.72327012217267
 20
-23.17858203405642
 10
43.89205529712571
 20
-23.22342949529083
 10
44.06208292926367
 20
-23.26585748727929
 10
44.23328489188883
 20
-23.3059813314952
 10
44.405603312877
 20
-23.34389715857244
 10
44.57898814077812
 20
-23.37968645997731
 10
44.7533954454242
 20
-23.41341926614182
 10
44.92878619080942
 20
-23.44515644144126
 10
45.10512532406179
 20
-23.47495138807653
 10
45.28238108313467
 20
-23.50285134094774
 10
45.46052446015324
 20
-23.52889837145088
 10
45.63952877823019
 20
-23.55313017908615
 10
45.81936935273676
 20
-23.57558072513343
 10
46.00006188481957
 20
-23.59620536426925
 42
0.008501742670708063
 10
46.77576435905102
 20
-22.01850289248868
 10
46.64905606663673
 20
-21.88808311619768
 10
46.52145816330486
 20
-21.7593763396784
 10
46.39296033313646
 20
-21.6324195201157
 10
46.26355075573392
 20
-21.50725294370605
 10
46.13321586696306
 20
-21.38392075705632
 10
46.00194006398815
 20
-21.26247162237645
 10
45.86970533681213
 20
-21.14295953599414
 10
45.73649080107413
 20
-21.02544486629817
 10
45.60227209539285
 20
-20.90999569269094
 10
45.46702058837583
 20
-20.79668956750596
 10
45.33070231055974
 20
-20.68561588919008
 10
45.19327647536962
 20
-20.57687918877611
 10
45.05469336089521
 20
-20.47060383676225
 10
44.91489114726106
 20
-20.3669410708927
 10
44.77379093759775
 20
-20.2660800603785
 10
44.63128835107875
 20
-20.16826658774595
 10
44.48723787687949
 20
-20.07383781751516
 10
44.34141915896853
 20
-19.98329721856097
 10
44.19344319109068
 20
-19.89752301929929
 10
44.04219754327594
 20
-19.81900103663323
 42
-0.5990019282394817
 10
44.90749805596743
 20
-17.77145421411236
 10
45.06921744116769
 20
-17.82519235880643
 10
45.23385885875818
 20
-17.87153136982484
 10
45.40041494461544
 20
-17.91300146526823
 10
45.56852700628429
 20
-17.95049368427138
 10
45.73798756461866
 20
-17.98451693752631
 10
45.90865624017802
 20
-18.01541055809415
 10
46.08042952141516
 20
-18.04342069586169
 10
46.25322673526473
 20
-18.06873576941332
 10
46.42698250892396
 20
-18.09150551501361
 10
46.60164230542028
 20
-18.11185226829843
 10
46.77715958792182
 20
-18.12987813022174
 10
46.95349392055428
 20
-18.14566976650228
 10
47.13060964236578
 20
-18.15930175875696
 10
47.30847490981349
 20
-18.1708390244003
 10
47.48706098590149
 20
-18.1803386132698
 10
47.6663416999894
 20
-18.1878510729765
 10
47.84629302906119
 20
-18.19342150733243
 10
48.02689276753569
 20
-18.19709041103847
 10
48.2081202629793
 20
-18.19889433784151
 10
48.38998602501103
 20
-18.19878714363232
 42
0.008501742670708063
 10
48.9807877360786
 20
-16.54294513541081
 10
48.84003862767078
 20
-16.42781912663459
 10
48.6986009743239
 20
-16.31449635984698
 10
48.5564687401625
 20
-16.20301472726226
 10
48.4136347741178
 20
-16.09341559990462
 10
48.27009063280418
 20
-15.98574438281643
 10
48.12582636216324
 20
-15.88005119960372
 10
47.98083022470939
 20
-15.77639174761678
 10
47.83508835368929
 20
-15.674828382385
 10
47.68858430698262
 20
-15.57543151653943
 10
47.54129848012379
 20
-15.47828146063973
 10
47.39320731572636
 20
-15.38347090263702
 10
47.24428220871293
 20
-15.29110834152238
 10
47.09448793844221
 20
-15.20132300498483
 10
46.94378032780077
 20
-15.1142721918957
 10
46.79210255785492
 20
-15.03015283197642
 10
46.63937894525669
 20
-14.94922100419532
 10
46.48550336151859
 20
-14.87182826232898
 10
46.33031427807499
 20
-14.79849991220357
 10
46.17352533481176
 20
-14.73015280108125
 10
46.01431471464534
 20
-14.66938335011338
 42
-0.59900192823948
 10
46.64057222047602
 20
-12.53654615424723
 10
46.80736316280285
 20
-12.5714993987667
 10
46.97621365325982
 20
-12.59876865253008
 10
47.14641131711804
 20
-12.62098247186353
 10
47.31770137078193
 20
-12.63906697573161
 10
47.48993569895669
 20
-12.65355140845215
 10
47.66301351828618
 20
-12.66478889327392
 10
47.83686005091153
 20
-12.67303577504083
 10
48.01141662771583
 20
-12.6784884402115
 10
48.18663537066146
 20
-12.68130310096789
 10
48.36247604347387
 20
-12.68160751227619
 10
48.5389040512923
 20
-12.6795084143684
 10
48.71588910096161
 20
-12.67509651739551
 10
48.89340426564115
 20
-12.66844998187387
 10
49.0714253093803
 20
-12.65963693195947
 10
49.24993018568991
 20
-12.64871732139456
 10
49.42889865651021
 20
-12.63574435153564
 10
49.60831199686066
 20
-12.62076557061365
 10
49.78815276195
 20
-12.60382374061977
 10
49.96840460077581
 20
-12.58495753123395
 10
50.14907269442054
 20
-12.56411990112019
 42
0.008501742670708063
 10
50.54727163850568
 20
-10.8517247893189
 10
50.39431659398046
 20
-10.75339339164439
 10
50.24088304673095
 20
-10.65693197015835
 10
50.08696931961209
 20
-10.56237885812155
 10
49.932573024109
 20
-10.46977597205129
 10
49.77769094765712
 20
-10.37916938350129
 10
49.62231891474174
 20
-10.2906100240358
 10
49.46645161340477
 20
-10.20415456592759
 10
49.31008237527478
 20
-10.11986653894695
 10
49.15320289184062
 20
-10.03781777101725
 10
48.9958028411377
 20
-9.958090283953336
 10
48.83786938496313
 20
-9.880778846881435
 10
48.6793864726479
 20
-9.80599451230059
 10
48.52033384397467
 20
-9.733869680410095
 10
48.36068554050822
 20
-9.664565660577056
 10
48.20040756197233
 20
-9.598284575753217
 10
48.03945390914576
 20
-9.535289462967965
 10
47.87775921942522
 20
-9.475941682213247
 10
47.71522289748278
 20
-9.420781528101767
 10
47.55166496248737
 20
-9.370752514235734
 10
47.38656492388444
 20
-9.328527817694306
 42
-0.5990019282394817
 10
47.76561519852837
 20
-7.138205043085094
 10
47.93530332297468
 20
-7.153917718433552
 10
48.10616166193147
 20
-7.161761718516163
 10
48.27778211695848
 20
-7.164429670633002
 10
48.45001713481352
 20
-7.162870700201402
 10
48.62277989496244
 20
-7.157627485655952
 10
48.79601052399872
 20
-7.149062336931488
 10
48.96966395259549
 20
-7.137438451981951
 10
49.14370428042599
 20
-7.1229576249424
 10
49.31810174838118
 20
-7.105780507447446
 10
49.49283094542594
 20
-7.086038608312286
 10
49.66786966966747
 20
-7.063841915524793
 10
49.84319816558747
 20
-7.039284001122637
 10
50.01879859148897
 20
-7.012445585579766
 10
50.19465463496633
 20
-6.983397111691084
 10
50.37075122744682
 20
-6.952200655514853
 10
50.54707432728536
 20
-6.918911378592031
 10
50.72361075164567
 20
-6.883578653708525
 10
50.90034804394592
 20
-6.846246952677902
 10
51.07727436777516
 20
-6.80695655699471
 10
51.254389508136
 20
-6.765660141351924
 42
0.008501742670708063
 10
51.45479455303578
 20
-5.019035615024036
 10
51.29162757531311
 20
-4.938780728598415
 10
51.12819837509574
 20
-4.860438174561757
 10
50.96450965583312
 20
-4.784046227488613
 10
50.80056382270225
 20
-4.70964680294352
 10
50.63636293584026
 20
-4.637286038378377
 10
50.47190865271038
 20
-4.567015009344836
 10
50.30720215613155
 20
-4.498890624228365
 10
50.14224406304662
 20
-4.43297675883248
 10
49.97703430686777
 20
-4.369345719986029
 10
49.81157198269405
 20
-4.308080171479267
 10
49.64585513887165
 20
-4.24927572815301
 10
49.47988048838502
 20
-4.193044548275116
 10
49.31364299556368
 20
-4.139520478516084
 10
49.14713525905852
 20
-4.088866735824499
 10
48.98034654049639
 20
-4.041288001400639
 10
48.81326112445296
 20
-3.997050841245002
 10
48.64585526631065
 20
-3.956521710684778
 10
48.47809061539316
 20
-3.920248849552652
 10
48.30989591647787
 20
-3.889190137648162
 10
48.14105879092955
 20
-3.866060659026947
 42
-0.5990019282394787
 10
48.2679603343741
 20
-1.646806512708639
 10
48.43833349673316
 20
-1.643073780133466
 10
48.60897228444733
 20
-1.631390267998355
 10
48.7797781955522
 20
-1.614477572062666
 10
48.95071283074113
 20
-1.593295450895094
 10
49.1217517960791
 20
-1.568392942403699
 10
49.29287690865055
 20
-1.540136819945331
 10
49.46407339520829
 20
-1.508793703396107
 10
49.63532859223135
 20
-1.47456816387238
 10
49.80663124749476
 20
-1.437623198121652
 10
49.97797110647451
 20
-1.398092354389573
 10
50.14933864968143
 20
-1.356087434558341
 10
50.32072491677741
 20
-1.311703652697615
 10
50.49212138380302
 20
-1.265023236924226
 10
50.66351987455469
 20
-1.216118030342306
 10
50.83491249481806
 20
-1.165051422069823
 10
51.00629158241702
 20
-1.111879814717173
 10
51.17764966851798
 20
-1.056653761975451
 10
51.34897944713914
 20
-0.9994188657224889
 10
51.52027375076678
 20
-0.9402164941365996
  0
ENDSEC
  0
SECTION
  2
OBJECTS
  0
DICTIONARY
  5
C
330
0
100
AcDbDictionary
281
    1
  3
ACAD_GROUP
350
D
  0
DICTIONARY
  5
D
330
C
100
AcDbDictionary
281
    1
  0
ENDSEC
  0
EOF
