0
SECTION
2
HEADER
9
$HANDSEED
5
1CB
9
$INSUNITS
70
4
9
$ACADVER
1
AC1021
0
ENDSEC
0
SECTION
2
CLASSES
0
ENDSEC
0
SECTION
2
TABLES
0
TABLE
2
LTYPE
5
1C9
330
0
100
AcDbSymbolTable
70
5
0
LTYPE
5
D5
330
1C9
100
AcDbSymbolTableRecord
100
AcDbLinetypeTableRecord
2
CONTINUOUS
3
______
70
0
72
65
73
0
40
0
0
LTYPE
5
D6
330
1C9
100
AcDbSymbolTableRecord
100
AcDbLinetypeTableRecord
2
DASHED
3
_ _ _ 
70
0
72
65
73
2
40
10
49
5
74
0
49
-5
74
0
0
LTYPE
5
D7
330
1C9
100
AcDbSymbolTableRecord
100
AcDbLinetypeTableRecord
2
DOTTED
3
. . . 
70
0
72
65
73
2
40
5
49
0
74
0
49
-5
74
0
0
LTYPE
5
D9
330
1C9
100
AcDbSymbolTableRecord
100
AcDbLinetypeTableRecord
2
ByBlock
3

70
0
72
65
73
0
40
0
0
LTYPE
5
DA
330
1C9
100
AcDbSymbolTableRecord
100
AcDbLinetypeTableRecord
2
ByLayer
3

70
0
72
65
73
0
40
0
0
ENDTAB
0
TABLE
2
LAYER
5
1CA
330
0
100
AcDbSymbolTable
70
1
0
LAYER
5
D8
330
1CA
100
AcDbSymbolTableRecord
100
AcDbLayerTableRecord
2
0
62
7
70
0
6
CONTINUOUS
390
1
0
ENDTAB
0
TABLE
2
VPORT
5
DB
330
0
100
AcDbSymbolTable
70
1
0
VPORT
5
E1
330
DB
100
AcDbSymbolTableRecord
100
AcDbViewportTableRecord
2
*ACTIVE
40
1000
70
0
0
ENDTAB
0
TABLE
2
STYLE
5
DC
330
0
100
AcDbSymbolTable
70
1
0
STYLE
5
E2
330
DC
100
AcDbSymbolTableRecord
100
AcDbTextStyleTableRecord
2
standard
70
0
40
0
41
1
50
0
71
0
42
1
3
standard
4

0
ENDTAB
0
TABLE
2
VIEW
5
DD
330
0
100
AcDbSymbolTable
70
0
0
ENDTAB
0
TABLE
2
UCS
5
DE
330
0
100
AcDbSymbolTable
70
0
0
ENDTAB
0
TABLE
2
APPID
5
DF
330
0
100
AcDbSymbolTable
70
1
0
APPID
5
E3
330
DF
100
AcDbSymbolTableRecord
100
AcDbRegAppTableRecord
2
ACAD
70
0
0
ENDTAB
0
TABLE
2
DIMSTYLE
5
E0
330
0
100
AcDbSymbolTable
100
AcDbDimStyleTable
70
0
71
1
0
ENDTAB
0
TABLE
2
BLOCK_RECORD
5
1C6
330
0
100
AcDbSymbolTable
70
2
0
BLOCK_RECORD
5
1C7
330
1C6
100
AcDbSymbolTableRecord
100
AcDbBlockTableRecord
2
*Model_Space
70
0
280
0
281
1
0
BLOCK_RECORD
5
1C8
330
1C6
100
AcDbSymbolTableRecord
100
AcDbBlockTableRecord
2
*Paper_Space
70
0
280
0
281
1
0
ENDTAB
0
ENDSEC
0
SECTION
2
BLOCKS
0
BLOCK
5
E4
330
0
100
AcDbEntity
100
AcDbBlockBegin
2
*Model_Space
70
0
10
0
20
0
30
0
3
*Model_Space
1

0
ENDBLK
5
E5
330
0
100
AcDbEntity
100
AcDbBlockEnd
0
BLOCK
5
E6
330
0
100
AcDbEntity
100
AcDbBlockBegin
2
*Paper_Space
70
0
10
0
20
0
30
0
3
*Paper_Space
1

0
ENDBLK
5
E7
330
0
100
AcDbEntity
100
AcDbBlockEnd
0
ENDSEC
0
SECTION
2
ENTITIES
0
LWPOLYLINE
5
E9
330
E4
100
AcDbEntity
100
AcDbPolyline
8
0
6
ByLayer
62
256
370
-1
90
21
70
0
10
48.267960334374095
20
-1.646806512708639
10
48.438333496733165
20
-1.6430737801334658
10
48.60897228444733
20
-1.6313902679983552
10
48.7797781955522
20
-1.614477572062666
10
48.95071283074113
20
-1.5932954508950943
10
49.121751796079096
20
-1.5683929424036986
10
49.29287690865055
20
-1.5401368199453314
10
49.46407339520829
20
-1.5087937033961065
10
49.635328592231346
20
-1.4745681638723802
10
49.806631247494764
20
-1.437623198121652
10
49.97797110647451
20
-1.398092354389573
10
50.14933864968143
20
-1.3560874345583411
10
50.32072491677741
20
-1.3117036526976154
10
50.49212138380302
20
-1.2650232369242265
10
50.66351987455469
20
-1.2161180303423065
10
50.83491249481806
20
-1.165051422069823
10
51.00629158241702
20
-1.1118798147171727
10
51.17764966851798
20
-1.0566537619754512
10
51.34897944713914
20
-0.999418865722489
10
51.52027375076678
20
-0.9402164941365996
10
51.691525530600536
20
-0.8790843641384296
0
ARC
5
EA
330
E4
100
AcDbEntity
100
AcDbCircle
8
0
10
0
20
0
30
0
40
51.699
100
AcDbArc
50
-0.9742044758155589
51
0.9742044758155589
0
LWPOLYLINE
5
EB
330
E4
100
AcDbEntity
100
AcDbPolyline
8
0
6
ByLayer
62
256
370
-1
90
21
70
0
10
51.691525530600536
20
0.8790843641384296
10
51.52027375076678
20
0.9402164941365996
10
51.34897944713914
20
0.999418865722489
10
51.17764966851798
20
1.0566537619754512
10
51.00629158241702
20
1.1118798147171727
10
50.83491249481806
20
1.165051422069823
10
50.66351987455469
20
1.2161180303423065
10
50.49212138380302
20
1.2650232369242265
10
50.32072491677741
20
1.3117036526976154
10
50.14933864968143
20
1.3560874345583411
10
49.97797110647451
20
1.398092354389573
10
49.806631247494764
20
1.437623198121652
10
49.635328592231346
20
1.4745681638723802
10
49.46407339520829
20
1.5087937033961065
10
49.29287690865055
20
1.5401368199453314
10
49.121751796079096
20
1.5683929424036986
10
48.95071283074113
20
1.5932954508950943
10
48.7797781955522
20
1.614477572062666
10
48.60897228444733
20
1.6313902679983552
10
48.438333496733165
20
1.6430737801334658
10
48.267960334374095
20
1.646806512708639
0
ARC
5
EC
330
E4
100
AcDbEntity
100
AcDbCircle
8
0
10
48.79840515201724
20
2.7903937643630705
30
0
40
1.2606202864903464
100
AcDbArc
50
121.4293472681436
51
-114.88389272268884
0
LWPOLYLINE
5
ED
330
E4
100
AcDbEntity
100
AcDbPolyline
8
0
6
ByLayer
62
256
370
-1
90
21
70
0
10
48.14105879092954
20
3.86606065902692
10
48.30989591647787
20
3.889190137648116
10
48.47809061539316
20
3.9202488495526224
10
48.64585526631065
20
3.956521710684715
10
48.81326112445296
20
3.9970508412449486
10
48.98034654049639
20
4.041288001400607
10
49.14713525905853
20
4.088866735824464
10
49.31364299556368
20
4.139520478516044
10
49.47988048838503
20
4.193044548275056
10
49.64585513887166
20
4.249275728152952
10
49.811571982694055
20
4.308080171479238
10
49.97703430686778
20
4.369345719985983
10
50.14224406304662
20
4.432976758832455
10
50.30720215613155
20
4.4988906242283
10
50.47190865271038
20
4.567015009344779
10
50.63636293584026
20
4.637286038378346
10
50.80056382270225
20
4.709646802943489
10
50.964509655833126
20
4.784046227488578
10
51.12819837509574
20
4.860438174561726
10
51.291627575313115
20
4.938780728598357
10
51.454794553035775
20
5.019035615024007
0
ARC
5
EE
330
E4
100
AcDbEntity
100
AcDbCircle
8
0
10
0
20
0
30
0
40
51.699
100
AcDbArc
50
5.571250069638986
51
7.519659021270104
0
LWPOLYLINE
5
EF
330
E4
100
AcDbEntity
100
AcDbPolyline
8
0
6
ByLayer
62
256
370
-1
90
21
70
0
10
51.25437842087404
20
6.765744134228053
10
51.07727436777517
20
6.806956556994675
10
50.900348043945925
20
6.846246952677841
10
50.72361075164567
20
6.8835786537084696
10
50.547074327285365
20
6.91891137859197
10
50.37075122744683
20
6.952200655514793
10
50.19465463496633
20
6.983397111691049
10
50.018798591488974
20
7.0124455855797425
10
49.84319816558747
20
7.039284001122573
10
49.667869669667475
20
7.06384191552475
10
49.49283094542594
20
7.086038608312224
10
49.31810174838119
20
7.105780507447414
10
49.14370428042599
20
7.12295762494237
10
48.969663952595496
20
7.137438451981904
10
48.79601052399873
20
7.149062336931435
10
48.622779894962456
20
7.1576274856558975
10
48.45001713481353
20
7.162870700201367
10
48.27778211695849
20
7.164429670632978
10
48.10616166193148
20
7.161761718516106
10
47.93530332297468
20
7.153917718433512
10
47.76561519852838
20
7.138205043085065
0
ARC
5
F0
330
E4
100
AcDbEntity
100
AcDbCircle
8
0
10
48.1622433133182
20
8.334804243013462
30
0
40
1.2606202864903464
100
AcDbArc
50
127.97480181359816
51
-108.3384381772343
0
LWPOLYLINE
5
F1
330
E4
100
AcDbEntity
100
AcDbPolyline
8
0
6
ByLayer
62
256
370
-1
90
21
70
0
10
47.38656492388443
20
9.328527817694287
10
47.55166496248738
20
9.3707525142357
10
47.71522289748278
20
9.420781528101749
10
47.87775921942523
20
9.475941682213197
10
48.03945390914576
20
9.535289462967922
10
48.200407561972334
20
9.598284575753196
10
48.36068554050822
20
9.664565660577033
10
48.520333843974676
20
9.733869680410066
10
48.67938647264791
20
9.805994512300542
10
48.83786938496314
20
9.88077884688139
10
48.99580284113771
20
9.95809028395332
10
49.15320289184063
20
10.03781777101721
10
49.31008237527478
20
10.119866538946932
10
49.46645161340478
20
10.204154565927535
10
49.62231891474175
20
10.29061002403576
10
49.77769094765713
20
10.379169383501269
10
49.93257302410901
20
10.46977597205127
10
50.086969319612095
20
10.562378858121527
10
50.24088304673095
20
10.656931970158336
10
50.39431659398046
20
10.753393391644346
10
50.54727163850569
20
10.851724789318887
0
ARC
5
F2
330
E4
100
AcDbEntity
100
AcDbCircle
8
0
10
0
20
0
30
0
40
51.699
100
AcDbArc
50
12.116704615093532
51
14.06511356672465
0
LWPOLYLINE
5
F3
330
E4
100
AcDbEntity
100
AcDbPolyline
8
0
6
ByLayer
62
256
370
-1
90
21
70
0
10
50.14905210496192
20
12.564202082655894
10
49.96840460077581
20
12.584957531233925
10
49.788152761950016
20
12.603823740619722
10
49.60831199686067
20
12.620765570613601
10
49.42889865651021
20
12.635744351535593
10
49.24993018568992
20
12.648717321394509
10
49.0714253093803
20
12.65963693195945
10
48.89340426564115
20
12.66844998187386
10
48.71588910096163
20
12.675096517395463
10
48.538904051292306
20
12.67950841436837
10
48.36247604347388
20
12.681607512276134
10
48.18663537066146
20
12.681303100967865
10
48.01141662771583
20
12.678488440211488
10
47.83686005091154
20
12.673035775040795
10
47.66301351828619
20
12.664788893273876
10
47.48993569895669
20
12.653551408452103
10
47.31770137078193
20
12.639066975731584
10
47.146411317118044
20
12.62098247186352
10
46.97621365325983
20
12.598768652530039
10
46.80736316280286
20
12.571499398766669
10
46.640572220476024
20
12.536546154247207
0
ARC
5
F4
330
E4
100
AcDbEntity
100
AcDbCircle
8
0
10
46.89821297837171
20
13.770557801915878
30
0
40
1.2606202864903464
100
AcDbArc
50
134.5202563590527
51
-101.79298363177976
0
LWPOLYLINE
5
F5
330
E4
100
AcDbEntity
100
AcDbPolyline
8
0
6
ByLayer
62
256
370
-1
90
21
70
0
10
46.014314714645344
20
14.66938335011337
10
46.17352533481176
20
14.730152801081232
10
46.330314278074994
20
14.79849991220356
10
46.4855033615186
20
14.87182826232894
10
46.639378945256695
20
14.949221004195289
10
46.792102557854925
20
15.030152831976409
10
46.94378032780077
20
15.114272191895692
10
47.09448793844222
20
15.201323004984816
10
47.244282208712946
20
15.29110834152235
10
47.39320731572638
20
15.38347090263699
10
47.541298480123785
20
15.478281460639725
10
47.68858430698263
20
15.575431516539405
10
47.83508835368929
20
15.674828382384996
10
47.9808302247094
20
15.776391747616739
10
48.12582636216325
20
15.880051199603686
10
48.27009063280418
20
15.98574438281642
10
48.413634774117796
20
16.093415599904613
10
48.5564687401625
20
16.203014727262246
10
48.698600974323895
20
16.31449635984697
10
48.84003862767079
20
16.427819126634557
10
48.9807877360786
20
16.54294513541081
0
ARC
5
F6
330
E4
100
AcDbEntity
100
AcDbCircle
8
0
10
0
20
0
30
0
40
51.699
100
AcDbArc
50
18.66215916054808
51
20.610568112179195
0
LWPOLYLINE
5
F7
330
E4
100
AcDbEntity
100
AcDbPolyline
8
0
6
ByLayer
62
256
370
-1
90
21
70
0
10
48.389956201770815
20
18.19886644246564
10
48.2081202629793
20
18.198894337841498
10
48.0268927675357
20
18.197090411038435
10
47.8462930290612
20
18.193421507332403
10
47.66634169998941
20
18.187851072976468
10
47.4870609859015
20
18.18033861326977
10
47.3084749098135
20
18.170839024400287
10
47.13060964236578
20
18.159301758756957
10
46.953493920554294
20
18.145669766502245
10
46.77715958792183
20
18.12987813022172
10
46.60164230542029
20
18.11185226829839
10
46.42698250892396
20
18.0915055150136
10
46.25322673526473
20
18.068735769413315
10
46.08042952141517
20
18.043420695861677
10
45.908656240178026
20
18.015410558094118
10
45.73798756461867
20
17.98451693752628
10
45.5685270062843
20
17.950493684271365
10
45.40041494461544
20
17.91300146526823
10
45.23385885875818
20
17.87153136982481
10
45.06921744116769
20
17.825192358806415
10
44.90749805596743
20
17.771454214112357
0
ARC
5
F8
330
E4
100
AcDbEntity
100
AcDbCircle
8
0
10
45.02279271567905
20
19.026791080516343
30
0
40
1.2606202864903464
100
AcDbArc
50
141.06571090450726
51
-95.24752908632522
0
LWPOLYLINE
5
F9
330
E4
100
AcDbEntity
100
AcDbPolyline
8
0
6
ByLayer
62
256
370
-1
90
21
70
0
10
44.04219754327594
20
19.819001036633228
10
44.19344319109069
20
19.89752301929928
10
44.341419158968534
20
19.983297218560974
10
44.4872378768795
20
20.073837817515138
10
44.63128835107875
20
20.168266587745936
10
44.773790937597745
20
20.266080060378503
10
44.91489114726106
20
20.3669410708927
10
45.054693360895214
20
20.47060383676224
10
45.193276475369636
20
20.576879188776086
10
45.33070231055975
20
20.685615889190057
10
45.46702058837583
20
20.79668956750597
10
45.602272095392856
20
20.909995692690927
10
45.736490801074126
20
21.025444866298173
10
45.86970533681214
20
21.142959535994112
10
46.00194006398816
20
21.26247162237643
10
46.13321586696306
20
21.383920757056323
10
46.26355075573392
20
21.507252943706053
10
46.39296033313646
20
21.6324195201157
10
46.52145816330486
20
21.759376339678408
10
46.64905606663674
20
21.88808311619766
10
46.77576435905101
20
22.018502892488687
0
ARC
5
FA
330
E4
100
AcDbEntity
100
AcDbCircle
8
0
10
0
20
0
30
0
40
51.699
100
AcDbArc
50
25.207613706002622
51
27.156022657633738
0
LWPOLYLINE
5
FB
330
E4
100
AcDbEntity
100
AcDbPolyline
8
0
6
ByLayer
62
256
370
-1
90
21
70
0
10
46.000023216589305
20
23.596280746618625
10
45.81936935273676
20
23.575580725133428
10
45.6395287782302
20
23.55313017908613
10
45.46052446015326
20
23.528898371450865
10
45.28238108313467
20
23.502851340947714
10
45.1051253240618
20
23.474951388076505
10
44.92878619080942
20
23.445156441441263
10
44.7533954454242
20
23.413419266141826
10
44.57898814077813
20
23.379686459977286
10
44.405603312877
20
23.343897158572428
10
44.23328489188884
20
23.305981331495182
10
44.062082929263674
20
23.265857487279288
10
43.8920552971257
20
23.223429495290837
10
43.72327012217268
20
23.178582034056408
10
43.55580941973804
20
23.131173795269994
10
43.389774815138836
20
23.081026784545898
10
43.22529720417926
20
23.027908255894626
10
43.062554732323555
20
22.97149709016809
10
42.90181153776112
20
22.91131134472917
10
42.74352554570199
20
22.846506676330765
10
42.58898597713231
20
22.774684190360087
0
ARC
5
FC
330
E4
100
AcDbEntity
100
AcDbCircle
8
0
10
42.560431496450065
20
24.034981039655513
30
0
40
1.2606202864903464
100
AcDbArc
50
147.6111654499618
51
-88.70207454087067
0
LWPOLYLINE
5
FD
330
E4
100
AcDbEntity
100
AcDbPolyline
8
0
6
ByLayer
62
256
370
-1
90
21
70
0
10
41.495922973069526
20
24.710247735384826
10
41.63723193021294
20
24.80549859562111
10
41.774465829664024
20
24.907581685160075
10
41.909013212053395
20
25.014154197771646
10
42.041360658485814
20
25.12438797293674
10
42.17178447978068
20
25.23780794221857
10
42.30046767214354
20
25.35409572580859
10
42.42754195311574
20
25.473019041773668
10
42.55310726896112
20
25.59439894752312
10
42.677242276400484
20
25.71809223805518
10
42.800010550411976
20
25.843981021422124
10
42.92146452735268
20
25.97196609727119
10
43.04164814591897
20
26.10196252210536
10
43.160598691176155
20
26.233896512830476
10
43.27834812617865
20
26.367703210791998
10
43.394924080635285
20
26.503325021735982
10
43.510350602266726
20
26.640710354282007
10
43.624648739279216
20
26.779812642002547
10
43.73783699972627
20
26.920589572244808
10
43.849931719237375
20
27.063002468832156
10
43.96094735929113
20
27.20701579140266
0
ARC
5
FE
330
E4
100
AcDbEntity
100
AcDbCircle
8
0
10
0
20
0
30
0
40
51.699
100
AcDbArc
50
31.75306825145717
51
33.70147720308829
0
LWPOLYLINE
5
FF
330
E4
100
AcDbEntity
100
AcDbPolyline
8
0
6
ByLayer
62
256
370
-1
90
21
70
0
10
43.01040958081066
20
28.68608144537887
10
42.83329289128688
20
28.644923363469278
10
42.65718373463677
20
28.602118875379166
10
42.48210843199534
20
28.557640062484964
10
42.30809537838459
20
28.511455998711003
10
42.13517537422401
20
28.463532271228438
10
41.963382034085136
20
28.413830389522325
10
41.79275229735408
20
28.362307047182565
10
41.623327075811105
20
28.308913185824228
10
41.45515208903092
20
28.253592787571538
10
41.288278963700776
20
28.196281286131107
10
41.12276671434925
20
28.136903426654975
10
40.9586837939412
20
28.07537030203918
10
40.79611103076388
20
28.0115751083645
10
40.63514601348612
20
27.94538680745337
10
40.475909994835234
20
27.87664014954777
10
40.31855954844539
20
27.80511882675544
10
40.163308263406016
20
27.730524120120503
10
40.010473493504556
20
27.652407337920113
10
39.860606426950504
20
27.56998184010024
10
39.71526133462553
20
27.48101132879591
0
ARC
5
100
330
E4
100
AcDbEntity
100
AcDbCircle
8
0
10
39.54322996487356
20
28.729838264176575
30
0
40
1.2606202864903464
100
AcDbArc
50
154.15661999541632
51
-82.15661999541611
0
LWPOLYLINE
5
101
330
E4
100
AcDbEntity
100
AcDbPolyline
8
0
6
ByLayer
62
256
370
-1
90
21
70
0
10
38.40868558707383
20
29.27935856545217
10
38.538215675185334
20
29.390096562628095
10
38.66291845245813
20
29.507157733256207
10
38.784440468432756
20
29.62837282384166
10
38.90335953573475
20
29.752974538100943
10
39.02000431783739
20
29.880522401278945
10
39.13459291069176
20
30.010720968846456
10
39.24728265141447
20
30.143354487613692
10
39.35819323271137
20
30.278256574400668
10
39.46741912273799
20
30.415293923844217
10
39.57503692074327
20
30.55435665944892
10
39.68111002927832
20
30.69535220477045
10
39.78569178346445
20
30.838201178629927
10
39.88882763597197
20
30.982834529048095
10
39.99055673484113
20
31.129191463649914
10
40.09091309493321
20
31.2772179131455
10
40.189926488193656
20
31.426865363674295
10
40.28762313380367
20
31.578089951655766
10
40.38402624245531
20
31.730851750001307
10
40.47915645205002
20
31.88511419675727
10
40.573032181098625
20
32.04084363170756
0
ARC
5
102
330
E4
100
AcDbEntity
100
AcDbCircle
8
0
10
0
20
0
30
0
40
51.699
100
AcDbArc
50
38.29852279691171
51
40.246931748542835
0
LWPOLYLINE
5
103
330
E4
100
AcDbEntity
100
AcDbPolyline
8
0
6
ByLayer
62
256
370
-1
90
21
70
0
10
39.46008948020207
20
33.40191520279107
10
39.28881895192005
20
33.34083561899795
10
39.11873706530757
20
33.27823521082829
10
38.94987315241476
20
33.214089242022816
10
38.78225894848432
20
33.14837022487876
10
38.615928975937344
20
33.08104748186247
10
38.45092101782474
20
33.01208660512276
10
38.28727670931068
20
32.94144878130488
10
38.12504228773609
20
32.86908993539093
10
37.96426956022002
20
32.79495962628328
10
37.80501717693614
20
32.718999593547586
10
37.64735234614691
20
32.64114180001622
10
37.49135320926878
20
32.56130572115523
10
37.33711224245819
20
32.47939446295203
10
37.18474133550179
20
32.39528896564052
10
37.03437978782243
20
32.308838878373685
10
36.88620780970752
20
32.21984715126065
10
36.7404716494112
20
32.1280413597962
10
36.597537739127034
20
32.03301191255454
10
36.45804334448273
20
31.934040127730828
10
36.32378752395758
20
31.829081457770563
0
ARC
5
104
330
E4
100
AcDbEntity
100
AcDbCircle
8
0
10
36.01052195712869
20
33.05015811029913
30
0
40
1.2606202864903464
100
AcDbArc
50
160.70207454087085
51
-75.61116544996158
0
LWPOLYLINE
5
105
330
E4
100
AcDbEntity
100
AcDbPolyline
8
0
6
ByLayer
62
256
370
-1
90
21
70
0
10
34.82073224593639
20
33.466768179610895
10
34.93679484222672
20
33.59154967458133
10
35.04734080591114
20
33.722062854917475
10
35.15425323014882
20
33.85634029939643
10
35.25819362641485
20
33.99368557885077
10
35.35953872620534
20
34.1336985544691
10
35.4585388820027
20
34.27611056857281
10
35.555374999368865
20
34.42072520938825
10
35.650184957074195
20
34.567390822205326
10
35.7430778031721
20
34.71598573913875
10
35.834142162593956
20
34.86640953155357
10
35.923451577535694
20
35.018577453789405
10
36.01106808423866
20
35.17241672184058
10
36.097044710433124
20
35.32786391504089
10
36.18142727879058
20
35.48486309981639
10
36.264255745889024
20
35.64336443671712
10
36.34556521977587
20
35.80332312185476
10
36.425386748800115
20
35.96469856632463
10
36.50374794370552
20
36.12745374911295
10
36.580673475618866
20
36.29155469913007
10
36.65618547996974
20
36.45697007511808
0
ARC
5
106
330
E4
100
AcDbEntity
100
AcDbCircle
8
0
10
0
20
0
30
0
40
51.699
100
AcDbArc
50
44.84397734236626
51
46.79238629399738
0
LWPOLYLINE
5
107
330
E4
100
AcDbEntity
100
AcDbPolyline
8
0
6
ByLayer
62
256
370
-1
90
21
70
0
10
35.39534676678979
20
37.682303913889115
10
35.23215517301021
20
37.6020990939964
10
35.07031783393407
20
37.52051885780268
10
34.90986671013851
20
37.43754197388791
10
34.750836463369495
20
37.35314475126653
10
34.59326488799717
20
37.267300647628595
10
34.43719344299199
20
37.17997978634565
10
34.28266791651813
20
37.09114835310973
10
34.12973926870272
20
37.00076783085527
10
33.97846471882414
20
36.908794012839564
10
33.82890917594775
20
36.81517570400122
10
33.68114716590743
20
36.71985297182145
10
33.53526549987838
20
36.622754724096765
10
33.39136709631804
20
36.523795239882844
10
33.24957668747645
20
36.4228689899512
10
33.11004980349098
20
36.31984248241901
10
32.97298794198556
20
36.21454049424351
10
32.83866680015648
20
36.106720446840136
10
32.70749711159941
20
35.996017188730825
10
32.58019391162823
20
35.881789365476294
10
32.458777592841265
20
35.762210833636615
0
ARC
5
108
330
E4
100
AcDbEntity
100
AcDbCircle
8
0
10
32.008361724676995
20
36.93961860175131
30
0
40
1.2606202864903464
100
AcDbArc
50
167.24752908632544
51
-69.06571090450701
0
LWPOLYLINE
5
109
330
E4
100
AcDbEntity
100
AcDbPolyline
8
0
6
ByLayer
62
256
370
-1
90
21
70
0
10
30.77883740852638
20
37.21788728972277
10
30.879919459558025
20
37.35508556487208
10
30.974867473959183
20
37.49734931601638
10
31.065776539508498
20
37.642938602549165
10
31.153383242716878
20
37.79123694143835
10
31.238107471832116
20
37.94188974623758
10
31.32022857214041
20
38.09465864848254
10
31.399948659268397
20
38.24936913834357
10
31.477422000590334
20
38.405886266631526
10
31.552770802449338
20
38.56410158906596
10
31.626094560097716
20
38.72392543411323
10
31.697475996641217
20
38.88528199168617
10
31.76698504070398
20
39.04810602380316
10
31.834681603778645
20
39.2123405678964
10
31.900617585799353
20
39.377935278372725
10
31.964838364165722
20
39.544845195355556
10
32.027383925340025
20
39.713029809015985
10
32.08828974207637
20
39.88245233426365
10
32.147587465221946
20
40.05307913878514
10
32.205305477503
20
40.22487928521987
10
32.26146934269872
20
40.397824159849385
0
ARC
5
10A
330
E4
100
AcDbEntity
100
AcDbCircle
8
0
10
0
20
0
30
0
40
51.699
100
AcDbArc
50
51.389431887820805
51
53.337840839451914
0
LWPOLYLINE
5
10B
330
E4
100
AcDbEntity
100
AcDbPolyline
8
0
6
ByLayer
62
256
370
-1
90
21
70
0
10
30.869171578065956
20
41.471446165812985
10
30.716186370783117
20
41.373161702305424
10
30.564703376456478
20
41.27366516122732
10
30.414756767535213
20
41.17293909278189
10
30.266383680399684
20
41.07096391154895
10
30.119624688661663
20
40.96771755646193
10
29.97452438673006
20
40.86317507160263
10
29.83113211885032
20
40.75730808253108
10
29.68950290359259
20
40.65008413226287
10
29.54969862645377
20
40.54146582471279
10
29.41178960920199
20
40.43140969759825
10
29.27585672368434
20
40.31986470436137
10
29.141994319118293
20
40.20677011192471
10
29.010314414562867
20
40.09205248991583
10
28.88095295865582
20
39.9756212153787
10
28.754079684675844
20
39.85736139566559
10
28.629914750753738
20
39.73712191888211
10
28.50875970889336
20
39.61469321474725
10
28.39106423955191
20
39.489759332038545
10
28.277611826150636
20
39.361764604718246
10
28.17061785649957
20
39.22912510003349
0
ARC
5
10C
330
E4
100
AcDbEntity
100
AcDbCircle
8
0
10
27.588923546663747
20
40.347514672863824
30
0
40
1.2606202864903464
100
AcDbArc
50
173.79298363177995
51
-62.52025635905248
0
LWPOLYLINE
5
10D
330
E4
100
AcDbEntity
100
AcDbPolyline
8
0
6
ByLayer
62
256
370
-1
90
21
70
0
10
26.335693355330925
20
40.48381432159017
10
26.420477101983618
20
40.63164078758405
10
26.498589374529523
20
40.78380048397598
10
26.57230994269354
20
40.938803633562536
10
26.64244086549077
20
41.09612173624605
10
26.709439714035206
20
41.25545038052185
10
26.77361118472389
20
41.41658459463737
10
26.83517596836183
20
41.57937404570944
10
26.894302709816035
20
41.74370224933896
10
26.951125180572763
20
41.909475398587325
10
27.005752449132487
20
42.07661574802777
10
27.058275341088574
20
42.24505741144681
10
27.10877076582138
20
42.4147435473637
10
27.157304737548017
20
42.58562439390326
10
27.203934556870248
20
42.757655849784875
10
27.248710430445524
20
42.93079842082611
10
27.29167670186627
20
43.10501641936505
10
27.33287280585012
20
43.28027734367554
10
27.37233402073048
20
43.4565513885932
10
27.41009207082083
20
43.633811053802305
10
27.446175614986988
20
43.812030826147435
0
ARC
5
10E
330
E4
100
AcDbEntity
100
AcDbCircle
8
0
10
0
20
0
30
0
40
51.699
100
AcDbArc
50
57.93488643327535
51
59.88329538490647
0
LWPOLYLINE
5
10F
330
E4
100
AcDbEntity
100
AcDbPolyline
8
0
6
ByLayer
62
256
370
-1
90
21
70
0
10
25.940569529508437
20
44.71994469456261
10
25.799785104859982
20
44.60486187572875
10
25.66063126777728
20
44.48874611933957
10
25.523143957091378
20
44.37158398470631
10
25.38736229968753
20
44.25336024730015
10
25.253329119480068
20
44.13405761489755
10
25.121091564960036
20
44.013656377629154
10
24.99070189317644
20
43.89213397082721
10
24.86221846389125
20
43.769464420714904
10
24.73570702204778
20
43.64561762937964
10
24.611242385365152
20
43.52055843391499
10
24.488910717415436
20
43.39424533919394
10
24.36881267547207
20
43.26662876301361
10
24.251067918855906
20
43.13764852285064
10
24.135821840293996
20
43.00723008343031
10
24.02325616347352
20
42.875278649141315
10
23.913606836934203
20
42.74166918921231
10
23.807197336295932
20
42.60622787373492
10
23.70451042660498
20
42.468692070649695
10
23.606387825485406
20
42.32859904627696
10
23.51521103499084
20
42.18462772753667
0
ARC
5
110
330
E4
100
AcDbEntity
100
AcDbCircle
8
0
10
22.809821558398944
20
43.229419186644385
30
0
40
1.2606202864903464
100
AcDbArc
50
180.3384381772345
51
-55.97480181359793
0
LWPOLYLINE
5
111
330
E4
100
AcDbEntity
100
AcDbPolyline
8
0
6
ByLayer
62
256
370
-1
90
21
70
0
10
21.549223263996524
20
43.221972921761
10
21.616603420472615
20
43.378500434543795
10
21.676861638233316
20
43.53857244184262
10
21.732432648664936
20
43.7009687513813
10
21.78417352722092
20
43.86525573580364
10
21.832573562742258
20
44.03118312701612
10
21.87795883055329
20
44.198582022098186
10
21.920565719595256
20
44.3673282249322
10
21.96057505368417
20
44.53732523446136
10
21.99813042553354
20
44.70849510400584
10
22.033349055017293
20
44.8807730277763
10
22.06632868616591
20
45.054103902360445
10
22.097152206484576
20
45.228440023794064
10
22.12589087231858
20
45.40373947961672
10
22.152606637936348
20
45.579964987788
10
22.1773538847326
20
45.75708303468669
10
22.200180735343373
20
45.935063220061096
10
22.221130072357976
20
46.11387774925899
10
22.24024034168901
20
46.29350103282089
10
22.257546195662236
20
46.47390936598466
10
22.27307901461797
20
46.655080668760874
0
ARC
5
112
330
E4
100
AcDbEntity
100
AcDbCircle
8
0
10
0
20
0
30
0
40
51.699
100
AcDbArc
50
64.4803409787299
51
66.42874993036102
0
LWPOLYLINE
5
113
330
E4
100
AcDbEntity
100
AcDbPolyline
8
0
6
ByLayer
62
256
370
-1
90
21
70
0
10
20.67379248614556
20
47.385450353877516
10
20.547044184408826
20
47.255069460257346
10
20.42203358764481
20
47.12384823501777
10
20.298797932548798
20
46.99177742179804
10
20.17737782643218
20
46.858846355435645
10
20.057817785236608
20
46.725042737980694
10
19.94016689688259
20
46.590352362560964
10
19.82447964997214
20
46.454758768445856
10
19.710816984650297
20
46.31824280367406
10
19.599247648220928
20
46.18078206087794
10
19.489849978990737
20
46.04235013492946
10
19.38271430898286
20
45.90291562308489
10
19.277946291305216
20
45.76244074039579
10
19.17567166559818
20
45.620879336759124
10
19.076043373261623
20
45.478173936262735
10
18.979252759345016
20
45.33425107613753
10
18.885548486846954
20
45.18901343670251
10
18.795271738003972
20
45.04232519456064
10
18.708932068870737
20
44.893980460626
10
18.627418458197628
20
44.7436154660182
10
18.553247475760582
20
44.5901892195379
0
ARC
5
114
330
E4
100
AcDbEntity
100
AcDbCircle
8
0
10
17.733358662994174
20
45.54776211045092
30
0
40
1.2606202864903464
100
AcDbArc
50
186.88389272268904
51
-49.42934726814338
0
LWPOLYLINE
5
115
330
E4
100
AcDbEntity
100
AcDbPolyline
8
0
6
ByLayer
62
256
370
-1
90
21
70
0
10
16.481826092126312
20
45.39666700540817
10
16.530924255041462
20
45.55985498947276
10
16.572542859995377
20
45.725752524264756
10
16.60923985958872
20
45.8934249095076
10
16.641916172424004
20
46.062539043582255
10
16.671086426440908
20
46.232902064433716
10
16.697093825000547
20
46.40438333988131
10
16.720187373489036
20
46.576886429659275
10
16.740557717356435
20
46.75033607409195
10
16.758356398592845
20
46.92467120291246
10
16.77370726030535
20
47.09984079481143
10
16.786713690718628
20
47.27580124753507
10
16.797463474897302
20
47.4525146165298
10
16.806032182379397
20
47.629947385142934
10
16.812485613431384
20
47.8080695766027
10
16.816881615240582
20
47.98685409475036
10
16.81927146213451
20
48.166276223058276
10
16.819700925533994
20
48.346313236293895
10
16.81821111772958
20
48.52694409430041
10
16.81483916731325
20
48.708149196897054
10
16.809618767009066
20
48.889910185106864
0
ARC
5
116
330
E4
100
AcDbEntity
100
AcDbCircle
8
0
10
0
20
0
30
0
40
51.699
100
AcDbArc
50
71.02579552418445
51
72.97420447581555
0
LWPOLYLINE
5
117
330
E4
100
AcDbEntity
100
AcDbPolyline
8
0
6
ByLayer
62
256
370
-1
90
21
70
0
10
15.137500941235011
20
49.433214201123
10
15.026441120359653
20
49.28923494705674
10
14.917203468222205
20
49.14461892231478
10
14.809826033944912
20
48.999361175535164
10
14.704350375886873
20
48.85345573995842
10
14.600822121683697
20
48.70689547223092
10
14.499291658749227
20
48.55967185368582
10
14.399814996896248
20
48.41177474212052
10
14.302454862204865
20
48.2631920570643
10
14.207282108113258
20
48.113909373808774
10
14.114377572256089
20
47.963909389235546
10
14.023834577491497
20
47.81317120236696
10
13.935762395412011
20
47.6616693180936
10
13.8502912067691
20
47.5093722203699
10
13.767579507810343
20
47.35624024193271
10
13.687825770472172
20
47.20222221055466
10
13.611288130509596
20
47.04724978635601
10
13.53832102894356
20
46.89122692311673
10
13.469454169994702
20
46.73400715880354
10
13.405612204342184
20
46.575330431619015
10
13.349413962148622
20
46.414449403156794
0
ARC
5
118
330
E4
100
AcDbEntity
100
AcDbCircle
8
0
10
12.425714317740454
20
47.27232029882306
30
0
40
1.2606202864903464
100
AcDbArc
50
193.4293472681436
51
-42.88389272268884
0
LWPOLYLINE
5
119
330
E4
100
AcDbEntity
100
AcDbPolyline
8
0
6
ByLayer
62
256
370
-1
90
21
70
0
10
11.1995631114408
20
46.97954610938535
10
11.22973921115545
20
47.14726715979562
10
11.252175641139544
20
47.316827494007185
10
11.269520228384083
20
47.48759008899067
10
11.28270598978889
20
47.659326711353245
10
11.292266183430089
20
47.83190441933023
10
11.29855666652492
20
48.00523255447109
10
11.301835814738359
20
48.17924368960826
10
11.302301609799484
20
48.35388478757223
10
11.30011156739346
20
48.52911245065337
10
11.295394539376183
20
48.7048901071631
10
11.288258210342908
20
48.881186224428156
10
11.278794118505143
20
49.05797311197087
10
11.267081161429157
20
49.23522608588717
10
11.253188127572344
20
49.41292286546695
10
11.23717557578809
20
49.591043125253854
10
11.219097263656105
20
49.76956815466199
10
11.199001254728284
20
49.9484805941367
10
11.176930791711513
20
50.12776422711441
10
11.15292499543604
20
50.3074038135141
10
11.127019431773505
20
50.48738495470859
0
ARC
5
11A
330
E4
100
AcDbEntity
100
AcDbCircle
8
0
10
0
20
0
30
0
40
51.699
100
AcDbArc
50
77.57125006963898
51
79.5196590212701
0
LWPOLYLINE
5
11B
330
E4
100
AcDbEntity
100
AcDbPolyline
8
0
6
ByLayer
62
256
370
-1
90
21
70
0
10
9.403868921731354
20
50.83654050289904
10
9.30994541632662
20
50.68083987815133
10
9.217904788668804
20
50.5247143449512
10
9.127785404278658
20
50.36816332148407
10
9.039629230786213
20
50.21118561717933
10
8.95348241269503
20
50.05377933640413
10
8.869395980035295
20
49.89594175975092
10
8.787426733656982
20
49.737669195764155
10
8.707638367844897
20
49.57895679295116
10
8.630102918488609
20
49.419798297310905
10
8.55490266870854
20
49.26018573330725
10
8.482132715591652
20
49.10010897420482
10
8.411904524692794
20
48.939555147100975
10
8.344351020769283
20
48.77850778086746
10
8.279634188675494
20
48.61694553401357
10
8.217957039849585
20
48.45484019196192
10
8.159583817608638
20
48.29215328554885
10
8.104877601077266
20
48.1288297978407
10
8.05438133713747
20
47.96478460321343
10
8.009043294161524
20
47.7998647372558
10
7.971550422242576
20
47.63362625705348
0
ARC
5
11C
330
E4
100
AcDbEntity
100
AcDbCircle
8
0
10
6.956081783674049
20
48.38061149840354
30
0
40
1.2606202864903464
100
AcDbArc
50
199.97480181359816
51
-36.338438177234295
0
LWPOLYLINE
5
11D
330
E4
100
AcDbEntity
100
AcDbPolyline
8
0
6
ByLayer
62
256
370
-1
90
21
70
0
10
5.771296698073314
20
47.949974983870625
10
5.782157342979291
20
48.12004260023816
10
5.7851191048166255
20
48.29105525560375
10
5.7828851664925
20
48.46268190875454
10
5.776408479901889
20
48.634802169895224
10
5.766233981422841
20
48.80734475065066
10
5.752725542985671
20
48.980260148172
10
5.736147542212283
20
49.15351082740614
10
5.7167027161161945
20
49.32706666511029
10
5.694552500619715
20
49.50090250188763
10
5.669829076546622
20
49.67499669243824
10
5.642643021029356
20
49.84933018474599
10
5.61308843208572
20
50.02388590339687
10
5.581246506759795
20
50.19864831902785
10
5.547188124937166
20
50.37360313745363
10
5.510975767660006
20
50.54873706889363
10
5.472664974947966
20
50.7240376526248
10
5.432305475902097
20
50.89949312107872
10
5.389942079910823
20
51.075092292692794
10
5.345615390042787
20
51.25082448616347
10
5.2993623816616715
20
51.426679450921476
0
ARC
5
11E
330
E4
100
AcDbEntity
100
AcDbCircle
8
0
10
0
20
0
30
0
40
51.699
100
AcDbArc
50
84.11670461509354
51
86.06511356672465
0
LWPOLYLINE
5
11F
330
E4
100
AcDbEntity
100
AcDbPolyline
8
0
6
ByLayer
62
256
370
-1
90
21
70
0
10
3.5476430894689432
20
51.57713475475099
10
3.472080336065247
20
51.41174255507884
10
3.398436623226587
20
51.246142848509024
10
3.3267501327189457
20
51.08033943035922
10
3.2570626943310614
20
50.91433590176855
10
3.189420367870267
20
50.748135639537445
10
3.123874160728611
20
50.58174175896925
10
3.060480924307312
20
50.4151570674793
10
2.999304490743467
20
50.248384005799515
10
2.9404171392800427
20
50.081424572166746
10
2.8839015258369156
20
49.91428022260042
10
2.8298532819939126
20
49.7469517366249
10
2.7783846141442043
20
49.5794390313623
10
2.7296294581735285
20
49.41174089532802
10
2.683751175822688
20
49.24385459102279
10
2.6409546714670276
20
49.07577522933935
10
2.6015068511699635
20
48.90749471333451
10
2.5657746988681125
20
48.73899977259085
10
2.534307325961917
20
48.57026772763626
10
2.5080642563883346
20
48.40125470557072
10
2.489765531667422
20
48.231825946446726
0
ARC
5
120
330
E4
100
AcDbEntity
100
AcDbCircle
8
0
10
1.3957660856014136
20
48.858187438492884
30
0
40
1.2606202864903464
100
AcDbArc
50
206.5202563590527
51
-29.79298363177975
0
LWPOLYLINE
5
121
330
E4
100
AcDbEntity
100
AcDbPolyline
8
0
6
ByLayer
62
256
370
-1
90
21
70
0
10
0.2677926061856702
20
48.29530260440536
10
0.25919621116740493
20
48.46549969526592
10
0.24264469376300082
20
48.635735260292684
10
0.2208613526726339
20
48.80598855571782
10
0.19480665160113042
20
48.97624860480863
10
0.16503010114940073
20
49.1465067019325
10
0.13189884433374982
20
49.31675514518762
10
0.09567981416640156
20
49.48698678096214
10
0.05657785995826749
20
49.65719479264256
10
0.014756233304740747
20
49.827372587136054
10
-0.029651279181769935
20
49.99751372771097
10
-0.07653264937364805
20
50.16761189138047
10
-0.12579244615835417
20
50.337660840398335
10
-0.17734823154164558
20
50.50765440239158
10
-0.23112795823745286
20
50.67758645604626
10
-0.2870680375507451
20
50.8474509205102
10
-0.34511187107103364
20
51.01724174736779
10
-0.4052087124429889
20
51.186952914445065
10
-0.46731276975555713
20
51.356578420949184
10
-0.5313824870247896
20
51.5261122836012
10
-0.5973799614253564
20
51.6955485335216
0
ARC
5
122
330
E4
100
AcDbEntity
100
AcDbCircle
8
0
10
0
20
0
30
0
40
51.699
100
AcDbArc
50
90.66215916054807
51
92.6105681121792
0
LWPOLYLINE
5
123
330
E4
100
AcDbEntity
100
AcDbPolyline
8
0
6
ByLayer
62
256
370
-1
90
21
70
0
10
-2.3548316958855824
20
51.64534217801304
10
-2.411048621239262
20
51.47241454367393
10
-2.4653353608383712
20
51.299499509161684
10
-2.5176544144293818
20
51.12660519744842
10
-2.567964635380118
20
50.95373995443669
10
-2.6162206490395
20
50.780912385338404
10
-2.6623721356129812
20
50.608131399555084
10
-2.706362934293054
20
50.43540626677395
10
-2.748129907239858
20
50.262746688132914
10
-2.787601474127495
20
50.09016288805658
10
-2.8246956837829575
20
49.91766573513851
10
-2.8593176168374477
20
49.74526690500054
10
-2.89135578884138
20
49.57297910586994
10
-2.9206769988397645
20
49.40081640169936
10
-2.9471186378754224
20
49.228794694668416
10
-2.9704765798777384
20
49.056932484876995
10
-2.990484735565684
20
48.88525215315838
10
-3.006777000387473
20
48.71378234861161
10
-3.018805256931092
20
48.542563133578085
10
-3.025611234556815
20
48.371660298619354
10
-3.0244772602186636
20
48.20125002355676
0
ARC
5
124
330
E4
100
AcDbEntity
100
AcDbCircle
8
0
10
-4.182745557946158
20
48.69882218635376
30
0
40
1.2606202864903464
100
AcDbArc
50
213.06571090450723
51
-23.24752908632521
0
LWPOLYLINE
5
125
330
E4
100
AcDbEntity
100
AcDbPolyline
8
0
6
ByLayer
62
256
370
-1
90
21
70
0
10
-5.239202571859613
20
48.011027097345355
10
-5.267143939646566
20
48.17913488333668
10
-5.302992961951058
20
48.346374077092754
10
-5.344041726643227
20
48.5130345027175
10
-5.389334779321626
20
48.679214739639356
10
-5.438325198873534
20
48.84496877845945
10
-5.490647357467347
20
49.01033081862908
10
-5.546035246580556
20
49.17532418123592
10
-5.604284575128879
20
49.33996544516075
10
-5.665232404078111
20
49.504266669565794
10
-5.728745085140241
20
49.66823671020027
10
-5.794710599650464
20
49.83188205553647
10
-5.8630334274920015
20
49.99520738681453
10
-5.9336309644257765
20
50.1582159691178
10
-6.00643093501179
20
50.32090993380441
10
-6.08136947187804
20
50.48329048822379
10
-6.158389656070037
20
50.645358075118104
10
-6.237440385534521
20
50.80711249621611
10
-6.3184754828053995
20
50.96855300972421
10
-6.4014529807292195
20
51.129678408389275
10
-6.4863345431403205
20
51.290487082835
0
ARC
5
126
330
E4
100
AcDbEntity
100
AcDbCircle
8
0
10
0
20
0
30
0
40
51.699
100
AcDbArc
50
97.20761370600262
51
99.15602265763374
0
LWPOLYLINE
5
127
330
E4
100
AcDbEntity
100
AcDbPolyline
8
0
6
ByLayer
62
256
370
-1
90
21
70
0
10
-8.226607648833275
20
51.04027358461314
10
-8.262745872542268
20
50.86206489177942
10
-8.296967928230286
20
50.68408874123908
10
-8.329237486029426
20
50.50635747772331
10
-8.359514618873355
20
50.32888408309649
10
-8.387755228795214
20
50.15168227879993
10
-8.413910339593432
20
49.97476665218563
10
-8.437925213196227
20
49.798152814368166
10
-8.459738229159276
20
49.62185760042225
10
-8.479279439232764
20
49.44589932766926
10
-8.49646866534942
20
49.27029813558813
10
-8.511212937770608
20
49.095076443688576
10
-8.523402947360648
20
48.92025958563189
10
-8.532907964573377
20
48.745876717462785
10
-8.53956825309175
20
48.57196217373057
10
-8.543183126245351
20
48.39855760256516
10
-8.543490780416255
20
48.225715570807964
10
-8.540130763170223
20
48.05350627358962
10
-8.532563096632371
20
47.88203199279116
10
-8.519843255983483
20
47.71146732475514
10
-8.499291365675955
20
47.54229709229831
0
ARC
5
128
330
E4
100
AcDbEntity
100
AcDbCircle
8
0
10
-9.706728716460994
20
47.90459331176553
30
0
40
1.2606202864903464
100
AcDbArc
50
219.6111654499618
51
-16.70207454087066
0
LWPOLYLINE
5
129
330
E4
100
AcDbEntity
100
AcDbPolyline
8
0
6
ByLayer
62
256
370
-1
90
21
70
0
10
-10.677896732053021
20
47.100854428668505
10
-10.724818814148744
20
47.26468136771246
10
-10.779497994523572
20
47.42674397154786
10
-10.839277049393786
20
47.58763885384994
10
-10.90321798947062
20
47.74757286507464
10
-10.970783613082657
20
47.90666198820681
10
-11.041614574100933
20
48.06498187820867
10
-11.115449256320552
20
48.22258602684144
10
-11.19208659013059
20
48.379514192349056
10
-11.271366073217461
20
48.53579692893918
10
-11.353155937927438
20
48.691458269393685
10
-11.437345635393113
20
48.84651742905684
10
-11.52384080174427
20
49.00098994712797
10
-11.612559743369578
20
49.15488848358145
10
-11.703430898896002
20
49.30822339466195
10
-11.796390954883439
20
49.46100316018085
10
-11.891383413859009
20
49.6132347082663
10
-11.988357484264945
20
49.76492366713451
10
-12.087267205073998
20
49.91607456366159
10
-12.18807074506924
20
50.066690982358544
10
-12.290729834515203
20
50.216775694333045
0
ARC
5
12A
330
E4
100
AcDbEntity
100
AcDbCircle
8
0
10
0
20
0
30
0
40
51.699
100
AcDbArc
50
103.75306825145717
51
105.70147720308829
0
LWPOLYLINE
5
12B
330
E4
100
AcDbEntity
100
AcDbPolyline
8
0
6
ByLayer
62
256
370
-1
90
21
70
0
10
-13.991137190103519
20
49.769816968999415
10
-14.006725595155467
20
49.58865044051725
10
-14.020436830100607
20
49.40793336525055
10
-14.032236209072039
20
49.22768214875715
10
-14.042085545079633
20
49.047914239624774
10
-14.04994259172519
20
48.86864829664417
10
-14.055760354879805
20
48.68990439494938
10
-14.059486232801893
20
48.511704283567596
10
-14.061060925759401
20
48.334071712039375
10
-14.060417029461
20
48.15703285178855
10
-14.057477184188887
20
47.980616850630554
10
-14.052151581837306
20
47.80485657969038
10
-14.044334513596205
20
47.62978966780029
10
-14.033899425587885
20
47.45545998300348
10
-14.020691536542532
20
47.28191984461556
10
-14.004516215447628
20
47.109233505849424
10
-13.985119357358878
20
46.93748303426541
10
-13.962150861008308
20
46.7667792559249
10
-13.935085927495564
20
46.59728533884784
10
-13.90300609114741
20
46.429282409027415
10
-13.86330421019073
20
46.26355761186896
0
ARC
5
12C
330
E4
100
AcDbEntity
100
AcDbCircle
8
0
10
-15.104169821628386
20
46.48585480272498
30
0
40
1.2606202864903464
100
AcDbArc
50
226.15661999541632
51
-10.156619995416118
0
LWPOLYLINE
5
12D
330
E4
100
AcDbEntity
100
AcDbPolyline
8
0
6
ByLayer
62
256
370
-1
90
21
70
0
10
-15.977388178605686
20
45.57665009104071
10
-16.042679273911983
20
45.73406044844585
10
-16.11547578561993
20
45.88883372847676
10
-16.193205819267675
20
46.04186555660835
10
-16.27496107880398
20
46.193468357712035
10
-16.36022108524406
20
46.34381859514079
10
-16.44863745878793
20
46.493032393089656
10
-16.539956386115634
20
46.641192716646444
10
-16.633982640339454
20
46.78836198510876
10
-16.730560248259604
20
46.93458884940886
10
-16.829561040649455
20
47.079912206057244
10
-16.930877379612568
20
47.2243637467687
10
-17.03441728770265
20
47.367969666124594
10
-17.14010104693727
20
47.510751853948136
10
-17.247858742922297
20
47.652728756361064
10
-17.35762844153704
20
47.793916015089415
10
-17.469354803321195
20
47.934326953328544
10
-17.58298800935811
20
48.073972952409754
10
-17.69848291423167
20
48.21286374886406
10
-17.815798367995352
20
48.35100767223708
10
-17.934896666248427
20
48.48841183799477
0
ARC
5
12E
330
E4
100
AcDbEntity
100
AcDbCircle
8
0
10
0
20
0
30
0
40
51.699
100
AcDbArc
50
110.29852279691171
51
112.24693174854283
0
LWPOLYLINE
5
12F
330
E4
100
AcDbEntity
100
AcDbPolyline
8
0
6
ByLayer
62
256
370
-1
90
21
70
0
10
-19.573270861414066
20
47.85053467606939
10
-19.568106229109745
20
47.66877209469604
10
-19.56112789639587
20
47.487670018150226
10
-19.552303273589875
20
47.30724869894488
10
-19.541596411603656
20
47.12752982492208
10
-19.528967466354082
20
46.94853674897611
10
-19.51437203842525
20
46.770294772313
10
-19.497760348149924
20
46.59283149834069
10
-19.479076189571003
20
46.41617728145405
10
-19.45825558107368
20
46.240365805994806
10
-19.435224989791834
20
46.06543484812853
10
-19.409898940038595
20
45.89142730207013
10
-19.382176701405562
20
45.718392601273464
10
-19.35193754550677
20
45.54638875389316
10
-19.319033663930266
20
45.37548538194886
10
-19.283279018634293
20
45.20576850609754
10
-19.244430515994743
20
45.03734862474231
10
-19.202152970015355
20
44.87037575008809
10
-19.155943602326538
20
44.70507180914906
10
-19.104921980005702
20
44.54182079266181
10
-19.046587683134344
20
44.38170190697609
0
ARC
5
130
330
E4
100
AcDbEntity
100
AcDbCircle
8
0
10
-20.30470497432015
20
44.46110208537838
30
0
40
1.2606202864903464
100
AcDbArc
50
232.70207454087085
51
-3.611165449961575
0
LWPOLYLINE
5
131
330
E4
100
AcDbEntity
100
AcDbPolyline
8
0
6
ByLayer
62
256
370
-1
90
21
70
0
10
-21.068589935984157
20
43.45828441897307
10
-21.151398875223858
20
43.6072261100025
10
-21.24136370440691
20
43.75269235982848
10
-21.336031386970806
20
43.895866129877874
10
-21.43453516112998
20
44.03716134650155
10
-21.536378055825782
20
44.17681265295095
10
-21.641227199250665
20
44.314975128797485
10
-21.748839889814445
20
44.4517601308787
10
-21.85902928843363
20
44.58725192581491
10
-21.971645984371385
20
44.72151662702369
10
-22.08656707771012
20
44.85460748766859
10
-22.203689244748915
20
44.98656826268503
10
-22.322924093532084
20
45.11743546054992
10
-22.444194920951915
20
45.24723991556803
10
-22.56743437103421
20
45.37600792326475
10
-22.69258269638372
20
45.50376208336694
10
-22.819586436987155
20
45.63052194044895
10
-22.94839739603475
20
45.756304480584106
10
-23.078971832261114
20
45.88112452302775
10
-23.21126981344256
20
46.00499503377177
10
-23.34525469204763
20
46.1279273798794
0
ARC
5
132
330
E4
100
AcDbEntity
100
AcDbCircle
8
0
10
0
20
0
30
0
40
51.699
100
AcDbArc
50
116.84397734236627
51
118.79238629399738
0
LWPOLYLINE
5
133
330
E4
100
AcDbEntity
100
AcDbPolyline
8
0
6
ByLayer
62
256
370
-1
90
21
70
0
10
-24.90023701358622
20
45.30744748567536
10
-24.874386672805986
20
45.127458404629074
10
-24.846809745672005
20
44.94833226933185
10
-24.8174761635424
20
44.77009291522925
10
-24.78635268388237
20
44.59276598668352
10
-24.753402384352476
20
44.41637922625176
10
-24.7185840390641
20
44.240962831372094
10
-24.681851339378394
20
44.066549899980615
10
-24.64315190584386
20
43.89317699561045
10
-24.602426013620395
20
43.72088487639441
10
-24.55960491530692
20
43.54971945437807
10
-24.514608581941772
20
43.37973308767455
10
-24.46734257469307
20
43.210986369918665
10
-24.417693564545786
20
43.04355069315147
10
-24.365522642854486
20
42.87751207446709
10
-24.31065478983854
20
42.71297718055582
10
-24.25286109229123
20
42.55008350014784
10
-24.191825649150047
20
42.389018275953134
10
-24.12707425706109
20
42.23005930082208
10
-24.05777599364205
20
42.073688424328154
10
-23.98156975762655
20
41.921262844660376
0
ARC
5
134
330
E4
100
AcDbEntity
100
AcDbCircle
8
0
10
-25.240537245627458
20
41.85673090785653
30
0
40
1.2606202864903464
100
AcDbArc
50
239.24752908632544
51
2.9342890954929826
0
LWPOLYLINE
5
135
330
E4
100
AcDbEntity
100
AcDbPolyline
8
0
6
ByLayer
62
256
370
-1
90
21
70
0
10
-25.885130403291384
20
40.773373548623745
10
-25.98437764530154
20
40.911904890557935
10
-26.090337962827807
20
41.046167735150554
10
-26.200709156290092
20
41.1776169580691
10
-26.314677297733848
20
41.30676259098089
10
-26.431775402804373
20
41.433894398102225
10
-26.551690447179652
20
41.55920439268147
10
-26.6741940049856
20
41.682830871599286
10
-26.799110060676178
20
41.80487885025442
10
-26.926297713774964
20
41.92543104266021
10
-27.055640935861742
20
42.044554364396895
10
-27.187042064413596
20
42.16230406320798
10
-27.320417445289767
20
42.278726485522114
10
-27.45569439019956
20
42.393861008153294
10
-27.592808979676867
20
42.5077414332282
10
-27.731704431950494
20
42.62039702385248
10
-27.87232986338725
20
42.7318532911861
10
-28.014639327603387
20
42.842132604604934
10
-28.15859105771846
20
42.95125467289702
10
-28.30414685980929
20
43.05923692946896
10
-28.451271620970275
20
43.16609484479423
0
ARC
5
136
330
E4
100
AcDbEntity
100
AcDbCircle
8
0
10
0
20
0
30
0
40
51.699
100
AcDbArc
50
123.38943188782079
51
125.3378408394519
0
LWPOLYLINE
5
137
330
E4
100
AcDbEntity
100
AcDbPolyline
8
0
6
ByLayer
62
256
370
-1
90
21
70
0
10
-29.902590496281594
20
42.173708428494756
10
-29.856391445750525
20
41.99783928070479
10
-29.808575431615104
20
41.82302426976788
10
-29.75911529826486
20
41.64929050333072
10
-29.70798094308564
20
41.47666724796221
10
-29.65513884682079
20
41.3051862742157
10
-29.600551494551475
20
41.13488228209153
10
-29.544176652371227
20
40.96579343257176
10
-29.48596645018036
20
40.79796202166624
10
-29.425866198518104
20
40.63143534995421
10
-29.363812831675958
20
40.46626686682756
10
-29.29973281071732
20
40.30251771172955
10
-29.233539219541488
20
40.14025884854524
10
-29.165127605921352
20
39.97957412249766
10
-29.094369771864642
20
39.82056482439111
10
-29.021103997502376
20
39.663356876385706
10
-28.945118534278897
20
39.50811296516289
10
-28.866120884318942
20
39.35505512294258
10
-28.78367160125022
20
39.20451338695674
10
-28.697000105574674
20
39.05706118396969
10
-28.6039153952439
20
38.91431601085569
0
ARC
5
138
330
E4
100
AcDbEntity
100
AcDbCircle
8
0
10
-29.84732051351121
20
38.70669323133083
30
0
40
1.2606202864903464
100
AcDbArc
50
245.79298363177992
51
9.479743640947515
0
LWPOLYLINE
5
139
330
E4
100
AcDbEntity
100
AcDbPolyline
8
0
6
ByLayer
62
256
370
-1
90
21
70
0
10
-30.364218609586743
20
37.5569193992297
10
-30.47861031478866
20
37.68323442417016
10
-30.59918476587377
20
37.804543542021605
10
-30.723820612936667
20
37.92255457616287
10
-30.85176737264948
20
38.03786701453498
10
-30.98259413521667
20
38.150821964799384
10
-31.11601180455248
20
38.26164587069506
10
-31.251809208379555
20
38.37050216623446
10
-31.389823449321117
20
38.47751524655841
10
-31.529923974014334
20
38.58278334797239
10
-31.672003138144287
20
38.686386176126376
10
-31.815970213546407
20
38.78838975133315
10
-31.961747374454497
20
38.88884965377652
10
-32.10926689499794
20
38.98781328944271
10
-32.25846912550667
20
39.08532152639728
10
-32.40930099007081
20
39.18140990963535
10
-32.56171484478323
20
39.27610958432548
10
-32.71566759266757
20
39.36944801152711
10
-32.87111998572352
20
39.46144953262675
10
-33.02803606624455
20
39.55213582117461
10
-33.18638271370141
20
39.64152624937315
0
ARC
5
13A
330
E4
100
AcDbEntity
100
AcDbCircle
8
0
10
0
20
0
30
0
40
51.699
100
AcDbArc
50
129.93488643327535
51
131.88329538490646
0
LWPOLYLINE
5
13B
330
E4
100
AcDbEntity
100
AcDbPolyline
8
0
6
ByLayer
62
256
370
-1
90
21
70
0
10
-34.51511798173961
20
38.49017058557412
10
-34.449172496733716
20
38.32071409433912
10
-34.38174075046628
20
38.15248918877518
10
-34.31279885437314
20
37.985525895340515
10
-34.24232023819441
20
37.819856721276224
10
-34.17027522273098
20
37.65551705095408
10
-34.09663049309816
20
37.49254563456915
10
-34.0213484407054
20
37.33098519866264
10
-33.94438632886479
20
37.17088322032797
10
-33.865695216455656
20
37.01229292595544
10
-33.785218541620004
20
36.85527460548869
10
-33.70289021413884
20
36.69989738265495
10
-33.618631973726906
20
36.54624166646677
10
-33.53234960663954
20
36.39440266227846
10
-33.4439272967945
20
36.244495614123935
10
-33.353218732500295
20
36.096664058045214
10
-33.26003209031855
20
35.9510937578053
10
-33.16410208871839
20
35.80803864060454
10
-33.06502976716463
20
35.66787668551642
10
-32.962114934725676
20
35.53126542100125
10
-32.853365251633505
20
35.40006155607318
0
ARC
5
13C
330
E4
100
AcDbEntity
100
AcDbCircle
8
0
10
-34.06499831290755
20
35.052054614276535
30
0
40
1.2606202864903464
100
AcDbArc
50
252.3384381772345
51
16.025198186402072
0
LWPOLYLINE
5
13D
330
E4
100
AcDbEntity
100
AcDbPolyline
8
0
6
ByLayer
62
256
370
-1
90
21
70
0
10
-34.447462790218566
20
33.85085336956098
10
-34.57550768779536
20
33.963305367983665
10
-34.70912440007456
20
34.070079309224354
10
-34.846400081865646
20
34.17311370028369
10
-34.98665747816531
20
34.273089670134304
10
-35.12950737130535
20
34.37039522302275
10
-35.274688362245875
20
34.465288281138186
10
-35.42200928525982
20
34.55795528501256
10
-35.57132248475611
20
34.648538387847886
10
-35.72250945644826
20
34.73715006758131
10
-35.87547234343487
20
34.82388178084751
10
-36.03012853469012
20
34.90880945985279
10
-36.18640704740026
20
34.991997193963414
10
-36.34424600102503
20
35.07349980032835
10
-36.50359079331511
20
35.15336468017424
10
-36.664392746147556
20
35.23163319700235
10
-36.82660807645252
20
35.30834172396493
10
-36.99019709849602
20
35.38352245580805
10
-37.15512359481554
20
35.45720404918952
10
-37.32135431268499
20
35.52941213525528
10
-37.488858555728115
20
35.60016973539046
0
ARC
5
13E
330
E4
100
AcDbEntity
100
AcDbCircle
8
0
10
0
20
0
30
0
40
51.699
100
AcDbArc
50
136.48034097872988
51
138.428749930361
0
LWPOLYLINE
5
13F
330
E4
100
AcDbEntity
100
AcDbPolyline
8
0
6
ByLayer
62
256
370
-1
90
21
70
0
10
-38.677688120235615
20
34.30485450594106
10
-38.59285590100258
20
34.14401979577457
10
-38.506687498539286
20
33.98457806449447
10
-38.41916260275187
20
33.826561865929676
10
-38.330258522118676
20
33.67000652421187
10
-38.239949804411886
20
33.51495057624188
10
-38.14820776909142
20
33.36143631724142
10
-38.05499992316815
20
33.209510482305056
10
-37.960289220504016
20
33.05922511067327
10
-37.8640331063408
20
32.91063866065998
10
-37.76618226004134
20
32.763817476788965
10
-37.66667890169131
20
32.618837765937975
10
-37.56545444706342
20
32.47578833399256
10
-37.462426149115686
20
32.33477450529095
10
-37.357492083515645
20
32.19592397471443
10
-37.25052325414593
20
32.059396020975115
10
-37.14135026339738
20
31.925397063202816
10
-37.02973850443388
20
31.794209613248917
10
-36.915334703618136
20
31.666254664493163
10
-36.79751818664457
20
31.542265275202844
10
-36.67452124922131
20
31.424313161490495
0
ARC
5
140
330
E4
100
AcDbEntity
100
AcDbCircle
8
0
10
-37.83858676359443
20
30.940458860116397
30
0
40
1.2606202864903464
100
AcDbArc
50
258.88389272268904
51
22.5706527318566
0
LWPOLYLINE
5
141
330
E4
100
AcDbEntity
100
AcDbPolyline
8
0
6
ByLayer
62
256
370
-1
90
21
70
0
10
-38.08163161277517
20
29.703489698011804
10
-38.22166044166751
20
29.80061268614412
10
-38.36657751695581
20
29.89145948916028
10
-38.51470343502684
20
29.978174026279433
10
-38.665442998256545
20
30.061510187948002
10
-38.818453755151594
20
30.14189781676891
10
-38.97350541145422
20
30.219622950971356
10
-39.13042930012523
20
30.294892607069283
10
-39.28909493227572
20
30.367864843141536
10
-39.44939739758009
20
30.438664912434973
10
-39.61124990226492
20
30.507394830291897
10
-39.77457902940412
20
30.5741394509197
10
-39.93932156450595
20
30.63897053736421
10
-40.10542227906798
20
30.70194960331175
10
-40.27283233008546
20
30.76312996520258
10
-40.44150807181615
20
30.822558265807615
10
-40.611410152806755
20
30.880275632083094
10
-40.7825028159299
20
30.93631857275402
10
-40.95475334641091
20
30.990719686166123
10
-41.12813163000422
20
31.04350822691987
10
-41.30260979466083
20
31.09471056546414
0
ARC
5
142
330
E4
100
AcDbEntity
100
AcDbCircle
8
0
10
0
20
0
30
0
40
51.699
100
AcDbArc
50
143.02579552418445
51
144.97420447581555
0
LWPOLYLINE
5
143
330
E4
100
AcDbEntity
100
AcDbPolyline
8
0
6
ByLayer
62
256
370
-1
90
21
70
0
10
-42.33603544418377
20
29.67232218530958
10
-42.23342240843545
20
29.522205982623607
10
-42.12964068668
20
29.373625992429286
10
-42.02467381206697
20
29.226616871537278
10
-41.91850326763163
20
29.08121630046579
10
-41.81110815992617
20
28.93746546625725
10
-41.70246481664983
20
28.795409657777135
10
-41.59254628401068
20
28.655099009409934
10
-41.4813216893736
20
28.516589444132084
10
-41.36875541910918
20
28.379943890087656
10
-41.25480603677102
20
28.245233881478217
10
-41.139424825999
20
28.112541714858803
10
-41.022553772724066
20
27.98196343526749
10
-40.904122675341185
20
27.85361311296255
10
-40.78404483000721
20
27.727629228974624
10
-40.66221023784057
20
27.604184728244288
10
-40.53847413541818
20
27.483503994279165
10
-40.41263564905763
20
27.36589444060763
10
-40.2843917974816
20
27.251814586623148
10
-40.153209514449294
20
27.142063463864403
10
-40.01756877587385
20
27.038900787554528
0
ARC
5
144
330
E4
100
AcDbEntity
100
AcDbCircle
8
0
10
-41.118891369157424
20
26.425506907381177
30
0
40
1.2606202864903464
100
AcDbArc
50
265.42934726814354
51
29.116107277311162
0
LWPOLYLINE
5
145
330
E4
100
AcDbEntity
100
AcDbPolyline
8
0
6
ByLayer
62
256
370
-1
90
21
70
0
10
-41.219348128909594
20
25.168895612616137
10
-41.36953539918636
20
25.249423443777303
10
-41.52386362178528
20
25.32315878155934
10
-41.680908728264804
20
25.392423008134177
10
-41.8401653376914
20
25.458032947307114
10
-42.00134222912554
20
25.52045467638178
10
-42.16424321532941
20
25.579998620681636
10
-42.32872432678451
20
25.636889673925772
10
-42.49467394242628
20
25.691299738541083
10
-42.66200211355664
20
25.743365210216556
10
-42.8306342410196
20
25.79319733307608
10
-43.0005070590908
20
25.840888777123777
10
-43.17156594569802
20
25.886518043544005
10
-43.343763044364685
20
25.930152540635437
10
-43.51705590807387
20
25.97185080499067
10
-43.691406492453055
20
26.01166415059036
10
-43.86678039067184
20
26.04963792204201
10
-44.04314624035832
20
26.085812466102468
10
-44.22047525591276
20
26.120223897836095
10
-44.39874085415537
20
26.15290471391944
10
-44.57791835071921
20
26.183884290085977
0
ARC
5
146
330
E4
100
AcDbEntity
100
AcDbCircle
8
0
10
0
20
0
30
0
40
51.699
100
AcDbArc
50
149.57125006963898
51
151.5196590212701
0
LWPOLYLINE
5
147
330
E4
100
AcDbEntity
100
AcDbPolyline
8
0
6
ByLayer
62
256
370
-1
90
21
70
0
10
-45.442467801495226
20
24.652965767024245
10
-45.323411667079014
20
24.51552506609395
10
-45.203369579488175
20
24.379743784381397
10
-45.08232912978627
20
24.24565822987449
10
-44.960276216962406
20
24.113307948254743
10
-44.837194778726875
20
23.982736239770137
10
-44.71306645962284
20
23.853990796520264
10
-44.58787019643949
20
23.72712449860117
10
-44.46158169251666
20
23.602196423683747
10
-44.334172739631846
20
23.479273149377583
10
-44.20561032571688
20
23.35843046700434
10
-44.0758554330581
20
23.239755689934906
10
-43.944861374046816
20
23.123350850265904
10
-43.81257140770019
20
23.009337277095405
10
-43.67891518098161
20
22.897862432291365
10
-43.543803126248925
20
22.789110672421074
10
-43.40711700147775
20
22.683321420187752
10
-43.26869228483502
20
22.580822983191318
10
-43.128280237227685
20
22.482105429337455
10
-42.98544234981343
20
22.388023346838157
10
-42.83892609454889
20
22.30099499118343
0
ARC
5
148
330
E4
100
AcDbEntity
100
AcDbCircle
8
0
10
-43.86314834248363
20
21.566058059503927
30
0
40
1.2606202864903464
100
AcDbArc
50
271.97480181359816
51
35.66156182276569
0
LWPOLYLINE
5
149
330
E4
100
AcDbEntity
100
AcDbPolyline
8
0
6
ByLayer
62
256
370
-1
90
21
70
0
10
-43.81970740531508
20
20.30618648204496
10
-43.97809519622639
20
20.369069352804356
10
-44.13982266173975
20
20.42473197246061
10
-44.30373963349527
20
20.475642923371744
10
-44.469437135663284
20
20.522671314154458
10
-44.636678974368394
20
20.566313380782667
10
-44.80530562699338
20
20.606899888805238
10
-44.97519969840331
20
20.644670677312902
10
-45.14626989050927
20
20.679809252069553
10
-45.31844238885945
20
20.712461373079883
10
-45.49165576142947
20
20.74274606301212
10
-45.6658577184621
20
20.77076259957189
10
-45.84100294238695
20
20.796595198699077
10
-46.01705157263561
20
20.820316284534464
10
-46.19396811154078
20
20.84198885070894
10
-46.3717206120662
20
20.861668213456724
10
-46.55028006055008
20
20.87940334390029
10
-46.72961989823242
20
20.895237900846606
10
-46.909715643952765
20
20.909211045263604
10
-47.0905445921495
20
20.92135809226004
10
-47.27208556793618
20
20.931711039896364
0
ARC
5
14A
330
E4
100
AcDbEntity
100
AcDbCircle
8
0
10
0
20
0
30
0
40
51.699
100
AcDbArc
50
156.11670461509354
51
158.06511356672465
0
LWPOLYLINE
5
14B
330
E4
100
AcDbEntity
100
AcDbPolyline
8
0
6
ByLayer
62
256
370
-1
90
21
70
0
10
-47.95648809571642
20
19.312220238113703
10
-47.82254094141733
20
19.189246788664175
10
-47.68780342018356
20
19.068034332091223
10
-47.55226734276214
20
18.948620354229828
10
-47.41592320792431
20
18.831045750386412
10
-47.2787599939349
20
18.71535536952953
10
-47.14076490147248
20
18.601598685253435
10
-47.001923032498546
20
18.489830633992828
10
-46.862216983071974
20
18.38011267794524
10
-46.7216263181145
20
18.272514176244847
10
-46.580126880298984
20
18.167114189277598
10
-46.43768985921378
20
18.064003908966928
10
-46.29428050235495
20
17.963290024323577
10
-46.149856269067335
20
17.865099541575084
10
-46.00436407428028
20
17.769586981035758
10
-45.857735949242254
20
17.6769457075298
10
-45.70988171479318
20
17.587427061714955
10
-45.56067534574303
20
17.501375965271027
10
-45.4099255878775
20
17.419307645831307
10
-45.257294206386135
20
17.342121107416833
10
-45.10181249788761
20
17.27236162012593
0
ARC
5
14C
330
E4
100
AcDbEntity
100
AcDbCircle
8
0
10
-46.03558209712563
20
16.425462663785897
30
0
40
1.2606202864903464
100
AcDbArc
50
278.52025635905267
51
42.20701636822025
0
LWPOLYLINE
5
14D
330
E4
100
AcDbEntity
100
AcDbPolyline
8
0
6
ByLayer
62
256
370
-1
90
21
70
0
10
-45.848809782086676
20
15.178755156370478
10
-46.01333326655511
20
15.223173292340793
10
-46.18035161013965
20
15.260037546499046
10
-46.349003538765636
20
15.291931519643084
10
-46.51898181333264
20
15.319765275041073
10
-46.69010834617776
20
15.34405873814238
10
-46.862262358925676
20
15.365158702686536
10
-47.03535456125011
20
15.383316826466555
10
-47.209315168248
20
15.39872582630506
10
-47.384087461998114
20
15.411538926317903
10
-47.559623978468025
20
15.42188137607512
10
-47.73588408554462
20
15.429857766747137
10
-47.912832360943135
20
15.435556931145786
10
-48.09043745964682
20
15.439055365094537
10
-48.26867129610436
20
15.44041969804426
10
-48.44750843709427
20
15.439708527351018
10
-48.62692564036077
20
15.436973812238769
10
-48.80690149698985
20
15.43226195440532
10
-48.98741614940969
20
15.425614650199044
10
-49.16845106567856
20
15.417069572774453
10
-49.34998885643757
20
15.406660925375334
0
ARC
5
14E
330
E4
100
AcDbEntity
100
AcDbCircle
8
0
10
0
20
0
30
0
40
51.699
100
AcDbArc
50
162.66215916054804
51
164.61056811217915
0
LWPOLYLINE
5
14F
330
E4
100
AcDbEntity
100
AcDbPolyline
8
0
6
ByLayer
62
256
370
-1
90
21
70
0
10
-49.84532222761366
20
13.719710384164964
10
-49.698230259433736
20
13.612807333173429
10
-49.5505538142008
20
13.507743891482063
10
-49.40228902910477
20
13.404558234087757
10
-49.253431126562056
20
13.303292072788953
10
-49.10397426907722
20
13.203991220599889
10
-48.953911380322964
20
13.106706287645546
10
-48.80323392165179
20
13.011493550518807
10
-48.65193160872862
20
12.918416054690127
10
-48.49999204602193
20
12.827545036615863
10
-48.34740024587329
20
12.738961795073239
10
-48.19413798076086
20
12.65276021171203
10
-48.040182886337476
20
12.569050241602694
10
-47.88550717685818
20
12.487962912381825
10
-47.73007572726333
20
12.409657788401477
10
-47.57384305376865
20
12.33433472193657
10
-47.416748215701624
20
12.262253694989521
10
-47.25870532744635
20
12.193771746738438
10
-47.099583112958456
20
12.129422547764072
10
-46.93914802086733
20
12.070137798004255
10
-46.77672780098373
20
12.018556600677403
0
ARC
5
150
330
E4
100
AcDbEntity
100
AcDbCircle
8
0
10
-47.60787163678241
20
11.070736242737764
30
0
40
1.2606202864903464
100
AcDbArc
50
285.0657109045072
51
48.75247091367478
0
LWPOLYLINE
5
151
330
E4
100
AcDbEntity
100
AcDbPolyline
8
0
6
ByLayer
62
256
370
-1
90
21
70
0
10
-47.28020280663104
20
9.853445544318419
10
-47.44871716943029
20
9.878819887168492
10
-47.61884905155577
20
9.896405193899176
10
-47.79003730124269
20
9.908866402560642
10
-47.96208042145144
20
9.917142667006049
10
-48.13486075237663
20
9.921770824136866
10
-48.308297834415676
20
9.92310917489654
10
-48.482331646086905
20
9.921417915036162
10
-48.65691482542604
20
9.916896460078608
10
-48.8320084904473
20
9.909703500740177
10
-49.007579763876414
20
9.899968880673054
10
-49.183600200946124
20
9.887801141006587
10
-49.360044736440976
20
9.873292573353021
10
-49.53689094952609
20
9.856522747978444
10
-49.71411853290425
20
9.837561061536931
10
-49.89170889872969
20
9.81646862860025
10
-50.06964487915098
20
9.793299719125882
10
-50.24791049419804
20
9.768102872785386
10
-50.4264907687615
20
9.740921777731907
10
-50.60537158611173
20
9.71179597403853
10
-50.78453956911425
20
9.68076142424079
0
ARC
5
152
330
E4
100
AcDbEntity
100
AcDbCircle
8
0
10
0
20
0
30
0
40
51.699
100
AcDbArc
50
169.20761370600263
51
171.15602265763374
0
LWPOLYLINE
5
153
330
E4
100
AcDbEntity
100
AcDbPolyline
8
0
6
ByLayer
62
256
370
-1
90
21
70
0
10
-51.08434635567813
20
7.9483431237657385
10
-50.926027142370785
20
7.8589041159890165
10
-50.767336961444315
20
7.771359351815514
10
-50.608276326889175
20
7.685747197734551
10
-50.44884524705003
20
7.602109638259522
10
-50.289043144771895
20
7.520492853207648
10
-50.12886875897233
20
7.440947929454245
10
-49.96832002170917
20
7.363531750098937
10
-49.807393902325416
20
7.288308121990975
10
-49.646086206431
20
7.215349230232755
10
-49.484391311423245
20
7.144737552138869
10
-49.32230181029376
20
7.076568435194565
10
-49.15980801840561
20
7.010953667097517
10
-48.996897267153706
20
6.948026588747754
10
-48.83355284939831
20
6.887949728369723
10
-48.66975235927305
20
6.830926820309019
10
-48.50546488904787
20
6.7772230986497455
10
-48.34064581233133
20
6.727203065516603
10
-48.17522554263298
20
6.681411877225641
10
-48.00907825672135
20
6.64080178349794
10
-47.841836921408564
20
6.608071315925567
0
ARC
5
154
330
E4
100
AcDbEntity
100
AcDbCircle
8
0
10
-48.559519762797606
20
5.571685844256486
30
0
40
1.2606202864903464
100
AcDbArc
50
291.61116544996185
51
55.29792545912933
0
LWPOLYLINE
5
155
330
E4
100
AcDbEntity
100
AcDbPolyline
8
0
6
ByLayer
62
256
370
-1
90
21
70
0
10
-48.09522608183972
20
4.399681200693346
10
-48.2655344805412
20
4.405680957059074
10
-48.43656197194093
20
4.403758064995695
10
-48.60805484205543
20
4.396624058262724
10
-48.77991996272795
20
4.385234937991586
10
-48.95210163588615
20
4.37013745404586
10
-49.12456076961411
20
4.3516967435721545
10
-49.29726739374659
20
4.330178148230112
10
-49.47019718669374
20
4.305785182556538
10
-49.64332960929132
20
4.278679935092028
10
-49.81664679962883
20
4.248995150860322
10
-49.99013287110589
20
4.216841905950086
10
-50.16377344233977
20
4.182314747611658
10
-50.33755530896732
20
4.145495283233658
10
-50.511466206682115
20
4.106454771981839
10
-50.68549463533508
20
4.065256048921762
10
-50.85962972528836
20
4.021954987252555
10
-51.033861133839146
20
3.976601631830669
10
-51.20817896356395
20
3.9292410930721373
10
-51.38257369697842
20
3.879914262503296
10
-51.557036143563906
20
3.8286583931247744
0
ARC
5
156
330
E4
100
AcDbEntity
100
AcDbCircle
8
0
10
0
20
0
30
0
40
51.699
100
AcDbArc
50
175.75306825145717
51
177.70147720308825
0
LWPOLYLINE
5
157
330
E4
100
AcDbEntity
100
AcDbPolyline
8
0
6
ByLayer
62
256
370
-1
90
21
70
0
10
-51.657407905557335
20
2.0733570553240646
10
-51.48992538018606
20
2.002548065007859
10
-51.32229023275978
20
1.9336632582356823
10
-51.15450734736884
20
1.866740692823424
10
-50.986581518177395
20
1.8018220786670895
10
-50.81851743589497
20
1.7389533603623406
10
-50.650319671124144
20
1.6781854355392853
10
-50.481992653586865
20
1.6195750522460937
10
-50.31354064581348
20
1.5631859468909493
10
-50.14496770923565
20
1.5090903121790848
10
-49.976277659605685
20
1.4573707287445345
10
-49.80747400699031
20
1.4081227669077325
10
-49.638559872716876
20
1.3614585896699762
10
-49.469537870474824
20
1.317512112892171
10
-49.3004099288474
20
1.2764467098671985
10
-49.13117701198092
20
1.2384673410225693
10
-48.96183864801727
20
1.2038410347921582
10
-48.792392051562764
20
1.1729350044046256
10
-48.622830232847164
20
1.1462987849650377
10
-48.45313673707643
20
1.1248927619463265
10
-48.28325453290292
20
1.1114397158280371
0
ARC
5
158
330
E4
100
AcDbEntity
100
AcDbCircle
8
0
10
-48.87812028649034
20
2.7692089172702783e-14
30
0
40
1.2606202864903464
100
AcDbArc
50
298.1566199954163
51
61.84338000458387
0
LWPOLYLINE
5
159
330
E4
100
AcDbEntity
100
AcDbPolyline
8
0
6
ByLayer
62
256
370
-1
90
21
70
0
10
-48.28325453290292
20
-1.1114397158280038
10
-48.45313673707643
20
-1.1248927619462932
10
-48.622830232847164
20
-1.1462987849650044
10
-48.792392051562764
20
-1.1729350044045919
10
-48.96183864801727
20
-1.2038410347921242
10
-49.13117701198092
20
-1.2384673410225353
10
-49.3004099288474
20
-1.2764467098671648
10
-49.469537870474824
20
-1.317512112892137
10
-49.63855987271688
20
-1.3614585896699423
10
-49.80747400699031
20
-1.408122766907698
10
-49.976277659605685
20
-1.4573707287445001
10
-50.14496770923565
20
-1.5090903121790504
10
-50.31354064581348
20
-1.5631859468909148
10
-50.481992653586865
20
-1.619575052246059
10
-50.650319671124144
20
-1.6781854355392505
10
-50.81851743589497
20
-1.7389533603623057
10
-50.986581518177395
20
-1.8018220786670545
10
-51.15450734736884
20
-1.8667406928233885
10
-51.32229023275978
20
-1.933663258235647
10
-51.48992538018606
20
-2.0025480650078236
10
-51.657407905557335
20
-2.073357055324029
0
ARC
5
15A
330
E4
100
AcDbEntity
100
AcDbCircle
8
0
10
0
20
0
30
0
40
51.699
100
AcDbArc
50
182.29852279691173
51
184.24693174854283
0
LWPOLYLINE
5
15B
330
E4
100
AcDbEntity
100
AcDbPolyline
8
0
6
ByLayer
62
256
370
-1
90
21
70
0
10
-51.55703614356391
20
-3.828658393124739
10
-51.382573696978426
20
-3.8799142625032608
10
-51.20817896356395
20
-3.929241093072102
10
-51.033861133839146
20
-3.9766016318306336
10
-50.85962972528836
20
-4.021954987252521
10
-50.68549463533508
20
-4.065256048921728
10
-50.51146620668212
20
-4.106454771981804
10
-50.337555308967325
20
-4.145495283233623
10
-50.163773442339775
20
-4.182314747611624
10
-49.99013287110589
20
-4.216841905950052
10
-49.81664679962883
20
-4.248995150860288
10
-49.64332960929132
20
-4.2786799350919935
10
-49.470197186693746
20
-4.305785182556504
10
-49.297267393746594
20
-4.330178148230079
10
-49.12456076961411
20
-4.35169674357212
10
-48.95210163588615
20
-4.370137454045826
10
-48.77991996272796
20
-4.3852349379915525
10
-48.60805484205544
20
-4.396624058262691
10
-48.43656197194093
20
-4.403758064995661
10
-48.265534480541206
20
-4.40568095705904
10
-48.095226081839726
20
-4.399681200693312
0
ARC
5
15C
330
E4
100
AcDbEntity
100
AcDbCircle
8
0
10
-48.559519762797606
20
-5.571685844256452
30
0
40
1.2606202864903464
100
AcDbArc
50
304.70207454087085
51
68.38883455003842
0
LWPOLYLINE
5
15D
330
E4
100
AcDbEntity
100
AcDbPolyline
8
0
6
ByLayer
62
256
370
-1
90
21
70
0
10
-47.84183692140857
20
-6.6080713159255335
10
-48.00907825672136
20
-6.640801783497906
10
-48.17522554263298
20
-6.6814118772256075
10
-48.34064581233134
20
-6.727203065516568
10
-48.50546488904787
20
-6.777223098649713
10
-48.669752359273055
20
-6.830926820308984
10
-48.833552849398316
20
-6.887949728369689
10
-48.99689726715371
20
-6.948026588747721
10
-49.15980801840562
20
-7.010953667097484
10
-49.322301810293766
20
-7.07656843519453
10
-49.48439131142325
20
-7.144737552138835
10
-49.646086206431
20
-7.215349230232721
10
-49.807393902325416
20
-7.288308121990942
10
-49.968320021709175
20
-7.363531750098903
10
-50.12886875897234
20
-7.440947929454211
10
-50.2890431447719
20
-7.520492853207612
10
-50.44884524705004
20
-7.6021096382594875
10
-50.60827632688918
20
-7.685747197734517
10
-50.76733696144432
20
-7.77135935181548
10
-50.92602714237079
20
-7.858904115988981
10
-51.084346355678136
20
-7.948343123765704
0
ARC
5
15E
330
E4
100
AcDbEntity
100
AcDbCircle
8
0
10
0
20
0
30
0
40
51.699
100
AcDbArc
50
188.84397734236623
51
190.79238629399734
0
LWPOLYLINE
5
15F
330
E4
100
AcDbEntity
100
AcDbPolyline
8
0
6
ByLayer
62
256
370
-1
90
21
70
0
10
-50.78453956911426
20
-9.680761424240757
10
-50.60537158611173
20
-9.711795974038496
10
-50.426490768761504
20
-9.740921777731872
10
-50.24791049419805
20
-9.76810287278535
10
-50.069644879150985
20
-9.793299719125846
10
-49.891708898729696
20
-9.816468628600216
10
-49.714118532904266
20
-9.837561061536897
10
-49.5368909495261
20
-9.85652274797841
10
-49.36004473644098
20
-9.873292573352987
10
-49.18360020094613
20
-9.887801141006555
10
-49.007579763876414
20
-9.899968880673022
10
-48.83200849044731
20
-9.909703500740143
10
-48.65691482542606
20
-9.916896460078574
10
-48.48233164608691
20
-9.92141791503613
10
-48.30829783441568
20
-9.923109174896506
10
-48.13486075237664
20
-9.921770824136834
10
-47.96208042145145
20
-9.917142667006015
10
-47.7900373012427
20
-9.90886640256061
10
-47.618849051555785
20
-9.896405193899144
10
-47.448717169430296
20
-9.87881988716846
10
-47.28020280663105
20
-9.853445544318387
0
ARC
5
160
330
E4
100
AcDbEntity
100
AcDbCircle
8
0
10
-47.60787163678243
20
-11.07073624273771
30
0
40
1.2606202864903464
100
AcDbArc
50
311.24752908632536
51
74.93428909549296
0
LWPOLYLINE
5
161
330
E4
100
AcDbEntity
100
AcDbPolyline
8
0
6
ByLayer
62
256
370
-1
90
21
70
0
10
-46.776727800983736
20
-12.018556600677371
10
-46.93914802086734
20
-12.070137798004222
10
-47.09958311295846
20
-12.129422547764038
10
-47.258705327446364
20
-12.193771746738404
10
-47.41674821570163
20
-12.262253694989486
10
-47.57384305376866
20
-12.334334721936536
10
-47.73007572726334
20
-12.409657788401443
10
-47.88550717685819
20
-12.487962912381793
10
-48.04018288633748
20
-12.56905024160266
10
-48.194137980760864
20
-12.652760211711998
10
-48.34740024587329
20
-12.738961795073205
10
-48.49999204602194
20
-12.82754503661583
10
-48.651931608728624
20
-12.918416054690093
10
-48.8032339216518
20
-13.011493550518773
10
-48.95391138032298
20
-13.106706287645512
10
-49.10397426907723
20
-13.203991220599855
10
-49.253431126562056
20
-13.303292072788919
10
-49.402289029104786
20
-13.404558234087723
10
-49.5505538142008
20
-13.50774389148203
10
-49.69823025943374
20
-13.612807333173395
10
-49.845322227613664
20
-13.71971038416493
0
ARC
5
162
330
E4
100
AcDbEntity
100
AcDbCircle
8
0
10
0
20
0
30
0
40
51.699
100
AcDbArc
50
195.38943188782082
51
197.3378408394519
0
LWPOLYLINE
5
163
330
E4
100
AcDbEntity
100
AcDbPolyline
8
0
6
ByLayer
62
256
370
-1
90
21
70
0
10
-49.349988856437584
20
-15.4066609253753
10
-49.16845106567857
20
-15.41706957277442
10
-48.9874161494097
20
-15.42561465019901
10
-48.80690149698986
20
-15.432261954405284
10
-48.62692564036078
20
-15.436973812238735
10
-48.44750843709428
20
-15.439708527350987
10
-48.268671296104365
20
-15.440419698044225
10
-48.09043745964683
20
-15.439055365094504
10
-47.91283236094315
20
-15.435556931145753
10
-47.735884085544626
20
-15.429857766747103
10
-47.55962397846804
20
-15.421881376075087
10
-47.38408746199813
20
-15.411538926317869
10
-47.20931516824801
20
-15.39872582630503
10
-47.03535456125012
20
-15.38331682646652
10
-46.86226235892568
20
-15.365158702686506
10
-46.690108346177766
20
-15.344058738142348
10
-46.51898181333265
20
-15.31976527504104
10
-46.34900353876564
20
-15.291931519643052
10
-46.18035161013967
20
-15.260037546499012
10
-46.013333266555115
20
-15.22317329234076
10
-45.84880978208669
20
-15.178755156370446
0
ARC
5
164
330
E4
100
AcDbEntity
100
AcDbCircle
8
0
10
-46.03558209712565
20
-16.42546266378587
30
0
40
1.2606202864903464
100
AcDbArc
50
317.7929836317799
51
81.47974364094752
0
LWPOLYLINE
5
165
330
E4
100
AcDbEntity
100
AcDbPolyline
8
0
6
ByLayer
62
256
370
-1
90
21
70
0
10
-45.10181249788762
20
-17.2723616201259
10
-45.25729420638615
20
-17.3421211074168
10
-45.40992558787751
20
-17.41930764583127
10
-45.560675345743036
20
-17.501375965270995
10
-45.70988171479319
20
-17.58742706171492
10
-45.85773594924227
20
-17.676945707529768
10
-46.004364074280296
20
-17.769586981035726
10
-46.14985626906736
20
-17.865099541575052
10
-46.294280502354965
20
-17.963290024323545
10
-46.4376898592138
20
-18.064003908966896
10
-46.580126880299
20
-18.16711418927757
10
-46.72162631811452
20
-18.272514176244812
10
-46.86221698307198
20
-18.38011267794521
10
-47.00192303249855
20
-18.489830633992792
10
-47.14076490147249
20
-18.601598685253403
10
-47.278759993934905
20
-18.715355369529497
10
-47.415923207924315
20
-18.831045750386384
10
-47.55226734276215
20
-18.9486203542298
10
-47.68780342018357
20
-19.068034332091187
10
-47.822540941417344
20
-19.189246788664143
10
-47.95648809571644
20
-19.31222023811367
0
ARC
5
166
330
E4
100
AcDbEntity
100
AcDbCircle
8
0
10
0
20
0
30
0
40
51.699
100
AcDbArc
50
201.93488643327532
51
203.88329538490643
0
LWPOLYLINE
5
167
330
E4
100
AcDbEntity
100
AcDbPolyline
8
0
6
ByLayer
62
256
370
-1
90
21
70
0
10
-47.2720855679362
20
-20.931711039896335
10
-47.09054459214951
20
-20.921358092260004
10
-46.90971564395278
20
-20.90921104526357
10
-46.72961989823243
20
-20.89523790084657
10
-46.550280060550094
20
-20.879403343900258
10
-46.37172061206622
20
-20.861668213456696
10
-46.19396811154079
20
-20.84198885070891
10
-46.01705157263562
20
-20.82031628453443
10
-45.841002942386964
20
-20.796595198699045
10
-45.665857718462114
20
-20.77076259957186
10
-45.49165576142948
20
-20.74274606301209
10
-45.31844238885947
20
-20.712461373079854
10
-45.146269890509274
20
-20.67980925206952
10
-44.97519969840332
20
-20.64467067731287
10
-44.805305626993395
20
-20.60689988880521
10
-44.63667897436841
20
-20.566313380782635
10
-44.469437135663306
20
-20.52267131415443
10
-44.30373963349528
20
-20.475642923371716
10
-44.139822661739764
20
-20.424731972460577
10
-43.978095196226406
20
-20.36906935280432
10
-43.819707405315086
20
-20.30618648204493
0
ARC
5
168
330
E4
100
AcDbEntity
100
AcDbCircle
8
0
10
-43.863148342483655
20
-21.566058059503874
30
0
40
1.2606202864903464
100
AcDbArc
50
324.33843817723454
51
88.02519818640205
0
LWPOLYLINE
5
169
330
E4
100
AcDbEntity
100
AcDbPolyline
8
0
6
ByLayer
62
256
370
-1
90
21
70
0
10
-42.8389260945489
20
-22.300994991183398
10
-42.98544234981345
20
-22.388023346838125
10
-43.1282802372277
20
-22.482105429337423
10
-43.26869228483504
20
-22.58082298319129
10
-43.40711700147777
20
-22.68332142018772
10
-43.54380312624894
20
-22.789110672421042
10
-43.678915180981626
20
-22.897862432291333
10
-43.812571407700204
20
-23.009337277095373
10
-43.94486137404684
20
-23.123350850265872
10
-44.075855433058116
20
-23.239755689934874
10
-44.2056103257169
20
-23.358430467004307
10
-44.33417273963187
20
-23.479273149377555
10
-44.46158169251668
20
-23.60219642368372
10
-44.5878701964395
20
-23.72712449860114
10
-44.71306645962285
20
-23.853990796520232
10
-44.83719477872689
20
-23.982736239770105
10
-44.96027621696243
20
-24.11330794825471
10
-45.08232912978628
20
-24.245658229874458
10
-45.20336957948819
20
-24.37974378438137
10
-45.32341166707903
20
-24.515525066093918
10
-45.44246780149524
20
-24.652965767024213
0
ARC
5
16A
330
E4
100
AcDbEntity
100
AcDbCircle
8
0
10
0
20
0
30
0
40
51.699
100
AcDbArc
50
208.4803409787299
51
210.428749930361
0
LWPOLYLINE
5
16B
330
E4
100
AcDbEntity
100
AcDbPolyline
8
0
6
ByLayer
62
256
370
-1
90
21
70
0
10
-44.57791835071922
20
-26.18388429008595
10
-44.39874085415539
20
-26.15290471391941
10
-44.22047525591278
20
-26.12022389783606
10
-44.04314624035833
20
-26.085812466102432
10
-43.86678039067186
20
-26.04963792204198
10
-43.691406492453076
20
-26.011664150590324
10
-43.51705590807389
20
-25.97185080499064
10
-43.34376304436471
20
-25.930152540635408
10
-43.17156594569804
20
-25.886518043543973
10
-43.000507059090815
20
-25.84088877712374
10
-42.83063424101962
20
-25.793197333076044
10
-42.66200211355665
20
-25.743365210216524
10
-42.4946739424263
20
-25.69129973854106
10
-42.328724326784524
20
-25.63688967392574
10
-42.16424321532942
20
-25.5799986206816
10
-42.00134222912556
20
-25.520454676381757
10
-41.84016533769142
20
-25.458032947307085
10
-41.68090872826482
20
-25.392423008134152
10
-41.523863621785296
20
-25.32315878155931
10
-41.36953539918638
20
-25.249423443777278
10
-41.21934812890961
20
-25.168895612616108
0
ARC
5
16C
330
E4
100
AcDbEntity
100
AcDbCircle
8
0
10
-41.11889136915744
20
-26.42550690738115
30
0
40
1.2606202864903464
100
AcDbArc
50
330.88389272268904
51
94.57065273185661
0
LWPOLYLINE
5
16D
330
E4
100
AcDbEntity
100
AcDbPolyline
8
0
6
ByLayer
62
256
370
-1
90
21
70
0
10
-40.017568775873855
20
-27.03890078755452
10
-40.1532095144493
20
-27.142063463864393
10
-40.284391797481604
20
-27.251814586623137
10
-40.412635649057634
20
-27.36589444060762
10
-40.538474135418184
20
-27.483503994279154
10
-40.662210237840576
20
-27.604184728244277
10
-40.78404483000722
20
-27.727629228974614
10
-40.90412267534119
20
-27.853613112962538
10
-41.02255377272408
20
-27.98196343526748
10
-41.13942482599901
20
-28.112541714858793
10
-41.25480603677103
20
-28.245233881478207
10
-41.368755419109185
20
-28.379943890087645
10
-41.48132168937361
20
-28.51658944413208
10
-41.59254628401068
20
-28.655099009409923
10
-41.70246481664984
20
-28.795409657777125
10
-41.811108159926185
20
-28.93746546625724
10
-41.91850326763164
20
-29.08121630046578
10
-42.024673812066986
20
-29.226616871537267
10
-42.12964068668001
20
-29.37362599242927
10
-42.233422408435466
20
-29.522205982623596
10
-42.33603544418378
20
-29.672322185309568
0
ARC
5
16E
330
E4
100
AcDbEntity
100
AcDbCircle
8
0
10
0
20
0
30
0
40
51.699
100
AcDbArc
50
215.02579552418445
51
216.97420447581558
0
LWPOLYLINE
5
16F
330
E4
100
AcDbEntity
100
AcDbPolyline
8
0
6
ByLayer
62
256
370
-1
90
21
70
0
10
-41.30260979466084
20
-31.094710565464126
10
-41.128131630004226
20
-31.04350822691986
10
-40.95475334641092
20
-30.990719686166116
10
-40.78250281592991
20
-30.936318572754008
10
-40.61141015280677
20
-30.880275632083087
10
-40.441508071816166
20
-30.8225582658076
10
-40.27283233008547
20
-30.763129965202573
10
-40.10542227906798
20
-30.70194960331174
10
-39.93932156450596
20
-30.638970537364205
10
-39.77457902940414
20
-30.574139450919688
10
-39.61124990226493
20
-30.507394830291886
10
-39.4493973975801
20
-30.438664912434962
10
-39.28909493227572
20
-30.367864843141525
10
-39.130429300125236
20
-30.294892607069272
10
-38.97350541145422
20
-30.219622950971353
10
-38.81845375515161
20
-30.141897816768903
10
-38.66544299825655
20
-30.06151018794799
10
-38.514703435026846
20
-29.978174026279426
10
-38.366577516955815
20
-29.89145948916027
10
-38.22166044166752
20
-29.80061268614411
10
-38.081631612775176
20
-29.703489698011794
0
ARC
5
170
330
E4
100
AcDbEntity
100
AcDbCircle
8
0
10
-37.83858676359445
20
-30.94045886011637
30
0
40
1.2606202864903464
100
AcDbArc
50
337.4293472681436
51
101.11610727731116
0
LWPOLYLINE
5
171
330
E4
100
AcDbEntity
100
AcDbPolyline
8
0
6
ByLayer
62
256
370
-1
90
21
70
0
10
-36.67452124922133
20
-31.42431316149047
10
-36.79751818664459
20
-31.542265275202816
10
-36.91533470361816
20
-31.66625466449314
10
-37.0297385044339
20
-31.794209613248896
10
-37.1413502633974
20
-31.925397063202787
10
-37.25052325414595
20
-32.059396020975086
10
-37.357492083515666
20
-32.19592397471441
10
-37.46242614911571
20
-32.33477450529092
10
-37.565454447063445
20
-32.47578833399254
10
-37.66667890169134
20
-32.61883776593795
10
-37.76618226004137
20
-32.763817476788944
10
-37.86403310634082
20
-32.91063866065995
10
-37.96028922050404
20
-33.05922511067324
10
-38.05499992316817
20
-33.20951048230503
10
-38.14820776909144
20
-33.3614363172414
10
-38.23994980441191
20
-33.51495057624186
10
-38.3302585221187
20
-33.67000652421184
10
-38.419162602751896
20
-33.82656186592965
10
-38.50668749853931
20
-33.98457806449444
10
-38.5928559010026
20
-34.14401979577454
10
-38.677688120235636
20
-34.30485450594104
0
ARC
5
172
330
E4
100
AcDbEntity
100
AcDbCircle
8
0
10
0
20
0
30
0
40
51.699
100
AcDbArc
50
221.57125006963895
51
223.5196590212701
0
LWPOLYLINE
5
173
330
E4
100
AcDbEntity
100
AcDbPolyline
8
0
6
ByLayer
62
256
370
-1
90
21
70
0
10
-37.488858555728136
20
-35.60016973539043
10
-37.32135431268501
20
-35.52941213525525
10
-37.155123594815564
20
-35.45720404918949
10
-36.99019709849604
20
-35.38352245580802
10
-36.826608076452544
20
-35.3083417239649
10
-36.664392746147584
20
-35.23163319700233
10
-36.50359079331514
20
-35.153364680174214
10
-36.34424600102505
20
-35.07349980032833
10
-36.18640704740029
20
-34.991997193963385
10
-36.03012853469015
20
-34.90880945985276
10
-35.8754723434349
20
-34.823881780847486
10
-35.72250945644828
20
-34.73715006758128
10
-35.57132248475614
20
-34.648538387847864
10
-35.42200928525985
20
-34.55795528501253
10
-35.2746883622459
20
-34.465288281138164
10
-35.12950737130537
20
-34.37039522302272
10
-34.986657478165334
20
-34.273089670134276
10
-34.84640008186567
20
-34.17311370028367
10
-34.70912440007458
20
-34.07007930922433
10
-34.57550768779539
20
-33.963305367983644
10
-34.44746279021859
20
-33.85085336956096
0
ARC
5
174
330
E4
100
AcDbEntity
100
AcDbCircle
8
0
10
-34.06499831290757
20
-35.05205461427651
30
0
40
1.2606202864903464
100
AcDbArc
50
343.97480181359816
51
107.66156182276569
0
LWPOLYLINE
5
175
330
E4
100
AcDbEntity
100
AcDbPolyline
8
0
6
ByLayer
62
256
370
-1
90
21
70
0
10
-32.85336525163351
20
-35.40006155607318
10
-32.96211493472568
20
-35.531265421001244
10
-33.06502976716464
20
-35.66787668551641
10
-33.16410208871839
20
-35.808038640604536
10
-33.26003209031856
20
-35.95109375780529
10
-33.353218732500295
20
-36.096664058045214
10
-33.44392729679451
20
-36.244495614123935
10
-33.532349606639556
20
-36.394402662278445
10
-33.61863197372691
20
-36.546241666466756
10
-33.70289021413885
20
-36.69989738265494
10
-33.78521854162001
20
-36.85527460548868
10
-33.86569521645566
20
-37.012292925955435
10
-33.9443863288648
20
-37.170883220327966
10
-34.02134844070541
20
-37.330985198662624
10
-34.096630493098175
20
-37.49254563456914
10
-34.17027522273099
20
-37.655517050954074
10
-34.242320238194424
20
-37.81985672127622
10
-34.31279885437315
20
-37.98552589534051
10
-34.381740750466285
20
-38.15248918877517
10
-34.44917249673373
20
-38.3207140943391
10
-34.515117981739614
20
-38.49017058557411
0
ARC
5
176
330
E4
100
AcDbEntity
100
AcDbCircle
8
0
10
0
20
0
30
0
40
51.699
100
AcDbArc
50
228.11670461509354
51
230.06511356672468
0
LWPOLYLINE
5
177
330
E4
100
AcDbEntity
100
AcDbPolyline
8
0
6
ByLayer
62
256
370
-1
90
21
70
0
10
-33.18638271370142
20
-39.641526249373136
10
-33.02803606624455
20
-39.55213582117462
10
-32.871119985723524
20
-39.461449532626744
10
-32.7156675926676
20
-39.36944801152709
10
-32.561714844783246
20
-39.276109584325475
10
-32.40930099007082
20
-39.18140990963535
10
-32.258469125506686
20
-39.08532152639727
10
-32.109266894997944
20
-38.98781328944271
10
-31.961747374454504
20
-38.888849653776504
10
-31.8159702135464
20
-38.788389751333156
10
-31.672003138144298
20
-38.68638617612637
10
-31.52992397401434
20
-38.582783347972374
10
-31.389823449321128
20
-38.477515246558404
10
-31.251809208379576
20
-38.37050216623444
10
-31.116011804552503
20
-38.26164587069504
10
-30.98259413521668
20
-38.15082196479938
10
-30.851767372649476
20
-38.03786701453499
10
-30.723820612936674
20
-37.92255457616286
10
-30.599184765873776
20
-37.8045435420216
10
-30.478610314788654
20
-37.68323442417016
10
-30.364218609586754
20
-37.55691939922969
0
ARC
5
178
330
E4
100
AcDbEntity
100
AcDbCircle
8
0
10
-29.847320513511235
20
-38.70669323133081
30
0
40
1.2606202864903464
100
AcDbArc
50
350.5202563590527
51
114.20701636822025
0
LWPOLYLINE
5
179
330
E4
100
AcDbEntity
100
AcDbPolyline
8
0
6
ByLayer
62
256
370
-1
90
21
70
0
10
-28.603915395243888
20
-38.91431601085569
10
-28.697000105574684
20
-39.05706118396968
10
-28.783671601250244
20
-39.20451338695673
10
-28.866120884318928
20
-39.35505512294259
10
-28.945118534278905
20
-39.50811296516288
10
-29.021103997502404
20
-39.663356876385684
10
-29.094369771864653
20
-39.820564824391106
10
-29.165127605921363
20
-39.97957412249765
10
-29.23353921954148
20
-40.140258848545244
10
-29.29973281071731
20
-40.30251771172956
10
-29.363812831675986
20
-40.466266866827546
10
-29.425866198518115
20
-40.6314353499542
10
-29.48596645018039
20
-40.797962021666216
10
-29.544176652371217
20
-40.965793432571765
10
-29.60055149455147
20
-41.13488228209154
10
-29.65513884682082
20
-41.30518627421568
10
-29.70798094308567
20
-41.47666724796219
10
-29.75911529826487
20
-41.64929050333071
10
-29.808575431615132
20
-41.823024269767856
10
-29.856391445750535
20
-41.997839280704774
10
-29.902590496281622
20
-42.173708428494734
0
ARC
5
17A
330
E4
100
AcDbEntity
100
AcDbCircle
8
0
10
0
20
0
30
0
40
51.699
100
AcDbArc
50
234.66215916054804
51
236.61056811217924
0
LWPOLYLINE
5
17B
330
E4
100
AcDbEntity
100
AcDbPolyline
8
0
6
ByLayer
62
256
370
-1
90
21
70
0
10
-28.45127162097027
20
-43.16609484479424
10
-28.3041468598093
20
-43.05923692946895
10
-28.158591057718453
20
-42.95125467289703
10
-28.014639327603398
20
-42.842132604604934
10
-27.872329863387243
20
-42.731853291186106
10
-27.731704431950483
20
-42.62039702385249
10
-27.592808979676896
20
-42.50774143322818
10
-27.455694390199593
20
-42.39386100815328
10
-27.320417445289756
20
-42.27872648552212
10
-27.18704206441361
20
-42.162304063207976
10
-27.05564093586173
20
-42.0445543643969
10
-26.926297713774993
20
-41.92543104266019
10
-26.799110060676213
20
-41.804878850254404
10
-26.674194004985612
20
-41.68283087159928
10
-26.55169044717966
20
-41.559204392681465
10
-26.43177540280437
20
-41.43389439810223
10
-26.31467729773386
20
-41.30676259098088
10
-26.20070915629012
20
-41.17761695806908
10
-26.090337962827803
20
-41.04616773515056
10
-25.98437764530155
20
-40.91190489055792
10
-25.88513040329141
20
-40.773373548623724
0
ARC
5
17C
330
E4
100
AcDbEntity
100
AcDbCircle
8
0
10
-25.240537245627447
20
-41.85673090785653
30
0
40
1.2606202864903464
100
AcDbArc
50
357.0657109045072
51
120.75247091367481
0
LWPOLYLINE
5
17D
330
E4
100
AcDbEntity
100
AcDbPolyline
8
0
6
ByLayer
62
256
370
-1
90
21
70
0
10
-23.981569757626538
20
-41.921262844660376
10
-24.057775993642064
20
-42.07368842432815
10
-24.127074257061114
20
-42.230059300822056
10
-24.19182564915004
20
-42.38901827595314
10
-24.252861092291237
20
-42.550083500147835
10
-24.310654789838573
20
-42.7129771805558
10
-24.365522642854497
20
-42.877512074467084
10
-24.417693564545797
20
-43.04355069315146
10
-24.46734257469306
20
-43.21098636991867
10
-24.514608581941758
20
-43.37973308767455
10
-24.559604915306952
20
-43.54971945437806
10
-24.602426013620406
20
-43.7208848763944
10
-24.64315190584389
20
-43.89317699561044
10
-24.681851339378383
20
-44.06654989998062
10
-24.718584039064094
20
-44.2409628313721
10
-24.75340238435251
20
-44.41637922625175
10
-24.786352683882402
20
-44.592765986683496
10
-24.81747616354241
20
-44.77009291522925
10
-24.846809745672036
20
-44.948332269331836
10
-24.874386672805997
20
-45.12745840462907
10
-24.900237013586253
20
-45.30744748567535
0
ARC
5
17E
330
E4
100
AcDbEntity
100
AcDbCircle
8
0
10
0
20
0
30
0
40
51.699
100
AcDbArc
50
241.2076137060026
51
243.15602265763377
0
LWPOLYLINE
5
17F
330
E4
100
AcDbEntity
100
AcDbPolyline
8
0
6
ByLayer
62
256
370
-1
90
21
70
0
10
-23.345254692047618
20
-46.12792737987941
10
-23.21126981344257
20
-46.00499503377176
10
-23.078971832261104
20
-45.88112452302776
10
-22.94839739603476
20
-45.756304480584106
10
-22.819586436987144
20
-45.63052194044896
10
-22.692582696383713
20
-45.503762083366944
10
-22.567434371034242
20
-45.37600792326473
10
-22.444194920951947
20
-45.24723991556801
10
-22.322924093532077
20
-45.11743546054992
10
-22.20368924474893
20
-44.986568262685026
10
-22.086567077710114
20
-44.85460748766859
10
-21.971645984371417
20
-44.72151662702367
10
-21.85902928843366
20
-44.5872519258149
10
-21.74883988981446
20
-44.45176013087869
10
-21.641227199250675
20
-44.31497512879748
10
-21.53637805582577
20
-44.17681265295096
10
-21.43453516112999
20
-44.03716134650154
10
-21.336031386970838
20
-43.89586612987786
10
-21.2413637044069
20
-43.75269235982849
10
-21.15139887522387
20
-43.60722611000249
10
-21.068589935984186
20
-43.45828441897306
0
ARC
5
180
330
E4
100
AcDbEntity
100
AcDbCircle
8
0
10
-20.304704974320153
20
-44.46110208537838
30
0
40
1.2606202864903464
100
AcDbArc
50
363.6111654499618
51
127.29792545912935
0
LWPOLYLINE
5
181
330
E4
100
AcDbEntity
100
AcDbPolyline
8
0
6
ByLayer
62
256
370
-1
90
21
70
0
10
-19.046587683134366
20
-44.38170190697608
10
-19.104921980005734
20
-44.54182079266179
10
-19.155943602326577
20
-44.70507180914904
10
-19.202152970015366
20
-44.87037575008809
10
-19.244430515994765
20
-45.03734862474229
10
-19.28327901863433
20
-45.20576850609752
10
-19.319033663930306
20
-45.37548538194885
10
-19.3519375455068
20
-45.546388753893154
10
-19.382176701405573
20
-45.71839260127346
10
-19.409898940038616
20
-45.89142730207012
10
-19.435224989791884
20
-46.06543484812851
10
-19.45825558107371
20
-46.24036580599479
10
-19.479076189571057
20
-46.41617728145402
10
-19.497760348149935
20
-46.59283149834069
10
-19.51437203842527
20
-46.77029477231299
10
-19.52896746635412
20
-46.948536748976096
10
-19.5415964116037
20
-47.12752982492206
10
-19.55230327358992
20
-47.30724869894486
10
-19.561127896395913
20
-47.487670018150204
10
-19.56810622910977
20
-47.668772094696024
10
-19.573270861414123
20
-47.850534676069366
0
ARC
5
182
330
E4
100
AcDbEntity
100
AcDbCircle
8
0
10
0
20
0
30
0
40
51.699
100
AcDbArc
50
247.75306825145714
51
249.7014772030883
0
LWPOLYLINE
5
183
330
E4
100
AcDbEntity
100
AcDbPolyline
8
0
6
ByLayer
62
256
370
-1
90
21
70
0
10
-17.934896666248438
20
-48.48841183799476
10
-17.815798367995395
20
-48.35100767223707
10
-17.698482914231693
20
-48.21286374886405
10
-17.582988009358132
20
-48.07397295240975
10
-17.469354803321217
20
-47.93432695332854
10
-17.357628441537063
20
-47.79391601508941
10
-17.24785874292234
20
-47.65272875636105
10
-17.140101046937325
20
-47.510751853948115
10
-17.034417287702663
20
-47.367969666124594
10
-16.930877379612603
20
-47.22436374676869
10
-16.829561040649466
20
-47.07991220605724
10
-16.73056024825965
20
-46.93458884940885
10
-16.633982640339507
20
-46.78836198510874
10
-16.539956386115662
20
-46.64119271664643
10
-16.44863745878795
20
-46.493032393089656
10
-16.36022108524408
20
-46.34381859514078
10
-16.274961078804022
20
-46.19346835771202
10
-16.193205819267725
20
-46.041865556608336
10
-16.115475785619953
20
-45.888833728476754
10
-16.042679273912015
20
-45.73406044844584
10
-15.977388178605727
20
-45.576650091040705
0
ARC
5
184
330
E4
100
AcDbEntity
100
AcDbCircle
8
0
10
-15.104169821628396
20
-46.48585480272498
30
0
40
1.2606202864903464
100
AcDbArc
50
370.1566199954163
51
133.84338000458388
0
LWPOLYLINE
5
185
330
E4
100
AcDbEntity
100
AcDbPolyline
8
0
6
ByLayer
62
256
370
-1
90
21
70
0
10
-13.863304210190762
20
-46.26355761186895
10
-13.903006091147454
20
-46.4292824090274
10
-13.935085927495615
20
-46.597285338847826
10
-13.96215086100833
20
-46.7667792559249
10
-13.985119357358911
20
-46.9374830342654
10
-14.004516215447683
20
-47.10923350584941
10
-14.020691536542586
20
-47.281919844615544
10
-14.03389942558793
20
-47.455459983003465
10
-14.044334513596239
20
-47.62978966780028
10
-14.05215158183734
20
-47.80485657969037
10
-14.05747718418895
20
-47.98061685063053
10
-14.060417029461044
20
-48.15703285178854
10
-14.061060925759465
20
-48.33407171203935
10
-14.059486232801914
20
-48.51170428356759
10
-14.055760354879839
20
-48.68990439494937
10
-14.049942591725243
20
-48.86864829664415
10
-14.042085545079686
20
-49.04791423962475
10
-14.032236209072096
20
-49.22768214875713
10
-14.020436830100664
20
-49.407933365250535
10
-14.0067255951555
20
-49.58865044051724
10
-13.991137190103576
20
-49.7698169689994
0
ARC
5
186
330
E4
100
AcDbEntity
100
AcDbCircle
8
0
10
0
20
0
30
0
40
51.699
100
AcDbArc
50
254.29852279691164
51
256.2469317485428
0
LWPOLYLINE
5
187
330
E4
100
AcDbEntity
100
AcDbPolyline
8
0
6
ByLayer
62
256
370
-1
90
21
70
0
10
-12.290729834515238
20
-50.21677569433304
10
-12.188070745069295
20
-50.06669098235853
10
-12.087267205074031
20
-49.916074563661574
10
-11.988357484264979
20
-49.7649236671345
10
-11.891383413859044
20
-49.61323470826629
10
-11.796390954883472
20
-49.46100316018085
10
-11.703430898896057
20
-49.30822339466194
10
-11.612559743369646
20
-49.15488848358144
10
-11.523840801744294
20
-49.00098994712797
10
-11.437345635393157
20
-48.846517429056824
10
-11.353155937927461
20
-48.69145826939368
10
-11.271366073217516
20
-48.53579692893916
10
-11.192086590130646
20
-48.37951419234905
10
-11.115449256320597
20
-48.22258602684143
10
-11.041614574100965
20
-48.06498187820866
10
-10.970783613082693
20
-47.9066619882068
10
-10.903217989470676
20
-47.74757286507462
10
-10.83927704939385
20
-47.587638853849924
10
-10.779497994523606
20
-47.42674397154785
10
-10.724818814148787
20
-47.264681367712456
10
-10.677896732053075
20
-47.1008544286685
0
ARC
5
188
330
E4
100
AcDbEntity
100
AcDbCircle
8
0
10
-9.706728716461015
20
-47.904593311765524
30
0
40
1.2606202864903464
100
AcDbArc
50
376.7020745408709
51
140.3888345500384
0
LWPOLYLINE
5
189
330
E4
100
AcDbEntity
100
AcDbPolyline
8
0
6
ByLayer
62
256
370
-1
90
21
70
0
10
-8.499291365675957
20
-47.54229709229831
10
-8.519843255983496
20
-47.711467324755134
10
-8.532563096632392
20
-47.882031992791156
10
-8.540130763170213
20
-48.05350627358962
10
-8.543490780416256
20
-48.225715570807964
10
-8.543183126245374
20
-48.39855760256516
10
-8.53956825309177
20
-48.57196217373057
10
-8.53290796457339
20
-48.745876717462785
10
-8.523402947360639
20
-48.92025958563189
10
-8.51121293777061
20
-49.095076443688576
10
-8.496468665349456
20
-49.27029813558812
10
-8.479279439232775
20
-49.44589932766926
10
-8.45973822915931
20
-49.621857600422246
10
-8.437925213196216
20
-49.798152814368166
10
-8.413910339593432
20
-49.97476665218563
10
-8.387755228795235
20
-50.151682278799925
10
-8.359514618873378
20
-50.32888408309649
10
-8.32923748602945
20
-50.50635747772331
10
-8.296967928230309
20
-50.68408874123908
10
-8.26274587254227
20
-50.86206489177942
10
-8.22660764883331
20
-51.04027358461313
0
ARC
5
18A
330
E4
100
AcDbEntity
100
AcDbCircle
8
0
10
0
20
0
30
0
40
51.699
100
AcDbArc
50
260.84397734236626
51
262.7923862939974
0
LWPOLYLINE
5
18B
330
E4
100
AcDbEntity
100
AcDbPolyline
8
0
6
ByLayer
62
256
370
-1
90
21
70
0
10
-6.486334543140311
20
-51.290487082835
10
-6.4014529807292435
20
-51.12967840838927
10
-6.318475482805401
20
-50.96855300972421
10
-6.237440385534522
20
-50.80711249621611
10
-6.158389656070038
20
-50.645358075118104
10
-6.081369471878042
20
-50.48329048822379
10
-6.006430935011813
20
-50.32090993380441
10
-5.933630964425811
20
-50.1582159691178
10
-5.863033427491992
20
-49.99520738681453
10
-5.794710599650476
20
-49.83188205553646
10
-5.72874508514023
20
-49.66823671020027
10
-5.665232404078134
20
-49.504266669565794
10
-5.604284575128912
20
-49.33996544516075
10
-5.546035246580568
20
-49.17532418123592
10
-5.490647357467347
20
-49.01033081862908
10
-5.438325198873536
20
-48.84496877845945
10
-5.389334779321649
20
-48.679214739639356
10
-5.34404172664326
20
-48.5130345027175
10
-5.30299296195106
20
-48.346374077092754
10
-5.267143939646577
20
-48.17913488333668
10
-5.239202571859636
20
-48.01102709734535
0
ARC
5
18C
330
E4
100
AcDbEntity
100
AcDbCircle
8
0
10
-4.1827455579461486
20
-48.69882218635376
30
0
40
1.2606202864903464
100
AcDbArc
50
383.24752908632547
51
146.93428909549297
0
LWPOLYLINE
5
18D
330
E4
100
AcDbEntity
100
AcDbPolyline
8
0
6
ByLayer
62
256
370
-1
90
21
70
0
10
-3.0244772602186756
20
-48.20125002355676
10
-3.0256112345568376
20
-48.371660298619354
10
-3.0188052569311257
20
-48.542563133578085
10
-3.006777000387474
20
-48.71378234861161
10
-2.990484735565696
20
-48.885252153158376
10
-2.970476579877772
20
-49.05693248487699
10
-2.947118637875456
20
-49.228794694668416
10
-2.9206769988397876
20
-49.40081640169936
10
-2.891355788841392
20
-49.57297910586994
10
-2.8593176168374597
20
-49.74526690500054
10
-2.824695683783003
20
-49.917665735138506
10
-2.787601474127518
20
-50.09016288805658
10
-2.7481299072399037
20
-50.262746688132914
10
-2.706362934293055
20
-50.43540626677395
10
-2.662372135612994
20
-50.608131399555084
10
-2.616220649039535
20
-50.780912385338404
10
-2.5679646353801533
20
-50.953739954436685
10
-2.5176544144294173
20
-51.12660519744842
10
-2.4653353608384063
20
-51.299499509161684
10
-2.4110486212392743
20
-51.47241454367393
10
-2.354831695885618
20
-51.64534217801303
0
ARC
5
18E
330
E4
100
AcDbEntity
100
AcDbCircle
8
0
10
0
20
0
30
0
40
51.699
100
AcDbArc
50
267.38943188782076
51
269.3378408394519
0
LWPOLYLINE
5
18F
330
E4
100
AcDbEntity
100
AcDbPolyline
8
0
6
ByLayer
62
256
370
-1
90
21
70
0
10
-0.5973799614253691
20
-51.6955485335216
10
-0.531382487024825
20
-51.5261122836012
10
-0.4673127697555697
20
-51.356578420949184
10
-0.40520871244300144
20
-51.186952914445065
10
-0.34511187107104613
20
-51.01724174736779
10
-0.2870680375507576
20
-50.8474509205102
10
-0.2311279582374878
20
-50.67758645604626
10
-0.1773482315416916
20
-50.50765440239158
10
-0.12579244615835533
20
-50.337660840398335
10
-0.07653264937367146
20
-50.16761189138047
10
-0.02965127918177108
20
-49.99751372771097
10
0.014756233304706415
20
-49.827372587136054
10
0.05657785995823328
20
-49.65719479264256
10
0.09567981416637844
20
-49.48698678096214
10
0.13189884433373775
20
-49.31675514518762
10
0.16503010114938868
20
-49.1465067019325
10
0.1948066516010967
20
-48.97624860480863
10
0.22086135267258944
20
-48.80598855571782
10
0.24264469376298892
20
-48.635735260292684
10
0.25919621116738234
20
-48.46549969526592
10
0.26779260618563694
20
-48.29530260440536
0
ARC
5
190
330
E4
100
AcDbEntity
100
AcDbCircle
8
0
10
1.3957660856014125
20
-48.858187438492884
30
0
40
1.2606202864903464
100
AcDbArc
50
389.7929836317799
51
153.4797436409475
0
LWPOLYLINE
5
191
330
E4
100
AcDbEntity
100
AcDbPolyline
8
0
6
ByLayer
62
256
370
-1
90
21
70
0
10
2.4897655316673992
20
-48.231825946446726
10
2.5080642563883013
20
-48.40125470557072
10
2.534307325961873
20
-48.57026772763626
10
2.5657746988681
20
-48.73899977259085
10
2.601506851169941
20
-48.907494713334515
10
2.640954671466983
20
-49.07577522933936
10
2.683751175822643
20
-49.24385459102279
10
2.7296294581734943
20
-49.41174089532802
10
2.7783846141441924
20
-49.5794390313623
10
2.829853281993889
20
-49.74695173662491
10
2.883901525836859
20
-49.91428022260042
10
2.940417139280008
20
-50.081424572166746
10
2.99930449074341
20
-50.24838400579952
10
3.0604809243072997
20
-50.4151570674793
10
3.1238741607285876
20
-50.58174175896925
10
3.189420367870221
20
-50.74813563953745
10
3.2570626943310153
20
-50.91433590176855
10
3.3267501327188995
20
-51.08033943035922
10
3.398436623226541
20
-51.246142848509024
10
3.4720803360652233
20
-51.41174255507884
10
3.547643089468884
20
-51.577134754751
0
ARC
5
192
330
E4
100
AcDbEntity
100
AcDbCircle
8
0
10
0
20
0
30
0
40
51.699
100
AcDbArc
50
273.93488643327527
51
275.88329538490643
0
LWPOLYLINE
5
193
330
E4
100
AcDbEntity
100
AcDbPolyline
8
0
6
ByLayer
62
256
370
-1
90
21
70
0
10
5.299362381661659
20
-51.426679450921476
10
5.34561539004274
20
-51.25082448616347
10
5.389942079910798
20
-51.075092292692794
10
5.432305475902073
20
-50.89949312107872
10
5.472664974947943
20
-50.72403765262481
10
5.510975767659983
20
-50.54873706889363
10
5.5471881249371195
20
-50.37360313745363
10
5.581246506759738
20
-50.19864831902786
10
5.613088432085709
20
-50.02388590339687
10
5.642643021029321
20
-49.84933018474599
10
5.66982907654661
20
-49.67499669243824
10
5.69455250061967
20
-49.50090250188764
10
5.716702716116139
20
-49.327066665110294
10
5.736147542212249
20
-49.15351082740614
10
5.752725542985647
20
-48.980260148172
10
5.766233981422819
20
-48.807344750650664
10
5.776408479901845
20
-48.63480216989523
10
5.782885166492445
20
-48.46268190875454
10
5.785119104816603
20
-48.29105525560375
10
5.782157342979258
20
-48.120042600238165
10
5.771296698073271
20
-47.949974983870625
0
ARC
5
194
330
E4
100
AcDbEntity
100
AcDbCircle
8
0
10
6.956081783674037
20
-48.380611498403546
30
0
40
1.2606202864903464
100
AcDbArc
50
396.3384381772345
51
160.02519818640206
0
LWPOLYLINE
5
195
330
E4
100
AcDbEntity
100
AcDbPolyline
8
0
6
ByLayer
62
256
370
-1
90
21
70
0
10
7.971550422242543
20
-47.633626257053486
10
8.00904329416148
20
-47.79986473725581
10
8.054381337137416
20
-47.964784603213445
10
8.104877601077243
20
-48.12882979784071
10
8.159583817608606
20
-48.292153285548856
10
8.21795703984953
20
-48.45484019196193
10
8.27963418867544
20
-48.61694553401358
10
8.34435102076924
20
-48.778507780867464
10
8.411904524692762
20
-48.93955514710098
10
8.482132715591618
20
-49.10010897420483
10
8.554902668708472
20
-49.26018573330726
10
8.630102918488562
20
-49.419798297310905
10
8.70763836784483
20
-49.578956792951175
10
8.787426733656957
20
-49.73766919576416
10
8.869395980035259
20
-49.895941759750926
10
8.953482412694973
20
-50.05377933640414
10
9.039629230786156
20
-50.211185617179346
10
9.127785404278601
20
-50.36816332148408
10
9.217904788668747
20
-50.5247143449512
10
9.309945416326585
20
-50.68083987815133
10
9.403868921731297
20
-50.836540502899055
0
ARC
5
196
330
E4
100
AcDbEntity
100
AcDbCircle
8
0
10
0
20
0
30
0
40
51.699
100
AcDbArc
50
280.4803409787298
51
282.428749930361
0
LWPOLYLINE
5
197
330
E4
100
AcDbEntity
100
AcDbPolyline
8
0
6
ByLayer
62
256
370
-1
90
21
70
0
10
11.127019431773471
20
-50.48738495470859
10
11.152924995435983
20
-50.307403813514114
10
11.176930791711479
20
-50.127764227114426
10
11.199001254728248
20
-49.9484805941367
10
11.219097263656069
20
-49.769568154662
10
11.237175575788054
20
-49.59104312525387
10
11.253188127572287
20
-49.41292286546696
10
11.26708116142909
20
-49.235226085887184
10
11.27879411850512
20
-49.05797311197087
10
11.288258210342864
20
-48.88118622442817
10
11.29539453937616
20
-48.70489010716311
10
11.300111567393404
20
-48.52911245065338
10
11.302301609799429
20
-48.35388478757224
10
11.301835814738315
20
-48.17924368960827
10
11.298556666524888
20
-48.00523255447111
10
11.292266183430057
20
-47.831904419330236
10
11.282705989788836
20
-47.659326711353266
10
11.26952022838402
20
-47.487590088990686
10
11.252175641139512
20
-47.3168274940072
10
11.229739211155408
20
-47.147267159795625
10
11.199563111440744
20
-46.979546109385375
0
ARC
5
198
330
E4
100
AcDbEntity
100
AcDbCircle
8
0
10
12.42571431774043
20
-47.27232029882307
30
0
40
1.2606202864903464
100
AcDbArc
50
402.883892722689
51
166.57065273185657
0
LWPOLYLINE
5
199
330
E4
100
AcDbEntity
100
AcDbPolyline
8
0
6
ByLayer
62
256
370
-1
90
21
70
0
10
13.349413962148622
20
-46.414449403156794
10
13.405612204342173
20
-46.57533043161902
10
13.46945416999468
20
-46.73400715880355
10
13.53832102894357
20
-46.89122692311673
10
13.611288130509596
20
-47.04724978635601
10
13.68782577047215
20
-47.202222210554666
10
13.767579507810321
20
-47.35624024193271
10
13.85029120676909
20
-47.5093722203699
10
13.935762395412022
20
-47.6616693180936
10
14.023834577491497
20
-47.81317120236696
10
14.114377572256055
20
-47.96390938923556
10
14.207282108113246
20
-48.113909373808774
10
14.302454862204831
20
-48.263192057064316
10
14.399814996896255
20
-48.411774742120514
10
14.499291658749227
20
-48.55967185368582
10
14.600822121683674
20
-48.706895472230926
10
14.704350375886852
20
-48.85345573995843
10
14.80982603394489
20
-48.99936117553518
10
14.917203468222182
20
-49.144618922314784
10
15.026441120359653
20
-49.28923494705674
10
15.137500941234977
20
-49.433214201123015
0
ARC
5
19A
330
E4
100
AcDbEntity
100
AcDbCircle
8
0
10
0
20
0
30
0
40
51.699
100
AcDbArc
50
287.02579552418445
51
288.97420447581555
0
LWPOLYLINE
5
19B
330
E4
100
AcDbEntity
100
AcDbPolyline
8
0
6
ByLayer
62
256
370
-1
90
21
70
0
10
16.80961876700908
20
-48.889910185106864
10
16.814839167313224
20
-48.70814919689706
10
16.818211117729575
20
-48.52694409430041
10
16.819700925533994
20
-48.346313236293895
10
16.819271462134505
20
-48.166276223058276
10
16.816881615240582
20
-47.98685409475036
10
16.81248561343136
20
-47.808069576602705
10
16.80603218237937
20
-47.62994738514295
10
16.797463474897313
20
-47.45251461652979
10
16.786713690718617
20
-47.27580124753507
10
16.773707260305365
20
-47.09984079481143
10
16.758356398592824
20
-46.924671202912464
10
16.740557717356403
20
-46.750336074091955
10
16.720187373489026
20
-46.57688642965928
10
16.697093825000547
20
-46.40438333988131
10
16.671086426440905
20
-46.232902064433716
10
16.641916172423983
20
-46.06253904358226
10
16.609239859588687
20
-45.89342490950761
10
16.572542859995373
20
-45.725752524264756
10
16.53092425504145
20
-45.55985498947277
10
16.481826092126287
20
-45.396667005408176
0
ARC
5
19C
330
E4
100
AcDbEntity
100
AcDbCircle
8
0
10
17.73335866299418
20
-45.54776211045092
30
0
40
1.2606202864903464
100
AcDbArc
50
409.4293472681436
51
173.11610727731116
0
LWPOLYLINE
5
19D
330
E4
100
AcDbEntity
100
AcDbPolyline
8
0
6
ByLayer
62
256
370
-1
90
21
70
0
10
18.55324747576057
20
-44.590189219537905
10
18.627418458197607
20
-44.743615466018205
10
18.70893206887071
20
-44.89398046062601
10
18.79527173800397
20
-45.04232519456064
10
18.885548486846943
20
-45.18901343670252
10
18.979252759344984
20
-45.33425107613754
10
19.076043373261594
20
-45.47817393626275
10
19.17567166559816
20
-45.62087933675913
10
19.277946291305206
20
-45.76244074039579
10
19.382714308982848
20
-45.90291562308489
10
19.489849978990694
20
-46.04235013492947
10
19.599247648220903
20
-46.180782060877945
10
19.710816984650254
20
-46.31824280367408
10
19.82447964997214
20
-46.454758768445856
10
19.94016689688258
20
-46.590352362560964
10
20.057817785236576
20
-46.72504273798071
10
20.17737782643215
20
-46.85884635543565
10
20.29879793254877
20
-46.991777421798055
10
20.422033587644776
20
-47.12384823501779
10
20.547044184408815
20
-47.255069460257346
10
20.673792486145533
20
-47.38545035387753
0
ARC
5
19E
330
E4
100
AcDbEntity
100
AcDbCircle
8
0
10
0
20
0
30
0
40
51.699
100
AcDbArc
50
293.57125006963895
51
295.5196590212701
0
LWPOLYLINE
5
19F
330
E4
100
AcDbEntity
100
AcDbPolyline
8
0
6
ByLayer
62
256
370
-1
90
21
70
0
10
22.27307901461796
20
-46.655080668760874
10
22.257546195662204
20
-46.473909365984674
10
22.240240341688995
20
-46.2935010328209
10
22.221130072357965
20
-46.113877749259
10
22.200180735343363
20
-45.9350632200611
10
22.177353884732586
20
-45.757083034686694
10
22.152606637936316
20
-45.57996498778802
10
22.12589087231854
20
-45.40373947961674
10
22.097152206484576
20
-45.228440023794064
10
22.06632868616589
20
-45.054103902360445
10
22.033349055017293
20
-44.8807730277763
10
21.99813042553351
20
-44.70849510400586
10
21.96057505368414
20
-44.537325234461385
10
21.920565719595235
20
-44.367328224932216
10
21.87795883055328
20
-44.19858202209819
10
21.832573562742247
20
-44.03118312701613
10
21.784173527220887
20
-43.86525573580366
10
21.732432648664897
20
-43.700968751381325
10
21.676861638233305
20
-43.538572441842625
10
21.616603420472593
20
-43.37850043454381
10
21.549223263996492
20
-43.221972921761015
0
ARC
5
1A0
330
E4
100
AcDbEntity
100
AcDbCircle
8
0
10
22.809821558398944
20
-43.229419186644385
30
0
40
1.2606202864903464
100
AcDbArc
50
415.97480181359816
51
179.6615618227657
0
LWPOLYLINE
5
1A1
330
E4
100
AcDbEntity
100
AcDbPolyline
8
0
6
ByLayer
62
256
370
-1
90
21
70
0
10
23.515211034990823
20
-42.18462772753668
10
23.606387825485378
20
-42.32859904627698
10
23.704510426604944
20
-42.468692070649716
10
23.80719733629592
20
-42.60622787373493
10
23.91360683693418
20
-42.741669189212324
10
24.02325616347348
20
-42.875278649141336
10
24.135821840293957
20
-43.00723008343033
10
24.251067918855878
20
-43.137648522850654
10
24.368812675472064
20
-43.266628763013614
10
24.488910717415415
20
-43.394245339193944
10
24.611242385365102
20
-43.52055843391502
10
24.735707022047748
20
-43.64561762937966
10
24.862218463891196
20
-43.76946442071493
10
24.99070189317643
20
-43.89213397082722
10
25.12109156496001
20
-44.01365637762917
10
25.253329119480025
20
-44.13405761489757
10
25.38736229968749
20
-44.25336024730017
10
25.523143957091335
20
-44.371583984706334
10
25.66063126777724
20
-44.48874611933959
10
25.79978510485996
20
-44.604861875728766
10
25.940569529508387
20
-44.719944694562635
0
ARC
5
1A2
330
E4
100
AcDbEntity
100
AcDbCircle
8
0
10
0
20
0
30
0
40
51.699
100
AcDbArc
50
300.11670461509345
51
302.0651135667246
0
LWPOLYLINE
5
1A3
330
E4
100
AcDbEntity
100
AcDbPolyline
8
0
6
ByLayer
62
256
370
-1
90
21
70
0
10
27.446175614986977
20
-43.81203082614745
10
27.41009207082079
20
-43.633811053802326
10
27.37233402073046
20
-43.456551388593205
10
27.332872805850098
20
-43.28027734367556
10
27.291676701866248
20
-43.105016419365064
10
27.24871043044551
20
-42.93079842082612
10
27.20393455687021
20
-42.757655849784896
10
27.157304737547975
20
-42.58562439390329
10
27.10877076582137
20
-42.414743547363706
10
27.058275341088546
20
-42.24505741144682
10
27.005752449132476
20
-42.07661574802778
10
26.951125180572724
20
-41.90947539858735
10
26.894302709815992
20
-41.74370224933899
10
26.835175968361803
20
-41.579374045709464
10
26.773611184723876
20
-41.416584594637385
10
26.709439714035188
20
-41.255450380521864
10
26.64244086549073
20
-41.09612173624607
10
26.572309942693497
20
-40.938803633562564
10
26.498589374529512
20
-40.783800483975995
10
26.420477101983586
20
-40.63164078758407
10
26.335693355330882
20
-40.483814321590195
0
ARC
5
1A4
330
E4
100
AcDbEntity
100
AcDbCircle
8
0
10
27.58892354666372
20
-40.34751467286384
30
0
40
1.2606202864903464
100
AcDbArc
50
422.52025635905267
51
186.20701636822025
0
LWPOLYLINE
5
1A5
330
E4
100
AcDbEntity
100
AcDbPolyline
8
0
6
ByLayer
62
256
370
-1
90
21
70
0
10
28.170617856499547
20
-39.229125100033514
10
28.277611826150597
20
-39.361764604718275
10
28.391064239551856
20
-39.48975933203858
10
28.50875970889334
20
-39.61469321474726
10
28.62991475075371
20
-39.73712191888213
10
28.754079684675794
20
-39.85736139566563
10
28.88095295865577
20
-39.975621215378744
10
29.010314414562824
20
-40.09205248991586
10
29.141994319118258
20
-40.206770111924726
10
29.275856723684306
20
-40.31986470436139
10
29.411789609201936
20
-40.43140969759828
10
29.54969862645373
20
-40.541465824712816
10
29.689502903592533
20
-40.65008413226291
10
29.831132118850295
20
-40.7573080825311
10
29.974524386730025
20
-40.863175071602654
10
30.119624688661606
20
-40.96771755646198
10
30.266383680399628
20
-41.070963911549
10
30.41475676753516
20
-41.17293909278192
10
30.56470337645643
20
-41.27366516122736
10
30.716186370783088
20
-41.37316170230545
10
30.869171578065906
20
-41.47144616581303
0
ARC
5
1A6
330
E4
100
AcDbEntity
100
AcDbCircle
8
0
10
0
20
0
30
0
40
51.699
100
AcDbArc
50
306.662159160548
51
308.6105681121792
0
LWPOLYLINE
5
1A7
330
E4
100
AcDbEntity
100
AcDbPolyline
8
0
6
ByLayer
62
256
370
-1
90
21
70
0
10
32.26146934269869
20
-40.39782415984941
10
32.20530547750295
20
-40.224879285219906
10
32.14758746522191
20
-40.053079138785165
10
32.08828974207634
20
-39.882452334263675
10
32.02738392534
20
-39.71302980901601
10
31.9648383641657
20
-39.54484519535558
10
31.9006175857993
20
-39.37793527837276
10
31.834681603778588
20
-39.212340567896455
10
31.766985040703954
20
-39.04810602380318
10
31.697475996641177
20
-38.8852819916862
10
31.626094560097695
20
-38.72392543411325
10
31.552770802449288
20
-38.564101589066
10
31.477422000590284
20
-38.40588626663157
10
31.39994865926836
20
-38.249369138343596
10
31.320228572140376
20
-38.094658648482564
10
31.23810747183208
20
-37.94188974623761
10
31.153383242716835
20
-37.791236941438385
10
31.065776539508445
20
-37.642938602549215
10
30.974867473959158
20
-37.497349316016404
10
30.879919459557982
20
-37.35508556487211
10
30.778837408526325
20
-37.21788728972281
0
ARC
5
1A8
330
E4
100
AcDbEntity
100
AcDbCircle
8
0
10
32.008361724676966
20
-36.939618601751334
30
0
40
1.2606202864903464
100
AcDbArc
50
429.0657109045072
51
192.75247091367476
0
LWPOLYLINE
5
1A9
330
E4
100
AcDbEntity
100
AcDbPolyline
8
0
6
ByLayer
62
256
370
-1
90
21
70
0
10
32.458777592841265
20
-35.762210833636615
10
32.58019391162822
20
-35.881789365476294
10
32.70749711159938
20
-35.99601718873085
10
32.83866680015648
20
-36.106720446840136
10
32.97298794198555
20
-36.21454049424351
10
33.11004980349095
20
-36.319842482419034
10
33.24957668747643
20
-36.42286898995121
10
33.39136709631803
20
-36.523795239882865
10
33.53526549987837
20
-36.622754724096765
10
33.681147165907426
20
-36.71985297182146
10
33.82890917594772
20
-36.81517570400124
10
33.97846471882413
20
-36.90879401283958
10
34.1297392687027
20
-37.00076783085529
10
34.282667916518136
20
-37.09114835310973
10
34.43719344299198
20
-37.179979786345655
10
34.59326488799715
20
-37.267300647628616
10
34.75083646336947
20
-37.35314475126655
10
34.90986671013849
20
-37.437541973887924
10
35.07031783393404
20
-37.5205188578027
10
35.232155173010206
20
-37.60209909399641
10
35.395346766789764
20
-37.68230391388914
0
ARC
5
1AA
330
E4
100
AcDbEntity
100
AcDbCircle
8
0
10
0
20
0
30
0
40
51.699
100
AcDbArc
50
313.2076137060026
51
315.15602265763374
0
LWPOLYLINE
5
1AB
330
E4
100
AcDbEntity
100
AcDbPolyline
8
0
6
ByLayer
62
256
370
-1
90
21
70
0
10
36.65618547996974
20
-36.45697007511808
10
36.580673475618845
20
-36.29155469913009
10
36.50374794370551
20
-36.12745374911296
10
36.42538674880011
20
-35.964698566324635
10
36.34556521977587
20
-35.80332312185476
10
36.264255745889024
20
-35.64336443671712
10
36.18142727879056
20
-35.48486309981641
10
36.097044710433096
20
-35.32786391504092
10
36.01106808423865
20
-35.17241672184058
10
35.92345157753567
20
-35.01857745378941
10
35.834142162593956
20
-34.86640953155357
10
35.74307780317208
20
-34.71598573913877
10
35.650184957074174
20
-34.567390822205354
10
35.55537499936885
20
-34.42072520938826
10
35.45853888200269
20
-34.27611056857282
10
35.35953872620534
20
-34.133698554469106
10
35.25819362641483
20
-33.99368557885079
10
35.1542532301488
20
-33.85634029939645
10
35.04734080591114
20
-33.722062854917475
10
34.9367948422267
20
-33.591549674581344
10
34.82073224593636
20
-33.466768179610916
0
ARC
5
1AC
330
E4
100
AcDbEntity
100
AcDbCircle
8
0
10
36.01052195712869
20
-33.05015811029913
30
0
40
1.2606202864903464
100
AcDbArc
50
435.61116544996185
51
199.29792545912935
0
LWPOLYLINE
5
1AD
330
E4
100
AcDbEntity
100
AcDbPolyline
8
0
6
ByLayer
62
256
370
-1
90
21
70
0
10
36.32378752395757
20
-31.829081457770574
10
36.45804334448272
20
-31.93404012773085
10
36.597537739127
20
-32.03301191255458
10
36.74047164941119
20
-32.12804135979621
10
36.886207809707514
20
-32.21984715126066
10
37.0343797878224
20
-32.30883887837371
10
37.18474133550177
20
-32.39528896564055
10
37.33711224245817
20
-32.47939446295206
10
37.49135320926877
20
-32.561305721155236
10
37.647352346146896
20
-32.64114180001623
10
37.80501717693611
20
-32.718999593547615
10
37.96426956022
20
-32.794959626283294
10
38.125042287736065
20
-32.86908993539097
10
38.287276709310675
20
-32.94144878130488
10
38.450921017824726
20
-33.01208660512277
10
38.61592897593731
20
-33.081047481862505
10
38.78225894848429
20
-33.148370224878796
10
38.94987315241473
20
-33.214089242022844
10
39.11873706530754
20
-33.27823521082833
10
39.28881895192004
20
-33.340835618997964
10
39.46008948020204
20
-33.40191520279111
0
ARC
5
1AE
330
E4
100
AcDbEntity
100
AcDbCircle
8
0
10
0
20
0
30
0
40
51.699
100
AcDbArc
50
319.75306825145714
51
321.7014772030883
0
LWPOLYLINE
5
1AF
330
E4
100
AcDbEntity
100
AcDbPolyline
8
0
6
ByLayer
62
256
370
-1
90
21
70
0
10
40.57303218109862
20
-32.04084363170757
10
40.47915645205
20
-31.885114196757307
10
40.3840262424553
20
-31.730851750001317
10
40.287623133803656
20
-31.578089951655784
10
40.18992648819365
20
-31.426865363674303
10
40.0909130949332
20
-31.277217913145513
10
39.9905567348411
20
-31.12919146364995
10
39.88882763597194
20
-30.98283452904814
10
39.785691783464436
20
-30.838201178629937
10
39.6811100292783
20
-30.695352204770476
10
39.57503692074326
20
-30.55435665944893
10
39.467419122737965
20
-30.415293923844246
10
39.35819323271134
20
-30.278256574400707
10
39.247282651414466
20
-30.143354487613713
10
39.13459291069175
20
-30.010720968846474
10
39.02000431783738
20
-29.880522401278956
10
38.90335953573473
20
-29.752974538100975
10
38.78444046843272
20
-29.628372823841698
10
38.66291845245812
20
-29.507157733256218
10
38.53821567518531
20
-29.39009656262812
10
38.408685587073805
20
-29.279358565452206
0
ARC
5
1B0
330
E4
100
AcDbEntity
100
AcDbCircle
8
0
10
39.54322996487356
20
-28.729838264176585
30
0
40
1.2606202864903464
100
AcDbArc
50
442.1566199954163
51
205.84338000458388
0
LWPOLYLINE
5
1B1
330
E4
100
AcDbEntity
100
AcDbPolyline
8
0
6
ByLayer
62
256
370
-1
90
21
70
0
10
39.71526133462551
20
-27.481011328795926
10
39.86060642695048
20
-27.569981840100265
10
40.01047349350453
20
-27.652407337920163
10
40.16330826340601
20
-27.730524120120513
10
40.31855954844538
20
-27.805118826755468
10
40.475909994835206
20
-27.876640149547814
10
40.63514601348609
20
-27.945386807453414
10
40.79611103076386
20
-28.011575108364536
10
40.958683793941184
20
-28.0753703020392
10
41.12276671434923
20
-28.136903426655003
10
41.28827896370075
20
-28.196281286131153
10
41.455152089030896
20
-28.25359278757157
10
41.62332707581107
20
-28.308913185824277
10
41.79275229735407
20
-28.362307047182583
10
41.96338203408512
20
-28.413830389522346
10
42.135175374223984
20
-28.463532271228484
10
42.30809537838456
20
-28.51145599871105
10
42.482108431995314
20
-28.557640062485003
10
42.65718373463674
20
-28.602118875379205
10
42.83329289128686
20
-28.644923363469307
10
43.01040958081063
20
-28.686081445378925
0
ARC
5
1B2
330
E4
100
AcDbEntity
100
AcDbCircle
8
0
10
0
20
0
30
0
40
51.699
100
AcDbArc
50
326.29852279691164
51
328.2469317485428
0
LWPOLYLINE
5
1B3
330
E4
100
AcDbEntity
100
AcDbPolyline
8
0
6
ByLayer
62
256
370
-1
90
21
70
0
10
43.960947359291126
20
-27.20701579140268
10
43.84993171923735
20
-27.0630024688322
10
43.737836999726255
20
-26.920589572244833
10
43.62464873927921
20
-26.77981264200257
10
43.51035060226672
20
-26.640710354282024
10
43.39492408063527
20
-26.503325021736
10
43.27834812617862
20
-26.367703210792044
10
43.160598691176126
20
-26.233896512830533
10
43.041648145918955
20
-26.101962522105374
10
42.92146452735267
20
-25.97196609727122
10
42.80001055041197
20
-25.843981021422145
10
42.67724227640046
20
-25.718092238055224
10
42.55310726896109
20
-25.59439894752317
10
42.42754195311572
20
-25.473019041773703
10
42.30046767214352
20
-25.35409572580862
10
42.17178447978067
20
-25.23780794221859
10
42.041360658485786
20
-25.124387972936788
10
41.90901321205337
20
-25.0141541977717
10
41.77446582966402
20
-24.90758168516009
10
41.63723193021291
20
-24.80549859562115
10
41.495922973069504
20
-24.710247735384876
0
ARC
5
1B4
330
E4
100
AcDbEntity
100
AcDbCircle
8
0
10
42.56043149645005
20
-24.034981039655534
30
0
40
1.2606202864903464
100
AcDbArc
50
448.70207454087085
51
212.38883455003838
0
LWPOLYLINE
5
1B5
330
E4
100
AcDbEntity
100
AcDbPolyline
8
0
6
ByLayer
62
256
370
-1
90
21
70
0
10
42.58898597713231
20
-22.77468419036008
10
42.743525545701985
20
-22.84650667633077
10
42.901811537761105
20
-22.911311344729192
10
43.06255473232356
20
-22.97149709016808
10
43.22529720417926
20
-23.02790825589463
10
43.38977481513883
20
-23.081026784545912
10
43.555809419738026
20
-23.131173795270012
10
43.72327012217267
20
-23.17858203405642
10
43.89205529712571
20
-23.223429495290834
10
44.062082929263674
20
-23.265857487279288
10
44.23328489188883
20
-23.305981331495204
10
44.405603312877
20
-23.34389715857244
10
44.57898814077812
20
-23.37968645997731
10
44.7533954454242
20
-23.413419266141815
10
44.92878619080942
20
-23.44515644144126
10
45.10512532406179
20
-23.474951388076526
10
45.282381083134666
20
-23.502851340947736
10
45.460524460153245
20
-23.528898371450882
10
45.639528778230186
20
-23.55313017908615
10
45.81936935273676
20
-23.575580725133428
10
46.00002321658929
20
-23.59628074661865
0
ARC
5
1B6
330
E4
100
AcDbEntity
100
AcDbCircle
8
0
10
0
20
0
30
0
40
51.699
100
AcDbArc
50
332.84397734236626
51
334.7923862939974
0
LWPOLYLINE
5
1B7
330
E4
100
AcDbEntity
100
AcDbPolyline
8
0
6
ByLayer
62
256
370
-1
90
21
70
0
10
46.77576435905102
20
-22.01850289248868
10
46.64905606663673
20
-21.88808311619768
10
46.52145816330486
20
-21.7593763396784
10
46.39296033313646
20
-21.632419520115697
10
46.263550755733924
20
-21.507252943706053
10
46.13321586696306
20
-21.383920757056316
10
46.00194006398815
20
-21.26247162237645
10
45.86970533681213
20
-21.142959535994137
10
45.73649080107413
20
-21.025444866298166
10
45.60227209539285
20
-20.909995692690938
10
45.46702058837583
20
-20.796689567505965
10
45.33070231055974
20
-20.68561588919008
10
45.19327647536962
20
-20.57687918877611
10
45.054693360895214
20
-20.470603836762248
10
44.91489114726106
20
-20.3669410708927
10
44.773790937597745
20
-20.266080060378503
10
44.63128835107875
20
-20.16826658774595
10
44.48723787687949
20
-20.073837817515162
10
44.341419158968534
20
-19.98329721856097
10
44.19344319109068
20
-19.89752301929929
10
44.042197543275925
20
-19.819001036633253
0
ARC
5
1B8
330
E4
100
AcDbEntity
100
AcDbCircle
8
0
10
45.02279271567905
20
-19.02679108051634
30
0
40
1.2606202864903464
100
AcDbArc
50
455.2475290863254
51
218.93428909549297
0
LWPOLYLINE
5
1B9
330
E4
100
AcDbEntity
100
AcDbPolyline
8
0
6
ByLayer
62
256
370
-1
90
21
70
0
10
44.90749805596743
20
-17.77145421411236
10
45.06921744116769
20
-17.825192358806433
10
45.233858858758175
20
-17.87153136982484
10
45.40041494461544
20
-17.91300146526823
10
45.56852700628429
20
-17.950493684271375
10
45.73798756461866
20
-17.98451693752631
10
45.90865624017802
20
-18.015410558094146
10
46.08042952141516
20
-18.043420695861695
10
46.25322673526473
20
-18.068735769413323
10
46.42698250892396
20
-18.09150551501361
10
46.60164230542028
20
-18.111852268298428
10
46.77715958792182
20
-18.129878130221737
10
46.95349392055428
20
-18.145669766502284
10
47.13060964236578
20
-18.159301758756957
10
47.30847490981349
20
-18.170839024400298
10
47.487060985901486
20
-18.180338613269804
10
47.6663416999894
20
-18.1878510729765
10
47.84629302906119
20
-18.193421507332435
10
48.02689276753569
20
-18.197090411038467
10
48.2081202629793
20
-18.19889433784151
10
48.3899562017708
20
-18.198866442465675
0
ARC
5
1BA
330
E4
100
AcDbEntity
100
AcDbCircle
8
0
10
0
20
0
30
0
40
51.699
100
AcDbArc
50
339.38943188782076
51
341.3378408394519
0
LWPOLYLINE
5
1BB
330
E4
100
AcDbEntity
100
AcDbPolyline
8
0
6
ByLayer
62
256
370
-1
90
21
70
0
10
48.9807877360786
20
-16.542945135410815
10
48.84003862767078
20
-16.42781912663459
10
48.698600974323895
20
-16.314496359846977
10
48.5564687401625
20
-16.203014727262257
10
48.413634774117796
20
-16.093415599904617
10
48.27009063280418
20
-15.985744382816426
10
48.12582636216324
20
-15.880051199603717
10
47.980830224709386
20
-15.776391747616778
10
47.83508835368929
20
-15.674828382384996
10
47.68858430698262
20
-15.575431516539428
10
47.541298480123785
20
-15.47828146063973
10
47.393207315726364
20
-15.383470902637022
10
47.24428220871293
20
-15.291108341522385
10
47.094487938442214
20
-15.201323004984832
10
46.943780327800766
20
-15.114272191895703
10
46.79210255785492
20
-15.03015283197642
10
46.63937894525669
20
-14.949221004195316
10
46.48550336151859
20
-14.871828262328975
10
46.330314278074994
20
-14.798499912203566
10
46.17352533481176
20
-14.730152801081253
10
46.01431471464533
20
-14.669383350113405
0
ARC
5
1BC
330
E4
100
AcDbEntity
100
AcDbCircle
8
0
10
46.89821297837171
20
-13.770557801915883
30
0
40
1.2606202864903464
100
AcDbArc
50
461.79298363178
51
225.4797436409475
0
LWPOLYLINE
5
1BD
330
E4
100
AcDbEntity
100
AcDbPolyline
8
0
6
ByLayer
62
256
370
-1
90
21
70
0
10
46.64057222047602
20
-12.536546154247226
10
46.80736316280285
20
-12.571499398766695
10
46.97621365325982
20
-12.598768652530083
10
47.146411317118044
20
-12.620982471863531
10
47.317701370781926
20
-12.639066975731605
10
47.489935698956685
20
-12.653551408452145
10
47.663013518286185
20
-12.664788893273917
10
47.83686005091153
20
-12.67303577504083
10
48.01141662771583
20
-12.678488440211504
10
48.186635370661456
20
-12.681303100967888
10
48.36247604347387
20
-12.681607512276186
10
48.5389040512923
20
-12.679508414368403
10
48.71588910096161
20
-12.675096517395513
10
48.89340426564115
20
-12.66844998187387
10
49.0714253093803
20
-12.65963693195947
10
49.249930185689905
20
-12.648717321394557
10
49.428898656510206
20
-12.635744351535637
10
49.60831199686066
20
-12.620765570613646
10
49.78815276195
20
-12.60382374061977
10
49.968404600775806
20
-12.584957531233947
10
50.1490521049619
20
-12.564202082655944
0
ARC
5
1BE
330
E4
100
AcDbEntity
100
AcDbCircle
8
0
10
0
20
0
30
0
40
51.699
100
AcDbArc
50
345.9348864332753
51
347.8832953849065
0
LWPOLYLINE
5
1BF
330
E4
100
AcDbEntity
100
AcDbPolyline
8
0
6
ByLayer
62
256
370
-1
90
21
70
0
10
50.547271638505684
20
-10.851724789318903
10
50.394316593980456
20
-10.75339339164439
10
50.24088304673095
20
-10.656931970158354
10
50.08696931961209
20
-10.562378858121548
10
49.932573024109004
20
-10.46977597205129
10
49.77769094765712
20
-10.379169383501289
10
49.62231891474174
20
-10.290610024035804
10
49.46645161340477
20
-10.204154565927587
10
49.31008237527478
20
-10.119866538946946
10
49.15320289184062
20
-10.037817771017245
10
48.9958028411377
20
-9.958090283953336
10
48.837869384963135
20
-9.880778846881435
10
48.6793864726479
20
-9.80599451230059
10
48.52033384397467
20
-9.733869680410095
10
48.36068554050822
20
-9.664565660577056
10
48.200407561972334
20
-9.598284575753217
10
48.039453909145756
20
-9.535289462967965
10
47.87775921942522
20
-9.475941682213247
10
47.71522289748278
20
-9.420781528101767
10
47.55166496248737
20
-9.370752514235734
10
47.38656492388442
20
-9.328527817694333
0
ARC
5
1C0
330
E4
100
AcDbEntity
100
AcDbCircle
8
0
10
48.1622433133182
20
-8.334804243013478
30
0
40
1.2606202864903464
100
AcDbArc
50
468.33843817723454
51
232.02519818640204
0
LWPOLYLINE
5
1C1
330
E4
100
AcDbEntity
100
AcDbPolyline
8
0
6
ByLayer
62
256
370
-1
90
21
70
0
10
47.76561519852837
20
-7.138205043085094
10
47.935303322974676
20
-7.153917718433552
10
48.106161661931466
20
-7.161761718516163
10
48.277782116958484
20
-7.164429670633002
10
48.45001713481352
20
-7.162870700201402
10
48.62277989496244
20
-7.157627485655952
10
48.79601052399872
20
-7.149062336931488
10
48.96966395259549
20
-7.137438451981951
10
49.143704280425986
20
-7.1229576249424
10
49.31810174838118
20
-7.105780507447446
10
49.492830945425936
20
-7.086038608312286
10
49.66786966966747
20
-7.063841915524793
10
49.84319816558747
20
-7.0392840011226365
10
50.018798591488974
20
-7.0124455855797665
10
50.19465463496633
20
-6.983397111691084
10
50.37075122744682
20
-6.9522006555148534
10
50.54707432728536
20
-6.918911378592031
10
50.72361075164567
20
-6.883578653708525
10
50.90034804394592
20
-6.846246952677902
10
51.07727436777516
20
-6.80695655699471
10
51.25437842087403
20
-6.765744134228118
0
ARC
5
1C2
330
E4
100
AcDbEntity
100
AcDbCircle
8
0
10
0
20
0
30
0
40
51.699
100
AcDbArc
50
352.4803409787298
51
354.428749930361
0
LWPOLYLINE
5
1C3
330
E4
100
AcDbEntity
100
AcDbPolyline
8
0
6
ByLayer
62
256
370
-1
90
21
70
0
10
51.454794553035775
20
-5.019035615024036
10
51.29162757531311
20
-4.938780728598415
10
51.12819837509574
20
-4.860438174561757
10
50.96450965583312
20
-4.784046227488613
10
50.80056382270225
20
-4.70964680294352
10
50.63636293584026
20
-4.637286038378377
10
50.47190865271038
20
-4.567015009344836
10
50.307202156131545
20
-4.498890624228365
10
50.14224406304662
20
-4.4329767588324795
10
49.97703430686777
20
-4.369345719986029
10
49.81157198269405
20
-4.308080171479267
10
49.64585513887165
20
-4.24927572815301
10
49.47988048838502
20
-4.193044548275116
10
49.313642995563676
20
-4.139520478516084
10
49.14713525905852
20
-4.0888667358244986
10
48.98034654049639
20
-4.041288001400639
10
48.81326112445296
20
-3.9970508412450023
10
48.64585526631065
20
-3.9565217106847776
10
48.47809061539316
20
-3.9202488495526517
10
48.30989591647787
20
-3.8891901376481623
10
48.141058790929534
20
-3.8660606590269784
0
ARC
5
1C4
330
E4
100
AcDbEntity
100
AcDbCircle
8
0
10
48.79840515201724
20
-2.7903937643630976
30
0
40
1.2606202864903464
100
AcDbArc
50
474.883892722689
51
238.57065273185657
0
CIRCLE
5
1C5
330
E4
100
AcDbEntity
100
AcDbCircle
8
0
10
0
20
0
30
0
40
4
0
ENDSEC
0
SECTION
2
OBJECTS
0
DICTIONARY
5
D4
330
0
100
AcDbDictionary
281
1
3
ACAD_GROUP
350
E8
0
DICTIONARY
5
E8
330
D4
100
AcDbDictionary
281
1
0
ENDSEC
0
EOF