0
SECTION
2
HEADER
9
$HANDSEED
5
D4
9
$INSUNITS
70
4
9
$ACADVER
1
AC1021
0
ENDSEC
0
SECTION
2
CLASSES
0
ENDSEC
0
SECTION
2
TABLES
0
TABLE
2
LTYPE
5
D2
330
0
100
AcDbSymbolTable
70
5
0
LTYPE
5
2
330
D2
100
AcDbSymbolTableRecord
100
AcDbLinetypeTableRecord
2
CONTINUOUS
3
______
70
0
72
65
73
0
40
0
0
LTYPE
5
3
330
D2
100
AcDbSymbolTableRecord
100
AcDbLinetypeTableRecord
2
DASHED
3
_ _ _ 
70
0
72
65
73
2
40
10
49
5
74
0
49
-5
74
0
0
LTYPE
5
4
330
D2
100
AcDbSymbolTableRecord
100
AcDbLinetypeTableRecord
2
DOTTED
3
. . . 
70
0
72
65
73
2
40
5
49
0
74
0
49
-5
74
0
0
LTYPE
5
6
330
D2
100
AcDbSymbolTableRecord
100
AcDbLinetypeTableRecord
2
ByBlock
3

70
0
72
65
73
0
40
0
0
LTYPE
5
7
330
D2
100
AcDbSymbolTableRecord
100
AcDbLinetypeTableRecord
2
ByLayer
3

70
0
72
65
73
0
40
0
0
ENDTAB
0
TABLE
2
LAYER
5
D3
330
0
100
AcDbSymbolTable
70
1
0
LAYER
5
5
330
D3
100
AcDbSymbolTableRecord
100
AcDbLayerTableRecord
2
0
62
7
70
0
6
CONTINUOUS
390
1
0
ENDTAB
0
TABLE
2
VPORT
5
8
330
0
100
AcDbSymbolTable
70
1
0
VPORT
5
E
330
8
100
AcDbSymbolTableRecord
100
AcDbViewportTableRecord
2
*ACTIVE
40
1000
70
0
0
ENDTAB
0
TABLE
2
STYLE
5
9
330
0
100
AcDbSymbolTable
70
1
0
STYLE
5
F
330
9
100
AcDbSymbolTableRecord
100
AcDbTextStyleTableRecord
2
standard
70
0
40
0
41
1
50
0
71
0
42
1
3
standard
4

0
ENDTAB
0
TABLE
2
VIEW
5
A
330
0
100
AcDbSymbolTable
70
0
0
ENDTAB
0
TABLE
2
UCS
5
B
330
0
100
AcDbSymbolTable
70
0
0
ENDTAB
0
TABLE
2
APPID
5
C
330
0
100
AcDbSymbolTable
70
1
0
APPID
5
10
330
C
100
AcDbSymbolTableRecord
100
AcDbRegAppTableRecord
2
ACAD
70
0
0
ENDTAB
0
TABLE
2
DIMSTYLE
5
D
330
0
100
AcDbSymbolTable
100
AcDbDimStyleTable
70
0
71
1
0
ENDTAB
0
TABLE
2
BLOCK_RECORD
5
CF
330
0
100
AcDbSymbolTable
70
2
0
BLOCK_RECORD
5
D0
330
CF
100
AcDbSymbolTableRecord
100
AcDbBlockTableRecord
2
*Model_Space
70
0
280
0
281
1
0
BLOCK_RECORD
5
D1
330
CF
100
AcDbSymbolTableRecord
100
AcDbBlockTableRecord
2
*Paper_Space
70
0
280
0
281
1
0
ENDTAB
0
ENDSEC
0
SECTION
2
BLOCKS
0
BLOCK
5
11
330
0
100
AcDbEntity
100
AcDbBlockBegin
2
*Model_Space
70
0
10
0
20
0
30
0
3
*Model_Space
1

0
ENDBLK
5
12
330
0
100
AcDbEntity
100
AcDbBlockEnd
0
BLOCK
5
13
330
0
100
AcDbEntity
100
AcDbBlockBegin
2
*Paper_Space
70
0
10
0
20
0
30
0
3
*Paper_Space
1

0
ENDBLK
5
14
330
0
100
AcDbEntity
100
AcDbBlockEnd
0
ENDSEC
0
SECTION
2
ENTITIES
0
LWPOLYLINE
5
16
330
11
100
AcDbEntity
100
AcDbPolyline
8
0
6
ByLayer
62
256
370
-1
90
21
70
0
10
40.361240366718086
20
-1.6028839980236649
10
40.518630237269704
20
-1.5998661952955602
10
40.67632042106629
20
-1.5891264065818376
10
40.83419979549755
20
-1.5733025361463466
10
40.99222509195012
20
-1.553323657467955
10
41.150368845065195
20
-1.5297206750683219
10
41.30861059448727
20
-1.5028478718550329
10
41.46693372347612
20
-1.4729625180693153
10
41.6253239922431
20
-1.4402618064273875
10
41.783768750135714
20
-1.4049026936063997
10
41.94225646922676
20
-1.3670136486421376
10
42.100776448183126
20
-1.32670211363261
10
42.25931861402733
20
-1.2840594994638619
10
42.41787338380097
20
-1.2391646731939965
10
42.57643156473768
20
-1.1920864757594278
10
42.734984280206206
20
-1.142885590781278
10
42.8935229134828
20
-1.0916159644361696
10
43.05203906420973
20
-1.0383259058870995
10
43.21052451410042
20
-0.983058954887835
10
43.36897119952593
20
-0.9258545761212064
10
43.52737118931624
20
-0.866748722227285
0
ARC
5
17
330
11
100
AcDbEntity
100
AcDbCircle
8
0
10
0
20
0
30
0
40
43.536
100
AcDbArc
50
-1.1406138350310233
51
1.1406138350310233
0
LWPOLYLINE
5
18
330
11
100
AcDbEntity
100
AcDbPolyline
8
0
6
ByLayer
62
256
370
-1
90
21
70
0
10
43.52737118931624
20
0.866748722227285
10
43.36897119952593
20
0.9258545761212064
10
43.21052451410042
20
0.983058954887835
10
43.05203906420973
20
1.0383259058870995
10
42.8935229134828
20
1.0916159644361696
10
42.734984280206206
20
1.142885590781278
10
42.57643156473768
20
1.1920864757594278
10
42.41787338380097
20
1.2391646731939965
10
42.25931861402733
20
1.2840594994638619
10
42.100776448183126
20
1.32670211363261
10
41.94225646922676
20
1.3670136486421376
10
41.783768750135714
20
1.4049026936063997
10
41.6253239922431
20
1.4402618064273875
10
41.46693372347612
20
1.4729625180693153
10
41.30861059448727
20
1.5028478718550329
10
41.150368845065195
20
1.5297206750683219
10
40.99222509195012
20
1.553323657467955
10
40.83419979549755
20
1.5733025361463466
10
40.67632042106629
20
1.5891264065818376
10
40.518630237269704
20
1.5998661952955602
10
40.361240366718086
20
1.6028839980236649
0
ARC
5
19
330
11
100
AcDbEntity
100
AcDbCircle
8
0
10
40.54444397723924
20
2.773315945111118
30
0
40
1.1846832934041553
100
AcDbArc
50
106.72220991102355
51
-98.89612295450166
0
LWPOLYLINE
5
1A
330
11
100
AcDbEntity
100
AcDbPolyline
8
0
6
ByLayer
62
256
370
-1
90
21
70
0
10
40.20357293880272
20
3.907900204135594
10
40.35908594752157
20
3.932321150160943
10
40.51384499539559
20
3.9644330518259805
10
40.66809918940071
20
4.001607443256037
10
40.821932172752156
20
4.042918012670671
10
40.97538902739466
20
4.087835060555715
10
41.12849772505794
20
4.136004817795652
10
41.281276835397634
20
4.18717014773233
10
41.43373910232666
20
4.241133755328829
10
41.58589336528614
20
4.297738423213998
10
41.73774569691876
20
4.356855309200366
10
41.88930012559464
20
4.418376514746752
10
42.04055911927058
20
4.482210108769448
10
42.191523923307436
20
4.5482766539030495
10
42.34219480440036
20
4.616506698651148
10
42.49257123168088
20
4.686838915902011
10
42.64265201435198
20
4.759218688626217
10
42.792435408394155
20
4.833597013766354
10
42.941919200728776
20
4.909929638043732
10
43.09110077660557
20
4.9881763663543675
10
43.239977174276426
20
5.068300500962179
0
ARC
5
1B
330
11
100
AcDbEntity
100
AcDbCircle
8
0
10
0
20
0
30
0
40
43.536
100
AcDbArc
50
6.685473121490716
51
8.966700791552762
0
LWPOLYLINE
5
1C
330
11
100
AcDbEntity
100
AcDbPolyline
8
0
6
ByLayer
62
256
370
-1
90
21
70
0
10
43.00393263604814
20
6.785652056673215
10
42.83895974624387
20
6.822638599627774
10
42.674199513226505
20
6.857735019508816
10
42.50966468984521
20
6.890906778501938
10
42.345368638397495
20
6.9221158774978315
10
42.18132542928674
20
6.951320301330892
10
42.01754996272613
20
6.978473334640837
10
41.85405812085289
20
7.00352270701904
10
41.69086696070619
20
7.026409508756034
10
41.52799496327011
20
7.047066791851797
10
41.365462361309895
20
7.0654177286995905
10
41.2032915810968
20
7.081373131422888
10
41.04150785432161
20
7.094828015809852
10
40.8801400947379
20
7.1056566791114415
10
40.71922220743409
20
7.113705349150431
10
40.558795150640066
20
7.118780608858504
10
40.39891041795347
20
7.12062984686918
10
40.23963652067736
20
7.1189048661030405
10
40.081072959846374
20
7.113083446777665
10
39.92338910989005
20
7.102251060596798
10
39.76705425300097
20
7.083809504072734
0
ARC
5
1D
330
11
100
AcDbEntity
100
AcDbCircle
8
0
10
39.789177698977305
20
8.268286206591213
30
0
40
1.1846832934041553
100
AcDbArc
50
114.54829686754529
51
-91.07003599797993
0
LWPOLYLINE
5
1E
330
11
100
AcDbEntity
100
AcDbPolyline
8
0
6
ByLayer
62
256
370
-1
90
21
70
0
10
39.296989015118726
20
9.345887619522948
10
39.44772824889428
20
9.391256792827292
10
39.59667329259919
20
9.444142623473676
10
39.744428842404
20
9.501975047322604
10
39.89120389523767
20
9.563847769727886
10
40.03711524055715
20
9.629242163482562
10
40.182238761116935
20
9.697811563312449
10
40.32662786705102
20
9.769303756111889
10
40.47032204857889
20
9.843525019756502
10
40.613351470573235
20
9.920320804843296
10
40.75573969312475
20
9.999564296119289
10
40.89750539926589
20
10.081149148545794
10
41.03866355191441
20
10.164984623343592
10
41.17922620155164
20
10.250992192607798
10
41.319203069366274
20
10.33910308803197
10
41.45860198014168
20
10.429256481421827
10
41.59742919118987
20
10.521398102307067
10
41.73568964731735
20
10.61547916657011
10
41.8733871818789
20
10.711455531762182
10
42.01052467771079
20
10.809287021116894
10
42.14710419765854
20
10.908936875411536
0
ARC
5
1F
330
11
100
AcDbEntity
100
AcDbCircle
8
0
10
0
20
0
30
0
40
43.536
100
AcDbArc
50
14.511560078012453
51
16.792787748074502
0
LWPOLYLINE
5
20
330
11
100
AcDbEntity
100
AcDbPolyline
8
0
6
ByLayer
62
256
370
-1
90
21
70
0
10
41.67941218433575
20
12.578151532250073
10
41.51093952731388
20
12.592329774951251
10
41.342934918107424
20
12.604664456049296
10
41.175415693683284
20
12.615123095929611
10
41.00840026609319
20
12.623669868907923
10
40.841908295752326
20
12.630265067069818
10
40.675960905166576
20
12.634864439076502
10
40.51058094603246
20
12.637418363986168
10
40.3457933380567
20
12.637870803377421
10
40.18162550617534
20
12.636157949301204
10
40.01810795606229
20
12.632206444755097
10
39.85527504952361
20
12.625930986273477
10
39.69316607858911
20
12.617231003187905
10
39.53182680423018
20
12.605985900640468
10
39.37131175438355
20
12.59204795543857
10
39.211687842745995
20
12.575231129155828
10
39.05304048054432
20
12.5552921749723
10
38.895484953793115
20
12.531895467889512
10
38.7391909456869
20
12.504537200830756
10
38.58445078134624
20
12.472334426614186
10
38.432083160706625
20
12.43277704214323
0
ARC
5
21
330
11
100
AcDbEntity
100
AcDbCircle
8
0
10
38.29271432419876
20
13.609233940240802
30
0
40
1.1846832934041553
100
AcDbArc
50
122.37438382406704
51
-83.24394904145818
0
LWPOLYLINE
5
22
330
11
100
AcDbEntity
100
AcDbPolyline
8
0
6
ByLayer
62
256
370
-1
90
21
70
0
10
37.65837653884165
20
14.609778831657051
10
37.80153401095826
20
14.675251090383505
10
37.9418904861447
20
14.747925687050127
10
38.08039498542057
20
14.82533883468477
10
38.21737796621124
20
14.906621138329976
10
38.35302574991924
20
14.991274704129578
10
38.487460716771764
20
15.078966428368869
10
38.62077012245137
20
15.16945371974764
10
38.75301946785604
20
15.262550037730694
10
38.88425968137556
20
15.358106379846152
10
39.0145313716687
20
15.456000320103739
10
39.14386752840071
20
15.55612904797413
10
39.272295330719444
20
15.658404707274356
10
39.399837409749054
20
15.762751142386342
10
39.52651276008442
20
15.869101549217053
10
39.65233741639983
20
15.977396731603823
10
39.777324967554456
20
16.08758377659165
10
39.90148695506842
20
16.199615027758583
10
40.024833187321754
20
16.31344727577608
10
40.147371991035506
20
16.429041110632475
10
40.269110415221895
20
16.546360396373206
0
ARC
5
23
330
11
100
AcDbEntity
100
AcDbCircle
8
0
10
0
20
0
30
0
40
43.536
100
AcDbArc
50
22.337647034534196
51
24.618874704596237
0
LWPOLYLINE
5
24
330
11
100
AcDbEntity
100
AcDbPolyline
8
0
6
ByLayer
62
256
370
-1
90
21
70
0
10
39.57848314410552
20
18.136343843557757
10
39.40964904670386
20
18.127449672170297
10
39.24152966930091
20
18.116792842714602
10
39.0741466100264
20
18.10434353880965
10
38.9075229877046
20
18.090068775560905
10
38.74168368652618
20
18.07393189198847
10
38.576655657817376
20
18.055891925093757
10
38.412468297150156
20
18.035902827746032
10
38.249153922691804
20
18.013912476701734
10
38.086748392455625
20
17.98986139268413
10
37.92529191676127
20
17.963681055797284
10
37.764830152854145
20
17.935291636028634
10
37.60541572116687
20
17.904598849694413
10
37.44711037744842
20
17.871489456281854
10
37.28998825673146
20
17.835824533386578
10
37.13414098170414
20
17.797428886768007
10
36.979686290172864
20
17.756073165380762
10
36.826784095303445
20
17.71144056836601
10
36.67567110157341
20
17.663055086325347
10
36.526757139330435
20
17.61008180082674
10
36.3811950754222
20
17.55014546763615
0
ARC
5
25
330
11
100
AcDbEntity
100
AcDbCircle
8
0
10
36.0829301341583
20
18.69666739524319
30
0
40
1.1846832934041553
100
AcDbArc
50
130.20047078058877
51
-75.41786208493644
0
LWPOLYLINE
5
26
330
11
100
AcDbEntity
100
AcDbPolyline
8
0
6
ByLayer
62
256
370
-1
90
21
70
0
10
35.31825976003069
20
19.601517506920498
10
35.45116871764716
20
19.68587322676726
10
35.58032204874704
20
19.77698279922384
10
35.706995420733044
20
19.872534610175066
10
35.83163459573033
20
19.97171235953531
10
35.954491956271845
20
20.07404816161969
10
36.075734100345365
20
20.17922867936492
10
36.195480503773766
20
20.28702546229317
10
36.31382145797573
20
20.397262626355637
10
36.43082770615857
20
20.509799491645683
10
36.54655614908667
20
20.624520302000317
10
36.66105346852304
20
20.741327696565197
10
36.774358553549526
20
20.86013833834807
10
36.88650419435808
20
20.980879862652735
10
36.997518305116394
20
21.103488674033425
10
37.107424831694054
20
21.227908311071598
10
37.216244441362626
20
21.354088203995776
10
37.323995057359184
20
21.481982711828632
10
37.43069228037746
20
21.611550363269874
10
37.536349725912196
20
21.742753249196515
10
37.64097929783259
20
21.875556530066593
0
ARC
5
27
330
11
100
AcDbEntity
100
AcDbCircle
8
0
10
0
20
0
30
0
40
43.536
100
AcDbArc
50
30.16373399105593
51
32.44496166111798
0
LWPOLYLINE
5
28
330
11
100
AcDbEntity
100
AcDbPolyline
8
0
6
ByLayer
62
256
370
-1
90
21
70
0
10
36.74028184826655
20
23.35669038434033
10
36.57423137027332
20
23.324889480448757
10
36.4091289705808
20
23.29143965700859
10
36.245000106149305
20
23.256314316295132
10
36.081872171915656
20
23.219483928649765
10
35.919774812300616
20
23.180915562951803
10
35.75874030539859
20
23.140572307606014
10
35.59880404307307
20
23.098412547063653
10
35.44000513992562
20
23.054389044216418
10
35.282387219079865
20
23.008447756446277
10
35.125999446459005
20
22.960526277359797
10
34.970897924239694
20
22.91055173747956
10
34.81714762103831
20
22.858437896433113
10
34.664825136988576
20
22.80408097750933
10
34.5140228332238
20
22.74735344695359
10
34.36485533466611
20
22.68809421824834
10
34.21747051246896
20
22.626092108498796
10
34.07206992806967
20
22.56105504238635
10
33.92895289787223
20
22.49254367534535
10
33.7886391230875
20
22.41978667064424
10
33.65259416174724
20
22.34058788921745
0
ARC
5
29
330
11
100
AcDbEntity
100
AcDbCircle
8
0
10
33.200989227244136
20
23.43581731212543
30
0
40
1.1846832934041553
100
AcDbArc
50
138.0265577371105
51
-67.59177512841471
0
LWPOLYLINE
5
2A
330
11
100
AcDbEntity
100
AcDbPolyline
8
0
6
ByLayer
62
256
370
-1
90
21
70
0
10
32.3202306266041
20
24.228116998525415
10
32.44041522731344
20
24.32978479203889
10
32.555959532135866
20
24.43763214133649
10
32.668442091587124
20
24.54954266615725
10
32.778415668787204
20
24.66476836741346
10
32.8861940059904
20
24.78288008341655
10
32.991984815539766
20
24.90359008063131
10
33.09593756778999
20
25.026688305002434
10
33.19816566272214
20
25.152012805354556
10
33.29875834054897
20
25.27943384494677
10
33.39778773418692
20
25.40884449376165
10
33.49531334790381
20
25.54015465426835
10
33.591385056285446
20
25.673287061075822
10
33.68604519777237
20
25.808174488427106
10
33.77933008611697
20
25.944757734186535
10
33.87127113231787
20
26.08298412344908
10
33.96189569706687
20
26.222806371645966
10
34.05122775144201
20
26.364181703449518
10
34.139288397839294
20
26.507071158119565
10
34.22609628689627
20
26.65143903359703
10
34.311667955592526
20
26.797252435747303
0
ARC
5
2B
330
11
100
AcDbEntity
100
AcDbCircle
8
0
10
0
20
0
30
0
40
43.536
100
AcDbArc
50
37.98982094757767
51
40.27104861763972
0
LWPOLYLINE
5
2C
330
11
100
AcDbEntity
100
AcDbPolyline
8
0
6
ByLayer
62
256
370
-1
90
21
70
0
10
33.21767861687723
20
28.141945975817972
10
33.05750496451787
20
28.087830730092175
10
32.89849508785633
20
28.032211019588722
10
32.740677828468456
20
27.975063960704553
10
32.584084347087824
20
27.91636402909863
10
32.42874849614582
20
27.85608263695394
10
32.27470727922516
20
27.794187611671795
10
32.122001425197446
20
27.73064254450438
10
31.970676116467466
20
27.665405964416586
10
31.82078192865294
20
27.59843027216082
10
31.67237606741247
20
27.529660337359154
10
31.525524034776577
20
27.459031608489845
10
31.380301937302963
20
27.386467494986693
10
31.236799792594606
20
27.311875617103997
10
31.095126467372214
20
27.23514220544943
10
30.955417453546538
20
27.156123281965524
10
30.817848001058252
20
27.074629765845813
10
30.682657564907995
20
26.990399748122492
10
30.550202497727906
20
26.903038733220644
10
30.421102690541797
20
26.81185333465307
10
30.29710909199234
20
26.714867428438215
0
ARC
5
2D
330
11
100
AcDbEntity
100
AcDbCircle
8
0
10
29.700576709710457
20
27.738402294752014
30
0
40
1.1846832934041553
100
AcDbArc
50
145.85264469363224
51
-59.765688171892975
0
LWPOLYLINE
5
2E
330
11
100
AcDbEntity
100
AcDbPolyline
8
0
6
ByLayer
62
256
370
-1
90
21
70
0
10
28.720136748828658
20
28.403392511805624
10
28.825358180917643
20
28.520478500355505
10
28.925141087681993
20
28.64305463443174
10
29.021337497341104
20
28.769239191787456
10
29.11459687707875
20
28.898366408140628
10
29.205288484445965
20
29.030053840269254
10
29.29365727685318
20
29.164044718097514
10
29.379879934836953
20
29.300151296902254
10
29.4640908545137
20
29.43822857522553
10
29.546396110725272
20
29.57816017624218
10
29.62688172484039
20
29.719849987984237
10
29.70561891517979
20
29.86321685459088
10
29.78266761276409
20
30.00819102158031
10
29.858078915597368
20
30.15471165442348
10
29.931896860560176
20
30.302725047118575
10
30.004159738652724
20
30.452183292507904
10
30.074901094309148
20
30.60304327204744
10
30.14415049991259
20
30.75526587288259
10
30.211934166463646
20
30.908815370598166
10
30.27827543231656
20
31.06365893526082
10
30.343195159508696
20
31.219766230898784
0
ARC
5
2F
330
11
100
AcDbEntity
100
AcDbCircle
8
0
10
0
20
0
30
0
40
43.536
100
AcDbArc
50
45.815907904099404
51
48.097135574161456
0
LWPOLYLINE
5
30
330
11
100
AcDbEntity
100
AcDbPolyline
8
0
6
ByLayer
62
256
370
-1
90
21
70
0
10
29.07629288311708
20
32.402970360372755
10
28.92497978847485
20
32.32754883745063
10
28.775024487988258
20
32.25079532985404
10
28.62645867058468
20
32.17269109437978
10
28.479316682328943
20
32.09321508747458
10
28.33363595305631
20
32.012343597162044
10
28.18945752253107
20
31.93004978915467
10
28.046826697931124
20
31.84630313973164
10
27.905793887801778
20
31.761068716457974
10
27.766415678126766
20
31.674306250140422
10
27.62875624866692
20
31.58596891339122
10
27.492889281127734
20
31.496001675116982
10
27.358900602287072
20
31.40433902129511
10
27.22689197035951
20
31.310901690005203
10
27.09698672967218
20
31.215591795525754
10
26.96933871516649
20
31.118285150298142
10
26.84414729099552
20
31.018818297821923
10
26.72168534512964
20
30.916964374348595
10
26.60235962825386
20
30.81238108200013
10
26.486878673808032
20
30.70446590101201
10
26.37724620418545
20
30.591499533937494
0
ARC
5
31
330
11
100
AcDbEntity
100
AcDbCircle
8
0
10
25.646898643724093
20
31.52427332570003
30
0
40
1.1846832934041553
100
AcDbArc
50
153.678731650154
51
-51.93960121537123
0
LWPOLYLINE
5
32
330
11
100
AcDbEntity
100
AcDbPolyline
8
0
6
ByLayer
62
256
370
-1
90
21
70
0
10
24.58504106400811
20
32.049566563873356
10
24.673339251283526
20
32.17988965702816
10
24.755501993233292
20
32.31491121442813
10
24.833620295998905
20
32.45301922476563
10
24.908428232483114
20
32.59364256049318
10
24.980343696964216
20
32.73645262104897
10
25.049644328826908
20
32.881228382957275
10
25.116530727565536
20
33.027807908156035
10
25.18115578188647
20
33.176065846007546
10
25.243640425287083
20
33.32590134748244
10
25.30408296517304
20
33.477230909046334
10
25.362565007255416
20
33.62998382828858
10
25.419155422588112
20
33.78409916103062
10
25.473913116879615
20
33.93952359720348
10
25.5268890298149
20
34.09620992738042
10
25.57812761910685
20
34.254115904570796
10
25.627667988062605
20
34.4132033794722
10
25.67554475949287
20
34.573437630301605
10
25.72178876474147
20
34.734786834447085
10
25.76642759512998
20
34.89722164566054
10
25.809486049133238
20
35.060714851234806
0
ARC
5
33
330
11
100
AcDbEntity
100
AcDbCircle
8
0
10
0
20
0
30
0
40
43.536
100
AcDbArc
50
53.64199486062115
51
55.9232225306832
0
LWPOLYLINE
5
34
330
11
100
AcDbEntity
100
AcDbPolyline
8
0
6
ByLayer
62
256
370
-1
90
21
70
0
10
24.393270827403313
20
36.060388715888166
10
24.253636967136035
20
35.965065876038736
10
24.115529626346127
20
35.868608343972326
10
23.978982751007756
20
35.77100186603598
10
23.84403323271479
20
35.672230271465764
10
23.710721381459344
20
35.57227516583517
10
23.579091508694145
20
35.47111555303987
10
23.449192655916377
20
35.36872736298523
10
23.32107951879605
20
35.26508285256156
10
23.194813639593097
20
35.16014983276883
10
23.07046497662308
20
35.053890651515076
10
22.94811401871568
20
34.94626082326041
10
22.827854714078455
20
34.83720713092812
10
22.709798665974574
20
34.726664906922714
10
22.59408139866615
20
34.61455397261928
10
22.480872224471362
20
34.50077224433731
10
22.370390907978752
20
34.38518493476771
10
22.26293868674183
20
34.26760445142366
10
22.158965132502825
20
34.14774707048584
10
22.059254222480252
20
34.025112362715625
10
21.96602512726102
20
33.89826988445946
0
ARC
5
35
330
11
100
AcDbEntity
100
AcDbCircle
8
0
10
21.11546738180093
20
34.72290679080598
30
0
40
1.1846832934041553
100
AcDbArc
50
161.50481860667574
51
-44.11351425884949
0
LWPOLYLINE
5
36
330
11
100
AcDbEntity
100
AcDbPolyline
8
0
6
ByLayer
62
256
370
-1
90
21
70
0
10
19.991972580849176
20
35.09871783096483
10
20.061702695148664
20
35.23985035607985
10
20.1247147358592
20
35.384802140659794
10
20.183299735556297
20
35.53226091305688
10
20.238262698472425
20
35.68176082148376
10
20.29006237103341
20
35.83303322924557
10
20.339003902701805
20
35.985896976715836
10
20.38530807514071
20
36.14021894909328
10
20.429143421619138
20
36.295895781605644
10
20.470643481527727
20
36.45284403164596
10
20.509917017028123
20
36.6109943596263
10
20.547054501061755
20
36.770287833638264
10
20.582132461778382
20
36.930673455081326
10
20.615216515288992
20
37.092106431412326
10
20.646363555173036
20
37.254546929201844
10
20.67562337769303
20
37.41795914860778
10
20.703039916608432
20
37.582310620218706
10
20.7286522002001
20
37.747571660124265
10
20.752495105825485
20
37.913714940310825
10
20.774599963799368
20
38.080715144880635
10
20.794995047085397
20
38.24854869131238
0
ARC
5
37
330
11
100
AcDbEntity
100
AcDbCircle
8
0
10
0
20
0
30
0
40
43.536
100
AcDbArc
50
61.468081817142895
51
63.74930948720493
0
LWPOLYLINE
5
38
330
11
100
AcDbEntity
100
AcDbPolyline
8
0
6
ByLayer
62
256
370
-1
90
21
70
0
10
19.255848290015887
20
39.04607025850223
10
19.13049477874293
20
38.93262178587416
10
19.006808076099492
20
38.81825705065566
10
18.884823752757274
20
38.70296655426262
10
18.76458055861858
20
38.58673929995121
10
18.646120932933496
20
38.469562553498136
10
18.529491633404685
20
38.35142154809995
10
18.414744522298275
20
38.23229911566854
10
18.301937563532146
20
38.1121752192211
10
18.19113610922659
20
37.99102634957103
10
18.08241459306082
20
37.86882473130938
10
17.97585881163412
20
37.74553725313121
10
17.871569084506376
20
37.62112398623915
10
17.769664781031747
20
37.49553606199754
10
17.670291080846713
20
37.368712502454166
10
17.573629619678083
20
37.24057522943244
10
17.479916468751398
20
37.11102063564714
10
17.389475603717674
20
36.97990389436625
10
17.3027910427054
20
36.847005141067086
10
17.22070760269952
20
36.71193535908674
10
17.145618563531343
20
36.57357960502367
0
ARC
5
39
330
11
100
AcDbEntity
100
AcDbCircle
8
0
10
16.190694914553386
20
37.27471820066188
30
0
40
1.1846832934041553
100
AcDbArc
50
169.33090556319746
51
-36.28742730232775
0
LWPOLYLINE
5
3A
330
11
100
AcDbEntity
100
AcDbPolyline
8
0
6
ByLayer
62
256
370
-1
90
21
70
0
10
15.02649147477379
20
37.4940463941899
10
15.076354576002398
20
37.64335931935522
10
15.11904212037862
20
37.79554115362773
10
15.157002489309921
20
37.94960381015735
10
15.191096622652763
20
38.10519539085428
10
15.22181557340257
20
38.26211222708389
10
15.249486316742619
20
38.420216397730044
10
15.274345703760122
20
38.57940609092917
10
15.296574772830809
20
38.73960185326456
10
15.316317181652405
20
38.90073920292954
10
15.33369012110925
20
39.06276425594795
10
15.348791246033407
20
39.22563094870363
10
15.361703316095866
20
39.389299178181496
10
15.372497435506112
20
39.553733503764484
10
15.381235391918343
20
39.71890221004198
10
15.387971392534533
20
39.88477661120375
10
15.392753383163681
20
40.05133052257302
10
15.395624070533746
20
40.21853985106718
10
15.39662172831662
20
40.38638227234011
10
15.395780842195817
20
40.554836972431666
10
15.393132632951978
20
40.723884438304125
0
ARC
5
3B
330
11
100
AcDbEntity
100
AcDbCircle
8
0
10
0
20
0
30
0
40
43.536
100
AcDbArc
50
69.29416877366462
51
71.57539644372666
0
LWPOLYLINE
5
3C
330
11
100
AcDbEntity
100
AcDbPolyline
8
0
6
ByLayer
62
256
370
-1
90
21
70
0
10
13.759725732449589
20
41.30439739020247
10
13.650987668908012
20
41.174936615188074
10
13.544025653657071
20
41.044795075448214
10
13.438876219451664
20
40.9139682044083
10
13.335579252665186
20
40.7824503841931
10
13.234178531242764
20
40.650234777997035
10
13.134722388129441
20
40.517313123395176
10
13.037264540264431
20
40.38367547411487
10
12.94186514005536
20
40.24930987255135
10
12.848592132096508
20
40.11420192726307
10
12.757523038872147
20
39.9783342569274
10
12.66874736652284
20
39.84168574127531
10
12.582369937197234
20
39.70423048358674
10
12.498515662715224
20
39.56593632451607
10
12.417336673665764
20
39.426762622687654
10
12.339023545654369
20
39.28665675987753
10
12.26382425898329
20
39.14554823883205
10
12.19207949234765
20
39.00333769642199
10
12.124298693920279
20
38.85987322308133
10
12.061371783110555
20
38.71488446136732
10
12.005821566719227
20
38.56759273741639
0
ARC
5
3D
330
11
100
AcDbEntity
100
AcDbCircle
8
0
10
10.96432043501893
20
39.132172136914726
30
0
40
1.1846832934041553
100
AcDbArc
50
177.1569925197192
51
-28.46134034580602
0
LWPOLYLINE
5
3E
330
11
100
AcDbEntity
100
AcDbPolyline
8
0
6
ByLayer
62
256
370
-1
90
21
70
0
10
9.781095263737088
20
39.190931814551355
10
9.810162496663533
20
39.345643722482066
10
9.831730356521653
20
39.50222074681373
10
9.848358964837743
20
39.66001739168247
10
9.860949159411696
20
39.818802267891634
10
9.870015152420342
20
39.978440468828154
10
9.875899653838676
20
40.13883988109564
10
9.878851172090412
20
40.29993189233061
10
9.879059878255585
20
40.461662440538745
10
9.876676872267913
20
40.62398720588771
10
9.871825590689989
20
40.786868763769625
10
9.864609051119764
20
40.950274776938606
10
9.855114703093362
20
41.114176785008276
10
9.843417814381894
20
41.27854935947934
10
9.829583915727198
20
41.44336949375806
10
9.813670615493105
20
41.60861615042843
10
9.795728978398454
20
41.77426991731933
10
9.775804594072756
20
41.94031274098445
10
9.753938419536269
20
42.10672771660549
10
9.730167453438193
20
42.27349891988462
10
9.704525282792094
20
42.44061127075869
0
ARC
5
3F
330
11
100
AcDbEntity
100
AcDbCircle
8
0
10
0
20
0
30
0
40
43.536
100
AcDbArc
50
77.12025573018637
51
79.40148340024841
0
LWPOLYLINE
5
40
330
11
100
AcDbEntity
100
AcDbPolyline
8
0
6
ByLayer
62
256
370
-1
90
21
70
0
10
8.007285518888644
20
42.793301749444346
10
7.917188487461916
20
42.650240281332934
10
7.828943659567684
20
42.50674622771983
10
7.742587849507968
20
42.36282003910656
10
7.658161337119568
20
42.21846158113691
10
7.575708423542377
20
42.07367004177976
10
7.495278116612494
20
41.92844381690202
10
7.416924987297279
20
41.78278036732679
10
7.340710255968563
20
41.63667603757483
10
7.266703194015379
20
41.49012582203499
10
7.194982968629854
20
41.34312305725215
10
7.12564112816379
20
41.195659007423835
10
7.058785044716278
20
41.04772229031415
10
6.994542845702116
20
40.899298054935315
10
6.933070778757674
20
40.750366753560165
10
6.874564809304232
20
40.60090220809532
10
6.819280207316928
20
40.450868344549164
10
6.7675680083354814
20
40.30021311434234
10
6.719953600521518
20
40.148855392653324
10
6.677355428194056
20
39.996648517507104
10
6.642378830005897
20
39.84316458979888
0
ARC
5
41
330
11
100
AcDbEntity
100
AcDbCircle
8
0
10
5.533701411071019
20
40.26066774716994
30
0
40
1.1846832934041553
100
AcDbArc
50
184.9830794762409
51
-20.63525338928428
0
LWPOLYLINE
5
42
330
11
100
AcDbEntity
100
AcDbPolyline
8
0
6
ByLayer
62
256
370
-1
90
21
70
0
10
4.353495754479903
20
40.157764327298395
10
4.361225651552086
20
40.31499322787591
10
4.361272058470902
20
40.47304870855853
10
4.356259146661388
20
40.631639888835224
10
4.347110870963102
20
40.79066019874536
10
4.334355023934352
20
40.95004600675241
10
4.3183436663034565
20
41.10975272307803
10
4.29933233458888
20
41.26974621297733
10
4.277516790047566
20
41.429998812951034
10
4.253052760143356
20
41.590487190735786
10
4.226067627727486
20
41.75119107824161
10
4.19666785414085
20
41.9120924669746
10
4.164943949765324
20
42.073175069340245
10
4.130973943837473
20
42.23442394264185
10
4.094825889473048
20
42.395825217671856
10
4.056559723062913
20
42.55736589729574
10
4.016228676996655
20
42.71903370346005
10
3.9738803745568005
20
42.88081695865634
10
3.9295576931601746
20
43.04270449249889
10
3.8832994552068367
20
43.204685566991735
10
3.835140988280762
20
43.36674981595934
0
ARC
5
43
330
11
100
AcDbEntity
100
AcDbCircle
8
0
10
0
20
0
30
0
40
43.536
100
AcDbArc
50
84.9463426867081
51
87.22757035677016
0
LWPOLYLINE
5
44
330
11
100
AcDbEntity
100
AcDbPolyline
8
0
6
ByLayer
62
256
370
-1
90
21
70
0
10
2.105684726476818
20
43.485047865130404
10
2.0359070643902832
20
43.33105066839021
10
1.9680232580308075
20
43.17687712362149
10
1.9020697174667278
20
43.022532690009925
10
1.8380863656611068
20
42.8680227192211
10
1.7761172017021851
20
42.71335243912499
10
1.716210995393862
20
42.558526933762266
10
1.6584221551777716
20
42.40355111835186
10
1.6028118289702538
20
42.248429707634735
10
1.5494493245601864
20
42.093167175075195
10
1.4984139791125526
20
41.937767699213175
10
1.4497976778178123
20
41.78223509144424
10
1.4037083425864567
20
41.62657269604617
10
1.3602749296568668
20
41.47078324703483
10
1.319654893115
20
41.314868654468725
10
1.2820459377328852
20
41.1588296680334
10
1.2477058679618944
20
41.00266530898946
10
1.2169895370584278
20
40.84637181287399
10
1.190428486185527
20
40.689940350811874
10
1.1689525756919479
20
40.533350688330955
10
1.155201143552939
20
40.37653367203588
0
ARC
5
45
330
11
100
AcDbEntity
100
AcDbCircle
8
0
10
2.488432287011499e-15
20
40.63918329340415
30
0
40
1.1846832934041553
100
AcDbArc
50
192.80916643276268
51
-12.809166432762531
0
LWPOLYLINE
5
46
330
11
100
AcDbEntity
100
AcDbPolyline
8
0
6
ByLayer
62
256
370
-1
90
21
70
0
10
-1.1552011435529341
20
40.37653367203588
10
-1.1689525756919428
20
40.533350688330955
10
-1.190428486185522
20
40.689940350811874
10
-1.2169895370584227
20
40.84637181287399
10
-1.2477058679618895
20
41.00266530898946
10
-1.2820459377328801
20
41.1588296680334
10
-1.319654893114995
20
41.314868654468725
10
-1.3602749296568615
20
41.47078324703483
10
-1.4037083425864516
20
41.62657269604617
10
-1.4497976778178074
20
41.78223509144424
10
-1.4984139791125477
20
41.937767699213175
10
-1.549449324560181
20
42.093167175075195
10
-1.6028118289702484
20
42.248429707634735
10
-1.6584221551777663
20
42.40355111835186
10
-1.7162109953938567
20
42.558526933762266
10
-1.7761172017021798
20
42.71335243912499
10
-1.8380863656611015
20
42.8680227192211
10
-1.902069717466723
20
43.022532690009925
10
-1.9680232580308021
20
43.17687712362149
10
-2.0359070643902784
20
43.33105066839021
10
-2.105684726476813
20
43.485047865130404
0
ARC
5
47
330
11
100
AcDbEntity
100
AcDbCircle
8
0
10
0
20
0
30
0
40
43.536
100
AcDbArc
50
92.77242964322986
51
95.05365731329188
0
LWPOLYLINE
5
48
330
11
100
AcDbEntity
100
AcDbPolyline
8
0
6
ByLayer
62
256
370
-1
90
21
70
0
10
-3.835140988280757
20
43.36674981595934
10
-3.883299455206831
20
43.20468556699174
10
-3.9295576931601692
20
43.04270449249889
10
-3.973880374556795
20
42.88081695865634
10
-4.016228676996649
20
42.71903370346005
10
-4.056559723062908
20
42.55736589729574
10
-4.094825889473043
20
42.395825217671856
10
-4.130973943837468
20
42.234423942641854
10
-4.164943949765319
20
42.073175069340245
10
-4.196667854140845
20
41.9120924669746
10
-4.22606762772748
20
41.75119107824161
10
-4.25305276014335
20
41.590487190735786
10
-4.277516790047561
20
41.429998812951034
10
-4.299332334588875
20
41.26974621297733
10
-4.318343666303451
20
41.10975272307804
10
-4.3343550239343465
20
40.95004600675241
10
-4.347110870963097
20
40.79066019874536
10
-4.356259146661383
20
40.631639888835224
10
-4.361272058470897
20
40.47304870855853
10
-4.361225651552081
20
40.31499322787591
10
-4.353495754479899
20
40.157764327298395
0
ARC
5
49
330
11
100
AcDbEntity
100
AcDbCircle
8
0
10
-5.5337014110710046
20
40.26066774716994
30
0
40
1.1846832934041553
100
AcDbArc
50
200.63525338928443
51
-4.983079476240795
0
LWPOLYLINE
5
4A
330
11
100
AcDbEntity
100
AcDbPolyline
8
0
6
ByLayer
62
256
370
-1
90
21
70
0
10
-6.642378830005883
20
39.84316458979888
10
-6.677355428194042
20
39.99664851750711
10
-6.719953600521504
20
40.14885539265333
10
-6.767568008335467
20
40.30021311434234
10
-6.819280207316914
20
40.45086834454917
10
-6.874564809304218
20
40.60090220809532
10
-6.933070778757659
20
40.750366753560165
10
-6.994542845702103
20
40.899298054935315
10
-7.058785044716264
20
41.04772229031415
10
-7.125641128163775
20
41.19565900742384
10
-7.194982968629839
20
41.34312305725215
10
-7.266703194015364
20
41.49012582203499
10
-7.340710255968548
20
41.63667603757483
10
-7.416924987297265
20
41.78278036732679
10
-7.49527811661248
20
41.928443816902025
10
-7.575708423542363
20
42.07367004177976
10
-7.658161337119553
20
42.21846158113691
10
-7.742587849507954
20
42.362820039106566
10
-7.828943659567669
20
42.50674622771983
10
-7.9171884874619
20
42.65024028133294
10
-8.00728551888863
20
42.793301749444346
0
ARC
5
4B
330
11
100
AcDbEntity
100
AcDbCircle
8
0
10
0
20
0
30
0
40
43.536
100
AcDbArc
50
100.59851659975159
51
102.87974426981361
0
LWPOLYLINE
5
4C
330
11
100
AcDbEntity
100
AcDbPolyline
8
0
6
ByLayer
62
256
370
-1
90
21
70
0
10
-9.704525282792078
20
42.44061127075869
10
-9.73016745343818
20
42.27349891988462
10
-9.753938419536254
20
42.10672771660549
10
-9.775804594072742
20
41.94031274098445
10
-9.79572897839844
20
41.77426991731933
10
-9.813670615493091
20
41.60861615042844
10
-9.829583915727184
20
41.44336949375807
10
-9.84341781438188
20
41.27854935947935
10
-9.855114703093347
20
41.114176785008276
10
-9.86460905111975
20
40.950274776938606
10
-9.871825590689975
20
40.786868763769625
10
-9.876676872267899
20
40.62398720588771
10
-9.879059878255571
20
40.461662440538745
10
-9.8788511720904
20
40.29993189233061
10
-9.875899653838664
20
40.13883988109564
10
-9.870015152420327
20
39.978440468828154
10
-9.860949159411682
20
39.818802267891634
10
-9.848358964837729
20
39.66001739168248
10
-9.831730356521641
20
39.502220746813734
10
-9.810162496663521
20
39.34564372248207
10
-9.781095263737075
20
39.19093181455136
0
ARC
5
4D
330
11
100
AcDbEntity
100
AcDbCircle
8
0
10
-10.964320435018918
20
39.13217213691473
30
0
40
1.1846832934041553
100
AcDbArc
50
208.46134034580618
51
2.8430074802809404
0
LWPOLYLINE
5
4E
330
11
100
AcDbEntity
100
AcDbPolyline
8
0
6
ByLayer
62
256
370
-1
90
21
70
0
10
-12.005821566719222
20
38.56759273741639
10
-12.061371783110552
20
38.714884461367326
10
-12.124298693920274
20
38.85987322308134
10
-12.192079492347643
20
39.00333769642199
10
-12.263824258983284
20
39.14554823883205
10
-12.339023545654364
20
39.28665675987753
10
-12.417336673665758
20
39.426762622687654
10
-12.49851566271522
20
39.56593632451607
10
-12.582369937197228
20
39.70423048358674
10
-12.668747366522837
20
39.84168574127532
10
-12.757523038872142
20
39.9783342569274
10
-12.848592132096503
20
40.11420192726307
10
-12.941865140055356
20
40.24930987255136
10
-13.037264540264426
20
40.383675474114874
10
-13.134722388129434
20
40.517313123395176
10
-13.23417853124276
20
40.65023477799704
10
-13.33557925266518
20
40.7824503841931
10
-13.43887621945166
20
40.9139682044083
10
-13.544025653657066
20
41.044795075448214
10
-13.650987668908009
20
41.174936615188074
10
-13.759725732449583
20
41.304397390202475
0
ARC
5
4F
330
11
100
AcDbEntity
100
AcDbCircle
8
0
10
0
20
0
30
0
40
43.536
100
AcDbArc
50
108.42460355627333
51
110.70583122633538
0
LWPOLYLINE
5
50
330
11
100
AcDbEntity
100
AcDbPolyline
8
0
6
ByLayer
62
256
370
-1
90
21
70
0
10
-15.393132632951973
20
40.723884438304125
10
-15.395780842195812
20
40.554836972431666
10
-15.396621728316614
20
40.38638227234011
10
-15.39562407053374
20
40.218539851067185
10
-15.392753383163676
20
40.05133052257302
10
-15.387971392534526
20
39.884776611203755
10
-15.381235391918338
20
39.71890221004199
10
-15.372497435506109
20
39.55373350376449
10
-15.361703316095863
20
39.389299178181496
10
-15.348791246033404
20
39.22563094870364
10
-15.333690121109242
20
39.06276425594795
10
-15.3163171816524
20
38.90073920292954
10
-15.296574772830803
20
38.73960185326456
10
-15.274345703760117
20
38.57940609092917
10
-15.249486316742614
20
38.420216397730044
10
-15.221815573402564
20
38.2621122270839
10
-15.19109662265276
20
38.10519539085428
10
-15.157002489309917
20
37.94960381015735
10
-15.119042120378616
20
37.79554115362774
10
-15.076354576002393
20
37.64335931935523
10
-15.026491474773787
20
37.4940463941899
0
ARC
5
51
330
11
100
AcDbEntity
100
AcDbCircle
8
0
10
-16.190694914553383
20
37.27471820066189
30
0
40
1.1846832934041553
100
AcDbArc
50
216.2874273023279
51
10.66909443680269
0
LWPOLYLINE
5
52
330
11
100
AcDbEntity
100
AcDbPolyline
8
0
6
ByLayer
62
256
370
-1
90
21
70
0
10
-17.14561856353134
20
36.573579605023674
10
-17.220707602699505
20
36.71193535908675
10
-17.302791042705397
20
36.847005141067086
10
-17.389475603717678
20
36.97990389436625
10
-17.4799164687514
20
37.11102063564714
10
-17.573629619678076
20
37.240575229432444
10
-17.670291080846706
20
37.368712502454166
10
-17.76966478103174
20
37.49553606199754
10
-17.87156908450638
20
37.62112398623915
10
-17.97585881163411
20
37.74553725313121
10
-18.082414593060818
20
37.86882473130938
10
-18.191136109226587
20
37.99102634957104
10
-18.30193756353215
20
38.1121752192211
10
-18.414744522298268
20
38.23229911566854
10
-18.529491633404678
20
38.35142154809995
10
-18.646120932933492
20
38.469562553498136
10
-18.764580558618576
20
38.58673929995122
10
-18.884823752757267
20
38.70296655426263
10
-19.006808076099478
20
38.81825705065567
10
-19.130494778742932
20
38.93262178587416
10
-19.25584829001589
20
39.046070258502226
0
ARC
5
53
330
11
100
AcDbEntity
100
AcDbCircle
8
0
10
0
20
0
30
0
40
43.536
100
AcDbArc
50
116.25069051279506
51
118.53191818285711
0
LWPOLYLINE
5
54
330
11
100
AcDbEntity
100
AcDbPolyline
8
0
6
ByLayer
62
256
370
-1
90
21
70
0
10
-20.794995047085386
20
38.248548691312386
10
-20.774599963799353
20
38.08071514488064
10
-20.752495105825485
20
37.91371494031082
10
-20.728652200200095
20
37.747571660124265
10
-20.703039916608425
20
37.58231062021871
10
-20.675623377693025
20
37.41795914860778
10
-20.64636355517303
20
37.254546929201844
10
-20.615216515288985
20
37.092106431412326
10
-20.58213246177837
20
36.93067345508133
10
-20.54705450106175
20
36.770287833638264
10
-20.509917017028116
20
36.6109943596263
10
-20.470643481527723
20
36.45284403164596
10
-20.429143421619127
20
36.29589578160565
10
-20.385308075140706
20
36.14021894909328
10
-20.3390039027018
20
35.985896976715836
10
-20.29006237103341
20
35.83303322924558
10
-20.238262698472415
20
35.68176082148377
10
-20.183299735556282
20
35.53226091305688
10
-20.124714735859193
20
35.384802140659794
10
-20.061702695148664
20
35.23985035607985
10
-19.99197258084917
20
35.09871783096484
0
ARC
5
55
330
11
100
AcDbEntity
100
AcDbCircle
8
0
10
-21.115467381800933
20
34.72290679080598
30
0
40
1.1846832934041553
100
AcDbArc
50
224.11351425884962
51
18.495181393324426
0
LWPOLYLINE
5
56
330
11
100
AcDbEntity
100
AcDbPolyline
8
0
6
ByLayer
62
256
370
-1
90
21
70
0
10
-21.966025127261016
20
33.89826988445947
10
-22.05925422248024
20
34.025112362715625
10
-22.15896513250282
20
34.14774707048585
10
-22.26293868674183
20
34.26760445142365
10
-22.370390907978752
20
34.38518493476771
10
-22.480872224471355
20
34.50077224433731
10
-22.59408139866615
20
34.61455397261928
10
-22.709798665974574
20
34.726664906922714
10
-22.827854714078455
20
34.837207130928114
10
-22.94811401871567
20
34.94626082326041
10
-23.07046497662308
20
35.053890651515076
10
-23.194813639593093
20
35.16014983276884
10
-23.32107951879605
20
35.26508285256156
10
-23.449192655916374
20
35.36872736298524
10
-23.579091508694145
20
35.47111555303987
10
-23.710721381459333
20
35.57227516583518
10
-23.844033232714782
20
35.672230271465764
10
-23.978982751007752
20
35.77100186603598
10
-24.115529626346113
20
35.86860834397233
10
-24.253636967136035
20
35.965065876038736
10
-24.393270827403313
20
36.060388715888166
0
ARC
5
57
330
11
100
AcDbEntity
100
AcDbCircle
8
0
10
0
20
0
30
0
40
43.536
100
AcDbArc
50
124.0767774693168
51
126.35800513937886
0
LWPOLYLINE
5
58
330
11
100
AcDbEntity
100
AcDbPolyline
8
0
6
ByLayer
62
256
370
-1
90
21
70
0
10
-25.809486049133227
20
35.06071485123481
10
-25.76642759512997
20
34.897221645660544
10
-25.721788764741472
20
34.73478683444708
10
-25.675544759492862
20
34.57343763030161
10
-25.627667988062594
20
34.41320337947221
10
-25.57812761910685
20
34.254115904570796
10
-25.52688902981489
20
34.09620992738043
10
-25.473913116879608
20
33.93952359720349
10
-25.419155422588105
20
33.78409916103062
10
-25.362565007255412
20
33.62998382828858
10
-25.304082965173034
20
33.47723090904635
10
-25.24364042528708
20
33.32590134748244
10
-25.181155781886456
20
33.17606584600756
10
-25.11653072756553
20
33.02780790815604
10
-25.0496443288269
20
32.881228382957275
10
-24.980343696964216
20
32.73645262104897
10
-24.908428232483107
20
32.59364256049319
10
-24.833620295998895
20
32.45301922476564
10
-24.75550199323329
20
32.314911214428136
10
-24.673339251283526
20
32.17988965702816
10
-24.585041064008106
20
32.049566563873356
0
ARC
5
59
330
11
100
AcDbEntity
100
AcDbCircle
8
0
10
-25.646898643724096
20
31.52427332570003
30
0
40
1.1846832934041553
100
AcDbArc
50
231.9396012153714
51
26.32126834984616
0
LWPOLYLINE
5
5A
330
11
100
AcDbEntity
100
AcDbPolyline
8
0
6
ByLayer
62
256
370
-1
90
21
70
0
10
-26.377246204185447
20
30.5914995339375
10
-26.486878673808018
20
30.70446590101202
10
-26.60235962825385
20
30.81238108200014
10
-26.72168534512964
20
30.916964374348595
10
-26.84414729099552
20
31.018818297821923
10
-26.96933871516648
20
31.118285150298146
10
-27.096986729672174
20
31.215591795525757
10
-27.226891970359507
20
31.31090169000521
10
-27.358900602287072
20
31.40433902129511
10
-27.49288928112773
20
31.49600167511699
10
-27.628756248666914
20
31.585968913391223
10
-27.766415678126755
20
31.674306250140425
10
-27.90579388780177
20
31.761068716457974
10
-28.046826697931117
20
31.846303139731642
10
-28.189457522531068
20
31.93004978915467
10
-28.333635953056298
20
32.01234359716206
10
-28.47931668232894
20
32.09321508747459
10
-28.62645867058467
20
32.172691094379786
10
-28.775024487988244
20
32.25079532985405
10
-28.924979788474847
20
32.32754883745063
10
-29.076292883117073
20
32.402970360372755
0
ARC
5
5B
330
11
100
AcDbEntity
100
AcDbCircle
8
0
10
0
20
0
30
0
40
43.536
100
AcDbArc
50
131.90286442583854
51
134.18409209590058
0
LWPOLYLINE
5
5C
330
11
100
AcDbEntity
100
AcDbPolyline
8
0
6
ByLayer
62
256
370
-1
90
21
70
0
10
-30.343195159508685
20
31.219766230898795
10
-30.278275432316548
20
31.06365893526083
10
-30.211934166463646
20
30.908815370598166
10
-30.144150499912584
20
30.755265872882593
10
-30.07490109430914
20
30.603043272047454
10
-30.00415973865272
20
30.45218329250791
10
-29.931896860560162
20
30.302725047118585
10
-29.858078915597357
20
30.15471165442349
10
-29.78266761276408
20
30.00819102158032
10
-29.705618915179784
20
29.863216854590885
10
-29.62688172484038
20
29.719849987984244
10
-29.54639611072527
20
29.578160176242182
10
-29.464090854513685
20
29.438228575225544
10
-29.379879934836943
20
29.300151296902268
10
-29.293657276853168
20
29.16404471809753
10
-29.20528848444596
20
29.030053840269257
10
-29.114596877078736
20
28.89836640814064
10
-29.021337497341097
20
28.76923919178747
10
-28.92514108768199
20
28.643054634431742
10
-28.825358180917636
20
28.52047850035551
10
-28.720136748828647
20
28.403392511805627
0
ARC
5
5D
330
11
100
AcDbEntity
100
AcDbCircle
8
0
10
-29.700576709710457
20
27.73840229475202
30
0
40
1.1846832934041553
100
AcDbArc
50
239.7656881718931
51
34.1473553063679
0
LWPOLYLINE
5
5E
330
11
100
AcDbEntity
100
AcDbPolyline
8
0
6
ByLayer
62
256
370
-1
90
21
70
0
10
-30.29710909199233
20
26.71486742843822
10
-30.421102690541783
20
26.811853334653083
10
-30.550202497727895
20
26.90303873322065
10
-30.68265756490799
20
26.990399748122492
10
-30.81784800105825
20
27.074629765845817
10
-30.95541745354653
20
27.156123281965534
10
-31.095126467372207
20
27.23514220544944
10
-31.236799792594596
20
27.311875617104
10
-31.380301937302963
20
27.386467494986697
10
-31.52552403477657
20
27.459031608489855
10
-31.672376067412465
20
27.52966033735916
10
-31.82078192865293
20
27.598430272160826
10
-31.970676116467462
20
27.665405964416596
10
-32.12200142519744
20
27.73064254450439
10
-32.274707279225154
20
27.794187611671806
10
-32.42874849614581
20
27.856082636953953
10
-32.58408434708782
20
27.91636402909864
10
-32.74067782846845
20
27.975063960704567
10
-32.89849508785632
20
28.032211019588743
10
-33.05750496451786
20
28.087830730092183
10
-33.21767861687722
20
28.14194597581798
0
ARC
5
5F
330
11
100
AcDbEntity
100
AcDbCircle
8
0
10
0
20
0
30
0
40
43.536
100
AcDbArc
50
139.72895138236026
51
142.01017905242233
0
LWPOLYLINE
5
60
330
11
100
AcDbEntity
100
AcDbPolyline
8
0
6
ByLayer
62
256
370
-1
90
21
70
0
10
-34.31166795559252
20
26.79725243574732
10
-34.22609628689626
20
26.651439033597043
10
-34.139288397839294
20
26.507071158119565
10
-34.051227751442
20
26.364181703449525
10
-33.961895697066865
20
26.22280637164598
10
-33.871271132317865
20
26.08298412344909
10
-33.779330086116964
20
25.944757734186553
10
-33.686045197772366
20
25.80817448842712
10
-33.59138505628543
20
25.673287061075836
10
-33.495313347903796
20
25.540154654268363
10
-33.397787734186906
20
25.408844493761663
10
-33.29875834054897
20
25.27943384494678
10
-33.198165662722126
20
25.152012805354573
10
-33.095937567789974
20
25.02668830500245
10
-32.99198481553976
20
24.903590080631332
10
-32.88619400599039
20
24.782880083416565
10
-32.7784156687872
20
24.664768367413473
10
-32.66844209158711
20
24.54954266615727
10
-32.55595953213585
20
24.437632141336504
10
-32.44041522731343
20
24.329784792038897
10
-32.320230626604086
20
24.228116998525426
0
ARC
5
61
330
11
100
AcDbEntity
100
AcDbCircle
8
0
10
-33.20098922724413
20
23.435817312125437
30
0
40
1.1846832934041553
100
AcDbArc
50
247.59177512841487
51
41.973442262889634
0
LWPOLYLINE
5
62
330
11
100
AcDbEntity
100
AcDbPolyline
8
0
6
ByLayer
62
256
370
-1
90
21
70
0
10
-33.65259416174724
20
22.34058788921746
10
-33.788639123087485
20
22.419786670644253
10
-33.92895289787222
20
22.492543675345363
10
-34.07206992806967
20
22.561055042386354
10
-34.21747051246896
20
22.626092108498803
10
-34.3648553346661
20
22.688094218248356
10
-34.51402283322379
20
22.747353446953596
10
-34.66482513698857
20
22.80408097750934
10
-34.8171476210383
20
22.858437896433117
10
-34.97089792423969
20
22.910551737479576
10
-35.125999446459
20
22.9605262773598
10
-35.28238721907986
20
23.00844775644629
10
-35.44000513992561
20
23.054389044216425
10
-35.598804043073066
20
23.098412547063663
10
-35.758740305398575
20
23.14057230760602
10
-35.91977481230061
20
23.180915562951817
10
-36.08187217191565
20
23.219483928649776
10
-36.24500010614929
20
23.256314316295143
10
-36.409128970580795
20
23.291439657008606
10
-36.57423137027331
20
23.324889480448768
10
-36.74028184826654
20
23.356690384340332
0
ARC
5
63
330
11
100
AcDbEntity
100
AcDbCircle
8
0
10
0
20
0
30
0
40
43.536
100
AcDbArc
50
147.555038338882
51
149.83626600894405
0
LWPOLYLINE
5
64
330
11
100
AcDbEntity
100
AcDbPolyline
8
0
6
ByLayer
62
256
370
-1
90
21
70
0
10
-37.640979297832565
20
21.87555653006661
10
-37.53634972591218
20
21.74275324919653
10
-37.43069228037746
20
21.611550363269878
10
-37.32399505735917
20
21.481982711828643
10
-37.21624444136261
20
21.354088203995794
10
-37.10742483169405
20
21.227908311071605
10
-36.99751830511639
20
21.10348867403344
10
-36.886504194358075
20
20.980879862652746
10
-36.77435855354952
20
20.860138338348087
10
-36.661053468523036
20
20.74132769656521
10
-36.54655614908666
20
20.624520302000334
10
-36.43082770615856
20
20.509799491645698
10
-36.31382145797571
20
20.39726262635566
10
-36.19548050377376
20
20.287025462293187
10
-36.07573410034536
20
20.179228679364932
10
-35.954491956271845
20
20.0740481616197
10
-35.83163459573032
20
19.971712359535328
10
-35.70699542073303
20
19.872534610175087
10
-35.580322048747036
20
19.776982799223852
10
-35.45116871764715
20
19.685873226767267
10
-35.318259760030685
20
19.60151750692051
0
ARC
5
65
330
11
100
AcDbEntity
100
AcDbCircle
8
0
10
-36.0829301341583
20
18.696667395243193
30
0
40
1.1846832934041553
100
AcDbArc
50
255.4178620849366
51
49.79952921941136
0
LWPOLYLINE
5
66
330
11
100
AcDbEntity
100
AcDbPolyline
8
0
6
ByLayer
62
256
370
-1
90
21
70
0
10
-36.381195075422184
20
17.550145467636163
10
-36.52675713933043
20
17.61008180082676
10
-36.6756711015734
20
17.663055086325365
10
-36.826784095303445
20
17.71144056836602
10
-36.979686290172864
20
17.756073165380773
10
-37.134140981704135
20
17.797428886768024
10
-37.289988256731455
20
17.83582453338659
10
-37.4471103774484
20
17.871489456281864
10
-37.605415721166864
20
17.90459884969442
10
-37.76483015285413
20
17.93529163602865
10
-37.92529191676127
20
17.963681055797295
10
-38.08674839245562
20
17.989861392684148
10
-38.2491539226918
20
18.013912476701748
10
-38.412468297150156
20
18.035902827746046
10
-38.57665565781737
20
18.05589192509377
10
-38.74168368652617
20
18.07393189198849
10
-38.907522987704596
20
18.09006877556092
10
-39.074146610026396
20
18.10434353880967
10
-39.2415296693009
20
18.116792842714627
10
-39.40964904670386
20
18.127449672170307
10
-39.57848314410552
20
18.136343843557768
0
ARC
5
67
330
11
100
AcDbEntity
100
AcDbCircle
8
0
10
0
20
0
30
0
40
43.536
100
AcDbArc
50
155.38112529540373
51
157.6623529654658
0
LWPOLYLINE
5
68
330
11
100
AcDbEntity
100
AcDbPolyline
8
0
6
ByLayer
62
256
370
-1
90
21
70
0
10
-40.26911041522189
20
16.546360396373224
10
-40.14737199103549
20
16.429041110632497
10
-40.024833187321754
20
16.313447275776088
10
-39.901486955068414
20
16.199615027758597
10
-39.77732496755445
20
16.087583776591664
10
-39.65233741639983
20
15.977396731603834
10
-39.52651276008441
20
15.869101549217069
10
-39.399837409749054
20
15.762751142386358
10
-39.27229533071944
20
15.658404707274377
10
-39.143867528400705
20
15.556129047974146
10
-39.01453137166869
20
15.456000320103758
10
-38.88425968137555
20
15.358106379846163
10
-38.753019467856035
20
15.262550037730717
10
-38.62077012245136
20
15.169453719747661
10
-38.48746071677176
20
15.078966428368886
10
-38.35302574991923
20
14.991274704129593
10
-38.217377966211224
20
14.906621138329998
10
-38.08039498542056
20
14.825338834684795
10
-37.94189048614469
20
14.747925687050142
10
-37.80153401095826
20
14.675251090383513
10
-37.658376538841644
20
14.609778831657062
0
ARC
5
69
330
11
100
AcDbEntity
100
AcDbCircle
8
0
10
-38.292714324198755
20
13.60923394024081
30
0
40
1.1846832934041553
100
AcDbArc
50
263.24394904145834
51
57.625616175933104
0
LWPOLYLINE
5
6A
330
11
100
AcDbEntity
100
AcDbPolyline
8
0
6
ByLayer
62
256
370
-1
90
21
70
0
10
-38.432083160706625
20
12.432777042143234
10
-38.58445078134624
20
12.47233442661419
10
-38.7391909456869
20
12.504537200830756
10
-38.895484953793115
20
12.531895467889504
10
-39.053040480544325
20
12.555292174972292
10
-39.211687842745995
20
12.575231129155828
10
-39.37131175438355
20
12.592047955438568
10
-39.531826804230185
20
12.605985900640462
10
-39.69316607858911
20
12.617231003187896
10
-39.85527504952361
20
12.62593098627348
10
-40.01810795606229
20
12.632206444755095
10
-40.18162550617534
20
12.636157949301204
10
-40.3457933380567
20
12.637870803377417
10
-40.51058094603246
20
12.637418363986168
10
-40.675960905166576
20
12.6348644390765
10
-40.841908295752326
20
12.630265067069821
10
-41.00840026609319
20
12.623669868907923
10
-41.175415693683284
20
12.615123095929617
10
-41.342934918107424
20
12.604664456049305
10
-41.51093952731388
20
12.592329774951246
10
-41.67941218433575
20
12.578151532250068
0
ARC
5
6B
330
11
100
AcDbEntity
100
AcDbCircle
8
0
10
0
20
0
30
0
40
43.536
100
AcDbArc
50
163.2072122519255
51
165.48843992198755
0
LWPOLYLINE
5
6C
330
11
100
AcDbEntity
100
AcDbPolyline
8
0
6
ByLayer
62
256
370
-1
90
21
70
0
10
-42.14710419765854
20
10.908936875411543
10
-42.01052467771079
20
10.8092870211169
10
-41.873387181878904
20
10.711455531762175
10
-41.73568964731735
20
10.615479166570108
10
-41.59742919118987
20
10.521398102307069
10
-41.45860198014168
20
10.429256481421824
10
-41.31920306936627
20
10.339103088031973
10
-41.17922620155164
20
10.250992192607798
10
-41.03866355191441
20
10.164984623343598
10
-40.89750539926589
20
10.081149148545796
10
-40.75573969312475
20
9.999564296119292
10
-40.613351470573235
20
9.920320804843294
10
-40.470322048578886
20
9.843525019756513
10
-40.32662786705102
20
9.769303756111894
10
-40.182238761116935
20
9.697811563312452
10
-40.03711524055715
20
9.629242163482562
10
-39.891203895237666
20
9.563847769727895
10
-39.744428842404
20
9.501975047322613
10
-39.59667329259919
20
9.444142623473676
10
-39.44772824889428
20
9.391256792827287
10
-39.296989015118726
20
9.345887619522946
0
ARC
5
6D
330
11
100
AcDbEntity
100
AcDbCircle
8
0
10
-39.789177698977305
20
8.268286206591204
30
0
40
1.1846832934041553
100
AcDbArc
50
271.0700359979801
51
65.45170313245487
0
LWPOLYLINE
5
6E
330
11
100
AcDbEntity
100
AcDbPolyline
8
0
6
ByLayer
62
256
370
-1
90
21
70
0
10
-39.76705425300097
20
7.083809504072739
10
-39.92338910989005
20
7.102251060596806
10
-40.081072959846374
20
7.11308344677767
10
-40.23963652067736
20
7.118904866103034
10
-40.39891041795347
20
7.120629846869176
10
-40.558795150640066
20
7.118780608858508
10
-40.71922220743409
20
7.113705349150431
10
-40.8801400947379
20
7.105656679111441
10
-41.04150785432161
20
7.0948280158098465
10
-41.20329158109679
20
7.081373131422892
10
-41.365462361309895
20
7.0654177286995905
10
-41.52799496327011
20
7.0470667918517975
10
-41.69086696070619
20
7.026409508756031
10
-41.85405812085289
20
7.003522707019043
10
-42.01754996272613
20
6.978473334640837
10
-42.18132542928674
20
6.951320301330901
10
-42.345368638397495
20
6.922115877497833
10
-42.50966468984521
20
6.890906778501942
10
-42.674199513226505
20
6.8577350195088265
10
-42.83895974624387
20
6.822638599627772
10
-43.00393263604815
20
6.785652056673214
0
ARC
5
6F
330
11
100
AcDbEntity
100
AcDbCircle
8
0
10
0
20
0
30
0
40
43.536
100
AcDbArc
50
171.03329920844723
51
173.3145268785093
0
LWPOLYLINE
5
70
330
11
100
AcDbEntity
100
AcDbPolyline
8
0
6
ByLayer
62
256
370
-1
90
21
70
0
10
-43.239977174276426
20
5.068300500962187
10
-43.09110077660557
20
4.988176366354376
10
-42.941919200728776
20
4.909929638043726
10
-42.792435408394155
20
4.833597013766356
10
-42.64265201435198
20
4.759218688626222
10
-42.49257123168088
20
4.68683891590201
10
-42.34219480440036
20
4.616506698651153
10
-42.191523923307436
20
4.548276653903053
10
-42.04055911927058
20
4.482210108769455
10
-41.88930012559464
20
4.418376514746756
10
-41.73774569691876
20
4.356855309200372
10
-41.58589336528614
20
4.297738423213999
10
-41.43373910232666
20
4.241133755328842
10
-41.281276835397634
20
4.1871701477323375
10
-41.12849772505794
20
4.1360048177956585
10
-40.97538902739466
20
4.087835060555718
10
-40.82193217275215
20
4.04291801267068
10
-40.66809918940071
20
4.001607443256048
10
-40.51384499539559
20
3.9644330518259823
10
-40.35908594752157
20
3.93232115016094
10
-40.20357293880272
20
3.9079002041355952
0
ARC
5
71
330
11
100
AcDbEntity
100
AcDbCircle
8
0
10
-40.54444397723925
20
2.773315945111112
30
0
40
1.1846832934041553
100
AcDbArc
50
278.8961229545018
51
73.2777900889766
0
LWPOLYLINE
5
72
330
11
100
AcDbEntity
100
AcDbPolyline
8
0
6
ByLayer
62
256
370
-1
90
21
70
0
10
-40.361240366718086
20
1.6028839980236715
10
-40.518630237269704
20
1.5998661952955708
10
-40.67632042106629
20
1.5891264065818438
10
-40.83419979549755
20
1.5733025361463433
10
-40.99222509195012
20
1.5533236574679536
10
-41.150368845065195
20
1.5297206750683268
10
-41.30861059448727
20
1.5028478718550342
10
-41.46693372347612
20
1.4729625180693162
10
-41.6253239922431
20
1.4402618064273838
10
-41.783768750135714
20
1.4049026936064064
10
-41.94225646922676
20
1.3670136486421396
10
-42.100776448183126
20
1.3267021136326145
10
-42.25931861402733
20
1.2840594994638617
10
-42.41787338380097
20
1.2391646731940014
10
-42.57643156473768
20
1.19208647575943
10
-42.734984280206206
20
1.1428855907812874
10
-42.8935229134828
20
1.091615964436172
10
-43.05203906420973
20
1.0383259058871068
10
-43.21052451410042
20
0.9830589548878491
10
-43.36897119952593
20
0.9258545761212064
10
-43.52737118931624
20
0.8667487222272848
0
ARC
5
73
330
11
100
AcDbEntity
100
AcDbCircle
8
0
10
0
20
0
30
0
40
43.536
100
AcDbArc
50
178.85938616496898
51
181.14061383503102
0
LWPOLYLINE
5
74
330
11
100
AcDbEntity
100
AcDbPolyline
8
0
6
ByLayer
62
256
370
-1
90
21
70
0
10
-43.52737118931624
20
-0.8667487222272743
10
-43.36897119952593
20
-0.9258545761211958
10
-43.21052451410042
20
-0.9830589548878385
10
-43.05203906420973
20
-1.0383259058870962
10
-42.893522913482805
20
-1.0916159644361614
10
-42.734984280206206
20
-1.142885590781277
10
-42.57643156473768
20
-1.1920864757594198
10
-42.41787338380097
20
-1.239164673193991
10
-42.25931861402733
20
-1.2840594994638515
10
-42.100776448183126
20
-1.3267021136326038
10
-41.94225646922676
20
-1.3670136486421294
10
-41.783768750135714
20
-1.4049026936063962
10
-41.6253239922431
20
-1.4402618064273736
10
-41.46693372347612
20
-1.4729625180693058
10
-41.30861059448727
20
-1.502847871855024
10
-41.150368845065195
20
-1.5297206750683165
10
-40.99222509195012
20
-1.5533236574679437
10
-40.83419979549755
20
-1.573302536146333
10
-40.67632042106629
20
-1.5891264065818336
10
-40.518630237269704
20
-1.5998661952955608
10
-40.361240366718086
20
-1.6028839980236615
0
ARC
5
75
330
11
100
AcDbEntity
100
AcDbCircle
8
0
10
-40.54444397723924
20
-2.77331594511112
30
0
40
1.1846832934041553
100
AcDbArc
50
286.7222099110236
51
81.10387704549834
0
LWPOLYLINE
5
76
330
11
100
AcDbEntity
100
AcDbPolyline
8
0
6
ByLayer
62
256
370
-1
90
21
70
0
10
-40.20357293880272
20
-3.907900204135585
10
-40.35908594752158
20
-3.9323211501609303
10
-40.513844995395594
20
-3.964433051825972
10
-40.66809918940071
20
-4.001607443256038
10
-40.821932172752156
20
-4.04291801267067
10
-40.97538902739466
20
-4.087835060555708
10
-41.12849772505794
20
-4.136004817795649
10
-41.281276835397634
20
-4.187170147732328
10
-41.43373910232666
20
-4.241133755328831
10
-41.58589336528615
20
-4.297738423213988
10
-41.73774569691876
20
-4.356855309200362
10
-41.88930012559464
20
-4.418376514746746
10
-42.04055911927058
20
-4.482210108769445
10
-42.191523923307436
20
-4.548276653903043
10
-42.34219480440036
20
-4.616506698651143
10
-42.49257123168088
20
-4.686838915901999
10
-42.64265201435198
20
-4.759218688626212
10
-42.792435408394155
20
-4.8335970137663455
10
-42.941919200728776
20
-4.909929638043716
10
-43.09110077660557
20
-4.988176366354366
10
-43.23997717427643
20
-5.068300500962177
0
ARC
5
77
330
11
100
AcDbEntity
100
AcDbCircle
8
0
10
0
20
0
30
0
40
43.536
100
AcDbArc
50
186.68547312149067
51
188.96670079155277
0
LWPOLYLINE
5
78
330
11
100
AcDbEntity
100
AcDbPolyline
8
0
6
ByLayer
62
256
370
-1
90
21
70
0
10
-43.00393263604815
20
-6.785652056673204
10
-42.83895974624387
20
-6.822638599627762
10
-42.674199513226505
20
-6.857735019508816
10
-42.50966468984521
20
-6.8909067785019325
10
-42.3453686383975
20
-6.922115877497823
10
-42.18132542928674
20
-6.95132030133089
10
-42.01754996272613
20
-6.978473334640826
10
-41.8540581208529
20
-7.003522707019032
10
-41.690866960706195
20
-7.026409508756022
10
-41.52799496327012
20
-7.047066791851788
10
-41.365462361309895
20
-7.06541772869958
10
-41.2032915810968
20
-7.081373131422883
10
-41.041507854321615
20
-7.094828015809836
10
-40.8801400947379
20
-7.10565667911143
10
-40.71922220743409
20
-7.11370534915042
10
-40.558795150640066
20
-7.118780608858498
10
-40.39891041795348
20
-7.120629846869167
10
-40.23963652067736
20
-7.1189048661030245
10
-40.081072959846374
20
-7.11308344677766
10
-39.92338910989005
20
-7.102251060596796
10
-39.76705425300097
20
-7.08380950407273
0
ARC
5
79
330
11
100
AcDbEntity
100
AcDbCircle
8
0
10
-39.789177698977305
20
-8.268286206591213
30
0
40
1.1846832934041553
100
AcDbArc
50
294.5482968675453
51
88.92996400202007
0
LWPOLYLINE
5
7A
330
11
100
AcDbEntity
100
AcDbPolyline
8
0
6
ByLayer
62
256
370
-1
90
21
70
0
10
-39.296989015118726
20
-9.345887619522937
10
-39.44772824889428
20
-9.391256792827278
10
-39.5966732925992
20
-9.444142623473665
10
-39.744428842404
20
-9.501975047322604
10
-39.89120389523767
20
-9.563847769727884
10
-40.03711524055715
20
-9.629242163482553
10
-40.18223876111694
20
-9.697811563312442
10
-40.32662786705102
20
-9.769303756111883
10
-40.47032204857889
20
-9.843525019756502
10
-40.613351470573235
20
-9.920320804843284
10
-40.75573969312475
20
-9.999564296119281
10
-40.897505399265896
20
-10.081149148545785
10
-41.03866355191442
20
-10.164984623343587
10
-41.17922620155164
20
-10.250992192607788
10
-41.319203069366274
20
-10.339103088031964
10
-41.45860198014168
20
-10.429256481421813
10
-41.597429191189875
20
-10.52139810230706
10
-41.73568964731735
20
-10.615479166570097
10
-41.873387181878904
20
-10.711455531762164
10
-42.0105246777108
20
-10.809287021116889
10
-42.14710419765854
20
-10.90893687541153
0
ARC
5
7B
330
11
100
AcDbEntity
100
AcDbCircle
8
0
10
0
20
0
30
0
40
43.536
100
AcDbArc
50
194.51156007801242
51
196.79278774807452
0
LWPOLYLINE
5
7C
330
11
100
AcDbEntity
100
AcDbPolyline
8
0
6
ByLayer
62
256
370
-1
90
21
70
0
10
-41.67941218433575
20
-12.578151532250057
10
-41.51093952731389
20
-12.592329774951237
10
-41.342934918107424
20
-12.604664456049294
10
-41.17541569368329
20
-12.615123095929604
10
-41.00840026609319
20
-12.62366986890791
10
-40.841908295752326
20
-12.630265067069812
10
-40.675960905166576
20
-12.63486443907649
10
-40.51058094603247
20
-12.637418363986159
10
-40.34579333805671
20
-12.637870803377407
10
-40.18162550617534
20
-12.636157949301193
10
-40.018107956062295
20
-12.632206444755086
10
-39.85527504952361
20
-12.625930986273469
10
-39.69316607858911
20
-12.617231003187888
10
-39.531826804230185
20
-12.605985900640453
10
-39.371311754383555
20
-12.592047955438558
10
-39.211687842745995
20
-12.575231129155819
10
-39.05304048054433
20
-12.555292174972283
10
-38.89548495379312
20
-12.531895467889495
10
-38.73919094568691
20
-12.504537200830747
10
-38.58445078134625
20
-12.47233442661418
10
-38.43208316070663
20
-12.432777042143226
0
ARC
5
7D
330
11
100
AcDbEntity
100
AcDbCircle
8
0
10
-38.29271432419876
20
-13.6092339402408
30
0
40
1.1846832934041553
100
AcDbArc
50
302.374383824067
51
96.7560509585418
0
LWPOLYLINE
5
7E
330
11
100
AcDbEntity
100
AcDbPolyline
8
0
6
ByLayer
62
256
370
-1
90
21
70
0
10
-37.65837653884166
20
-14.609778831657037
10
-37.801534010958264
20
-14.675251090383489
10
-37.9418904861447
20
-14.747925687050113
10
-38.08039498542057
20
-14.825338834684768
10
-38.21737796621124
20
-14.906621138329973
10
-38.35302574991925
20
-14.991274704129568
10
-38.487460716771764
20
-15.078966428368862
10
-38.620770122451376
20
-15.169453719747633
10
-38.75301946785604
20
-15.262550037730692
10
-38.88425968137557
20
-15.358106379846138
10
-39.0145313716687
20
-15.45600032010373
10
-39.14386752840071
20
-15.55612904797412
10
-39.27229533071945
20
-15.658404707274348
10
-39.39983740974906
20
-15.76275114238633
10
-39.52651276008442
20
-15.869101549217044
10
-39.65233741639984
20
-15.977396731603806
10
-39.77732496755446
20
-16.08758377659164
10
-39.90148695506842
20
-16.19961502775857
10
-40.02483318732176
20
-16.31344727577606
10
-40.147371991035506
20
-16.42904111063247
10
-40.269110415221895
20
-16.5463603963732
0
ARC
5
7F
330
11
100
AcDbEntity
100
AcDbCircle
8
0
10
0
20
0
30
0
40
43.536
100
AcDbArc
50
202.33764703453417
51
204.61887470459624
0
LWPOLYLINE
5
80
330
11
100
AcDbEntity
100
AcDbPolyline
8
0
6
ByLayer
62
256
370
-1
90
21
70
0
10
-39.578483144105526
20
-18.13634384355774
10
-39.409649046703876
20
-18.127449672170282
10
-39.24152966930091
20
-18.1167928427146
10
-39.07414661002641
20
-18.10434353880964
10
-38.90752298770461
20
-18.090068775560894
10
-38.74168368652619
20
-18.073931891988465
10
-38.57665565781738
20
-18.055891925093746
10
-38.41246829715016
20
-18.03590282774602
10
-38.24915392269181
20
-18.01391247670172
10
-38.08674839245563
20
-17.989861392684123
10
-37.925291916761275
20
-17.96368105579727
10
-37.764830152854145
20
-17.935291636028627
10
-37.60541572116688
20
-17.904598849694395
10
-37.44711037744842
20
-17.87148945628184
10
-37.28998825673147
20
-17.835824533386564
10
-37.13414098170415
20
-17.797428886768
10
-36.97968629017288
20
-17.756073165380748
10
-36.82678409530346
20
-17.711440568365994
10
-36.675671101573414
20
-17.66305508632534
10
-36.52675713933044
20
-17.610081800826734
10
-36.3811950754222
20
-17.55014546763614
0
ARC
5
81
330
11
100
AcDbEntity
100
AcDbCircle
8
0
10
-36.08293013415831
20
-18.696667395243185
30
0
40
1.1846832934041553
100
AcDbArc
50
310.2004707805888
51
104.58213791506354
0
LWPOLYLINE
5
82
330
11
100
AcDbEntity
100
AcDbPolyline
8
0
6
ByLayer
62
256
370
-1
90
21
70
0
10
-35.3182597600307
20
-19.601517506920484
10
-35.451168717647164
20
-19.685873226767242
10
-35.58032204874705
20
-19.776982799223827
10
-35.706995420733044
20
-19.872534610175062
10
-35.831634595730335
20
-19.971712359535303
10
-35.95449195627185
20
-20.074048161619675
10
-36.07573410034537
20
-20.179228679364908
10
-36.19548050377377
20
-20.28702546229316
10
-36.31382145797573
20
-20.397262626355634
10
-36.430827706158574
20
-20.509799491645673
10
-36.546556149086676
20
-20.62452030200031
10
-36.66105346852305
20
-20.741327696565186
10
-36.77435855354953
20
-20.86013833834806
10
-36.88650419435809
20
-20.980879862652724
10
-36.9975183051164
20
-21.103488674033418
10
-37.10742483169406
20
-21.22790831107158
10
-37.216244441362626
20
-21.35408820399577
10
-37.32399505735919
20
-21.481982711828618
10
-37.43069228037747
20
-21.611550363269853
10
-37.536349725912196
20
-21.742753249196504
10
-37.64097929783259
20
-21.875556530066586
0
ARC
5
83
330
11
100
AcDbEntity
100
AcDbCircle
8
0
10
0
20
0
30
0
40
43.536
100
AcDbArc
50
210.16373399105592
51
212.444961661118
0
LWPOLYLINE
5
84
330
11
100
AcDbEntity
100
AcDbPolyline
8
0
6
ByLayer
62
256
370
-1
90
21
70
0
10
-36.740281848266555
20
-23.356690384340308
10
-36.574231370273324
20
-23.324889480448743
10
-36.40912897058081
20
-23.291439657008585
10
-36.245000106149305
20
-23.256314316295118
10
-36.08187217191566
20
-23.219483928649748
10
-35.91977481230062
20
-23.180915562951792
10
-35.7587403053986
20
-23.140572307605993
10
-35.59880404307308
20
-23.09841254706364
10
-35.440005139925624
20
-23.054389044216403
10
-35.28238721907987
20
-23.00844775644627
10
-35.12599944645901
20
-22.96052627735978
10
-34.97089792423971
20
-22.910551737479548
10
-34.817147621038316
20
-22.85843789643309
10
-34.66482513698859
20
-22.80408097750932
10
-34.514022833223805
20
-22.747353446953575
10
-34.36485533466612
20
-22.68809421824833
10
-34.21747051246897
20
-22.62609210849878
10
-34.07206992806969
20
-22.561055042386332
10
-33.928952897872236
20
-22.49254367534534
10
-33.788639123087506
20
-22.419786670644232
10
-33.652594161747245
20
-22.34058788921744
0
ARC
5
85
330
11
100
AcDbEntity
100
AcDbCircle
8
0
10
-33.200989227244136
20
-23.435817312125426
30
0
40
1.1846832934041553
100
AcDbArc
50
318.0265577371105
51
112.40822487158528
0
LWPOLYLINE
5
86
330
11
100
AcDbEntity
100
AcDbPolyline
8
0
6
ByLayer
62
256
370
-1
90
21
70
0
10
-32.3202306266041
20
-24.228116998525422
10
-32.44041522731344
20
-24.32978479203889
10
-32.555959532135866
20
-24.437632141336493
10
-32.66844209158712
20
-24.549542666157258
10
-32.7784156687872
20
-24.66476836741347
10
-32.8861940059904
20
-24.782880083416558
10
-32.99198481553976
20
-24.90359008063132
10
-33.09593756778998
20
-25.02668830500244
10
-33.19816566272213
20
-25.152012805354566
10
-33.29875834054897
20
-25.27943384494677
10
-33.39778773418691
20
-25.40884449376166
10
-33.4953133479038
20
-25.540154654268353
10
-33.59138505628544
20
-25.673287061075825
10
-33.68604519777237
20
-25.808174488427113
10
-33.77933008611697
20
-25.944757734186542
10
-33.87127113231787
20
-26.08298412344908
10
-33.96189569706687
20
-26.222806371645973
10
-34.051227751442006
20
-26.36418170344952
10
-34.1392883978393
20
-26.50707115811956
10
-34.226096286896265
20
-26.651439033597033
10
-34.311667955592526
20
-26.79725243574731
0
ARC
5
87
330
11
100
AcDbEntity
100
AcDbCircle
8
0
10
0
20
0
30
0
40
43.536
100
AcDbArc
50
217.9898209475777
51
220.27104861763974
0
LWPOLYLINE
5
88
330
11
100
AcDbEntity
100
AcDbPolyline
8
0
6
ByLayer
62
256
370
-1
90
21
70
0
10
-33.21767861687723
20
-28.141945975817972
10
-33.05750496451787
20
-28.087830730092175
10
-32.898495087856325
20
-28.032211019588736
10
-32.74067782846845
20
-27.97506396070456
10
-32.584084347087824
20
-27.91636402909863
10
-32.42874849614582
20
-27.856082636953946
10
-32.27470727922516
20
-27.794187611671795
10
-32.122001425197446
20
-27.73064254450438
10
-31.970676116467466
20
-27.665405964416586
10
-31.820781928652938
20
-27.598430272160822
10
-31.67237606741247
20
-27.529660337359154
10
-31.525524034776577
20
-27.45903160848985
10
-31.38030193730297
20
-27.386467494986686
10
-31.236799792594606
20
-27.311875617103997
10
-31.095126467372214
20
-27.23514220544943
10
-30.955417453546538
20
-27.156123281965524
10
-30.817848001058252
20
-27.074629765845813
10
-30.682657564908
20
-26.99039974812249
10
-30.550202497727906
20
-26.903038733220644
10
-30.421102690541794
20
-26.811853334653076
10
-30.297109091992336
20
-26.714867428438218
0
ARC
5
89
330
11
100
AcDbEntity
100
AcDbCircle
8
0
10
-29.700576709710447
20
-27.738402294752024
30
0
40
1.1846832934041553
100
AcDbArc
50
325.85264469363227
51
120.23431182810705
0
LWPOLYLINE
5
8A
330
11
100
AcDbEntity
100
AcDbPolyline
8
0
6
ByLayer
62
256
370
-1
90
21
70
0
10
-28.720136748828658
20
-28.403392511805624
10
-28.825358180917647
20
-28.520478500355498
10
-28.925141087681993
20
-28.64305463443174
10
-29.0213374973411
20
-28.76923919178746
10
-29.114596877078743
20
-28.898366408140628
10
-29.205288484445965
20
-29.030053840269254
10
-29.293657276853178
20
-29.164044718097518
10
-29.379879934836953
20
-29.300151296902257
10
-29.464090854513692
20
-29.43822857522554
10
-29.546396110725272
20
-29.57816017624218
10
-29.626881724840388
20
-29.719849987984237
10
-29.70561891517979
20
-29.86321685459088
10
-29.782667612764083
20
-30.008191021580316
10
-29.858078915597368
20
-30.15471165442348
10
-29.931896860560173
20
-30.302725047118575
10
-30.004159738652728
20
-30.4521832925079
10
-30.074901094309148
20
-30.603043272047444
10
-30.14415049991259
20
-30.755265872882582
10
-30.211934166463653
20
-30.908815370598155
10
-30.27827543231656
20
-31.063658935260822
10
-30.343195159508696
20
-31.219766230898788
0
ARC
5
8B
330
11
100
AcDbEntity
100
AcDbCircle
8
0
10
0
20
0
30
0
40
43.536
100
AcDbArc
50
225.8159079040994
51
228.09713557416148
0
LWPOLYLINE
5
8C
330
11
100
AcDbEntity
100
AcDbPolyline
8
0
6
ByLayer
62
256
370
-1
90
21
70
0
10
-29.07629288311708
20
-32.402970360372755
10
-28.924979788474857
20
-32.32754883745062
10
-28.775024487988247
20
-32.25079532985404
10
-28.62645867058468
20
-32.17269109437978
10
-28.479316682328946
20
-32.093215087474576
10
-28.3336359530563
20
-32.012343597162044
10
-28.18945752253107
20
-31.930049789154666
10
-28.046826697931124
20
-31.84630313973164
10
-27.90579388780178
20
-31.761068716457967
10
-27.766415678126766
20
-31.67430625014042
10
-27.628756248666924
20
-31.585968913391216
10
-27.492889281127734
20
-31.496001675116982
10
-27.358900602287083
20
-31.404339021295108
10
-27.226891970359514
20
-31.310901690005203
10
-27.096986729672185
20
-31.21559179552575
10
-26.96933871516649
20
-31.118285150298142
10
-26.844147290995522
20
-31.01881829782192
10
-26.721685345129647
20
-30.91696437434859
10
-26.60235962825386
20
-30.81238108200013
10
-26.486878673808043
20
-30.704465901012004
10
-26.377246204185465
20
-30.591499533937483
0
ARC
5
8D
330
11
100
AcDbEntity
100
AcDbCircle
8
0
10
-25.646898643724107
20
-31.52427332570002
30
0
40
1.1846832934041553
100
AcDbArc
50
333.67873165015396
51
128.06039878462877
0
LWPOLYLINE
5
8E
330
11
100
AcDbEntity
100
AcDbPolyline
8
0
6
ByLayer
62
256
370
-1
90
21
70
0
10
-24.58504106400811
20
-32.04956656387335
10
-24.673339251283537
20
-32.179889657028156
10
-24.755501993233278
20
-32.314911214428136
10
-24.833620295998905
20
-32.45301922476563
10
-24.90842823248313
20
-32.593642560493166
10
-24.980343696964233
20
-32.736452621048954
10
-25.049644328826925
20
-32.88122838295726
10
-25.116530727565536
20
-33.027807908156035
10
-25.18115578188648
20
-33.17606584600754
10
-25.24364042528709
20
-33.325901347482436
10
-25.304082965173055
20
-33.47723090904633
10
-25.362565007255437
20
-33.629983828288566
10
-25.419155422588126
20
-33.7840991610306
10
-25.47391311687962
20
-33.939523597203475
10
-25.526889029814914
20
-34.09620992738041
10
-25.578127619106862
20
-34.25411590457079
10
-25.62766798806262
20
-34.41320337947219
10
-25.675544759492855
20
-34.57343763030162
10
-25.721788764741476
20
-34.73478683444708
10
-25.76642759512998
20
-34.89722164566054
10
-25.809486049133238
20
-35.060714851234806
0
ARC
5
8F
330
11
100
AcDbEntity
100
AcDbCircle
8
0
10
0
20
0
30
0
40
43.536
100
AcDbArc
50
233.64199486062117
51
235.92322253068318
0
LWPOLYLINE
5
90
330
11
100
AcDbEntity
100
AcDbPolyline
8
0
6
ByLayer
62
256
370
-1
90
21
70
0
10
-24.393270827403324
20
-36.06038871588816
10
-24.253636967136046
20
-35.965065876038736
10
-24.11552962634612
20
-35.868608343972326
10
-23.978982751007774
20
-35.77100186603597
10
-23.84403323271478
20
-35.67223027146577
10
-23.710721381459344
20
-35.57227516583517
10
-23.579091508694134
20
-35.47111555303987
10
-23.449192655916384
20
-35.36872736298523
10
-23.32107951879604
20
-35.26508285256157
10
-23.194813639593086
20
-35.160149832768845
10
-23.070464976623068
20
-35.05389065151508
10
-22.948114018715682
20
-34.9462608232604
10
-22.82785471407845
20
-34.83720713092812
10
-22.709798665974585
20
-34.72666490692271
10
-22.594081398666148
20
-34.614553972619284
10
-22.48087222447135
20
-34.50077224433731
10
-22.37039090797874
20
-34.38518493476771
10
-22.26293868674184
20
-34.26760445142365
10
-22.158965132502843
20
-34.14774707048583
10
-22.059254222480252
20
-34.025112362715625
10
-21.966025127261023
20
-33.89826988445946
0
ARC
5
91
330
11
100
AcDbEntity
100
AcDbCircle
8
0
10
-21.11546738180093
20
-34.72290679080598
30
0
40
1.1846832934041553
100
AcDbArc
50
341.5048186066757
51
135.88648574115052
0
LWPOLYLINE
5
92
330
11
100
AcDbEntity
100
AcDbPolyline
8
0
6
ByLayer
62
256
370
-1
90
21
70
0
10
-19.991972580849193
20
-35.09871783096482
10
-20.06170269514869
20
-35.239850356079835
10
-20.1247147358592
20
-35.384802140659794
10
-20.183299735556307
20
-35.53226091305687
10
-20.238262698472454
20
-35.68176082148375
10
-20.29006237103345
20
-35.83303322924556
10
-20.339003902701844
20
-35.985896976715814
10
-20.38530807514073
20
-36.14021894909327
10
-20.429143421619166
20
-36.29589578160563
10
-20.47064348152775
20
-36.452844031645945
10
-20.509917017028158
20
-36.610994359626275
10
-20.547054501061794
20
-36.77028783363824
10
-20.582132461778414
20
-36.93067345508131
10
-20.615216515289013
20
-37.09210643141231
10
-20.64636355517307
20
-37.254546929201815
10
-20.67562337769305
20
-37.417959148607764
10
-20.703039916608468
20
-37.58231062021869
10
-20.728652200200106
20
-37.74757166012426
10
-20.752495105825513
20
-37.913714940310804
10
-20.774599963799382
20
-38.08071514488063
10
-20.79499504708541
20
-38.24854869131237
0
ARC
5
93
330
11
100
AcDbEntity
100
AcDbCircle
8
0
10
0
20
0
30
0
40
43.536
100
AcDbArc
50
241.46808181714286
51
243.74930948720487
0
LWPOLYLINE
5
94
330
11
100
AcDbEntity
100
AcDbPolyline
8
0
6
ByLayer
62
256
370
-1
90
21
70
0
10
-19.255848290015916
20
-39.04607025850222
10
-19.130494778742957
20
-38.93262178587415
10
-19.006808076099507
20
-38.81825705065565
10
-18.884823752757313
20
-38.70296655426261
10
-18.764580558618583
20
-38.58673929995121
10
-18.646120932933517
20
-38.46956255349813
10
-18.52949163340469
20
-38.35142154809995
10
-18.414744522298296
20
-38.232299115668525
10
-18.301937563532157
20
-38.1121752192211
10
-18.191136109226594
20
-37.99102634957103
10
-18.082414593060825
20
-37.86882473130938
10
-17.97585881163414
20
-37.745537253131204
10
-17.87156908450639
20
-37.62112398623915
10
-17.769664781031764
20
-37.49553606199753
10
-17.670291080846717
20
-37.368712502454166
10
-17.573629619678087
20
-37.24057522943244
10
-17.479916468751412
20
-37.11102063564714
10
-17.389475603717703
20
-36.97990389436624
10
-17.30279104270544
20
-36.847005141067065
10
-17.22070760269953
20
-36.71193535908674
10
-17.145618563531364
20
-36.57357960502366
0
ARC
5
95
330
11
100
AcDbEntity
100
AcDbCircle
8
0
10
-16.190694914553397
20
-37.27471820066188
30
0
40
1.1846832934041553
100
AcDbArc
50
349.33090556319746
51
143.71257269767221
0
LWPOLYLINE
5
96
330
11
100
AcDbEntity
100
AcDbPolyline
8
0
6
ByLayer
62
256
370
-1
90
21
70
0
10
-15.026491474773795
20
-37.494046394189894
10
-15.076354576002409
20
-37.64335931935522
10
-15.119042120378609
20
-37.79554115362774
10
-15.157002489309917
20
-37.94960381015735
10
-15.191096622652775
20
-38.10519539085427
10
-15.221815573402592
20
-38.26211222708388
10
-15.249486316742638
20
-38.42021639773004
10
-15.274345703760128
20
-38.57940609092917
10
-15.296574772830823
20
-38.73960185326455
10
-15.316317181652408
20
-38.90073920292954
10
-15.33369012110927
20
-39.06276425594794
10
-15.348791246033432
20
-39.225630948703625
10
-15.36170331609588
20
-39.38929917818149
10
-15.37249743550612
20
-39.553733503764484
10
-15.381235391918365
20
-39.718902210041975
10
-15.387971392534538
20
-39.88477661120375
10
-15.392753383163704
20
-40.05133052257301
10
-15.395624070533731
20
-40.218539851067185
10
-15.396621728316633
20
-40.38638227234011
10
-15.395780842195814
20
-40.554836972431666
10
-15.393132632951975
20
-40.723884438304125
0
ARC
5
97
330
11
100
AcDbEntity
100
AcDbCircle
8
0
10
0
20
0
30
0
40
43.536
100
AcDbArc
50
249.29416877366464
51
251.57539644372665
0
LWPOLYLINE
5
98
330
11
100
AcDbEntity
100
AcDbPolyline
8
0
6
ByLayer
62
256
370
-1
90
21
70
0
10
-13.759725732449603
20
-41.30439739020247
10
-13.650987668908028
20
-41.17493661518807
10
-13.544025653657066
20
-41.044795075448214
10
-13.43887621945169
20
-40.91396820440829
10
-13.335579252665173
20
-40.7824503841931
10
-13.234178531242769
20
-40.650234777997035
10
-13.134722388129427
20
-40.517313123395176
10
-13.037264540264434
20
-40.38367547411487
10
-12.941865140055356
20
-40.24930987255136
10
-12.848592132096496
20
-40.11420192726307
10
-12.757523038872135
20
-39.9783342569274
10
-12.668747366522846
20
-39.84168574127531
10
-12.582369937197228
20
-39.70423048358674
10
-12.49851566271523
20
-39.56593632451607
10
-12.417336673665751
20
-39.426762622687654
10
-12.339023545654355
20
-39.28665675987753
10
-12.263824258983286
20
-39.14554823883205
10
-12.192079492347665
20
-39.00333769642198
10
-12.124298693920299
20
-38.85987322308132
10
-12.061371783110552
20
-38.71488446136732
10
-12.00582156671923
20
-38.56759273741639
0
ARC
5
99
330
11
100
AcDbEntity
100
AcDbCircle
8
0
10
-10.964320435018927
20
-39.132172136914726
30
0
40
1.1846832934041553
100
AcDbArc
50
357.1569925197192
51
151.538659654194
0
LWPOLYLINE
5
9A
330
11
100
AcDbEntity
100
AcDbPolyline
8
0
6
ByLayer
62
256
370
-1
90
21
70
0
10
-9.781095263737075
20
-39.19093181455136
10
-9.81016249666353
20
-39.345643722482066
10
-9.831730356521623
20
-39.50222074681374
10
-9.848358964837722
20
-39.66001739168248
10
-9.860949159411692
20
-39.818802267891634
10
-9.870015152420345
20
-39.978440468828154
10
-9.875899653838683
20
-40.13883988109564
10
-9.8788511720904
20
-40.29993189233061
10
-9.87905987825558
20
-40.461662440538745
10
-9.876676872267899
20
-40.62398720588771
10
-9.871825590689994
20
-40.786868763769625
10
-9.864609051119768
20
-40.950274776938606
10
-9.855114703093358
20
-41.114176785008276
10
-9.843417814381882
20
-41.27854935947935
10
-9.829583915727204
20
-41.44336949375806
10
-9.813670615493091
20
-41.60861615042844
10
-9.79572897839846
20
-41.77426991731933
10
-9.775804594072724
20
-41.94031274098446
10
-9.753938419536265
20
-42.10672771660549
10
-9.73016745343817
20
-42.273498919884624
10
-9.70452528279207
20
-42.44061127075869
0
ARC
5
9B
330
11
100
AcDbEntity
100
AcDbCircle
8
0
10
0
20
0
30
0
40
43.536
100
AcDbArc
50
257.1202557301864
51
259.4014834002484
0
LWPOLYLINE
5
9C
330
11
100
AcDbEntity
100
AcDbPolyline
8
0
6
ByLayer
62
256
370
-1
90
21
70
0
10
-8.00728551888864
20
-42.793301749444346
10
-7.91718848746191
20
-42.650240281332934
10
-7.828943659567661
20
-42.50674622771983
10
-7.742587849507973
20
-42.36282003910656
10
-7.658161337119536
20
-42.218461581136914
10
-7.5757084235423635
20
-42.07367004177976
10
-7.495278116612462
20
-41.928443816902025
10
-7.416924987297266
20
-41.78278036732679
10
-7.34071025596854
20
-41.63667603757483
10
-7.266703194015347
20
-41.490125822035
10
-7.194982968629822
20
-41.34312305725216
10
-7.125641128163776
20
-41.19565900742384
10
-7.058785044716256
20
-41.04772229031415
10
-6.994542845702104
20
-40.899298054935315
10
-6.933070778757642
20
-40.750366753560165
10
-6.874564809304201
20
-40.60090220809533
10
-6.819280207316906
20
-40.45086834454917
10
-6.767568008335478
20
-40.30021311434234
10
-6.719953600521523
20
-40.148855392653324
10
-6.677355428194034
20
-39.99664851750711
10
-6.6423788300058835
20
-39.84316458979888
0
ARC
5
9D
330
11
100
AcDbEntity
100
AcDbCircle
8
0
10
-5.533701411070997
20
-40.26066774716994
30
0
40
1.1846832934041553
100
AcDbArc
50
364.98307947624096
51
159.36474661071577
0
LWPOLYLINE
5
9E
330
11
100
AcDbEntity
100
AcDbPolyline
8
0
6
ByLayer
62
256
370
-1
90
21
70
0
10
-4.353495754479917
20
-40.157764327298395
10
-4.361225651552108
20
-40.3149932278759
10
-4.361272058470898
20
-40.47304870855853
10
-4.356259146661393
20
-40.631639888835224
10
-4.347110870963125
20
-40.79066019874535
10
-4.334355023934384
20
-40.9500460067524
10
-4.318343666303488
20
-41.10975272307803
10
-4.299332334588894
20
-41.269746212977324
10
-4.2775167900475894
20
-41.429998812951034
10
-4.25305276014337
20
-41.59048719073578
10
-4.226067627727518
20
-41.75119107824161
10
-4.196667854140884
20
-41.9120924669746
10
-4.164943949765347
20
-42.07317506934024
10
-4.130973943837488
20
-42.23442394264185
10
-4.094825889473081
20
-42.39582521767185
10
-4.056559723062928
20
-42.55736589729574
10
-4.016228676996688
20
-42.71903370346004
10
-3.9738803745567965
20
-42.88081695865634
10
-3.9295576931601985
20
-43.04270449249889
10
-3.883299455206842
20
-43.204685566991735
10
-3.835140988280768
20
-43.36674981595934
0
ARC
5
9F
330
11
100
AcDbEntity
100
AcDbCircle
8
0
10
0
20
0
30
0
40
43.536
100
AcDbArc
50
264.9463426867081
51
267.2275703567701
0
LWPOLYLINE
5
A0
330
11
100
AcDbEntity
100
AcDbPolyline
8
0
6
ByLayer
62
256
370
-1
90
21
70
0
10
-2.105684726476843
20
-43.485047865130404
10
-2.035907064390308
20
-43.33105066839021
10
-1.9680232580308128
20
-43.17687712362149
10
-1.902069717466762
20
-43.022532690009925
10
-1.8380863656611026
20
-42.8680227192211
10
-1.7761172017022
20
-42.71335243912498
10
-1.7162109953938576
20
-42.558526933762266
10
-1.6584221551777862
20
-42.40355111835186
10
-1.602811828970259
20
-42.248429707634735
10
-1.5494493245601824
20
-42.093167175075195
10
-1.4984139791125486
20
-41.937767699213175
10
-1.4497976778178268
20
-41.782235091444235
10
-1.4037083425864618
20
-41.62657269604616
10
-1.3602749296568808
20
-41.47078324703483
10
-1.319654893114996
20
-41.314868654468725
10
-1.2820459377328812
20
-41.1588296680334
10
-1.2477058679618995
20
-41.00266530898946
10
-1.216989537058451
20
-40.84637181287399
10
-1.1904284861855592
20
-40.689940350811874
10
-1.1689525756919528
20
-40.533350688330955
10
-1.155201143552953
20
-40.37653367203588
0
ARC
5
A1
330
11
100
AcDbEntity
100
AcDbCircle
8
0
10
-7.465296861034498e-15
20
-40.63918329340415
30
0
40
1.1846832934041553
100
AcDbArc
50
372.8091664327627
51
167.19083356723746
0
LWPOLYLINE
5
A2
330
11
100
AcDbEntity
100
AcDbPolyline
8
0
6
ByLayer
62
256
370
-1
90
21
70
0
10
1.1552011435529383
20
-40.37653367203588
10
1.168952575691938
20
-40.533350688330955
10
1.1904284861855443
20
-40.689940350811874
10
1.2169895370584358
20
-40.84637181287399
10
1.2477058679618844
20
-41.00266530898946
10
1.282045937732866
20
-41.1588296680334
10
1.319654893114981
20
-41.314868654468725
10
1.3602749296568655
20
-41.47078324703483
10
1.4037083425864465
20
-41.62657269604617
10
1.4497976778178114
20
-41.78223509144424
10
1.498413979112533
20
-41.937767699213175
10
1.5494493245601668
20
-42.093167175075195
10
1.6028118289702435
20
-42.248429707634735
10
1.6584221551777707
20
-42.40355111835186
10
1.7162109953938423
20
-42.55852693376227
10
1.7761172017021842
20
-42.71335243912499
10
1.8380863656610869
20
-42.8680227192211
10
1.9020697174667462
20
-43.022532690009925
10
1.968023258030797
20
-43.17687712362149
10
2.035907064390292
20
-43.33105066839021
10
2.105684726476827
20
-43.485047865130404
0
ARC
5
A3
330
11
100
AcDbEntity
100
AcDbCircle
8
0
10
0
20
0
30
0
40
43.536
100
AcDbArc
50
272.7724296432299
51
275.05365731329186
0
LWPOLYLINE
5
A4
330
11
100
AcDbEntity
100
AcDbPolyline
8
0
6
ByLayer
62
256
370
-1
90
21
70
0
10
3.835140988280752
20
-43.36674981595934
10
3.8832994552068265
20
-43.20468556699174
10
3.929557693160183
20
-43.04270449249889
10
3.97388037455678
20
-42.88081695865635
10
4.016228676996673
20
-42.71903370346005
10
4.056559723062913
20
-42.55736589729574
10
4.094825889473066
20
-42.39582521767185
10
4.130973943837472
20
-42.234423942641854
10
4.164943949765332
20
-42.073175069340245
10
4.196667854140868
20
-41.9120924669746
10
4.226067627727503
20
-41.75119107824161
10
4.253052760143355
20
-41.590487190735786
10
4.277516790047574
20
-41.429998812951034
10
4.29933233458888
20
-41.26974621297733
10
4.318343666303473
20
-41.10975272307803
10
4.334355023934369
20
-40.9500460067524
10
4.347110870963111
20
-40.79066019874535
10
4.356259146661378
20
-40.631639888835224
10
4.361272058470884
20
-40.47304870855854
10
4.361225651552094
20
-40.3149932278759
10
4.353495754479902
20
-40.157764327298395
0
ARC
5
A5
330
11
100
AcDbEntity
100
AcDbCircle
8
0
10
5.533701411071018
20
-40.26066774716994
30
0
40
1.1846832934041553
100
AcDbArc
50
380.63525338928446
51
175.01692052375924
0
LWPOLYLINE
5
A6
330
11
100
AcDbEntity
100
AcDbPolyline
8
0
6
ByLayer
62
256
370
-1
90
21
70
0
10
6.642378830005869
20
-39.84316458979888
10
6.677355428194018
20
-39.99664851750712
10
6.719953600521508
20
-40.14885539265333
10
6.767568008335463
20
-40.30021311434235
10
6.819280207316891
20
-40.45086834454917
10
6.874564809304186
20
-40.60090220809533
10
6.933070778757627
20
-40.75036675356017
10
6.994542845702089
20
-40.89929805493532
10
7.058785044716241
20
-41.04772229031415
10
7.125641128163761
20
-41.19565900742384
10
7.194982968629806
20
-41.34312305725216
10
7.2667031940153315
20
-41.490125822035004
10
7.340710255968524
20
-41.63667603757484
10
7.416924987297251
20
-41.78278036732679
10
7.495278116612447
20
-41.92844381690203
10
7.575708423542348
20
-42.07367004177976
10
7.65816133711952
20
-42.218461581136914
10
7.742587849507958
20
-42.36282003910656
10
7.828943659567645
20
-42.50674622771983
10
7.917188487461894
20
-42.65024028133294
10
8.007285518888624
20
-42.793301749444346
0
ARC
5
A7
330
11
100
AcDbEntity
100
AcDbCircle
8
0
10
0
20
0
30
0
40
43.536
100
AcDbArc
50
280.5985165997516
51
282.8797442698136
0
LWPOLYLINE
5
A8
330
11
100
AcDbEntity
100
AcDbPolyline
8
0
6
ByLayer
62
256
370
-1
90
21
70
0
10
9.704525282792055
20
-42.440611270758694
10
9.730167453438154
20
-42.27349891988463
10
9.75393841953625
20
-42.1067277166055
10
9.775804594072708
20
-41.94031274098446
10
9.795728978398445
20
-41.77426991731933
10
9.813670615493077
20
-41.60861615042844
10
9.829583915727188
20
-41.44336949375807
10
9.843417814381866
20
-41.27854935947935
10
9.855114703093342
20
-41.11417678500828
10
9.864609051119754
20
-40.950274776938606
10
9.87182559068998
20
-40.786868763769625
10
9.876676872267884
20
-40.623987205887715
10
9.879059878255566
20
-40.461662440538745
10
9.878851172090386
20
-40.29993189233062
10
9.875899653838667
20
-40.13883988109564
10
9.870015152420333
20
-39.978440468828154
10
9.860949159411678
20
-39.818802267891634
10
9.848358964837708
20
-39.66001739168249
10
9.831730356521609
20
-39.50222074681374
10
9.810162496663516
20
-39.34564372248207
10
9.781095263737061
20
-39.19093181455136
0
ARC
5
A9
330
11
100
AcDbEntity
100
AcDbCircle
8
0
10
10.964320435018912
20
-39.13217213691473
30
0
40
1.1846832934041553
100
AcDbArc
50
388.46134034580615
51
182.84300748028096
0
LWPOLYLINE
5
AA
330
11
100
AcDbEntity
100
AcDbPolyline
8
0
6
ByLayer
62
256
370
-1
90
21
70
0
10
12.005821566719218
20
-38.56759273741639
10
12.061371783110538
20
-38.714884461367326
10
12.124298693920286
20
-38.85987322308133
10
12.192079492347649
20
-39.00333769642199
10
12.26382425898327
20
-39.145548238832056
10
12.33902354565434
20
-39.28665675987754
10
12.417336673665737
20
-39.42676262268766
10
12.498515662715215
20
-39.56593632451607
10
12.582369937197214
20
-39.70423048358674
10
12.668747366522831
20
-39.84168574127532
10
12.757523038872119
20
-39.978334256927404
10
12.84859213209648
20
-40.114201927263075
10
12.941865140055341
20
-40.249309872551365
10
13.03726454026442
20
-40.383675474114874
10
13.134722388129413
20
-40.51731312339518
10
13.234178531242755
20
-40.65023477799704
10
13.335579252665156
20
-40.782450384193105
10
13.438876219451672
20
-40.9139682044083
10
13.544025653657052
20
-41.04479507544822
10
13.650987668908012
20
-41.174936615188074
10
13.759725732449589
20
-41.30439739020247
0
ARC
5
AB
330
11
100
AcDbEntity
100
AcDbCircle
8
0
10
0
20
0
30
0
40
43.536
100
AcDbArc
50
288.4246035562734
51
290.70583122633536
0
LWPOLYLINE
5
AC
330
11
100
AcDbEntity
100
AcDbPolyline
8
0
6
ByLayer
62
256
370
-1
90
21
70
0
10
15.39313263295196
20
-40.72388443830413
10
15.395780842195798
20
-40.554836972431666
10
15.39662172831662
20
-40.38638227234011
10
15.395624070533717
20
-40.218539851067185
10
15.392753383163688
20
-40.05133052257302
10
15.38797139253452
20
-39.884776611203755
10
15.38123539191835
20
-39.71890221004198
10
15.372497435506103
20
-39.55373350376449
10
15.361703316095866
20
-39.389299178181496
10
15.348791246033414
20
-39.22563094870363
10
15.333690121109257
20
-39.06276425594795
10
15.316317181652396
20
-38.90073920292955
10
15.296574772830809
20
-38.73960185326456
10
15.274345703760114
20
-38.579406090929176
10
15.249486316742626
20
-38.42021639773004
10
15.221815573402576
20
-38.26211222708389
10
15.191096622652761
20
-38.10519539085428
10
15.157002489309903
20
-37.949603810157356
10
15.119042120378595
20
-37.795541153627745
10
15.076354576002394
20
-37.64335931935523
10
15.026491474773781
20
-37.4940463941899
0
ARC
5
AD
330
11
100
AcDbEntity
100
AcDbCircle
8
0
10
16.190694914553383
20
-37.27471820066188
30
0
40
1.1846832934041553
100
AcDbArc
50
396.2874273023279
51
190.66909443680268
0
LWPOLYLINE
5
AE
330
11
100
AcDbEntity
100
AcDbPolyline
8
0
6
ByLayer
62
256
370
-1
90
21
70
0
10
17.14561856353132
20
-36.57357960502368
10
17.220707602699484
20
-36.71193535908676
10
17.302791042705394
20
-36.847005141067086
10
17.38947560371766
20
-36.97990389436626
10
17.479916468751362
20
-37.11102063564716
10
17.57362961967804
20
-37.24057522943246
10
17.670291080846667
20
-37.36871250245419
10
17.769664781031718
20
-37.495536061997555
10
17.871569084506344
20
-37.62112398623917
10
17.97585881163409
20
-37.745537253131225
10
18.08241459306078
20
-37.8688247313094
10
18.191136109226548
20
-37.99102634957106
10
18.30193756353211
20
-38.11217521922112
10
18.414744522298246
20
-38.232299115668546
10
18.529491633404643
20
-38.35142154809997
10
18.64612093293347
20
-38.46956255349815
10
18.764580558618537
20
-38.58673929995124
10
18.884823752757264
20
-38.70296655426263
10
19.006808076099457
20
-38.81825705065568
10
19.13049477874291
20
-38.93262178587417
10
19.25584829001587
20
-39.04607025850224
0
ARC
5
AF
330
11
100
AcDbEntity
100
AcDbCircle
8
0
10
0
20
0
30
0
40
43.536
100
AcDbArc
50
296.2506905127951
51
298.53191818285705
0
LWPOLYLINE
5
B0
330
11
100
AcDbEntity
100
AcDbPolyline
8
0
6
ByLayer
62
256
370
-1
90
21
70
0
10
20.794995047085365
20
-38.24854869131239
10
20.774599963799332
20
-38.08071514488065
10
20.752495105825464
20
-37.91371494031083
10
20.728652200200056
20
-37.74757166012429
10
20.70303991660842
20
-37.58231062021871
10
20.675623377693004
20
-37.41795914860779
10
20.646363555173025
20
-37.254546929201844
10
20.615216515288964
20
-37.09210643141234
10
20.582132461778368
20
-36.93067345508134
10
20.547054501061748
20
-36.770287833638264
10
20.509917017028112
20
-36.6109943596263
10
20.470643481527702
20
-36.452844031645974
10
20.429143421619123
20
-36.29589578160565
10
20.385308075140685
20
-36.140218949093295
10
20.339003902701798
20
-35.98589697671584
10
20.290062371033404
20
-35.83303322924558
10
20.238262698472408
20
-35.68176082148377
10
20.183299735556265
20
-35.532260913056895
10
20.124714735859158
20
-35.38480214065982
10
20.061702695148647
20
-35.23985035607986
10
19.99197258084915
20
-35.098717830964844
0
ARC
5
B1
330
11
100
AcDbEntity
100
AcDbCircle
8
0
10
21.115467381800915
20
-34.72290679080599
30
0
40
1.1846832934041553
100
AcDbArc
50
404.11351425884965
51
198.4951813933244
0
LWPOLYLINE
5
B2
330
11
100
AcDbEntity
100
AcDbPolyline
8
0
6
ByLayer
62
256
370
-1
90
21
70
0
10
21.966025127261013
20
-33.89826988445947
10
22.059254222480238
20
-34.025112362715625
10
22.158965132502832
20
-34.147747070485835
10
22.26293868674183
20
-34.26760445142366
10
22.370390907978727
20
-34.38518493476772
10
22.480872224471337
20
-34.50077224433733
10
22.594081398666134
20
-34.61455397261929
10
22.70979866597457
20
-34.726664906922714
10
22.827854714078434
20
-34.83720713092813
10
22.948114018715668
20
-34.94626082326041
10
23.070464976623054
20
-35.05389065151509
10
23.19481363959307
20
-35.160149832768845
10
23.32107951879603
20
-35.26508285256158
10
23.44919265591637
20
-35.36872736298525
10
23.579091508694127
20
-35.47111555303989
10
23.71072138145933
20
-35.57227516583518
10
23.844033232714764
20
-35.67223027146578
10
23.97898275100776
20
-35.771001866035974
10
24.115529626346106
20
-35.86860834397234
10
24.253636967136032
20
-35.96506587603874
10
24.39327082740331
20
-36.060388715888166
0
ARC
5
B3
330
11
100
AcDbEntity
100
AcDbCircle
8
0
10
0
20
0
30
0
40
43.536
100
AcDbArc
50
304.0767774693168
51
306.35800513937886
0
LWPOLYLINE
5
B4
330
11
100
AcDbEntity
100
AcDbPolyline
8
0
6
ByLayer
62
256
370
-1
90
21
70
0
10
25.809486049133227
20
-35.06071485123481
10
25.766427595129965
20
-34.897221645660544
10
25.72178876474147
20
-34.734786834447085
10
25.675544759492844
20
-34.573437630301626
10
25.62766798806261
20
-34.4132033794722
10
25.578127619106848
20
-34.254115904570796
10
25.5268890298149
20
-34.09620992738042
10
25.473913116879608
20
-33.93952359720349
10
25.41915542258812
20
-33.78409916103061
10
25.362565007255423
20
-33.62998382828857
10
25.30408296517304
20
-33.477230909046334
10
25.243640425287076
20
-33.32590134748244
10
25.181155781886467
20
-33.176065846007546
10
25.11653072756552
20
-33.02780790815604
10
25.04964432882691
20
-32.88122838295727
10
24.980343696964226
20
-32.73645262104896
10
24.908428232483114
20
-32.59364256049318
10
24.83362029599889
20
-32.45301922476565
10
24.75550199323327
20
-32.31491121442815
10
24.673339251283522
20
-32.17988965702816
10
24.585041064008102
20
-32.049566563873356
0
ARC
5
B5
330
11
100
AcDbEntity
100
AcDbCircle
8
0
10
25.646898643724093
20
-31.52427332570003
30
0
40
1.1846832934041553
100
AcDbArc
50
411.9396012153714
51
206.32126834984618
0
LWPOLYLINE
5
B6
330
11
100
AcDbEntity
100
AcDbPolyline
8
0
6
ByLayer
62
256
370
-1
90
21
70
0
10
26.37724620418543
20
-30.591499533937515
10
26.486878673808008
20
-30.70446590101204
10
26.602359628253847
20
-30.812381082000144
10
26.721685345129618
20
-30.91696437434861
10
26.844147290995487
20
-31.01881829782195
10
26.969338715166447
20
-31.118285150298174
10
27.096986729672143
20
-31.215591795525786
10
27.226891970359492
20
-31.31090169000522
10
27.35890060228704
20
-31.40433902129514
10
27.492889281127713
20
-31.496001675117004
10
27.62875624866689
20
-31.585968913391252
10
27.766415678126723
20
-31.674306250140454
10
27.90579388780174
20
-31.761068716458002
10
28.0468266979311
20
-31.846303139731663
10
28.189457522531033
20
-31.930049789154697
10
28.33363595305628
20
-32.01234359716207
10
28.47931668232891
20
-32.09321508747462
10
28.626458670584668
20
-32.17269109437979
10
28.775024487988222
20
-32.25079532985407
10
28.92497978847483
20
-32.32754883745064
10
29.076292883117056
20
-32.40297036037278
0
ARC
5
B7
330
11
100
AcDbEntity
100
AcDbCircle
8
0
10
0
20
0
30
0
40
43.536
100
AcDbArc
50
311.9028644258385
51
314.18409209590055
0
LWPOLYLINE
5
B8
330
11
100
AcDbEntity
100
AcDbPolyline
8
0
6
ByLayer
62
256
370
-1
90
21
70
0
10
30.34319515950867
20
-31.219766230898813
10
30.278275432316534
20
-31.063658935260847
10
30.211934166463628
20
-30.90881537059818
10
30.144150499912552
20
-30.75526587288262
10
30.074901094309133
20
-30.603043272047454
10
30.004159738652707
20
-30.452183292507925
10
29.931896860560162
20
-30.30272504711859
10
29.858078915597343
20
-30.154711654423505
10
29.782667612764076
20
-30.008191021580323
10
29.70561891517978
20
-29.863216854590892
10
29.626881724840377
20
-29.71984998798425
10
29.546396110725247
20
-29.5781601762422
10
29.464090854513685
20
-29.438228575225548
10
29.37987993483693
20
-29.300151296902282
10
29.293657276853168
20
-29.16404471809753
10
29.205288484445955
20
-29.03005384026926
10
29.114596877078736
20
-28.898366408140642
10
29.02133749734108
20
-28.769239191787488
10
28.925141087681958
20
-28.643054634431774
10
28.825358180917625
20
-28.520478500355527
10
28.72013674882863
20
-28.403392511805645
0
ARC
5
B9
330
11
100
AcDbEntity
100
AcDbCircle
8
0
10
29.70057670971044
20
-27.738402294752035
30
0
40
1.1846832934041553
100
AcDbArc
50
419.76568817189315
51
214.14735530636787
0
LWPOLYLINE
5
BA
330
11
100
AcDbEntity
100
AcDbPolyline
8
0
6
ByLayer
62
256
370
-1
90
21
70
0
10
30.297109091992326
20
-26.71486742843823
10
30.421102690541783
20
-26.811853334653087
10
30.550202497727906
20
-26.903038733220644
10
30.68265756490799
20
-26.990399748122496
10
30.81784800105823
20
-27.074629765845835
10
30.955417453546517
20
-27.156123281965552
10
31.095126467372197
20
-27.235142205449456
10
31.236799792594596
20
-27.311875617104008
10
31.380301937302946
20
-27.38646749498671
10
31.525524034776563
20
-27.45903160848986
10
31.672376067412447
20
-27.52966033735918
10
31.820781928652917
20
-27.598430272160844
10
31.970676116467445
20
-27.66540596441661
10
32.12200142519743
20
-27.730642544504395
10
32.27470727922514
20
-27.79418761167182
10
32.42874849614581
20
-27.856082636953957
10
32.5840843470878
20
-27.91636402909866
10
32.740677828468456
20
-27.97506396070456
10
32.89849508785632
20
-28.032211019588747
10
33.05750496451786
20
-28.08783073009219
10
33.21767861687722
20
-28.141945975817983
0
ARC
5
BB
330
11
100
AcDbEntity
100
AcDbCircle
8
0
10
0
20
0
30
0
40
43.536
100
AcDbArc
50
319.72895138236026
51
322.0101790524223
0
LWPOLYLINE
5
BC
330
11
100
AcDbEntity
100
AcDbPolyline
8
0
6
ByLayer
62
256
370
-1
90
21
70
0
10
34.31166795559251
20
-26.797252435747325
10
34.22609628689625
20
-26.651439033597047
10
34.13928839783929
20
-26.507071158119572
10
34.051227751441985
20
-26.364181703449546
10
33.96189569706687
20
-26.222806371645973
10
33.871271132317865
20
-26.082984123449094
10
33.77933008611697
20
-25.94475773418654
10
33.686045197772366
20
-25.808174488427127
10
33.591385056285446
20
-25.673287061075825
10
33.49531334790381
20
-25.540154654268353
10
33.39778773418691
20
-25.408844493761656
10
33.298758340548964
20
-25.279433844946784
10
33.19816566272213
20
-25.152012805354563
10
33.095937567789974
20
-25.026688305002452
10
32.991984815539766
20
-24.903590080631318
10
32.8861940059904
20
-24.78288008341655
10
32.778415668787204
20
-24.664768367413462
10
32.6684420915871
20
-24.549542666157272
10
32.555959532135844
20
-24.437632141336522
10
32.44041522731342
20
-24.329784792038904
10
32.320230626604086
20
-24.22811699852543
0
ARC
5
BD
330
11
100
AcDbEntity
100
AcDbCircle
8
0
10
33.20098922724413
20
-23.43581731212544
30
0
40
1.1846832934041553
100
AcDbArc
50
427.5917751284149
51
221.97344226288965
0
LWPOLYLINE
5
BE
330
11
100
AcDbEntity
100
AcDbPolyline
8
0
6
ByLayer
62
256
370
-1
90
21
70
0
10
33.65259416174724
20
-22.340587889217453
10
33.7886391230875
20
-22.419786670644246
10
33.928952897872236
20
-22.492543675345335
10
34.07206992806968
20
-22.561055042386347
10
34.21747051246895
20
-22.626092108498806
10
34.3648553346661
20
-22.68809421824836
10
34.51402283322379
20
-22.747353446953603
10
34.664825136988576
20
-22.804080977509326
10
34.8171476210383
20
-22.85843789643312
10
34.970897924239694
20
-22.91055173747956
10
35.125999446459
20
-22.960526277359808
10
35.28238721907985
20
-23.008447756446298
10
35.44000513992561
20
-23.054389044216432
10
35.59880404307307
20
-23.098412547063653
10
35.758740305398575
20
-23.14057230760602
10
35.919774812300616
20
-23.180915562951807
10
36.08187217191564
20
-23.21948392864978
10
36.24500010614931
20
-23.256314316295118
10
36.409128970580795
20
-23.2914396570086
10
36.57423137027332
20
-23.324889480448757
10
36.74028184826655
20
-23.35669038434032
0
ARC
5
BF
330
11
100
AcDbEntity
100
AcDbCircle
8
0
10
0
20
0
30
0
40
43.536
100
AcDbArc
50
327.555038338882
51
329.83626600894405
0
LWPOLYLINE
5
C0
330
11
100
AcDbEntity
100
AcDbPolyline
8
0
6
ByLayer
62
256
370
-1
90
21
70
0
10
37.64097929783258
20
-21.875556530066596
10
37.53634972591219
20
-21.742753249196518
10
37.43069228037746
20
-21.611550363269867
10
37.32399505735917
20
-21.48198271182865
10
37.216244441362626
20
-21.354088203995765
10
37.107424831694054
20
-21.227908311071594
10
36.9975183051164
20
-21.10348867403341
10
36.886504194358075
20
-20.980879862652735
10
36.77435855354953
20
-20.860138338348058
10
36.66105346852306
20
-20.741327696565182
10
36.546556149086676
20
-20.624520302000306
10
36.43082770615857
20
-20.509799491645683
10
36.313821457975735
20
-20.39726262635563
10
36.19548050377376
20
-20.287025462293172
10
36.07573410034537
20
-20.179228679364908
10
35.95449195627185
20
-20.07404816161967
10
35.831634595730335
20
-19.9717123595353
10
35.70699542073304
20
-19.872534610175077
10
35.580322048747036
20
-19.776982799223855
10
35.45116871764716
20
-19.685873226767256
10
35.318259760030685
20
-19.601517506920498
0
ARC
5
C1
330
11
100
AcDbEntity
100
AcDbCircle
8
0
10
36.08293013415831
20
-18.69666739524318
30
0
40
1.1846832934041553
100
AcDbArc
50
435.41786208493664
51
229.7995292194114
0
LWPOLYLINE
5
C2
330
11
100
AcDbEntity
100
AcDbPolyline
8
0
6
ByLayer
62
256
370
-1
90
21
70
0
10
36.381195075422184
20
-17.55014546763617
10
36.52675713933043
20
-17.610081800826766
10
36.6756711015734
20
-17.663055086325354
10
36.826784095303445
20
-17.711440568366022
10
36.97968629017285
20
-17.756073165380794
10
37.13414098170413
20
-17.797428886768046
10
37.28998825673145
20
-17.83582453338661
10
37.4471103774484
20
-17.87148945628187
10
37.60541572116686
20
-17.90459884969444
10
37.76483015285413
20
-17.93529163602866
10
37.92529191676125
20
-17.96368105579732
10
38.086748392455604
20
-17.98986139268417
10
38.24915392269178
20
-18.013912476701766
10
38.41246829715015
20
-18.035902827746053
10
38.57665565781736
20
-18.055891925093793
10
38.74168368652617
20
-18.073931891988497
10
38.90752298770459
20
-18.09006877556094
10
39.0741466100264
20
-18.104343538809655
10
39.241529669300895
20
-18.11679284271463
10
39.40964904670386
20
-18.12744967217031
10
39.57848314410551
20
-18.13634384355777
0
ARC
5
C3
330
11
100
AcDbEntity
100
AcDbCircle
8
0
10
0
20
0
30
0
40
43.536
100
AcDbArc
50
335.38112529540376
51
337.6623529654658
0
LWPOLYLINE
5
C4
330
11
100
AcDbEntity
100
AcDbPolyline
8
0
6
ByLayer
62
256
370
-1
90
21
70
0
10
40.26911041522188
20
-16.546360396373228
10
40.14737199103549
20
-16.4290411106325
10
40.02483318732175
20
-16.31344727577609
10
39.90148695506841
20
-16.199615027758618
10
39.77732496755445
20
-16.087583776591654
10
39.65233741639983
20
-15.97739673160384
10
39.526512760084415
20
-15.869101549217058
10
39.399837409749054
20
-15.762751142386364
10
39.272295330719444
20
-15.658404707274363
10
39.14386752840071
20
-15.556129047974133
10
39.014531371668696
20
-15.456000320103744
10
38.88425968137555
20
-15.35810637984617
10
38.75301946785604
20
-15.262550037730707
10
38.62077012245136
20
-15.169453719747667
10
38.48746071677176
20
-15.078966428368874
10
38.35302574991924
20
-14.99127470412958
10
38.21737796621123
20
-14.906621138329985
10
38.08039498542056
20
-14.8253388346848
10
37.941890486144686
20
-14.747925687050161
10
37.80153401095826
20
-14.675251090383519
10
37.658376538841644
20
-14.609778831657067
0
ARC
5
C5
330
11
100
AcDbEntity
100
AcDbCircle
8
0
10
38.292714324198755
20
-13.609233940240813
30
0
40
1.1846832934041553
100
AcDbArc
50
443.24394904145834
51
237.6256161759331
0
LWPOLYLINE
5
C6
330
11
100
AcDbEntity
100
AcDbPolyline
8
0
6
ByLayer
62
256
370
-1
90
21
70
0
10
38.432083160706625
20
-12.432777042143238
10
38.58445078134624
20
-12.472334426614195
10
38.73919094568691
20
-12.504537200830741
10
38.895484953793115
20
-12.531895467889509
10
39.05304048054432
20
-12.555292174972315
10
39.21168784274599
20
-12.57523112915585
10
39.37131175438354
20
-12.59204795543859
10
39.53182680423018
20
-12.605985900640468
10
39.6931660785891
20
-12.61723100318792
10
39.85527504952361
20
-12.625930986273485
10
40.01810795606228
20
-12.632206444755118
10
40.18162550617533
20
-12.636157949301227
10
40.3457933380567
20
-12.637870803377439
10
40.51058094603246
20
-12.637418363986173
10
40.67596090516657
20
-12.634864439076523
10
40.841908295752326
20
-12.630265067069827
10
41.00840026609318
20
-12.623669868907944
10
41.17541569368329
20
-12.615123095929603
10
41.342934918107424
20
-12.60466445604931
10
41.51093952731388
20
-12.592329774951251
10
41.67941218433575
20
-12.578151532250073
0
ARC
5
C7
330
11
100
AcDbEntity
100
AcDbCircle
8
0
10
0
20
0
30
0
40
43.536
100
AcDbArc
50
343.2072122519255
51
345.48843992198755
0
LWPOLYLINE
5
C8
330
11
100
AcDbEntity
100
AcDbPolyline
8
0
6
ByLayer
62
256
370
-1
90
21
70
0
10
42.14710419765854
20
-10.908936875411548
10
42.01052467771079
20
-10.809287021116903
10
41.8733871818789
20
-10.711455531762178
10
41.73568964731734
20
-10.61547916657013
10
41.597429191189875
20
-10.521398102307057
10
41.45860198014168
20
-10.429256481421827
10
41.319203069366274
20
-10.33910308803196
10
41.17922620155164
20
-10.250992192607802
10
41.03866355191442
20
-10.164984623343585
10
40.897505399265896
20
-10.081149148545784
10
40.75573969312475
20
-9.999564296119278
10
40.613351470573235
20
-9.9203208048433
10
40.47032204857889
20
-9.843525019756498
10
40.326627867051016
20
-9.7693037561119
10
40.18223876111694
20
-9.69781156331244
10
40.03711524055715
20
-9.62924216348255
10
39.89120389523767
20
-9.56384776972788
10
39.744428842404
20
-9.501975047322619
10
39.596673292599185
20
-9.444142623473699
10
39.44772824889428
20
-9.391256792827292
10
39.296989015118726
20
-9.34588761952295
0
ARC
5
C9
330
11
100
AcDbEntity
100
AcDbCircle
8
0
10
39.789177698977305
20
-8.26828620659121
30
0
40
1.1846832934041553
100
AcDbArc
50
451.0700359979801
51
245.45170313245487
0
LWPOLYLINE
5
CA
330
11
100
AcDbEntity
100
AcDbPolyline
8
0
6
ByLayer
62
256
370
-1
90
21
70
0
10
39.767054253000964
20
-7.083809504072763
10
39.92338910989005
20
-7.102251060596828
10
40.08107295984637
20
-7.113083446777674
10
40.23963652067735
20
-7.118904866103057
10
40.39891041795347
20
-7.120629846869217
10
40.55879515064005
20
-7.1187806088585495
10
40.71922220743408
20
-7.113705349150472
10
40.8801400947379
20
-7.105656679111464
10
41.04150785432161
20
-7.094828015809887
10
41.20329158109679
20
-7.081373131422917
10
41.36546236130989
20
-7.065417728699632
10
41.5279949632701
20
-7.04706679185184
10
41.69086696070618
20
-7.026409508756074
10
41.85405812085289
20
-7.003522707019066
10
42.01754996272612
20
-6.97847333464088
10
42.18132542928673
20
-6.951320301330925
10
42.34536863839749
20
-6.922115877497876
10
42.50966468984521
20
-6.890906778501948
10
42.6741995132265
20
-6.8577350195088504
10
42.83895974624387
20
-6.822638599627797
10
43.00393263604814
20
-6.785652056673238
0
ARC
5
CB
330
11
100
AcDbEntity
100
AcDbCircle
8
0
10
0
20
0
30
0
40
43.536
100
AcDbArc
50
351.03329920844726
51
353.31452687850924
0
LWPOLYLINE
5
CC
330
11
100
AcDbEntity
100
AcDbPolyline
8
0
6
ByLayer
62
256
370
-1
90
21
70
0
10
43.239977174276426
20
-5.068300500962212
10
43.09110077660557
20
-4.9881763663544
10
42.94191920072877
20
-4.90992963804375
10
42.79243540839415
20
-4.833597013766399
10
42.64265201435198
20
-4.759218688626228
10
42.49257123168087
20
-4.686838915902033
10
42.34219480440036
20
-4.6165066986511585
10
42.191523923307436
20
-4.548276653903078
10
42.04055911927058
20
-4.48221010876946
10
41.88930012559464
20
-4.418376514746761
10
41.73774569691876
20
-4.356855309200377
10
41.58589336528614
20
-4.297738423214023
10
41.43373910232666
20
-4.241133755328846
10
41.28127683539763
20
-4.187170147732361
10
41.12849772505794
20
-4.136004817795664
10
40.97538902739466
20
-4.087835060555723
10
40.82193217275215
20
-4.042918012670685
10
40.6680991894007
20
-4.001607443256071
10
40.51384499539558
20
-3.964433051826023
10
40.35908594752157
20
-3.932321150160963
10
40.20357293880272
20
-3.9079002041356175
0
ARC
5
CD
330
11
100
AcDbEntity
100
AcDbCircle
8
0
10
40.54444397723924
20
-2.7733159451111344
30
0
40
1.1846832934041553
100
AcDbArc
50
458.8961229545018
51
253.2777900889766
0
CIRCLE
5
CE
330
11
100
AcDbEntity
100
AcDbCircle
8
0
10
0
20
0
30
0
40
4
0
ENDSEC
0
SECTION
2
OBJECTS
0
DICTIONARY
5
1
330
0
100
AcDbDictionary
281
1
3
ACAD_GROUP
350
15
0
DICTIONARY
5
15
330
1
100
AcDbDictionary
281
1
0
ENDSEC
0
EOF