999
dxfrw 0.6.3
  0
SECTION
  2
HEADER
  9
$ACADVER
  1
AC1021
  9
$DWGCODEPAGE
  3
ANSI_1252
  9
$INSBASE
 10
0
 20
0
 30
0
  9
$EXTMIN
 10
3.380600000000001
 20
3.467500000000001
 30
0
  9
$EXTMAX
 10
176.6194
 20
276.6194
 30
0
  9
$LIMMIN
 10
0
 20
0
  9
$LIMMAX
 10
420
 20
297
  9
$ORTHOMODE
 70
    0
  9
$REGENMODE
 70
    1
  9
$FILLMODE
 70
    1
  9
$QTEXTMODE
 70
    0
  9
$MIRRTEXT
 70
    0
  9
$LTSCALE
 40
1
  9
$ATTMODE
 70
    0
  9
$TEXTSIZE
 40
2.5
  9
$TRACEWID
 40
15.68
  9
$TEXTSTYLE
  7
STANDARD
  9
$CLAYER
  8
gear
  9
$CELTYPE
  6
BYLAYER
  9
$CECOLOR
 62
  256
  9
$CELTSCALE
 40
1
  9
$DISPSILH
 70
    0
  9
$DIMSCALE
 40
2.5
  9
$DIMASZ
 40
2.5
  9
$DIMEXO
 40
0.625
  9
$DIMDLI
 40
3.75
  9
$DIMRND
 40
0
  9
$DIMDLE
 40
0
  9
$DIMEXE
 40
1.25
  9
$DIMTP
 40
0
  9
$DIMTM
 40
0
  9
$DIMTXT
 40
2.5
  9
$DIMCEN
 40
2.5
  9
$DIMTSZ
 40
0
  9
$DIMTOL
 70
    0
  9
$DIMLIM
 70
    0
  9
$DIMTIH
 70
    0
  9
$DIMTOH
 70
    0
  9
$DIMSE1
 70
    0
  9
$DIMSE2
 70
    0
  9
$DIMTAD
 70
    1
  9
$DIMZIN
 70
    8
  9
$DIMBLK
  1

  9
$DIMASO
 70
    1
  9
$DIMSHO
 70
    1
  9
$DIMPOST
  1

  9
$DIMAPOST
  1

  9
$DIMALT
 70
    0
  9
$DIMALTD
 70
    3
  9
$DIMALTF
 40
0.03937
  9
$DIMLFAC
 40
1
  9
$DIMTOFL
 70
    1
  9
$DIMTVP
 40
0
  9
$DIMTIX
 70
    0
  9
$DIMSOXD
 70
    0
  9
$DIMSAH
 70
    0
  9
$DIMBLK1
  1

  9
$DIMBLK2
  1

  9
$DIMSTYLE
  2
Standard
  9
$DIMCLRD
 70
    0
  9
$DIMCLRE
 70
    0
  9
$DIMCLRT
 70
    0
  9
$DIMTFAC
 40
1
  9
$DIMGAP
 40
0.625
  9
$DIMJUST
 70
    0
  9
$DIMSD1
 70
    0
  9
$DIMSD2
 70
    0
  9
$DIMTOLJ
 70
    0
  9
$DIMTZIN
 70
    8
  9
$DIMALTZ
 70
    0
  9
$DIMALTTZ
 70
    0
  9
$DIMUPT
 70
    0
  9
$DIMDEC
 70
    2
  9
$DIMTDEC
 70
    2
  9
$DIMALTU
 70
    2
  9
$DIMALTTD
 70
    3
  9
$DIMTXSTY
  7
STANDARD
  9
$DIMAUNIT
 70
    0
  9
$DIMADEC
 70
    0
  9
$DIMALTRND
 40
0
  9
$DIMAZIN
 70
    0
  9
$DIMDSEP
 70
   44
  9
$DIMATFIT
 70
    3
  9
$DIMFRAC
 70
    0
  9
$DIMLDRBLK
  1
STANDARD
  9
$DIMLUNIT
 70
    2
  9
$DIMLWD
 70
   -2
  9
$DIMLWE
 70
   -2
  9
$DIMTMOVE
 70
    0
  9
$DIMFXL
 40
1
  9
$DIMFXLON
 70
    0
  9
$DIMJOGANG
 40
0.7854
  9
$DIMTFILL
 70
    0
  9
$DIMTFILLCLR
 70
    0
  9
$DIMARCSYM
 70
    0
  9
$DIMLTYPE
  6

  9
$DIMLTEX1
  6

  9
$DIMLTEX2
  6

  9
$LUNITS
 70
    2
  9
$LUPREC
 70
    4
  9
$SKETCHINC
 40
1
  9
$FILLETRAD
 40
0
  9
$AUNITS
 70
    0
  9
$AUPREC
 70
    2
  9
$MENU
  1
.
  9
$ELEVATION
 40
0
  9
$PELEVATION
 40
0
  9
$THICKNESS
 40
0
  9
$LIMCHECK
 70
    0
  9
$CHAMFERA
 40
0
  9
$CHAMFERB
 40
0
  9
$CHAMFERC
 40
0
  9
$CHAMFERD
 40
0
  9
$SKPOLY
 70
    0
  9
$USRTIMER
 70
    1
  9
$ANGBASE
 50
0
  9
$ANGDIR
 70
    0
  9
$PDMODE
 70
   34
  9
$PDSIZE
 40
0
  9
$PLINEWID
 40
0
  9
$SPLFRAME
 70
    0
  9
$SPLINETYPE
 70
    2
  9
$SPLINESEGS
 70
    8
  9
$HANDSEED
  5
20000
  9
$SURFTAB1
 70
    6
  9
$SURFTAB2
 70
    6
  9
$SURFTYPE
 70
    6
  9
$SURFU
 70
    6
  9
$SURFV
 70
    6
  9
$UCSBASE
  2

  9
$UCSNAME
  2

  9
$UCSORG
 10
0
 20
0
 30
0
  9
$UCSXDIR
 10
1
 20
0
 30
0
  9
$UCSYDIR
 10
0
 20
1
 30
0
  9
$UCSORTHOREF
  2

  9
$UCSORTHOVIEW
 70
    0
  9
$UCSORGTOP
 10
0
 20
0
 30
0
  9
$UCSORGBOTTOM
 10
0
 20
0
 30
0
  9
$UCSORGLEFT
 10
0
 20
0
 30
0
  9
$UCSORGRIGHT
 10
0
 20
0
 30
0
  9
$UCSORGFRONT
 10
0
 20
0
 30
0
  9
$UCSORGBACK
 10
0
 20
0
 30
0
  9
$PUCSBASE
  2

  9
$PUCSNAME
  2

  9
$PUCSORG
 10
0
 20
0
 30
0
  9
$PUCSXDIR
 10
1
 20
0
 30
0
  9
$PUCSYDIR
 10
0
 20
1
 30
0
  9
$PUCSORTHOREF
  2

  9
$PUCSORTHOVIEW
 70
    0
  9
$PUCSORGTOP
 10
0
 20
0
 30
0
  9
$PUCSORGBOTTOM
 10
0
 20
0
 30
0
  9
$PUCSORGLEFT
 10
0
 20
0
 30
0
  9
$PUCSORGRIGHT
 10
0
 20
0
 30
0
  9
$PUCSORGFRONT
 10
0
 20
0
 30
0
  9
$PUCSORGBACK
 10
0
 20
0
 30
0
  9
$USERI1
 70
    0
  9
$USERI2
 70
    0
  9
$USERI3
 70
    0
  9
$USERI4
 70
    0
  9
$USERI5
 70
    0
  9
$USERR1
 40
0
  9
$USERR2
 40
0
  9
$USERR3
 40
0
  9
$USERR4
 40
0
  9
$USERR5
 40
0
  9
$WORLDVIEW
 70
    1
  9
$SHADEDGE
 70
    3
  9
$SHADEDIF
 70
   70
  9
$TILEMODE
 70
    1
  9
$MAXACTVP
 70
   64
  9
$PINSBASE
 10
0
 20
0
 30
0
  9
$PLIMCHECK
 70
    0
  9
$PEXTMIN
 10
0
 20
0
 30
0
  9
$PEXTMAX
 10
0
 20
0
 30
0
  9
$GRIDMODE
 70
    1
  9
$SNAPSTYLE
 70
    0
  9
$PLIMMIN
 10
0
 20
0
  9
$PLIMMAX
 10
297
 20
210
  9
$UNITMODE
 70
    0
  9
$VISRETAIN
 70
    1
  9
$PLINEGEN
 70
    0
  9
$PSLTSCALE
 70
    1
  9
$TREEDEPTH
 70
 3020
  9
$CMLSTYLE
  2
Standard
  9
$CMLJUST
 70
    0
  9
$CMLSCALE
 40
20
  9
$PROXYGRAPHICS
 70
    1
  9
$MEASUREMENT
 70
    1
  9
$CELWEIGHT
370
   -1
  9
$ENDCAPS
280
    0
  9
$JOINSTYLE
280
    0
  9
$LWDISPLAY
290
    0
  9
$INSUNITS
 70
    4
  9
$HYPERLINKBASE
  1

  9
$STYLESHEET
  1

  9
$XEDIT
290
    1
  9
$CEPSNTYPE
380
    0
  9
$PSTYLEMODE
290
    1
  9
$EXTNAMES
290
    1
  9
$PSVPSCALE
 40
1
  9
$OLESTARTUP
290
    0
  9
$SORTENTS
280
  127
  9
$INDEXCTL
280
    0
  9
$HIDETEXT
280
    1
  9
$XCLIPFRAME
290
    0
  9
$HALOGAP
280
    0
  9
$OBSCOLOR
 70
  257
  9
$OBSLTYPE
280
    0
  9
$INTERSECTIONDISPLAY
280
    0
  9
$INTERSECTIONCOLOR
 70
  257
  9
$DIMASSOC
280
    1
  9
$PROJECTNAME
  1

  9
$CAMERADISPLAY
290
    0
  9
$LENSLENGTH
 40
50
  9
$CAMERAHEIGHT
 40
0
  9
$STEPSPERSEC
 40
2
  9
$STEPSIZE
 40
50
  9
$3DDWFPREC
 40
2
  9
$PSOLWIDTH
 40
5
  9
$PSOLHEIGHT
 40
80
  9
$LOFTANG1
 40
1.570796326794897
  9
$LOFTANG2
 40
1.570796326794897
  9
$LOFTMAG1
 40
0
  9
$LOFTMAG2
 40
0
  9
$LOFTPARAM
 70
    7
  9
$LOFTNORMALS
280
    1
  9
$LATITUDE
 40
1
  9
$LONGITUDE
 40
1
  9
$NORTHDIRECTION
 40
0
  9
$TIMEZONE
 70
-8000
  9
$LIGHTGLYPHDISPLAY
280
    1
  9
$TILEMODELIGHTSYNCH
280
    1
  9
$SOLIDHIST
280
    1
  9
$SHOWHIST
280
    1
  9
$DWFFRAME
280
    2
  9
$DGNFRAME
280
    0
  9
$REALWORLDSCALE
290
    1
  9
$INTERFERECOLOR
 62
    1
  9
$CSHADOW
280
    0
  9
$SHADOWPLANELOCATION
 40
0
  0
ENDSEC
  0
SECTION
  2
CLASSES
  0
ENDSEC
  0
SECTION
  2
TABLES
  0
TABLE
  2
VPORT
  5
8
330
0
100
AcDbSymbolTable
 70
    1
  0
VPORT
  5
31
330
2
100
AcDbSymbolTableRecord
100
AcDbViewportTableRecord
  2
*ACTIVE
 70
    0
 10
0
 20
0
 11
1
 21
1
 12
104.8855537280704
 22
126.6234923245616
 13
0
 23
0
 14
10
 24
10
 15
10
 25
10
 16
0
 26
0
 36
1
 17
0
 27
0
 37
0
 40
296.3605628654976
 41
0.9058679706601467
 42
50
 43
0
 44
0
 50
0
 51
0
 71
    0
 72
  100
 73
    1
 74
    3
 75
    0
 76
    1
 77
    0
 78
    0
281
    0
 65
    1
110
0
120
0
130
0
111
1
121
0
131
0
112
0
122
1
132
0
 79
    0
146
0
348
10020
 60
    7
 61
    5
292
1
282
    1
141
0
142
0
 63
  250
421
3358443
  0
ENDTAB
  0
TABLE
  2
LTYPE
  5
5
330
0
100
AcDbSymbolTable
 70
    4
  0
LTYPE
  5
14
330
5
100
AcDbSymbolTableRecord
100
AcDbLinetypeTableRecord
  2
ByBlock
 70
    0
  3

 72
   65
 73
    0
 40
0
  0
LTYPE
  5
15
330
5
100
AcDbSymbolTableRecord
100
AcDbLinetypeTableRecord
  2
ByLayer
 70
    0
  3

 72
   65
 73
    0
 40
0
  0
LTYPE
  5
16
330
5
100
AcDbSymbolTableRecord
100
AcDbLinetypeTableRecord
  2
Continuous
 70
    0
  3
Solid line
 72
   65
 73
    0
 40
0
  0
LTYPE
  5
32
330
5
100
AcDbSymbolTableRecord
100
AcDbLinetypeTableRecord
  2
DOT
 70
    0
  3
Dot . . . . . . . . . . . . . . . . . . . . . .
 72
   65
 73
    2
 40
6.35
 49
0
 74
    0
 49
-6.35
 74
    0
  0
LTYPE
  5
33
330
5
100
AcDbSymbolTableRecord
100
AcDbLinetypeTableRecord
  2
DOTTINY
 70
    0
  3
Dot (.15x) .....................................
 72
   65
 73
    2
 40
0.9525
 49
0
 74
    0
 49
-0.9525
 74
    0
  0
LTYPE
  5
34
330
5
100
AcDbSymbolTableRecord
100
AcDbLinetypeTableRecord
  2
DOT2
 70
    0
  3
Dot (.5x) .....................................
 72
   65
 73
    2
 40
3.175
 49
0
 74
    0
 49
-3.175
 74
    0
  0
LTYPE
  5
35
330
5
100
AcDbSymbolTableRecord
100
AcDbLinetypeTableRecord
  2
DOTX2
 70
    0
  3
Dot (2x) .  .  .  .  .  .  .  .  .  .  .  .  .
 72
   65
 73
    2
 40
12.7
 49
0
 74
    0
 49
-12.7
 74
    0
  0
LTYPE
  5
36
330
5
100
AcDbSymbolTableRecord
100
AcDbLinetypeTableRecord
  2
DASHED
 70
    0
  3
Dashed _ _ _ _ _ _ _ _ _ _ _ _ _ _ _ _ _
 72
   65
 73
    2
 40
19.05
 49
12.7
 74
    0
 49
-6.35
 74
    0
  0
LTYPE
  5
37
330
5
100
AcDbSymbolTableRecord
100
AcDbLinetypeTableRecord
  2
DASHEDTINY
 70
    0
  3
Dashed (.15x) _ _ _ _ _ _ _ _ _ _ _ _ _ _ _ _ _
 72
   65
 73
    2
 40
2.8575
 49
1.905
 74
    0
 49
-0.9525
 74
    0
  0
LTYPE
  5
38
330
5
100
AcDbSymbolTableRecord
100
AcDbLinetypeTableRecord
  2
DASHED2
 70
    0
  3
Dashed (.5x) _ _ _ _ _ _ _ _ _ _ _ _ _ _ _ _ _
 72
   65
 73
    2
 40
9.524999999999999
 49
6.35
 74
    0
 49
-3.175
 74
    0
  0
LTYPE
  5
39
330
5
100
AcDbSymbolTableRecord
100
AcDbLinetypeTableRecord
  2
DASHEDX2
 70
    0
  3
Dashed (2x) ____  ____  ____  ____  ____  ___
 72
   65
 73
    2
 40
38.09999999999999
 49
25.4
 74
    0
 49
-12.7
 74
    0
  0
LTYPE
  5
3A
330
5
100
AcDbSymbolTableRecord
100
AcDbLinetypeTableRecord
  2
DASHDOT
 70
    0
  3
Dash dot __ . __ . __ . __ . __ . __ . __ . __
 72
   65
 73
    4
 40
25.4
 49
12.7
 74
    0
 49
-6.35
 74
    0
 49
0
 74
    0
 49
-6.35
 74
    0
  0
LTYPE
  5
3B
330
5
100
AcDbSymbolTableRecord
100
AcDbLinetypeTableRecord
  2
DASHDOTTINY
 70
    0
  3
Dash dot (.15x) _._._._._._._._._._._._._._._.
 72
   65
 73
    4
 40
3.81
 49
1.905
 74
    0
 49
-0.9525
 74
    0
 49
0
 74
    0
 49
-0.9525
 74
    0
  0
LTYPE
  5
3C
330
5
100
AcDbSymbolTableRecord
100
AcDbLinetypeTableRecord
  2
DASHDOT2
 70
    0
  3
Dash dot (.5x) _._._._._._._._._._._._._._._.
 72
   65
 73
    4
 40
12.7
 49
6.35
 74
    0
 49
-3.175
 74
    0
 49
0
 74
    0
 49
-3.175
 74
    0
  0
LTYPE
  5
3D
330
5
100
AcDbSymbolTableRecord
100
AcDbLinetypeTableRecord
  2
DASHDOTX2
 70
    0
  3
Dash dot (2x) ____  .  ____  .  ____  .  ___
 72
   65
 73
    4
 40
50.8
 49
25.4
 74
    0
 49
-12.7
 74
    0
 49
0
 74
    0
 49
-12.7
 74
    0
  0
LTYPE
  5
3E
330
5
100
AcDbSymbolTableRecord
100
AcDbLinetypeTableRecord
  2
DIVIDE
 70
    0
  3
Divide ____ . . ____ . . ____ . . ____ . . ____
 72
   65
 73
    6
 40
31.75
 49
12.7
 74
    0
 49
-6.35
 74
    0
 49
0
 74
    0
 49
-6.35
 74
    0
 49
0
 74
    0
 49
-6.35
 74
    0
  0
LTYPE
  5
3F
330
5
100
AcDbSymbolTableRecord
100
AcDbLinetypeTableRecord
  2
DIVIDETINY
 70
    0
  3
Divide (.15x) __..__..__..__..__..__..__..__.._
 72
   65
 73
    6
 40
4.7625
 49
1.905
 74
    0
 49
-0.9525
 74
    0
 49
0
 74
    0
 49
-0.9525
 74
    0
 49
0
 74
    0
 49
-0.9525
 74
    0
  0
LTYPE
  5
40
330
5
100
AcDbSymbolTableRecord
100
AcDbLinetypeTableRecord
  2
DIVIDE2
 70
    0
  3
Divide (.5x) __..__..__..__..__..__..__..__.._
 72
   65
 73
    6
 40
15.875
 49
6.35
 74
    0
 49
-3.175
 74
    0
 49
0
 74
    0
 49
-3.175
 74
    0
 49
0
 74
    0
 49
-3.175
 74
    0
  0
LTYPE
  5
41
330
5
100
AcDbSymbolTableRecord
100
AcDbLinetypeTableRecord
  2
DIVIDEX2
 70
    0
  3
Divide (2x) ________  .  .  ________  .  .  _
 72
   65
 73
    6
 40
63.5
 49
25.4
 74
    0
 49
-12.7
 74
    0
 49
0
 74
    0
 49
-12.7
 74
    0
 49
0
 74
    0
 49
-12.7
 74
    0
  0
LTYPE
  5
42
330
5
100
AcDbSymbolTableRecord
100
AcDbLinetypeTableRecord
  2
BORDER
 70
    0
  3
Border __ __ . __ __ . __ __ . __ __ . __ __ .
 72
   65
 73
    6
 40
44.45
 49
12.7
 74
    0
 49
-6.35
 74
    0
 49
12.7
 74
    0
 49
-6.35
 74
    0
 49
0
 74
    0
 49
-6.35
 74
    0
  0
LTYPE
  5
43
330
5
100
AcDbSymbolTableRecord
100
AcDbLinetypeTableRecord
  2
BORDERTINY
 70
    0
  3
Border (.15x) __.__.__.__.__.__.__.__.__.__.__.
 72
   65
 73
    6
 40
6.6675
 49
1.905
 74
    0
 49
-0.9525
 74
    0
 49
1.905
 74
    0
 49
-0.9525
 74
    0
 49
0
 74
    0
 49
-0.9525
 74
    0
  0
LTYPE
  5
44
330
5
100
AcDbSymbolTableRecord
100
AcDbLinetypeTableRecord
  2
BORDER2
 70
    0
  3
Border (.5x) __.__.__.__.__.__.__.__.__.__.__.
 72
   65
 73
    6
 40
22.225
 49
6.35
 74
    0
 49
-3.175
 74
    0
 49
6.35
 74
    0
 49
-3.175
 74
    0
 49
0
 74
    0
 49
-3.175
 74
    0
  0
LTYPE
  5
45
330
5
100
AcDbSymbolTableRecord
100
AcDbLinetypeTableRecord
  2
BORDERX2
 70
    0
  3
Border (2x) ____  ____  .  ____  ____  .  ___
 72
   65
 73
    6
 40
88.89999999999999
 49
25.4
 74
    0
 49
-12.7
 74
    0
 49
25.4
 74
    0
 49
-12.7
 74
    0
 49
0
 74
    0
 49
-12.7
 74
    0
  0
LTYPE
  5
46
330
5
100
AcDbSymbolTableRecord
100
AcDbLinetypeTableRecord
  2
CENTER
 70
    0
  3
Center ____ _ ____ _ ____ _ ____ _ ____ _ ____
 72
   65
 73
    4
 40
50.8
 49
31.75
 74
    0
 49
-6.35
 74
    0
 49
6.35
 74
    0
 49
-6.35
 74
    0
  0
LTYPE
  5
47
330
5
100
AcDbSymbolTableRecord
100
AcDbLinetypeTableRecord
  2
CENTERTINY
 70
    0
  3
Center (.15x) ___ _ ___ _ ___ _ ___ _ ___ _ ___
 72
   65
 73
    4
 40
7.619999999999999
 49
4.7625
 74
    0
 49
-0.9525
 74
    0
 49
0.9525
 74
    0
 49
-0.9525
 74
    0
  0
LTYPE
  5
48
330
5
100
AcDbSymbolTableRecord
100
AcDbLinetypeTableRecord
  2
CENTER2
 70
    0
  3
Center (.5x) ___ _ ___ _ ___ _ ___ _ ___ _ ___
 72
   65
 73
    4
 40
28.575
 49
19.05
 74
    0
 49
-3.175
 74
    0
 49
3.175
 74
    0
 49
-3.175
 74
    0
  0
LTYPE
  5
49
330
5
100
AcDbSymbolTableRecord
100
AcDbLinetypeTableRecord
  2
CENTERX2
 70
    0
  3
Center (2x) ________  __  ________  __  _____
 72
   65
 73
    4
 40
101.6
 49
63.5
 74
    0
 49
-12.7
 74
    0
 49
12.7
 74
    0
 49
-12.7
 74
    0
  0
ENDTAB
  0
TABLE
  2
LAYER
  5
2
330
0
100
AcDbSymbolTable
 70
    1
  0
LAYER
  5
10
330
2
100
AcDbSymbolTableRecord
100
AcDbLayerTableRecord
  2
0
 70
    0
 62
    7
  6
CONTINUOUS
370
    0
390
F
  0
LAYER
  5
4A
330
2
100
AcDbSymbolTableRecord
100
AcDbLayerTableRecord
  2
gear
 70
    0
 62
    7
  6
CONTINUOUS
370
   -3
390
F
  0
LAYER
  5
4B
330
2
100
AcDbSymbolTableRecord
100
AcDbLayerTableRecord
  2
gear_guides
 70
    0
 62
    5
  6
CONTINUOUS
370
   -3
390
F
  0
ENDTAB
  0
TABLE
  2
STYLE
  5
3
330
0
100
AcDbSymbolTable
 70
    3
  0
STYLE
  5
4C
330
2
100
AcDbSymbolTableRecord
100
AcDbTextStyleTableRecord
  2
Standard
 70
    0
 40
0
 41
1
 50
0
 71
    0
 42
1
  3
txt
  4

  0
ENDTAB
  0
TABLE
  2
VIEW
  5
6
330
0
100
AcDbSymbolTable
 70
    0
  0
ENDTAB
  0
TABLE
  2
UCS
  5
7
330
0
100
AcDbSymbolTable
 70
    0
  0
ENDTAB
  0
TABLE
  2
APPID
  5
9
330
0
100
AcDbSymbolTable
 70
    1
  0
APPID
  5
12
330
9
100
AcDbSymbolTableRecord
100
AcDbRegAppTableRecord
  2
ACAD
 70
    0
  0
APPID
  5
4D
330
9
100
AcDbSymbolTableRecord
100
AcDbRegAppTableRecord
  2
LibreCad
 70
    0
  0
ENDTAB
  0
TABLE
  2
DIMSTYLE
  5
A
330
0
100
AcDbSymbolTable
 70
    1
100
AcDbDimStyleTable
 71
    1
  0
DIMSTYLE
105
4E
330
A
100
AcDbSymbolTableRecord
100
AcDbDimStyleTableRecord
  2
Standard
 70
    0
 40
2.5
 41
2.5
 42
0.625
 43
0.38
 44
1.25
 45
0
 46
0
 47
0
 48
0
 49
1
140
2.5
141
0.09
142
0
143
25.4
144
1
145
0
146
1
147
0.625
148
0
 71
    0
 72
    0
 73
    0
 74
    1
 75
    0
 76
    0
 77
    0
 78
    8
 79
    0
170
    0
171
    2
172
    0
173
    0
174
    0
175
    0
176
    0
177
    0
178
    0
179
    0
271
    2
272
    4
273
    2
274
    2
275
    0
276
    0
277
    2
278
   44
279
    0
280
    0
281
    0
282
    0
283
    1
284
    0
285
    0
286
    0
288
    0
289
    3
340
STANDARD
341

371
   -2
372
   -2
  0
ENDTAB
  0
TABLE
  2
BLOCK_RECORD
  5
1
330
0
100
AcDbSymbolTable
 70
    2
  0
BLOCK_RECORD
  5
1F
330
1
100
AcDbSymbolTableRecord
100
AcDbBlockTableRecord
  2
*Model_Space
 70
    0
280
    1
281
    0
  0
BLOCK_RECORD
  5
1E
330
1
100
AcDbSymbolTableRecord
100
AcDbBlockTableRecord
  2
*Paper_Space
 70
    0
280
    1
281
    0
  0
ENDTAB
  0
ENDSEC
  0
SECTION
  2
BLOCKS
  0
BLOCK
  5
20
330
1F
100
AcDbEntity
  8
0
100
AcDbBlockBegin
  2
*Model_Space
 70
    0
 10
0
 20
0
 30
0
  3
*Model_Space
  1

  0
ENDBLK
  5
21
330
1F
100
AcDbEntity
  8
0
100
AcDbBlockEnd
  0
BLOCK
  5
1C
330
1B
100
AcDbEntity
  8
0
100
AcDbBlockBegin
  2
*Paper_Space
 70
    0
 10
0
 20
0
 30
0
  3
*Paper_Space
  1

  0
ENDBLK
  5
1D
330
1F
100
AcDbEntity
  8
0
100
AcDbBlockEnd
  0
ENDSEC
  0
SECTION
  2
ENTITIES
  0
LWPOLYLINE
  5
4F
100
AcDbEntity
  8
gear
  6
ByLayer
 62
  256
370
   -1
100
AcDbPolyline
 90
  576
 70
    1
 43
0
 10
82.33330000000001
 20
50
 10
89.1319
 20
50.0001
 10
89.1683
 20
50.0013
 10
89.2376
 20
50.0056
 10
89.3398
 20
50.015
 10
89.47460000000001
 20
50.0312
 10
89.6416
 20
50.0562
 10
89.8403
 20
50.0919
 10
90.07040000000001
 20
50.1402
 10
90.33109999999999
 20
50.2029
 10
90.6219
 20
50.2818
 10
90.9419
 20
50.3787
 10
91.2903
 20
50.4954
 10
91.66630000000001
 20
50.6336
 10
92.0689
 20
50.7949
 10
92.4969
 20
50.9811
 10
92.94929999999999
 20
51.1938
 10
93.42490000000001
 20
51.4345
 10
93.92230000000001
 20
51.7046
 10
94.4404
 20
52.0058
 10
94.97749999999999
 20
52.3394
 10
95.5324
 20
52.7067
 10
96.10339999999999
 20
53.1091
 10
96.5325
 20
53.5359
 10
95.8218
 20
58.8397
 10
95.2954
 20
59.1384
 10
94.6386
 20
59.3763
 10
94.0067
 20
59.5846
 10
93.4006
 20
59.765
 10
92.82159999999999
 20
59.9191
 10
92.2705
 20
60.0488
 10
91.7484
 20
60.1558
 10
91.256
 20
60.2419
 10
90.794
 20
60.3088
 10
90.36320000000001
 20
60.3585
 10
89.9641
 20
60.3928
 10
89.5972
 20
60.4136
 10
89.2629
 20
60.4229
 10
88.96170000000001
 20
60.4224
 10
88.6936
 20
60.4142
 10
88.459
 20
60.4003
 10
88.25790000000001
 20
60.3824
 10
88.09020000000001
 20
60.3626
 10
87.9559
 20
60.3428
 10
87.8549
 20
60.3248
 10
87.7868
 20
60.3108
 10
87.7513
 20
60.3024
 10
81.1926
 20
58.5126
 10
78.00149999999999
 20
66.16669999999999
 10
83.8892
 20
69.566
 10
83.92
 20
69.5853
 10
83.97800000000001
 20
69.6237
 10
84.06180000000001
 20
69.6829
 10
84.1704
 20
69.76429999999999
 10
84.30250000000001
 20
69.8695
 10
84.4568
 20
69.99979999999999
 10
84.6318
 20
70.1566
 10
84.8263
 20
70.3413
 10
85.03870000000001
 20
70.55500000000001
 10
85.26730000000001
 20
70.7989
 10
85.5108
 20
71.0742
 10
85.76730000000001
 20
71.3818
 10
86.0352
 20
71.7229
 10
86.31280000000001
 20
72.0981
 10
86.59829999999999
 20
72.5085
 10
86.88980000000001
 20
72.9547
 10
87.18549999999999
 20
73.4374
 10
87.4836
 20
73.9573
 10
87.782
 20
74.51480000000001
 10
88.0788
 20
75.1103
 10
88.3721
 20
75.7443
 10
88.5304
 20
76.32849999999999
 10
85.26300000000001
 20
80.5663
 10
84.65780000000001
 20
80.56180000000001
 10
83.9701
 20
80.43940000000001
 10
83.3186
 20
80.3038
 10
82.70359999999999
 20
80.157
 10
82.125
 20
80.001
 10
81.5829
 20
79.8378
 10
81.07730000000001
 20
79.6694
 10
80.6078
 20
79.49769999999999
 10
80.1742
 20
79.32470000000001
 10
79.77629999999999
 20
79.1523
 10
79.4135
 20
78.9825
 10
79.08539999999999
 20
78.81700000000001
 10
78.79130000000001
 20
78.6579
 10
78.53059999999999
 20
78.5069
 10
78.3026
 20
78.36580000000001
 10
78.10640000000001
 20
78.2364
 10
77.94110000000001
 20
78.1203
 10
77.8058
 20
78.0194
 10
77.6994
 20
77.935
 10
77.6208
 20
77.869
 10
77.5689
 20
77.8228
 10
77.5424
 20
77.7978
 10
72.7573
 20
72.9684
 10
66.16669999999999
 20
78.00149999999999
 10
69.5659
 20
83.8892
 10
69.583
 20
83.92140000000001
 10
69.6139
 20
83.9836
 10
69.657
 20
84.07679999999999
 10
69.7103
 20
84.2016
 10
69.77209999999999
 20
84.3587
 10
69.84049999999999
 20
84.5487
 10
69.91370000000001
 20
84.77209999999999
 10
69.9898
 20
85.0292
 10
70.0669
 20
85.32050000000001
 10
70.143
 20
85.64609999999999
 10
70.2161
 20
86.00620000000001
 10
70.28450000000001
 20
86.40090000000001
 10
70.346
 20
86.83019999999999
 10
70.39879999999999
 20
87.294
 10
70.4408
 20
87.7921
 10
70.47020000000001
 20
88.32429999999999
 10
70.4849
 20
88.89019999999999
 10
70.48310000000001
 20
89.4894
 10
70.4628
 20
90.12139999999999
 10
70.4221
 20
90.7856
 10
70.3591
 20
91.4812
 10
70.2041
 20
92.0663
 10
65.2555
 20
94.1027
 10
64.7336
 20
93.7962
 10
64.1992
 20
93.3463
 10
63.7028
 20
92.9032
 10
63.2436
 20
92.46850000000001
 10
62.8206
 20
92.04419999999999
 10
62.4327
 20
91.6318
 10
62.079
 20
91.23310000000001
 10
61.7583
 20
90.84960000000001
 10
61.4693
 20
90.483
 10
61.2109
 20
90.1348
 10
60.9816
 20
89.80629999999999
 10
60.7801
 20
89.499
 10
60.605
 20
89.2141
 10
60.4548
 20
88.953
 10
60.3278
 20
88.71680000000001
 10
60.2226
 20
88.50659999999999
 10
60.1375
 20
88.3235
 10
60.0708
 20
88.16839999999999
 10
60.0209
 20
88.04220000000001
 10
59.9858
 20
87.9457
 10
59.964
 20
87.8797
 10
59.9536
 20
87.84479999999999
 10
58.2242
 20
81.26990000000001
 10
50
 20
82.33330000000001
 10
49.9999
 20
89.1319
 10
49.9987
 20
89.1683
 10
49.9944
 20
89.2376
 10
49.985
 20
89.3398
 10
49.9688
 20
89.47460000000001
 10
49.9438
 20
89.6416
 10
49.9081
 20
89.8403
 10
49.8598
 20
90.07040000000001
 10
49.7971
 20
90.33109999999999
 10
49.7182
 20
90.6219
 10
49.6213
 20
90.9419
 10
49.5046
 20
91.2903
 10
49.3664
 20
91.66630000000001
 10
49.2051
 20
92.0689
 10
49.0189
 20
92.4969
 10
48.8062
 20
92.94929999999999
 10
48.5655
 20
93.42490000000001
 10
48.2954
 20
93.92230000000001
 10
47.9942
 20
94.4404
 10
47.6606
 20
94.97749999999999
 10
47.2933
 20
95.5324
 10
46.8909
 20
96.10339999999999
 10
46.4641
 20
96.5325
 10
41.1603
 20
95.8218
 10
40.8616
 20
95.2954
 10
40.6237
 20
94.6386
 10
40.4154
 20
94.0067
 10
40.235
 20
93.4006
 10
40.0809
 20
92.82159999999999
 10
39.9512
 20
92.2705
 10
39.8442
 20
91.7484
 10
39.7581
 20
91.256
 10
39.6912
 20
90.794
 10
39.6415
 20
90.36320000000001
 10
39.6072
 20
89.9641
 10
39.5864
 20
89.5972
 10
39.5771
 20
89.2629
 10
39.5776
 20
88.96170000000001
 10
39.5858
 20
88.6936
 10
39.5997
 20
88.459
 10
39.6176
 20
88.25790000000001
 10
39.6374
 20
88.09020000000001
 10
39.6572
 20
87.9559
 10
39.6752
 20
87.8549
 10
39.6892
 20
87.7868
 10
39.6976
 20
87.7513
 10
41.4874
 20
81.1926
 10
33.8333
 20
78.00149999999999
 10
30.434
 20
83.8892
 10
30.4147
 20
83.92
 10
30.3763
 20
83.97800000000001
 10
30.3171
 20
84.06180000000001
 10
30.2357
 20
84.1704
 10
30.1305
 20
84.30250000000001
 10
30.0002
 20
84.4568
 10
29.8434
 20
84.6318
 10
29.6587
 20
84.8263
 10
29.445
 20
85.03870000000001
 10
29.2011
 20
85.26730000000001
 10
28.9258
 20
85.5108
 10
28.6182
 20
85.76730000000001
 10
28.2771
 20
86.0352
 10
27.9019
 20
86.31280000000001
 10
27.4915
 20
86.59829999999999
 10
27.0453
 20
86.88980000000001
 10
26.5626
 20
87.18549999999999
 10
26.0427
 20
87.4836
 10
25.4852
 20
87.782
 10
24.8897
 20
88.0788
 10
24.2557
 20
88.3721
 10
23.6715
 20
88.5304
 10
19.4337
 20
85.26300000000001
 10
19.4382
 20
84.65780000000001
 10
19.5606
 20
83.9701
 10
19.6962
 20
83.3186
 10
19.843
 20
82.70359999999999
 10
19.999
 20
82.125
 10
20.1622
 20
81.5829
 10
20.3306
 20
81.07730000000001
 10
20.5023
 20
80.6078
 10
20.6753
 20
80.1742
 10
20.8477
 20
79.77629999999999
 10
21.0175
 20
79.4135
 10
21.183
 20
79.08539999999999
 10
21.3421
 20
78.79130000000001
 10
21.4931
 20
78.53059999999999
 10
21.6342
 20
78.3026
 10
21.7636
 20
78.10640000000001
 10
21.8797
 20
77.94110000000001
 10
21.9806
 20
77.8058
 10
22.065
 20
77.6994
 10
22.131
 20
77.6208
 10
22.1772
 20
77.5689
 10
22.2022
 20
77.5424
 10
27.0316
 20
72.7573
 10
21.9985
 20
66.16669999999999
 10
16.1108
 20
69.5659
 10
16.0786
 20
69.583
 10
16.0164
 20
69.6139
 10
15.9232
 20
69.657
 10
15.7984
 20
69.7103
 10
15.6413
 20
69.77209999999999
 10
15.4513
 20
69.84049999999999
 10
15.2279
 20
69.91370000000001
 10
14.9708
 20
69.9898
 10
14.6795
 20
70.0669
 10
14.3539
 20
70.143
 10
13.9938
 20
70.2161
 10
13.5991
 20
70.28450000000001
 10
13.1698
 20
70.346
 10
12.706
 20
70.39879999999999
 10
12.2079
 20
70.4408
 10
11.6757
 20
70.47020000000001
 10
11.1098
 20
70.4849
 10
10.5106
 20
70.48310000000001
 10
9.878599999999999
 20
70.4628
 10
9.214399999999998
 20
70.4221
 10
8.518799999999999
 20
70.3591
 10
7.933700000000002
 20
70.2041
 10
5.897300000000001
 20
65.2555
 10
6.203800000000001
 20
64.7336
 10
6.653700000000001
 20
64.1992
 10
7.096800000000002
 20
63.7028
 10
7.531500000000001
 20
63.2436
 10
7.955800000000004
 20
62.8206
 10
8.368200000000002
 20
62.4327
 10
8.7669
 20
62.079
 10
9.150399999999998
 20
61.7583
 10
9.517000000000003
 20
61.4693
 10
9.865200000000002
 20
61.2109
 10
10.1937
 20
60.9816
 10
10.501
 20
60.7801
 10
10.7859
 20
60.605
 10
11.047
 20
60.4548
 10
11.2832
 20
60.3278
 10
11.4934
 20
60.2226
 10
11.6765
 20
60.1375
 10
11.8316
 20
60.0708
 10
11.9578
 20
60.0209
 10
12.0543
 20
59.9858
 10
12.1203
 20
59.964
 10
12.1552
 20
59.9536
 10
18.7301
 20
58.2242
 10
17.6667
 20
50
 10
10.8681
 20
49.9999
 10
10.8317
 20
49.9987
 10
10.7624
 20
49.9944
 10
10.6602
 20
49.985
 10
10.5254
 20
49.9688
 10
10.3584
 20
49.9438
 10
10.1597
 20
49.9081
 10
9.929600000000001
 20
49.8598
 10
9.668900000000001
 20
49.7971
 10
9.378100000000003
 20
49.7182
 10
9.058100000000003
 20
49.6213
 10
8.709699999999998
 20
49.5046
 10
8.3337
 20
49.3664
 10
7.931100000000001
 20
49.2051
 10
7.503100000000003
 20
49.0189
 10
7.050699999999999
 20
48.8062
 10
6.575099999999999
 20
48.5655
 10
6.0777
 20
48.2954
 10
5.559600000000003
 20
47.9942
 10
5.022500000000001
 20
47.6606
 10
4.467599999999997
 20
47.2933
 10
3.896599999999999
 20
46.8909
 10
3.467500000000001
 20
46.4641
 10
4.178199999999997
 20
41.1603
 10
4.704599999999999
 20
40.8616
 10
5.361400000000003
 20
40.6237
 10
5.993299999999998
 20
40.4154
 10
6.599400000000003
 20
40.235
 10
7.178400000000003
 20
40.0809
 10
7.729500000000002
 20
39.9512
 10
8.251600000000003
 20
39.8442
 10
8.744
 20
39.7581
 10
9.206000000000003
 20
39.6912
 10
9.636800000000001
 20
39.6415
 10
10.0359
 20
39.6072
 10
10.4028
 20
39.5864
 10
10.7371
 20
39.5771
 10
11.0383
 20
39.5776
 10
11.3064
 20
39.5858
 10
11.541
 20
39.5997
 10
11.7421
 20
39.6176
 10
11.9098
 20
39.6374
 10
12.0441
 20
39.6572
 10
12.1451
 20
39.6752
 10
12.2132
 20
39.6892
 10
12.2487
 20
39.6976
 10
18.8074
 20
41.4874
 10
21.9985
 20
33.8333
 10
16.1108
 20
30.434
 10
16.08
 20
30.4147
 10
16.022
 20
30.3763
 10
15.9382
 20
30.3171
 10
15.8296
 20
30.2357
 10
15.6975
 20
30.1305
 10
15.5432
 20
30.0002
 10
15.3682
 20
29.8434
 10
15.1737
 20
29.6587
 10
14.9613
 20
29.445
 10
14.7327
 20
29.2011
 10
14.4892
 20
28.9258
 10
14.2327
 20
28.6182
 10
13.9648
 20
28.2771
 10
13.6872
 20
27.9019
 10
13.4017
 20
27.4915
 10
13.1102
 20
27.0453
 10
12.8145
 20
26.5626
 10
12.5164
 20
26.0427
 10
12.218
 20
25.4852
 10
11.9212
 20
24.8897
 10
11.6279
 20
24.2557
 10
11.4696
 20
23.6715
 10
14.737
 20
19.4337
 10
15.3422
 20
19.4382
 10
16.0299
 20
19.5606
 10
16.6814
 20
19.6962
 10
17.2964
 20
19.843
 10
17.875
 20
19.999
 10
18.4171
 20
20.1622
 10
18.9227
 20
20.3306
 10
19.3922
 20
20.5023
 10
19.8258
 20
20.6753
 10
20.2237
 20
20.8477
 10
20.5865
 20
21.0175
 10
20.9146
 20
21.183
 10
21.2087
 20
21.3421
 10
21.4694
 20
21.4931
 10
21.6974
 20
21.6342
 10
21.8936
 20
21.7636
 10
22.0589
 20
21.8797
 10
22.1942
 20
21.9806
 10
22.3006
 20
22.065
 10
22.3792
 20
22.131
 10
22.4311
 20
22.1772
 10
22.4576
 20
22.2022
 10
27.2427
 20
27.0316
 10
33.8333
 20
21.9985
 10
30.4341
 20
16.1108
 10
30.417
 20
16.0786
 10
30.3861
 20
16.0164
 10
30.343
 20
15.9232
 10
30.2897
 20
15.7984
 10
30.2279
 20
15.6413
 10
30.1595
 20
15.4513
 10
30.0863
 20
15.2279
 10
30.0102
 20
14.9708
 10
29.9331
 20
14.6795
 10
29.857
 20
14.3539
 10
29.7839
 20
13.9938
 10
29.7155
 20
13.5991
 10
29.654
 20
13.1698
 10
29.6012
 20
12.706
 10
29.5592
 20
12.2079
 10
29.5298
 20
11.6757
 10
29.5151
 20
11.1098
 10
29.5169
 20
10.5106
 10
29.5372
 20
9.878599999999999
 10
29.5779
 20
9.214399999999998
 10
29.6409
 20
8.518799999999999
 10
29.7959
 20
7.933700000000002
 10
34.7445
 20
5.897300000000001
 10
35.2664
 20
6.203800000000001
 10
35.8008
 20
6.653700000000001
 10
36.2972
 20
7.096800000000002
 10
36.7564
 20
7.531500000000001
 10
37.1794
 20
7.955800000000004
 10
37.5673
 20
8.368200000000002
 10
37.921
 20
8.7669
 10
38.2417
 20
9.150399999999998
 10
38.5307
 20
9.517000000000003
 10
38.7891
 20
9.865200000000002
 10
39.0184
 20
10.1937
 10
39.2199
 20
10.501
 10
39.395
 20
10.7859
 10
39.5452
 20
11.047
 10
39.6722
 20
11.2832
 10
39.7774
 20
11.4934
 10
39.8625
 20
11.6765
 10
39.9292
 20
11.8316
 10
39.9791
 20
11.9578
 10
40.0142
 20
12.0543
 10
40.036
 20
12.1203
 10
40.0464
 20
12.1552
 10
41.7758
 20
18.7301
 10
50
 20
17.6667
 10
50.0001
 20
10.8681
 10
50.0013
 20
10.8317
 10
50.0056
 20
10.7624
 10
50.015
 20
10.6602
 10
50.0312
 20
10.5254
 10
50.0562
 20
10.3584
 10
50.0919
 20
10.1597
 10
50.1402
 20
9.929600000000001
 10
50.2029
 20
9.668900000000001
 10
50.2818
 20
9.378100000000003
 10
50.3787
 20
9.058100000000003
 10
50.4954
 20
8.709699999999998
 10
50.6336
 20
8.3337
 10
50.7949
 20
7.931100000000001
 10
50.9811
 20
7.503100000000003
 10
51.1938
 20
7.050699999999999
 10
51.4345
 20
6.575099999999999
 10
51.7046
 20
6.0777
 10
52.0058
 20
5.559600000000003
 10
52.3394
 20
5.022500000000001
 10
52.7067
 20
4.467599999999997
 10
53.1091
 20
3.896599999999999
 10
53.5359
 20
3.467500000000001
 10
58.8397
 20
4.178199999999997
 10
59.1384
 20
4.704599999999999
 10
59.3763
 20
5.361400000000003
 10
59.5846
 20
5.993299999999998
 10
59.765
 20
6.599400000000003
 10
59.9191
 20
7.178400000000003
 10
60.0488
 20
7.729500000000002
 10
60.1558
 20
8.251600000000003
 10
60.2419
 20
8.744
 10
60.3088
 20
9.206000000000003
 10
60.3585
 20
9.636800000000001
 10
60.3928
 20
10.0359
 10
60.4136
 20
10.4028
 10
60.4229
 20
10.7371
 10
60.4224
 20
11.0383
 10
60.4142
 20
11.3064
 10
60.4003
 20
11.541
 10
60.3824
 20
11.7421
 10
60.3626
 20
11.9098
 10
60.3428
 20
12.0441
 10
60.3248
 20
12.1451
 10
60.3108
 20
12.2132
 10
60.3024
 20
12.2487
 10
58.5126
 20
18.8074
 10
66.16669999999999
 20
21.9985
 10
69.566
 20
16.1108
 10
69.5853
 20
16.08
 10
69.6237
 20
16.022
 10
69.6829
 20
15.9382
 10
69.76429999999999
 20
15.8296
 10
69.8695
 20
15.6975
 10
69.99979999999999
 20
15.5432
 10
70.1566
 20
15.3682
 10
70.3413
 20
15.1737
 10
70.55500000000001
 20
14.9613
 10
70.7989
 20
14.7327
 10
71.0742
 20
14.4892
 10
71.3818
 20
14.2327
 10
71.7229
 20
13.9648
 10
72.0981
 20
13.6872
 10
72.5085
 20
13.4017
 10
72.9547
 20
13.1102
 10
73.4374
 20
12.8145
 10
73.9573
 20
12.5164
 10
74.51480000000001
 20
12.218
 10
75.1103
 20
11.9212
 10
75.7443
 20
11.6279
 10
76.32849999999999
 20
11.4696
 10
80.5663
 20
14.737
 10
80.56180000000001
 20
15.3422
 10
80.43940000000001
 20
16.0299
 10
80.3038
 20
16.6814
 10
80.157
 20
17.2964
 10
80.001
 20
17.875
 10
79.8378
 20
18.4171
 10
79.6694
 20
18.9227
 10
79.49769999999999
 20
19.3922
 10
79.32470000000001
 20
19.8258
 10
79.1523
 20
20.2237
 10
78.9825
 20
20.5865
 10
78.81700000000001
 20
20.9146
 10
78.6579
 20
21.2087
 10
78.5069
 20
21.4694
 10
78.36580000000001
 20
21.6974
 10
78.2364
 20
21.8936
 10
78.1203
 20
22.0589
 10
78.0194
 20
22.1942
 10
77.935
 20
22.3006
 10
77.869
 20
22.3792
 10
77.8228
 20
22.4311
 10
77.7978
 20
22.4576
 10
72.9684
 20
27.2427
 10
78.00149999999999
 20
33.8333
 10
83.8892
 20
30.4341
 10
83.92140000000001
 20
30.417
 10
83.9836
 20
30.3861
 10
84.07679999999999
 20
30.343
 10
84.2016
 20
30.2897
 10
84.3587
 20
30.2279
 10
84.5487
 20
30.1595
 10
84.77209999999999
 20
30.0863
 10
85.0292
 20
30.0102
 10
85.32050000000001
 20
29.9331
 10
85.64609999999999
 20
29.857
 10
86.00620000000001
 20
29.7839
 10
86.40090000000001
 20
29.7155
 10
86.83019999999999
 20
29.654
 10
87.294
 20
29.6012
 10
87.7921
 20
29.5592
 10
88.32429999999999
 20
29.5298
 10
88.89019999999999
 20
29.5151
 10
89.4894
 20
29.5169
 10
90.12139999999999
 20
29.5372
 10
90.7856
 20
29.5779
 10
91.4812
 20
29.6409
 10
92.0663
 20
29.7959
 10
94.1027
 20
34.7445
 10
93.7962
 20
35.2664
 10
93.3463
 20
35.8008
 10
92.9032
 20
36.2972
 10
92.46850000000001
 20
36.7564
 10
92.04419999999999
 20
37.1794
 10
91.6318
 20
37.5673
 10
91.23310000000001
 20
37.921
 10
90.84960000000001
 20
38.2417
 10
90.483
 20
38.5307
 10
90.1348
 20
38.7891
 10
89.80629999999999
 20
39.0184
 10
89.499
 20
39.2199
 10
89.2141
 20
39.395
 10
88.953
 20
39.5452
 10
88.71680000000001
 20
39.6722
 10
88.50659999999999
 20
39.7774
 10
88.3235
 20
39.8625
 10
88.16839999999999
 20
39.9292
 10
88.04220000000001
 20
39.9791
 10
87.9457
 20
40.0142
 10
87.8797
 20
40.036
 10
87.84479999999999
 20
40.0464
 10
81.26990000000001
 20
41.7758
  0
CIRCLE
  5
50
100
AcDbEntity
  8
gear
  6
ByLayer
 62
  256
370
   -1
100
AcDbCircle
 10
50
 20
50
 40
8
  0
LWPOLYLINE
  5
51
100
AcDbEntity
  8
gear
  6
ByLayer
 62
  256
370
   -1
100
AcDbPolyline
 90
 1632
 70
    1
 43
0
 10
162.3333
 20
190
 10
168.2637
 20
190.0001
 10
168.2919
 20
190.0009
 10
168.3365
 20
190.0026
 10
168.3977
 20
190.0059
 10
168.4753
 20
190.0113
 10
168.5693
 20
190.0191
 10
168.6797
 20
190.0299
 10
168.8064
 20
190.0442
 10
168.9492
 20
190.0624
 10
169.1082
 20
190.085
 10
169.2832
 20
190.1125
 10
169.474
 20
190.1453
 10
169.6807
 20
190.1839
 10
169.903
 20
190.2288
 10
170.1408
 20
190.2805
 10
170.3939
 20
190.3393
 10
170.6622
 20
190.4058
 10
170.9455
 20
190.4804
 10
171.2437
 20
190.5636
 10
171.5565
 20
190.6558
 10
171.8837
 20
190.7574
 10
172.2252
 20
190.8689
 10
172.5806
 20
190.9908
 10
172.9499
 20
191.1234
 10
173.3326
 20
191.2671
 10
173.7287
 20
191.4225
 10
174.1377
 20
191.5898
 10
174.5595
 20
191.7696
 10
174.9938
 20
191.9623
 10
175.4403
 20
192.1681
 10
175.8986
 20
192.3876
 10
176.3686
 20
192.621
 10
176.6194
 20
192.8613
 10
176.2019
 20
198.9631
 10
175.9207
 20
199.167
 10
175.4233
 20
199.3343
 10
174.9394
 20
199.4893
 10
174.469
 20
199.6324
 10
174.0126
 20
199.764
 10
173.5702
 20
199.8847
 10
173.1421
 20
199.9948
 10
172.7286
 20
200.0948
 10
172.3299
 20
200.1851
 10
171.946
 20
200.2661
 10
171.5773
 20
200.3384
 10
171.2238
 20
200.4024
 10
170.8858
 20
200.4585
 10
170.5634
 20
200.5072
 10
170.2566
 20
200.549
 10
169.9658
 20
200.5843
 10
169.6909
 20
200.6137
 10
169.4321
 20
200.6375
 10
169.1895
 20
200.6563
 10
168.9632
 20
200.6705
 10
168.7532
 20
200.6806
 10
168.5596
 20
200.6871
 10
168.3826
 20
200.6905
 10
168.222
 20
200.6913
 10
168.078
 20
200.6898
 10
167.9506
 20
200.6867
 10
167.8397
 20
200.6824
 10
167.7455
 20
200.6773
 10
167.6679
 20
200.672
 10
167.6069
 20
200.667
 10
167.5624
 20
200.6627
 10
167.5344
 20
200.6596
 10
161.6593
 20
199.852
 10
159.8686
 20
208.7212
 10
165.5969
 20
210.2563
 10
165.6239
 20
210.2642
 10
165.6666
 20
210.2775
 10
165.7248
 20
210.2966
 10
165.7984
 20
210.3218
 10
165.8872
 20
210.3537
 10
165.991
 20
210.3927
 10
166.1097
 20
210.4393
 10
166.2429
 20
210.4938
 10
166.3906
 20
210.5568
 10
166.5525
 20
210.6286
 10
166.7284
 20
210.7097
 10
166.918
 20
210.8005
 10
167.1211
 20
210.9014
 10
167.3374
 20
211.0129
 10
167.5667
 20
211.1352
 10
167.8087
 20
211.2689
 10
168.063
 20
211.4143
 10
168.3295
 20
211.5718
 10
168.6078
 20
211.7418
 10
168.8976
 20
211.9247
 10
169.1985
 20
212.1208
 10
169.5103
 20
212.3305
 10
169.8327
 20
212.5541
 10
170.1652
 20
212.792
 10
170.5075
 20
213.0446
 10
170.8593
 20
213.3121
 10
171.2202
 20
213.595
 10
171.5898
 20
213.8934
 10
171.9678
 20
214.2078
 10
172.3537
 20
214.5384
 10
172.7472
 20
214.8856
 10
172.9274
 20
215.1826
 10
170.9448
 20
220.9684
 10
170.6204
 20
221.0925
 10
170.0967
 20
221.1254
 10
169.5891
 20
221.1498
 10
169.0978
 20
221.1663
 10
168.6228
 20
221.1754
 10
168.1643
 20
221.1775
 10
167.7223
 20
221.173
 10
167.297
 20
221.1626
 10
166.8885
 20
221.1466
 10
166.4967
 20
221.1255
 10
166.1218
 20
221.0999
 10
165.7639
 20
221.0702
 10
165.4228
 20
221.0369
 10
165.0988
 20
221.0005
 10
164.7917
 20
220.9615
 10
164.5016
 20
220.9204
 10
164.2285
 20
220.8776
 10
163.9724
 20
220.8336
 10
163.7332
 20
220.7889
 10
163.5109
 20
220.7441
 10
163.3054
 20
220.6995
 10
163.1168
 20
220.6557
 10
162.9448
 20
220.6131
 10
162.7895
 20
220.5723
 10
162.6508
 20
220.5336
 10
162.5285
 20
220.4977
 10
162.4226
 20
220.4648
 10
162.3329
 20
220.4355
 10
162.2593
 20
220.4103
 10
162.2016
 20
220.3897
 10
162.1598
 20
220.374
 10
162.1336
 20
220.3637
 10
156.6677
 20
218.063
 10
152.6425
 20
226.1667
 10
157.7783
 20
229.132
 10
157.8023
 20
229.1467
 10
157.8401
 20
229.1705
 10
157.8914
 20
229.204
 10
157.956
 20
229.2474
 10
158.0335
 20
229.3012
 10
158.1237
 20
229.3658
 10
158.2262
 20
229.4414
 10
158.3408
 20
229.5286
 10
158.4672
 20
229.6277
 10
158.605
 20
229.739
 10
158.7539
 20
229.8628
 10
158.9135
 20
229.9996
 10
159.0836
 20
230.1496
 10
159.2637
 20
230.3133
 10
159.4535
 20
230.4908
 10
159.6526
 20
230.6825
 10
159.8607
 20
230.8888
 10
160.0773
 20
231.1099
 10
160.3021
 20
231.3462
 10
160.5347
 20
231.5978
 10
160.7746
 20
231.8651
 10
161.0216
 20
232.1484
 10
161.275
 20
232.4478
 10
161.5346
 20
232.7637
 10
161.7999
 20
233.0962
 10
162.0705
 20
233.4457
 10
162.3459
 20
233.8123
 10
162.6257
 20
234.1963
 10
162.9094
 20
234.5978
 10
163.1966
 20
235.017
 10
163.4868
 20
235.4542
 10
163.584
 20
235.7877
 10
160.1715
 20
240.8633
 10
159.826
 20
240.8992
 10
159.3116
 20
240.7954
 10
158.815
 20
240.6876
 10
158.3361
 20
240.5764
 10
157.875
 20
240.4622
 10
157.4316
 20
240.3455
 10
157.0058
 20
240.2268
 10
156.5977
 20
240.1067
 10
156.2072
 20
239.9855
 10
155.8343
 20
239.8637
 10
155.4788
 20
239.742
 10
155.1407
 20
239.6206
 10
154.8199
 20
239.5002
 10
154.5163
 20
239.3812
 10
154.2298
 20
239.264
 10
153.9602
 20
239.1492
 10
153.7075
 20
239.0372
 10
153.4715
 20
238.9284
 10
153.252
 20
238.8234
 10
153.0489
 20
238.7225
 10
152.862
 20
238.6263
 10
152.6911
 20
238.5352
 10
152.536
 20
238.4495
 10
152.3966
 20
238.3699
 10
152.2726
 20
238.2966
 10
152.1638
 20
238.2302
 10
152.07
 20
238.1711
 10
151.9909
 20
238.1196
 10
151.9264
 20
238.0762
 10
151.876
 20
238.0413
 10
151.8397
 20
238.0153
 10
151.817
 20
237.9986
 10
147.1328
 20
234.3617
 10
141.1474
 20
241.1474
 10
145.3407
 20
245.3409
 10
145.3601
 20
245.3613
 10
145.3904
 20
245.3941
 10
145.4313
 20
245.4397
 10
145.4824
 20
245.4984
 10
145.5434
 20
245.5704
 10
145.6138
 20
245.6561
 10
145.6933
 20
245.7558
 10
145.7814
 20
245.8696
 10
145.8778
 20
245.998
 10
145.9821
 20
246.1412
 10
146.0939
 20
246.2993
 10
146.2127
 20
246.4728
 10
146.3381
 20
246.6617
 10
146.4698
 20
246.8664
 10
146.6071
 20
247.087
 10
146.7498
 20
247.3237
 10
146.8974
 20
247.5769
 10
147.0494
 20
247.8465
 10
147.2054
 20
248.1329
 10
147.365
 20
248.4361
 10
147.5276
 20
248.7564
 10
147.6928
 20
249.0939
 10
147.8601
 20
249.4488
 10
148.0291
 20
249.8211
 10
148.1993
 20
250.211
 10
148.3702
 20
250.6185
 10
148.5413
 20
251.0439
 10
148.7122
 20
251.4872
 10
148.8823
 20
251.9485
 10
149.0512
 20
252.4278
 10
149.2184
 20
252.9251
 10
149.2259
 20
253.2724
 10
144.6161
 20
257.2919
 10
144.2731
 20
257.2371
 10
143.8031
 20
257.0037
 10
143.3513
 20
256.7711
 10
142.9175
 20
256.5397
 10
142.5016
 20
256.3101
 10
142.1035
 20
256.0826
 10
141.723
 20
255.8578
 10
141.3599
 20
255.6361
 10
141.0141
 20
255.4179
 10
140.6853
 20
255.2038
 10
140.3735
 20
254.9942
 10
140.0783
 20
254.7895
 10
139.7996
 20
254.5902
 10
139.5372
 20
254.3966
 10
139.2907
 20
254.2093
 10
139.0601
 20
254.0286
 10
138.845
 20
253.855
 10
138.6451
 20
253.6888
 10
138.4603
 20
253.5306
 10
138.2902
 20
253.3806
 10
138.1346
 20
253.2393
 10
137.9931
 20
253.107
 10
137.8655
 20
252.9842
 10
137.7514
 20
252.8712
 10
137.6506
 20
252.7683
 10
137.5627
 20
252.676
 10
137.4874
 20
252.5946
 10
137.4244
 20
252.5244
 10
137.3732
 20
252.4658
 10
137.3336
 20
252.419
 10
137.3052
 20
252.3845
 10
137.2877
 20
252.3625
 10
133.7044
 20
247.6371
 10
126.1667
 20
252.6425
 10
129.1317
 20
257.7784
 10
129.1452
 20
257.8032
 10
129.166
 20
257.8427
 10
129.1937
 20
257.8973
 10
129.2279
 20
257.9672
 10
129.2681
 20
258.0526
 10
129.3139
 20
258.1536
 10
129.3649
 20
258.2704
 10
129.4206
 20
258.4032
 10
129.4805
 20
258.5522
 10
129.5442
 20
258.7175
 10
129.6112
 20
258.8992
 10
129.6811
 20
259.0974
 10
129.7533
 20
259.3124
 10
129.8275
 20
259.5442
 10
129.9031
 20
259.7928
 10
129.9797
 20
260.0584
 10
130.0567
 20
260.3411
 10
130.1338
 20
260.6409
 10
130.2103
 20
260.9579
 10
130.2859
 20
261.2921
 10
130.3601
 20
261.6436
 10
130.4323
 20
262.0123
 10
130.5021
 20
262.3984
 10
130.569
 20
262.8017
 10
130.6324
 20
263.2224
 10
130.692
 20
263.6603
 10
130.7472
 20
264.1155
 10
130.7975
 20
264.5879
 10
130.8425
 20
265.0775
 10
130.8816
 20
265.5842
 10
130.9144
 20
266.1079
 10
130.8318
 20
266.4453
 10
125.3387
 20
269.1346
 10
125.0215
 20
268.993
 10
124.628
 20
268.6459
 10
124.2517
 20
268.3043
 10
123.8926
 20
267.9685
 10
123.5504
 20
267.639
 10
123.2247
 20
267.3163
 10
122.9153
 20
267.0006
 10
122.622
 20
266.6925
 10
122.3444
 20
266.3923
 10
122.0823
 20
266.1004
 10
121.8353
 20
265.8172
 10
121.6032
 20
265.5431
 10
121.3856
 20
265.2784
 10
121.1822
 20
265.0235
 10
120.9926
 20
264.7788
 10
120.8166
 20
264.5446
 10
120.6537
 20
264.3212
 10
120.5037
 20
264.109
 10
120.3661
 20
263.9083
 10
120.2407
 20
263.7194
 10
120.1269
 20
263.5426
 10
120.0245
 20
263.3782
 10
119.933
 20
263.2265
 10
119.8521
 20
263.0879
 10
119.7813
 20
262.9624
 10
119.7203
 20
262.8505
 10
119.6687
 20
262.7524
 10
119.6259
 20
262.6683
 10
119.5917
 20
262.5984
 10
119.5655
 20
262.543
 10
119.547
 20
262.5023
 10
119.5358
 20
262.4765
 10
117.2976
 20
256.9847
 10
108.7212
 20
259.8686
 10
110.256
 20
265.597
 10
110.2626
 20
265.6243
 10
110.2724
 20
265.6679
 10
110.2851
 20
265.7279
 10
110.3
 20
265.8042
 10
110.3168
 20
265.8971
 10
110.3349
 20
266.0065
 10
110.3539
 20
266.1325
 10
110.3733
 20
266.2752
 10
110.3926
 20
266.4346
 10
110.4114
 20
266.6108
 10
110.4291
 20
266.8036
 10
110.4452
 20
267.0132
 10
110.4594
 20
267.2396
 10
110.4711
 20
267.4826
 10
110.4797
 20
267.7424
 10
110.4849
 20
268.0187
 10
110.4862
 20
268.3117
 10
110.483
 20
268.6213
 10
110.4749
 20
268.9473
 10
110.4615
 20
269.2896
 10
110.4421
 20
269.6483
 10
110.4164
 20
270.0232
 10
110.3839
 20
270.4142
 10
110.3441
 20
270.8211
 10
110.2966
 20
271.2438
 10
110.2408
 20
271.6823
 10
110.1763
 20
272.1362
 10
110.1026
 20
272.6056
 10
110.0193
 20
273.0901
 10
109.926
 20
273.5896
 10
109.8221
 20
274.104
 10
109.655
 20
274.4085
 10
103.653
 20
275.5845
 10
103.3833
 20
275.3656
 10
103.093
 20
274.9285
 10
102.818
 20
274.5011
 10
102.558
 20
274.0838
 10
102.3127
 20
273.677
 10
102.0817
 20
273.281
 10
101.8645
 20
272.896
 10
101.6609
 20
272.5225
 10
101.4705
 20
272.1606
 10
101.2929
 20
271.8109
 10
101.1276
 20
271.4734
 10
100.9743
 20
271.1485
 10
100.8327
 20
270.8365
 10
100.7021
 20
270.5377
 10
100.5824
 20
270.2523
 10
100.473
 20
269.9805
 10
100.3735
 20
269.7225
 10
100.2835
 20
269.4787
 10
100.2026
 20
269.2492
 10
100.1303
 20
269.0343
 10
100.0661
 20
268.8341
 10
100.0098
 20
268.6488
 10
99.9606
 20
268.4786
 10
99.91839999999999
 20
268.3237
 10
99.88249999999999
 20
268.1843
 10
99.85249999999999
 20
268.0604
 10
99.828
 20
267.9522
 10
99.80850000000001
 20
267.8599
 10
99.79349999999999
 20
267.7836
 10
99.7826
 20
267.7233
 10
99.7753
 20
267.6792
 10
99.771
 20
267.6514
 10
99.0305
 20
261.7674
 10
90
 20
262.3333
 10
89.9999
 20
268.2637
 10
89.9991
 20
268.2919
 10
89.9974
 20
268.3365
 10
89.9941
 20
268.3977
 10
89.98869999999999
 20
268.4753
 10
89.98089999999999
 20
268.5693
 10
89.9701
 20
268.6797
 10
89.95580000000001
 20
268.8064
 10
89.9376
 20
268.9492
 10
89.91499999999999
 20
269.1082
 10
89.8875
 20
269.2832
 10
89.85470000000001
 20
269.474
 10
89.81610000000001
 20
269.6807
 10
89.77119999999999
 20
269.903
 10
89.7195
 20
270.1408
 10
89.66069999999999
 20
270.3939
 10
89.5942
 20
270.6622
 10
89.5196
 20
270.9455
 10
89.43639999999999
 20
271.2437
 10
89.3442
 20
271.5565
 10
89.24260000000001
 20
271.8837
 10
89.1311
 20
272.2252
 10
89.00919999999999
 20
272.5806
 10
88.8766
 20
272.9499
 10
88.7329
 20
273.3326
 10
88.5775
 20
273.7287
 10
88.4102
 20
274.1377
 10
88.2304
 20
274.5595
 10
88.0377
 20
274.9938
 10
87.83189999999999
 20
275.4403
 10
87.61240000000001
 20
275.8986
 10
87.37899999999999
 20
276.3686
 10
87.1387
 20
276.6194
 10
81.0369
 20
276.2019
 10
80.833
 20
275.9207
 10
80.6657
 20
275.4233
 10
80.5107
 20
274.9394
 10
80.3676
 20
274.469
 10
80.236
 20
274.0126
 10
80.11529999999999
 20
273.5702
 10
80.0052
 20
273.1421
 10
79.90520000000001
 20
272.7286
 10
79.81489999999999
 20
272.3299
 10
79.73390000000001
 20
271.946
 10
79.66159999999999
 20
271.5773
 10
79.5976
 20
271.2238
 10
79.5415
 20
270.8858
 10
79.4928
 20
270.5634
 10
79.45099999999999
 20
270.2566
 10
79.4157
 20
269.9658
 10
79.38630000000001
 20
269.6909
 10
79.3625
 20
269.4321
 10
79.3437
 20
269.1895
 10
79.3295
 20
268.9632
 10
79.3194
 20
268.7532
 10
79.3129
 20
268.5596
 10
79.3095
 20
268.3826
 10
79.3087
 20
268.222
 10
79.31020000000001
 20
268.078
 10
79.3133
 20
267.9506
 10
79.3176
 20
267.8397
 10
79.3227
 20
267.7455
 10
79.328
 20
267.6679
 10
79.333
 20
267.6069
 10
79.3373
 20
267.5624
 10
79.3404
 20
267.5344
 10
80.148
 20
261.6593
 10
71.2788
 20
259.8686
 10
69.7437
 20
265.5969
 10
69.7358
 20
265.6239
 10
69.7225
 20
265.6666
 10
69.7034
 20
265.7248
 10
69.6782
 20
265.7984
 10
69.6463
 20
265.8872
 10
69.6073
 20
265.991
 10
69.5607
 20
266.1097
 10
69.50620000000001
 20
266.2429
 10
69.4432
 20
266.3906
 10
69.37139999999999
 20
266.5525
 10
69.2903
 20
266.7284
 10
69.1995
 20
266.918
 10
69.0986
 20
267.1211
 10
68.9871
 20
267.3374
 10
68.8648
 20
267.5667
 10
68.7311
 20
267.8087
 10
68.5857
 20
268.063
 10
68.4282
 20
268.3295
 10
68.2582
 20
268.6078
 10
68.0753
 20
268.8976
 10
67.8792
 20
269.1985
 10
67.6695
 20
269.5103
 10
67.44589999999999
 20
269.8327
 10
67.208
 20
270.1652
 10
66.9554
 20
270.5075
 10
66.6879
 20
270.8593
 10
66.405
 20
271.2202
 10
66.1066
 20
271.5898
 10
65.79220000000001
 20
271.9678
 10
65.4616
 20
272.3537
 10
65.1144
 20
272.7472
 10
64.81739999999999
 20
272.9274
 10
59.0316
 20
270.9448
 10
58.9075
 20
270.6204
 10
58.8746
 20
270.0967
 10
58.8502
 20
269.5891
 10
58.8337
 20
269.0978
 10
58.8246
 20
268.6228
 10
58.82250000000001
 20
268.1643
 10
58.827
 20
267.7223
 10
58.8374
 20
267.297
 10
58.8534
 20
266.8885
 10
58.8745
 20
266.4967
 10
58.90009999999999
 20
266.1218
 10
58.9298
 20
265.7639
 10
58.9631
 20
265.4228
 10
58.9995
 20
265.0988
 10
59.0385
 20
264.7917
 10
59.0796
 20
264.5016
 10
59.1224
 20
264.2285
 10
59.1664
 20
263.9724
 10
59.2111
 20
263.7332
 10
59.2559
 20
263.5109
 10
59.3005
 20
263.3054
 10
59.3443
 20
263.1168
 10
59.3869
 20
262.9448
 10
59.4277
 20
262.7895
 10
59.4664
 20
262.6508
 10
59.50230000000001
 20
262.5285
 10
59.5352
 20
262.4226
 10
59.5645
 20
262.3329
 10
59.5897
 20
262.2593
 10
59.6103
 20
262.2016
 10
59.626
 20
262.1598
 10
59.6363
 20
262.1336
 10
61.937
 20
256.6677
 10
53.8333
 20
252.6425
 10
50.868
 20
257.7783
 10
50.8533
 20
257.8023
 10
50.8295
 20
257.8401
 10
50.796
 20
257.8914
 10
50.7526
 20
257.956
 10
50.6988
 20
258.0335
 10
50.6342
 20
258.1237
 10
50.5586
 20
258.2262
 10
50.4714
 20
258.3408
 10
50.3723
 20
258.4672
 10
50.261
 20
258.605
 10
50.1372
 20
258.7539
 10
50.0004
 20
258.9135
 10
49.8504
 20
259.0836
 10
49.6867
 20
259.2637
 10
49.5092
 20
259.4535
 10
49.3175
 20
259.6526
 10
49.1112
 20
259.8607
 10
48.8901
 20
260.0773
 10
48.6538
 20
260.3021
 10
48.4022
 20
260.5347
 10
48.1349
 20
260.7746
 10
47.8516
 20
261.0216
 10
47.5522
 20
261.275
 10
47.2363
 20
261.5346
 10
46.9038
 20
261.7999
 10
46.5543
 20
262.0705
 10
46.1877
 20
262.3459
 10
45.8037
 20
262.6257
 10
45.4022
 20
262.9094
 10
44.983
 20
263.1966
 10
44.5458
 20
263.4868
 10
44.2123
 20
263.584
 10
39.1367
 20
260.1715
 10
39.1008
 20
259.826
 10
39.2046
 20
259.3116
 10
39.3124
 20
258.815
 10
39.4236
 20
258.3361
 10
39.5378
 20
257.875
 10
39.6545
 20
257.4316
 10
39.7732
 20
257.0058
 10
39.8933
 20
256.5977
 10
40.0145
 20
256.2072
 10
40.1363
 20
255.8343
 10
40.258
 20
255.4788
 10
40.3794
 20
255.1407
 10
40.4998
 20
254.8199
 10
40.6188
 20
254.5163
 10
40.736
 20
254.2298
 10
40.8508
 20
253.9602
 10
40.9628
 20
253.7075
 10
41.0716
 20
253.4715
 10
41.1766
 20
253.252
 10
41.2775
 20
253.0489
 10
41.3737
 20
252.862
 10
41.4648
 20
252.6911
 10
41.5505
 20
252.536
 10
41.6301
 20
252.3966
 10
41.7034
 20
252.2726
 10
41.7698
 20
252.1638
 10
41.8289
 20
252.07
 10
41.8804
 20
251.9909
 10
41.9238
 20
251.9264
 10
41.9587
 20
251.876
 10
41.9847
 20
251.8397
 10
42.0014
 20
251.817
 10
45.6383
 20
247.1328
 10
38.8526
 20
241.1474
 10
34.6591
 20
245.3407
 10
34.6387
 20
245.3601
 10
34.6059
 20
245.3904
 10
34.5603
 20
245.4313
 10
34.5016
 20
245.4824
 10
34.4296
 20
245.5434
 10
34.3439
 20
245.6138
 10
34.2442
 20
245.6933
 10
34.1304
 20
245.7814
 10
34.002
 20
245.8778
 10
33.8588
 20
245.9821
 10
33.7007
 20
246.0939
 10
33.5272
 20
246.2127
 10
33.3383
 20
246.3381
 10
33.1336
 20
246.4698
 10
32.913
 20
246.6071
 10
32.6763
 20
246.7498
 10
32.4231
 20
246.8974
 10
32.1535
 20
247.0494
 10
31.8671
 20
247.2054
 10
31.5639
 20
247.365
 10
31.2436
 20
247.5276
 10
30.9061
 20
247.6928
 10
30.5512
 20
247.8601
 10
30.1789
 20
248.0291
 10
29.789
 20
248.1993
 10
29.3815
 20
248.3702
 10
28.9561
 20
248.5413
 10
28.5128
 20
248.7122
 10
28.0515
 20
248.8823
 10
27.5722
 20
249.0512
 10
27.0749
 20
249.2184
 10
26.7276
 20
249.2259
 10
22.7081
 20
244.6161
 10
22.7629
 20
244.2731
 10
22.99630000000001
 20
243.8031
 10
23.2289
 20
243.3513
 10
23.4603
 20
242.9175
 10
23.68989999999999
 20
242.5016
 10
23.9174
 20
242.1035
 10
24.1422
 20
241.723
 10
24.3639
 20
241.3599
 10
24.5821
 20
241.0141
 10
24.7962
 20
240.6853
 10
25.00579999999999
 20
240.3735
 10
25.2105
 20
240.0783
 10
25.4098
 20
239.7996
 10
25.60339999999999
 20
239.5372
 10
25.7907
 20
239.2907
 10
25.9714
 20
239.0601
 10
26.145
 20
238.845
 10
26.3112
 20
238.6451
 10
26.4694
 20
238.4603
 10
26.6194
 20
238.2902
 10
26.7607
 20
238.1346
 10
26.893
 20
237.9931
 10
27.0158
 20
237.8655
 10
27.1288
 20
237.7514
 10
27.2317
 20
237.6506
 10
27.324
 20
237.5627
 10
27.4054
 20
237.4874
 10
27.4756
 20
237.4244
 10
27.5342
 20
237.3732
 10
27.581
 20
237.3336
 10
27.6155
 20
237.3052
 10
27.6375
 20
237.2877
 10
32.3629
 20
233.7044
 10
27.3575
 20
226.1667
 10
22.2216
 20
229.1317
 10
22.1968
 20
229.1452
 10
22.15730000000001
 20
229.166
 10
22.1027
 20
229.1937
 10
22.03279999999999
 20
229.2279
 10
21.9474
 20
229.2681
 10
21.8464
 20
229.3139
 10
21.7296
 20
229.3649
 10
21.5968
 20
229.4206
 10
21.4478
 20
229.4805
 10
21.2825
 20
229.5442
 10
21.10080000000001
 20
229.6112
 10
20.90260000000001
 20
229.6811
 10
20.6876
 20
229.7533
 10
20.4558
 20
229.8275
 10
20.2072
 20
229.9031
 10
19.94159999999999
 20
229.9797
 10
19.6589
 20
230.0567
 10
19.3591
 20
230.1338
 10
19.0421
 20
230.2103
 10
18.7079
 20
230.2859
 10
18.35639999999999
 20
230.3601
 10
17.9877
 20
230.4323
 10
17.6016
 20
230.5021
 10
17.1983
 20
230.569
 10
16.77760000000001
 20
230.6324
 10
16.33969999999999
 20
230.692
 10
15.8845
 20
230.7472
 10
15.4121
 20
230.7975
 10
14.9225
 20
230.8425
 10
14.4158
 20
230.8816
 10
13.8921
 20
230.9144
 10
13.5547
 20
230.8318
 10
10.86539999999999
 20
225.3387
 10
11.00700000000001
 20
225.0215
 10
11.3541
 20
224.628
 10
11.6957
 20
224.2517
 10
12.03149999999999
 20
223.8926
 10
12.361
 20
223.5504
 10
12.6837
 20
223.2247
 10
12.99939999999999
 20
222.9153
 10
13.3075
 20
222.622
 10
13.60769999999999
 20
222.3444
 10
13.89960000000001
 20
222.0823
 10
14.1828
 20
221.8353
 10
14.4569
 20
221.6032
 10
14.7216
 20
221.3856
 10
14.9765
 20
221.1822
 10
15.2212
 20
220.9926
 10
15.4554
 20
220.8166
 10
15.6788
 20
220.6537
 10
15.89100000000001
 20
220.5037
 10
16.0917
 20
220.3661
 10
16.28060000000001
 20
220.2407
 10
16.45740000000001
 20
220.1269
 10
16.62179999999999
 20
220.0245
 10
16.7735
 20
219.933
 10
16.9121
 20
219.8521
 10
17.0376
 20
219.7813
 10
17.1495
 20
219.7203
 10
17.24760000000001
 20
219.6687
 10
17.3317
 20
219.6259
 10
17.4016
 20
219.5917
 10
17.45699999999999
 20
219.5655
 10
17.49769999999999
 20
219.547
 10
17.5235
 20
219.5358
 10
23.0153
 20
217.2976
 10
20.1314
 20
208.7212
 10
14.40300000000001
 20
210.256
 10
14.37569999999999
 20
210.2626
 10
14.3321
 20
210.2724
 10
14.27209999999999
 20
210.2851
 10
14.19580000000001
 20
210.3
 10
14.10290000000001
 20
210.3168
 10
13.9935
 20
210.3349
 10
13.86750000000001
 20
210.3539
 10
13.7248
 20
210.3733
 10
13.5654
 20
210.3926
 10
13.3892
 20
210.4114
 10
13.1964
 20
210.4291
 10
12.9868
 20
210.4452
 10
12.7604
 20
210.4594
 10
12.51739999999999
 20
210.4711
 10
12.2576
 20
210.4797
 10
11.9813
 20
210.4849
 10
11.6883
 20
210.4862
 10
11.37869999999999
 20
210.483
 10
11.0527
 20
210.4749
 10
10.71040000000001
 20
210.4615
 10
10.35169999999999
 20
210.4421
 10
9.976799999999997
 20
210.4164
 10
9.585800000000006
 20
210.3839
 10
9.178899999999999
 20
210.3441
 10
8.756200000000007
 20
210.2966
 10
8.317700000000002
 20
210.2408
 10
7.863799999999998
 20
210.1763
 10
7.394400000000005
 20
210.1026
 10
6.909899999999993
 20
210.0193
 10
6.410399999999996
 20
209.926
 10
5.896000000000001
 20
209.8221
 10
5.591499999999996
 20
209.655
 10
4.415499999999994
 20
203.653
 10
4.634399999999999
 20
203.3833
 10
5.0715
 20
203.093
 10
5.498900000000006
 20
202.818
 10
5.916200000000003
 20
202.558
 10
6.322999999999993
 20
202.3127
 10
6.718999999999994
 20
202.0817
 10
7.103999999999999
 20
201.8645
 10
7.477500000000006
 20
201.6609
 10
7.839399999999998
 20
201.4705
 10
8.189099999999996
 20
201.2929
 10
8.526600000000002
 20
201.1276
 10
8.851500000000001
 20
200.9743
 10
9.163499999999999
 20
200.8327
 10
9.462299999999999
 20
200.7021
 10
9.747699999999995
 20
200.5824
 10
10.01949999999999
 20
200.473
 10
10.2775
 20
200.3735
 10
10.5213
 20
200.2835
 10
10.7508
 20
200.2026
 10
10.9657
 20
200.1303
 10
11.16589999999999
 20
200.0661
 10
11.35120000000001
 20
200.0098
 10
11.5214
 20
199.9606
 10
11.6763
 20
199.9184
 10
11.81570000000001
 20
199.8825
 10
11.9396
 20
199.8525
 10
12.0478
 20
199.828
 10
12.1401
 20
199.8085
 10
12.21639999999999
 20
199.7935
 10
12.27670000000001
 20
199.7826
 10
12.32080000000001
 20
199.7753
 10
12.3486
 20
199.771
 10
18.23260000000001
 20
199.0305
 10
17.66670000000001
 20
190
 10
11.7363
 20
189.9999
 10
11.7081
 20
189.9991
 10
11.6635
 20
189.9974
 10
11.6023
 20
189.9941
 10
11.5247
 20
189.9887
 10
11.4307
 20
189.9809
 10
11.3203
 20
189.9701
 10
11.1936
 20
189.9558
 10
11.0508
 20
189.9376
 10
10.8918
 20
189.915
 10
10.71680000000001
 20
189.8875
 10
10.526
 20
189.8547
 10
10.3193
 20
189.8161
 10
10.09699999999999
 20
189.7712
 10
9.859200000000001
 20
189.7195
 10
9.606099999999998
 20
189.6607
 10
9.337800000000001
 20
189.5942
 10
9.054500000000004
 20
189.5196
 10
8.756299999999996
 20
189.4364
 10
8.4435
 20
189.3442
 10
8.116299999999995
 20
189.2426
 10
7.774799999999999
 20
189.1311
 10
7.419399999999996
 20
189.0092
 10
7.0501
 20
188.8766
 10
6.667400000000001
 20
188.7329
 10
6.271299999999997
 20
188.5775
 10
5.862300000000005
 20
188.4102
 10
5.4405
 20
188.2304
 10
5.006200000000007
 20
188.0377
 10
4.559700000000007
 20
187.8319
 10
4.101399999999998
 20
187.6124
 10
3.631399999999999
 20
187.379
 10
3.380600000000001
 20
187.1387
 10
3.798100000000005
 20
181.0369
 10
4.079300000000003
 20
180.833
 10
4.576700000000002
 20
180.6657
 10
5.060599999999994
 20
180.5107
 10
5.531000000000006
 20
180.3676
 10
5.987399999999994
 20
180.236
 10
6.4298
 20
180.1153
 10
6.857900000000001
 20
180.0052
 10
7.2714
 20
179.9052
 10
7.670100000000005
 20
179.8149
 10
8.054000000000002
 20
179.7339
 10
8.422700000000006
 20
179.6616
 10
8.776200000000003
 20
179.5976
 10
9.114199999999997
 20
179.5415
 10
9.436599999999999
 20
179.4928
 10
9.743399999999994
 20
179.451
 10
10.0342
 20
179.4157
 10
10.3091
 20
179.3863
 10
10.56789999999999
 20
179.3625
 10
10.8105
 20
179.3437
 10
11.0368
 20
179.3295
 10
11.24679999999999
 20
179.3194
 10
11.4404
 20
179.3129
 10
11.6174
 20
179.3095
 10
11.77800000000001
 20
179.3087
 10
11.922
 20
179.3102
 10
12.04940000000001
 20
179.3133
 10
12.16030000000001
 20
179.3176
 10
12.25449999999999
 20
179.3227
 10
12.3321
 20
179.328
 10
12.3931
 20
179.333
 10
12.4376
 20
179.3373
 10
12.46559999999999
 20
179.3404
 10
18.3407
 20
180.148
 10
20.1314
 20
171.2788
 10
14.40309999999999
 20
169.7437
 10
14.37609999999999
 20
169.7358
 10
14.3334
 20
169.7225
 10
14.2752
 20
169.7034
 10
14.2016
 20
169.6782
 10
14.11279999999999
 20
169.6463
 10
14.009
 20
169.6073
 10
13.8903
 20
169.5607
 10
13.75709999999999
 20
169.5062
 10
13.60939999999999
 20
169.4432
 10
13.44750000000001
 20
169.3714
 10
13.27160000000001
 20
169.2903
 10
13.08199999999999
 20
169.1995
 10
12.8789
 20
169.0986
 10
12.6626
 20
168.9871
 10
12.4333
 20
168.8648
 10
12.1913
 20
168.7311
 10
11.937
 20
168.5857
 10
11.6705
 20
168.4282
 10
11.3922
 20
168.2582
 10
11.1024
 20
168.0753
 10
10.8015
 20
167.8792
 10
10.4897
 20
167.6695
 10
10.1673
 20
167.4459
 10
9.834800000000001
 20
167.208
 10
9.492500000000007
 20
166.9554
 10
9.140699999999995
 20
166.6879
 10
8.779799999999994
 20
166.405
 10
8.410200000000003
 20
166.1066
 10
8.032200000000003
 20
165.7922
 10
7.646299999999997
 20
165.4616
 10
7.252799999999993
 20
165.1144
 10
7.072599999999994
 20
164.8174
 10
9.055199999999999
 20
159.0316
 10
9.379599999999996
 20
158.9075
 10
9.903300000000002
 20
158.8746
 10
10.4109
 20
158.8502
 10
10.90219999999999
 20
158.8337
 10
11.3772
 20
158.8246
 10
11.8357
 20
158.8225
 10
12.2777
 20
158.827
 10
12.703
 20
158.8374
 10
13.11150000000001
 20
158.8534
 10
13.5033
 20
158.8745
 10
13.87820000000001
 20
158.9001
 10
14.23609999999999
 20
158.9298
 10
14.5772
 20
158.9631
 10
14.9012
 20
158.9995
 10
15.20829999999999
 20
159.0385
 10
15.4984
 20
159.0796
 10
15.7715
 20
159.1224
 10
16.02760000000001
 20
159.1664
 10
16.2668
 20
159.2111
 10
16.48909999999999
 20
159.2559
 10
16.69459999999999
 20
159.3005
 10
16.8832
 20
159.3443
 10
17.0552
 20
159.3869
 10
17.2105
 20
159.4277
 10
17.3492
 20
159.4664
 10
17.47150000000001
 20
159.5023
 10
17.5774
 20
159.5352
 10
17.6671
 20
159.5645
 10
17.7407
 20
159.5897
 10
17.7984
 20
159.6103
 10
17.8402
 20
159.626
 10
17.8664
 20
159.6363
 10
23.3323
 20
161.937
 10
27.3575
 20
153.8333
 10
22.2217
 20
150.868
 10
22.1977
 20
150.8533
 10
22.15989999999999
 20
150.8295
 10
22.1086
 20
150.796
 10
22.044
 20
150.7526
 10
21.9665
 20
150.6988
 10
21.8763
 20
150.6342
 10
21.77379999999999
 20
150.5586
 10
21.6592
 20
150.4714
 10
21.53279999999999
 20
150.3723
 10
21.395
 20
150.261
 10
21.2461
 20
150.1372
 10
21.0865
 20
150.0004
 10
20.9164
 20
149.8504
 10
20.7363
 20
149.6867
 10
20.54649999999999
 20
149.5092
 10
20.34739999999999
 20
149.3175
 10
20.13930000000001
 20
149.1112
 10
19.92270000000001
 20
148.8901
 10
19.6979
 20
148.6538
 10
19.4653
 20
148.4022
 10
19.22539999999999
 20
148.1349
 10
18.97839999999999
 20
147.8516
 10
18.72499999999999
 20
147.5522
 10
18.4654
 20
147.2363
 10
18.20010000000001
 20
146.9038
 10
17.9295
 20
146.5543
 10
17.6541
 20
146.1877
 10
17.37430000000001
 20
145.8037
 10
17.09059999999999
 20
145.4022
 10
16.8034
 20
144.983
 10
16.5132
 20
144.5458
 10
16.416
 20
144.2123
 10
19.82850000000001
 20
139.1367
 10
20.17400000000001
 20
139.1008
 10
20.6884
 20
139.2046
 10
21.185
 20
139.3124
 10
21.6639
 20
139.4236
 10
22.125
 20
139.5378
 10
22.5684
 20
139.6545
 10
22.99420000000001
 20
139.7732
 10
23.4023
 20
139.8933
 10
23.7928
 20
140.0145
 10
24.1657
 20
140.1363
 10
24.52119999999999
 20
140.258
 10
24.8593
 20
140.3794
 10
25.1801
 20
140.4998
 10
25.4837
 20
140.6188
 10
25.7702
 20
140.736
 10
26.0398
 20
140.8508
 10
26.2925
 20
140.9628
 10
26.5285
 20
141.0716
 10
26.748
 20
141.1766
 10
26.9511
 20
141.2775
 10
27.138
 20
141.3737
 10
27.3089
 20
141.4648
 10
27.464
 20
141.5505
 10
27.6034
 20
141.6301
 10
27.7274
 20
141.7034
 10
27.8362
 20
141.7698
 10
27.93
 20
141.8289
 10
28.0091
 20
141.8804
 10
28.0736
 20
141.9238
 10
28.124
 20
141.9587
 10
28.1603
 20
141.9847
 10
28.183
 20
142.0014
 10
32.8672
 20
145.6383
 10
38.8526
 20
138.8526
 10
34.6593
 20
134.6591
 10
34.6399
 20
134.6387
 10
34.6096
 20
134.6059
 10
34.5687
 20
134.5603
 10
34.5176
 20
134.5016
 10
34.4566
 20
134.4296
 10
34.3862
 20
134.3439
 10
34.3067
 20
134.2442
 10
34.2186
 20
134.1304
 10
34.1222
 20
134.002
 10
34.0179
 20
133.8588
 10
33.9061
 20
133.7007
 10
33.7873
 20
133.5272
 10
33.6619
 20
133.3383
 10
33.5302
 20
133.1336
 10
33.3929
 20
132.913
 10
33.2502
 20
132.6763
 10
33.1026
 20
132.4231
 10
32.9506
 20
132.1535
 10
32.7946
 20
131.8671
 10
32.635
 20
131.5639
 10
32.4724
 20
131.2436
 10
32.3072
 20
130.9061
 10
32.1399
 20
130.5512
 10
31.9709
 20
130.1789
 10
31.8007
 20
129.789
 10
31.6298
 20
129.3815
 10
31.4587
 20
128.9561
 10
31.2878
 20
128.5128
 10
31.1177
 20
128.0515
 10
30.9488
 20
127.5722
 10
30.7816
 20
127.0749
 10
30.7741
 20
126.7276
 10
35.3839
 20
122.7081
 10
35.7269
 20
122.7629
 10
36.1969
 20
122.9963
 10
36.6487
 20
123.2289
 10
37.0825
 20
123.4603
 10
37.4984
 20
123.6899
 10
37.8965
 20
123.9174
 10
38.277
 20
124.1422
 10
38.6401
 20
124.3639
 10
38.9859
 20
124.5821
 10
39.3147
 20
124.7962
 10
39.6265
 20
125.0058
 10
39.9217
 20
125.2105
 10
40.2004
 20
125.4098
 10
40.4628
 20
125.6034
 10
40.7093
 20
125.7907
 10
40.9399
 20
125.9714
 10
41.155
 20
126.145
 10
41.3549
 20
126.3112
 10
41.5397
 20
126.4694
 10
41.7098
 20
126.6194
 10
41.8654
 20
126.7607
 10
42.0069
 20
126.893
 10
42.1345
 20
127.0158
 10
42.2486
 20
127.1288
 10
42.3494
 20
127.2317
 10
42.4373
 20
127.324
 10
42.5126
 20
127.4054
 10
42.5756
 20
127.4756
 10
42.6268
 20
127.5342
 10
42.6664
 20
127.581
 10
42.6948
 20
127.6155
 10
42.7123
 20
127.6375
 10
46.2956
 20
132.3629
 10
53.8333
 20
127.3575
 10
50.8683
 20
122.2216
 10
50.8548
 20
122.1968
 10
50.834
 20
122.1573
 10
50.8063
 20
122.1027
 10
50.7721
 20
122.0328
 10
50.7319
 20
121.9474
 10
50.6861
 20
121.8464
 10
50.6351
 20
121.7296
 10
50.5794
 20
121.5968
 10
50.5195
 20
121.4478
 10
50.4558
 20
121.2825
 10
50.3888
 20
121.1008
 10
50.3189
 20
120.9026
 10
50.2467
 20
120.6876
 10
50.1725
 20
120.4558
 10
50.0969
 20
120.2072
 10
50.0203
 20
119.9416
 10
49.9433
 20
119.6589
 10
49.8662
 20
119.3591
 10
49.7897
 20
119.0421
 10
49.7141
 20
118.7079
 10
49.6399
 20
118.3564
 10
49.5677
 20
117.9877
 10
49.4979
 20
117.6016
 10
49.431
 20
117.1983
 10
49.3676
 20
116.7776
 10
49.308
 20
116.3397
 10
49.2528
 20
115.8845
 10
49.2025
 20
115.4121
 10
49.1575
 20
114.9225
 10
49.1184
 20
114.4158
 10
49.0856
 20
113.8921
 10
49.1682
 20
113.5547
 10
54.6613
 20
110.8654
 10
54.9785
 20
111.007
 10
55.372
 20
111.3541
 10
55.7483
 20
111.6957
 10
56.1074
 20
112.0315
 10
56.4496
 20
112.361
 10
56.7753
 20
112.6837
 10
57.0847
 20
112.9994
 10
57.378
 20
113.3075
 10
57.6556
 20
113.6077
 10
57.9177
 20
113.8996
 10
58.1647
 20
114.1828
 10
58.3968
 20
114.4569
 10
58.6144
 20
114.7216
 10
58.8178
 20
114.9765
 10
59.0074
 20
115.2212
 10
59.1834
 20
115.4554
 10
59.3463
 20
115.6788
 10
59.49630000000001
 20
115.891
 10
59.6339
 20
116.0917
 10
59.7593
 20
116.2806
 10
59.8731
 20
116.4574
 10
59.9755
 20
116.6218
 10
60.067
 20
116.7735
 10
60.1479
 20
116.9121
 10
60.2187
 20
117.0376
 10
60.2797
 20
117.1495
 10
60.3313
 20
117.2476
 10
60.3741
 20
117.3317
 10
60.4083
 20
117.4016
 10
60.4345
 20
117.457
 10
60.453
 20
117.4977
 10
60.46420000000001
 20
117.5235
 10
62.7024
 20
123.0153
 10
71.2788
 20
120.1314
 10
69.744
 20
114.403
 10
69.73740000000001
 20
114.3757
 10
69.7276
 20
114.3321
 10
69.7149
 20
114.2721
 10
69.7
 20
114.1958
 10
69.6832
 20
114.1029
 10
69.6651
 20
113.9935
 10
69.6461
 20
113.8675
 10
69.6267
 20
113.7248
 10
69.6074
 20
113.5654
 10
69.5886
 20
113.3892
 10
69.57089999999999
 20
113.1964
 10
69.5548
 20
112.9868
 10
69.5406
 20
112.7604
 10
69.52889999999999
 20
112.5174
 10
69.52029999999999
 20
112.2576
 10
69.5151
 20
111.9813
 10
69.5138
 20
111.6883
 10
69.517
 20
111.3787
 10
69.52509999999999
 20
111.0527
 10
69.5385
 20
110.7104
 10
69.5579
 20
110.3517
 10
69.5836
 20
109.9768
 10
69.6161
 20
109.5858
 10
69.6559
 20
109.1789
 10
69.7034
 20
108.7562
 10
69.75919999999999
 20
108.3177
 10
69.8237
 20
107.8638
 10
69.8974
 20
107.3944
 10
69.9807
 20
106.9099
 10
70.074
 20
106.4104
 10
70.17789999999999
 20
105.896
 10
70.345
 20
105.5915
 10
76.34700000000001
 20
104.4155
 10
76.61670000000001
 20
104.6344
 10
76.907
 20
105.0715
 10
77.182
 20
105.4989
 10
77.44200000000001
 20
105.9162
 10
77.68729999999999
 20
106.323
 10
77.9183
 20
106.719
 10
78.13550000000001
 20
107.104
 10
78.3391
 20
107.4775
 10
78.5295
 20
107.8394
 10
78.7071
 20
108.1891
 10
78.8724
 20
108.5266
 10
79.0257
 20
108.8515
 10
79.1673
 20
109.1635
 10
79.2979
 20
109.4623
 10
79.41759999999999
 20
109.7477
 10
79.527
 20
110.0195
 10
79.62649999999999
 20
110.2775
 10
79.7165
 20
110.5213
 10
79.7974
 20
110.7508
 10
79.86969999999999
 20
110.9657
 10
79.93389999999999
 20
111.1659
 10
79.9902
 20
111.3512
 10
80.0394
 20
111.5214
 10
80.08160000000001
 20
111.6763
 10
80.11750000000001
 20
111.8157
 10
80.14750000000001
 20
111.9396
 10
80.172
 20
112.0478
 10
80.19149999999999
 20
112.1401
 10
80.20650000000001
 20
112.2164
 10
80.2174
 20
112.2767
 10
80.2247
 20
112.3208
 10
80.229
 20
112.3486
 10
80.9695
 20
118.2326
 10
90
 20
117.6667
 10
90.0001
 20
111.7363
 10
90.0009
 20
111.7081
 10
90.0026
 20
111.6635
 10
90.0059
 20
111.6023
 10
90.01130000000001
 20
111.5247
 10
90.01910000000001
 20
111.4307
 10
90.0299
 20
111.3203
 10
90.04419999999999
 20
111.1936
 10
90.0624
 20
111.0508
 10
90.08500000000001
 20
110.8918
 10
90.1125
 20
110.7168
 10
90.14529999999999
 20
110.526
 10
90.18389999999999
 20
110.3193
 10
90.22880000000001
 20
110.097
 10
90.2805
 20
109.8592
 10
90.33930000000001
 20
109.6061
 10
90.4058
 20
109.3378
 10
90.4804
 20
109.0545
 10
90.56360000000001
 20
108.7563
 10
90.6558
 20
108.4435
 10
90.75739999999999
 20
108.1163
 10
90.8689
 20
107.7748
 10
90.99080000000001
 20
107.4194
 10
91.1234
 20
107.0501
 10
91.2671
 20
106.6674
 10
91.4225
 20
106.2713
 10
91.5898
 20
105.8623
 10
91.7696
 20
105.4405
 10
91.9623
 20
105.0062
 10
92.16810000000001
 20
104.5597
 10
92.38759999999999
 20
104.1014
 10
92.62100000000001
 20
103.6314
 10
92.8613
 20
103.3806
 10
98.9631
 20
103.7981
 10
99.167
 20
104.0793
 10
99.3343
 20
104.5767
 10
99.4893
 20
105.0606
 10
99.6324
 20
105.531
 10
99.764
 20
105.9874
 10
99.88470000000001
 20
106.4298
 10
99.9948
 20
106.8579
 10
100.0948
 20
107.2714
 10
100.1851
 20
107.6701
 10
100.2661
 20
108.054
 10
100.3384
 20
108.4227
 10
100.4024
 20
108.7762
 10
100.4585
 20
109.1142
 10
100.5072
 20
109.4366
 10
100.549
 20
109.7434
 10
100.5843
 20
110.0342
 10
100.6137
 20
110.3091
 10
100.6375
 20
110.5679
 10
100.6563
 20
110.8105
 10
100.6705
 20
111.0368
 10
100.6806
 20
111.2468
 10
100.6871
 20
111.4404
 10
100.6905
 20
111.6174
 10
100.6913
 20
111.778
 10
100.6898
 20
111.922
 10
100.6867
 20
112.0494
 10
100.6824
 20
112.1603
 10
100.6773
 20
112.2545
 10
100.672
 20
112.3321
 10
100.667
 20
112.3931
 10
100.6627
 20
112.4376
 10
100.6596
 20
112.4656
 10
99.852
 20
118.3407
 10
108.7212
 20
120.1314
 10
110.2563
 20
114.4031
 10
110.2642
 20
114.3761
 10
110.2775
 20
114.3334
 10
110.2966
 20
114.2752
 10
110.3218
 20
114.2016
 10
110.3537
 20
114.1128
 10
110.3927
 20
114.009
 10
110.4393
 20
113.8903
 10
110.4938
 20
113.7571
 10
110.5568
 20
113.6094
 10
110.6286
 20
113.4475
 10
110.7097
 20
113.2716
 10
110.8005
 20
113.082
 10
110.9014
 20
112.8789
 10
111.0129
 20
112.6626
 10
111.1352
 20
112.4333
 10
111.2689
 20
112.1913
 10
111.4143
 20
111.937
 10
111.5718
 20
111.6705
 10
111.7418
 20
111.3922
 10
111.9247
 20
111.1024
 10
112.1208
 20
110.8015
 10
112.3305
 20
110.4897
 10
112.5541
 20
110.1673
 10
112.792
 20
109.8348
 10
113.0446
 20
109.4925
 10
113.3121
 20
109.1407
 10
113.595
 20
108.7798
 10
113.8934
 20
108.4102
 10
114.2078
 20
108.0322
 10
114.5384
 20
107.6463
 10
114.8856
 20
107.2528
 10
115.1826
 20
107.0726
 10
120.9684
 20
109.0552
 10
121.0925
 20
109.3796
 10
121.1254
 20
109.9033
 10
121.1498
 20
110.4109
 10
121.1663
 20
110.9022
 10
121.1754
 20
111.3772
 10
121.1775
 20
111.8357
 10
121.173
 20
112.2777
 10
121.1626
 20
112.703
 10
121.1466
 20
113.1115
 10
121.1255
 20
113.5033
 10
121.0999
 20
113.8782
 10
121.0702
 20
114.2361
 10
121.0369
 20
114.5772
 10
121.0005
 20
114.9012
 10
120.9615
 20
115.2083
 10
120.9204
 20
115.4984
 10
120.8776
 20
115.7715
 10
120.8336
 20
116.0276
 10
120.7889
 20
116.2668
 10
120.7441
 20
116.4891
 10
120.6995
 20
116.6946
 10
120.6557
 20
116.8832
 10
120.6131
 20
117.0552
 10
120.5723
 20
117.2105
 10
120.5336
 20
117.3492
 10
120.4977
 20
117.4715
 10
120.4648
 20
117.5774
 10
120.4355
 20
117.6671
 10
120.4103
 20
117.7407
 10
120.3897
 20
117.7984
 10
120.374
 20
117.8402
 10
120.3637
 20
117.8664
 10
118.063
 20
123.3323
 10
126.1667
 20
127.3575
 10
129.132
 20
122.2217
 10
129.1467
 20
122.1977
 10
129.1705
 20
122.1599
 10
129.204
 20
122.1086
 10
129.2474
 20
122.044
 10
129.3012
 20
121.9665
 10
129.3658
 20
121.8763
 10
129.4414
 20
121.7738
 10
129.5286
 20
121.6592
 10
129.6277
 20
121.5328
 10
129.739
 20
121.395
 10
129.8628
 20
121.2461
 10
129.9996
 20
121.0865
 10
130.1496
 20
120.9164
 10
130.3133
 20
120.7363
 10
130.4908
 20
120.5465
 10
130.6825
 20
120.3474
 10
130.8888
 20
120.1393
 10
131.1099
 20
119.9227
 10
131.3462
 20
119.6979
 10
131.5978
 20
119.4653
 10
131.8651
 20
119.2254
 10
132.1484
 20
118.9784
 10
132.4478
 20
118.725
 10
132.7637
 20
118.4654
 10
133.0962
 20
118.2001
 10
133.4457
 20
117.9295
 10
133.8123
 20
117.6541
 10
134.1963
 20
117.3743
 10
134.5978
 20
117.0906
 10
135.017
 20
116.8034
 10
135.4542
 20
116.5132
 10
135.7877
 20
116.416
 10
140.8633
 20
119.8285
 10
140.8992
 20
120.174
 10
140.7954
 20
120.6884
 10
140.6876
 20
121.185
 10
140.5764
 20
121.6639
 10
140.4622
 20
122.125
 10
140.3455
 20
122.5684
 10
140.2268
 20
122.9942
 10
140.1067
 20
123.4023
 10
139.9855
 20
123.7928
 10
139.8637
 20
124.1657
 10
139.742
 20
124.5212
 10
139.6206
 20
124.8593
 10
139.5002
 20
125.1801
 10
139.3812
 20
125.4837
 10
139.264
 20
125.7702
 10
139.1492
 20
126.0398
 10
139.0372
 20
126.2925
 10
138.9284
 20
126.5285
 10
138.8234
 20
126.748
 10
138.7225
 20
126.9511
 10
138.6263
 20
127.138
 10
138.5352
 20
127.3089
 10
138.4495
 20
127.464
 10
138.3699
 20
127.6034
 10
138.2966
 20
127.7274
 10
138.2302
 20
127.8362
 10
138.1711
 20
127.93
 10
138.1196
 20
128.0091
 10
138.0762
 20
128.0736
 10
138.0413
 20
128.124
 10
138.0153
 20
128.1603
 10
137.9986
 20
128.183
 10
134.3617
 20
132.8672
 10
141.1474
 20
138.8526
 10
145.3409
 20
134.6593
 10
145.3613
 20
134.6399
 10
145.3941
 20
134.6096
 10
145.4397
 20
134.5687
 10
145.4984
 20
134.5176
 10
145.5704
 20
134.4566
 10
145.6561
 20
134.3862
 10
145.7558
 20
134.3067
 10
145.8696
 20
134.2186
 10
145.998
 20
134.1222
 10
146.1412
 20
134.0179
 10
146.2993
 20
133.9061
 10
146.4728
 20
133.7873
 10
146.6617
 20
133.6619
 10
146.8664
 20
133.5302
 10
147.087
 20
133.3929
 10
147.3237
 20
133.2502
 10
147.5769
 20
133.1026
 10
147.8465
 20
132.9506
 10
148.1329
 20
132.7946
 10
148.4361
 20
132.635
 10
148.7564
 20
132.4724
 10
149.0939
 20
132.3072
 10
149.4488
 20
132.1399
 10
149.8211
 20
131.9709
 10
150.211
 20
131.8007
 10
150.6185
 20
131.6298
 10
151.0439
 20
131.4587
 10
151.4872
 20
131.2878
 10
151.9485
 20
131.1177
 10
152.4278
 20
130.9488
 10
152.9251
 20
130.7816
 10
153.2724
 20
130.7741
 10
157.2919
 20
135.3839
 10
157.2371
 20
135.7269
 10
157.0037
 20
136.1969
 10
156.7711
 20
136.6487
 10
156.5397
 20
137.0825
 10
156.3101
 20
137.4984
 10
156.0826
 20
137.8965
 10
155.8578
 20
138.277
 10
155.6361
 20
138.6401
 10
155.4179
 20
138.9859
 10
155.2038
 20
139.3147
 10
154.9942
 20
139.6265
 10
154.7895
 20
139.9217
 10
154.5902
 20
140.2004
 10
154.3966
 20
140.4628
 10
154.2093
 20
140.7093
 10
154.0286
 20
140.9399
 10
153.855
 20
141.155
 10
153.6888
 20
141.3549
 10
153.5306
 20
141.5397
 10
153.3806
 20
141.7098
 10
153.2393
 20
141.8654
 10
153.107
 20
142.0069
 10
152.9842
 20
142.1345
 10
152.8712
 20
142.2486
 10
152.7683
 20
142.3494
 10
152.676
 20
142.4373
 10
152.5946
 20
142.5126
 10
152.5244
 20
142.5756
 10
152.4658
 20
142.6268
 10
152.419
 20
142.6664
 10
152.3845
 20
142.6948
 10
152.3625
 20
142.7123
 10
147.6371
 20
146.2956
 10
152.6425
 20
153.8333
 10
157.7784
 20
150.8683
 10
157.8032
 20
150.8548
 10
157.8427
 20
150.834
 10
157.8973
 20
150.8063
 10
157.9672
 20
150.7721
 10
158.0526
 20
150.7319
 10
158.1536
 20
150.6861
 10
158.2704
 20
150.6351
 10
158.4032
 20
150.5794
 10
158.5522
 20
150.5195
 10
158.7175
 20
150.4558
 10
158.8992
 20
150.3888
 10
159.0974
 20
150.3189
 10
159.3124
 20
150.2467
 10
159.5442
 20
150.1725
 10
159.7928
 20
150.0969
 10
160.0584
 20
150.0203
 10
160.3411
 20
149.9433
 10
160.6409
 20
149.8662
 10
160.9579
 20
149.7897
 10
161.2921
 20
149.7141
 10
161.6436
 20
149.6399
 10
162.0123
 20
149.5677
 10
162.3984
 20
149.4979
 10
162.8017
 20
149.431
 10
163.2224
 20
149.3676
 10
163.6603
 20
149.308
 10
164.1155
 20
149.2528
 10
164.5879
 20
149.2025
 10
165.0775
 20
149.1575
 10
165.5842
 20
149.1184
 10
166.1079
 20
149.0856
 10
166.4453
 20
149.1682
 10
169.1346
 20
154.6613
 10
168.993
 20
154.9785
 10
168.6459
 20
155.372
 10
168.3043
 20
155.7483
 10
167.9685
 20
156.1074
 10
167.639
 20
156.4496
 10
167.3163
 20
156.7753
 10
167.0006
 20
157.0847
 10
166.6925
 20
157.378
 10
166.3923
 20
157.6556
 10
166.1004
 20
157.9177
 10
165.8172
 20
158.1647
 10
165.5431
 20
158.3968
 10
165.2784
 20
158.6144
 10
165.0235
 20
158.8178
 10
164.7788
 20
159.0074
 10
164.5446
 20
159.1834
 10
164.3212
 20
159.3463
 10
164.109
 20
159.4963
 10
163.9083
 20
159.6339
 10
163.7194
 20
159.7593
 10
163.5426
 20
159.8731
 10
163.3782
 20
159.9755
 10
163.2265
 20
160.067
 10
163.0879
 20
160.1479
 10
162.9624
 20
160.2187
 10
162.8505
 20
160.2797
 10
162.7524
 20
160.3313
 10
162.6683
 20
160.3741
 10
162.5984
 20
160.4083
 10
162.543
 20
160.4345
 10
162.5023
 20
160.453
 10
162.4765
 20
160.4642
 10
156.9847
 20
162.7024
 10
159.8686
 20
171.2788
 10
165.597
 20
169.744
 10
165.6243
 20
169.7374
 10
165.6679
 20
169.7276
 10
165.7279
 20
169.7149
 10
165.8042
 20
169.7
 10
165.8971
 20
169.6832
 10
166.0065
 20
169.6651
 10
166.1325
 20
169.6461
 10
166.2752
 20
169.6267
 10
166.4346
 20
169.6074
 10
166.6108
 20
169.5886
 10
166.8036
 20
169.5709
 10
167.0132
 20
169.5548
 10
167.2396
 20
169.5406
 10
167.4826
 20
169.5289
 10
167.7424
 20
169.5203
 10
168.0187
 20
169.5151
 10
168.3117
 20
169.5138
 10
168.6213
 20
169.517
 10
168.9473
 20
169.5251
 10
169.2896
 20
169.5385
 10
169.6483
 20
169.5579
 10
170.0232
 20
169.5836
 10
170.4142
 20
169.6161
 10
170.8211
 20
169.6559
 10
171.2438
 20
169.7034
 10
171.6823
 20
169.7592
 10
172.1362
 20
169.8237
 10
172.6056
 20
169.8974
 10
173.0901
 20
169.9807
 10
173.5896
 20
170.074
 10
174.104
 20
170.1779
 10
174.4085
 20
170.345
 10
175.5845
 20
176.347
 10
175.3656
 20
176.6167
 10
174.9285
 20
176.907
 10
174.5011
 20
177.182
 10
174.0838
 20
177.442
 10
173.677
 20
177.6873
 10
173.281
 20
177.9183
 10
172.896
 20
178.1355
 10
172.5225
 20
178.3391
 10
172.1606
 20
178.5295
 10
171.8109
 20
178.7071
 10
171.4734
 20
178.8724
 10
171.1485
 20
179.0257
 10
170.8365
 20
179.1673
 10
170.5377
 20
179.2979
 10
170.2523
 20
179.4176
 10
169.9805
 20
179.527
 10
169.7225
 20
179.6265
 10
169.4787
 20
179.7165
 10
169.2492
 20
179.7974
 10
169.0343
 20
179.8697
 10
168.8341
 20
179.9339
 10
168.6488
 20
179.9902
 10
168.4786
 20
180.0394
 10
168.3237
 20
180.0816
 10
168.1843
 20
180.1175
 10
168.0604
 20
180.1475
 10
167.9522
 20
180.172
 10
167.8599
 20
180.1915
 10
167.7836
 20
180.2065
 10
167.7233
 20
180.2174
 10
167.6792
 20
180.2247
 10
167.6514
 20
180.229
 10
161.7674
 20
180.9695
  0
CIRCLE
  5
52
100
AcDbEntity
  8
0
  6
ByLayer
 62
  256
370
   -1
100
AcDbCircle
 10
90
 20
190
 40
8
  0
ENDSEC
  0
SECTION
  2
OBJECTS
  0
DICTIONARY
  5
C
330
0
100
AcDbDictionary
281
    1
  3
ACAD_GROUP
350
D
  0
DICTIONARY
  5
D
330
C
100
AcDbDictionary
281
    1
  0
ENDSEC
  0
EOF
