999
dxfrw 0.6.3
  0
SECTION
  2
HEADER
  9
$ACADVER
  1
AC1021
  9
$DWGCODEPAGE
  3
ANSI_1252
  9
$INSBASE
 10
0
 20
0
 30
0
  9
$EXTMIN
 10
-86.6194
 20
-86.6194
 30
0
  9
$EXTMAX
 10
86.6194
 20
86.6194
 30
0
  9
$LIMMIN
 10
0
 20
0
  9
$LIMMAX
 10
420
 20
297
  9
$ORTHOMODE
 70
    0
  9
$REGENMODE
 70
    1
  9
$FILLMODE
 70
    1
  9
$QTEXTMODE
 70
    0
  9
$MIRRTEXT
 70
    0
  9
$LTSCALE
 40
1
  9
$ATTMODE
 70
    0
  9
$TEXTSIZE
 40
2.5
  9
$TRACEWID
 40
15.68
  9
$TEXTSTYLE
  7
STANDARD
  9
$CLAYER
  8
gear
  9
$CELTYPE
  6
BYLAYER
  9
$CECOLOR
 62
  256
  9
$CELTSCALE
 40
1
  9
$DISPSILH
 70
    0
  9
$DIMSCALE
 40
2.5
  9
$DIMASZ
 40
2.5
  9
$DIMEXO
 40
0.625
  9
$DIMDLI
 40
3.75
  9
$DIMRND
 40
0
  9
$DIMDLE
 40
0
  9
$DIMEXE
 40
1.25
  9
$DIMTP
 40
0
  9
$DIMTM
 40
0
  9
$DIMTXT
 40
2.5
  9
$DIMCEN
 40
2.5
  9
$DIMTSZ
 40
0
  9
$DIMTOL
 70
    0
  9
$DIMLIM
 70
    0
  9
$DIMTIH
 70
    0
  9
$DIMTOH
 70
    0
  9
$DIMSE1
 70
    0
  9
$DIMSE2
 70
    0
  9
$DIMTAD
 70
    1
  9
$DIMZIN
 70
    8
  9
$DIMBLK
  1

  9
$DIMASO
 70
    1
  9
$DIMSHO
 70
    1
  9
$DIMPOST
  1

  9
$DIMAPOST
  1

  9
$DIMALT
 70
    0
  9
$DIMALTD
 70
    3
  9
$DIMALTF
 40
0.03937
  9
$DIMLFAC
 40
1
  9
$DIMTOFL
 70
    1
  9
$DIMTVP
 40
0
  9
$DIMTIX
 70
    0
  9
$DIMSOXD
 70
    0
  9
$DIMSAH
 70
    0
  9
$DIMBLK1
  1

  9
$DIMBLK2
  1

  9
$DIMSTYLE
  2
Standard
  9
$DIMCLRD
 70
    0
  9
$DIMCLRE
 70
    0
  9
$DIMCLRT
 70
    0
  9
$DIMTFAC
 40
1
  9
$DIMGAP
 40
0.625
  9
$DIMJUST
 70
    0
  9
$DIMSD1
 70
    0
  9
$DIMSD2
 70
    0
  9
$DIMTOLJ
 70
    0
  9
$DIMTZIN
 70
    8
  9
$DIMALTZ
 70
    0
  9
$DIMALTTZ
 70
    0
  9
$DIMUPT
 70
    0
  9
$DIMDEC
 70
    2
  9
$DIMTDEC
 70
    2
  9
$DIMALTU
 70
    2
  9
$DIMALTTD
 70
    3
  9
$DIMTXSTY
  7
STANDARD
  9
$DIMAUNIT
 70
    0
  9
$DIMADEC
 70
    0
  9
$DIMALTRND
 40
0
  9
$DIMAZIN
 70
    0
  9
$DIMDSEP
 70
   44
  9
$DIMATFIT
 70
    3
  9
$DIMFRAC
 70
    0
  9
$DIMLDRBLK
  1
STANDARD
  9
$DIMLUNIT
 70
    2
  9
$DIMLWD
 70
   -2
  9
$DIMLWE
 70
   -2
  9
$DIMTMOVE
 70
    0
  9
$DIMFXL
 40
1
  9
$DIMFXLON
 70
    0
  9
$DIMJOGANG
 40
0.7854
  9
$DIMTFILL
 70
    0
  9
$DIMTFILLCLR
 70
    0
  9
$DIMARCSYM
 70
    0
  9
$DIMLTYPE
  6

  9
$DIMLTEX1
  6

  9
$DIMLTEX2
  6

  9
$LUNITS
 70
    2
  9
$LUPREC
 70
    4
  9
$SKETCHINC
 40
1
  9
$FILLETRAD
 40
0
  9
$AUNITS
 70
    0
  9
$AUPREC
 70
    2
  9
$MENU
  1
.
  9
$ELEVATION
 40
0
  9
$PELEVATION
 40
0
  9
$THICKNESS
 40
0
  9
$LIMCHECK
 70
    0
  9
$CHAMFERA
 40
0
  9
$CHAMFERB
 40
0
  9
$CHAMFERC
 40
0
  9
$CHAMFERD
 40
0
  9
$SKPOLY
 70
    0
  9
$USRTIMER
 70
    1
  9
$ANGBASE
 50
0
  9
$ANGDIR
 70
    0
  9
$PDMODE
 70
   34
  9
$PDSIZE
 40
0
  9
$PLINEWID
 40
0
  9
$SPLFRAME
 70
    0
  9
$SPLINETYPE
 70
    2
  9
$SPLINESEGS
 70
    8
  9
$HANDSEED
  5
20000
  9
$SURFTAB1
 70
    6
  9
$SURFTAB2
 70
    6
  9
$SURFTYPE
 70
    6
  9
$SURFU
 70
    6
  9
$SURFV
 70
    6
  9
$UCSBASE
  2

  9
$UCSNAME
  2

  9
$UCSORG
 10
0
 20
0
 30
0
  9
$UCSXDIR
 10
1
 20
0
 30
0
  9
$UCSYDIR
 10
0
 20
1
 30
0
  9
$UCSORTHOREF
  2

  9
$UCSORTHOVIEW
 70
    0
  9
$UCSORGTOP
 10
0
 20
0
 30
0
  9
$UCSORGBOTTOM
 10
0
 20
0
 30
0
  9
$UCSORGLEFT
 10
0
 20
0
 30
0
  9
$UCSORGRIGHT
 10
0
 20
0
 30
0
  9
$UCSORGFRONT
 10
0
 20
0
 30
0
  9
$UCSORGBACK
 10
0
 20
0
 30
0
  9
$PUCSBASE
  2

  9
$PUCSNAME
  2

  9
$PUCSORG
 10
0
 20
0
 30
0
  9
$PUCSXDIR
 10
1
 20
0
 30
0
  9
$PUCSYDIR
 10
0
 20
1
 30
0
  9
$PUCSORTHOREF
  2

  9
$PUCSORTHOVIEW
 70
    0
  9
$PUCSORGTOP
 10
0
 20
0
 30
0
  9
$PUCSORGBOTTOM
 10
0
 20
0
 30
0
  9
$PUCSORGLEFT
 10
0
 20
0
 30
0
  9
$PUCSORGRIGHT
 10
0
 20
0
 30
0
  9
$PUCSORGFRONT
 10
0
 20
0
 30
0
  9
$PUCSORGBACK
 10
0
 20
0
 30
0
  9
$USERI1
 70
    0
  9
$USERI2
 70
    0
  9
$USERI3
 70
    0
  9
$USERI4
 70
    0
  9
$USERI5
 70
    0
  9
$USERR1
 40
0
  9
$USERR2
 40
0
  9
$USERR3
 40
0
  9
$USERR4
 40
0
  9
$USERR5
 40
0
  9
$WORLDVIEW
 70
    1
  9
$SHADEDGE
 70
    3
  9
$SHADEDIF
 70
   70
  9
$TILEMODE
 70
    1
  9
$MAXACTVP
 70
   64
  9
$PINSBASE
 10
0
 20
0
 30
0
  9
$PLIMCHECK
 70
    0
  9
$PEXTMIN
 10
0
 20
0
 30
0
  9
$PEXTMAX
 10
0
 20
0
 30
0
  9
$GRIDMODE
 70
    1
  9
$SNAPSTYLE
 70
    0
  9
$PLIMMIN
 10
0
 20
0
  9
$PLIMMAX
 10
297
 20
210
  9
$UNITMODE
 70
    0
  9
$VISRETAIN
 70
    1
  9
$PLINEGEN
 70
    0
  9
$PSLTSCALE
 70
    1
  9
$TREEDEPTH
 70
 3020
  9
$CMLSTYLE
  2
Standard
  9
$CMLJUST
 70
    0
  9
$CMLSCALE
 40
20
  9
$PROXYGRAPHICS
 70
    1
  9
$MEASUREMENT
 70
    1
  9
$CELWEIGHT
370
   -1
  9
$ENDCAPS
280
    0
  9
$JOINSTYLE
280
    0
  9
$LWDISPLAY
290
    0
  9
$INSUNITS
 70
    4
  9
$HYPERLINKBASE
  1

  9
$STYLESHEET
  1

  9
$XEDIT
290
    1
  9
$CEPSNTYPE
380
    0
  9
$PSTYLEMODE
290
    1
  9
$EXTNAMES
290
    1
  9
$PSVPSCALE
 40
1
  9
$OLESTARTUP
290
    0
  9
$SORTENTS
280
  127
  9
$INDEXCTL
280
    0
  9
$HIDETEXT
280
    1
  9
$XCLIPFRAME
290
    0
  9
$HALOGAP
280
    0
  9
$OBSCOLOR
 70
  257
  9
$OBSLTYPE
280
    0
  9
$INTERSECTIONDISPLAY
280
    0
  9
$INTERSECTIONCOLOR
 70
  257
  9
$DIMASSOC
280
    1
  9
$PROJECTNAME
  1

  9
$CAMERADISPLAY
290
    0
  9
$LENSLENGTH
 40
50
  9
$CAMERAHEIGHT
 40
0
  9
$STEPSPERSEC
 40
2
  9
$STEPSIZE
 40
50
  9
$3DDWFPREC
 40
2
  9
$PSOLWIDTH
 40
5
  9
$PSOLHEIGHT
 40
80
  9
$LOFTANG1
 40
1.570796326794897
  9
$LOFTANG2
 40
1.570796326794897
  9
$LOFTMAG1
 40
0
  9
$LOFTMAG2
 40
0
  9
$LOFTPARAM
 70
    7
  9
$LOFTNORMALS
280
    1
  9
$LATITUDE
 40
1
  9
$LONGITUDE
 40
1
  9
$NORTHDIRECTION
 40
0
  9
$TIMEZONE
 70
-8000
  9
$LIGHTGLYPHDISPLAY
280
    1
  9
$TILEMODELIGHTSYNCH
280
    1
  9
$SOLIDHIST
280
    1
  9
$SHOWHIST
280
    1
  9
$DWFFRAME
280
    2
  9
$DGNFRAME
280
    0
  9
$REALWORLDSCALE
290
    1
  9
$INTERFERECOLOR
 62
    1
  9
$CSHADOW
280
    0
  9
$SHADOWPLANELOCATION
 40
0
  0
ENDSEC
  0
SECTION
  2
CLASSES
  0
ENDSEC
  0
SECTION
  2
TABLES
  0
TABLE
  2
VPORT
  5
8
330
0
100
AcDbSymbolTable
 70
    1
  0
VPORT
  5
31
330
2
100
AcDbSymbolTableRecord
100
AcDbViewportTableRecord
  2
*ACTIVE
 70
    0
 10
0
 20
0
 11
1
 21
1
 12
75
 22
70.5078125
 13
0
 23
0
 14
10
 24
10
 15
10
 25
10
 16
0
 26
0
 36
1
 17
0
 27
0
 37
0
 40
319.921875
 41
0.8962148962148963
 42
50
 43
0
 44
0
 50
0
 51
0
 71
    0
 72
  100
 73
    1
 74
    3
 75
    0
 76
    1
 77
    0
 78
    0
281
    0
 65
    1
110
0
120
0
130
0
111
1
121
0
131
0
112
0
122
1
132
0
 79
    0
146
0
348
10020
 60
    7
 61
    5
292
1
282
    1
141
0
142
0
 63
  250
421
3358443
  0
ENDTAB
  0
TABLE
  2
LTYPE
  5
5
330
0
100
AcDbSymbolTable
 70
    4
  0
LTYPE
  5
14
330
5
100
AcDbSymbolTableRecord
100
AcDbLinetypeTableRecord
  2
ByBlock
 70
    0
  3

 72
   65
 73
    0
 40
0
  0
LTYPE
  5
15
330
5
100
AcDbSymbolTableRecord
100
AcDbLinetypeTableRecord
  2
ByLayer
 70
    0
  3

 72
   65
 73
    0
 40
0
  0
LTYPE
  5
16
330
5
100
AcDbSymbolTableRecord
100
AcDbLinetypeTableRecord
  2
Continuous
 70
    0
  3
Solid line
 72
   65
 73
    0
 40
0
  0
LTYPE
  5
32
330
5
100
AcDbSymbolTableRecord
100
AcDbLinetypeTableRecord
  2
DOT
 70
    0
  3
Dot . . . . . . . . . . . . . . . . . . . . . .
 72
   65
 73
    2
 40
6.35
 49
0
 74
    0
 49
-6.35
 74
    0
  0
LTYPE
  5
33
330
5
100
AcDbSymbolTableRecord
100
AcDbLinetypeTableRecord
  2
DOTTINY
 70
    0
  3
Dot (.15x) .....................................
 72
   65
 73
    2
 40
0.9525
 49
0
 74
    0
 49
-0.9525
 74
    0
  0
LTYPE
  5
34
330
5
100
AcDbSymbolTableRecord
100
AcDbLinetypeTableRecord
  2
DOT2
 70
    0
  3
Dot (.5x) .....................................
 72
   65
 73
    2
 40
3.175
 49
0
 74
    0
 49
-3.175
 74
    0
  0
LTYPE
  5
35
330
5
100
AcDbSymbolTableRecord
100
AcDbLinetypeTableRecord
  2
DOTX2
 70
    0
  3
Dot (2x) .  .  .  .  .  .  .  .  .  .  .  .  .
 72
   65
 73
    2
 40
12.7
 49
0
 74
    0
 49
-12.7
 74
    0
  0
LTYPE
  5
36
330
5
100
AcDbSymbolTableRecord
100
AcDbLinetypeTableRecord
  2
DASHED
 70
    0
  3
Dashed _ _ _ _ _ _ _ _ _ _ _ _ _ _ _ _ _
 72
   65
 73
    2
 40
19.05
 49
12.7
 74
    0
 49
-6.35
 74
    0
  0
LTYPE
  5
37
330
5
100
AcDbSymbolTableRecord
100
AcDbLinetypeTableRecord
  2
DASHEDTINY
 70
    0
  3
Dashed (.15x) _ _ _ _ _ _ _ _ _ _ _ _ _ _ _ _ _
 72
   65
 73
    2
 40
2.8575
 49
1.905
 74
    0
 49
-0.9525
 74
    0
  0
LTYPE
  5
38
330
5
100
AcDbSymbolTableRecord
100
AcDbLinetypeTableRecord
  2
DASHED2
 70
    0
  3
Dashed (.5x) _ _ _ _ _ _ _ _ _ _ _ _ _ _ _ _ _
 72
   65
 73
    2
 40
9.524999999999999
 49
6.35
 74
    0
 49
-3.175
 74
    0
  0
LTYPE
  5
39
330
5
100
AcDbSymbolTableRecord
100
AcDbLinetypeTableRecord
  2
DASHEDX2
 70
    0
  3
Dashed (2x) ____  ____  ____  ____  ____  ___
 72
   65
 73
    2
 40
38.09999999999999
 49
25.4
 74
    0
 49
-12.7
 74
    0
  0
LTYPE
  5
3A
330
5
100
AcDbSymbolTableRecord
100
AcDbLinetypeTableRecord
  2
DASHDOT
 70
    0
  3
Dash dot __ . __ . __ . __ . __ . __ . __ . __
 72
   65
 73
    4
 40
25.4
 49
12.7
 74
    0
 49
-6.35
 74
    0
 49
0
 74
    0
 49
-6.35
 74
    0
  0
LTYPE
  5
3B
330
5
100
AcDbSymbolTableRecord
100
AcDbLinetypeTableRecord
  2
DASHDOTTINY
 70
    0
  3
Dash dot (.15x) _._._._._._._._._._._._._._._.
 72
   65
 73
    4
 40
3.81
 49
1.905
 74
    0
 49
-0.9525
 74
    0
 49
0
 74
    0
 49
-0.9525
 74
    0
  0
LTYPE
  5
3C
330
5
100
AcDbSymbolTableRecord
100
AcDbLinetypeTableRecord
  2
DASHDOT2
 70
    0
  3
Dash dot (.5x) _._._._._._._._._._._._._._._.
 72
   65
 73
    4
 40
12.7
 49
6.35
 74
    0
 49
-3.175
 74
    0
 49
0
 74
    0
 49
-3.175
 74
    0
  0
LTYPE
  5
3D
330
5
100
AcDbSymbolTableRecord
100
AcDbLinetypeTableRecord
  2
DASHDOTX2
 70
    0
  3
Dash dot (2x) ____  .  ____  .  ____  .  ___
 72
   65
 73
    4
 40
50.8
 49
25.4
 74
    0
 49
-12.7
 74
    0
 49
0
 74
    0
 49
-12.7
 74
    0
  0
LTYPE
  5
3E
330
5
100
AcDbSymbolTableRecord
100
AcDbLinetypeTableRecord
  2
DIVIDE
 70
    0
  3
Divide ____ . . ____ . . ____ . . ____ . . ____
 72
   65
 73
    6
 40
31.75
 49
12.7
 74
    0
 49
-6.35
 74
    0
 49
0
 74
    0
 49
-6.35
 74
    0
 49
0
 74
    0
 49
-6.35
 74
    0
  0
LTYPE
  5
3F
330
5
100
AcDbSymbolTableRecord
100
AcDbLinetypeTableRecord
  2
DIVIDETINY
 70
    0
  3
Divide (.15x) __..__..__..__..__..__..__..__.._
 72
   65
 73
    6
 40
4.7625
 49
1.905
 74
    0
 49
-0.9525
 74
    0
 49
0
 74
    0
 49
-0.9525
 74
    0
 49
0
 74
    0
 49
-0.9525
 74
    0
  0
LTYPE
  5
40
330
5
100
AcDbSymbolTableRecord
100
AcDbLinetypeTableRecord
  2
DIVIDE2
 70
    0
  3
Divide (.5x) __..__..__..__..__..__..__..__.._
 72
   65
 73
    6
 40
15.875
 49
6.35
 74
    0
 49
-3.175
 74
    0
 49
0
 74
    0
 49
-3.175
 74
    0
 49
0
 74
    0
 49
-3.175
 74
    0
  0
LTYPE
  5
41
330
5
100
AcDbSymbolTableRecord
100
AcDbLinetypeTableRecord
  2
DIVIDEX2
 70
    0
  3
Divide (2x) ________  .  .  ________  .  .  _
 72
   65
 73
    6
 40
63.5
 49
25.4
 74
    0
 49
-12.7
 74
    0
 49
0
 74
    0
 49
-12.7
 74
    0
 49
0
 74
    0
 49
-12.7
 74
    0
  0
LTYPE
  5
42
330
5
100
AcDbSymbolTableRecord
100
AcDbLinetypeTableRecord
  2
BORDER
 70
    0
  3
Border __ __ . __ __ . __ __ . __ __ . __ __ .
 72
   65
 73
    6
 40
44.45
 49
12.7
 74
    0
 49
-6.35
 74
    0
 49
12.7
 74
    0
 49
-6.35
 74
    0
 49
0
 74
    0
 49
-6.35
 74
    0
  0
LTYPE
  5
43
330
5
100
AcDbSymbolTableRecord
100
AcDbLinetypeTableRecord
  2
BORDERTINY
 70
    0
  3
Border (.15x) __.__.__.__.__.__.__.__.__.__.__.
 72
   65
 73
    6
 40
6.6675
 49
1.905
 74
    0
 49
-0.9525
 74
    0
 49
1.905
 74
    0
 49
-0.9525
 74
    0
 49
0
 74
    0
 49
-0.9525
 74
    0
  0
LTYPE
  5
44
330
5
100
AcDbSymbolTableRecord
100
AcDbLinetypeTableRecord
  2
BORDER2
 70
    0
  3
Border (.5x) __.__.__.__.__.__.__.__.__.__.__.
 72
   65
 73
    6
 40
22.225
 49
6.35
 74
    0
 49
-3.175
 74
    0
 49
6.35
 74
    0
 49
-3.175
 74
    0
 49
0
 74
    0
 49
-3.175
 74
    0
  0
LTYPE
  5
45
330
5
100
AcDbSymbolTableRecord
100
AcDbLinetypeTableRecord
  2
BORDERX2
 70
    0
  3
Border (2x) ____  ____  .  ____  ____  .  ___
 72
   65
 73
    6
 40
88.89999999999999
 49
25.4
 74
    0
 49
-12.7
 74
    0
 49
25.4
 74
    0
 49
-12.7
 74
    0
 49
0
 74
    0
 49
-12.7
 74
    0
  0
LTYPE
  5
46
330
5
100
AcDbSymbolTableRecord
100
AcDbLinetypeTableRecord
  2
CENTER
 70
    0
  3
Center ____ _ ____ _ ____ _ ____ _ ____ _ ____
 72
   65
 73
    4
 40
50.8
 49
31.75
 74
    0
 49
-6.35
 74
    0
 49
6.35
 74
    0
 49
-6.35
 74
    0
  0
LTYPE
  5
47
330
5
100
AcDbSymbolTableRecord
100
AcDbLinetypeTableRecord
  2
CENTERTINY
 70
    0
  3
Center (.15x) ___ _ ___ _ ___ _ ___ _ ___ _ ___
 72
   65
 73
    4
 40
7.619999999999999
 49
4.7625
 74
    0
 49
-0.9525
 74
    0
 49
0.9525
 74
    0
 49
-0.9525
 74
    0
  0
LTYPE
  5
48
330
5
100
AcDbSymbolTableRecord
100
AcDbLinetypeTableRecord
  2
CENTER2
 70
    0
  3
Center (.5x) ___ _ ___ _ ___ _ ___ _ ___ _ ___
 72
   65
 73
    4
 40
28.575
 49
19.05
 74
    0
 49
-3.175
 74
    0
 49
3.175
 74
    0
 49
-3.175
 74
    0
  0
LTYPE
  5
49
330
5
100
AcDbSymbolTableRecord
100
AcDbLinetypeTableRecord
  2
CENTERX2
 70
    0
  3
Center (2x) ________  __  ________  __  _____
 72
   65
 73
    4
 40
101.6
 49
63.5
 74
    0
 49
-12.7
 74
    0
 49
12.7
 74
    0
 49
-12.7
 74
    0
  0
ENDTAB
  0
TABLE
  2
LAYER
  5
2
330
0
100
AcDbSymbolTable
 70
    1
  0
LAYER
  5
10
330
2
100
AcDbSymbolTableRecord
100
AcDbLayerTableRecord
  2
0
 70
    0
 62
    7
  6
CONTINUOUS
370
    0
390
F
  0
LAYER
  5
4A
330
2
100
AcDbSymbolTableRecord
100
AcDbLayerTableRecord
  2
gear
 70
    0
 62
    7
  6
CONTINUOUS
370
   -3
390
F
  0
LAYER
  5
4B
330
2
100
AcDbSymbolTableRecord
100
AcDbLayerTableRecord
  2
gear_guides
 70
    0
 62
    5
  6
CONTINUOUS
370
   -3
390
F
  0
LAYER
  5
4C
330
2
100
AcDbSymbolTableRecord
100
AcDbLayerTableRecord
  2
gear_texts
 70
    0
 62
    7
  6
CONTINUOUS
370
   -3
390
F
  0
ENDTAB
  0
TABLE
  2
STYLE
  5
3
330
0
100
AcDbSymbolTable
 70
    3
  0
STYLE
  5
4D
330
2
100
AcDbSymbolTableRecord
100
AcDbTextStyleTableRecord
  2
Standard
 70
    0
 40
0
 41
1
 50
0
 71
    0
 42
1
  3
txt
  4

  0
ENDTAB
  0
TABLE
  2
VIEW
  5
6
330
0
100
AcDbSymbolTable
 70
    0
  0
ENDTAB
  0
TABLE
  2
UCS
  5
7
330
0
100
AcDbSymbolTable
 70
    0
  0
ENDTAB
  0
TABLE
  2
APPID
  5
9
330
0
100
AcDbSymbolTable
 70
    1
  0
APPID
  5
12
330
9
100
AcDbSymbolTableRecord
100
AcDbRegAppTableRecord
  2
ACAD
 70
    0
  0
APPID
  5
4E
330
9
100
AcDbSymbolTableRecord
100
AcDbRegAppTableRecord
  2
LibreCad
 70
    0
  0
ENDTAB
  0
TABLE
  2
DIMSTYLE
  5
A
330
0
100
AcDbSymbolTable
 70
    1
100
AcDbDimStyleTable
 71
    1
  0
DIMSTYLE
105
4F
330
A
100
AcDbSymbolTableRecord
100
AcDbDimStyleTableRecord
  2
Standard
 70
    0
 40
2.5
 41
2.5
 42
0.625
 43
0.38
 44
1.25
 45
0
 46
0
 47
0
 48
0
 49
1
140
2.5
141
0.09
142
0
143
25.4
144
1
145
0
146
1
147
0.625
148
0
 71
    0
 72
    0
 73
    0
 74
    1
 75
    0
 76
    0
 77
    0
 78
    8
 79
    0
170
    0
171
    2
172
    0
173
    0
174
    0
175
    0
176
    0
177
    0
178
    0
179
    0
271
    2
272
    4
273
    2
274
    2
275
    0
276
    0
277
    2
278
   44
279
    0
280
    0
281
    0
282
    0
283
    1
284
    0
285
    0
286
    0
288
    0
289
    3
340
STANDARD
341

371
   -2
372
   -2
  0
ENDTAB
  0
TABLE
  2
BLOCK_RECORD
  5
1
330
0
100
AcDbSymbolTable
 70
    2
  0
BLOCK_RECORD
  5
1F
330
1
100
AcDbSymbolTableRecord
100
AcDbBlockTableRecord
  2
*Model_Space
 70
    0
280
    1
281
    0
  0
BLOCK_RECORD
  5
1E
330
1
100
AcDbSymbolTableRecord
100
AcDbBlockTableRecord
  2
*Paper_Space
 70
    0
280
    1
281
    0
  0
ENDTAB
  0
ENDSEC
  0
SECTION
  2
BLOCKS
  0
BLOCK
  5
20
330
1F
100
AcDbEntity
  8
0
100
AcDbBlockBegin
  2
*Model_Space
 70
    0
 10
0
 20
0
 30
0
  3
*Model_Space
  1

  0
ENDBLK
  5
21
330
1F
100
AcDbEntity
  8
0
100
AcDbBlockEnd
  0
BLOCK
  5
1C
330
1B
100
AcDbEntity
  8
0
100
AcDbBlockBegin
  2
*Paper_Space
 70
    0
 10
0
 20
0
 30
0
  3
*Paper_Space
  1

  0
ENDBLK
  5
1D
330
1F
100
AcDbEntity
  8
0
100
AcDbBlockEnd
  0
ENDSEC
  0
SECTION
  2
ENTITIES
  0
LWPOLYLINE
  5
50
100
AcDbEntity
  8
gear
  6
ByLayer
 62
  256
370
   -1
100
AcDbPolyline
 90
 1632
 70
    1
 43
0
 10
72.33329999999999
 20
0
 10
78.2637
 20
0.0001
 10
78.2919
 20
0.0009
 10
78.3365
 20
0.0026
 10
78.3977
 20
0.0059
 10
78.4753
 20
0.0113
 10
78.5693
 20
0.0191
 10
78.6797
 20
0.0299
 10
78.8064
 20
0.0442
 10
78.9492
 20
0.0624
 10
79.1082
 20
0.08500000000000001
 10
79.28319999999999
 20
0.1125
 10
79.474
 20
0.1453
 10
79.6807
 20
0.1839
 10
79.90300000000001
 20
0.2288
 10
80.1408
 20
0.2805
 10
80.3939
 20
0.3393
 10
80.6622
 20
0.4058
 10
80.9455
 20
0.4804
 10
81.2437
 20
0.5636
 10
81.5565
 20
0.6558
 10
81.8837
 20
0.7574
 10
82.2252
 20
0.8689
 10
82.5806
 20
0.9908
 10
82.9499
 20
1.1234
 10
83.3326
 20
1.2671
 10
83.7287
 20
1.4225
 10
84.1377
 20
1.5898
 10
84.5595
 20
1.7696
 10
84.99379999999999
 20
1.9623
 10
85.44029999999999
 20
2.1681
 10
85.8986
 20
2.3876
 10
86.3686
 20
2.621
 10
86.6194
 20
2.8613
 10
86.20189999999999
 20
8.963100000000001
 10
85.9207
 20
9.167
 10
85.4233
 20
9.334300000000001
 10
84.93940000000001
 20
9.4893
 10
84.46899999999999
 20
9.632400000000001
 10
84.01260000000001
 20
9.763999999999999
 10
83.5702
 20
9.8847
 10
83.1421
 20
9.9948
 10
82.7286
 20
10.0948
 10
82.32989999999999
 20
10.1851
 10
81.946
 20
10.2661
 10
81.57729999999999
 20
10.3384
 10
81.2238
 20
10.4024
 10
80.8858
 20
10.4585
 10
80.5634
 20
10.5072
 10
80.25660000000001
 20
10.549
 10
79.9658
 20
10.5843
 10
79.6909
 20
10.6137
 10
79.43210000000001
 20
10.6375
 10
79.1895
 20
10.6563
 10
78.9632
 20
10.6705
 10
78.75320000000001
 20
10.6806
 10
78.5596
 20
10.6871
 10
78.3826
 20
10.6905
 10
78.22199999999999
 20
10.6913
 10
78.078
 20
10.6898
 10
77.95059999999999
 20
10.6867
 10
77.83969999999999
 20
10.6824
 10
77.74550000000001
 20
10.6773
 10
77.6679
 20
10.672
 10
77.6069
 20
10.667
 10
77.5624
 20
10.6627
 10
77.53440000000001
 20
10.6596
 10
71.6593
 20
9.852
 10
69.8686
 20
18.7212
 10
75.59690000000001
 20
20.2563
 10
75.62390000000001
 20
20.2642
 10
75.6666
 20
20.2775
 10
75.7248
 20
20.2966
 10
75.7984
 20
20.3218
 10
75.88720000000001
 20
20.3537
 10
75.991
 20
20.3927
 10
76.1097
 20
20.4393
 10
76.24290000000001
 20
20.4938
 10
76.39060000000001
 20
20.5568
 10
76.55249999999999
 20
20.6286
 10
76.72839999999999
 20
20.7097
 10
76.91800000000001
 20
20.8005
 10
77.1211
 20
20.9014
 10
77.3374
 20
21.0129
 10
77.5667
 20
21.1352
 10
77.8087
 20
21.2689
 10
78.063
 20
21.4143
 10
78.3295
 20
21.5718
 10
78.6078
 20
21.7418
 10
78.8976
 20
21.9247
 10
79.1985
 20
22.1208
 10
79.5103
 20
22.3305
 10
79.8327
 20
22.5541
 10
80.1652
 20
22.792
 10
80.50749999999999
 20
23.0446
 10
80.8593
 20
23.3121
 10
81.22020000000001
 20
23.595
 10
81.5898
 20
23.8934
 10
81.9678
 20
24.2078
 10
82.3537
 20
24.5384
 10
82.74720000000001
 20
24.8856
 10
82.92740000000001
 20
25.1826
 10
80.9448
 20
30.9684
 10
80.6204
 20
31.0925
 10
80.0967
 20
31.1254
 10
79.5891
 20
31.1498
 10
79.09780000000001
 20
31.1663
 10
78.6228
 20
31.1754
 10
78.1643
 20
31.1775
 10
77.7223
 20
31.173
 10
77.297
 20
31.1626
 10
76.88849999999999
 20
31.1466
 10
76.4967
 20
31.1255
 10
76.12179999999999
 20
31.0999
 10
75.76390000000001
 20
31.0702
 10
75.4228
 20
31.0369
 10
75.0988
 20
31.0005
 10
74.79170000000001
 20
30.9615
 10
74.5016
 20
30.9204
 10
74.2285
 20
30.8776
 10
73.97239999999999
 20
30.8336
 10
73.7332
 20
30.7889
 10
73.51090000000001
 20
30.7441
 10
73.30540000000001
 20
30.6995
 10
73.1168
 20
30.6557
 10
72.9448
 20
30.6131
 10
72.7895
 20
30.5723
 10
72.6508
 20
30.5336
 10
72.52849999999999
 20
30.4977
 10
72.4226
 20
30.4648
 10
72.3329
 20
30.4355
 10
72.2593
 20
30.4103
 10
72.2016
 20
30.3897
 10
72.1598
 20
30.374
 10
72.1336
 20
30.3637
 10
66.6677
 20
28.063
 10
62.6425
 20
36.1667
 10
67.7783
 20
39.132
 10
67.8023
 20
39.1467
 10
67.84010000000001
 20
39.1705
 10
67.8914
 20
39.204
 10
67.956
 20
39.2474
 10
68.0335
 20
39.3012
 10
68.1237
 20
39.3658
 10
68.22620000000001
 20
39.4414
 10
68.3408
 20
39.5286
 10
68.46720000000001
 20
39.6277
 10
68.605
 20
39.739
 10
68.7539
 20
39.8628
 10
68.9135
 20
39.9996
 10
69.0836
 20
40.1496
 10
69.2637
 20
40.3133
 10
69.45350000000001
 20
40.4908
 10
69.65260000000001
 20
40.6825
 10
69.86069999999999
 20
40.8888
 10
70.07729999999999
 20
41.1099
 10
70.3021
 20
41.3462
 10
70.5347
 20
41.5978
 10
70.77460000000001
 20
41.8651
 10
71.02160000000001
 20
42.1484
 10
71.27500000000001
 20
42.4478
 10
71.5346
 20
42.7637
 10
71.79989999999999
 20
43.0962
 10
72.0705
 20
43.4457
 10
72.3459
 20
43.8123
 10
72.62569999999999
 20
44.1963
 10
72.90940000000001
 20
44.5978
 10
73.1966
 20
45.017
 10
73.4868
 20
45.4542
 10
73.584
 20
45.7877
 10
70.17149999999999
 20
50.8633
 10
69.82599999999999
 20
50.8992
 10
69.3116
 20
50.7954
 10
68.815
 20
50.6876
 10
68.3361
 20
50.5764
 10
67.875
 20
50.4622
 10
67.4316
 20
50.3455
 10
67.00579999999999
 20
50.2268
 10
66.5977
 20
50.1067
 10
66.2072
 20
49.9855
 10
65.8343
 20
49.8637
 10
65.47880000000001
 20
49.742
 10
65.1407
 20
49.6206
 10
64.8199
 20
49.5002
 10
64.5163
 20
49.3812
 10
64.2298
 20
49.264
 10
63.9602
 20
49.1492
 10
63.7075
 20
49.0372
 10
63.4715
 20
48.9284
 10
63.252
 20
48.8234
 10
63.0489
 20
48.7225
 10
62.862
 20
48.6263
 10
62.6911
 20
48.5352
 10
62.536
 20
48.4495
 10
62.3966
 20
48.3699
 10
62.2726
 20
48.2966
 10
62.1638
 20
48.2302
 10
62.07
 20
48.1711
 10
61.9909
 20
48.1196
 10
61.9264
 20
48.0762
 10
61.876
 20
48.0413
 10
61.8397
 20
48.0153
 10
61.817
 20
47.9986
 10
57.1328
 20
44.3617
 10
51.1474
 20
51.1474
 10
55.3407
 20
55.3409
 10
55.3601
 20
55.3613
 10
55.3904
 20
55.3941
 10
55.4313
 20
55.4397
 10
55.4824
 20
55.4984
 10
55.5434
 20
55.5704
 10
55.6138
 20
55.6561
 10
55.6933
 20
55.7558
 10
55.7814
 20
55.8696
 10
55.8778
 20
55.998
 10
55.9821
 20
56.1412
 10
56.0939
 20
56.2993
 10
56.2127
 20
56.4728
 10
56.3381
 20
56.6617
 10
56.4698
 20
56.8664
 10
56.6071
 20
57.087
 10
56.7498
 20
57.3237
 10
56.8974
 20
57.5769
 10
57.0494
 20
57.8465
 10
57.2054
 20
58.1329
 10
57.365
 20
58.4361
 10
57.5276
 20
58.7564
 10
57.6928
 20
59.0939
 10
57.8601
 20
59.4488
 10
58.0291
 20
59.8211
 10
58.1993
 20
60.211
 10
58.3702
 20
60.6185
 10
58.5413
 20
61.0439
 10
58.7122
 20
61.4872
 10
58.8823
 20
61.9485
 10
59.0512
 20
62.4278
 10
59.2184
 20
62.9251
 10
59.2259
 20
63.2724
 10
54.6161
 20
67.2919
 10
54.2731
 20
67.2371
 10
53.8031
 20
67.00369999999999
 10
53.3513
 20
66.7711
 10
52.9175
 20
66.5397
 10
52.5016
 20
66.31010000000001
 10
52.1035
 20
66.0826
 10
51.723
 20
65.8578
 10
51.3599
 20
65.6361
 10
51.0141
 20
65.4179
 10
50.6853
 20
65.2038
 10
50.3735
 20
64.99420000000001
 10
50.0783
 20
64.7895
 10
49.7996
 20
64.5902
 10
49.5372
 20
64.39660000000001
 10
49.2907
 20
64.2093
 10
49.0601
 20
64.0286
 10
48.845
 20
63.855
 10
48.6451
 20
63.6888
 10
48.4603
 20
63.5306
 10
48.2902
 20
63.3806
 10
48.1346
 20
63.2393
 10
47.9931
 20
63.107
 10
47.8655
 20
62.9842
 10
47.7514
 20
62.8712
 10
47.6506
 20
62.7683
 10
47.5627
 20
62.676
 10
47.4874
 20
62.5946
 10
47.4244
 20
62.5244
 10
47.3732
 20
62.4658
 10
47.3336
 20
62.419
 10
47.3052
 20
62.3845
 10
47.2877
 20
62.3625
 10
43.7044
 20
57.6371
 10
36.1667
 20
62.6425
 10
39.1317
 20
67.7784
 10
39.1452
 20
67.8032
 10
39.166
 20
67.84269999999999
 10
39.1937
 20
67.8973
 10
39.2279
 20
67.96720000000001
 10
39.2681
 20
68.0526
 10
39.3139
 20
68.1536
 10
39.3649
 20
68.2704
 10
39.4206
 20
68.4032
 10
39.4805
 20
68.5522
 10
39.5442
 20
68.7175
 10
39.6112
 20
68.89919999999999
 10
39.6811
 20
69.09739999999999
 10
39.7533
 20
69.3124
 10
39.8275
 20
69.5442
 10
39.9031
 20
69.7928
 10
39.9797
 20
70.05840000000001
 10
40.0567
 20
70.3411
 10
40.1338
 20
70.6409
 10
40.2103
 20
70.9579
 10
40.2859
 20
71.2921
 10
40.3601
 20
71.64360000000001
 10
40.4323
 20
72.0123
 10
40.5021
 20
72.3984
 10
40.569
 20
72.8017
 10
40.6324
 20
73.22239999999999
 10
40.692
 20
73.66030000000001
 10
40.7472
 20
74.1155
 10
40.7975
 20
74.5879
 10
40.8425
 20
75.0775
 10
40.8816
 20
75.5842
 10
40.9144
 20
76.1079
 10
40.8318
 20
76.4453
 10
35.3387
 20
79.13460000000001
 10
35.0215
 20
78.99299999999999
 10
34.628
 20
78.6459
 10
34.2517
 20
78.3043
 10
33.8926
 20
77.96850000000001
 10
33.5504
 20
77.639
 10
33.2247
 20
77.3163
 10
32.9153
 20
77.00060000000001
 10
32.622
 20
76.6925
 10
32.3444
 20
76.39230000000001
 10
32.0823
 20
76.10039999999999
 10
31.8353
 20
75.8172
 10
31.6032
 20
75.5431
 10
31.3856
 20
75.2784
 10
31.1822
 20
75.0235
 10
30.9926
 20
74.7788
 10
30.8166
 20
74.5446
 10
30.6537
 20
74.3212
 10
30.5037
 20
74.10899999999999
 10
30.3661
 20
73.9083
 10
30.2407
 20
73.71939999999999
 10
30.1269
 20
73.54259999999999
 10
30.0245
 20
73.37820000000001
 10
29.933
 20
73.2265
 10
29.8521
 20
73.0879
 10
29.7813
 20
72.9624
 10
29.7203
 20
72.8505
 10
29.6687
 20
72.75239999999999
 10
29.6259
 20
72.6683
 10
29.5917
 20
72.5984
 10
29.5655
 20
72.54300000000001
 10
29.547
 20
72.50230000000001
 10
29.5358
 20
72.4765
 10
27.2976
 20
66.9847
 10
18.7212
 20
69.8686
 10
20.256
 20
75.59699999999999
 10
20.2626
 20
75.62430000000001
 10
20.2724
 20
75.6679
 10
20.2851
 20
75.72790000000001
 10
20.3
 20
75.80419999999999
 10
20.3168
 20
75.89709999999999
 10
20.3349
 20
76.0065
 10
20.3539
 20
76.13249999999999
 10
20.3733
 20
76.2752
 10
20.3926
 20
76.4346
 10
20.4114
 20
76.6108
 10
20.4291
 20
76.8036
 10
20.4452
 20
77.0132
 10
20.4594
 20
77.2396
 10
20.4711
 20
77.48260000000001
 10
20.4797
 20
77.7424
 10
20.4849
 20
78.0187
 10
20.4862
 20
78.3117
 10
20.483
 20
78.62130000000001
 10
20.4749
 20
78.9473
 10
20.4615
 20
79.28959999999999
 10
20.4421
 20
79.64830000000001
 10
20.4164
 20
80.0232
 10
20.3839
 20
80.41419999999999
 10
20.3441
 20
80.8211
 10
20.2966
 20
81.24379999999999
 10
20.2408
 20
81.6823
 10
20.1763
 20
82.1362
 10
20.1026
 20
82.6056
 10
20.0193
 20
83.09010000000001
 10
19.926
 20
83.5896
 10
19.8221
 20
84.104
 10
19.655
 20
84.4085
 10
13.653
 20
85.58450000000001
 10
13.3833
 20
85.3656
 10
13.093
 20
84.9285
 10
12.818
 20
84.50109999999999
 10
12.558
 20
84.0838
 10
12.3127
 20
83.67700000000001
 10
12.0817
 20
83.28100000000001
 10
11.8645
 20
82.896
 10
11.6609
 20
82.52249999999999
 10
11.4705
 20
82.1606
 10
11.2929
 20
81.8109
 10
11.1276
 20
81.4734
 10
10.9743
 20
81.1485
 10
10.8327
 20
80.8365
 10
10.7021
 20
80.5377
 10
10.5824
 20
80.25230000000001
 10
10.473
 20
79.98050000000001
 10
10.3735
 20
79.7225
 10
10.2835
 20
79.4787
 10
10.2026
 20
79.2492
 10
10.1303
 20
79.0343
 10
10.0661
 20
78.83410000000001
 10
10.0098
 20
78.64879999999999
 10
9.960599999999999
 20
78.4786
 10
9.9184
 20
78.3237
 10
9.8825
 20
78.18429999999999
 10
9.852499999999999
 20
78.0604
 10
9.827999999999999
 20
77.9522
 10
9.8085
 20
77.8599
 10
9.7935
 20
77.78360000000001
 10
9.7826
 20
77.72329999999999
 10
9.7753
 20
77.67919999999999
 10
9.771000000000001
 20
77.6514
 10
9.0305
 20
71.76739999999999
 10
0
 20
72.33329999999999
 10
-0.0001
 20
78.2637
 10
-0.0009
 20
78.2919
 10
-0.0026
 20
78.3365
 10
-0.0059
 20
78.3977
 10
-0.0113
 20
78.4753
 10
-0.0191
 20
78.5693
 10
-0.0299
 20
78.6797
 10
-0.0442
 20
78.8064
 10
-0.0624
 20
78.9492
 10
-0.08500000000000001
 20
79.1082
 10
-0.1125
 20
79.28319999999999
 10
-0.1453
 20
79.474
 10
-0.1839
 20
79.6807
 10
-0.2288
 20
79.90300000000001
 10
-0.2805
 20
80.1408
 10
-0.3393
 20
80.3939
 10
-0.4058
 20
80.6622
 10
-0.4804
 20
80.9455
 10
-0.5636
 20
81.2437
 10
-0.6558
 20
81.5565
 10
-0.7574
 20
81.8837
 10
-0.8689
 20
82.2252
 10
-0.9908
 20
82.5806
 10
-1.1234
 20
82.9499
 10
-1.2671
 20
83.3326
 10
-1.4225
 20
83.7287
 10
-1.5898
 20
84.1377
 10
-1.7696
 20
84.5595
 10
-1.9623
 20
84.99379999999999
 10
-2.1681
 20
85.44029999999999
 10
-2.3876
 20
85.8986
 10
-2.621
 20
86.3686
 10
-2.8613
 20
86.6194
 10
-8.963100000000001
 20
86.20189999999999
 10
-9.167
 20
85.9207
 10
-9.334300000000001
 20
85.4233
 10
-9.4893
 20
84.93940000000001
 10
-9.632400000000001
 20
84.46899999999999
 10
-9.763999999999999
 20
84.01260000000001
 10
-9.8847
 20
83.5702
 10
-9.9948
 20
83.1421
 10
-10.0948
 20
82.7286
 10
-10.1851
 20
82.32989999999999
 10
-10.2661
 20
81.946
 10
-10.3384
 20
81.57729999999999
 10
-10.4024
 20
81.2238
 10
-10.4585
 20
80.8858
 10
-10.5072
 20
80.5634
 10
-10.549
 20
80.25660000000001
 10
-10.5843
 20
79.9658
 10
-10.6137
 20
79.6909
 10
-10.6375
 20
79.43210000000001
 10
-10.6563
 20
79.1895
 10
-10.6705
 20
78.9632
 10
-10.6806
 20
78.75320000000001
 10
-10.6871
 20
78.5596
 10
-10.6905
 20
78.3826
 10
-10.6913
 20
78.22199999999999
 10
-10.6898
 20
78.078
 10
-10.6867
 20
77.95059999999999
 10
-10.6824
 20
77.83969999999999
 10
-10.6773
 20
77.74550000000001
 10
-10.672
 20
77.6679
 10
-10.667
 20
77.6069
 10
-10.6627
 20
77.5624
 10
-10.6596
 20
77.53440000000001
 10
-9.852
 20
71.6593
 10
-18.7212
 20
69.8686
 10
-20.2563
 20
75.59690000000001
 10
-20.2642
 20
75.62390000000001
 10
-20.2775
 20
75.6666
 10
-20.2966
 20
75.7248
 10
-20.3218
 20
75.7984
 10
-20.3537
 20
75.88720000000001
 10
-20.3927
 20
75.991
 10
-20.4393
 20
76.1097
 10
-20.4938
 20
76.24290000000001
 10
-20.5568
 20
76.39060000000001
 10
-20.6286
 20
76.55249999999999
 10
-20.7097
 20
76.72839999999999
 10
-20.8005
 20
76.91800000000001
 10
-20.9014
 20
77.1211
 10
-21.0129
 20
77.3374
 10
-21.1352
 20
77.5667
 10
-21.2689
 20
77.8087
 10
-21.4143
 20
78.063
 10
-21.5718
 20
78.3295
 10
-21.7418
 20
78.6078
 10
-21.9247
 20
78.8976
 10
-22.1208
 20
79.1985
 10
-22.3305
 20
79.5103
 10
-22.5541
 20
79.8327
 10
-22.792
 20
80.1652
 10
-23.0446
 20
80.50749999999999
 10
-23.3121
 20
80.8593
 10
-23.595
 20
81.22020000000001
 10
-23.8934
 20
81.5898
 10
-24.2078
 20
81.9678
 10
-24.5384
 20
82.3537
 10
-24.8856
 20
82.74720000000001
 10
-25.1826
 20
82.92740000000001
 10
-30.9684
 20
80.9448
 10
-31.0925
 20
80.6204
 10
-31.1254
 20
80.0967
 10
-31.1498
 20
79.5891
 10
-31.1663
 20
79.09780000000001
 10
-31.1754
 20
78.6228
 10
-31.1775
 20
78.1643
 10
-31.173
 20
77.7223
 10
-31.1626
 20
77.297
 10
-31.1466
 20
76.88849999999999
 10
-31.1255
 20
76.4967
 10
-31.0999
 20
76.12179999999999
 10
-31.0702
 20
75.76390000000001
 10
-31.0369
 20
75.4228
 10
-31.0005
 20
75.0988
 10
-30.9615
 20
74.79170000000001
 10
-30.9204
 20
74.5016
 10
-30.8776
 20
74.2285
 10
-30.8336
 20
73.97239999999999
 10
-30.7889
 20
73.7332
 10
-30.7441
 20
73.51090000000001
 10
-30.6995
 20
73.30540000000001
 10
-30.6557
 20
73.1168
 10
-30.6131
 20
72.9448
 10
-30.5723
 20
72.7895
 10
-30.5336
 20
72.6508
 10
-30.4977
 20
72.52849999999999
 10
-30.4648
 20
72.4226
 10
-30.4355
 20
72.3329
 10
-30.4103
 20
72.2593
 10
-30.3897
 20
72.2016
 10
-30.374
 20
72.1598
 10
-30.3637
 20
72.1336
 10
-28.063
 20
66.6677
 10
-36.1667
 20
62.6425
 10
-39.132
 20
67.7783
 10
-39.1467
 20
67.8023
 10
-39.1705
 20
67.84010000000001
 10
-39.204
 20
67.8914
 10
-39.2474
 20
67.956
 10
-39.3012
 20
68.0335
 10
-39.3658
 20
68.1237
 10
-39.4414
 20
68.22620000000001
 10
-39.5286
 20
68.3408
 10
-39.6277
 20
68.46720000000001
 10
-39.739
 20
68.605
 10
-39.8628
 20
68.7539
 10
-39.9996
 20
68.9135
 10
-40.1496
 20
69.0836
 10
-40.3133
 20
69.2637
 10
-40.4908
 20
69.45350000000001
 10
-40.6825
 20
69.65260000000001
 10
-40.8888
 20
69.86069999999999
 10
-41.1099
 20
70.07729999999999
 10
-41.3462
 20
70.3021
 10
-41.5978
 20
70.5347
 10
-41.8651
 20
70.77460000000001
 10
-42.1484
 20
71.02160000000001
 10
-42.4478
 20
71.27500000000001
 10
-42.7637
 20
71.5346
 10
-43.0962
 20
71.79989999999999
 10
-43.4457
 20
72.0705
 10
-43.8123
 20
72.3459
 10
-44.1963
 20
72.62569999999999
 10
-44.5978
 20
72.90940000000001
 10
-45.017
 20
73.1966
 10
-45.4542
 20
73.4868
 10
-45.7877
 20
73.584
 10
-50.8633
 20
70.17149999999999
 10
-50.8992
 20
69.82599999999999
 10
-50.7954
 20
69.3116
 10
-50.6876
 20
68.815
 10
-50.5764
 20
68.3361
 10
-50.4622
 20
67.875
 10
-50.3455
 20
67.4316
 10
-50.2268
 20
67.00579999999999
 10
-50.1067
 20
66.5977
 10
-49.9855
 20
66.2072
 10
-49.8637
 20
65.8343
 10
-49.742
 20
65.47880000000001
 10
-49.6206
 20
65.1407
 10
-49.5002
 20
64.8199
 10
-49.3812
 20
64.5163
 10
-49.264
 20
64.2298
 10
-49.1492
 20
63.9602
 10
-49.0372
 20
63.7075
 10
-48.9284
 20
63.4715
 10
-48.8234
 20
63.252
 10
-48.7225
 20
63.0489
 10
-48.6263
 20
62.862
 10
-48.5352
 20
62.6911
 10
-48.4495
 20
62.536
 10
-48.3699
 20
62.3966
 10
-48.2966
 20
62.2726
 10
-48.2302
 20
62.1638
 10
-48.1711
 20
62.07
 10
-48.1196
 20
61.9909
 10
-48.0762
 20
61.9264
 10
-48.0413
 20
61.876
 10
-48.0153
 20
61.8397
 10
-47.9986
 20
61.817
 10
-44.3617
 20
57.1328
 10
-51.1474
 20
51.1474
 10
-55.3409
 20
55.3407
 10
-55.3613
 20
55.3601
 10
-55.3941
 20
55.3904
 10
-55.4397
 20
55.4313
 10
-55.4984
 20
55.4824
 10
-55.5704
 20
55.5434
 10
-55.6561
 20
55.6138
 10
-55.7558
 20
55.6933
 10
-55.8696
 20
55.7814
 10
-55.998
 20
55.8778
 10
-56.1412
 20
55.9821
 10
-56.2993
 20
56.0939
 10
-56.4728
 20
56.2127
 10
-56.6617
 20
56.3381
 10
-56.8664
 20
56.4698
 10
-57.087
 20
56.6071
 10
-57.3237
 20
56.7498
 10
-57.5769
 20
56.8974
 10
-57.8465
 20
57.0494
 10
-58.1329
 20
57.2054
 10
-58.4361
 20
57.365
 10
-58.7564
 20
57.5276
 10
-59.0939
 20
57.6928
 10
-59.4488
 20
57.8601
 10
-59.8211
 20
58.0291
 10
-60.211
 20
58.1993
 10
-60.6185
 20
58.3702
 10
-61.0439
 20
58.5413
 10
-61.4872
 20
58.7122
 10
-61.9485
 20
58.8823
 10
-62.4278
 20
59.0512
 10
-62.9251
 20
59.2184
 10
-63.2724
 20
59.2259
 10
-67.2919
 20
54.6161
 10
-67.2371
 20
54.2731
 10
-67.00369999999999
 20
53.8031
 10
-66.7711
 20
53.3513
 10
-66.5397
 20
52.9175
 10
-66.31010000000001
 20
52.5016
 10
-66.0826
 20
52.1035
 10
-65.8578
 20
51.723
 10
-65.6361
 20
51.3599
 10
-65.4179
 20
51.0141
 10
-65.2038
 20
50.6853
 10
-64.99420000000001
 20
50.3735
 10
-64.7895
 20
50.0783
 10
-64.5902
 20
49.7996
 10
-64.39660000000001
 20
49.5372
 10
-64.2093
 20
49.2907
 10
-64.0286
 20
49.0601
 10
-63.855
 20
48.845
 10
-63.6888
 20
48.6451
 10
-63.5306
 20
48.4603
 10
-63.3806
 20
48.2902
 10
-63.2393
 20
48.1346
 10
-63.107
 20
47.9931
 10
-62.9842
 20
47.8655
 10
-62.8712
 20
47.7514
 10
-62.7683
 20
47.6506
 10
-62.676
 20
47.5627
 10
-62.5946
 20
47.4874
 10
-62.5244
 20
47.4244
 10
-62.4658
 20
47.3732
 10
-62.419
 20
47.3336
 10
-62.3845
 20
47.3052
 10
-62.3625
 20
47.2877
 10
-57.6371
 20
43.7044
 10
-62.6425
 20
36.1667
 10
-67.7784
 20
39.1317
 10
-67.8032
 20
39.1452
 10
-67.84269999999999
 20
39.166
 10
-67.8973
 20
39.1937
 10
-67.96720000000001
 20
39.2279
 10
-68.0526
 20
39.2681
 10
-68.1536
 20
39.3139
 10
-68.2704
 20
39.3649
 10
-68.4032
 20
39.4206
 10
-68.5522
 20
39.4805
 10
-68.7175
 20
39.5442
 10
-68.89919999999999
 20
39.6112
 10
-69.09739999999999
 20
39.6811
 10
-69.3124
 20
39.7533
 10
-69.5442
 20
39.8275
 10
-69.7928
 20
39.9031
 10
-70.05840000000001
 20
39.9797
 10
-70.3411
 20
40.0567
 10
-70.6409
 20
40.1338
 10
-70.9579
 20
40.2103
 10
-71.2921
 20
40.2859
 10
-71.64360000000001
 20
40.3601
 10
-72.0123
 20
40.4323
 10
-72.3984
 20
40.5021
 10
-72.8017
 20
40.569
 10
-73.22239999999999
 20
40.6324
 10
-73.66030000000001
 20
40.692
 10
-74.1155
 20
40.7472
 10
-74.5879
 20
40.7975
 10
-75.0775
 20
40.8425
 10
-75.5842
 20
40.8816
 10
-76.1079
 20
40.9144
 10
-76.4453
 20
40.8318
 10
-79.13460000000001
 20
35.3387
 10
-78.99299999999999
 20
35.0215
 10
-78.6459
 20
34.628
 10
-78.3043
 20
34.2517
 10
-77.96850000000001
 20
33.8926
 10
-77.639
 20
33.5504
 10
-77.3163
 20
33.2247
 10
-77.00060000000001
 20
32.9153
 10
-76.6925
 20
32.622
 10
-76.39230000000001
 20
32.3444
 10
-76.10039999999999
 20
32.0823
 10
-75.8172
 20
31.8353
 10
-75.5431
 20
31.6032
 10
-75.2784
 20
31.3856
 10
-75.0235
 20
31.1822
 10
-74.7788
 20
30.9926
 10
-74.5446
 20
30.8166
 10
-74.3212
 20
30.6537
 10
-74.10899999999999
 20
30.5037
 10
-73.9083
 20
30.3661
 10
-73.71939999999999
 20
30.2407
 10
-73.54259999999999
 20
30.1269
 10
-73.37820000000001
 20
30.0245
 10
-73.2265
 20
29.933
 10
-73.0879
 20
29.8521
 10
-72.9624
 20
29.7813
 10
-72.8505
 20
29.7203
 10
-72.75239999999999
 20
29.6687
 10
-72.6683
 20
29.6259
 10
-72.5984
 20
29.5917
 10
-72.54300000000001
 20
29.5655
 10
-72.50230000000001
 20
29.547
 10
-72.4765
 20
29.5358
 10
-66.9847
 20
27.2976
 10
-69.8686
 20
18.7212
 10
-75.59699999999999
 20
20.256
 10
-75.62430000000001
 20
20.2626
 10
-75.6679
 20
20.2724
 10
-75.72790000000001
 20
20.2851
 10
-75.80419999999999
 20
20.3
 10
-75.89709999999999
 20
20.3168
 10
-76.0065
 20
20.3349
 10
-76.13249999999999
 20
20.3539
 10
-76.2752
 20
20.3733
 10
-76.4346
 20
20.3926
 10
-76.6108
 20
20.4114
 10
-76.8036
 20
20.4291
 10
-77.0132
 20
20.4452
 10
-77.2396
 20
20.4594
 10
-77.48260000000001
 20
20.4711
 10
-77.7424
 20
20.4797
 10
-78.0187
 20
20.4849
 10
-78.3117
 20
20.4862
 10
-78.62130000000001
 20
20.483
 10
-78.9473
 20
20.4749
 10
-79.28959999999999
 20
20.4615
 10
-79.64830000000001
 20
20.4421
 10
-80.0232
 20
20.4164
 10
-80.41419999999999
 20
20.3839
 10
-80.8211
 20
20.3441
 10
-81.24379999999999
 20
20.2966
 10
-81.6823
 20
20.2408
 10
-82.1362
 20
20.1763
 10
-82.6056
 20
20.1026
 10
-83.09010000000001
 20
20.0193
 10
-83.5896
 20
19.926
 10
-84.104
 20
19.8221
 10
-84.4085
 20
19.655
 10
-85.58450000000001
 20
13.653
 10
-85.3656
 20
13.3833
 10
-84.9285
 20
13.093
 10
-84.50109999999999
 20
12.818
 10
-84.0838
 20
12.558
 10
-83.67700000000001
 20
12.3127
 10
-83.28100000000001
 20
12.0817
 10
-82.896
 20
11.8645
 10
-82.52249999999999
 20
11.6609
 10
-82.1606
 20
11.4705
 10
-81.8109
 20
11.2929
 10
-81.4734
 20
11.1276
 10
-81.1485
 20
10.9743
 10
-80.8365
 20
10.8327
 10
-80.5377
 20
10.7021
 10
-80.25230000000001
 20
10.5824
 10
-79.98050000000001
 20
10.473
 10
-79.7225
 20
10.3735
 10
-79.4787
 20
10.2835
 10
-79.2492
 20
10.2026
 10
-79.0343
 20
10.1303
 10
-78.83410000000001
 20
10.0661
 10
-78.64879999999999
 20
10.0098
 10
-78.4786
 20
9.960599999999999
 10
-78.3237
 20
9.9184
 10
-78.18429999999999
 20
9.8825
 10
-78.0604
 20
9.852499999999999
 10
-77.9522
 20
9.827999999999999
 10
-77.8599
 20
9.8085
 10
-77.78360000000001
 20
9.7935
 10
-77.72329999999999
 20
9.7826
 10
-77.67919999999999
 20
9.7753
 10
-77.6514
 20
9.771000000000001
 10
-71.76739999999999
 20
9.0305
 10
-72.33329999999999
 20
0
 10
-78.2637
 20
-0.0001
 10
-78.2919
 20
-0.0009
 10
-78.3365
 20
-0.0026
 10
-78.3977
 20
-0.0059
 10
-78.4753
 20
-0.0113
 10
-78.5693
 20
-0.0191
 10
-78.6797
 20
-0.0299
 10
-78.8064
 20
-0.0442
 10
-78.9492
 20
-0.0624
 10
-79.1082
 20
-0.08500000000000001
 10
-79.28319999999999
 20
-0.1125
 10
-79.474
 20
-0.1453
 10
-79.6807
 20
-0.1839
 10
-79.90300000000001
 20
-0.2288
 10
-80.1408
 20
-0.2805
 10
-80.3939
 20
-0.3393
 10
-80.6622
 20
-0.4058
 10
-80.9455
 20
-0.4804
 10
-81.2437
 20
-0.5636
 10
-81.5565
 20
-0.6558
 10
-81.8837
 20
-0.7574
 10
-82.2252
 20
-0.8689
 10
-82.5806
 20
-0.9908
 10
-82.9499
 20
-1.1234
 10
-83.3326
 20
-1.2671
 10
-83.7287
 20
-1.4225
 10
-84.1377
 20
-1.5898
 10
-84.5595
 20
-1.7696
 10
-84.99379999999999
 20
-1.9623
 10
-85.44029999999999
 20
-2.1681
 10
-85.8986
 20
-2.3876
 10
-86.3686
 20
-2.621
 10
-86.6194
 20
-2.8613
 10
-86.20189999999999
 20
-8.963100000000001
 10
-85.9207
 20
-9.167
 10
-85.4233
 20
-9.334300000000001
 10
-84.93940000000001
 20
-9.4893
 10
-84.46899999999999
 20
-9.632400000000001
 10
-84.01260000000001
 20
-9.763999999999999
 10
-83.5702
 20
-9.8847
 10
-83.1421
 20
-9.9948
 10
-82.7286
 20
-10.0948
 10
-82.32989999999999
 20
-10.1851
 10
-81.946
 20
-10.2661
 10
-81.57729999999999
 20
-10.3384
 10
-81.2238
 20
-10.4024
 10
-80.8858
 20
-10.4585
 10
-80.5634
 20
-10.5072
 10
-80.25660000000001
 20
-10.549
 10
-79.9658
 20
-10.5843
 10
-79.6909
 20
-10.6137
 10
-79.43210000000001
 20
-10.6375
 10
-79.1895
 20
-10.6563
 10
-78.9632
 20
-10.6705
 10
-78.75320000000001
 20
-10.6806
 10
-78.5596
 20
-10.6871
 10
-78.3826
 20
-10.6905
 10
-78.22199999999999
 20
-10.6913
 10
-78.078
 20
-10.6898
 10
-77.95059999999999
 20
-10.6867
 10
-77.83969999999999
 20
-10.6824
 10
-77.74550000000001
 20
-10.6773
 10
-77.6679
 20
-10.672
 10
-77.6069
 20
-10.667
 10
-77.5624
 20
-10.6627
 10
-77.53440000000001
 20
-10.6596
 10
-71.6593
 20
-9.852
 10
-69.8686
 20
-18.7212
 10
-75.59690000000001
 20
-20.2563
 10
-75.62390000000001
 20
-20.2642
 10
-75.6666
 20
-20.2775
 10
-75.7248
 20
-20.2966
 10
-75.7984
 20
-20.3218
 10
-75.88720000000001
 20
-20.3537
 10
-75.991
 20
-20.3927
 10
-76.1097
 20
-20.4393
 10
-76.24290000000001
 20
-20.4938
 10
-76.39060000000001
 20
-20.5568
 10
-76.55249999999999
 20
-20.6286
 10
-76.72839999999999
 20
-20.7097
 10
-76.91800000000001
 20
-20.8005
 10
-77.1211
 20
-20.9014
 10
-77.3374
 20
-21.0129
 10
-77.5667
 20
-21.1352
 10
-77.8087
 20
-21.2689
 10
-78.063
 20
-21.4143
 10
-78.3295
 20
-21.5718
 10
-78.6078
 20
-21.7418
 10
-78.8976
 20
-21.9247
 10
-79.1985
 20
-22.1208
 10
-79.5103
 20
-22.3305
 10
-79.8327
 20
-22.5541
 10
-80.1652
 20
-22.792
 10
-80.50749999999999
 20
-23.0446
 10
-80.8593
 20
-23.3121
 10
-81.22020000000001
 20
-23.595
 10
-81.5898
 20
-23.8934
 10
-81.9678
 20
-24.2078
 10
-82.3537
 20
-24.5384
 10
-82.74720000000001
 20
-24.8856
 10
-82.92740000000001
 20
-25.1826
 10
-80.9448
 20
-30.9684
 10
-80.6204
 20
-31.0925
 10
-80.0967
 20
-31.1254
 10
-79.5891
 20
-31.1498
 10
-79.09780000000001
 20
-31.1663
 10
-78.6228
 20
-31.1754
 10
-78.1643
 20
-31.1775
 10
-77.7223
 20
-31.173
 10
-77.297
 20
-31.1626
 10
-76.88849999999999
 20
-31.1466
 10
-76.4967
 20
-31.1255
 10
-76.12179999999999
 20
-31.0999
 10
-75.76390000000001
 20
-31.0702
 10
-75.4228
 20
-31.0369
 10
-75.0988
 20
-31.0005
 10
-74.79170000000001
 20
-30.9615
 10
-74.5016
 20
-30.9204
 10
-74.2285
 20
-30.8776
 10
-73.97239999999999
 20
-30.8336
 10
-73.7332
 20
-30.7889
 10
-73.51090000000001
 20
-30.7441
 10
-73.30540000000001
 20
-30.6995
 10
-73.1168
 20
-30.6557
 10
-72.9448
 20
-30.6131
 10
-72.7895
 20
-30.5723
 10
-72.6508
 20
-30.5336
 10
-72.52849999999999
 20
-30.4977
 10
-72.4226
 20
-30.4648
 10
-72.3329
 20
-30.4355
 10
-72.2593
 20
-30.4103
 10
-72.2016
 20
-30.3897
 10
-72.1598
 20
-30.374
 10
-72.1336
 20
-30.3637
 10
-66.6677
 20
-28.063
 10
-62.6425
 20
-36.1667
 10
-67.7783
 20
-39.132
 10
-67.8023
 20
-39.1467
 10
-67.84010000000001
 20
-39.1705
 10
-67.8914
 20
-39.204
 10
-67.956
 20
-39.2474
 10
-68.0335
 20
-39.3012
 10
-68.1237
 20
-39.3658
 10
-68.22620000000001
 20
-39.4414
 10
-68.3408
 20
-39.5286
 10
-68.46720000000001
 20
-39.6277
 10
-68.605
 20
-39.739
 10
-68.7539
 20
-39.8628
 10
-68.9135
 20
-39.9996
 10
-69.0836
 20
-40.1496
 10
-69.2637
 20
-40.3133
 10
-69.45350000000001
 20
-40.4908
 10
-69.65260000000001
 20
-40.6825
 10
-69.86069999999999
 20
-40.8888
 10
-70.07729999999999
 20
-41.1099
 10
-70.3021
 20
-41.3462
 10
-70.5347
 20
-41.5978
 10
-70.77460000000001
 20
-41.8651
 10
-71.02160000000001
 20
-42.1484
 10
-71.27500000000001
 20
-42.4478
 10
-71.5346
 20
-42.7637
 10
-71.79989999999999
 20
-43.0962
 10
-72.0705
 20
-43.4457
 10
-72.3459
 20
-43.8123
 10
-72.62569999999999
 20
-44.1963
 10
-72.90940000000001
 20
-44.5978
 10
-73.1966
 20
-45.017
 10
-73.4868
 20
-45.4542
 10
-73.584
 20
-45.7877
 10
-70.17149999999999
 20
-50.8633
 10
-69.82599999999999
 20
-50.8992
 10
-69.3116
 20
-50.7954
 10
-68.815
 20
-50.6876
 10
-68.3361
 20
-50.5764
 10
-67.875
 20
-50.4622
 10
-67.4316
 20
-50.3455
 10
-67.00579999999999
 20
-50.2268
 10
-66.5977
 20
-50.1067
 10
-66.2072
 20
-49.9855
 10
-65.8343
 20
-49.8637
 10
-65.47880000000001
 20
-49.742
 10
-65.1407
 20
-49.6206
 10
-64.8199
 20
-49.5002
 10
-64.5163
 20
-49.3812
 10
-64.2298
 20
-49.264
 10
-63.9602
 20
-49.1492
 10
-63.7075
 20
-49.0372
 10
-63.4715
 20
-48.9284
 10
-63.252
 20
-48.8234
 10
-63.0489
 20
-48.7225
 10
-62.862
 20
-48.6263
 10
-62.6911
 20
-48.5352
 10
-62.536
 20
-48.4495
 10
-62.3966
 20
-48.3699
 10
-62.2726
 20
-48.2966
 10
-62.1638
 20
-48.2302
 10
-62.07
 20
-48.1711
 10
-61.9909
 20
-48.1196
 10
-61.9264
 20
-48.0762
 10
-61.876
 20
-48.0413
 10
-61.8397
 20
-48.0153
 10
-61.817
 20
-47.9986
 10
-57.1328
 20
-44.3617
 10
-51.1474
 20
-51.1474
 10
-55.3407
 20
-55.3409
 10
-55.3601
 20
-55.3613
 10
-55.3904
 20
-55.3941
 10
-55.4313
 20
-55.4397
 10
-55.4824
 20
-55.4984
 10
-55.5434
 20
-55.5704
 10
-55.6138
 20
-55.6561
 10
-55.6933
 20
-55.7558
 10
-55.7814
 20
-55.8696
 10
-55.8778
 20
-55.998
 10
-55.9821
 20
-56.1412
 10
-56.0939
 20
-56.2993
 10
-56.2127
 20
-56.4728
 10
-56.3381
 20
-56.6617
 10
-56.4698
 20
-56.8664
 10
-56.6071
 20
-57.087
 10
-56.7498
 20
-57.3237
 10
-56.8974
 20
-57.5769
 10
-57.0494
 20
-57.8465
 10
-57.2054
 20
-58.1329
 10
-57.365
 20
-58.4361
 10
-57.5276
 20
-58.7564
 10
-57.6928
 20
-59.0939
 10
-57.8601
 20
-59.4488
 10
-58.0291
 20
-59.8211
 10
-58.1993
 20
-60.211
 10
-58.3702
 20
-60.6185
 10
-58.5413
 20
-61.0439
 10
-58.7122
 20
-61.4872
 10
-58.8823
 20
-61.9485
 10
-59.0512
 20
-62.4278
 10
-59.2184
 20
-62.9251
 10
-59.2259
 20
-63.2724
 10
-54.6161
 20
-67.2919
 10
-54.2731
 20
-67.2371
 10
-53.8031
 20
-67.00369999999999
 10
-53.3513
 20
-66.7711
 10
-52.9175
 20
-66.5397
 10
-52.5016
 20
-66.31010000000001
 10
-52.1035
 20
-66.0826
 10
-51.723
 20
-65.8578
 10
-51.3599
 20
-65.6361
 10
-51.0141
 20
-65.4179
 10
-50.6853
 20
-65.2038
 10
-50.3735
 20
-64.99420000000001
 10
-50.0783
 20
-64.7895
 10
-49.7996
 20
-64.5902
 10
-49.5372
 20
-64.39660000000001
 10
-49.2907
 20
-64.2093
 10
-49.0601
 20
-64.0286
 10
-48.845
 20
-63.855
 10
-48.6451
 20
-63.6888
 10
-48.4603
 20
-63.5306
 10
-48.2902
 20
-63.3806
 10
-48.1346
 20
-63.2393
 10
-47.9931
 20
-63.107
 10
-47.8655
 20
-62.9842
 10
-47.7514
 20
-62.8712
 10
-47.6506
 20
-62.7683
 10
-47.5627
 20
-62.676
 10
-47.4874
 20
-62.5946
 10
-47.4244
 20
-62.5244
 10
-47.3732
 20
-62.4658
 10
-47.3336
 20
-62.419
 10
-47.3052
 20
-62.3845
 10
-47.2877
 20
-62.3625
 10
-43.7044
 20
-57.6371
 10
-36.1667
 20
-62.6425
 10
-39.1317
 20
-67.7784
 10
-39.1452
 20
-67.8032
 10
-39.166
 20
-67.84269999999999
 10
-39.1937
 20
-67.8973
 10
-39.2279
 20
-67.96720000000001
 10
-39.2681
 20
-68.0526
 10
-39.3139
 20
-68.1536
 10
-39.3649
 20
-68.2704
 10
-39.4206
 20
-68.4032
 10
-39.4805
 20
-68.5522
 10
-39.5442
 20
-68.7175
 10
-39.6112
 20
-68.89919999999999
 10
-39.6811
 20
-69.09739999999999
 10
-39.7533
 20
-69.3124
 10
-39.8275
 20
-69.5442
 10
-39.9031
 20
-69.7928
 10
-39.9797
 20
-70.05840000000001
 10
-40.0567
 20
-70.3411
 10
-40.1338
 20
-70.6409
 10
-40.2103
 20
-70.9579
 10
-40.2859
 20
-71.2921
 10
-40.3601
 20
-71.64360000000001
 10
-40.4323
 20
-72.0123
 10
-40.5021
 20
-72.3984
 10
-40.569
 20
-72.8017
 10
-40.6324
 20
-73.22239999999999
 10
-40.692
 20
-73.66030000000001
 10
-40.7472
 20
-74.1155
 10
-40.7975
 20
-74.5879
 10
-40.8425
 20
-75.0775
 10
-40.8816
 20
-75.5842
 10
-40.9144
 20
-76.1079
 10
-40.8318
 20
-76.4453
 10
-35.3387
 20
-79.13460000000001
 10
-35.0215
 20
-78.99299999999999
 10
-34.628
 20
-78.6459
 10
-34.2517
 20
-78.3043
 10
-33.8926
 20
-77.96850000000001
 10
-33.5504
 20
-77.639
 10
-33.2247
 20
-77.3163
 10
-32.9153
 20
-77.00060000000001
 10
-32.622
 20
-76.6925
 10
-32.3444
 20
-76.39230000000001
 10
-32.0823
 20
-76.10039999999999
 10
-31.8353
 20
-75.8172
 10
-31.6032
 20
-75.5431
 10
-31.3856
 20
-75.2784
 10
-31.1822
 20
-75.0235
 10
-30.9926
 20
-74.7788
 10
-30.8166
 20
-74.5446
 10
-30.6537
 20
-74.3212
 10
-30.5037
 20
-74.10899999999999
 10
-30.3661
 20
-73.9083
 10
-30.2407
 20
-73.71939999999999
 10
-30.1269
 20
-73.54259999999999
 10
-30.0245
 20
-73.37820000000001
 10
-29.933
 20
-73.2265
 10
-29.8521
 20
-73.0879
 10
-29.7813
 20
-72.9624
 10
-29.7203
 20
-72.8505
 10
-29.6687
 20
-72.75239999999999
 10
-29.6259
 20
-72.6683
 10
-29.5917
 20
-72.5984
 10
-29.5655
 20
-72.54300000000001
 10
-29.547
 20
-72.50230000000001
 10
-29.5358
 20
-72.4765
 10
-27.2976
 20
-66.9847
 10
-18.7212
 20
-69.8686
 10
-20.256
 20
-75.59699999999999
 10
-20.2626
 20
-75.62430000000001
 10
-20.2724
 20
-75.6679
 10
-20.2851
 20
-75.72790000000001
 10
-20.3
 20
-75.80419999999999
 10
-20.3168
 20
-75.89709999999999
 10
-20.3349
 20
-76.0065
 10
-20.3539
 20
-76.13249999999999
 10
-20.3733
 20
-76.2752
 10
-20.3926
 20
-76.4346
 10
-20.4114
 20
-76.6108
 10
-20.4291
 20
-76.8036
 10
-20.4452
 20
-77.0132
 10
-20.4594
 20
-77.2396
 10
-20.4711
 20
-77.48260000000001
 10
-20.4797
 20
-77.7424
 10
-20.4849
 20
-78.0187
 10
-20.4862
 20
-78.3117
 10
-20.483
 20
-78.62130000000001
 10
-20.4749
 20
-78.9473
 10
-20.4615
 20
-79.28959999999999
 10
-20.4421
 20
-79.64830000000001
 10
-20.4164
 20
-80.0232
 10
-20.3839
 20
-80.41419999999999
 10
-20.3441
 20
-80.8211
 10
-20.2966
 20
-81.24379999999999
 10
-20.2408
 20
-81.6823
 10
-20.1763
 20
-82.1362
 10
-20.1026
 20
-82.6056
 10
-20.0193
 20
-83.09010000000001
 10
-19.926
 20
-83.5896
 10
-19.8221
 20
-84.104
 10
-19.655
 20
-84.4085
 10
-13.653
 20
-85.58450000000001
 10
-13.3833
 20
-85.3656
 10
-13.093
 20
-84.9285
 10
-12.818
 20
-84.50109999999999
 10
-12.558
 20
-84.0838
 10
-12.3127
 20
-83.67700000000001
 10
-12.0817
 20
-83.28100000000001
 10
-11.8645
 20
-82.896
 10
-11.6609
 20
-82.52249999999999
 10
-11.4705
 20
-82.1606
 10
-11.2929
 20
-81.8109
 10
-11.1276
 20
-81.4734
 10
-10.9743
 20
-81.1485
 10
-10.8327
 20
-80.8365
 10
-10.7021
 20
-80.5377
 10
-10.5824
 20
-80.25230000000001
 10
-10.473
 20
-79.98050000000001
 10
-10.3735
 20
-79.7225
 10
-10.2835
 20
-79.4787
 10
-10.2026
 20
-79.2492
 10
-10.1303
 20
-79.0343
 10
-10.0661
 20
-78.83410000000001
 10
-10.0098
 20
-78.64879999999999
 10
-9.960599999999999
 20
-78.4786
 10
-9.9184
 20
-78.3237
 10
-9.8825
 20
-78.18429999999999
 10
-9.852499999999999
 20
-78.0604
 10
-9.827999999999999
 20
-77.9522
 10
-9.8085
 20
-77.8599
 10
-9.7935
 20
-77.78360000000001
 10
-9.7826
 20
-77.72329999999999
 10
-9.7753
 20
-77.67919999999999
 10
-9.771000000000001
 20
-77.6514
 10
-9.0305
 20
-71.76739999999999
 10
0
 20
-72.33329999999999
 10
0.0001
 20
-78.2637
 10
0.0009
 20
-78.2919
 10
0.0026
 20
-78.3365
 10
0.0059
 20
-78.3977
 10
0.0113
 20
-78.4753
 10
0.0191
 20
-78.5693
 10
0.0299
 20
-78.6797
 10
0.0442
 20
-78.8064
 10
0.0624
 20
-78.9492
 10
0.08500000000000001
 20
-79.1082
 10
0.1125
 20
-79.28319999999999
 10
0.1453
 20
-79.474
 10
0.1839
 20
-79.6807
 10
0.2288
 20
-79.90300000000001
 10
0.2805
 20
-80.1408
 10
0.3393
 20
-80.3939
 10
0.4058
 20
-80.6622
 10
0.4804
 20
-80.9455
 10
0.5636
 20
-81.2437
 10
0.6558
 20
-81.5565
 10
0.7574
 20
-81.8837
 10
0.8689
 20
-82.2252
 10
0.9908
 20
-82.5806
 10
1.1234
 20
-82.9499
 10
1.2671
 20
-83.3326
 10
1.4225
 20
-83.7287
 10
1.5898
 20
-84.1377
 10
1.7696
 20
-84.5595
 10
1.9623
 20
-84.99379999999999
 10
2.1681
 20
-85.44029999999999
 10
2.3876
 20
-85.8986
 10
2.621
 20
-86.3686
 10
2.8613
 20
-86.6194
 10
8.963100000000001
 20
-86.20189999999999
 10
9.167
 20
-85.9207
 10
9.334300000000001
 20
-85.4233
 10
9.4893
 20
-84.93940000000001
 10
9.632400000000001
 20
-84.46899999999999
 10
9.763999999999999
 20
-84.01260000000001
 10
9.8847
 20
-83.5702
 10
9.9948
 20
-83.1421
 10
10.0948
 20
-82.7286
 10
10.1851
 20
-82.32989999999999
 10
10.2661
 20
-81.946
 10
10.3384
 20
-81.57729999999999
 10
10.4024
 20
-81.2238
 10
10.4585
 20
-80.8858
 10
10.5072
 20
-80.5634
 10
10.549
 20
-80.25660000000001
 10
10.5843
 20
-79.9658
 10
10.6137
 20
-79.6909
 10
10.6375
 20
-79.43210000000001
 10
10.6563
 20
-79.1895
 10
10.6705
 20
-78.9632
 10
10.6806
 20
-78.75320000000001
 10
10.6871
 20
-78.5596
 10
10.6905
 20
-78.3826
 10
10.6913
 20
-78.22199999999999
 10
10.6898
 20
-78.078
 10
10.6867
 20
-77.95059999999999
 10
10.6824
 20
-77.83969999999999
 10
10.6773
 20
-77.74550000000001
 10
10.672
 20
-77.6679
 10
10.667
 20
-77.6069
 10
10.6627
 20
-77.5624
 10
10.6596
 20
-77.53440000000001
 10
9.852
 20
-71.6593
 10
18.7212
 20
-69.8686
 10
20.2563
 20
-75.59690000000001
 10
20.2642
 20
-75.62390000000001
 10
20.2775
 20
-75.6666
 10
20.2966
 20
-75.7248
 10
20.3218
 20
-75.7984
 10
20.3537
 20
-75.88720000000001
 10
20.3927
 20
-75.991
 10
20.4393
 20
-76.1097
 10
20.4938
 20
-76.24290000000001
 10
20.5568
 20
-76.39060000000001
 10
20.6286
 20
-76.55249999999999
 10
20.7097
 20
-76.72839999999999
 10
20.8005
 20
-76.91800000000001
 10
20.9014
 20
-77.1211
 10
21.0129
 20
-77.3374
 10
21.1352
 20
-77.5667
 10
21.2689
 20
-77.8087
 10
21.4143
 20
-78.063
 10
21.5718
 20
-78.3295
 10
21.7418
 20
-78.6078
 10
21.9247
 20
-78.8976
 10
22.1208
 20
-79.1985
 10
22.3305
 20
-79.5103
 10
22.5541
 20
-79.8327
 10
22.792
 20
-80.1652
 10
23.0446
 20
-80.50749999999999
 10
23.3121
 20
-80.8593
 10
23.595
 20
-81.22020000000001
 10
23.8934
 20
-81.5898
 10
24.2078
 20
-81.9678
 10
24.5384
 20
-82.3537
 10
24.8856
 20
-82.74720000000001
 10
25.1826
 20
-82.92740000000001
 10
30.9684
 20
-80.9448
 10
31.0925
 20
-80.6204
 10
31.1254
 20
-80.0967
 10
31.1498
 20
-79.5891
 10
31.1663
 20
-79.09780000000001
 10
31.1754
 20
-78.6228
 10
31.1775
 20
-78.1643
 10
31.173
 20
-77.7223
 10
31.1626
 20
-77.297
 10
31.1466
 20
-76.88849999999999
 10
31.1255
 20
-76.4967
 10
31.0999
 20
-76.12179999999999
 10
31.0702
 20
-75.76390000000001
 10
31.0369
 20
-75.4228
 10
31.0005
 20
-75.0988
 10
30.9615
 20
-74.79170000000001
 10
30.9204
 20
-74.5016
 10
30.8776
 20
-74.2285
 10
30.8336
 20
-73.97239999999999
 10
30.7889
 20
-73.7332
 10
30.7441
 20
-73.51090000000001
 10
30.6995
 20
-73.30540000000001
 10
30.6557
 20
-73.1168
 10
30.6131
 20
-72.9448
 10
30.5723
 20
-72.7895
 10
30.5336
 20
-72.6508
 10
30.4977
 20
-72.52849999999999
 10
30.4648
 20
-72.4226
 10
30.4355
 20
-72.3329
 10
30.4103
 20
-72.2593
 10
30.3897
 20
-72.2016
 10
30.374
 20
-72.1598
 10
30.3637
 20
-72.1336
 10
28.063
 20
-66.6677
 10
36.1667
 20
-62.6425
 10
39.132
 20
-67.7783
 10
39.1467
 20
-67.8023
 10
39.1705
 20
-67.84010000000001
 10
39.204
 20
-67.8914
 10
39.2474
 20
-67.956
 10
39.3012
 20
-68.0335
 10
39.3658
 20
-68.1237
 10
39.4414
 20
-68.22620000000001
 10
39.5286
 20
-68.3408
 10
39.6277
 20
-68.46720000000001
 10
39.739
 20
-68.605
 10
39.8628
 20
-68.7539
 10
39.9996
 20
-68.9135
 10
40.1496
 20
-69.0836
 10
40.3133
 20
-69.2637
 10
40.4908
 20
-69.45350000000001
 10
40.6825
 20
-69.65260000000001
 10
40.8888
 20
-69.86069999999999
 10
41.1099
 20
-70.07729999999999
 10
41.3462
 20
-70.3021
 10
41.5978
 20
-70.5347
 10
41.8651
 20
-70.77460000000001
 10
42.1484
 20
-71.02160000000001
 10
42.4478
 20
-71.27500000000001
 10
42.7637
 20
-71.5346
 10
43.0962
 20
-71.79989999999999
 10
43.4457
 20
-72.0705
 10
43.8123
 20
-72.3459
 10
44.1963
 20
-72.62569999999999
 10
44.5978
 20
-72.90940000000001
 10
45.017
 20
-73.1966
 10
45.4542
 20
-73.4868
 10
45.7877
 20
-73.584
 10
50.8633
 20
-70.17149999999999
 10
50.8992
 20
-69.82599999999999
 10
50.7954
 20
-69.3116
 10
50.6876
 20
-68.815
 10
50.5764
 20
-68.3361
 10
50.4622
 20
-67.875
 10
50.3455
 20
-67.4316
 10
50.2268
 20
-67.00579999999999
 10
50.1067
 20
-66.5977
 10
49.9855
 20
-66.2072
 10
49.8637
 20
-65.8343
 10
49.742
 20
-65.47880000000001
 10
49.6206
 20
-65.1407
 10
49.5002
 20
-64.8199
 10
49.3812
 20
-64.5163
 10
49.264
 20
-64.2298
 10
49.1492
 20
-63.9602
 10
49.0372
 20
-63.7075
 10
48.9284
 20
-63.4715
 10
48.8234
 20
-63.252
 10
48.7225
 20
-63.0489
 10
48.6263
 20
-62.862
 10
48.5352
 20
-62.6911
 10
48.4495
 20
-62.536
 10
48.3699
 20
-62.3966
 10
48.2966
 20
-62.2726
 10
48.2302
 20
-62.1638
 10
48.1711
 20
-62.07
 10
48.1196
 20
-61.9909
 10
48.0762
 20
-61.9264
 10
48.0413
 20
-61.876
 10
48.0153
 20
-61.8397
 10
47.9986
 20
-61.817
 10
44.3617
 20
-57.1328
 10
51.1474
 20
-51.1474
 10
55.3409
 20
-55.3407
 10
55.3613
 20
-55.3601
 10
55.3941
 20
-55.3904
 10
55.4397
 20
-55.4313
 10
55.4984
 20
-55.4824
 10
55.5704
 20
-55.5434
 10
55.6561
 20
-55.6138
 10
55.7558
 20
-55.6933
 10
55.8696
 20
-55.7814
 10
55.998
 20
-55.8778
 10
56.1412
 20
-55.9821
 10
56.2993
 20
-56.0939
 10
56.4728
 20
-56.2127
 10
56.6617
 20
-56.3381
 10
56.8664
 20
-56.4698
 10
57.087
 20
-56.6071
 10
57.3237
 20
-56.7498
 10
57.5769
 20
-56.8974
 10
57.8465
 20
-57.0494
 10
58.1329
 20
-57.2054
 10
58.4361
 20
-57.365
 10
58.7564
 20
-57.5276
 10
59.0939
 20
-57.6928
 10
59.4488
 20
-57.8601
 10
59.8211
 20
-58.0291
 10
60.211
 20
-58.1993
 10
60.6185
 20
-58.3702
 10
61.0439
 20
-58.5413
 10
61.4872
 20
-58.7122
 10
61.9485
 20
-58.8823
 10
62.4278
 20
-59.0512
 10
62.9251
 20
-59.2184
 10
63.2724
 20
-59.2259
 10
67.2919
 20
-54.6161
 10
67.2371
 20
-54.2731
 10
67.00369999999999
 20
-53.8031
 10
66.7711
 20
-53.3513
 10
66.5397
 20
-52.9175
 10
66.31010000000001
 20
-52.5016
 10
66.0826
 20
-52.1035
 10
65.8578
 20
-51.723
 10
65.6361
 20
-51.3599
 10
65.4179
 20
-51.0141
 10
65.2038
 20
-50.6853
 10
64.99420000000001
 20
-50.3735
 10
64.7895
 20
-50.0783
 10
64.5902
 20
-49.7996
 10
64.39660000000001
 20
-49.5372
 10
64.2093
 20
-49.2907
 10
64.0286
 20
-49.0601
 10
63.855
 20
-48.845
 10
63.6888
 20
-48.6451
 10
63.5306
 20
-48.4603
 10
63.3806
 20
-48.2902
 10
63.2393
 20
-48.1346
 10
63.107
 20
-47.9931
 10
62.9842
 20
-47.8655
 10
62.8712
 20
-47.7514
 10
62.7683
 20
-47.6506
 10
62.676
 20
-47.5627
 10
62.5946
 20
-47.4874
 10
62.5244
 20
-47.4244
 10
62.4658
 20
-47.3732
 10
62.419
 20
-47.3336
 10
62.3845
 20
-47.3052
 10
62.3625
 20
-47.2877
 10
57.6371
 20
-43.7044
 10
62.6425
 20
-36.1667
 10
67.7784
 20
-39.1317
 10
67.8032
 20
-39.1452
 10
67.84269999999999
 20
-39.166
 10
67.8973
 20
-39.1937
 10
67.96720000000001
 20
-39.2279
 10
68.0526
 20
-39.2681
 10
68.1536
 20
-39.3139
 10
68.2704
 20
-39.3649
 10
68.4032
 20
-39.4206
 10
68.5522
 20
-39.4805
 10
68.7175
 20
-39.5442
 10
68.89919999999999
 20
-39.6112
 10
69.09739999999999
 20
-39.6811
 10
69.3124
 20
-39.7533
 10
69.5442
 20
-39.8275
 10
69.7928
 20
-39.9031
 10
70.05840000000001
 20
-39.9797
 10
70.3411
 20
-40.0567
 10
70.6409
 20
-40.1338
 10
70.9579
 20
-40.2103
 10
71.2921
 20
-40.2859
 10
71.64360000000001
 20
-40.3601
 10
72.0123
 20
-40.4323
 10
72.3984
 20
-40.5021
 10
72.8017
 20
-40.569
 10
73.22239999999999
 20
-40.6324
 10
73.66030000000001
 20
-40.692
 10
74.1155
 20
-40.7472
 10
74.5879
 20
-40.7975
 10
75.0775
 20
-40.8425
 10
75.5842
 20
-40.8816
 10
76.1079
 20
-40.9144
 10
76.4453
 20
-40.8318
 10
79.13460000000001
 20
-35.3387
 10
78.99299999999999
 20
-35.0215
 10
78.6459
 20
-34.628
 10
78.3043
 20
-34.2517
 10
77.96850000000001
 20
-33.8926
 10
77.639
 20
-33.5504
 10
77.3163
 20
-33.2247
 10
77.00060000000001
 20
-32.9153
 10
76.6925
 20
-32.622
 10
76.39230000000001
 20
-32.3444
 10
76.10039999999999
 20
-32.0823
 10
75.8172
 20
-31.8353
 10
75.5431
 20
-31.6032
 10
75.2784
 20
-31.3856
 10
75.0235
 20
-31.1822
 10
74.7788
 20
-30.9926
 10
74.5446
 20
-30.8166
 10
74.3212
 20
-30.6537
 10
74.10899999999999
 20
-30.5037
 10
73.9083
 20
-30.3661
 10
73.71939999999999
 20
-30.2407
 10
73.54259999999999
 20
-30.1269
 10
73.37820000000001
 20
-30.0245
 10
73.2265
 20
-29.933
 10
73.0879
 20
-29.8521
 10
72.9624
 20
-29.7813
 10
72.8505
 20
-29.7203
 10
72.75239999999999
 20
-29.6687
 10
72.6683
 20
-29.6259
 10
72.5984
 20
-29.5917
 10
72.54300000000001
 20
-29.5655
 10
72.50230000000001
 20
-29.547
 10
72.4765
 20
-29.5358
 10
66.9847
 20
-27.2976
 10
69.8686
 20
-18.7212
 10
75.59699999999999
 20
-20.256
 10
75.62430000000001
 20
-20.2626
 10
75.6679
 20
-20.2724
 10
75.72790000000001
 20
-20.2851
 10
75.80419999999999
 20
-20.3
 10
75.89709999999999
 20
-20.3168
 10
76.0065
 20
-20.3349
 10
76.13249999999999
 20
-20.3539
 10
76.2752
 20
-20.3733
 10
76.4346
 20
-20.3926
 10
76.6108
 20
-20.4114
 10
76.8036
 20
-20.4291
 10
77.0132
 20
-20.4452
 10
77.2396
 20
-20.4594
 10
77.48260000000001
 20
-20.4711
 10
77.7424
 20
-20.4797
 10
78.0187
 20
-20.4849
 10
78.3117
 20
-20.4862
 10
78.62130000000001
 20
-20.483
 10
78.9473
 20
-20.4749
 10
79.28959999999999
 20
-20.4615
 10
79.64830000000001
 20
-20.4421
 10
80.0232
 20
-20.4164
 10
80.41419999999999
 20
-20.3839
 10
80.8211
 20
-20.3441
 10
81.24379999999999
 20
-20.2966
 10
81.6823
 20
-20.2408
 10
82.1362
 20
-20.1763
 10
82.6056
 20
-20.1026
 10
83.09010000000001
 20
-20.0193
 10
83.5896
 20
-19.926
 10
84.104
 20
-19.8221
 10
84.4085
 20
-19.655
 10
85.58450000000001
 20
-13.653
 10
85.3656
 20
-13.3833
 10
84.9285
 20
-13.093
 10
84.50109999999999
 20
-12.818
 10
84.0838
 20
-12.558
 10
83.67700000000001
 20
-12.3127
 10
83.28100000000001
 20
-12.0817
 10
82.896
 20
-11.8645
 10
82.52249999999999
 20
-11.6609
 10
82.1606
 20
-11.4705
 10
81.8109
 20
-11.2929
 10
81.4734
 20
-11.1276
 10
81.1485
 20
-10.9743
 10
80.8365
 20
-10.8327
 10
80.5377
 20
-10.7021
 10
80.25230000000001
 20
-10.5824
 10
79.98050000000001
 20
-10.473
 10
79.7225
 20
-10.3735
 10
79.4787
 20
-10.2835
 10
79.2492
 20
-10.2026
 10
79.0343
 20
-10.1303
 10
78.83410000000001
 20
-10.0661
 10
78.64879999999999
 20
-10.0098
 10
78.4786
 20
-9.960599999999999
 10
78.3237
 20
-9.9184
 10
78.18429999999999
 20
-9.8825
 10
78.0604
 20
-9.852499999999999
 10
77.9522
 20
-9.827999999999999
 10
77.8599
 20
-9.8085
 10
77.78360000000001
 20
-9.7935
 10
77.72329999999999
 20
-9.7826
 10
77.67919999999999
 20
-9.7753
 10
77.6514
 20
-9.771000000000001
 10
71.76739999999999
 20
-9.0305
  0
CIRCLE
  5
51
100
AcDbEntity
  8
gear
  6
ByLayer
 62
  256
370
   -1
100
AcDbCircle
 10
0
 20
0
 40
8
  0
ENDSEC
  0
SECTION
  2
OBJECTS
  0
DICTIONARY
  5
C
330
0
100
AcDbDictionary
281
    1
  3
ACAD_GROUP
350
D
  0
DICTIONARY
  5
D
330
C
100
AcDbDictionary
281
    1
  0
ENDSEC
  0
EOF
