999
dxfrw 0.6.3
  0
SECTION
  2
HEADER
  9
$ACADVER
  1
AC1021
  9
$DWGCODEPAGE
  3
ANSI_1252
  9
$INSBASE
 10
0
 20
0
 30
0
  9
$EXTMIN
 10
-46.5325
 20
-46.5325
 30
0
  9
$EXTMAX
 10
46.5325
 20
46.5325
 30
0
  9
$LIMMIN
 10
0
 20
0
  9
$LIMMAX
 10
420
 20
297
  9
$ORTHOMODE
 70
    0
  9
$REGENMODE
 70
    1
  9
$FILLMODE
 70
    1
  9
$QTEXTMODE
 70
    0
  9
$MIRRTEXT
 70
    0
  9
$LTSCALE
 40
1
  9
$ATTMODE
 70
    0
  9
$TEXTSIZE
 40
2.5
  9
$TRACEWID
 40
15.68
  9
$TEXTSTYLE
  7
STANDARD
  9
$CLAYER
  8
text
  9
$CELTYPE
  6
BYLAYER
  9
$CECOLOR
 62
  256
  9
$CELTSCALE
 40
1
  9
$DISPSILH
 70
    0
  9
$DIMSCALE
 40
2.5
  9
$DIMASZ
 40
2.5
  9
$DIMEXO
 40
0.625
  9
$DIMDLI
 40
3.75
  9
$DIMRND
 40
0
  9
$DIMDLE
 40
0
  9
$DIMEXE
 40
1.25
  9
$DIMTP
 40
0
  9
$DIMTM
 40
0
  9
$DIMTXT
 40
2.5
  9
$DIMCEN
 40
2.5
  9
$DIMTSZ
 40
0
  9
$DIMTOL
 70
    0
  9
$DIMLIM
 70
    0
  9
$DIMTIH
 70
    0
  9
$DIMTOH
 70
    0
  9
$DIMSE1
 70
    0
  9
$DIMSE2
 70
    0
  9
$DIMTAD
 70
    1
  9
$DIMZIN
 70
    8
  9
$DIMBLK
  1

  9
$DIMASO
 70
    1
  9
$DIMSHO
 70
    1
  9
$DIMPOST
  1

  9
$DIMAPOST
  1

  9
$DIMALT
 70
    0
  9
$DIMALTD
 70
    3
  9
$DIMALTF
 40
0.03937
  9
$DIMLFAC
 40
1
  9
$DIMTOFL
 70
    1
  9
$DIMTVP
 40
0
  9
$DIMTIX
 70
    0
  9
$DIMSOXD
 70
    0
  9
$DIMSAH
 70
    0
  9
$DIMBLK1
  1

  9
$DIMBLK2
  1

  9
$DIMSTYLE
  2
Standard
  9
$DIMCLRD
 70
    0
  9
$DIMCLRE
 70
    0
  9
$DIMCLRT
 70
    0
  9
$DIMTFAC
 40
1
  9
$DIMGAP
 40
0.625
  9
$DIMJUST
 70
    0
  9
$DIMSD1
 70
    0
  9
$DIMSD2
 70
    0
  9
$DIMTOLJ
 70
    0
  9
$DIMTZIN
 70
    8
  9
$DIMALTZ
 70
    0
  9
$DIMALTTZ
 70
    0
  9
$DIMUPT
 70
    0
  9
$DIMDEC
 70
    2
  9
$DIMTDEC
 70
    2
  9
$DIMALTU
 70
    2
  9
$DIMALTTD
 70
    3
  9
$DIMTXSTY
  7
STANDARD
  9
$DIMAUNIT
 70
    0
  9
$DIMADEC
 70
    0
  9
$DIMALTRND
 40
0
  9
$DIMAZIN
 70
    0
  9
$DIMDSEP
 70
   44
  9
$DIMATFIT
 70
    3
  9
$DIMFRAC
 70
    0
  9
$DIMLDRBLK
  1
STANDARD
  9
$DIMLUNIT
 70
    2
  9
$DIMLWD
 70
   -2
  9
$DIMLWE
 70
   -2
  9
$DIMTMOVE
 70
    0
  9
$DIMFXL
 40
1
  9
$DIMFXLON
 70
    0
  9
$DIMJOGANG
 40
0.7854
  9
$DIMTFILL
 70
    0
  9
$DIMTFILLCLR
 70
    0
  9
$DIMARCSYM
 70
    0
  9
$DIMLTYPE
  6

  9
$DIMLTEX1
  6

  9
$DIMLTEX2
  6

  9
$LUNITS
 70
    2
  9
$LUPREC
 70
    4
  9
$SKETCHINC
 40
1
  9
$FILLETRAD
 40
0
  9
$AUNITS
 70
    0
  9
$AUPREC
 70
    2
  9
$MENU
  1
.
  9
$ELEVATION
 40
0
  9
$PELEVATION
 40
0
  9
$THICKNESS
 40
0
  9
$LIMCHECK
 70
    0
  9
$CHAMFERA
 40
0
  9
$CHAMFERB
 40
0
  9
$CHAMFERC
 40
0
  9
$CHAMFERD
 40
0
  9
$SKPOLY
 70
    0
  9
$USRTIMER
 70
    1
  9
$ANGBASE
 50
0
  9
$ANGDIR
 70
    0
  9
$PDMODE
 70
   34
  9
$PDSIZE
 40
0
  9
$PLINEWID
 40
0
  9
$SPLFRAME
 70
    0
  9
$SPLINETYPE
 70
    2
  9
$SPLINESEGS
 70
    8
  9
$HANDSEED
  5
20000
  9
$SURFTAB1
 70
    6
  9
$SURFTAB2
 70
    6
  9
$SURFTYPE
 70
    6
  9
$SURFU
 70
    6
  9
$SURFV
 70
    6
  9
$UCSBASE
  2

  9
$UCSNAME
  2

  9
$UCSORG
 10
0
 20
0
 30
0
  9
$UCSXDIR
 10
1
 20
0
 30
0
  9
$UCSYDIR
 10
0
 20
1
 30
0
  9
$UCSORTHOREF
  2

  9
$UCSORTHOVIEW
 70
    0
  9
$UCSORGTOP
 10
0
 20
0
 30
0
  9
$UCSORGBOTTOM
 10
0
 20
0
 30
0
  9
$UCSORGLEFT
 10
0
 20
0
 30
0
  9
$UCSORGRIGHT
 10
0
 20
0
 30
0
  9
$UCSORGFRONT
 10
0
 20
0
 30
0
  9
$UCSORGBACK
 10
0
 20
0
 30
0
  9
$PUCSBASE
  2

  9
$PUCSNAME
  2

  9
$PUCSORG
 10
0
 20
0
 30
0
  9
$PUCSXDIR
 10
1
 20
0
 30
0
  9
$PUCSYDIR
 10
0
 20
1
 30
0
  9
$PUCSORTHOREF
  2

  9
$PUCSORTHOVIEW
 70
    0
  9
$PUCSORGTOP
 10
0
 20
0
 30
0
  9
$PUCSORGBOTTOM
 10
0
 20
0
 30
0
  9
$PUCSORGLEFT
 10
0
 20
0
 30
0
  9
$PUCSORGRIGHT
 10
0
 20
0
 30
0
  9
$PUCSORGFRONT
 10
0
 20
0
 30
0
  9
$PUCSORGBACK
 10
0
 20
0
 30
0
  9
$USERI1
 70
    0
  9
$USERI2
 70
    0
  9
$USERI3
 70
    0
  9
$USERI4
 70
    0
  9
$USERI5
 70
    0
  9
$USERR1
 40
0
  9
$USERR2
 40
0
  9
$USERR3
 40
0
  9
$USERR4
 40
0
  9
$USERR5
 40
0
  9
$WORLDVIEW
 70
    1
  9
$SHADEDGE
 70
    3
  9
$SHADEDIF
 70
   70
  9
$TILEMODE
 70
    1
  9
$MAXACTVP
 70
   64
  9
$PINSBASE
 10
0
 20
0
 30
0
  9
$PLIMCHECK
 70
    0
  9
$PEXTMIN
 10
0
 20
0
 30
0
  9
$PEXTMAX
 10
0
 20
0
 30
0
  9
$GRIDMODE
 70
    1
  9
$SNAPSTYLE
 70
    0
  9
$PLIMMIN
 10
0
 20
0
  9
$PLIMMAX
 10
297
 20
210
  9
$UNITMODE
 70
    0
  9
$VISRETAIN
 70
    1
  9
$PLINEGEN
 70
    0
  9
$PSLTSCALE
 70
    1
  9
$TREEDEPTH
 70
 3020
  9
$CMLSTYLE
  2
Standard
  9
$CMLJUST
 70
    0
  9
$CMLSCALE
 40
20
  9
$PROXYGRAPHICS
 70
    1
  9
$MEASUREMENT
 70
    1
  9
$CELWEIGHT
370
   -1
  9
$ENDCAPS
280
    0
  9
$JOINSTYLE
280
    0
  9
$LWDISPLAY
290
    0
  9
$INSUNITS
 70
    4
  9
$HYPERLINKBASE
  1

  9
$STYLESHEET
  1

  9
$XEDIT
290
    1
  9
$CEPSNTYPE
380
    0
  9
$PSTYLEMODE
290
    1
  9
$EXTNAMES
290
    1
  9
$PSVPSCALE
 40
1
  9
$OLESTARTUP
290
    0
  9
$SORTENTS
280
  127
  9
$INDEXCTL
280
    0
  9
$HIDETEXT
280
    1
  9
$XCLIPFRAME
290
    0
  9
$HALOGAP
280
    0
  9
$OBSCOLOR
 70
  257
  9
$OBSLTYPE
280
    0
  9
$INTERSECTIONDISPLAY
280
    0
  9
$INTERSECTIONCOLOR
 70
  257
  9
$DIMASSOC
280
    1
  9
$PROJECTNAME
  1

  9
$CAMERADISPLAY
290
    0
  9
$LENSLENGTH
 40
50
  9
$CAMERAHEIGHT
 40
0
  9
$STEPSPERSEC
 40
2
  9
$STEPSIZE
 40
50
  9
$3DDWFPREC
 40
2
  9
$PSOLWIDTH
 40
5
  9
$PSOLHEIGHT
 40
80
  9
$LOFTANG1
 40
1.570796326794897
  9
$LOFTANG2
 40
1.570796326794897
  9
$LOFTMAG1
 40
0
  9
$LOFTMAG2
 40
0
  9
$LOFTPARAM
 70
    7
  9
$LOFTNORMALS
280
    1
  9
$LATITUDE
 40
1
  9
$LONGITUDE
 40
1
  9
$NORTHDIRECTION
 40
0
  9
$TIMEZONE
 70
-8000
  9
$LIGHTGLYPHDISPLAY
280
    1
  9
$TILEMODELIGHTSYNCH
280
    1
  9
$SOLIDHIST
280
    1
  9
$SHOWHIST
280
    1
  9
$DWFFRAME
280
    2
  9
$DGNFRAME
280
    0
  9
$REALWORLDSCALE
290
    1
  9
$INTERFERECOLOR
 62
    1
  9
$CSHADOW
280
    0
  9
$SHADOWPLANELOCATION
 40
0
  0
ENDSEC
  0
SECTION
  2
CLASSES
  0
ENDSEC
  0
SECTION
  2
TABLES
  0
TABLE
  2
VPORT
  5
8
330
0
100
AcDbSymbolTable
 70
    1
  0
VPORT
  5
31
330
2
100
AcDbSymbolTableRecord
100
AcDbViewportTableRecord
  2
*ACTIVE
 70
    0
 10
0
 20
0
 11
1
 21
1
 12
54.0660512820513
 22
35.74137435897438
 13
0
 23
0
 14
10
 24
10
 15
10
 25
10
 16
0
 26
0
 36
1
 17
0
 27
0
 37
0
 40
135.5365743589744
 41
1.425091352009744
 42
50
 43
0
 44
0
 50
0
 51
0
 71
    0
 72
  100
 73
    1
 74
    3
 75
    0
 76
    1
 77
    0
 78
    0
281
    0
 65
    1
110
0
120
0
130
0
111
1
121
0
131
0
112
0
122
1
132
0
 79
    0
146
0
348
10020
 60
    7
 61
    5
292
1
282
    1
141
0
142
0
 63
  250
421
3358443
  0
ENDTAB
  0
TABLE
  2
LTYPE
  5
5
330
0
100
AcDbSymbolTable
 70
    4
  0
LTYPE
  5
14
330
5
100
AcDbSymbolTableRecord
100
AcDbLinetypeTableRecord
  2
ByBlock
 70
    0
  3

 72
   65
 73
    0
 40
0
  0
LTYPE
  5
15
330
5
100
AcDbSymbolTableRecord
100
AcDbLinetypeTableRecord
  2
ByLayer
 70
    0
  3

 72
   65
 73
    0
 40
0
  0
LTYPE
  5
16
330
5
100
AcDbSymbolTableRecord
100
AcDbLinetypeTableRecord
  2
Continuous
 70
    0
  3
Solid line
 72
   65
 73
    0
 40
0
  0
LTYPE
  5
32
330
5
100
AcDbSymbolTableRecord
100
AcDbLinetypeTableRecord
  2
DOT
 70
    0
  3
Dot . . . . . . . . . . . . . . . . . . . . . .
 72
   65
 73
    2
 40
6.35
 49
0
 74
    0
 49
-6.35
 74
    0
  0
LTYPE
  5
33
330
5
100
AcDbSymbolTableRecord
100
AcDbLinetypeTableRecord
  2
DOTTINY
 70
    0
  3
Dot (.15x) .....................................
 72
   65
 73
    2
 40
0.9525
 49
0
 74
    0
 49
-0.9525
 74
    0
  0
LTYPE
  5
34
330
5
100
AcDbSymbolTableRecord
100
AcDbLinetypeTableRecord
  2
DOT2
 70
    0
  3
Dot (.5x) .....................................
 72
   65
 73
    2
 40
3.175
 49
0
 74
    0
 49
-3.175
 74
    0
  0
LTYPE
  5
35
330
5
100
AcDbSymbolTableRecord
100
AcDbLinetypeTableRecord
  2
DOTX2
 70
    0
  3
Dot (2x) .  .  .  .  .  .  .  .  .  .  .  .  .
 72
   65
 73
    2
 40
12.7
 49
0
 74
    0
 49
-12.7
 74
    0
  0
LTYPE
  5
36
330
5
100
AcDbSymbolTableRecord
100
AcDbLinetypeTableRecord
  2
DASHED
 70
    0
  3
Dashed _ _ _ _ _ _ _ _ _ _ _ _ _ _ _ _ _
 72
   65
 73
    2
 40
19.05
 49
12.7
 74
    0
 49
-6.35
 74
    0
  0
LTYPE
  5
37
330
5
100
AcDbSymbolTableRecord
100
AcDbLinetypeTableRecord
  2
DASHEDTINY
 70
    0
  3
Dashed (.15x) _ _ _ _ _ _ _ _ _ _ _ _ _ _ _ _ _
 72
   65
 73
    2
 40
2.8575
 49
1.905
 74
    0
 49
-0.9525
 74
    0
  0
LTYPE
  5
38
330
5
100
AcDbSymbolTableRecord
100
AcDbLinetypeTableRecord
  2
DASHED2
 70
    0
  3
Dashed (.5x) _ _ _ _ _ _ _ _ _ _ _ _ _ _ _ _ _
 72
   65
 73
    2
 40
9.524999999999999
 49
6.35
 74
    0
 49
-3.175
 74
    0
  0
LTYPE
  5
39
330
5
100
AcDbSymbolTableRecord
100
AcDbLinetypeTableRecord
  2
DASHEDX2
 70
    0
  3
Dashed (2x) ____  ____  ____  ____  ____  ___
 72
   65
 73
    2
 40
38.09999999999999
 49
25.4
 74
    0
 49
-12.7
 74
    0
  0
LTYPE
  5
3A
330
5
100
AcDbSymbolTableRecord
100
AcDbLinetypeTableRecord
  2
DASHDOT
 70
    0
  3
Dash dot __ . __ . __ . __ . __ . __ . __ . __
 72
   65
 73
    4
 40
25.4
 49
12.7
 74
    0
 49
-6.35
 74
    0
 49
0
 74
    0
 49
-6.35
 74
    0
  0
LTYPE
  5
3B
330
5
100
AcDbSymbolTableRecord
100
AcDbLinetypeTableRecord
  2
DASHDOTTINY
 70
    0
  3
Dash dot (.15x) _._._._._._._._._._._._._._._.
 72
   65
 73
    4
 40
3.81
 49
1.905
 74
    0
 49
-0.9525
 74
    0
 49
0
 74
    0
 49
-0.9525
 74
    0
  0
LTYPE
  5
3C
330
5
100
AcDbSymbolTableRecord
100
AcDbLinetypeTableRecord
  2
DASHDOT2
 70
    0
  3
Dash dot (.5x) _._._._._._._._._._._._._._._.
 72
   65
 73
    4
 40
12.7
 49
6.35
 74
    0
 49
-3.175
 74
    0
 49
0
 74
    0
 49
-3.175
 74
    0
  0
LTYPE
  5
3D
330
5
100
AcDbSymbolTableRecord
100
AcDbLinetypeTableRecord
  2
DASHDOTX2
 70
    0
  3
Dash dot (2x) ____  .  ____  .  ____  .  ___
 72
   65
 73
    4
 40
50.8
 49
25.4
 74
    0
 49
-12.7
 74
    0
 49
0
 74
    0
 49
-12.7
 74
    0
  0
LTYPE
  5
3E
330
5
100
AcDbSymbolTableRecord
100
AcDbLinetypeTableRecord
  2
DIVIDE
 70
    0
  3
Divide ____ . . ____ . . ____ . . ____ . . ____
 72
   65
 73
    6
 40
31.75
 49
12.7
 74
    0
 49
-6.35
 74
    0
 49
0
 74
    0
 49
-6.35
 74
    0
 49
0
 74
    0
 49
-6.35
 74
    0
  0
LTYPE
  5
3F
330
5
100
AcDbSymbolTableRecord
100
AcDbLinetypeTableRecord
  2
DIVIDETINY
 70
    0
  3
Divide (.15x) __..__..__..__..__..__..__..__.._
 72
   65
 73
    6
 40
4.7625
 49
1.905
 74
    0
 49
-0.9525
 74
    0
 49
0
 74
    0
 49
-0.9525
 74
    0
 49
0
 74
    0
 49
-0.9525
 74
    0
  0
LTYPE
  5
40
330
5
100
AcDbSymbolTableRecord
100
AcDbLinetypeTableRecord
  2
DIVIDE2
 70
    0
  3
Divide (.5x) __..__..__..__..__..__..__..__.._
 72
   65
 73
    6
 40
15.875
 49
6.35
 74
    0
 49
-3.175
 74
    0
 49
0
 74
    0
 49
-3.175
 74
    0
 49
0
 74
    0
 49
-3.175
 74
    0
  0
LTYPE
  5
41
330
5
100
AcDbSymbolTableRecord
100
AcDbLinetypeTableRecord
  2
DIVIDEX2
 70
    0
  3
Divide (2x) ________  .  .  ________  .  .  _
 72
   65
 73
    6
 40
63.5
 49
25.4
 74
    0
 49
-12.7
 74
    0
 49
0
 74
    0
 49
-12.7
 74
    0
 49
0
 74
    0
 49
-12.7
 74
    0
  0
LTYPE
  5
42
330
5
100
AcDbSymbolTableRecord
100
AcDbLinetypeTableRecord
  2
BORDER
 70
    0
  3
Border __ __ . __ __ . __ __ . __ __ . __ __ .
 72
   65
 73
    6
 40
44.45
 49
12.7
 74
    0
 49
-6.35
 74
    0
 49
12.7
 74
    0
 49
-6.35
 74
    0
 49
0
 74
    0
 49
-6.35
 74
    0
  0
LTYPE
  5
43
330
5
100
AcDbSymbolTableRecord
100
AcDbLinetypeTableRecord
  2
BORDERTINY
 70
    0
  3
Border (.15x) __.__.__.__.__.__.__.__.__.__.__.
 72
   65
 73
    6
 40
6.6675
 49
1.905
 74
    0
 49
-0.9525
 74
    0
 49
1.905
 74
    0
 49
-0.9525
 74
    0
 49
0
 74
    0
 49
-0.9525
 74
    0
  0
LTYPE
  5
44
330
5
100
AcDbSymbolTableRecord
100
AcDbLinetypeTableRecord
  2
BORDER2
 70
    0
  3
Border (.5x) __.__.__.__.__.__.__.__.__.__.__.
 72
   65
 73
    6
 40
22.225
 49
6.35
 74
    0
 49
-3.175
 74
    0
 49
6.35
 74
    0
 49
-3.175
 74
    0
 49
0
 74
    0
 49
-3.175
 74
    0
  0
LTYPE
  5
45
330
5
100
AcDbSymbolTableRecord
100
AcDbLinetypeTableRecord
  2
BORDERX2
 70
    0
  3
Border (2x) ____  ____  .  ____  ____  .  ___
 72
   65
 73
    6
 40
88.89999999999999
 49
25.4
 74
    0
 49
-12.7
 74
    0
 49
25.4
 74
    0
 49
-12.7
 74
    0
 49
0
 74
    0
 49
-12.7
 74
    0
  0
LTYPE
  5
46
330
5
100
AcDbSymbolTableRecord
100
AcDbLinetypeTableRecord
  2
CENTER
 70
    0
  3
Center ____ _ ____ _ ____ _ ____ _ ____ _ ____
 72
   65
 73
    4
 40
50.8
 49
31.75
 74
    0
 49
-6.35
 74
    0
 49
6.35
 74
    0
 49
-6.35
 74
    0
  0
LTYPE
  5
47
330
5
100
AcDbSymbolTableRecord
100
AcDbLinetypeTableRecord
  2
CENTERTINY
 70
    0
  3
Center (.15x) ___ _ ___ _ ___ _ ___ _ ___ _ ___
 72
   65
 73
    4
 40
7.619999999999999
 49
4.7625
 74
    0
 49
-0.9525
 74
    0
 49
0.9525
 74
    0
 49
-0.9525
 74
    0
  0
LTYPE
  5
48
330
5
100
AcDbSymbolTableRecord
100
AcDbLinetypeTableRecord
  2
CENTER2
 70
    0
  3
Center (.5x) ___ _ ___ _ ___ _ ___ _ ___ _ ___
 72
   65
 73
    4
 40
28.575
 49
19.05
 74
    0
 49
-3.175
 74
    0
 49
3.175
 74
    0
 49
-3.175
 74
    0
  0
LTYPE
  5
49
330
5
100
AcDbSymbolTableRecord
100
AcDbLinetypeTableRecord
  2
CENTERX2
 70
    0
  3
Center (2x) ________  __  ________  __  _____
 72
   65
 73
    4
 40
101.6
 49
63.5
 74
    0
 49
-12.7
 74
    0
 49
12.7
 74
    0
 49
-12.7
 74
    0
  0
ENDTAB
  0
TABLE
  2
LAYER
  5
2
330
0
100
AcDbSymbolTable
 70
    1
  0
LAYER
  5
10
330
2
100
AcDbSymbolTableRecord
100
AcDbLayerTableRecord
  2
0
 70
    0
 62
    7
  6
CONTINUOUS
370
    0
390
F
  0
LAYER
  5
4A
330
2
100
AcDbSymbolTableRecord
100
AcDbLayerTableRecord
  2
gear
 70
    0
 62
    7
  6
CONTINUOUS
370
   -3
390
F
  0
LAYER
  5
4B
330
2
100
AcDbSymbolTableRecord
100
AcDbLayerTableRecord
  2
text
 70
    0
 62
    7
  6
CONTINUOUS
370
    0
390
F
  0
ENDTAB
  0
TABLE
  2
STYLE
  5
3
330
0
100
AcDbSymbolTable
 70
    3
  0
STYLE
  5
4C
330
2
100
AcDbSymbolTableRecord
100
AcDbTextStyleTableRecord
  2
Standard
 70
    0
 40
0
 41
1
 50
0
 71
    0
 42
1
  3
txt
  4

  0
ENDTAB
  0
TABLE
  2
VIEW
  5
6
330
0
100
AcDbSymbolTable
 70
    0
  0
ENDTAB
  0
TABLE
  2
UCS
  5
7
330
0
100
AcDbSymbolTable
 70
    0
  0
ENDTAB
  0
TABLE
  2
APPID
  5
9
330
0
100
AcDbSymbolTable
 70
    1
  0
APPID
  5
12
330
9
100
AcDbSymbolTableRecord
100
AcDbRegAppTableRecord
  2
ACAD
 70
    0
  0
APPID
  5
4D
330
9
100
AcDbSymbolTableRecord
100
AcDbRegAppTableRecord
  2
LibreCad
 70
    0
  0
ENDTAB
  0
TABLE
  2
DIMSTYLE
  5
A
330
0
100
AcDbSymbolTable
 70
    1
100
AcDbDimStyleTable
 71
    1
  0
DIMSTYLE
105
4E
330
A
100
AcDbSymbolTableRecord
100
AcDbDimStyleTableRecord
  2
Standard
 70
    0
 40
2.5
 41
2.5
 42
0.625
 43
0.38
 44
1.25
 45
0
 46
0
 47
0
 48
0
 49
1
140
2.5
141
0.09
142
0
143
25.4
144
1
145
0
146
1
147
0.625
148
0
 71
    0
 72
    0
 73
    0
 74
    1
 75
    0
 76
    0
 77
    0
 78
    8
 79
    0
170
    0
171
    2
172
    0
173
    0
174
    0
175
    0
176
    0
177
    0
178
    0
179
    0
271
    2
272
    4
273
    2
274
    2
275
    0
276
    0
277
    2
278
   44
279
    0
280
    0
281
    0
282
    0
283
    1
284
    0
285
    0
286
    0
288
    0
289
    3
340
STANDARD
341

371
   -2
372
   -2
  0
ENDTAB
  0
TABLE
  2
BLOCK_RECORD
  5
1
330
0
100
AcDbSymbolTable
 70
    2
  0
BLOCK_RECORD
  5
1F
330
1
100
AcDbSymbolTableRecord
100
AcDbBlockTableRecord
  2
*Model_Space
 70
    0
280
    1
281
    0
  0
BLOCK_RECORD
  5
1E
330
1
100
AcDbSymbolTableRecord
100
AcDbBlockTableRecord
  2
*Paper_Space
 70
    0
280
    1
281
    0
  0
ENDTAB
  0
ENDSEC
  0
SECTION
  2
BLOCKS
  0
BLOCK
  5
20
330
1F
100
AcDbEntity
  8
0
100
AcDbBlockBegin
  2
*Model_Space
 70
    0
 10
0
 20
0
 30
0
  3
*Model_Space
  1

  0
ENDBLK
  5
21
330
1F
100
AcDbEntity
  8
0
100
AcDbBlockEnd
  0
BLOCK
  5
1C
330
1B
100
AcDbEntity
  8
0
100
AcDbBlockBegin
  2
*Paper_Space
 70
    0
 10
0
 20
0
 30
0
  3
*Paper_Space
  1

  0
ENDBLK
  5
1D
330
1F
100
AcDbEntity
  8
0
100
AcDbBlockEnd
  0
ENDSEC
  0
SECTION
  2
ENTITIES
  0
LWPOLYLINE
  5
4F
100
AcDbEntity
  8
gear
  6
ByLayer
 62
  256
370
   -1
100
AcDbPolyline
 90
  576
 70
    1
 43
0
 10
32.3333
 20
0
 10
39.1319
 20
0.0001
 10
39.1683
 20
0.0013
 10
39.2376
 20
0.0056
 10
39.3398
 20
0.015
 10
39.4746
 20
0.0312
 10
39.6416
 20
0.0562
 10
39.8403
 20
0.0919
 10
40.0704
 20
0.1402
 10
40.3311
 20
0.2029
 10
40.6219
 20
0.2818
 10
40.9419
 20
0.3787
 10
41.2903
 20
0.4954
 10
41.6663
 20
0.6336000000000001
 10
42.0689
 20
0.7949000000000001
 10
42.4969
 20
0.9811
 10
42.9493
 20
1.1938
 10
43.4249
 20
1.4345
 10
43.9223
 20
1.7046
 10
44.4404
 20
2.0058
 10
44.9775
 20
2.3394
 10
45.5324
 20
2.7067
 10
46.1034
 20
3.1091
 10
46.5325
 20
3.5359
 10
45.8218
 20
8.839700000000001
 10
45.2954
 20
9.138400000000001
 10
44.6386
 20
9.376300000000001
 10
44.0067
 20
9.5846
 10
43.4006
 20
9.765000000000001
 10
42.8216
 20
9.9191
 10
42.2705
 20
10.0488
 10
41.7484
 20
10.1558
 10
41.256
 20
10.2419
 10
40.794
 20
10.3088
 10
40.3632
 20
10.3585
 10
39.9641
 20
10.3928
 10
39.5972
 20
10.4136
 10
39.2629
 20
10.4229
 10
38.9617
 20
10.4224
 10
38.6936
 20
10.4142
 10
38.459
 20
10.4003
 10
38.2579
 20
10.3824
 10
38.0902
 20
10.3626
 10
37.9559
 20
10.3428
 10
37.8549
 20
10.3248
 10
37.7868
 20
10.3108
 10
37.7513
 20
10.3024
 10
31.1926
 20
8.512600000000001
 10
28.0015
 20
16.1667
 10
33.8892
 20
19.566
 10
33.92
 20
19.5853
 10
33.978
 20
19.6237
 10
34.0618
 20
19.6829
 10
34.1704
 20
19.7643
 10
34.3025
 20
19.8695
 10
34.4568
 20
19.9998
 10
34.6318
 20
20.1566
 10
34.8263
 20
20.3413
 10
35.0387
 20
20.555
 10
35.2673
 20
20.7989
 10
35.5108
 20
21.0742
 10
35.7673
 20
21.3818
 10
36.0352
 20
21.7229
 10
36.3128
 20
22.0981
 10
36.5983
 20
22.5085
 10
36.8898
 20
22.9547
 10
37.1855
 20
23.4374
 10
37.4836
 20
23.9573
 10
37.782
 20
24.5148
 10
38.0788
 20
25.1103
 10
38.3721
 20
25.7443
 10
38.5304
 20
26.3285
 10
35.263
 20
30.5663
 10
34.6578
 20
30.5618
 10
33.9701
 20
30.4394
 10
33.3186
 20
30.3038
 10
32.7036
 20
30.157
 10
32.125
 20
30.001
 10
31.5829
 20
29.8378
 10
31.0773
 20
29.6694
 10
30.6078
 20
29.4977
 10
30.1742
 20
29.3247
 10
29.7763
 20
29.1523
 10
29.4135
 20
28.9825
 10
29.0854
 20
28.817
 10
28.7913
 20
28.6579
 10
28.5306
 20
28.5069
 10
28.3026
 20
28.3658
 10
28.1064
 20
28.2364
 10
27.9411
 20
28.1203
 10
27.8058
 20
28.0194
 10
27.6994
 20
27.935
 10
27.6208
 20
27.869
 10
27.5689
 20
27.8228
 10
27.5424
 20
27.7978
 10
22.7573
 20
22.9684
 10
16.1667
 20
28.0015
 10
19.5659
 20
33.8892
 10
19.583
 20
33.9214
 10
19.6139
 20
33.9836
 10
19.657
 20
34.0768
 10
19.7103
 20
34.2016
 10
19.7721
 20
34.3587
 10
19.8405
 20
34.5487
 10
19.9137
 20
34.7721
 10
19.9898
 20
35.0292
 10
20.0669
 20
35.3205
 10
20.143
 20
35.6461
 10
20.2161
 20
36.0062
 10
20.2845
 20
36.4009
 10
20.346
 20
36.8302
 10
20.3988
 20
37.294
 10
20.4408
 20
37.7921
 10
20.4702
 20
38.3243
 10
20.4849
 20
38.8902
 10
20.4831
 20
39.4894
 10
20.4628
 20
40.1214
 10
20.4221
 20
40.7856
 10
20.3591
 20
41.4812
 10
20.2041
 20
42.0663
 10
15.2555
 20
44.1027
 10
14.7336
 20
43.7962
 10
14.1992
 20
43.3463
 10
13.7028
 20
42.9032
 10
13.2436
 20
42.4685
 10
12.8206
 20
42.0442
 10
12.4327
 20
41.6318
 10
12.079
 20
41.2331
 10
11.7583
 20
40.8496
 10
11.4693
 20
40.483
 10
11.2109
 20
40.1348
 10
10.9816
 20
39.8063
 10
10.7801
 20
39.499
 10
10.605
 20
39.2141
 10
10.4548
 20
38.953
 10
10.3278
 20
38.7168
 10
10.2226
 20
38.5066
 10
10.1375
 20
38.3235
 10
10.0708
 20
38.1684
 10
10.0209
 20
38.0422
 10
9.985799999999999
 20
37.9457
 10
9.964
 20
37.8797
 10
9.9536
 20
37.8448
 10
8.2242
 20
31.2699
 10
0
 20
32.3333
 10
-0.0001
 20
39.1319
 10
-0.0013
 20
39.1683
 10
-0.0056
 20
39.2376
 10
-0.015
 20
39.3398
 10
-0.0312
 20
39.4746
 10
-0.0562
 20
39.6416
 10
-0.0919
 20
39.8403
 10
-0.1402
 20
40.0704
 10
-0.2029
 20
40.3311
 10
-0.2818
 20
40.6219
 10
-0.3787
 20
40.9419
 10
-0.4954
 20
41.2903
 10
-0.6336000000000001
 20
41.6663
 10
-0.7949000000000001
 20
42.0689
 10
-0.9811
 20
42.4969
 10
-1.1938
 20
42.9493
 10
-1.4345
 20
43.4249
 10
-1.7046
 20
43.9223
 10
-2.0058
 20
44.4404
 10
-2.3394
 20
44.9775
 10
-2.7067
 20
45.5324
 10
-3.1091
 20
46.1034
 10
-3.5359
 20
46.5325
 10
-8.839700000000001
 20
45.8218
 10
-9.138400000000001
 20
45.2954
 10
-9.376300000000001
 20
44.6386
 10
-9.5846
 20
44.0067
 10
-9.765000000000001
 20
43.4006
 10
-9.9191
 20
42.8216
 10
-10.0488
 20
42.2705
 10
-10.1558
 20
41.7484
 10
-10.2419
 20
41.256
 10
-10.3088
 20
40.794
 10
-10.3585
 20
40.3632
 10
-10.3928
 20
39.9641
 10
-10.4136
 20
39.5972
 10
-10.4229
 20
39.2629
 10
-10.4224
 20
38.9617
 10
-10.4142
 20
38.6936
 10
-10.4003
 20
38.459
 10
-10.3824
 20
38.2579
 10
-10.3626
 20
38.0902
 10
-10.3428
 20
37.9559
 10
-10.3248
 20
37.8549
 10
-10.3108
 20
37.7868
 10
-10.3024
 20
37.7513
 10
-8.512600000000001
 20
31.1926
 10
-16.1667
 20
28.0015
 10
-19.566
 20
33.8892
 10
-19.5853
 20
33.92
 10
-19.6237
 20
33.978
 10
-19.6829
 20
34.0618
 10
-19.7643
 20
34.1704
 10
-19.8695
 20
34.3025
 10
-19.9998
 20
34.4568
 10
-20.1566
 20
34.6318
 10
-20.3413
 20
34.8263
 10
-20.555
 20
35.0387
 10
-20.7989
 20
35.2673
 10
-21.0742
 20
35.5108
 10
-21.3818
 20
35.7673
 10
-21.7229
 20
36.0352
 10
-22.0981
 20
36.3128
 10
-22.5085
 20
36.5983
 10
-22.9547
 20
36.8898
 10
-23.4374
 20
37.1855
 10
-23.9573
 20
37.4836
 10
-24.5148
 20
37.782
 10
-25.1103
 20
38.0788
 10
-25.7443
 20
38.3721
 10
-26.3285
 20
38.5304
 10
-30.5663
 20
35.263
 10
-30.5618
 20
34.6578
 10
-30.4394
 20
33.9701
 10
-30.3038
 20
33.3186
 10
-30.157
 20
32.7036
 10
-30.001
 20
32.125
 10
-29.8378
 20
31.5829
 10
-29.6694
 20
31.0773
 10
-29.4977
 20
30.6078
 10
-29.3247
 20
30.1742
 10
-29.1523
 20
29.7763
 10
-28.9825
 20
29.4135
 10
-28.817
 20
29.0854
 10
-28.6579
 20
28.7913
 10
-28.5069
 20
28.5306
 10
-28.3658
 20
28.3026
 10
-28.2364
 20
28.1064
 10
-28.1203
 20
27.9411
 10
-28.0194
 20
27.8058
 10
-27.935
 20
27.6994
 10
-27.869
 20
27.6208
 10
-27.8228
 20
27.5689
 10
-27.7978
 20
27.5424
 10
-22.9684
 20
22.7573
 10
-28.0015
 20
16.1667
 10
-33.8892
 20
19.5659
 10
-33.9214
 20
19.583
 10
-33.9836
 20
19.6139
 10
-34.0768
 20
19.657
 10
-34.2016
 20
19.7103
 10
-34.3587
 20
19.7721
 10
-34.5487
 20
19.8405
 10
-34.7721
 20
19.9137
 10
-35.0292
 20
19.9898
 10
-35.3205
 20
20.0669
 10
-35.6461
 20
20.143
 10
-36.0062
 20
20.2161
 10
-36.4009
 20
20.2845
 10
-36.8302
 20
20.346
 10
-37.294
 20
20.3988
 10
-37.7921
 20
20.4408
 10
-38.3243
 20
20.4702
 10
-38.8902
 20
20.4849
 10
-39.4894
 20
20.4831
 10
-40.1214
 20
20.4628
 10
-40.7856
 20
20.4221
 10
-41.4812
 20
20.3591
 10
-42.0663
 20
20.2041
 10
-44.1027
 20
15.2555
 10
-43.7962
 20
14.7336
 10
-43.3463
 20
14.1992
 10
-42.9032
 20
13.7028
 10
-42.4685
 20
13.2436
 10
-42.0442
 20
12.8206
 10
-41.6318
 20
12.4327
 10
-41.2331
 20
12.079
 10
-40.8496
 20
11.7583
 10
-40.483
 20
11.4693
 10
-40.1348
 20
11.2109
 10
-39.8063
 20
10.9816
 10
-39.499
 20
10.7801
 10
-39.2141
 20
10.605
 10
-38.953
 20
10.4548
 10
-38.7168
 20
10.3278
 10
-38.5066
 20
10.2226
 10
-38.3235
 20
10.1375
 10
-38.1684
 20
10.0708
 10
-38.0422
 20
10.0209
 10
-37.9457
 20
9.985799999999999
 10
-37.8797
 20
9.964
 10
-37.8448
 20
9.9536
 10
-31.2699
 20
8.2242
 10
-32.3333
 20
0
 10
-39.1319
 20
-0.0001
 10
-39.1683
 20
-0.0013
 10
-39.2376
 20
-0.0056
 10
-39.3398
 20
-0.015
 10
-39.4746
 20
-0.0312
 10
-39.6416
 20
-0.0562
 10
-39.8403
 20
-0.0919
 10
-40.0704
 20
-0.1402
 10
-40.3311
 20
-0.2029
 10
-40.6219
 20
-0.2818
 10
-40.9419
 20
-0.3787
 10
-41.2903
 20
-0.4954
 10
-41.6663
 20
-0.6336000000000001
 10
-42.0689
 20
-0.7949000000000001
 10
-42.4969
 20
-0.9811
 10
-42.9493
 20
-1.1938
 10
-43.4249
 20
-1.4345
 10
-43.9223
 20
-1.7046
 10
-44.4404
 20
-2.0058
 10
-44.9775
 20
-2.3394
 10
-45.5324
 20
-2.7067
 10
-46.1034
 20
-3.1091
 10
-46.5325
 20
-3.5359
 10
-45.8218
 20
-8.839700000000001
 10
-45.2954
 20
-9.138400000000001
 10
-44.6386
 20
-9.376300000000001
 10
-44.0067
 20
-9.5846
 10
-43.4006
 20
-9.765000000000001
 10
-42.8216
 20
-9.9191
 10
-42.2705
 20
-10.0488
 10
-41.7484
 20
-10.1558
 10
-41.256
 20
-10.2419
 10
-40.794
 20
-10.3088
 10
-40.3632
 20
-10.3585
 10
-39.9641
 20
-10.3928
 10
-39.5972
 20
-10.4136
 10
-39.2629
 20
-10.4229
 10
-38.9617
 20
-10.4224
 10
-38.6936
 20
-10.4142
 10
-38.459
 20
-10.4003
 10
-38.2579
 20
-10.3824
 10
-38.0902
 20
-10.3626
 10
-37.9559
 20
-10.3428
 10
-37.8549
 20
-10.3248
 10
-37.7868
 20
-10.3108
 10
-37.7513
 20
-10.3024
 10
-31.1926
 20
-8.512600000000001
 10
-28.0015
 20
-16.1667
 10
-33.8892
 20
-19.566
 10
-33.92
 20
-19.5853
 10
-33.978
 20
-19.6237
 10
-34.0618
 20
-19.6829
 10
-34.1704
 20
-19.7643
 10
-34.3025
 20
-19.8695
 10
-34.4568
 20
-19.9998
 10
-34.6318
 20
-20.1566
 10
-34.8263
 20
-20.3413
 10
-35.0387
 20
-20.555
 10
-35.2673
 20
-20.7989
 10
-35.5108
 20
-21.0742
 10
-35.7673
 20
-21.3818
 10
-36.0352
 20
-21.7229
 10
-36.3128
 20
-22.0981
 10
-36.5983
 20
-22.5085
 10
-36.8898
 20
-22.9547
 10
-37.1855
 20
-23.4374
 10
-37.4836
 20
-23.9573
 10
-37.782
 20
-24.5148
 10
-38.0788
 20
-25.1103
 10
-38.3721
 20
-25.7443
 10
-38.5304
 20
-26.3285
 10
-35.263
 20
-30.5663
 10
-34.6578
 20
-30.5618
 10
-33.9701
 20
-30.4394
 10
-33.3186
 20
-30.3038
 10
-32.7036
 20
-30.157
 10
-32.125
 20
-30.001
 10
-31.5829
 20
-29.8378
 10
-31.0773
 20
-29.6694
 10
-30.6078
 20
-29.4977
 10
-30.1742
 20
-29.3247
 10
-29.7763
 20
-29.1523
 10
-29.4135
 20
-28.9825
 10
-29.0854
 20
-28.817
 10
-28.7913
 20
-28.6579
 10
-28.5306
 20
-28.5069
 10
-28.3026
 20
-28.3658
 10
-28.1064
 20
-28.2364
 10
-27.9411
 20
-28.1203
 10
-27.8058
 20
-28.0194
 10
-27.6994
 20
-27.935
 10
-27.6208
 20
-27.869
 10
-27.5689
 20
-27.8228
 10
-27.5424
 20
-27.7978
 10
-22.7573
 20
-22.9684
 10
-16.1667
 20
-28.0015
 10
-19.5659
 20
-33.8892
 10
-19.583
 20
-33.9214
 10
-19.6139
 20
-33.9836
 10
-19.657
 20
-34.0768
 10
-19.7103
 20
-34.2016
 10
-19.7721
 20
-34.3587
 10
-19.8405
 20
-34.5487
 10
-19.9137
 20
-34.7721
 10
-19.9898
 20
-35.0292
 10
-20.0669
 20
-35.3205
 10
-20.143
 20
-35.6461
 10
-20.2161
 20
-36.0062
 10
-20.2845
 20
-36.4009
 10
-20.346
 20
-36.8302
 10
-20.3988
 20
-37.294
 10
-20.4408
 20
-37.7921
 10
-20.4702
 20
-38.3243
 10
-20.4849
 20
-38.8902
 10
-20.4831
 20
-39.4894
 10
-20.4628
 20
-40.1214
 10
-20.4221
 20
-40.7856
 10
-20.3591
 20
-41.4812
 10
-20.2041
 20
-42.0663
 10
-15.2555
 20
-44.1027
 10
-14.7336
 20
-43.7962
 10
-14.1992
 20
-43.3463
 10
-13.7028
 20
-42.9032
 10
-13.2436
 20
-42.4685
 10
-12.8206
 20
-42.0442
 10
-12.4327
 20
-41.6318
 10
-12.079
 20
-41.2331
 10
-11.7583
 20
-40.8496
 10
-11.4693
 20
-40.483
 10
-11.2109
 20
-40.1348
 10
-10.9816
 20
-39.8063
 10
-10.7801
 20
-39.499
 10
-10.605
 20
-39.2141
 10
-10.4548
 20
-38.953
 10
-10.3278
 20
-38.7168
 10
-10.2226
 20
-38.5066
 10
-10.1375
 20
-38.3235
 10
-10.0708
 20
-38.1684
 10
-10.0209
 20
-38.0422
 10
-9.985799999999999
 20
-37.9457
 10
-9.964
 20
-37.8797
 10
-9.9536
 20
-37.8448
 10
-8.2242
 20
-31.2699
 10
0
 20
-32.3333
 10
0.0001
 20
-39.1319
 10
0.0013
 20
-39.1683
 10
0.0056
 20
-39.2376
 10
0.015
 20
-39.3398
 10
0.0312
 20
-39.4746
 10
0.0562
 20
-39.6416
 10
0.0919
 20
-39.8403
 10
0.1402
 20
-40.0704
 10
0.2029
 20
-40.3311
 10
0.2818
 20
-40.6219
 10
0.3787
 20
-40.9419
 10
0.4954
 20
-41.2903
 10
0.6336000000000001
 20
-41.6663
 10
0.7949000000000001
 20
-42.0689
 10
0.9811
 20
-42.4969
 10
1.1938
 20
-42.9493
 10
1.4345
 20
-43.4249
 10
1.7046
 20
-43.9223
 10
2.0058
 20
-44.4404
 10
2.3394
 20
-44.9775
 10
2.7067
 20
-45.5324
 10
3.1091
 20
-46.1034
 10
3.5359
 20
-46.5325
 10
8.839700000000001
 20
-45.8218
 10
9.138400000000001
 20
-45.2954
 10
9.376300000000001
 20
-44.6386
 10
9.5846
 20
-44.0067
 10
9.765000000000001
 20
-43.4006
 10
9.9191
 20
-42.8216
 10
10.0488
 20
-42.2705
 10
10.1558
 20
-41.7484
 10
10.2419
 20
-41.256
 10
10.3088
 20
-40.794
 10
10.3585
 20
-40.3632
 10
10.3928
 20
-39.9641
 10
10.4136
 20
-39.5972
 10
10.4229
 20
-39.2629
 10
10.4224
 20
-38.9617
 10
10.4142
 20
-38.6936
 10
10.4003
 20
-38.459
 10
10.3824
 20
-38.2579
 10
10.3626
 20
-38.0902
 10
10.3428
 20
-37.9559
 10
10.3248
 20
-37.8549
 10
10.3108
 20
-37.7868
 10
10.3024
 20
-37.7513
 10
8.512600000000001
 20
-31.1926
 10
16.1667
 20
-28.0015
 10
19.566
 20
-33.8892
 10
19.5853
 20
-33.92
 10
19.6237
 20
-33.978
 10
19.6829
 20
-34.0618
 10
19.7643
 20
-34.1704
 10
19.8695
 20
-34.3025
 10
19.9998
 20
-34.4568
 10
20.1566
 20
-34.6318
 10
20.3413
 20
-34.8263
 10
20.555
 20
-35.0387
 10
20.7989
 20
-35.2673
 10
21.0742
 20
-35.5108
 10
21.3818
 20
-35.7673
 10
21.7229
 20
-36.0352
 10
22.0981
 20
-36.3128
 10
22.5085
 20
-36.5983
 10
22.9547
 20
-36.8898
 10
23.4374
 20
-37.1855
 10
23.9573
 20
-37.4836
 10
24.5148
 20
-37.782
 10
25.1103
 20
-38.0788
 10
25.7443
 20
-38.3721
 10
26.3285
 20
-38.5304
 10
30.5663
 20
-35.263
 10
30.5618
 20
-34.6578
 10
30.4394
 20
-33.9701
 10
30.3038
 20
-33.3186
 10
30.157
 20
-32.7036
 10
30.001
 20
-32.125
 10
29.8378
 20
-31.5829
 10
29.6694
 20
-31.0773
 10
29.4977
 20
-30.6078
 10
29.3247
 20
-30.1742
 10
29.1523
 20
-29.7763
 10
28.9825
 20
-29.4135
 10
28.817
 20
-29.0854
 10
28.6579
 20
-28.7913
 10
28.5069
 20
-28.5306
 10
28.3658
 20
-28.3026
 10
28.2364
 20
-28.1064
 10
28.1203
 20
-27.9411
 10
28.0194
 20
-27.8058
 10
27.935
 20
-27.6994
 10
27.869
 20
-27.6208
 10
27.8228
 20
-27.5689
 10
27.7978
 20
-27.5424
 10
22.9684
 20
-22.7573
 10
28.0015
 20
-16.1667
 10
33.8892
 20
-19.5659
 10
33.9214
 20
-19.583
 10
33.9836
 20
-19.6139
 10
34.0768
 20
-19.657
 10
34.2016
 20
-19.7103
 10
34.3587
 20
-19.7721
 10
34.5487
 20
-19.8405
 10
34.7721
 20
-19.9137
 10
35.0292
 20
-19.9898
 10
35.3205
 20
-20.0669
 10
35.6461
 20
-20.143
 10
36.0062
 20
-20.2161
 10
36.4009
 20
-20.2845
 10
36.8302
 20
-20.346
 10
37.294
 20
-20.3988
 10
37.7921
 20
-20.4408
 10
38.3243
 20
-20.4702
 10
38.8902
 20
-20.4849
 10
39.4894
 20
-20.4831
 10
40.1214
 20
-20.4628
 10
40.7856
 20
-20.4221
 10
41.4812
 20
-20.3591
 10
42.0663
 20
-20.2041
 10
44.1027
 20
-15.2555
 10
43.7962
 20
-14.7336
 10
43.3463
 20
-14.1992
 10
42.9032
 20
-13.7028
 10
42.4685
 20
-13.2436
 10
42.0442
 20
-12.8206
 10
41.6318
 20
-12.4327
 10
41.2331
 20
-12.079
 10
40.8496
 20
-11.7583
 10
40.483
 20
-11.4693
 10
40.1348
 20
-11.2109
 10
39.8063
 20
-10.9816
 10
39.499
 20
-10.7801
 10
39.2141
 20
-10.605
 10
38.953
 20
-10.4548
 10
38.7168
 20
-10.3278
 10
38.5066
 20
-10.2226
 10
38.3235
 20
-10.1375
 10
38.1684
 20
-10.0708
 10
38.0422
 20
-10.0209
 10
37.9457
 20
-9.985799999999999
 10
37.8797
 20
-9.964
 10
37.8448
 20
-9.9536
 10
31.2699
 20
-8.2242
  0
CIRCLE
  5
50
100
AcDbEntity
  8
0
  6
ByLayer
 62
  256
370
   -1
100
AcDbCircle
 10
0
 20
0
 40
4
  0
LINE
  5
51
100
AcDbEntity
  8
text
  6
CONTINUOUS
 62
    7
370
    0
100
AcDbLine
 10
-15.55555555555556
 20
16.66666666666666
 11
-15.31737777777778
 21
17.11111111111111
  0
ARC
  5
52
100
AcDbEntity
  8
text
  6
CONTINUOUS
 62
    7
370
    0
100
AcDbCircle
 10
-13.77777777777778
 20
16.22222222222222
 40
1.777777156111002
100
AcDbArc
 50
329.9999884324239
 51
149.9999884324239
  0
LINE
  5
53
100
AcDbEntity
  8
text
  6
CONTINUOUS
 62
    7
370
    0
100
AcDbLine
 10
-12.23817777777778
 20
15.33333333333333
 11
-15.55555555555556
 21
10
  0
LINE
  5
54
100
AcDbEntity
  8
text
  6
CONTINUOUS
 62
    7
370
    0
100
AcDbLine
 10
-15.55555555555556
 20
10
 11
-12
 21
10
  0
LINE
  5
55
100
AcDbEntity
  8
text
  6
CONTINUOUS
 62
    7
370
    0
100
AcDbLine
 10
-20
 20
16.22222222222222
 11
-18.22222222222222
 21
18
  0
LINE
  5
56
100
AcDbEntity
  8
text
  6
CONTINUOUS
 62
    7
370
    0
100
AcDbLine
 10
-18.22222222222222
 20
18
 11
-18.22222222222222
 21
10
  0
LINE
  5
57
100
AcDbEntity
  8
text
  6
CONTINUOUS
 62
    7
370
    0
100
AcDbLine
 10
-2.444444444444447
 20
10
 11
-2.444444444444447
 21
18
  0
LINE
  5
58
100
AcDbEntity
  8
text
  6
CONTINUOUS
 62
    7
370
    0
100
AcDbLine
 10
-3.333333333333336
 20
15.33333333333333
 11
-0.6666666666666692
 21
15.33333333333333
  0
ARC
  5
59
100
AcDbEntity
  8
text
  6
CONTINUOUS
 62
    7
370
    0
100
AcDbCircle
 10
3.777777777777778
 20
11.77777777777778
 40
1.777777777777778
100
AcDbArc
 50
180
 51
0
  0
LINE
  5
5A
100
AcDbEntity
  8
text
  6
CONTINUOUS
 62
    7
370
    0
100
AcDbLine
 10
2
 20
11.77777777777778
 11
2
 21
13.55555555555556
  0
ARC
  5
5B
100
AcDbEntity
  8
text
  6
CONTINUOUS
 62
    7
370
    0
100
AcDbCircle
 10
3.777777777777778
 20
13.55555555555556
 40
1.777777777777778
100
AcDbArc
 50
0
 51
180
  0
LINE
  5
5C
100
AcDbEntity
  8
text
  6
CONTINUOUS
 62
    7
370
    0
100
AcDbLine
 10
5.555555555555555
 20
13.55555555555556
 11
5.555555555555555
 21
11.77777777777778
  0
ARC
  5
5D
100
AcDbEntity
  8
text
  6
CONTINUOUS
 62
    7
370
    0
100
AcDbCircle
 10
10
 20
11.77777777777778
 40
1.777777777777778
100
AcDbArc
 50
180
 51
0
  0
LINE
  5
5E
100
AcDbEntity
  8
text
  6
CONTINUOUS
 62
    7
370
    0
100
AcDbLine
 10
8.222222222222221
 20
11.77777777777778
 11
8.222222222222221
 21
13.55555555555556
  0
ARC
  5
5F
100
AcDbEntity
  8
text
  6
CONTINUOUS
 62
    7
370
    0
100
AcDbCircle
 10
10
 20
13.55555555555556
 40
1.777777777777778
100
AcDbArc
 50
0
 51
180
  0
LINE
  5
60
100
AcDbEntity
  8
text
  6
CONTINUOUS
 62
    7
370
    0
100
AcDbLine
 10
11.77777777777778
 20
13.55555555555556
 11
11.77777777777778
 21
11.77777777777778
  0
LINE
  5
61
100
AcDbEntity
  8
text
  6
CONTINUOUS
 62
    7
370
    0
100
AcDbLine
 10
15.33333333333333
 20
10
 11
15.33333333333333
 21
18
  0
LINE
  5
62
100
AcDbEntity
  8
text
  6
CONTINUOUS
 62
    7
370
    0
100
AcDbLine
 10
14.44444444444444
 20
15.33333333333333
 11
17.11111111111111
 21
15.33333333333333
  0
LINE
  5
63
100
AcDbEntity
  8
text
  6
CONTINUOUS
 62
    7
370
    0
100
AcDbLine
 10
19.77777777777778
 20
10
 11
19.77777777777778
 21
18
  0
LINE
  5
64
100
AcDbEntity
  8
text
  6
CONTINUOUS
 62
    7
370
    0
100
AcDbLine
 10
19.77777777777778
 20
15.33333333333333
 11
22
 21
15.33333333333333
  0
ARC
  5
65
100
AcDbEntity
  8
text
  6
CONTINUOUS
 62
    7
370
    0
100
AcDbCircle
 10
22.00000099610025
 20
14.00000099610024
 40
1.33333233723346
100
AcDbArc
 50
359.999957195713
 51
90.00004280428696
  0
LINE
  5
66
100
AcDbEntity
  8
text
  6
CONTINUOUS
 62
    7
370
    0
100
AcDbLine
 10
23.33333333333334
 20
14
 11
23.33333333333334
 21
10
  0
ENDSEC
  0
SECTION
  2
OBJECTS
  0
DICTIONARY
  5
C
330
0
100
AcDbDictionary
281
    1
  3
ACAD_GROUP
350
D
  0
DICTIONARY
  5
D
330
C
100
AcDbDictionary
281
    1
  0
ENDSEC
  0
EOF
