999
dxfrw 0.6.3
  0
SECTION
  2
HEADER
  9
$ACADVER
  1
AC1021
  9
$DWGCODEPAGE
  3
ANSI_1252
  9
$INSBASE
 10
0
 20
0
 30
0
  9
$EXTMIN
 10
0.09508460000000001
 20
0.0992188
 30
0
  9
$EXTMAX
 10
355.854
 20
127.258
 30
0
  9
$LIMMIN
 10
0
 20
0
  9
$LIMMAX
 10
420
 20
297
  9
$ORTHOMODE
 70
    0
  9
$REGENMODE
 70
    1
  9
$FILLMODE
 70
    0
  9
$QTEXTMODE
 70
    0
  9
$MIRRTEXT
 70
    0
  9
$LTSCALE
 40
1
  9
$ATTMODE
 70
    0
  9
$TEXTSIZE
 40
2.5
  9
$TRACEWID
 40
15.68
  9
$TEXTSTYLE
  7
STANDARD
  9
$CLAYER
  8
0
  9
$CELTYPE
  6
BYLAYER
  9
$CECOLOR
 62
  256
  9
$CELTSCALE
 40
1
  9
$DISPSILH
 70
    0
  9
$DIMSCALE
 40
2.5
  9
$DIMASZ
 40
2.5
  9
$DIMEXO
 40
0.625
  9
$DIMDLI
 40
3.75
  9
$DIMRND
 40
0
  9
$DIMDLE
 40
0
  9
$DIMEXE
 40
1.25
  9
$DIMTP
 40
0
  9
$DIMTM
 40
0
  9
$DIMTXT
 40
2.5
  9
$DIMCEN
 40
2.5
  9
$DIMTSZ
 40
0
  9
$DIMTOL
 70
    0
  9
$DIMLIM
 70
    0
  9
$DIMTIH
 70
    0
  9
$DIMTOH
 70
    0
  9
$DIMSE1
 70
    0
  9
$DIMSE2
 70
    0
  9
$DIMTAD
 70
    1
  9
$DIMZIN
 70
    8
  9
$DIMBLK
  1

  9
$DIMASO
 70
    1
  9
$DIMSHO
 70
    1
  9
$DIMPOST
  1

  9
$DIMAPOST
  1

  9
$DIMALT
 70
    0
  9
$DIMALTD
 70
    3
  9
$DIMALTF
 40
0.03937
  9
$DIMLFAC
 40
1
  9
$DIMTOFL
 70
    1
  9
$DIMTVP
 40
0
  9
$DIMTIX
 70
    0
  9
$DIMSOXD
 70
    0
  9
$DIMSAH
 70
    0
  9
$DIMBLK1
  1

  9
$DIMBLK2
  1

  9
$DIMSTYLE
  2
Standard
  9
$DIMCLRD
 70
    0
  9
$DIMCLRE
 70
    0
  9
$DIMCLRT
 70
    0
  9
$DIMTFAC
 40
1
  9
$DIMGAP
 40
0.625
  9
$DIMJUST
 70
    0
  9
$DIMSD1
 70
    0
  9
$DIMSD2
 70
    0
  9
$DIMTOLJ
 70
    0
  9
$DIMTZIN
 70
    8
  9
$DIMALTZ
 70
    0
  9
$DIMALTTZ
 70
    0
  9
$DIMUPT
 70
    0
  9
$DIMDEC
 70
    2
  9
$DIMTDEC
 70
    2
  9
$DIMALTU
 70
    2
  9
$DIMALTTD
 70
    3
  9
$DIMTXSTY
  7
STANDARD
  9
$DIMAUNIT
 70
    0
  9
$DIMADEC
 70
    0
  9
$DIMALTRND
 40
0
  9
$DIMAZIN
 70
    0
  9
$DIMDSEP
 70
   44
  9
$DIMATFIT
 70
    3
  9
$DIMFRAC
 70
    0
  9
$DIMLDRBLK
  1
STANDARD
  9
$DIMLUNIT
 70
    2
  9
$DIMLWD
 70
   -2
  9
$DIMLWE
 70
   -2
  9
$DIMTMOVE
 70
    0
  9
$DIMFXL
 40
1
  9
$DIMFXLON
 70
    0
  9
$DIMJOGANG
 40
0.7854
  9
$DIMTFILL
 70
    0
  9
$DIMTFILLCLR
 70
    0
  9
$DIMARCSYM
 70
    0
  9
$DIMLTYPE
  6

  9
$DIMLTEX1
  6

  9
$DIMLTEX2
  6

  9
$LUNITS
 70
    2
  9
$LUPREC
 70
    4
  9
$SKETCHINC
 40
1
  9
$FILLETRAD
 40
0
  9
$AUNITS
 70
    0
  9
$AUPREC
 70
    2
  9
$MENU
  1
.
  9
$ELEVATION
 40
0
  9
$PELEVATION
 40
0
  9
$THICKNESS
 40
0
  9
$LIMCHECK
 70
    0
  9
$CHAMFERA
 40
0
  9
$CHAMFERB
 40
0
  9
$CHAMFERC
 40
0
  9
$CHAMFERD
 40
0
  9
$SKPOLY
 70
    0
  9
$USRTIMER
 70
    1
  9
$ANGBASE
 50
0
  9
$ANGDIR
 70
    0
  9
$PDMODE
 70
   34
  9
$PDSIZE
 40
0
  9
$PLINEWID
 40
0
  9
$SPLFRAME
 70
    1
  9
$SPLINETYPE
 70
    2
  9
$SPLINESEGS
 70
    8
  9
$HANDSEED
  5
20000
  9
$SURFTAB1
 70
    6
  9
$SURFTAB2
 70
    6
  9
$SURFTYPE
 70
    6
  9
$SURFU
 70
    6
  9
$SURFV
 70
    6
  9
$UCSBASE
  2

  9
$UCSNAME
  2

  9
$UCSORG
 10
0
 20
0
 30
0
  9
$UCSXDIR
 10
1
 20
0
 30
0
  9
$UCSYDIR
 10
0
 20
1
 30
0
  9
$UCSORTHOREF
  2

  9
$UCSORTHOVIEW
 70
    0
  9
$UCSORGTOP
 10
0
 20
0
 30
0
  9
$UCSORGBOTTOM
 10
0
 20
0
 30
0
  9
$UCSORGLEFT
 10
0
 20
0
 30
0
  9
$UCSORGRIGHT
 10
0
 20
0
 30
0
  9
$UCSORGFRONT
 10
0
 20
0
 30
0
  9
$UCSORGBACK
 10
0
 20
0
 30
0
  9
$PUCSBASE
  2

  9
$PUCSNAME
  2

  9
$PUCSORG
 10
0
 20
0
 30
0
  9
$PUCSXDIR
 10
1
 20
0
 30
0
  9
$PUCSYDIR
 10
0
 20
1
 30
0
  9
$PUCSORTHOREF
  2

  9
$PUCSORTHOVIEW
 70
    0
  9
$PUCSORGTOP
 10
0
 20
0
 30
0
  9
$PUCSORGBOTTOM
 10
0
 20
0
 30
0
  9
$PUCSORGLEFT
 10
0
 20
0
 30
0
  9
$PUCSORGRIGHT
 10
0
 20
0
 30
0
  9
$PUCSORGFRONT
 10
0
 20
0
 30
0
  9
$PUCSORGBACK
 10
0
 20
0
 30
0
  9
$USERI1
 70
    0
  9
$USERI2
 70
    0
  9
$USERI3
 70
    0
  9
$USERI4
 70
    0
  9
$USERI5
 70
    0
  9
$USERR1
 40
0
  9
$USERR2
 40
0
  9
$USERR3
 40
0
  9
$USERR4
 40
0
  9
$USERR5
 40
0
  9
$WORLDVIEW
 70
    1
  9
$SHADEDGE
 70
    3
  9
$SHADEDIF
 70
   70
  9
$TILEMODE
 70
    1
  9
$MAXACTVP
 70
   64
  9
$PINSBASE
 10
0
 20
0
 30
0
  9
$PLIMCHECK
 70
    0
  9
$PEXTMIN
 10
0
 20
0
 30
0
  9
$PEXTMAX
 10
0
 20
0
 30
0
  9
$SNAPSTYLE
 70
    0
  9
$PLIMMIN
 10
0
 20
0
  9
$PLIMMAX
 10
297
 20
210
  9
$UNITMODE
 70
    0
  9
$VISRETAIN
 70
    1
  9
$PLINEGEN
 70
    0
  9
$PSLTSCALE
 70
    1
  9
$TREEDEPTH
 70
 3020
  9
$CMLSTYLE
  2
Standard
  9
$CMLJUST
 70
    0
  9
$CMLSCALE
 40
20
  9
$PROXYGRAPHICS
 70
    1
  9
$MEASUREMENT
 70
    1
  9
$CELWEIGHT
370
   -1
  9
$ENDCAPS
280
    0
  9
$JOINSTYLE
280
    0
  9
$LWDISPLAY
290
    0
  9
$INSUNITS
 70
    4
  9
$HYPERLINKBASE
  1

  9
$STYLESHEET
  1

  9
$XEDIT
290
    1
  9
$CEPSNTYPE
380
    0
  9
$PSTYLEMODE
290
    1
  9
$EXTNAMES
290
    1
  9
$PSVPSCALE
 40
1
  9
$OLESTARTUP
290
    0
  9
$SORTENTS
280
  127
  9
$INDEXCTL
280
    0
  9
$HIDETEXT
280
    1
  9
$XCLIPFRAME
290
    0
  9
$HALOGAP
280
    0
  9
$OBSCOLOR
 70
  257
  9
$OBSLTYPE
280
    0
  9
$INTERSECTIONDISPLAY
280
    0
  9
$INTERSECTIONCOLOR
 70
  257
  9
$DIMASSOC
280
    1
  9
$PROJECTNAME
  1

  9
$CAMERADISPLAY
290
    0
  9
$LENSLENGTH
 40
50
  9
$CAMERAHEIGHT
 40
0
  9
$STEPSPERSEC
 40
2
  9
$STEPSIZE
 40
50
  9
$3DDWFPREC
 40
2
  9
$PSOLWIDTH
 40
5
  9
$PSOLHEIGHT
 40
80
  9
$LOFTANG1
 40
1.570796326794897
  9
$LOFTANG2
 40
1.570796326794897
  9
$LOFTMAG1
 40
0
  9
$LOFTMAG2
 40
0
  9
$LOFTPARAM
 70
    7
  9
$LOFTNORMALS
280
    1
  9
$LATITUDE
 40
1
  9
$LONGITUDE
 40
1
  9
$NORTHDIRECTION
 40
0
  9
$TIMEZONE
 70
-8000
  9
$LIGHTGLYPHDISPLAY
280
    1
  9
$TILEMODELIGHTSYNCH
280
    1
  9
$SOLIDHIST
280
    1
  9
$SHOWHIST
280
    1
  9
$DWFFRAME
280
    2
  9
$DGNFRAME
280
    0
  9
$REALWORLDSCALE
290
    1
  9
$INTERFERECOLOR
 62
    1
  9
$CSHADOW
280
    0
  9
$SHADOWPLANELOCATION
 40
0
  0
ENDSEC
  0
SECTION
  2
CLASSES
  0
ENDSEC
  0
SECTION
  2
TABLES
  0
TABLE
  2
VPORT
  5
8
330
0
100
AcDbSymbolTable
 70
    1
  0
VPORT
  5
31
330
2
100
AcDbSymbolTableRecord
100
AcDbViewportTableRecord
  2
*ACTIVE
 70
    0
 10
0
 20
0
 11
1
 21
1
 12
179.4564032469858
 22
98.40140213191489
 13
0
 23
0
 14
10
 24
10
 15
10
 25
10
 16
0
 26
0
 36
1
 17
0
 27
0
 37
0
 40
261.1421825808511
 41
1.386473429951691
 42
50
 43
0
 44
0
 50
0
 51
0
 71
    0
 72
  100
 73
    1
 74
    3
 75
    0
 76
    1
 77
    0
 78
    0
281
    0
 65
    1
110
0
120
0
130
0
111
1
121
0
131
0
112
0
122
1
132
0
 79
    0
146
0
348
10020
 60
    7
 61
    5
292
1
282
    1
141
0
142
0
 63
  250
421
3358443
  0
ENDTAB
  0
TABLE
  2
LTYPE
  5
5
330
0
100
AcDbSymbolTable
 70
    4
  0
LTYPE
  5
14
330
5
100
AcDbSymbolTableRecord
100
AcDbLinetypeTableRecord
  2
ByBlock
 70
    0
  3

 72
   65
 73
    0
 40
0
  0
LTYPE
  5
15
330
5
100
AcDbSymbolTableRecord
100
AcDbLinetypeTableRecord
  2
ByLayer
 70
    0
  3

 72
   65
 73
    0
 40
0
  0
LTYPE
  5
16
330
5
100
AcDbSymbolTableRecord
100
AcDbLinetypeTableRecord
  2
Continuous
 70
    0
  3
Solid line
 72
   65
 73
    0
 40
0
  0
LTYPE
  5
32
330
5
100
AcDbSymbolTableRecord
100
AcDbLinetypeTableRecord
  2
DOT
 70
    0
  3
Dot . . . . . . . . . . . . . . . . . . . . . .
 72
   65
 73
    2
 40
6.35
 49
0
 74
    0
 49
-6.35
 74
    0
  0
LTYPE
  5
33
330
5
100
AcDbSymbolTableRecord
100
AcDbLinetypeTableRecord
  2
DOTTINY
 70
    0
  3
Dot (.15x) .....................................
 72
   65
 73
    2
 40
0.9525
 49
0
 74
    0
 49
-0.9525
 74
    0
  0
LTYPE
  5
34
330
5
100
AcDbSymbolTableRecord
100
AcDbLinetypeTableRecord
  2
DOT2
 70
    0
  3
Dot (.5x) .....................................
 72
   65
 73
    2
 40
3.175
 49
0
 74
    0
 49
-3.175
 74
    0
  0
LTYPE
  5
35
330
5
100
AcDbSymbolTableRecord
100
AcDbLinetypeTableRecord
  2
DOTX2
 70
    0
  3
Dot (2x) .  .  .  .  .  .  .  .  .  .  .  .  .
 72
   65
 73
    2
 40
12.7
 49
0
 74
    0
 49
-12.7
 74
    0
  0
LTYPE
  5
36
330
5
100
AcDbSymbolTableRecord
100
AcDbLinetypeTableRecord
  2
DASHED
 70
    0
  3
Dashed _ _ _ _ _ _ _ _ _ _ _ _ _ _ _ _ _
 72
   65
 73
    2
 40
19.05
 49
12.7
 74
    0
 49
-6.35
 74
    0
  0
LTYPE
  5
37
330
5
100
AcDbSymbolTableRecord
100
AcDbLinetypeTableRecord
  2
DASHEDTINY
 70
    0
  3
Dashed (.15x) _ _ _ _ _ _ _ _ _ _ _ _ _ _ _ _ _
 72
   65
 73
    2
 40
2.8575
 49
1.905
 74
    0
 49
-0.9525
 74
    0
  0
LTYPE
  5
38
330
5
100
AcDbSymbolTableRecord
100
AcDbLinetypeTableRecord
  2
DASHED2
 70
    0
  3
Dashed (.5x) _ _ _ _ _ _ _ _ _ _ _ _ _ _ _ _ _
 72
   65
 73
    2
 40
9.524999999999999
 49
6.35
 74
    0
 49
-3.175
 74
    0
  0
LTYPE
  5
39
330
5
100
AcDbSymbolTableRecord
100
AcDbLinetypeTableRecord
  2
DASHEDX2
 70
    0
  3
Dashed (2x) ____  ____  ____  ____  ____  ___
 72
   65
 73
    2
 40
38.09999999999999
 49
25.4
 74
    0
 49
-12.7
 74
    0
  0
LTYPE
  5
3A
330
5
100
AcDbSymbolTableRecord
100
AcDbLinetypeTableRecord
  2
DASHDOT
 70
    0
  3
Dash dot __ . __ . __ . __ . __ . __ . __ . __
 72
   65
 73
    4
 40
25.4
 49
12.7
 74
    0
 49
-6.35
 74
    0
 49
0
 74
    0
 49
-6.35
 74
    0
  0
LTYPE
  5
3B
330
5
100
AcDbSymbolTableRecord
100
AcDbLinetypeTableRecord
  2
DASHDOTTINY
 70
    0
  3
Dash dot (.15x) _._._._._._._._._._._._._._._.
 72
   65
 73
    4
 40
3.81
 49
1.905
 74
    0
 49
-0.9525
 74
    0
 49
0
 74
    0
 49
-0.9525
 74
    0
  0
LTYPE
  5
3C
330
5
100
AcDbSymbolTableRecord
100
AcDbLinetypeTableRecord
  2
DASHDOT2
 70
    0
  3
Dash dot (.5x) _._._._._._._._._._._._._._._.
 72
   65
 73
    4
 40
12.7
 49
6.35
 74
    0
 49
-3.175
 74
    0
 49
0
 74
    0
 49
-3.175
 74
    0
  0
LTYPE
  5
3D
330
5
100
AcDbSymbolTableRecord
100
AcDbLinetypeTableRecord
  2
DASHDOTX2
 70
    0
  3
Dash dot (2x) ____  .  ____  .  ____  .  ___
 72
   65
 73
    4
 40
50.8
 49
25.4
 74
    0
 49
-12.7
 74
    0
 49
0
 74
    0
 49
-12.7
 74
    0
  0
LTYPE
  5
3E
330
5
100
AcDbSymbolTableRecord
100
AcDbLinetypeTableRecord
  2
DIVIDE
 70
    0
  3
Divide ____ . . ____ . . ____ . . ____ . . ____
 72
   65
 73
    6
 40
31.75
 49
12.7
 74
    0
 49
-6.35
 74
    0
 49
0
 74
    0
 49
-6.35
 74
    0
 49
0
 74
    0
 49
-6.35
 74
    0
  0
LTYPE
  5
3F
330
5
100
AcDbSymbolTableRecord
100
AcDbLinetypeTableRecord
  2
DIVIDETINY
 70
    0
  3
Divide (.15x) __..__..__..__..__..__..__..__.._
 72
   65
 73
    6
 40
4.7625
 49
1.905
 74
    0
 49
-0.9525
 74
    0
 49
0
 74
    0
 49
-0.9525
 74
    0
 49
0
 74
    0
 49
-0.9525
 74
    0
  0
LTYPE
  5
40
330
5
100
AcDbSymbolTableRecord
100
AcDbLinetypeTableRecord
  2
DIVIDE2
 70
    0
  3
Divide (.5x) __..__..__..__..__..__..__..__.._
 72
   65
 73
    6
 40
15.875
 49
6.35
 74
    0
 49
-3.175
 74
    0
 49
0
 74
    0
 49
-3.175
 74
    0
 49
0
 74
    0
 49
-3.175
 74
    0
  0
LTYPE
  5
41
330
5
100
AcDbSymbolTableRecord
100
AcDbLinetypeTableRecord
  2
DIVIDEX2
 70
    0
  3
Divide (2x) ________  .  .  ________  .  .  _
 72
   65
 73
    6
 40
63.5
 49
25.4
 74
    0
 49
-12.7
 74
    0
 49
0
 74
    0
 49
-12.7
 74
    0
 49
0
 74
    0
 49
-12.7
 74
    0
  0
LTYPE
  5
42
330
5
100
AcDbSymbolTableRecord
100
AcDbLinetypeTableRecord
  2
BORDER
 70
    0
  3
Border __ __ . __ __ . __ __ . __ __ . __ __ .
 72
   65
 73
    6
 40
44.45
 49
12.7
 74
    0
 49
-6.35
 74
    0
 49
12.7
 74
    0
 49
-6.35
 74
    0
 49
0
 74
    0
 49
-6.35
 74
    0
  0
LTYPE
  5
43
330
5
100
AcDbSymbolTableRecord
100
AcDbLinetypeTableRecord
  2
BORDERTINY
 70
    0
  3
Border (.15x) __.__.__.__.__.__.__.__.__.__.__.
 72
   65
 73
    6
 40
6.6675
 49
1.905
 74
    0
 49
-0.9525
 74
    0
 49
1.905
 74
    0
 49
-0.9525
 74
    0
 49
0
 74
    0
 49
-0.9525
 74
    0
  0
LTYPE
  5
44
330
5
100
AcDbSymbolTableRecord
100
AcDbLinetypeTableRecord
  2
BORDER2
 70
    0
  3
Border (.5x) __.__.__.__.__.__.__.__.__.__.__.
 72
   65
 73
    6
 40
22.225
 49
6.35
 74
    0
 49
-3.175
 74
    0
 49
6.35
 74
    0
 49
-3.175
 74
    0
 49
0
 74
    0
 49
-3.175
 74
    0
  0
LTYPE
  5
45
330
5
100
AcDbSymbolTableRecord
100
AcDbLinetypeTableRecord
  2
BORDERX2
 70
    0
  3
Border (2x) ____  ____  .  ____  ____  .  ___
 72
   65
 73
    6
 40
88.89999999999999
 49
25.4
 74
    0
 49
-12.7
 74
    0
 49
25.4
 74
    0
 49
-12.7
 74
    0
 49
0
 74
    0
 49
-12.7
 74
    0
  0
LTYPE
  5
46
330
5
100
AcDbSymbolTableRecord
100
AcDbLinetypeTableRecord
  2
CENTER
 70
    0
  3
Center ____ _ ____ _ ____ _ ____ _ ____ _ ____
 72
   65
 73
    4
 40
50.8
 49
31.75
 74
    0
 49
-6.35
 74
    0
 49
6.35
 74
    0
 49
-6.35
 74
    0
  0
LTYPE
  5
47
330
5
100
AcDbSymbolTableRecord
100
AcDbLinetypeTableRecord
  2
CENTERTINY
 70
    0
  3
Center (.15x) ___ _ ___ _ ___ _ ___ _ ___ _ ___
 72
   65
 73
    4
 40
7.619999999999999
 49
4.7625
 74
    0
 49
-0.9525
 74
    0
 49
0.9525
 74
    0
 49
-0.9525
 74
    0
  0
LTYPE
  5
48
330
5
100
AcDbSymbolTableRecord
100
AcDbLinetypeTableRecord
  2
CENTER2
 70
    0
  3
Center (.5x) ___ _ ___ _ ___ _ ___ _ ___ _ ___
 72
   65
 73
    4
 40
28.575
 49
19.05
 74
    0
 49
-3.175
 74
    0
 49
3.175
 74
    0
 49
-3.175
 74
    0
  0
LTYPE
  5
49
330
5
100
AcDbSymbolTableRecord
100
AcDbLinetypeTableRecord
  2
CENTERX2
 70
    0
  3
Center (2x) ________  __  ________  __  _____
 72
   65
 73
    4
 40
101.6
 49
63.5
 74
    0
 49
-12.7
 74
    0
 49
12.7
 74
    0
 49
-12.7
 74
    0
  0
ENDTAB
  0
TABLE
  2
LAYER
  5
2
330
0
100
AcDbSymbolTable
 70
    1
  0
LAYER
  5
10
330
2
100
AcDbSymbolTableRecord
100
AcDbLayerTableRecord
  2
0
 70
    0
 62
    7
  6
CONTINUOUS
370
   -3
390
F
  0
ENDTAB
  0
TABLE
  2
STYLE
  5
3
330
0
100
AcDbSymbolTable
 70
    3
  0
STYLE
  5
4A
330
2
100
AcDbSymbolTableRecord
100
AcDbTextStyleTableRecord
  2
Standard
 70
    0
 40
0
 41
1
 50
0
 71
    0
 42
1
  3
txt
  4

  0
ENDTAB
  0
TABLE
  2
VIEW
  5
6
330
0
100
AcDbSymbolTable
 70
    0
  0
ENDTAB
  0
TABLE
  2
UCS
  5
7
330
0
100
AcDbSymbolTable
 70
    0
  0
ENDTAB
  0
TABLE
  2
APPID
  5
9
330
0
100
AcDbSymbolTable
 70
    1
  0
APPID
  5
12
330
9
100
AcDbSymbolTableRecord
100
AcDbRegAppTableRecord
  2
ACAD
 70
    0
  0
APPID
  5
4B
330
9
100
AcDbSymbolTableRecord
100
AcDbRegAppTableRecord
  2
LibreCad
 70
    0
  0
ENDTAB
  0
TABLE
  2
DIMSTYLE
  5
A
330
0
100
AcDbSymbolTable
 70
    1
100
AcDbDimStyleTable
 71
    1
  0
DIMSTYLE
105
4C
330
A
100
AcDbSymbolTableRecord
100
AcDbDimStyleTableRecord
  2
Standard
 70
    0
 40
1
 41
2.5
 42
0.625
 43
0.38
 44
1.25
 45
0
 46
0
 47
0
 48
0
 49
1
140
2.5
141
0.09
142
2.5
143
25.4
144
1
145
0
146
1
147
0.625
148
0
 71
    0
 72
    0
 73
    0
 74
    1
 75
    0
 76
    0
 77
    0
 78
    1
 79
    0
170
    0
171
    2
172
    0
173
    0
174
    0
175
    0
176
    0
177
    0
178
    0
179
    0
271
    2
272
    4
273
    2
274
    2
275
    0
276
    0
277
    2
278
    0
279
    0
280
    0
281
    0
282
    0
283
    1
284
    0
285
    0
286
    0
288
    0
289
    3
340
standard
341

371
   -2
372
   -2
  0
ENDTAB
  0
TABLE
  2
BLOCK_RECORD
  5
1
330
0
100
AcDbSymbolTable
 70
    2
  0
BLOCK_RECORD
  5
1F
330
1
100
AcDbSymbolTableRecord
100
AcDbBlockTableRecord
  2
*Model_Space
 70
    0
280
    1
281
    0
  0
BLOCK_RECORD
  5
1E
330
1
100
AcDbSymbolTableRecord
100
AcDbBlockTableRecord
  2
*Paper_Space
 70
    0
280
    1
281
    0
  0
ENDTAB
  0
ENDSEC
  0
SECTION
  2
BLOCKS
  0
BLOCK
  5
20
330
1F
100
AcDbEntity
  8
0
100
AcDbBlockBegin
  2
*Model_Space
 70
    0
 10
0
 20
0
 30
0
  3
*Model_Space
  1

  0
ENDBLK
  5
21
330
1F
100
AcDbEntity
  8
0
100
AcDbBlockEnd
  0
BLOCK
  5
1C
330
1B
100
AcDbEntity
  8
0
100
AcDbBlockBegin
  2
*Paper_Space
 70
    0
 10
0
 20
0
 30
0
  3
*Paper_Space
  1

  0
ENDBLK
  5
1D
330
1F
100
AcDbEntity
  8
0
100
AcDbBlockEnd
  0
ENDSEC
  0
SECTION
  2
ENTITIES
  0
LWPOLYLINE
  5
4D
100
AcDbEntity
  8
0
  6
ByLayer
 62
  256
370
   -1
100
AcDbPolyline
 90
   84
 70
    1
 43
0
 10
351.245
 20
127.243
 10
351.635
 20
127.196
 10
352.02
 20
127.12
 10
352.399
 20
127.014
 10
352.767
 20
126.877
 10
353.123
 20
126.714
 10
353.466
 20
126.522
 10
353.794
 20
126.303
 10
354.101
 20
126.06
 10
354.39
 20
125.793
 10
354.655
 20
125.505
 10
354.898
 20
125.196
 10
355.117
 20
124.871
 10
355.307
 20
124.528
 10
355.473
 20
124.171
 10
355.607
 20
123.803
 10
355.716
 20
123.425
 10
355.79
 20
123.041
 10
355.84
 20
122.651
 10
355.854
 20
122.257
 10
355.854
 20
5.09873
 10
355.84
 20
4.7074
 10
355.79
 20
4.3174
 10
355.716
 20
3.93291
 10
355.607
 20
3.55395
 10
355.473
 20
3.18602
 10
355.307
 20
2.82911
 10
355.117
 20
2.48736
 10
354.898
 20
2.16076
 10
354.655
 20
1.85208
 10
354.39
 20
1.56407
 10
354.101
 20
1.29673
 10
353.794
 20
1.0542
 10
353.466
 20
0.836468
 10
353.123
 20
0.6449240000000001
 10
352.767
 20
0.480935
 10
352.399
 20
0.34451
 10
352.02
 20
0.237023
 10
351.635
 20
0.16123
 10
351.245
 20
0.114377
 10
350.854
 20
0.0992188
 10
5.09598
 20
0.0992188
 10
4.70186
 20
0.114377
 10
4.3119
 20
0.16123
 10
3.9274
 20
0.237023
 10
3.54983
 20
0.34451
 10
3.18189
 20
0.480935
 10
2.82498
 20
0.6449240000000001
 10
2.48185
 20
0.836468
 10
2.15663
 20
1.0542
 10
1.84795
 20
1.29673
 10
1.55994
 20
1.56407
 10
1.2926
 20
1.85208
 10
1.05006
 20
2.16076
 10
0.8309569999999999
 20
2.48736
 10
0.63941
 20
2.82911
 10
0.475424
 20
3.18602
 10
0.338998
 20
3.55395
 10
0.232888
 20
3.93291
 10
0.157097
 20
4.3174
 10
0.110243
 20
4.7074
 10
0.09508460000000001
 20
5.09873
 10
0.09508460000000001
 20
122.257
 10
0.110243
 20
122.651
 10
0.157097
 20
123.041
 10
0.232888
 20
123.425
 10
0.338998
 20
123.803
 10
0.475424
 20
124.171
 10
0.63941
 20
124.528
 10
0.8309569999999999
 20
124.871
 10
1.05006
 20
125.196
 10
1.2926
 20
125.505
 10
1.55994
 20
125.793
 10
1.84795
 20
126.06
 10
2.15663
 20
126.303
 10
2.48185
 20
126.522
 10
2.82498
 20
126.714
 10
3.18189
 20
126.877
 10
3.54983
 20
127.014
 10
3.9274
 20
127.12
 10
4.3119
 20
127.196
 10
4.70186
 20
127.243
 10
5.09598
 20
127.258
 10
350.854
 20
127.258
  0
LWPOLYLINE
  5
4E
100
AcDbEntity
  8
0
  6
ByLayer
 62
  256
370
   -1
100
AcDbPolyline
 90
   60
 70
    1
 43
0
 10
129.063
 20
20.6251
 10
128.264
 20
20.6251
 10
128.264
 20
17.5259
 10
129.063
 20
17.5259
 10
129.063
 20
16.9251
 10
89.4387
 20
16.9251
 10
89.4387
 20
20.1552
 10
87.7136
 20
20.1552
 10
87.7136
 20
21.0757
 10
84.413
 20
21.0757
 10
84.413
 20
20.1552
 10
82.6879
 20
20.1552
 10
82.6879
 20
16.9251
 10
81.8638
 20
16.9251
 10
81.8638
 20
14.1249
 10
82.6879
 20
14.1249
 10
82.6879
 20
7.85481
 10
84.413
 20
7.85481
 10
84.413
 20
6.87504
 10
87.7136
 20
6.87504
 10
87.7136
 20
7.85481
 10
89.4387
 20
7.85481
 10
89.4387
 20
12.3252
 10
129.063
 20
12.3252
 10
129.063
 20
11.7257
 10
128.264
 20
11.7257
 10
128.264
 20
8.62513
 10
129.063
 20
8.62513
 10
129.063
 20
7.62469
 10
143.064
 20
7.62469
 10
143.064
 20
8.62513
 10
143.863
 20
8.62513
 10
143.863
 20
11.7257
 10
143.064
 20
11.7257
 10
143.064
 20
12.3252
 10
182.688
 20
12.3252
 10
182.688
 20
7.85481
 10
184.413
 20
7.85481
 10
184.413
 20
6.87504
 10
187.714
 20
6.87504
 10
187.714
 20
7.85481
 10
189.439
 20
7.85481
 10
189.439
 20
14.1249
 10
190.263
 20
14.1249
 10
190.263
 20
16.9251
 10
189.439
 20
16.9251
 10
189.439
 20
20.1552
 10
187.714
 20
20.1552
 10
187.714
 20
21.0757
 10
184.413
 20
21.0757
 10
184.413
 20
20.1552
 10
182.688
 20
20.1552
 10
182.688
 20
16.9251
 10
143.064
 20
16.9251
 10
143.064
 20
17.5259
 10
143.863
 20
17.5259
 10
143.863
 20
20.6251
 10
143.064
 20
20.6251
 10
143.064
 20
21.6256
 10
129.063
 20
21.6256
  0
LWPOLYLINE
  5
4F
100
AcDbEntity
  8
0
  6
ByLayer
 62
  256
370
   -1
100
AcDbPolyline
 90
   20
 70
    1
 43
0
 10
10.0018
 20
20.6251
 10
9.20115
 20
20.6251
 10
9.20115
 20
17.5259
 10
10.0018
 20
17.5259
 10
10.0018
 20
11.7257
 10
9.20115
 20
11.7257
 10
9.20115
 20
8.62513
 10
10.0018
 20
8.62513
 10
10.0018
 20
7.62469
 10
24.0013
 20
7.62469
 10
24.0013
 20
8.62513
 10
24.8019
 20
8.62513
 10
24.8019
 20
11.7257
 10
24.0013
 20
11.7257
 10
24.0013
 20
17.5259
 10
24.8019
 20
17.5259
 10
24.8019
 20
20.6251
 10
24.0013
 20
20.6251
 10
24.0013
 20
21.6256
 10
10.0018
 20
21.6256
  0
LWPOLYLINE
  5
50
100
AcDbEntity
  8
0
  6
ByLayer
 62
  256
370
   -1
100
AcDbPolyline
 90
   20
 70
    1
 43
0
 10
33.8129
 20
20.6251
 10
33.0137
 20
20.6251
 10
33.0137
 20
17.5259
 10
33.8129
 20
17.5259
 10
33.8129
 20
11.7257
 10
33.0137
 20
11.7257
 10
33.0137
 20
8.62513
 10
33.8129
 20
8.62513
 10
33.8129
 20
7.62469
 10
47.8137
 20
7.62469
 10
47.8137
 20
8.62513
 10
48.6131
 20
8.62513
 10
48.6131
 20
11.7257
 10
47.8137
 20
11.7257
 10
47.8137
 20
17.5259
 10
48.6131
 20
17.5259
 10
48.6131
 20
20.6251
 10
47.8137
 20
20.6251
 10
47.8137
 20
21.6256
 10
33.8129
 20
21.6256
  0
LWPOLYLINE
  5
51
100
AcDbEntity
  8
0
  6
ByLayer
 62
  256
370
   -1
100
AcDbPolyline
 90
   20
 70
    1
 43
0
 10
57.627
 20
20.6251
 10
56.8262
 20
20.6251
 10
56.8262
 20
17.5259
 10
57.627
 20
17.5259
 10
57.627
 20
11.7257
 10
56.8262
 20
11.7257
 10
56.8262
 20
8.62513
 10
57.627
 20
8.62513
 10
57.627
 20
7.62469
 10
71.6262
 20
7.62469
 10
71.6262
 20
8.62513
 10
72.42700000000001
 20
8.62513
 10
72.42700000000001
 20
11.7257
 10
71.6262
 20
11.7257
 10
71.6262
 20
17.5259
 10
72.42700000000001
 20
17.5259
 10
72.42700000000001
 20
20.6251
 10
71.6262
 20
20.6251
 10
71.6262
 20
21.6256
 10
57.627
 20
21.6256
  0
LWPOLYLINE
  5
52
100
AcDbEntity
  8
0
  6
ByLayer
 62
  256
370
   -1
100
AcDbPolyline
 90
   20
 70
    1
 43
0
 10
200.502
 20
20.6251
 10
199.701
 20
20.6251
 10
199.701
 20
17.5259
 10
200.502
 20
17.5259
 10
200.502
 20
11.7257
 10
199.701
 20
11.7257
 10
199.701
 20
8.62513
 10
200.502
 20
8.62513
 10
200.502
 20
7.62469
 10
214.501
 20
7.62469
 10
214.501
 20
8.62513
 10
215.302
 20
8.62513
 10
215.302
 20
11.7257
 10
214.501
 20
11.7257
 10
214.501
 20
17.5259
 10
215.302
 20
17.5259
 10
215.302
 20
20.6251
 10
214.501
 20
20.6251
 10
214.501
 20
21.6256
 10
200.502
 20
21.6256
  0
LWPOLYLINE
  5
53
100
AcDbEntity
  8
0
  6
ByLayer
 62
  256
370
   -1
100
AcDbPolyline
 90
   20
 70
    1
 43
0
 10
224.313
 20
20.6251
 10
223.514
 20
20.6251
 10
223.514
 20
17.5259
 10
224.313
 20
17.5259
 10
224.313
 20
11.7257
 10
223.514
 20
11.7257
 10
223.514
 20
8.62513
 10
224.313
 20
8.62513
 10
224.313
 20
7.62469
 10
238.314
 20
7.62469
 10
238.314
 20
8.62513
 10
239.113
 20
8.62513
 10
239.113
 20
11.7257
 10
238.314
 20
11.7257
 10
238.314
 20
17.5259
 10
239.113
 20
17.5259
 10
239.113
 20
20.6251
 10
238.314
 20
20.6251
 10
238.314
 20
21.6256
 10
224.313
 20
21.6256
  0
LWPOLYLINE
  5
54
100
AcDbEntity
  8
0
  6
ByLayer
 62
  256
370
   -1
100
AcDbPolyline
 90
   20
 70
    1
 43
0
 10
248.127
 20
20.6251
 10
247.326
 20
20.6251
 10
247.326
 20
17.5259
 10
248.127
 20
17.5259
 10
248.127
 20
11.7257
 10
247.326
 20
11.7257
 10
247.326
 20
8.62513
 10
248.127
 20
8.62513
 10
248.127
 20
7.62469
 10
262.126
 20
7.62469
 10
262.126
 20
8.62513
 10
262.927
 20
8.62513
 10
262.927
 20
11.7257
 10
262.126
 20
11.7257
 10
262.126
 20
17.5259
 10
262.927
 20
17.5259
 10
262.927
 20
20.6251
 10
262.126
 20
20.6251
 10
262.126
 20
21.6256
 10
248.127
 20
21.6256
  0
LWPOLYLINE
  5
55
100
AcDbEntity
  8
0
  6
ByLayer
 62
  256
370
   -1
100
AcDbPolyline
 90
   20
 70
    1
 43
0
 10
271.938
 20
20.6251
 10
271.139
 20
20.6251
 10
271.139
 20
17.5259
 10
271.938
 20
17.5259
 10
271.938
 20
11.7257
 10
271.139
 20
11.7257
 10
271.139
 20
8.62513
 10
271.938
 20
8.62513
 10
271.938
 20
7.62469
 10
285.939
 20
7.62469
 10
285.939
 20
8.62513
 10
286.738
 20
8.62513
 10
286.738
 20
11.7257
 10
285.939
 20
11.7257
 10
285.939
 20
17.5259
 10
286.738
 20
17.5259
 10
286.738
 20
20.6251
 10
285.939
 20
20.6251
 10
285.939
 20
21.6256
 10
271.938
 20
21.6256
  0
LWPOLYLINE
  5
56
100
AcDbEntity
  8
0
  6
ByLayer
 62
  256
370
   -1
100
AcDbPolyline
 90
   20
 70
    1
 43
0
 10
296.227
 20
20.6251
 10
295.428
 20
20.6251
 10
295.428
 20
17.5259
 10
296.227
 20
17.5259
 10
296.227
 20
11.7257
 10
295.428
 20
11.7257
 10
295.428
 20
8.62513
 10
296.227
 20
8.62513
 10
296.227
 20
7.62469
 10
310.228
 20
7.62469
 10
310.228
 20
8.62513
 10
311.027
 20
8.62513
 10
311.027
 20
11.7257
 10
310.228
 20
11.7257
 10
310.228
 20
17.5259
 10
311.027
 20
17.5259
 10
311.027
 20
20.6251
 10
310.228
 20
20.6251
 10
310.228
 20
21.6256
 10
296.227
 20
21.6256
  0
LWPOLYLINE
  5
57
100
AcDbEntity
  8
0
  6
ByLayer
 62
  256
370
   -1
100
AcDbPolyline
 90
   20
 70
    1
 43
0
 10
315.277
 20
20.6251
 10
314.478
 20
20.6251
 10
314.478
 20
17.5259
 10
315.277
 20
17.5259
 10
315.277
 20
11.7257
 10
314.478
 20
11.7257
 10
314.478
 20
8.62513
 10
315.277
 20
8.62513
 10
315.277
 20
7.62469
 10
329.278
 20
7.62469
 10
329.278
 20
8.62513
 10
330.077
 20
8.62513
 10
330.077
 20
11.7257
 10
329.278
 20
11.7257
 10
329.278
 20
17.5259
 10
330.077
 20
17.5259
 10
330.077
 20
20.6251
 10
329.278
 20
20.6251
 10
329.278
 20
21.6256
 10
315.277
 20
21.6256
  0
LWPOLYLINE
  5
58
100
AcDbEntity
  8
0
  6
ByLayer
 62
  256
370
   -1
100
AcDbPolyline
 90
   20
 70
    1
 43
0
 10
334.327
 20
20.6251
 10
333.528
 20
20.6251
 10
333.528
 20
17.5259
 10
334.327
 20
17.5259
 10
334.327
 20
11.7257
 10
333.528
 20
11.7257
 10
333.528
 20
8.62513
 10
334.327
 20
8.62513
 10
334.327
 20
7.62469
 10
348.328
 20
7.62469
 10
348.328
 20
8.62513
 10
349.127
 20
8.62513
 10
349.127
 20
11.7257
 10
348.328
 20
11.7257
 10
348.328
 20
17.5259
 10
349.127
 20
17.5259
 10
349.127
 20
20.6251
 10
348.328
 20
20.6251
 10
348.328
 20
21.6256
 10
334.327
 20
21.6256
  0
LWPOLYLINE
  5
59
100
AcDbEntity
  8
0
  6
ByLayer
 62
  256
370
   -1
100
AcDbPolyline
 90
   60
 70
    1
 43
0
 10
257.652
 20
39.6752
 10
256.851
 20
39.6752
 10
256.851
 20
36.576
 10
257.652
 20
36.576
 10
257.652
 20
35.9752
 10
256.126
 20
35.9752
 10
256.126
 20
39.2053
 10
254.401
 20
39.2053
 10
254.401
 20
40.1256
 10
251.101
 20
40.1256
 10
251.101
 20
39.2053
 10
249.377
 20
39.2053
 10
249.377
 20
35.9752
 10
248.551
 20
35.9752
 10
248.551
 20
33.1749
 10
249.377
 20
33.1749
 10
249.377
 20
26.9048
 10
251.101
 20
26.9048
 10
251.101
 20
25.925
 10
254.401
 20
25.925
 10
254.401
 20
26.9048
 10
256.126
 20
26.9048
 10
256.126
 20
31.3752
 10
257.652
 20
31.3752
 10
257.652
 20
30.7757
 10
256.851
 20
30.7757
 10
256.851
 20
27.6751
 10
257.652
 20
27.6751
 10
257.652
 20
26.6747
 10
271.651
 20
26.6747
 10
271.651
 20
27.6751
 10
272.452
 20
27.6751
 10
272.452
 20
30.7757
 10
271.651
 20
30.7757
 10
271.651
 20
31.3752
 10
273.177
 20
31.3752
 10
273.177
 20
26.9048
 10
274.902
 20
26.9048
 10
274.902
 20
25.925
 10
278.201
 20
25.925
 10
278.201
 20
26.9048
 10
279.926
 20
26.9048
 10
279.926
 20
33.1749
 10
280.752
 20
33.1749
 10
280.752
 20
35.9752
 10
279.926
 20
35.9752
 10
279.926
 20
39.2053
 10
278.201
 20
39.2053
 10
278.201
 20
40.1256
 10
274.902
 20
40.1256
 10
274.902
 20
39.2053
 10
273.177
 20
39.2053
 10
273.177
 20
35.9752
 10
271.651
 20
35.9752
 10
271.651
 20
36.576
 10
272.452
 20
36.576
 10
272.452
 20
39.6752
 10
271.651
 20
39.6752
 10
271.651
 20
40.6756
 10
257.652
 20
40.6756
  0
LWPOLYLINE
  5
5A
100
AcDbEntity
  8
0
  6
ByLayer
 62
  256
370
   -1
100
AcDbPolyline
 90
   20
 70
    1
 43
0
 10
10.0018
 20
39.6752
 10
9.20115
 20
39.6752
 10
9.20115
 20
36.576
 10
10.0018
 20
36.576
 10
10.0018
 20
30.7757
 10
9.20115
 20
30.7757
 10
9.20115
 20
27.6751
 10
10.0018
 20
27.6751
 10
10.0018
 20
26.6747
 10
24.0013
 20
26.6747
 10
24.0013
 20
27.6751
 10
24.8019
 20
27.6751
 10
24.8019
 20
30.7757
 10
24.0013
 20
30.7757
 10
24.0013
 20
36.576
 10
24.8019
 20
36.576
 10
24.8019
 20
39.6752
 10
24.0013
 20
39.6752
 10
24.0013
 20
40.6756
 10
10.0018
 20
40.6756
  0
LWPOLYLINE
  5
5B
100
AcDbEntity
  8
0
  6
ByLayer
 62
  256
370
   -1
100
AcDbPolyline
 90
   20
 70
    1
 43
0
 10
31.4331
 20
39.6752
 10
30.6324
 20
39.6752
 10
30.6324
 20
36.576
 10
31.4331
 20
36.576
 10
31.4331
 20
30.7757
 10
30.6324
 20
30.7757
 10
30.6324
 20
27.6751
 10
31.4331
 20
27.6751
 10
31.4331
 20
26.6747
 10
45.4325
 20
26.6747
 10
45.4325
 20
27.6751
 10
46.2319
 20
27.6751
 10
46.2319
 20
30.7757
 10
45.4325
 20
30.7757
 10
45.4325
 20
36.576
 10
46.2319
 20
36.576
 10
46.2319
 20
39.6752
 10
45.4325
 20
39.6752
 10
45.4325
 20
40.6756
 10
31.4331
 20
40.6756
  0
LWPOLYLINE
  5
5C
100
AcDbEntity
  8
0
  6
ByLayer
 62
  256
370
   -1
100
AcDbPolyline
 90
   20
 70
    1
 43
0
 10
50.4832
 20
39.6752
 10
49.6824
 20
39.6752
 10
49.6824
 20
36.576
 10
50.4832
 20
36.576
 10
50.4832
 20
30.7757
 10
49.6824
 20
30.7757
 10
49.6824
 20
27.6751
 10
50.4832
 20
27.6751
 10
50.4832
 20
26.6747
 10
64.4825
 20
26.6747
 10
64.4825
 20
27.6751
 10
65.28189999999999
 20
27.6751
 10
65.28189999999999
 20
30.7757
 10
64.4825
 20
30.7757
 10
64.4825
 20
36.576
 10
65.28189999999999
 20
36.576
 10
65.28189999999999
 20
39.6752
 10
64.4825
 20
39.6752
 10
64.4825
 20
40.6756
 10
50.4832
 20
40.6756
  0
LWPOLYLINE
  5
5D
100
AcDbEntity
  8
0
  6
ByLayer
 62
  256
370
   -1
100
AcDbPolyline
 90
   20
 70
    1
 43
0
 10
69.53319999999999
 20
39.6752
 10
68.7324
 20
39.6752
 10
68.7324
 20
36.576
 10
69.53319999999999
 20
36.576
 10
69.53319999999999
 20
30.7757
 10
68.7324
 20
30.7757
 10
68.7324
 20
27.6751
 10
69.53319999999999
 20
27.6751
 10
69.53319999999999
 20
26.6747
 10
83.5325
 20
26.6747
 10
83.5325
 20
27.6751
 10
84.3319
 20
27.6751
 10
84.3319
 20
30.7757
 10
83.5325
 20
30.7757
 10
83.5325
 20
36.576
 10
84.3319
 20
36.576
 10
84.3319
 20
39.6752
 10
83.5325
 20
39.6752
 10
83.5325
 20
40.6756
 10
69.53319999999999
 20
40.6756
  0
LWPOLYLINE
  5
5E
100
AcDbEntity
  8
0
  6
ByLayer
 62
  256
370
   -1
100
AcDbPolyline
 90
   20
 70
    1
 43
0
 10
88.58320000000001
 20
39.6752
 10
87.7824
 20
39.6752
 10
87.7824
 20
36.576
 10
88.58320000000001
 20
36.576
 10
88.58320000000001
 20
30.7757
 10
87.7824
 20
30.7757
 10
87.7824
 20
27.6751
 10
88.58320000000001
 20
27.6751
 10
88.58320000000001
 20
26.6747
 10
102.582
 20
26.6747
 10
102.582
 20
27.6751
 10
103.382
 20
27.6751
 10
103.382
 20
30.7757
 10
102.582
 20
30.7757
 10
102.582
 20
36.576
 10
103.382
 20
36.576
 10
103.382
 20
39.6752
 10
102.582
 20
39.6752
 10
102.582
 20
40.6756
 10
88.58320000000001
 20
40.6756
  0
LWPOLYLINE
  5
5F
100
AcDbEntity
  8
0
  6
ByLayer
 62
  256
370
   -1
100
AcDbPolyline
 90
   20
 70
    1
 43
0
 10
107.633
 20
39.6752
 10
106.832
 20
39.6752
 10
106.832
 20
36.576
 10
107.633
 20
36.576
 10
107.633
 20
30.7757
 10
106.832
 20
30.7757
 10
106.832
 20
27.6751
 10
107.633
 20
27.6751
 10
107.633
 20
26.6747
 10
121.632
 20
26.6747
 10
121.632
 20
27.6751
 10
122.432
 20
27.6751
 10
122.432
 20
30.7757
 10
121.632
 20
30.7757
 10
121.632
 20
36.576
 10
122.432
 20
36.576
 10
122.432
 20
39.6752
 10
121.632
 20
39.6752
 10
121.632
 20
40.6756
 10
107.633
 20
40.6756
  0
LWPOLYLINE
  5
60
100
AcDbEntity
  8
0
  6
ByLayer
 62
  256
370
   -1
100
AcDbPolyline
 90
   20
 70
    1
 43
0
 10
126.683
 20
39.6752
 10
125.882
 20
39.6752
 10
125.882
 20
36.576
 10
126.683
 20
36.576
 10
126.683
 20
30.7757
 10
125.882
 20
30.7757
 10
125.882
 20
27.6751
 10
126.683
 20
27.6751
 10
126.683
 20
26.6747
 10
140.682
 20
26.6747
 10
140.682
 20
27.6751
 10
141.482
 20
27.6751
 10
141.482
 20
30.7757
 10
140.682
 20
30.7757
 10
140.682
 20
36.576
 10
141.482
 20
36.576
 10
141.482
 20
39.6752
 10
140.682
 20
39.6752
 10
140.682
 20
40.6756
 10
126.683
 20
40.6756
  0
LWPOLYLINE
  5
61
100
AcDbEntity
  8
0
  6
ByLayer
 62
  256
370
   -1
100
AcDbPolyline
 90
   20
 70
    1
 43
0
 10
145.733
 20
39.6752
 10
144.932
 20
39.6752
 10
144.932
 20
36.576
 10
145.733
 20
36.576
 10
145.733
 20
30.7757
 10
144.932
 20
30.7757
 10
144.932
 20
27.6751
 10
145.733
 20
27.6751
 10
145.733
 20
26.6747
 10
159.732
 20
26.6747
 10
159.732
 20
27.6751
 10
160.532
 20
27.6751
 10
160.532
 20
30.7757
 10
159.732
 20
30.7757
 10
159.732
 20
36.576
 10
160.532
 20
36.576
 10
160.532
 20
39.6752
 10
159.732
 20
39.6752
 10
159.732
 20
40.6756
 10
145.733
 20
40.6756
  0
LWPOLYLINE
  5
62
100
AcDbEntity
  8
0
  6
ByLayer
 62
  256
370
   -1
100
AcDbPolyline
 90
   20
 70
    1
 43
0
 10
164.783
 20
39.6752
 10
163.982
 20
39.6752
 10
163.982
 20
36.576
 10
164.783
 20
36.576
 10
164.783
 20
30.7757
 10
163.982
 20
30.7757
 10
163.982
 20
27.6751
 10
164.783
 20
27.6751
 10
164.783
 20
26.6747
 10
178.782
 20
26.6747
 10
178.782
 20
27.6751
 10
179.582
 20
27.6751
 10
179.582
 20
30.7757
 10
178.782
 20
30.7757
 10
178.782
 20
36.576
 10
179.582
 20
36.576
 10
179.582
 20
39.6752
 10
178.782
 20
39.6752
 10
178.782
 20
40.6756
 10
164.783
 20
40.6756
  0
LWPOLYLINE
  5
63
100
AcDbEntity
  8
0
  6
ByLayer
 62
  256
370
   -1
100
AcDbPolyline
 90
   20
 70
    1
 43
0
 10
183.833
 20
39.6752
 10
183.032
 20
39.6752
 10
183.032
 20
36.576
 10
183.833
 20
36.576
 10
183.833
 20
30.7757
 10
183.032
 20
30.7757
 10
183.032
 20
27.6751
 10
183.833
 20
27.6751
 10
183.833
 20
26.6747
 10
197.832
 20
26.6747
 10
197.832
 20
27.6751
 10
198.632
 20
27.6751
 10
198.632
 20
30.7757
 10
197.832
 20
30.7757
 10
197.832
 20
36.576
 10
198.632
 20
36.576
 10
198.632
 20
39.6752
 10
197.832
 20
39.6752
 10
197.832
 20
40.6756
 10
183.833
 20
40.6756
  0
LWPOLYLINE
  5
64
100
AcDbEntity
  8
0
  6
ByLayer
 62
  256
370
   -1
100
AcDbPolyline
 90
   20
 70
    1
 43
0
 10
202.883
 20
39.6752
 10
202.082
 20
39.6752
 10
202.082
 20
36.576
 10
202.883
 20
36.576
 10
202.883
 20
30.7757
 10
202.082
 20
30.7757
 10
202.082
 20
27.6751
 10
202.883
 20
27.6751
 10
202.883
 20
26.6747
 10
216.882
 20
26.6747
 10
216.882
 20
27.6751
 10
217.682
 20
27.6751
 10
217.682
 20
30.7757
 10
216.882
 20
30.7757
 10
216.882
 20
36.576
 10
217.682
 20
36.576
 10
217.682
 20
39.6752
 10
216.882
 20
39.6752
 10
216.882
 20
40.6756
 10
202.883
 20
40.6756
  0
LWPOLYLINE
  5
65
100
AcDbEntity
  8
0
  6
ByLayer
 62
  256
370
   -1
100
AcDbPolyline
 90
   20
 70
    1
 43
0
 10
221.933
 20
39.6752
 10
221.132
 20
39.6752
 10
221.132
 20
36.576
 10
221.933
 20
36.576
 10
221.933
 20
30.7757
 10
221.132
 20
30.7757
 10
221.132
 20
27.6751
 10
221.933
 20
27.6751
 10
221.933
 20
26.6747
 10
235.932
 20
26.6747
 10
235.932
 20
27.6751
 10
236.732
 20
27.6751
 10
236.732
 20
30.7757
 10
235.932
 20
30.7757
 10
235.932
 20
36.576
 10
236.732
 20
36.576
 10
236.732
 20
39.6752
 10
235.932
 20
39.6752
 10
235.932
 20
40.6756
 10
221.933
 20
40.6756
  0
LWPOLYLINE
  5
66
100
AcDbEntity
  8
0
  6
ByLayer
 62
  256
370
   -1
100
AcDbPolyline
 90
   20
 70
    1
 43
0
 10
296.227
 20
39.6752
 10
295.428
 20
39.6752
 10
295.428
 20
36.576
 10
296.227
 20
36.576
 10
296.227
 20
30.7757
 10
295.428
 20
30.7757
 10
295.428
 20
27.6751
 10
296.227
 20
27.6751
 10
296.227
 20
26.6747
 10
310.228
 20
26.6747
 10
310.228
 20
27.6751
 10
311.027
 20
27.6751
 10
311.027
 20
30.7757
 10
310.228
 20
30.7757
 10
310.228
 20
36.576
 10
311.027
 20
36.576
 10
311.027
 20
39.6752
 10
310.228
 20
39.6752
 10
310.228
 20
40.6756
 10
296.227
 20
40.6756
  0
LWPOLYLINE
  5
67
100
AcDbEntity
  8
0
  6
ByLayer
 62
  256
370
   -1
100
AcDbPolyline
 90
   20
 70
    1
 43
0
 10
315.277
 20
39.6752
 10
314.478
 20
39.6752
 10
314.478
 20
36.576
 10
315.277
 20
36.576
 10
315.277
 20
30.7757
 10
314.478
 20
30.7757
 10
314.478
 20
27.6751
 10
315.277
 20
27.6751
 10
315.277
 20
26.6747
 10
329.278
 20
26.6747
 10
329.278
 20
27.6751
 10
330.077
 20
27.6751
 10
330.077
 20
30.7757
 10
329.278
 20
30.7757
 10
329.278
 20
36.576
 10
330.077
 20
36.576
 10
330.077
 20
39.6752
 10
329.278
 20
39.6752
 10
329.278
 20
40.6756
 10
315.277
 20
40.6756
  0
LWPOLYLINE
  5
68
100
AcDbEntity
  8
0
  6
ByLayer
 62
  256
370
   -1
100
AcDbPolyline
 90
   20
 70
    1
 43
0
 10
334.327
 20
39.6752
 10
333.528
 20
39.6752
 10
333.528
 20
36.576
 10
334.327
 20
36.576
 10
334.327
 20
30.7757
 10
333.528
 20
30.7757
 10
333.528
 20
27.6751
 10
334.327
 20
27.6751
 10
334.327
 20
26.6747
 10
348.328
 20
26.6747
 10
348.328
 20
27.6751
 10
349.127
 20
27.6751
 10
349.127
 20
30.7757
 10
348.328
 20
30.7757
 10
348.328
 20
36.576
 10
349.127
 20
36.576
 10
349.127
 20
39.6752
 10
348.328
 20
39.6752
 10
348.328
 20
40.6756
 10
334.327
 20
40.6756
  0
LWPOLYLINE
  5
69
100
AcDbEntity
  8
0
  6
ByLayer
 62
  256
370
   -1
100
AcDbPolyline
 90
   20
 70
    1
 43
0
 10
14.7629
 20
58.7252
 10
13.9637
 20
58.7252
 10
13.9637
 20
55.626
 10
14.7629
 20
55.626
 10
14.7629
 20
49.8256
 10
13.9637
 20
49.8256
 10
13.9637
 20
46.7251
 10
14.7629
 20
46.7251
 10
14.7629
 20
45.7246
 10
28.7638
 20
45.7246
 10
28.7638
 20
46.7251
 10
29.5631
 20
46.7251
 10
29.5631
 20
49.8256
 10
28.7638
 20
49.8256
 10
28.7638
 20
55.626
 10
29.5631
 20
55.626
 10
29.5631
 20
58.7252
 10
28.7638
 20
58.7252
 10
28.7638
 20
59.7256
 10
14.7629
 20
59.7256
  0
LWPOLYLINE
  5
6A
100
AcDbEntity
  8
0
  6
ByLayer
 62
  256
370
   -1
100
AcDbPolyline
 90
   20
 70
    1
 43
0
 10
40.9582
 20
58.7252
 10
40.1574
 20
58.7252
 10
40.1574
 20
55.626
 10
40.9582
 20
55.626
 10
40.9582
 20
49.8256
 10
40.1574
 20
49.8256
 10
40.1574
 20
46.7251
 10
40.9582
 20
46.7251
 10
40.9582
 20
45.7246
 10
54.9575
 20
45.7246
 10
54.9575
 20
46.7251
 10
55.7569
 20
46.7251
 10
55.7569
 20
49.8256
 10
54.9575
 20
49.8256
 10
54.9575
 20
55.626
 10
55.7569
 20
55.626
 10
55.7569
 20
58.7252
 10
54.9575
 20
58.7252
 10
54.9575
 20
59.7256
 10
40.9582
 20
59.7256
  0
LWPOLYLINE
  5
6B
100
AcDbEntity
  8
0
  6
ByLayer
 62
  256
370
   -1
100
AcDbPolyline
 90
   20
 70
    1
 43
0
 10
60.0082
 20
58.7252
 10
59.206
 20
58.7252
 10
59.206
 20
55.626
 10
60.0082
 20
55.626
 10
60.0082
 20
49.8256
 10
59.206
 20
49.8256
 10
59.206
 20
46.7251
 10
60.0082
 20
46.7251
 10
60.0082
 20
45.7246
 10
74.00749999999999
 20
45.7246
 10
74.00749999999999
 20
46.7251
 10
74.8069
 20
46.7251
 10
74.8069
 20
49.8256
 10
74.00749999999999
 20
49.8256
 10
74.00749999999999
 20
55.626
 10
74.8069
 20
55.626
 10
74.8069
 20
58.7252
 10
74.00749999999999
 20
58.7252
 10
74.00749999999999
 20
59.7256
 10
60.0082
 20
59.7256
  0
LWPOLYLINE
  5
6C
100
AcDbEntity
  8
0
  6
ByLayer
 62
  256
370
   -1
100
AcDbPolyline
 90
   20
 70
    1
 43
0
 10
79.0582
 20
58.7252
 10
78.2574
 20
58.7252
 10
78.2574
 20
55.626
 10
79.0582
 20
55.626
 10
79.0582
 20
49.8256
 10
78.2574
 20
49.8256
 10
78.2574
 20
46.7251
 10
79.0582
 20
46.7251
 10
79.0582
 20
45.7246
 10
93.0575
 20
45.7246
 10
93.0575
 20
46.7251
 10
93.8569
 20
46.7251
 10
93.8569
 20
49.8256
 10
93.0575
 20
49.8256
 10
93.0575
 20
55.626
 10
93.8569
 20
55.626
 10
93.8569
 20
58.7252
 10
93.0575
 20
58.7252
 10
93.0575
 20
59.7256
 10
79.0582
 20
59.7256
  0
LWPOLYLINE
  5
6D
100
AcDbEntity
  8
0
  6
ByLayer
 62
  256
370
   -1
100
AcDbPolyline
 90
   20
 70
    1
 43
0
 10
98.1082
 20
58.7252
 10
97.3074
 20
58.7252
 10
97.3074
 20
55.626
 10
98.1082
 20
55.626
 10
98.1082
 20
49.8256
 10
97.3074
 20
49.8256
 10
97.3074
 20
46.7251
 10
98.1082
 20
46.7251
 10
98.1082
 20
45.7246
 10
112.107
 20
45.7246
 10
112.107
 20
46.7251
 10
112.907
 20
46.7251
 10
112.907
 20
49.8256
 10
112.107
 20
49.8256
 10
112.107
 20
55.626
 10
112.907
 20
55.626
 10
112.907
 20
58.7252
 10
112.107
 20
58.7252
 10
112.107
 20
59.7256
 10
98.1082
 20
59.7256
  0
LWPOLYLINE
  5
6E
100
AcDbEntity
  8
0
  6
ByLayer
 62
  256
370
   -1
100
AcDbPolyline
 90
   20
 70
    1
 43
0
 10
117.158
 20
58.7252
 10
116.357
 20
58.7252
 10
116.357
 20
55.626
 10
117.158
 20
55.626
 10
117.158
 20
49.8256
 10
116.357
 20
49.8256
 10
116.357
 20
46.7251
 10
117.158
 20
46.7251
 10
117.158
 20
45.7246
 10
131.157
 20
45.7246
 10
131.157
 20
46.7251
 10
131.957
 20
46.7251
 10
131.957
 20
49.8256
 10
131.157
 20
49.8256
 10
131.157
 20
55.626
 10
131.957
 20
55.626
 10
131.957
 20
58.7252
 10
131.157
 20
58.7252
 10
131.157
 20
59.7256
 10
117.158
 20
59.7256
  0
LWPOLYLINE
  5
6F
100
AcDbEntity
  8
0
  6
ByLayer
 62
  256
370
   -1
100
AcDbPolyline
 90
   20
 70
    1
 43
0
 10
136.208
 20
58.7252
 10
135.407
 20
58.7252
 10
135.407
 20
55.626
 10
136.208
 20
55.626
 10
136.208
 20
49.8256
 10
135.407
 20
49.8256
 10
135.407
 20
46.7251
 10
136.208
 20
46.7251
 10
136.208
 20
45.7246
 10
150.207
 20
45.7246
 10
150.207
 20
46.7251
 10
151.007
 20
46.7251
 10
151.007
 20
49.8256
 10
150.207
 20
49.8256
 10
150.207
 20
55.626
 10
151.007
 20
55.626
 10
151.007
 20
58.7252
 10
150.207
 20
58.7252
 10
150.207
 20
59.7256
 10
136.208
 20
59.7256
  0
LWPOLYLINE
  5
70
100
AcDbEntity
  8
0
  6
ByLayer
 62
  256
370
   -1
100
AcDbPolyline
 90
   20
 70
    1
 43
0
 10
155.258
 20
58.7252
 10
154.457
 20
58.7252
 10
154.457
 20
55.626
 10
155.258
 20
55.626
 10
155.258
 20
49.8256
 10
154.457
 20
49.8256
 10
154.457
 20
46.7251
 10
155.258
 20
46.7251
 10
155.258
 20
45.7246
 10
169.257
 20
45.7246
 10
169.257
 20
46.7251
 10
170.057
 20
46.7251
 10
170.057
 20
49.8256
 10
169.257
 20
49.8256
 10
169.257
 20
55.626
 10
170.057
 20
55.626
 10
170.057
 20
58.7252
 10
169.257
 20
58.7252
 10
169.257
 20
59.7256
 10
155.258
 20
59.7256
  0
LWPOLYLINE
  5
71
100
AcDbEntity
  8
0
  6
ByLayer
 62
  256
370
   -1
100
AcDbPolyline
 90
   20
 70
    1
 43
0
 10
174.308
 20
58.7252
 10
173.507
 20
58.7252
 10
173.507
 20
55.626
 10
174.308
 20
55.626
 10
174.308
 20
49.8256
 10
173.507
 20
49.8256
 10
173.507
 20
46.7251
 10
174.308
 20
46.7251
 10
174.308
 20
45.7246
 10
188.307
 20
45.7246
 10
188.307
 20
46.7251
 10
189.107
 20
46.7251
 10
189.107
 20
49.8256
 10
188.307
 20
49.8256
 10
188.307
 20
55.626
 10
189.107
 20
55.626
 10
189.107
 20
58.7252
 10
188.307
 20
58.7252
 10
188.307
 20
59.7256
 10
174.308
 20
59.7256
  0
LWPOLYLINE
  5
72
100
AcDbEntity
  8
0
  6
ByLayer
 62
  256
370
   -1
100
AcDbPolyline
 90
   20
 70
    1
 43
0
 10
193.358
 20
58.7252
 10
192.557
 20
58.7252
 10
192.557
 20
55.626
 10
193.358
 20
55.626
 10
193.358
 20
49.8256
 10
192.557
 20
49.8256
 10
192.557
 20
46.7251
 10
193.358
 20
46.7251
 10
193.358
 20
45.7246
 10
207.357
 20
45.7246
 10
207.357
 20
46.7251
 10
208.157
 20
46.7251
 10
208.157
 20
49.8256
 10
207.357
 20
49.8256
 10
207.357
 20
55.626
 10
208.157
 20
55.626
 10
208.157
 20
58.7252
 10
207.357
 20
58.7252
 10
207.357
 20
59.7256
 10
193.358
 20
59.7256
  0
LWPOLYLINE
  5
73
100
AcDbEntity
  8
0
  6
ByLayer
 62
  256
370
   -1
100
AcDbPolyline
 90
   20
 70
    1
 43
0
 10
212.408
 20
58.7252
 10
211.607
 20
58.7252
 10
211.607
 20
55.626
 10
212.408
 20
55.626
 10
212.408
 20
49.8256
 10
211.607
 20
49.8256
 10
211.607
 20
46.7251
 10
212.408
 20
46.7251
 10
212.408
 20
45.7246
 10
226.407
 20
45.7246
 10
226.407
 20
46.7251
 10
227.207
 20
46.7251
 10
227.207
 20
49.8256
 10
226.407
 20
49.8256
 10
226.407
 20
55.626
 10
227.207
 20
55.626
 10
227.207
 20
58.7252
 10
226.407
 20
58.7252
 10
226.407
 20
59.7256
 10
212.408
 20
59.7256
  0
LWPOLYLINE
  5
74
100
AcDbEntity
  8
0
  6
ByLayer
 62
  256
370
   -1
100
AcDbPolyline
 90
   20
 70
    1
 43
0
 10
231.458
 20
58.7252
 10
230.657
 20
58.7252
 10
230.657
 20
55.626
 10
231.458
 20
55.626
 10
231.458
 20
49.8256
 10
230.657
 20
49.8256
 10
230.657
 20
46.7251
 10
231.458
 20
46.7251
 10
231.458
 20
45.7246
 10
245.457
 20
45.7246
 10
245.457
 20
46.7251
 10
246.257
 20
46.7251
 10
246.257
 20
49.8256
 10
245.457
 20
49.8256
 10
245.457
 20
55.626
 10
246.257
 20
55.626
 10
246.257
 20
58.7252
 10
245.457
 20
58.7252
 10
245.457
 20
59.7256
 10
231.458
 20
59.7256
  0
LWPOLYLINE
  5
75
100
AcDbEntity
  8
0
  6
ByLayer
 62
  256
370
   -1
100
AcDbPolyline
 90
   20
 70
    1
 43
0
 10
250.508
 20
58.7252
 10
249.707
 20
58.7252
 10
249.707
 20
55.626
 10
250.508
 20
55.626
 10
250.508
 20
49.8256
 10
249.707
 20
49.8256
 10
249.707
 20
46.7251
 10
250.508
 20
46.7251
 10
250.508
 20
45.7246
 10
264.507
 20
45.7246
 10
264.507
 20
46.7251
 10
265.307
 20
46.7251
 10
265.307
 20
49.8256
 10
264.507
 20
49.8256
 10
264.507
 20
55.626
 10
265.307
 20
55.626
 10
265.307
 20
58.7252
 10
264.507
 20
58.7252
 10
264.507
 20
59.7256
 10
250.508
 20
59.7256
  0
LWPOLYLINE
  5
76
100
AcDbEntity
  8
0
  6
ByLayer
 62
  256
370
   -1
100
AcDbPolyline
 90
   20
 70
    1
 43
0
 10
296.227
 20
58.7252
 10
295.428
 20
58.7252
 10
295.428
 20
55.626
 10
296.227
 20
55.626
 10
296.227
 20
49.8256
 10
295.428
 20
49.8256
 10
295.428
 20
46.7251
 10
296.227
 20
46.7251
 10
296.227
 20
45.7246
 10
310.228
 20
45.7246
 10
310.228
 20
46.7251
 10
311.027
 20
46.7251
 10
311.027
 20
49.8256
 10
310.228
 20
49.8256
 10
310.228
 20
55.626
 10
311.027
 20
55.626
 10
311.027
 20
58.7252
 10
310.228
 20
58.7252
 10
310.228
 20
59.7256
 10
296.227
 20
59.7256
  0
LWPOLYLINE
  5
77
100
AcDbEntity
  8
0
  6
ByLayer
 62
  256
370
   -1
100
AcDbPolyline
 90
   20
 70
    1
 43
0
 10
315.277
 20
58.7252
 10
314.478
 20
58.7252
 10
314.478
 20
55.626
 10
315.277
 20
55.626
 10
315.277
 20
49.8256
 10
314.478
 20
49.8256
 10
314.478
 20
46.7251
 10
315.277
 20
46.7251
 10
315.277
 20
45.7246
 10
329.278
 20
45.7246
 10
329.278
 20
46.7251
 10
330.077
 20
46.7251
 10
330.077
 20
49.8256
 10
329.278
 20
49.8256
 10
329.278
 20
55.626
 10
330.077
 20
55.626
 10
330.077
 20
58.7252
 10
329.278
 20
58.7252
 10
329.278
 20
59.7256
 10
315.277
 20
59.7256
  0
LWPOLYLINE
  5
78
100
AcDbEntity
  8
0
  6
ByLayer
 62
  256
370
   -1
100
AcDbPolyline
 90
   20
 70
    1
 43
0
 10
334.327
 20
58.7252
 10
333.528
 20
58.7252
 10
333.528
 20
55.626
 10
334.327
 20
55.626
 10
334.327
 20
49.8256
 10
333.528
 20
49.8256
 10
333.528
 20
46.7251
 10
334.327
 20
46.7251
 10
334.327
 20
45.7246
 10
348.328
 20
45.7246
 10
348.328
 20
46.7251
 10
349.127
 20
46.7251
 10
349.127
 20
49.8256
 10
348.328
 20
49.8256
 10
348.328
 20
55.626
 10
349.127
 20
55.626
 10
349.127
 20
58.7252
 10
348.328
 20
58.7252
 10
348.328
 20
59.7256
 10
334.327
 20
59.7256
  0
LWPOLYLINE
  5
79
100
AcDbEntity
  8
0
  6
ByLayer
 62
  256
370
   -1
100
AcDbPolyline
 90
   60
 70
    1
 43
0
 10
278.438
 20
77.5257
 10
272.168
 20
77.5257
 10
272.168
 20
75.80029999999999
 10
271.188
 20
75.80029999999999
 10
271.188
 20
72.5001
 10
272.168
 20
72.5001
 10
272.168
 20
70.77460000000001
 10
276.638
 20
70.77460000000001
 10
276.638
 20
69.25060000000001
 10
276.039
 20
69.25060000000001
 10
276.039
 20
70.0497
 10
272.939
 20
70.0497
 10
272.939
 20
69.25060000000001
 10
271.938
 20
69.25060000000001
 10
271.938
 20
55.2496
 10
272.939
 20
55.2496
 10
272.939
 20
54.4505
 10
276.039
 20
54.4505
 10
276.039
 20
55.2496
 10
276.638
 20
55.2496
 10
276.638
 20
53.7256
 10
272.168
 20
53.7256
 10
272.168
 20
52.0001
 10
271.188
 20
52.0001
 10
271.188
 20
48.6999
 10
272.168
 20
48.6999
 10
272.168
 20
46.9759
 10
278.438
 20
46.9759
 10
278.438
 20
46.1504
 10
281.238
 20
46.1504
 10
281.238
 20
46.9759
 10
284.468
 20
46.9759
 10
284.468
 20
48.6999
 10
285.389
 20
48.6999
 10
285.389
 20
52.0001
 10
284.468
 20
52.0001
 10
284.468
 20
53.7256
 10
281.238
 20
53.7256
 10
281.238
 20
55.2496
 10
281.839
 20
55.2496
 10
281.839
 20
54.4505
 10
284.938
 20
54.4505
 10
284.938
 20
55.2496
 10
285.939
 20
55.2496
 10
285.939
 20
69.25060000000001
 10
284.938
 20
69.25060000000001
 10
284.938
 20
70.0497
 10
281.839
 20
70.0497
 10
281.839
 20
69.25060000000001
 10
281.238
 20
69.25060000000001
 10
281.238
 20
70.77460000000001
 10
284.468
 20
70.77460000000001
 10
284.468
 20
72.5001
 10
285.389
 20
72.5001
 10
285.389
 20
75.80029999999999
 10
284.468
 20
75.80029999999999
 10
284.468
 20
77.5257
 10
281.238
 20
77.5257
 10
281.238
 20
78.3498
 10
278.438
 20
78.3498
  0
LWPOLYLINE
  5
7A
100
AcDbEntity
  8
0
  6
ByLayer
 62
  256
370
   -1
100
AcDbPolyline
 90
   20
 70
    1
 43
0
 10
12.3831
 20
77.7752
 10
11.5824
 20
77.7752
 10
11.5824
 20
74.676
 10
12.3831
 20
74.676
 10
12.3831
 20
68.87560000000001
 10
11.5824
 20
68.87560000000001
 10
11.5824
 20
65.77509999999999
 10
12.3831
 20
65.77509999999999
 10
12.3831
 20
64.77460000000001
 10
26.3826
 20
64.77460000000001
 10
26.3826
 20
65.77509999999999
 10
27.1818
 20
65.77509999999999
 10
27.1818
 20
68.87560000000001
 10
26.3826
 20
68.87560000000001
 10
26.3826
 20
74.676
 10
27.1818
 20
74.676
 10
27.1818
 20
77.7752
 10
26.3826
 20
77.7752
 10
26.3826
 20
78.7756
 10
12.3831
 20
78.7756
  0
LWPOLYLINE
  5
7B
100
AcDbEntity
  8
0
  6
ByLayer
 62
  256
370
   -1
100
AcDbPolyline
 90
   20
 70
    1
 43
0
 10
36.1957
 20
77.7752
 10
35.3949
 20
77.7752
 10
35.3949
 20
74.676
 10
36.1957
 20
74.676
 10
36.1957
 20
68.87560000000001
 10
35.3949
 20
68.87560000000001
 10
35.3949
 20
65.77509999999999
 10
36.1957
 20
65.77509999999999
 10
36.1957
 20
64.77460000000001
 10
50.195
 20
64.77460000000001
 10
50.195
 20
65.77509999999999
 10
50.9958
 20
65.77509999999999
 10
50.9958
 20
68.87560000000001
 10
50.195
 20
68.87560000000001
 10
50.195
 20
74.676
 10
50.9958
 20
74.676
 10
50.9958
 20
77.7752
 10
50.195
 20
77.7752
 10
50.195
 20
78.7756
 10
36.1957
 20
78.7756
  0
LWPOLYLINE
  5
7C
100
AcDbEntity
  8
0
  6
ByLayer
 62
  256
370
   -1
100
AcDbPolyline
 90
   20
 70
    1
 43
0
 10
55.2457
 20
77.7752
 10
54.4449
 20
77.7752
 10
54.4449
 20
74.676
 10
55.2457
 20
74.676
 10
55.2457
 20
68.87560000000001
 10
54.4449
 20
68.87560000000001
 10
54.4449
 20
65.77509999999999
 10
55.2457
 20
65.77509999999999
 10
55.2457
 20
64.77460000000001
 10
69.245
 20
64.77460000000001
 10
69.245
 20
65.77509999999999
 10
70.0458
 20
65.77509999999999
 10
70.0458
 20
68.87560000000001
 10
69.245
 20
68.87560000000001
 10
69.245
 20
74.676
 10
70.0458
 20
74.676
 10
70.0458
 20
77.7752
 10
69.245
 20
77.7752
 10
69.245
 20
78.7756
 10
55.2457
 20
78.7756
  0
LWPOLYLINE
  5
7D
100
AcDbEntity
  8
0
  6
ByLayer
 62
  256
370
   -1
100
AcDbPolyline
 90
   20
 70
    1
 43
0
 10
74.2957
 20
77.7752
 10
73.4949
 20
77.7752
 10
73.4949
 20
74.676
 10
74.2957
 20
74.676
 10
74.2957
 20
68.87560000000001
 10
73.4949
 20
68.87560000000001
 10
73.4949
 20
65.77509999999999
 10
74.2957
 20
65.77509999999999
 10
74.2957
 20
64.77460000000001
 10
88.295
 20
64.77460000000001
 10
88.295
 20
65.77509999999999
 10
89.0958
 20
65.77509999999999
 10
89.0958
 20
68.87560000000001
 10
88.295
 20
68.87560000000001
 10
88.295
 20
74.676
 10
89.0958
 20
74.676
 10
89.0958
 20
77.7752
 10
88.295
 20
77.7752
 10
88.295
 20
78.7756
 10
74.2957
 20
78.7756
  0
LWPOLYLINE
  5
7E
100
AcDbEntity
  8
0
  6
ByLayer
 62
  256
370
   -1
100
AcDbPolyline
 90
   20
 70
    1
 43
0
 10
93.34569999999999
 20
77.7752
 10
92.5449
 20
77.7752
 10
92.5449
 20
74.676
 10
93.34569999999999
 20
74.676
 10
93.34569999999999
 20
68.87560000000001
 10
92.5449
 20
68.87560000000001
 10
92.5449
 20
65.77509999999999
 10
93.34569999999999
 20
65.77509999999999
 10
93.34569999999999
 20
64.77460000000001
 10
107.345
 20
64.77460000000001
 10
107.345
 20
65.77509999999999
 10
108.146
 20
65.77509999999999
 10
108.146
 20
68.87560000000001
 10
107.345
 20
68.87560000000001
 10
107.345
 20
74.676
 10
108.146
 20
74.676
 10
108.146
 20
77.7752
 10
107.345
 20
77.7752
 10
107.345
 20
78.7756
 10
93.34569999999999
 20
78.7756
  0
LWPOLYLINE
  5
7F
100
AcDbEntity
  8
0
  6
ByLayer
 62
  256
370
   -1
100
AcDbPolyline
 90
   20
 70
    1
 43
0
 10
112.396
 20
77.7752
 10
111.595
 20
77.7752
 10
111.595
 20
74.676
 10
112.396
 20
74.676
 10
112.396
 20
68.87560000000001
 10
111.595
 20
68.87560000000001
 10
111.595
 20
65.77509999999999
 10
112.396
 20
65.77509999999999
 10
112.396
 20
64.77460000000001
 10
126.395
 20
64.77460000000001
 10
126.395
 20
65.77509999999999
 10
127.196
 20
65.77509999999999
 10
127.196
 20
68.87560000000001
 10
126.395
 20
68.87560000000001
 10
126.395
 20
74.676
 10
127.196
 20
74.676
 10
127.196
 20
77.7752
 10
126.395
 20
77.7752
 10
126.395
 20
78.7756
 10
112.396
 20
78.7756
  0
LWPOLYLINE
  5
80
100
AcDbEntity
  8
0
  6
ByLayer
 62
  256
370
   -1
100
AcDbPolyline
 90
   20
 70
    1
 43
0
 10
131.446
 20
77.7752
 10
130.645
 20
77.7752
 10
130.645
 20
74.676
 10
131.446
 20
74.676
 10
131.446
 20
68.87560000000001
 10
130.645
 20
68.87560000000001
 10
130.645
 20
65.77509999999999
 10
131.446
 20
65.77509999999999
 10
131.446
 20
64.77460000000001
 10
145.445
 20
64.77460000000001
 10
145.445
 20
65.77509999999999
 10
146.246
 20
65.77509999999999
 10
146.246
 20
68.87560000000001
 10
145.445
 20
68.87560000000001
 10
145.445
 20
74.676
 10
146.246
 20
74.676
 10
146.246
 20
77.7752
 10
145.445
 20
77.7752
 10
145.445
 20
78.7756
 10
131.446
 20
78.7756
  0
LWPOLYLINE
  5
81
100
AcDbEntity
  8
0
  6
ByLayer
 62
  256
370
   -1
100
AcDbPolyline
 90
   20
 70
    1
 43
0
 10
150.496
 20
77.7752
 10
149.695
 20
77.7752
 10
149.695
 20
74.676
 10
150.496
 20
74.676
 10
150.496
 20
68.87560000000001
 10
149.695
 20
68.87560000000001
 10
149.695
 20
65.77509999999999
 10
150.496
 20
65.77509999999999
 10
150.496
 20
64.77460000000001
 10
164.495
 20
64.77460000000001
 10
164.495
 20
65.77509999999999
 10
165.296
 20
65.77509999999999
 10
165.296
 20
68.87560000000001
 10
164.495
 20
68.87560000000001
 10
164.495
 20
74.676
 10
165.296
 20
74.676
 10
165.296
 20
77.7752
 10
164.495
 20
77.7752
 10
164.495
 20
78.7756
 10
150.496
 20
78.7756
  0
LWPOLYLINE
  5
82
100
AcDbEntity
  8
0
  6
ByLayer
 62
  256
370
   -1
100
AcDbPolyline
 90
   20
 70
    1
 43
0
 10
169.546
 20
77.7752
 10
168.745
 20
77.7752
 10
168.745
 20
74.676
 10
169.546
 20
74.676
 10
169.546
 20
68.87560000000001
 10
168.745
 20
68.87560000000001
 10
168.745
 20
65.77509999999999
 10
169.546
 20
65.77509999999999
 10
169.546
 20
64.77460000000001
 10
183.545
 20
64.77460000000001
 10
183.545
 20
65.77509999999999
 10
184.346
 20
65.77509999999999
 10
184.346
 20
68.87560000000001
 10
183.545
 20
68.87560000000001
 10
183.545
 20
74.676
 10
184.346
 20
74.676
 10
184.346
 20
77.7752
 10
183.545
 20
77.7752
 10
183.545
 20
78.7756
 10
169.546
 20
78.7756
  0
LWPOLYLINE
  5
83
100
AcDbEntity
  8
0
  6
ByLayer
 62
  256
370
   -1
100
AcDbPolyline
 90
   20
 70
    1
 43
0
 10
188.596
 20
77.7752
 10
187.795
 20
77.7752
 10
187.795
 20
74.676
 10
188.596
 20
74.676
 10
188.596
 20
68.87560000000001
 10
187.795
 20
68.87560000000001
 10
187.795
 20
65.77509999999999
 10
188.596
 20
65.77509999999999
 10
188.596
 20
64.77460000000001
 10
202.595
 20
64.77460000000001
 10
202.595
 20
65.77509999999999
 10
203.396
 20
65.77509999999999
 10
203.396
 20
68.87560000000001
 10
202.595
 20
68.87560000000001
 10
202.595
 20
74.676
 10
203.396
 20
74.676
 10
203.396
 20
77.7752
 10
202.595
 20
77.7752
 10
202.595
 20
78.7756
 10
188.596
 20
78.7756
  0
LWPOLYLINE
  5
84
100
AcDbEntity
  8
0
  6
ByLayer
 62
  256
370
   -1
100
AcDbPolyline
 90
   20
 70
    1
 43
0
 10
207.646
 20
77.7752
 10
206.845
 20
77.7752
 10
206.845
 20
74.676
 10
207.646
 20
74.676
 10
207.646
 20
68.87560000000001
 10
206.845
 20
68.87560000000001
 10
206.845
 20
65.77509999999999
 10
207.646
 20
65.77509999999999
 10
207.646
 20
64.77460000000001
 10
221.645
 20
64.77460000000001
 10
221.645
 20
65.77509999999999
 10
222.446
 20
65.77509999999999
 10
222.446
 20
68.87560000000001
 10
221.645
 20
68.87560000000001
 10
221.645
 20
74.676
 10
222.446
 20
74.676
 10
222.446
 20
77.7752
 10
221.645
 20
77.7752
 10
221.645
 20
78.7756
 10
207.646
 20
78.7756
  0
LWPOLYLINE
  5
85
100
AcDbEntity
  8
0
  6
ByLayer
 62
  256
370
   -1
100
AcDbPolyline
 90
   20
 70
    1
 43
0
 10
226.696
 20
77.7752
 10
225.895
 20
77.7752
 10
225.895
 20
74.676
 10
226.696
 20
74.676
 10
226.696
 20
68.87560000000001
 10
225.895
 20
68.87560000000001
 10
225.895
 20
65.77509999999999
 10
226.696
 20
65.77509999999999
 10
226.696
 20
64.77460000000001
 10
240.695
 20
64.77460000000001
 10
240.695
 20
65.77509999999999
 10
241.496
 20
65.77509999999999
 10
241.496
 20
68.87560000000001
 10
240.695
 20
68.87560000000001
 10
240.695
 20
74.676
 10
241.496
 20
74.676
 10
241.496
 20
77.7752
 10
240.695
 20
77.7752
 10
240.695
 20
78.7756
 10
226.696
 20
78.7756
  0
LWPOLYLINE
  5
86
100
AcDbEntity
  8
0
  6
ByLayer
 62
  256
370
   -1
100
AcDbPolyline
 90
   20
 70
    1
 43
0
 10
245.746
 20
77.7752
 10
244.945
 20
77.7752
 10
244.945
 20
74.676
 10
245.746
 20
74.676
 10
245.746
 20
68.87560000000001
 10
244.945
 20
68.87560000000001
 10
244.945
 20
65.77509999999999
 10
245.746
 20
65.77509999999999
 10
245.746
 20
64.77460000000001
 10
259.745
 20
64.77460000000001
 10
259.745
 20
65.77509999999999
 10
260.546
 20
65.77509999999999
 10
260.546
 20
68.87560000000001
 10
259.745
 20
68.87560000000001
 10
259.745
 20
74.676
 10
260.546
 20
74.676
 10
260.546
 20
77.7752
 10
259.745
 20
77.7752
 10
259.745
 20
78.7756
 10
245.746
 20
78.7756
  0
LWPOLYLINE
  5
87
100
AcDbEntity
  8
0
  6
ByLayer
 62
  256
370
   -1
100
AcDbPolyline
 90
   20
 70
    1
 43
0
 10
296.227
 20
77.7752
 10
295.428
 20
77.7752
 10
295.428
 20
74.676
 10
296.227
 20
74.676
 10
296.227
 20
68.87560000000001
 10
295.428
 20
68.87560000000001
 10
295.428
 20
65.77509999999999
 10
296.227
 20
65.77509999999999
 10
296.227
 20
64.77460000000001
 10
310.228
 20
64.77460000000001
 10
310.228
 20
65.77509999999999
 10
311.027
 20
65.77509999999999
 10
311.027
 20
68.87560000000001
 10
310.228
 20
68.87560000000001
 10
310.228
 20
74.676
 10
311.027
 20
74.676
 10
311.027
 20
77.7752
 10
310.228
 20
77.7752
 10
310.228
 20
78.7756
 10
296.227
 20
78.7756
  0
LWPOLYLINE
  5
88
100
AcDbEntity
  8
0
  6
ByLayer
 62
  256
370
   -1
100
AcDbPolyline
 90
   20
 70
    1
 43
0
 10
315.277
 20
77.7752
 10
314.478
 20
77.7752
 10
314.478
 20
74.676
 10
315.277
 20
74.676
 10
315.277
 20
68.87560000000001
 10
314.478
 20
68.87560000000001
 10
314.478
 20
65.77509999999999
 10
315.277
 20
65.77509999999999
 10
315.277
 20
64.77460000000001
 10
329.278
 20
64.77460000000001
 10
329.278
 20
65.77509999999999
 10
330.077
 20
65.77509999999999
 10
330.077
 20
68.87560000000001
 10
329.278
 20
68.87560000000001
 10
329.278
 20
74.676
 10
330.077
 20
74.676
 10
330.077
 20
77.7752
 10
329.278
 20
77.7752
 10
329.278
 20
78.7756
 10
315.277
 20
78.7756
  0
LWPOLYLINE
  5
89
100
AcDbEntity
  8
0
  6
ByLayer
 62
  256
370
   -1
100
AcDbPolyline
 90
   20
 70
    1
 43
0
 10
334.327
 20
77.7752
 10
333.528
 20
77.7752
 10
333.528
 20
74.676
 10
334.327
 20
74.676
 10
334.327
 20
68.87560000000001
 10
333.528
 20
68.87560000000001
 10
333.528
 20
65.77509999999999
 10
334.327
 20
65.77509999999999
 10
334.327
 20
64.77460000000001
 10
348.328
 20
64.77460000000001
 10
348.328
 20
65.77509999999999
 10
349.127
 20
65.77509999999999
 10
349.127
 20
68.87560000000001
 10
348.328
 20
68.87560000000001
 10
348.328
 20
74.676
 10
349.127
 20
74.676
 10
349.127
 20
77.7752
 10
348.328
 20
77.7752
 10
348.328
 20
78.7756
 10
334.327
 20
78.7756
  0
LWPOLYLINE
  5
8A
100
AcDbEntity
  8
0
  6
ByLayer
 62
  256
370
   -1
100
AcDbPolyline
 90
   60
 70
    1
 43
0
 10
264.796
 20
96.8252
 10
263.995
 20
96.8252
 10
263.995
 20
93.726
 10
264.796
 20
93.726
 10
264.796
 20
93.12520000000001
 10
263.27
 20
93.12520000000001
 10
263.27
 20
96.3553
 10
261.546
 20
96.3553
 10
261.546
 20
97.2757
 10
258.246
 20
97.2757
 10
258.246
 20
96.3553
 10
256.521
 20
96.3553
 10
256.521
 20
93.12520000000001
 10
255.695
 20
93.12520000000001
 10
255.695
 20
90.3249
 10
256.521
 20
90.3249
 10
256.521
 20
84.05500000000001
 10
258.246
 20
84.05500000000001
 10
258.246
 20
83.0749
 10
261.546
 20
83.0749
 10
261.546
 20
84.05500000000001
 10
263.27
 20
84.05500000000001
 10
263.27
 20
88.5254
 10
264.796
 20
88.5254
 10
264.796
 20
87.9256
 10
263.995
 20
87.9256
 10
263.995
 20
84.82510000000001
 10
264.796
 20
84.82510000000001
 10
264.796
 20
83.8246
 10
278.795
 20
83.8246
 10
278.795
 20
84.82510000000001
 10
279.596
 20
84.82510000000001
 10
279.596
 20
87.9256
 10
278.795
 20
87.9256
 10
278.795
 20
88.5254
 10
280.32
 20
88.5254
 10
280.32
 20
84.05500000000001
 10
282.046
 20
84.05500000000001
 10
282.046
 20
83.0749
 10
285.345
 20
83.0749
 10
285.345
 20
84.05500000000001
 10
287.07
 20
84.05500000000001
 10
287.07
 20
90.3249
 10
287.896
 20
90.3249
 10
287.896
 20
93.12520000000001
 10
287.07
 20
93.12520000000001
 10
287.07
 20
96.3553
 10
285.345
 20
96.3553
 10
285.345
 20
97.2757
 10
282.046
 20
97.2757
 10
282.046
 20
96.3553
 10
280.32
 20
96.3553
 10
280.32
 20
93.12520000000001
 10
278.795
 20
93.12520000000001
 10
278.795
 20
93.726
 10
279.596
 20
93.726
 10
279.596
 20
96.8252
 10
278.795
 20
96.8252
 10
278.795
 20
97.82559999999999
 10
264.796
 20
97.82559999999999
  0
LWPOLYLINE
  5
8B
100
AcDbEntity
  8
0
  6
ByLayer
 62
  256
370
   -1
100
AcDbPolyline
 90
   20
 70
    1
 43
0
 10
7.61919
 20
96.8252
 10
6.8199
 20
96.8252
 10
6.8199
 20
93.726
 10
7.61919
 20
93.726
 10
7.61919
 20
87.9256
 10
6.8199
 20
87.9256
 10
6.8199
 20
84.82510000000001
 10
7.61919
 20
84.82510000000001
 10
7.61919
 20
83.8246
 10
21.6201
 20
83.8246
 10
21.6201
 20
84.82510000000001
 10
22.4207
 20
84.82510000000001
 10
22.4207
 20
87.9256
 10
21.6201
 20
87.9256
 10
21.6201
 20
93.726
 10
22.4207
 20
93.726
 10
22.4207
 20
96.8252
 10
21.6201
 20
96.8252
 10
21.6201
 20
97.82559999999999
 10
7.61919
 20
97.82559999999999
  0
LWPOLYLINE
  5
8C
100
AcDbEntity
  8
0
  6
ByLayer
 62
  256
370
   -1
100
AcDbPolyline
 90
   20
 70
    1
 43
0
 10
26.6706
 20
96.8252
 10
25.8699
 20
96.8252
 10
25.8699
 20
93.726
 10
26.6706
 20
93.726
 10
26.6706
 20
87.9256
 10
25.8699
 20
87.9256
 10
25.8699
 20
84.82510000000001
 10
26.6706
 20
84.82510000000001
 10
26.6706
 20
83.8246
 10
40.67
 20
83.8246
 10
40.67
 20
84.82510000000001
 10
41.4708
 20
84.82510000000001
 10
41.4708
 20
87.9256
 10
40.67
 20
87.9256
 10
40.67
 20
93.726
 10
41.4708
 20
93.726
 10
41.4708
 20
96.8252
 10
40.67
 20
96.8252
 10
40.67
 20
97.82559999999999
 10
26.6706
 20
97.82559999999999
  0
LWPOLYLINE
  5
8D
100
AcDbEntity
  8
0
  6
ByLayer
 62
  256
370
   -1
100
AcDbPolyline
 90
   20
 70
    1
 43
0
 10
45.7207
 20
96.8252
 10
44.9199
 20
96.8252
 10
44.9199
 20
93.726
 10
45.7207
 20
93.726
 10
45.7207
 20
87.9256
 10
44.9199
 20
87.9256
 10
44.9199
 20
84.82510000000001
 10
45.7207
 20
84.82510000000001
 10
45.7207
 20
83.8246
 10
59.72
 20
83.8246
 10
59.72
 20
84.82510000000001
 10
60.5208
 20
84.82510000000001
 10
60.5208
 20
87.9256
 10
59.72
 20
87.9256
 10
59.72
 20
93.726
 10
60.5208
 20
93.726
 10
60.5208
 20
96.8252
 10
59.72
 20
96.8252
 10
59.72
 20
97.82559999999999
 10
45.7207
 20
97.82559999999999
  0
LWPOLYLINE
  5
8E
100
AcDbEntity
  8
0
  6
ByLayer
 62
  256
370
   -1
100
AcDbPolyline
 90
   20
 70
    1
 43
0
 10
64.77070000000001
 20
96.8252
 10
63.9699
 20
96.8252
 10
63.9699
 20
93.726
 10
64.77070000000001
 20
93.726
 10
64.77070000000001
 20
87.9256
 10
63.9699
 20
87.9256
 10
63.9699
 20
84.82510000000001
 10
64.77070000000001
 20
84.82510000000001
 10
64.77070000000001
 20
83.8246
 10
78.77
 20
83.8246
 10
78.77
 20
84.82510000000001
 10
79.57080000000001
 20
84.82510000000001
 10
79.57080000000001
 20
87.9256
 10
78.77
 20
87.9256
 10
78.77
 20
93.726
 10
79.57080000000001
 20
93.726
 10
79.57080000000001
 20
96.8252
 10
78.77
 20
96.8252
 10
78.77
 20
97.82559999999999
 10
64.77070000000001
 20
97.82559999999999
  0
LWPOLYLINE
  5
8F
100
AcDbEntity
  8
0
  6
ByLayer
 62
  256
370
   -1
100
AcDbPolyline
 90
   20
 70
    1
 43
0
 10
83.8207
 20
96.8252
 10
83.01990000000001
 20
96.8252
 10
83.01990000000001
 20
93.726
 10
83.8207
 20
93.726
 10
83.8207
 20
87.9256
 10
83.01990000000001
 20
87.9256
 10
83.01990000000001
 20
84.82510000000001
 10
83.8207
 20
84.82510000000001
 10
83.8207
 20
83.8246
 10
97.81999999999999
 20
83.8246
 10
97.81999999999999
 20
84.82510000000001
 10
98.6194
 20
84.82510000000001
 10
98.6194
 20
87.9256
 10
97.81999999999999
 20
87.9256
 10
97.81999999999999
 20
93.726
 10
98.6194
 20
93.726
 10
98.6194
 20
96.8252
 10
97.81999999999999
 20
96.8252
 10
97.81999999999999
 20
97.82559999999999
 10
83.8207
 20
97.82559999999999
  0
LWPOLYLINE
  5
90
100
AcDbEntity
  8
0
  6
ByLayer
 62
  256
370
   -1
100
AcDbPolyline
 90
   20
 70
    1
 43
0
 10
102.869
 20
96.8252
 10
102.07
 20
96.8252
 10
102.07
 20
93.726
 10
102.869
 20
93.726
 10
102.869
 20
87.9256
 10
102.07
 20
87.9256
 10
102.07
 20
84.82510000000001
 10
102.869
 20
84.82510000000001
 10
102.869
 20
83.8246
 10
116.87
 20
83.8246
 10
116.87
 20
84.82510000000001
 10
117.669
 20
84.82510000000001
 10
117.669
 20
87.9256
 10
116.87
 20
87.9256
 10
116.87
 20
93.726
 10
117.669
 20
93.726
 10
117.669
 20
96.8252
 10
116.87
 20
96.8252
 10
116.87
 20
97.82559999999999
 10
102.869
 20
97.82559999999999
  0
LWPOLYLINE
  5
91
100
AcDbEntity
  8
0
  6
ByLayer
 62
  256
370
   -1
100
AcDbPolyline
 90
   20
 70
    1
 43
0
 10
121.919
 20
96.8252
 10
121.12
 20
96.8252
 10
121.12
 20
93.726
 10
121.919
 20
93.726
 10
121.919
 20
87.9256
 10
121.12
 20
87.9256
 10
121.12
 20
84.82510000000001
 10
121.919
 20
84.82510000000001
 10
121.919
 20
83.8246
 10
135.92
 20
83.8246
 10
135.92
 20
84.82510000000001
 10
136.721
 20
84.82510000000001
 10
136.721
 20
87.9256
 10
135.92
 20
87.9256
 10
135.92
 20
93.726
 10
136.721
 20
93.726
 10
136.721
 20
96.8252
 10
135.92
 20
96.8252
 10
135.92
 20
97.82559999999999
 10
121.919
 20
97.82559999999999
  0
LWPOLYLINE
  5
92
100
AcDbEntity
  8
0
  6
ByLayer
 62
  256
370
   -1
100
AcDbPolyline
 90
   20
 70
    1
 43
0
 10
140.971
 20
96.8252
 10
140.17
 20
96.8252
 10
140.17
 20
93.726
 10
140.971
 20
93.726
 10
140.971
 20
87.9256
 10
140.17
 20
87.9256
 10
140.17
 20
84.82510000000001
 10
140.971
 20
84.82510000000001
 10
140.971
 20
83.8246
 10
154.97
 20
83.8246
 10
154.97
 20
84.82510000000001
 10
155.771
 20
84.82510000000001
 10
155.771
 20
87.9256
 10
154.97
 20
87.9256
 10
154.97
 20
93.726
 10
155.771
 20
93.726
 10
155.771
 20
96.8252
 10
154.97
 20
96.8252
 10
154.97
 20
97.82559999999999
 10
140.971
 20
97.82559999999999
  0
LWPOLYLINE
  5
93
100
AcDbEntity
  8
0
  6
ByLayer
 62
  256
370
   -1
100
AcDbPolyline
 90
   20
 70
    1
 43
0
 10
160.021
 20
96.8252
 10
159.22
 20
96.8252
 10
159.22
 20
93.726
 10
160.021
 20
93.726
 10
160.021
 20
87.9256
 10
159.22
 20
87.9256
 10
159.22
 20
84.82510000000001
 10
160.021
 20
84.82510000000001
 10
160.021
 20
83.8246
 10
174.02
 20
83.8246
 10
174.02
 20
84.82510000000001
 10
174.821
 20
84.82510000000001
 10
174.821
 20
87.9256
 10
174.02
 20
87.9256
 10
174.02
 20
93.726
 10
174.821
 20
93.726
 10
174.821
 20
96.8252
 10
174.02
 20
96.8252
 10
174.02
 20
97.82559999999999
 10
160.021
 20
97.82559999999999
  0
LWPOLYLINE
  5
94
100
AcDbEntity
  8
0
  6
ByLayer
 62
  256
370
   -1
100
AcDbPolyline
 90
   20
 70
    1
 43
0
 10
179.071
 20
96.8252
 10
178.27
 20
96.8252
 10
178.27
 20
93.726
 10
179.071
 20
93.726
 10
179.071
 20
87.9256
 10
178.27
 20
87.9256
 10
178.27
 20
84.82510000000001
 10
179.071
 20
84.82510000000001
 10
179.071
 20
83.8246
 10
193.07
 20
83.8246
 10
193.07
 20
84.82510000000001
 10
193.871
 20
84.82510000000001
 10
193.871
 20
87.9256
 10
193.07
 20
87.9256
 10
193.07
 20
93.726
 10
193.871
 20
93.726
 10
193.871
 20
96.8252
 10
193.07
 20
96.8252
 10
193.07
 20
97.82559999999999
 10
179.071
 20
97.82559999999999
  0
LWPOLYLINE
  5
95
100
AcDbEntity
  8
0
  6
ByLayer
 62
  256
370
   -1
100
AcDbPolyline
 90
   20
 70
    1
 43
0
 10
198.121
 20
96.8252
 10
197.32
 20
96.8252
 10
197.32
 20
93.726
 10
198.121
 20
93.726
 10
198.121
 20
87.9256
 10
197.32
 20
87.9256
 10
197.32
 20
84.82510000000001
 10
198.121
 20
84.82510000000001
 10
198.121
 20
83.8246
 10
212.12
 20
83.8246
 10
212.12
 20
84.82510000000001
 10
212.921
 20
84.82510000000001
 10
212.921
 20
87.9256
 10
212.12
 20
87.9256
 10
212.12
 20
93.726
 10
212.921
 20
93.726
 10
212.921
 20
96.8252
 10
212.12
 20
96.8252
 10
212.12
 20
97.82559999999999
 10
198.121
 20
97.82559999999999
  0
LWPOLYLINE
  5
96
100
AcDbEntity
  8
0
  6
ByLayer
 62
  256
370
   -1
100
AcDbPolyline
 90
   20
 70
    1
 43
0
 10
217.171
 20
96.8252
 10
216.37
 20
96.8252
 10
216.37
 20
93.726
 10
217.171
 20
93.726
 10
217.171
 20
87.9256
 10
216.37
 20
87.9256
 10
216.37
 20
84.82510000000001
 10
217.171
 20
84.82510000000001
 10
217.171
 20
83.8246
 10
231.17
 20
83.8246
 10
231.17
 20
84.82510000000001
 10
231.971
 20
84.82510000000001
 10
231.971
 20
87.9256
 10
231.17
 20
87.9256
 10
231.17
 20
93.726
 10
231.971
 20
93.726
 10
231.971
 20
96.8252
 10
231.17
 20
96.8252
 10
231.17
 20
97.82559999999999
 10
217.171
 20
97.82559999999999
  0
LWPOLYLINE
  5
97
100
AcDbEntity
  8
0
  6
ByLayer
 62
  256
370
   -1
100
AcDbPolyline
 90
   20
 70
    1
 43
0
 10
236.221
 20
96.8252
 10
235.42
 20
96.8252
 10
235.42
 20
93.726
 10
236.221
 20
93.726
 10
236.221
 20
87.9256
 10
235.42
 20
87.9256
 10
235.42
 20
84.82510000000001
 10
236.221
 20
84.82510000000001
 10
236.221
 20
83.8246
 10
250.22
 20
83.8246
 10
250.22
 20
84.82510000000001
 10
251.021
 20
84.82510000000001
 10
251.021
 20
87.9256
 10
250.22
 20
87.9256
 10
250.22
 20
93.726
 10
251.021
 20
93.726
 10
251.021
 20
96.8252
 10
250.22
 20
96.8252
 10
250.22
 20
97.82559999999999
 10
236.221
 20
97.82559999999999
  0
LWPOLYLINE
  5
98
100
AcDbEntity
  8
0
  6
ByLayer
 62
  256
370
   -1
100
AcDbPolyline
 90
   20
 70
    1
 43
0
 10
296.227
 20
96.8252
 10
295.428
 20
96.8252
 10
295.428
 20
93.726
 10
296.227
 20
93.726
 10
296.227
 20
87.9256
 10
295.428
 20
87.9256
 10
295.428
 20
84.82510000000001
 10
296.227
 20
84.82510000000001
 10
296.227
 20
83.8246
 10
310.228
 20
83.8246
 10
310.228
 20
84.82510000000001
 10
311.027
 20
84.82510000000001
 10
311.027
 20
87.9256
 10
310.228
 20
87.9256
 10
310.228
 20
93.726
 10
311.027
 20
93.726
 10
311.027
 20
96.8252
 10
310.228
 20
96.8252
 10
310.228
 20
97.82559999999999
 10
296.227
 20
97.82559999999999
  0
LWPOLYLINE
  5
99
100
AcDbEntity
  8
0
  6
ByLayer
 62
  256
370
   -1
100
AcDbPolyline
 90
   20
 70
    1
 43
0
 10
315.277
 20
96.8252
 10
314.478
 20
96.8252
 10
314.478
 20
93.726
 10
315.277
 20
93.726
 10
315.277
 20
87.9256
 10
314.478
 20
87.9256
 10
314.478
 20
84.82510000000001
 10
315.277
 20
84.82510000000001
 10
315.277
 20
83.8246
 10
329.278
 20
83.8246
 10
329.278
 20
84.82510000000001
 10
330.077
 20
84.82510000000001
 10
330.077
 20
87.9256
 10
329.278
 20
87.9256
 10
329.278
 20
93.726
 10
330.077
 20
93.726
 10
330.077
 20
96.8252
 10
329.278
 20
96.8252
 10
329.278
 20
97.82559999999999
 10
315.277
 20
97.82559999999999
  0
LWPOLYLINE
  5
9A
100
AcDbEntity
  8
0
  6
ByLayer
 62
  256
370
   -1
100
AcDbPolyline
 90
   20
 70
    1
 43
0
 10
334.327
 20
96.8252
 10
333.528
 20
96.8252
 10
333.528
 20
93.726
 10
334.327
 20
93.726
 10
334.327
 20
87.9256
 10
333.528
 20
87.9256
 10
333.528
 20
84.82510000000001
 10
334.327
 20
84.82510000000001
 10
334.327
 20
83.8246
 10
348.328
 20
83.8246
 10
348.328
 20
84.82510000000001
 10
349.127
 20
84.82510000000001
 10
349.127
 20
87.9256
 10
348.328
 20
87.9256
 10
348.328
 20
93.726
 10
349.127
 20
93.726
 10
349.127
 20
96.8252
 10
348.328
 20
96.8252
 10
348.328
 20
97.82559999999999
 10
334.327
 20
97.82559999999999
  0
LWPOLYLINE
  5
9B
100
AcDbEntity
  8
0
  6
ByLayer
 62
  256
370
   -1
100
AcDbPolyline
 90
   20
 70
    1
 43
0
 10
7.61919
 20
118.733
 10
6.8199
 20
118.733
 10
6.8199
 20
115.632
 10
7.61919
 20
115.632
 10
7.61919
 20
109.834
 10
6.8199
 20
109.834
 10
6.8199
 20
106.732
 10
7.61919
 20
106.732
 10
7.61919
 20
105.733
 10
21.6201
 20
105.733
 10
21.6201
 20
106.732
 10
22.4207
 20
106.732
 10
22.4207
 20
109.834
 10
21.6201
 20
109.834
 10
21.6201
 20
115.632
 10
22.4207
 20
115.632
 10
22.4207
 20
118.733
 10
21.6201
 20
118.733
 10
21.6201
 20
119.733
 10
7.61919
 20
119.733
  0
LWPOLYLINE
  5
9C
100
AcDbEntity
  8
0
  6
ByLayer
 62
  256
370
   -1
100
AcDbPolyline
 90
   20
 70
    1
 43
0
 10
45.7207
 20
118.733
 10
44.9199
 20
118.733
 10
44.9199
 20
115.632
 10
45.7207
 20
115.632
 10
45.7207
 20
109.834
 10
44.9199
 20
109.834
 10
44.9199
 20
106.732
 10
45.7207
 20
106.732
 10
45.7207
 20
105.733
 10
59.72
 20
105.733
 10
59.72
 20
106.732
 10
60.5208
 20
106.732
 10
60.5208
 20
109.834
 10
59.72
 20
109.834
 10
59.72
 20
115.632
 10
60.5208
 20
115.632
 10
60.5208
 20
118.733
 10
59.72
 20
118.733
 10
59.72
 20
119.733
 10
45.7207
 20
119.733
  0
LWPOLYLINE
  5
9D
100
AcDbEntity
  8
0
  6
ByLayer
 62
  256
370
   -1
100
AcDbPolyline
 90
   20
 70
    1
 43
0
 10
64.77070000000001
 20
118.733
 10
63.9699
 20
118.733
 10
63.9699
 20
115.632
 10
64.77070000000001
 20
115.632
 10
64.77070000000001
 20
109.834
 10
63.9699
 20
109.834
 10
63.9699
 20
106.732
 10
64.77070000000001
 20
106.732
 10
64.77070000000001
 20
105.733
 10
78.77
 20
105.733
 10
78.77
 20
106.732
 10
79.57080000000001
 20
106.732
 10
79.57080000000001
 20
109.834
 10
78.77
 20
109.834
 10
78.77
 20
115.632
 10
79.57080000000001
 20
115.632
 10
79.57080000000001
 20
118.733
 10
78.77
 20
118.733
 10
78.77
 20
119.733
 10
64.77070000000001
 20
119.733
  0
LWPOLYLINE
  5
9E
100
AcDbEntity
  8
0
  6
ByLayer
 62
  256
370
   -1
100
AcDbPolyline
 90
   20
 70
    1
 43
0
 10
83.8207
 20
118.733
 10
83.01990000000001
 20
118.733
 10
83.01990000000001
 20
115.632
 10
83.8207
 20
115.632
 10
83.8207
 20
109.834
 10
83.01990000000001
 20
109.834
 10
83.01990000000001
 20
106.732
 10
83.8207
 20
106.732
 10
83.8207
 20
105.733
 10
97.81999999999999
 20
105.733
 10
97.81999999999999
 20
106.732
 10
98.6194
 20
106.732
 10
98.6194
 20
109.834
 10
97.81999999999999
 20
109.834
 10
97.81999999999999
 20
115.632
 10
98.6194
 20
115.632
 10
98.6194
 20
118.733
 10
97.81999999999999
 20
118.733
 10
97.81999999999999
 20
119.733
 10
83.8207
 20
119.733
  0
LWPOLYLINE
  5
9F
100
AcDbEntity
  8
0
  6
ByLayer
 62
  256
370
   -1
100
AcDbPolyline
 90
   20
 70
    1
 43
0
 10
102.869
 20
118.733
 10
102.07
 20
118.733
 10
102.07
 20
115.632
 10
102.869
 20
115.632
 10
102.869
 20
109.834
 10
102.07
 20
109.834
 10
102.07
 20
106.732
 10
102.869
 20
106.732
 10
102.869
 20
105.733
 10
116.87
 20
105.733
 10
116.87
 20
106.732
 10
117.669
 20
106.732
 10
117.669
 20
109.834
 10
116.87
 20
109.834
 10
116.87
 20
115.632
 10
117.669
 20
115.632
 10
117.669
 20
118.733
 10
116.87
 20
118.733
 10
116.87
 20
119.733
 10
102.869
 20
119.733
  0
LWPOLYLINE
  5
A0
100
AcDbEntity
  8
0
  6
ByLayer
 62
  256
370
   -1
100
AcDbPolyline
 90
   20
 70
    1
 43
0
 10
131.446
 20
118.733
 10
130.645
 20
118.733
 10
130.645
 20
115.632
 10
131.446
 20
115.632
 10
131.446
 20
109.834
 10
130.645
 20
109.834
 10
130.645
 20
106.732
 10
131.446
 20
106.732
 10
131.446
 20
105.733
 10
145.445
 20
105.733
 10
145.445
 20
106.732
 10
146.246
 20
106.732
 10
146.246
 20
109.834
 10
145.445
 20
109.834
 10
145.445
 20
115.632
 10
146.246
 20
115.632
 10
146.246
 20
118.733
 10
145.445
 20
118.733
 10
145.445
 20
119.733
 10
131.446
 20
119.733
  0
LWPOLYLINE
  5
A1
100
AcDbEntity
  8
0
  6
ByLayer
 62
  256
370
   -1
100
AcDbPolyline
 90
   20
 70
    1
 43
0
 10
150.496
 20
118.733
 10
149.695
 20
118.733
 10
149.695
 20
115.632
 10
150.496
 20
115.632
 10
150.496
 20
109.834
 10
149.695
 20
109.834
 10
149.695
 20
106.732
 10
150.496
 20
106.732
 10
150.496
 20
105.733
 10
164.495
 20
105.733
 10
164.495
 20
106.732
 10
165.296
 20
106.732
 10
165.296
 20
109.834
 10
164.495
 20
109.834
 10
164.495
 20
115.632
 10
165.296
 20
115.632
 10
165.296
 20
118.733
 10
164.495
 20
118.733
 10
164.495
 20
119.733
 10
150.496
 20
119.733
  0
LWPOLYLINE
  5
A2
100
AcDbEntity
  8
0
  6
ByLayer
 62
  256
370
   -1
100
AcDbPolyline
 90
   20
 70
    1
 43
0
 10
169.546
 20
118.733
 10
168.745
 20
118.733
 10
168.745
 20
115.632
 10
169.546
 20
115.632
 10
169.546
 20
109.834
 10
168.745
 20
109.834
 10
168.745
 20
106.732
 10
169.546
 20
106.732
 10
169.546
 20
105.733
 10
183.545
 20
105.733
 10
183.545
 20
106.732
 10
184.346
 20
106.732
 10
184.346
 20
109.834
 10
183.545
 20
109.834
 10
183.545
 20
115.632
 10
184.346
 20
115.632
 10
184.346
 20
118.733
 10
183.545
 20
118.733
 10
183.545
 20
119.733
 10
169.546
 20
119.733
  0
LWPOLYLINE
  5
A3
100
AcDbEntity
  8
0
  6
ByLayer
 62
  256
370
   -1
100
AcDbPolyline
 90
   20
 70
    1
 43
0
 10
188.596
 20
118.733
 10
187.795
 20
118.733
 10
187.795
 20
115.632
 10
188.596
 20
115.632
 10
188.596
 20
109.834
 10
187.795
 20
109.834
 10
187.795
 20
106.732
 10
188.596
 20
106.732
 10
188.596
 20
105.733
 10
202.595
 20
105.733
 10
202.595
 20
106.732
 10
203.396
 20
106.732
 10
203.396
 20
109.834
 10
202.595
 20
109.834
 10
202.595
 20
115.632
 10
203.396
 20
115.632
 10
203.396
 20
118.733
 10
202.595
 20
118.733
 10
202.595
 20
119.733
 10
188.596
 20
119.733
  0
LWPOLYLINE
  5
A4
100
AcDbEntity
  8
0
  6
ByLayer
 62
  256
370
   -1
100
AcDbPolyline
 90
   20
 70
    1
 43
0
 10
217.171
 20
118.733
 10
216.37
 20
118.733
 10
216.37
 20
115.632
 10
217.171
 20
115.632
 10
217.171
 20
109.834
 10
216.37
 20
109.834
 10
216.37
 20
106.732
 10
217.171
 20
106.732
 10
217.171
 20
105.733
 10
231.17
 20
105.733
 10
231.17
 20
106.732
 10
231.971
 20
106.732
 10
231.971
 20
109.834
 10
231.17
 20
109.834
 10
231.17
 20
115.632
 10
231.971
 20
115.632
 10
231.971
 20
118.733
 10
231.17
 20
118.733
 10
231.17
 20
119.733
 10
217.171
 20
119.733
  0
LWPOLYLINE
  5
A5
100
AcDbEntity
  8
0
  6
ByLayer
 62
  256
370
   -1
100
AcDbPolyline
 90
   20
 70
    1
 43
0
 10
236.221
 20
118.733
 10
235.42
 20
118.733
 10
235.42
 20
115.632
 10
236.221
 20
115.632
 10
236.221
 20
109.834
 10
235.42
 20
109.834
 10
235.42
 20
106.732
 10
236.221
 20
106.732
 10
236.221
 20
105.733
 10
250.22
 20
105.733
 10
250.22
 20
106.732
 10
251.021
 20
106.732
 10
251.021
 20
109.834
 10
250.22
 20
109.834
 10
250.22
 20
115.632
 10
251.021
 20
115.632
 10
251.021
 20
118.733
 10
250.22
 20
118.733
 10
250.22
 20
119.733
 10
236.221
 20
119.733
  0
LWPOLYLINE
  5
A6
100
AcDbEntity
  8
0
  6
ByLayer
 62
  256
370
   -1
100
AcDbPolyline
 90
   20
 70
    1
 43
0
 10
255.271
 20
118.733
 10
254.47
 20
118.733
 10
254.47
 20
115.632
 10
255.271
 20
115.632
 10
255.271
 20
109.834
 10
254.47
 20
109.834
 10
254.47
 20
106.732
 10
255.271
 20
106.732
 10
255.271
 20
105.733
 10
269.27
 20
105.733
 10
269.27
 20
106.732
 10
270.071
 20
106.732
 10
270.071
 20
109.834
 10
269.27
 20
109.834
 10
269.27
 20
115.632
 10
270.071
 20
115.632
 10
270.071
 20
118.733
 10
269.27
 20
118.733
 10
269.27
 20
119.733
 10
255.271
 20
119.733
  0
LWPOLYLINE
  5
A7
100
AcDbEntity
  8
0
  6
ByLayer
 62
  256
370
   -1
100
AcDbPolyline
 90
   20
 70
    1
 43
0
 10
274.321
 20
118.733
 10
273.52
 20
118.733
 10
273.52
 20
115.632
 10
274.321
 20
115.632
 10
274.321
 20
109.834
 10
273.52
 20
109.834
 10
273.52
 20
106.732
 10
274.321
 20
106.732
 10
274.321
 20
105.733
 10
288.32
 20
105.733
 10
288.32
 20
106.732
 10
289.121
 20
106.732
 10
289.121
 20
109.834
 10
288.32
 20
109.834
 10
288.32
 20
115.632
 10
289.121
 20
115.632
 10
289.121
 20
118.733
 10
288.32
 20
118.733
 10
288.32
 20
119.733
 10
274.321
 20
119.733
  0
LWPOLYLINE
  5
A8
100
AcDbEntity
  8
0
  6
ByLayer
 62
  256
370
   -1
100
AcDbPolyline
 90
   20
 70
    1
 43
0
 10
296.227
 20
118.733
 10
295.428
 20
118.733
 10
295.428
 20
115.632
 10
296.227
 20
115.632
 10
296.227
 20
109.834
 10
295.428
 20
109.834
 10
295.428
 20
106.732
 10
296.227
 20
106.732
 10
296.227
 20
105.733
 10
310.228
 20
105.733
 10
310.228
 20
106.732
 10
311.027
 20
106.732
 10
311.027
 20
109.834
 10
310.228
 20
109.834
 10
310.228
 20
115.632
 10
311.027
 20
115.632
 10
311.027
 20
118.733
 10
310.228
 20
118.733
 10
310.228
 20
119.733
 10
296.227
 20
119.733
  0
LWPOLYLINE
  5
A9
100
AcDbEntity
  8
0
  6
ByLayer
 62
  256
370
   -1
100
AcDbPolyline
 90
   20
 70
    1
 43
0
 10
315.277
 20
118.733
 10
314.478
 20
118.733
 10
314.478
 20
115.632
 10
315.277
 20
115.632
 10
315.277
 20
109.834
 10
314.478
 20
109.834
 10
314.478
 20
106.732
 10
315.277
 20
106.732
 10
315.277
 20
105.733
 10
329.278
 20
105.733
 10
329.278
 20
106.732
 10
330.077
 20
106.732
 10
330.077
 20
109.834
 10
329.278
 20
109.834
 10
329.278
 20
115.632
 10
330.077
 20
115.632
 10
330.077
 20
118.733
 10
329.278
 20
118.733
 10
329.278
 20
119.733
 10
315.277
 20
119.733
  0
LWPOLYLINE
  5
AA
100
AcDbEntity
  8
0
  6
ByLayer
 62
  256
370
   -1
100
AcDbPolyline
 90
   20
 70
    1
 43
0
 10
334.327
 20
118.733
 10
333.528
 20
118.733
 10
333.528
 20
115.632
 10
334.327
 20
115.632
 10
334.327
 20
109.834
 10
333.528
 20
109.834
 10
333.528
 20
106.732
 10
334.327
 20
106.732
 10
334.327
 20
105.733
 10
348.328
 20
105.733
 10
348.328
 20
106.732
 10
349.127
 20
106.732
 10
349.127
 20
109.834
 10
348.328
 20
109.834
 10
348.328
 20
115.632
 10
349.127
 20
115.632
 10
349.127
 20
118.733
 10
348.328
 20
118.733
 10
348.328
 20
119.733
 10
334.327
 20
119.733
  0
ENDSEC
  0
SECTION
  2
OBJECTS
  0
DICTIONARY
  5
C
330
0
100
AcDbDictionary
281
    1
  3
ACAD_GROUP
350
D
  0
DICTIONARY
  5
D
330
C
100
AcDbDictionary
281
    1
  0
ENDSEC
  0
EOF
