999
dxfrw 0.6.3
  0
SECTION
  2
HEADER
  9
$ACADVER
  1
AC1021
  9
$DWGCODEPAGE
  3
ANSI_1252
  9
$INSBASE
 10
0
 20
0
 30
0
  9
$EXTMIN
 10
0.2200361144281562
 20
-0.08650070437943214
 30
0
  9
$EXTMAX
 10
437.9840600411081
 20
386.4
 30
0
  9
$LIMMIN
 10
0
 20
0
  9
$LIMMAX
 10
420
 20
297
  9
$ORTHOMODE
 70
    0
  9
$REGENMODE
 70
    1
  9
$FILLMODE
 70
    1
  9
$QTEXTMODE
 70
    0
  9
$MIRRTEXT
 70
    0
  9
$LTSCALE
 40
1
  9
$ATTMODE
 70
    0
  9
$TEXTSIZE
 40
2.5
  9
$TRACEWID
 40
15.68
  9
$TEXTSTYLE
  7
STANDARD
  9
$CLAYER
  8
neck
  9
$CELTYPE
  6
BYLAYER
  9
$CECOLOR
 62
  256
  9
$CELTSCALE
 40
1
  9
$DISPSILH
 70
    0
  9
$DIMSCALE
 40
2.5
  9
$DIMASZ
 40
2.5
  9
$DIMEXO
 40
0.625
  9
$DIMDLI
 40
3.75
  9
$DIMRND
 40
0
  9
$DIMDLE
 40
0
  9
$DIMEXE
 40
1.25
  9
$DIMTP
 40
0
  9
$DIMTM
 40
0
  9
$DIMTXT
 40
2.5
  9
$DIMCEN
 40
2.5
  9
$DIMTSZ
 40
0
  9
$DIMTOL
 70
    0
  9
$DIMLIM
 70
    0
  9
$DIMTIH
 70
    0
  9
$DIMTOH
 70
    0
  9
$DIMSE1
 70
    0
  9
$DIMSE2
 70
    0
  9
$DIMTAD
 70
    1
  9
$DIMZIN
 70
    8
  9
$DIMBLK
  1

  9
$DIMASO
 70
    1
  9
$DIMSHO
 70
    1
  9
$DIMPOST
  1

  9
$DIMAPOST
  1

  9
$DIMALT
 70
    0
  9
$DIMALTD
 70
    3
  9
$DIMALTF
 40
0.03937
  9
$DIMLFAC
 40
1
  9
$DIMTOFL
 70
    1
  9
$DIMTVP
 40
0
  9
$DIMTIX
 70
    0
  9
$DIMSOXD
 70
    0
  9
$DIMSAH
 70
    0
  9
$DIMBLK1
  1

  9
$DIMBLK2
  1

  9
$DIMSTYLE
  2
STANDARD
  9
$DIMCLRD
 70
    0
  9
$DIMCLRE
 70
    0
  9
$DIMCLRT
 70
    0
  9
$DIMTFAC
 40
1
  9
$DIMGAP
 40
0.625
  9
$DIMJUST
 70
    0
  9
$DIMSD1
 70
    0
  9
$DIMSD2
 70
    0
  9
$DIMTOLJ
 70
    0
  9
$DIMTZIN
 70
    8
  9
$DIMALTZ
 70
    0
  9
$DIMALTTZ
 70
    0
  9
$DIMUPT
 70
    0
  9
$DIMDEC
 70
    2
  9
$DIMTDEC
 70
    2
  9
$DIMALTU
 70
    2
  9
$DIMALTTD
 70
    3
  9
$DIMTXSTY
  7
STANDARD
  9
$DIMAUNIT
 70
    0
  9
$DIMADEC
 70
    0
  9
$DIMALTRND
 40
0
  9
$DIMAZIN
 70
    0
  9
$DIMDSEP
 70
   44
  9
$DIMATFIT
 70
    3
  9
$DIMFRAC
 70
    0
  9
$DIMLDRBLK
  1
STANDARD
  9
$DIMLUNIT
 70
    2
  9
$DIMLWD
 70
   -2
  9
$DIMLWE
 70
   -2
  9
$DIMTMOVE
 70
    0
  9
$DIMFXL
 40
1
  9
$DIMFXLON
 70
    0
  9
$DIMJOGANG
 40
0.7854
  9
$DIMTFILL
 70
    0
  9
$DIMTFILLCLR
 70
    0
  9
$DIMARCSYM
 70
    0
  9
$DIMLTYPE
  6

  9
$DIMLTEX1
  6

  9
$DIMLTEX2
  6

  9
$LUNITS
 70
    2
  9
$LUPREC
 70
    4
  9
$SKETCHINC
 40
1
  9
$FILLETRAD
 40
0
  9
$AUNITS
 70
    0
  9
$AUPREC
 70
    2
  9
$MENU
  1
.
  9
$ELEVATION
 40
0
  9
$PELEVATION
 40
0
  9
$THICKNESS
 40
0
  9
$LIMCHECK
 70
    0
  9
$CHAMFERA
 40
0
  9
$CHAMFERB
 40
0
  9
$CHAMFERC
 40
0
  9
$CHAMFERD
 40
0
  9
$SKPOLY
 70
    0
  9
$USRTIMER
 70
    1
  9
$ANGBASE
 50
0
  9
$ANGDIR
 70
    0
  9
$PDMODE
 70
   34
  9
$PDSIZE
 40
0
  9
$PLINEWID
 40
0
  9
$SPLFRAME
 70
    0
  9
$SPLINETYPE
 70
    2
  9
$SPLINESEGS
 70
    8
  9
$HANDSEED
  5
20000
  9
$SURFTAB1
 70
    6
  9
$SURFTAB2
 70
    6
  9
$SURFTYPE
 70
    6
  9
$SURFU
 70
    6
  9
$SURFV
 70
    6
  9
$UCSBASE
  2

  9
$UCSNAME
  2

  9
$UCSORG
 10
0
 20
0
 30
0
  9
$UCSXDIR
 10
1
 20
0
 30
0
  9
$UCSYDIR
 10
0
 20
1
 30
0
  9
$UCSORTHOREF
  2

  9
$UCSORTHOVIEW
 70
    0
  9
$UCSORGTOP
 10
0
 20
0
 30
0
  9
$UCSORGBOTTOM
 10
0
 20
0
 30
0
  9
$UCSORGLEFT
 10
0
 20
0
 30
0
  9
$UCSORGRIGHT
 10
0
 20
0
 30
0
  9
$UCSORGFRONT
 10
0
 20
0
 30
0
  9
$UCSORGBACK
 10
0
 20
0
 30
0
  9
$PUCSBASE
  2

  9
$PUCSNAME
  2

  9
$PUCSORG
 10
0
 20
0
 30
0
  9
$PUCSXDIR
 10
1
 20
0
 30
0
  9
$PUCSYDIR
 10
0
 20
1
 30
0
  9
$PUCSORTHOREF
  2

  9
$PUCSORTHOVIEW
 70
    0
  9
$PUCSORGTOP
 10
0
 20
0
 30
0
  9
$PUCSORGBOTTOM
 10
0
 20
0
 30
0
  9
$PUCSORGLEFT
 10
0
 20
0
 30
0
  9
$PUCSORGRIGHT
 10
0
 20
0
 30
0
  9
$PUCSORGFRONT
 10
0
 20
0
 30
0
  9
$PUCSORGBACK
 10
0
 20
0
 30
0
  9
$USERI1
 70
    0
  9
$USERI2
 70
    0
  9
$USERI3
 70
    0
  9
$USERI4
 70
    0
  9
$USERI5
 70
    0
  9
$USERR1
 40
0
  9
$USERR2
 40
0
  9
$USERR3
 40
0
  9
$USERR4
 40
0
  9
$USERR5
 40
0
  9
$WORLDVIEW
 70
    1
  9
$SHADEDGE
 70
    3
  9
$SHADEDIF
 70
   70
  9
$TILEMODE
 70
    1
  9
$MAXACTVP
 70
   64
  9
$PINSBASE
 10
0
 20
0
 30
0
  9
$PLIMCHECK
 70
    0
  9
$PEXTMIN
 10
0
 20
0
 30
0
  9
$PEXTMAX
 10
0
 20
0
 30
0
  9
$SNAPSTYLE
 70
    0
  9
$PLIMMIN
 10
0
 20
0
  9
$PLIMMAX
 10
297
 20
210
  9
$UNITMODE
 70
    0
  9
$VISRETAIN
 70
    1
  9
$PLINEGEN
 70
    0
  9
$PSLTSCALE
 70
    1
  9
$TREEDEPTH
 70
 3020
  9
$CMLSTYLE
  2
Standard
  9
$CMLJUST
 70
    0
  9
$CMLSCALE
 40
20
  9
$PROXYGRAPHICS
 70
    1
  9
$MEASUREMENT
 70
    1
  9
$CELWEIGHT
370
   -1
  9
$ENDCAPS
280
    0
  9
$JOINSTYLE
280
    0
  9
$LWDISPLAY
290
    0
  9
$INSUNITS
 70
    4
  9
$HYPERLINKBASE
  1

  9
$STYLESHEET
  1

  9
$XEDIT
290
    1
  9
$CEPSNTYPE
380
    0
  9
$PSTYLEMODE
290
    1
  9
$EXTNAMES
290
    1
  9
$PSVPSCALE
 40
1
  9
$OLESTARTUP
290
    0
  9
$SORTENTS
280
  127
  9
$INDEXCTL
280
    0
  9
$HIDETEXT
280
    1
  9
$XCLIPFRAME
290
    0
  9
$HALOGAP
280
    0
  9
$OBSCOLOR
 70
  257
  9
$OBSLTYPE
280
    0
  9
$INTERSECTIONDISPLAY
280
    0
  9
$INTERSECTIONCOLOR
 70
  257
  9
$DIMASSOC
280
    1
  9
$PROJECTNAME
  1

  9
$CAMERADISPLAY
290
    0
  9
$LENSLENGTH
 40
50
  9
$CAMERAHEIGHT
 40
0
  9
$STEPSPERSEC
 40
2
  9
$STEPSIZE
 40
50
  9
$3DDWFPREC
 40
2
  9
$PSOLWIDTH
 40
5
  9
$PSOLHEIGHT
 40
80
  9
$LOFTANG1
 40
1.570796326794897
  9
$LOFTANG2
 40
1.570796326794897
  9
$LOFTMAG1
 40
0
  9
$LOFTMAG2
 40
0
  9
$LOFTPARAM
 70
    7
  9
$LOFTNORMALS
280
    1
  9
$LATITUDE
 40
1
  9
$LONGITUDE
 40
1
  9
$NORTHDIRECTION
 40
0
  9
$TIMEZONE
 70
-8000
  9
$LIGHTGLYPHDISPLAY
280
    1
  9
$TILEMODELIGHTSYNCH
280
    1
  9
$SOLIDHIST
280
    1
  9
$SHOWHIST
280
    1
  9
$DWFFRAME
280
    2
  9
$DGNFRAME
280
    0
  9
$REALWORLDSCALE
290
    1
  9
$INTERFERECOLOR
 62
    1
  9
$CSHADOW
280
    0
  9
$SHADOWPLANELOCATION
 40
0
  0
ENDSEC
  0
SECTION
  2
CLASSES
  0
ENDSEC
  0
SECTION
  2
TABLES
  0
TABLE
  2
VPORT
  5
8
330
0
100
AcDbSymbolTable
 70
    1
  0
VPORT
  5
31
330
2
100
AcDbSymbolTableRecord
100
AcDbViewportTableRecord
  2
*ACTIVE
 70
    0
 10
0
 20
0
 11
1
 21
1
 12
246.8013047569164
 22
195.6557753253756
 13
0
 23
0
 14
10
 24
10
 15
10
 25
10
 16
0
 26
0
 36
1
 17
0
 27
0
 37
0
 40
396.1366005971229
 41
1.38489646772229
 42
50
 43
0
 44
0
 50
0
 51
0
 71
    0
 72
  100
 73
    1
 74
    3
 75
    0
 76
    1
 77
    0
 78
    0
281
    0
 65
    1
110
0
120
0
130
0
111
1
121
0
131
0
112
0
122
1
132
0
 79
    0
146
0
348
10020
 60
    7
 61
    5
292
1
282
    1
141
0
142
0
 63
  250
421
3358443
  0
ENDTAB
  0
TABLE
  2
LTYPE
  5
5
330
0
100
AcDbSymbolTable
 70
    4
  0
LTYPE
  5
14
330
5
100
AcDbSymbolTableRecord
100
AcDbLinetypeTableRecord
  2
ByBlock
 70
    0
  3

 72
   65
 73
    0
 40
0
  0
LTYPE
  5
15
330
5
100
AcDbSymbolTableRecord
100
AcDbLinetypeTableRecord
  2
ByLayer
 70
    0
  3

 72
   65
 73
    0
 40
0
  0
LTYPE
  5
16
330
5
100
AcDbSymbolTableRecord
100
AcDbLinetypeTableRecord
  2
Continuous
 70
    0
  3
Solid line
 72
   65
 73
    0
 40
0
  0
LTYPE
  5
32
330
5
100
AcDbSymbolTableRecord
100
AcDbLinetypeTableRecord
  2
DOT
 70
    0
  3
Dot . . . . . . . . . . . . . . . . . . . . . .
 72
   65
 73
    2
 40
6.35
 49
0
 74
    0
 49
-6.35
 74
    0
  0
LTYPE
  5
33
330
5
100
AcDbSymbolTableRecord
100
AcDbLinetypeTableRecord
  2
DOTTINY
 70
    0
  3
Dot (.15x) .....................................
 72
   65
 73
    2
 40
0.9525
 49
0
 74
    0
 49
-0.9525
 74
    0
  0
LTYPE
  5
34
330
5
100
AcDbSymbolTableRecord
100
AcDbLinetypeTableRecord
  2
DOT2
 70
    0
  3
Dot (.5x) .....................................
 72
   65
 73
    2
 40
3.175
 49
0
 74
    0
 49
-3.175
 74
    0
  0
LTYPE
  5
35
330
5
100
AcDbSymbolTableRecord
100
AcDbLinetypeTableRecord
  2
DOTX2
 70
    0
  3
Dot (2x) .  .  .  .  .  .  .  .  .  .  .  .  .
 72
   65
 73
    2
 40
12.7
 49
0
 74
    0
 49
-12.7
 74
    0
  0
LTYPE
  5
36
330
5
100
AcDbSymbolTableRecord
100
AcDbLinetypeTableRecord
  2
DASHED
 70
    0
  3
Dashed _ _ _ _ _ _ _ _ _ _ _ _ _ _ _ _ _
 72
   65
 73
    2
 40
19.05
 49
12.7
 74
    0
 49
-6.35
 74
    0
  0
LTYPE
  5
37
330
5
100
AcDbSymbolTableRecord
100
AcDbLinetypeTableRecord
  2
DASHEDTINY
 70
    0
  3
Dashed (.15x) _ _ _ _ _ _ _ _ _ _ _ _ _ _ _ _ _
 72
   65
 73
    2
 40
2.8575
 49
1.905
 74
    0
 49
-0.9525
 74
    0
  0
LTYPE
  5
38
330
5
100
AcDbSymbolTableRecord
100
AcDbLinetypeTableRecord
  2
DASHED2
 70
    0
  3
Dashed (.5x) _ _ _ _ _ _ _ _ _ _ _ _ _ _ _ _ _
 72
   65
 73
    2
 40
9.524999999999999
 49
6.35
 74
    0
 49
-3.175
 74
    0
  0
LTYPE
  5
39
330
5
100
AcDbSymbolTableRecord
100
AcDbLinetypeTableRecord
  2
DASHEDX2
 70
    0
  3
Dashed (2x) ____  ____  ____  ____  ____  ___
 72
   65
 73
    2
 40
38.09999999999999
 49
25.4
 74
    0
 49
-12.7
 74
    0
  0
LTYPE
  5
3A
330
5
100
AcDbSymbolTableRecord
100
AcDbLinetypeTableRecord
  2
DASHDOT
 70
    0
  3
Dash dot __ . __ . __ . __ . __ . __ . __ . __
 72
   65
 73
    4
 40
25.4
 49
12.7
 74
    0
 49
-6.35
 74
    0
 49
0
 74
    0
 49
-6.35
 74
    0
  0
LTYPE
  5
3B
330
5
100
AcDbSymbolTableRecord
100
AcDbLinetypeTableRecord
  2
DASHDOTTINY
 70
    0
  3
Dash dot (.15x) _._._._._._._._._._._._._._._.
 72
   65
 73
    4
 40
3.81
 49
1.905
 74
    0
 49
-0.9525
 74
    0
 49
0
 74
    0
 49
-0.9525
 74
    0
  0
LTYPE
  5
3C
330
5
100
AcDbSymbolTableRecord
100
AcDbLinetypeTableRecord
  2
DASHDOT2
 70
    0
  3
Dash dot (.5x) _._._._._._._._._._._._._._._.
 72
   65
 73
    4
 40
12.7
 49
6.35
 74
    0
 49
-3.175
 74
    0
 49
0
 74
    0
 49
-3.175
 74
    0
  0
LTYPE
  5
3D
330
5
100
AcDbSymbolTableRecord
100
AcDbLinetypeTableRecord
  2
DASHDOTX2
 70
    0
  3
Dash dot (2x) ____  .  ____  .  ____  .  ___
 72
   65
 73
    4
 40
50.8
 49
25.4
 74
    0
 49
-12.7
 74
    0
 49
0
 74
    0
 49
-12.7
 74
    0
  0
LTYPE
  5
3E
330
5
100
AcDbSymbolTableRecord
100
AcDbLinetypeTableRecord
  2
DIVIDE
 70
    0
  3
Divide ____ . . ____ . . ____ . . ____ . . ____
 72
   65
 73
    6
 40
31.75
 49
12.7
 74
    0
 49
-6.35
 74
    0
 49
0
 74
    0
 49
-6.35
 74
    0
 49
0
 74
    0
 49
-6.35
 74
    0
  0
LTYPE
  5
3F
330
5
100
AcDbSymbolTableRecord
100
AcDbLinetypeTableRecord
  2
DIVIDETINY
 70
    0
  3
Divide (.15x) __..__..__..__..__..__..__..__.._
 72
   65
 73
    6
 40
4.7625
 49
1.905
 74
    0
 49
-0.9525
 74
    0
 49
0
 74
    0
 49
-0.9525
 74
    0
 49
0
 74
    0
 49
-0.9525
 74
    0
  0
LTYPE
  5
40
330
5
100
AcDbSymbolTableRecord
100
AcDbLinetypeTableRecord
  2
DIVIDE2
 70
    0
  3
Divide (.5x) __..__..__..__..__..__..__..__.._
 72
   65
 73
    6
 40
15.875
 49
6.35
 74
    0
 49
-3.175
 74
    0
 49
0
 74
    0
 49
-3.175
 74
    0
 49
0
 74
    0
 49
-3.175
 74
    0
  0
LTYPE
  5
41
330
5
100
AcDbSymbolTableRecord
100
AcDbLinetypeTableRecord
  2
DIVIDEX2
 70
    0
  3
Divide (2x) ________  .  .  ________  .  .  _
 72
   65
 73
    6
 40
63.5
 49
25.4
 74
    0
 49
-12.7
 74
    0
 49
0
 74
    0
 49
-12.7
 74
    0
 49
0
 74
    0
 49
-12.7
 74
    0
  0
LTYPE
  5
42
330
5
100
AcDbSymbolTableRecord
100
AcDbLinetypeTableRecord
  2
BORDER
 70
    0
  3
Border __ __ . __ __ . __ __ . __ __ . __ __ .
 72
   65
 73
    6
 40
44.45
 49
12.7
 74
    0
 49
-6.35
 74
    0
 49
12.7
 74
    0
 49
-6.35
 74
    0
 49
0
 74
    0
 49
-6.35
 74
    0
  0
LTYPE
  5
43
330
5
100
AcDbSymbolTableRecord
100
AcDbLinetypeTableRecord
  2
BORDERTINY
 70
    0
  3
Border (.15x) __.__.__.__.__.__.__.__.__.__.__.
 72
   65
 73
    6
 40
6.6675
 49
1.905
 74
    0
 49
-0.9525
 74
    0
 49
1.905
 74
    0
 49
-0.9525
 74
    0
 49
0
 74
    0
 49
-0.9525
 74
    0
  0
LTYPE
  5
44
330
5
100
AcDbSymbolTableRecord
100
AcDbLinetypeTableRecord
  2
BORDER2
 70
    0
  3
Border (.5x) __.__.__.__.__.__.__.__.__.__.__.
 72
   65
 73
    6
 40
22.225
 49
6.35
 74
    0
 49
-3.175
 74
    0
 49
6.35
 74
    0
 49
-3.175
 74
    0
 49
0
 74
    0
 49
-3.175
 74
    0
  0
LTYPE
  5
45
330
5
100
AcDbSymbolTableRecord
100
AcDbLinetypeTableRecord
  2
BORDERX2
 70
    0
  3
Border (2x) ____  ____  .  ____  ____  .  ___
 72
   65
 73
    6
 40
88.89999999999999
 49
25.4
 74
    0
 49
-12.7
 74
    0
 49
25.4
 74
    0
 49
-12.7
 74
    0
 49
0
 74
    0
 49
-12.7
 74
    0
  0
LTYPE
  5
46
330
5
100
AcDbSymbolTableRecord
100
AcDbLinetypeTableRecord
  2
CENTER
 70
    0
  3
Center ____ _ ____ _ ____ _ ____ _ ____ _ ____
 72
   65
 73
    4
 40
50.8
 49
31.75
 74
    0
 49
-6.35
 74
    0
 49
6.35
 74
    0
 49
-6.35
 74
    0
  0
LTYPE
  5
47
330
5
100
AcDbSymbolTableRecord
100
AcDbLinetypeTableRecord
  2
CENTERTINY
 70
    0
  3
Center (.15x) ___ _ ___ _ ___ _ ___ _ ___ _ ___
 72
   65
 73
    4
 40
7.619999999999999
 49
4.7625
 74
    0
 49
-0.9525
 74
    0
 49
0.9525
 74
    0
 49
-0.9525
 74
    0
  0
LTYPE
  5
48
330
5
100
AcDbSymbolTableRecord
100
AcDbLinetypeTableRecord
  2
CENTER2
 70
    0
  3
Center (.5x) ___ _ ___ _ ___ _ ___ _ ___ _ ___
 72
   65
 73
    4
 40
28.575
 49
19.05
 74
    0
 49
-3.175
 74
    0
 49
3.175
 74
    0
 49
-3.175
 74
    0
  0
LTYPE
  5
49
330
5
100
AcDbSymbolTableRecord
100
AcDbLinetypeTableRecord
  2
CENTERX2
 70
    0
  3
Center (2x) ________  __  ________  __  _____
 72
   65
 73
    4
 40
101.6
 49
63.5
 74
    0
 49
-12.7
 74
    0
 49
12.7
 74
    0
 49
-12.7
 74
    0
  0
ENDTAB
  0
TABLE
  2
LAYER
  5
2
330
0
100
AcDbSymbolTable
 70
    1
  0
LAYER
  5
10
330
2
100
AcDbSymbolTableRecord
100
AcDbLayerTableRecord
  2
0
 70
    0
 62
    7
  6
CONTINUOUS
370
    0
390
F
  0
LAYER
  5
4A
330
2
100
AcDbSymbolTableRecord
100
AcDbLayerTableRecord
  2
body
 70
    0
 62
    7
  6
CONTINUOUS
370
    0
390
F
  0
LAYER
  5
4B
330
2
100
AcDbSymbolTableRecord
100
AcDbLayerTableRecord
  2
body2
 70
    0
 62
    7
  6
CONTINUOUS
370
    0
390
F
  0
LAYER
  5
4C
330
2
100
AcDbSymbolTableRecord
100
AcDbLayerTableRecord
  2
body2_cutout
 70
    0
 62
    7
  6
CONTINUOUS
370
    0
390
F
  0
LAYER
  5
4D
330
2
100
AcDbSymbolTableRecord
100
AcDbLayerTableRecord
  2
legs
 70
    0
 62
    7
  6
CONTINUOUS
370
    0
390
F
  0
LAYER
  5
4E
330
2
100
AcDbSymbolTableRecord
100
AcDbLayerTableRecord
  2
neck
 70
    0
 62
    7
  6
CONTINUOUS
370
    0
390
F
  0
LAYER
  5
4F
330
2
100
AcDbSymbolTableRecord
100
AcDbLayerTableRecord
  2
template
 70
    1
 62
    7
  6
CONTINUOUS
370
    0
390
F
  0
ENDTAB
  0
TABLE
  2
STYLE
  5
3
330
0
100
AcDbSymbolTable
 70
    3
  0
STYLE
  5
50
330
2
100
AcDbSymbolTableRecord
100
AcDbTextStyleTableRecord
  2
Standard
 70
    0
 40
0
 41
1
 50
0
 71
    0
 42
1
  3
txt
  4

  0
ENDTAB
  0
TABLE
  2
VIEW
  5
6
330
0
100
AcDbSymbolTable
 70
    0
  0
ENDTAB
  0
TABLE
  2
UCS
  5
7
330
0
100
AcDbSymbolTable
 70
    0
  0
ENDTAB
  0
TABLE
  2
APPID
  5
9
330
0
100
AcDbSymbolTable
 70
    1
  0
APPID
  5
12
330
9
100
AcDbSymbolTableRecord
100
AcDbRegAppTableRecord
  2
ACAD
 70
    0
  0
APPID
  5
51
330
9
100
AcDbSymbolTableRecord
100
AcDbRegAppTableRecord
  2
LibreCad
 70
    0
  0
ENDTAB
  0
TABLE
  2
DIMSTYLE
  5
A
330
0
100
AcDbSymbolTable
 70
    1
100
AcDbDimStyleTable
 71
    1
  0
DIMSTYLE
105
52
330
A
100
AcDbSymbolTableRecord
100
AcDbDimStyleTableRecord
  2
Standard
 70
    0
 40
1
 41
2.5
 42
0.625
 43
0.38
 44
1.25
 45
0
 46
0
 47
0
 48
0
 49
1
140
2.5
141
0.09
142
2.5
143
25.4
144
1
145
0
146
1
147
0.625
148
0
 71
    0
 72
    0
 73
    0
 74
    1
 75
    0
 76
    0
 77
    0
 78
    1
 79
    0
170
    0
171
    2
172
    0
173
    0
174
    0
175
    0
176
    0
177
    0
178
    0
179
    0
271
    2
272
    4
273
    2
274
    2
275
    0
276
    0
277
    2
278
    0
279
    0
280
    0
281
    0
282
    0
283
    1
284
    0
285
    0
286
    0
288
    0
289
    3
340
standard
341

371
   -2
372
   -2
  0
ENDTAB
  0
TABLE
  2
BLOCK_RECORD
  5
1
330
0
100
AcDbSymbolTable
 70
    2
  0
BLOCK_RECORD
  5
1F
330
1
100
AcDbSymbolTableRecord
100
AcDbBlockTableRecord
  2
*Model_Space
 70
    0
280
    1
281
    0
  0
BLOCK_RECORD
  5
1E
330
1
100
AcDbSymbolTableRecord
100
AcDbBlockTableRecord
  2
*Paper_Space
 70
    0
280
    1
281
    0
  0
ENDTAB
  0
ENDSEC
  0
SECTION
  2
BLOCKS
  0
BLOCK
  5
20
330
1F
100
AcDbEntity
  8
0
100
AcDbBlockBegin
  2
*Model_Space
 70
    0
 10
0
 20
0
 30
0
  3
*Model_Space
  1

  0
ENDBLK
  5
21
330
1F
100
AcDbEntity
  8
0
100
AcDbBlockEnd
  0
BLOCK
  5
1C
330
1B
100
AcDbEntity
  8
0
100
AcDbBlockBegin
  2
*Paper_Space
 70
    0
 10
0
 20
0
 30
0
  3
*Paper_Space
  1

  0
ENDBLK
  5
1D
330
1F
100
AcDbEntity
  8
0
100
AcDbBlockEnd
  0
ENDSEC
  0
SECTION
  2
ENTITIES
  0
IMAGE
  5
55
100
AcDbEntity
  8
template
  6
ByLayer
 62
  256
370
   -1
100
AcDbRasterImage
 10
0
 20
0
 30
0
 11
1
 21
0
 31
0
 12
6.123233995736766e-17
 22
1
 32
0
 13
512
 23
504
340
53
 70
    1
280
    0
281
   50
282
   50
283
    0
360
54
  0
ARC
  5
56
100
AcDbEntity
  8
body2
  6
ByLayer
 62
  256
370
   -1
100
AcDbCircle
 10
74.00975852357476
 20
64.03362440890766
 40
64.12012511328709
100
AcDbArc
 50
199.964516534303
 51
292.0995124875178
  0
ARC
  5
57
100
AcDbEntity
  8
body2
  6
ByLayer
 62
  256
370
   -1
100
AcDbCircle
 10
176.0130547766607
 20
-125.1503103001718
 40
148.5931481270648
100
AcDbArc
 50
96.61875711788174
 51
110.6056030215867
  0
LINE
  5
58
100
AcDbEntity
  8
body2
  6
ByLayer
 62
  256
370
   -1
100
AcDbLine
 10
2.377784234176438
 20
73.36618828644993
 11
13.74298011289648
 21
42.14056924198789
  0
ARC
  5
59
100
AcDbEntity
  8
body2
  6
ByLayer
 62
  256
370
   -1
100
AcDbCircle
 10
69.04865434831903
 20
-92.08465409004637
 40
184.2757272281704
100
AcDbArc
 50
68.17058189180956
 51
110.0201201599937
  0
ARC
  5
5A
100
AcDbEntity
  8
body2
  6
ByLayer
 62
  256
370
   -1
100
AcDbCircle
 10
8.015939958891902
 20
75.41830914640394
 40
6
100
AcDbArc
 50
110.0201201599937
 51
200
  0
LINE
  5
5B
100
AcDbEntity
  8
body2
  6
ByLayer
 62
  256
370
   -1
100
AcDbLine
 10
123.7181948746682
 20
13.93660963891791
 11
98.13279985149646
 21
4.624287418540796
  0
ARC
  5
5C
100
AcDbEntity
  8
body2_cutout
  6
ByLayer
 62
  256
370
   -1
100
AcDbCircle
 10
56.83259994531468
 20
18.07277706134925
 40
20.39999999999999
100
AcDbArc
 50
22.57833734874508
 51
149.2704850752778
  0
LINE
  5
5D
100
AcDbEntity
  8
body2_cutout
  6
ByLayer
 62
  256
370
   -1
100
AcDbLine
 10
39.2969810769429
 20
28.496887138627
 11
33.65249017181849
 21
19.00162658549772
  0
ARC
  5
5E
100
AcDbEntity
  8
body2_cutout
  6
ByLayer
 62
  256
370
   -1
100
AcDbCircle
 10
31.07372269117558
 20
20.53458394980328
 40
3
100
AcDbArc
 50
225.3731972498909
 51
329.2704850752776
  0
LINE
  5
5F
100
AcDbEntity
  8
body2_cutout
  6
ByLayer
 62
  256
370
   -1
100
AcDbLine
 10
75.6690499865816
 20
25.9052830359946
 11
85.05099549683339
 21
3.342574693885993
  0
ARC
  5
60
100
AcDbEntity
  8
body2_cutout
  6
ByLayer
 62
  256
370
   -1
100
AcDbCircle
 10
87.82106167937266
 20
4.494413807804435
 40
3
100
AcDbArc
 50
202.5783452703119
 51
283.0599131167002
  0
ARC
  5
61
100
AcDbEntity
  8
body2_cutout
  6
ByLayer
 62
  256
370
   -1
100
AcDbCircle
 10
74.00975852357476
 20
64.03362440890766
 40
64.12012511328709
100
AcDbArc
 50
225.373197249891
 51
283.0599131167
  0
LINE
  5
62
100
AcDbEntity
  8
body2_cutout
  6
ByLayer
 62
  256
370
   -1
100
AcDbLine
 10
116.6373531759272
 20
39.71550741827591
 11
124.8491792643897
 21
17.54979889035864
  0
ARC
  5
63
100
AcDbEntity
  8
body2_cutout
  6
ByLayer
 62
  256
370
   -1
100
AcDbCircle
 10
122.0360282474186
 20
16.50759864294254
 40
3
100
AcDbArc
 50
290.8587348410043
 51
20.32837475533677
  0
ARC
  5
64
100
AcDbEntity
  8
body2_cutout
  6
ByLayer
 62
  256
370
   -1
100
AcDbCircle
 10
176.0130547766607
 20
-125.1503103001718
 40
148.5931481270648
100
AcDbArc
 50
96.61875711788174
 51
110.858734841004
  0
LINE
  5
65
100
AcDbEntity
  8
body2_cutout
  6
ByLayer
 62
  256
370
   -1
100
AcDbLine
 10
148.7614639918797
 20
62.52818658274161
 11
188.7599536280754
 21
29.47610295504839
  0
ARC
  5
66
100
AcDbEntity
  8
body2_cutout
  6
ByLayer
 62
  256
370
   -1
100
AcDbCircle
 10
190.6709365546267
 20
31.78870846711256
 40
3
100
AcDbArc
 50
230.4319439378612
 51
285.3759356711804
  0
ARC
  5
67
100
AcDbEntity
  8
body2_cutout
  6
ByLayer
 62
  256
370
   -1
100
AcDbCircle
 10
131.184086063514
 20
248.1091886800326
 40
227.3506976608282
100
AcDbArc
 50
276.9986525869174
 51
285.3759356711823
  0
ARC
  5
68
100
AcDbEntity
  8
body2_cutout
  6
ByLayer
 62
  256
370
   -1
100
AcDbCircle
 10
135.766780091331
 20
46.80246910070542
 40
20.39999999999999
100
AcDbArc
 50
50.4319383242596
 51
200.3283747553368
  0
ARC
  5
69
100
AcDbEntity
  8
body2
  6
ByLayer
 62
  256
370
   -1
100
AcDbCircle
 10
190.4880498922288
 20
48.92522482362529
 40
19.52574347257837
100
AcDbArc
 50
286.5800910992335
 51
89.40899246051467
  0
ARC
  5
6A
100
AcDbEntity
  8
body2
  6
ByLayer
 62
  256
370
   -1
100
AcDbCircle
 10
192.2049720560506
 20
215.37019001777
 40
146.928076730494
100
AcDbArc
 50
248.1705813926874
 51
267.0404144831302
  0
ARC
  5
6B
100
AcDbEntity
  8
body2
  6
ByLayer
 62
  256
370
   -1
100
AcDbCircle
 10
131.184086063514
 20
248.1091886800326
 40
227.3506976608282
100
AcDbArc
 50
276.9986525869174
 51
286.5800910992336
  0
ARC
  5
6C
100
AcDbEntity
  8
body2
  6
ByLayer
 62
  256
370
   -1
100
AcDbCircle
 10
192.2049720560506
 20
215.37019001777
 40
146.928076730494
100
AcDbArc
 50
267.0404144831302
 51
269.4089994506523
  0
LINE
  5
6D
100
AcDbEntity
  8
body
  6
ByLayer
 62
  256
370
   -1
100
AcDbLine
 10
104.1047536862365
 20
111.3227693992403
 11
74.19758003774528
 21
106.049327768278
  0
ARC
  5
6E
100
AcDbEntity
  8
body
  6
ByLayer
 62
  256
370
   -1
100
AcDbCircle
 10
128.3595364933008
 20
-35.27746655314134
 40
148.5931481270648
100
AcDbArc
 50
86.61875711788174
 51
100.6056030215867
  0
ARC
  5
6F
100
AcDbEntity
  8
body
  6
ByLayer
 62
  256
370
   -1
100
AcDbCircle
 10
149.0274523398361
 20
340.0958506517422
 40
227.3506976608282
100
AcDbArc
 50
266.9986525869174
 51
312.9155062396251
  0
ARC
  5
70
100
AcDbEntity
  8
body
  6
ByLayer
 62
  256
370
   -1
100
AcDbCircle
 10
203.4362265046183
 20
297.2580652910642
 40
146.928076730494
100
AcDbArc
 50
238.1705813926874
 51
308.7479945143187
  0
ARC
  5
71
100
AcDbEntity
  8
body
  6
ByLayer
 62
  256
370
   -1
100
AcDbCircle
 10
299.6217738351207
 20
178.124997532372
 40
6.187393908056492
100
AcDbArc
 50
312.9154468658279
 51
132.9154468658276
  0
ARC
  5
72
100
AcDbEntity
  8
body
  6
ByLayer
 62
  256
370
   -1
100
AcDbCircle
 10
18.37973838609003
 20
178.2159816840923
 40
24
100
AcDbArc
 50
280
 51
9.999999999999989
  0
ARC
  5
73
100
AcDbEntity
  8
body
  6
ByLayer
 62
  256
370
   -1
100
AcDbCircle
 10
60.75734501655184
 20
168.7450256040839
 40
64.12012511328709
100
AcDbArc
 50
199.7152575521597
 51
282.0995124875178
  0
LINE
  5
74
100
AcDbEntity
  8
body
  6
ByLayer
 62
  256
370
   -1
100
AcDbLine
 10
22.54729465009636
 20
154.5805956117993
 11
2.699091581427366
 21
151.0808218922124
  0
ARC
  5
75
100
AcDbEntity
  8
body
  6
ByLayer
 62
  256
370
   -1
100
AcDbCircle
 10
3.220036114428156
 20
148.1263986331758
 40
3
100
AcDbArc
 50
100
 51
199.7152575521596
  0
LINE
  5
76
100
AcDbEntity
  8
body
  6
ByLayer
 62
  256
370
   -1
100
AcDbLine
 10
42.01512445838303
 20
182.3835379480986
 11
39.59840050355881
 21
196.0894605761278
  0
ARC
  5
77
100
AcDbEntity
  8
body
  6
ByLayer
 62
  256
370
   -1
100
AcDbCircle
 10
28.76195659941709
 20
15.86002125064385
 40
184.2757272281704
100
AcDbArc
 50
58.17058189180955
 51
85.63690801538863
  0
ARC
  5
78
100
AcDbEntity
  8
body
  6
ByLayer
 62
  256
370
   -1
100
AcDbCircle
 10
42.55282376259543
 20
196.6104051091286
 40
3
100
AcDbArc
 50
85.63690801538822
 51
190
  0
CIRCLE
  5
79
100
AcDbEntity
  8
body
  6
ByLayer
 62
  256
370
   -1
100
AcDbCircle
 10
35.86012868802968
 20
126.4652090858086
 40
2
  0
CIRCLE
  5
7A
100
AcDbEntity
  8
body
  6
ByLayer
 62
  256
370
   -1
100
AcDbCircle
 10
118.5839799410551
 20
141.0516560098307
 40
2
  0
ARC
  5
7B
100
AcDbEntity
  8
neck
  6
ByLayer
 62
  256
370
   -1
100
AcDbCircle
 10
24.98369615207005
 20
252.2084902721107
 40
24
100
AcDbArc
 50
54.99999999999999
 51
260.2572055849053
  0
ARC
  5
7C
100
AcDbEntity
  8
neck
  6
ByLayer
 62
  256
370
   -1
100
AcDbCircle
 10
123.7025737082909
 20
319.1265581684178
 40
111.984932702482
100
AcDbArc
 50
256.6840748454408
 51
305.8070555285209
  0
LINE
  5
7D
100
AcDbEntity
  8
neck
  6
ByLayer
 62
  256
370
   -1
100
AcDbLine
 10
97.91852959563546
 20
236.9662321239975
 11
38.74953062449516
 21
271.8681393350465
  0
ARC
  5
7E
100
AcDbEntity
  8
neck
  6
ByLayer
 62
  256
370
   -1
100
AcDbCircle
 10
129.8316552808166
 20
291.0683672713451
 40
62.81312457201946
100
AcDbArc
 50
239.464997554751
 51
310.4357484587193
  0
SPLINE
  5
7F
100
AcDbEntity
  8
neck
  6
ByLayer
 62
  256
370
   -1
100
AcDbSpline
210
0
220
0
230
0
 70
    8
 71
    2
 72
   18
 73
   15
 74
    0
 42
1e-07
 43
1e-07
 40
0
 40
0
 40
0
 40
0.07692307692307693
 40
0.1538461538461539
 40
0.2307692307692308
 40
0.3076923076923077
 40
0.3846153846153846
 40
0.4615384615384616
 40
0.5384615384615384
 40
0.6153846153846154
 40
0.6923076923076923
 40
0.7692307692307693
 40
0.8461538461538461
 40
0.9230769230769231
 40
1
 40
1
 40
1
 10
189.2202037067562
 20
228.3076982781747
 30
0
 10
196.2360964205626
 20
233.9054003020675
 30
0
 10
206.8276785230421
 20
236.695601036195
 30
0
 10
212.1791231058045
 20
242.9678251353557
 30
0
 10
213.2678378135297
 20
253.4891675270586
 30
0
 10
210.1216450925604
 20
263.0603050698627
 30
0
 10
202.9321275347032
 20
264.8368105310459
 30
0
 10
198.5230051144369
 20
269.8166383974353
 30
0
 10
197.618927181752
 20
276.097717815806
 30
0
 10
192.6078924226935
 20
279.2450651370921
 30
0
 10
185.4936579341713
 20
280.8035351001628
 30
0
 10
180.0704763861329
 20
273.5916692591416
 30
0
 10
179.4526808222156
 20
262.9106959582954
 30
0
 10
171.4988591266566
 20
252.0149390263067
 30
0
 10
170.5719287993139
 20
243.259176396179
 30
0
  0
ARC
  5
80
100
AcDbEntity
  8
body2
  6
ByLayer
 62
  256
370
   -1
100
AcDbCircle
 10
365.9902414764252
 20
64.03362440890766
 40
64.12012511328709
100
AcDbArc
 50
247.9004875124822
 51
340.035483465697
  0
ARC
  5
81
100
AcDbEntity
  8
body2
  6
ByLayer
 62
  256
370
   -1
100
AcDbCircle
 10
263.9869452233394
 20
-125.1503103001718
 40
148.5931481270648
100
AcDbArc
 50
69.39439697841331
 51
83.38124288211826
  0
LINE
  5
82
100
AcDbEntity
  8
body2
  6
ByLayer
 62
  256
370
   -1
100
AcDbLine
 10
437.6222157658236
 20
73.36618828644993
 11
426.2570198871035
 21
42.14056924198788
  0
ARC
  5
83
100
AcDbEntity
  8
body2
  6
ByLayer
 62
  256
370
   -1
100
AcDbCircle
 10
370.951345651681
 20
-92.08465409004637
 40
184.2757272281704
100
AcDbArc
 50
69.97987984000635
 51
111.8294181081904
  0
ARC
  5
84
100
AcDbEntity
  8
body2
  6
ByLayer
 62
  256
370
   -1
100
AcDbCircle
 10
431.9840600411081
 20
75.41830914640394
 40
6
100
AcDbArc
 50
340
 51
69.97987984000635
  0
LINE
  5
85
100
AcDbEntity
  8
body2
  6
ByLayer
 62
  256
370
   -1
100
AcDbLine
 10
316.2818051253319
 20
13.93660963891791
 11
341.8672001485036
 21
4.624287418540796
  0
ARC
  5
86
100
AcDbEntity
  8
body2_cutout
  6
ByLayer
 62
  256
370
   -1
100
AcDbCircle
 10
383.1674000546853
 20
18.07277706134925
 40
20.39999999999999
100
AcDbArc
 50
30.72951492472221
 51
157.4216626512549
  0
LINE
  5
87
100
AcDbEntity
  8
body2_cutout
  6
ByLayer
 62
  256
370
   -1
100
AcDbLine
 10
400.7030189230571
 20
28.496887138627
 11
406.3475098281815
 21
19.00162658549772
  0
ARC
  5
88
100
AcDbEntity
  8
body2_cutout
  6
ByLayer
 62
  256
370
   -1
100
AcDbCircle
 10
408.9262773088244
 20
20.53458394980328
 40
3
100
AcDbArc
 50
210.7295149247224
 51
314.6268027501091
  0
LINE
  5
89
100
AcDbEntity
  8
body2_cutout
  6
ByLayer
 62
  256
370
   -1
100
AcDbLine
 10
364.3309500134184
 20
25.90528303599459
 11
354.9490045031666
 21
3.342574693885992
  0
ARC
  5
8A
100
AcDbEntity
  8
body2_cutout
  6
ByLayer
 62
  256
370
   -1
100
AcDbCircle
 10
352.1789383206274
 20
4.494413807804435
 40
3
100
AcDbArc
 50
256.9400868832998
 51
337.4216547296881
  0
ARC
  5
8B
100
AcDbEntity
  8
body2_cutout
  6
ByLayer
 62
  256
370
   -1
100
AcDbCircle
 10
365.9902414764252
 20
64.03362440890766
 40
64.12012511328709
100
AcDbArc
 50
256.9400868833
 51
314.626802750109
  0
LINE
  5
8C
100
AcDbEntity
  8
body2_cutout
  6
ByLayer
 62
  256
370
   -1
100
AcDbLine
 10
323.3626468240728
 20
39.71550741827591
 11
315.1508207356103
 21
17.54979889035864
  0
ARC
  5
8D
100
AcDbEntity
  8
body2_cutout
  6
ByLayer
 62
  256
370
   -1
100
AcDbCircle
 10
317.9639717525814
 20
16.50759864294254
 40
3
100
AcDbArc
 50
159.6716252446632
 51
249.1412651589957
  0
ARC
  5
8E
100
AcDbEntity
  8
body2_cutout
  6
ByLayer
 62
  256
370
   -1
100
AcDbCircle
 10
263.9869452233394
 20
-125.1503103001718
 40
148.5931481270648
100
AcDbArc
 50
69.14126515899602
 51
83.38124288211826
  0
LINE
  5
8F
100
AcDbEntity
  8
body2_cutout
  6
ByLayer
 62
  256
370
   -1
100
AcDbLine
 10
291.2385360081203
 20
62.5281865827416
 11
251.2400463719246
 21
29.4761029550484
  0
ARC
  5
90
100
AcDbEntity
  8
body2_cutout
  6
ByLayer
 62
  256
370
   -1
100
AcDbCircle
 10
249.3290634453733
 20
31.78870846711256
 40
3
100
AcDbArc
 50
254.6240643288196
 51
309.5680560621388
  0
ARC
  5
91
100
AcDbEntity
  8
body2_cutout
  6
ByLayer
 62
  256
370
   -1
100
AcDbCircle
 10
308.815913936486
 20
248.1091886800326
 40
227.3506976608282
100
AcDbArc
 50
254.6240643288177
 51
263.0013474130826
  0
ARC
  5
92
100
AcDbEntity
  8
body2_cutout
  6
ByLayer
 62
  256
370
   -1
100
AcDbCircle
 10
304.233219908669
 20
46.80246910070541
 40
20.39999999999999
100
AcDbArc
 50
339.6716252446632
 51
129.5680616757404
  0
ARC
  5
93
100
AcDbEntity
  8
body2
  6
ByLayer
 62
  256
370
   -1
100
AcDbCircle
 10
249.5119501077712
 20
48.92522482362529
 40
19.52574347257837
100
AcDbArc
 50
90.59100753948533
 51
253.4199089007665
  0
ARC
  5
94
100
AcDbEntity
  8
body2
  6
ByLayer
 62
  256
370
   -1
100
AcDbCircle
 10
247.7950279439494
 20
215.3701900177701
 40
146.928076730494
100
AcDbArc
 50
272.9595855168698
 51
291.8294186073126
  0
ARC
  5
95
100
AcDbEntity
  8
body2
  6
ByLayer
 62
  256
370
   -1
100
AcDbCircle
 10
308.815913936486
 20
248.1091886800326
 40
227.3506976608282
100
AcDbArc
 50
253.4199089007664
 51
263.0013474130826
  0
ARC
  5
96
100
AcDbEntity
  8
body2
  6
ByLayer
 62
  256
370
   -1
100
AcDbCircle
 10
247.7950279439494
 20
215.3701900177701
 40
146.928076730494
100
AcDbArc
 50
270.5910005493477
 51
272.9595855168698
  0
ARC
  5
97
100
AcDbEntity
  8
legs
  6
ByLayer
 62
  256
370
   -1
100
AcDbCircle
 10
29.57838186391416
 20
366
 40
20.39999999999999
100
AcDbArc
 50
327.2021702274403
 51
572.7978289790949
  0
ARC
  5
98
100
AcDbEntity
  8
legs
  6
ByLayer
 62
  256
370
   -1
100
AcDbCircle
 10
-34.16832802436917
 20
324.9214661906419
 40
55.43593450012688
100
AcDbArc
 50
337.967235309625
 51
392.7978300645486
  0
ARC
  5
99
100
AcDbEntity
  8
legs
  6
ByLayer
 62
  256
370
   -1
100
AcDbCircle
 10
20
 20
303
 40
3
100
AcDbArc
 50
157.9672353096252
 51
270
  0
LINE
  5
9A
100
AcDbEntity
  8
legs
  6
ByLayer
 62
  256
370
   -1
100
AcDbLine
 10
20
 20
300
 11
39.15676372782838
 21
300
  0
ARC
  5
9B
100
AcDbEntity
  8
legs
  6
ByLayer
 62
  256
370
   -1
100
AcDbCircle
 10
93.32509175219747
 20
324.9214661906419
 40
55.43593450012688
100
AcDbArc
 50
147.2021709999705
 51
202.032764690375
  0
ARC
  5
9C
100
AcDbEntity
  8
legs
  6
ByLayer
 62
  256
370
   -1
100
AcDbCircle
 10
39.15676372782838
 20
303
 40
3
100
AcDbArc
 50
270
 51
22.03276469037523
  0
ARC
  5
9D
100
AcDbEntity
  8
legs
  6
ByLayer
 62
  256
370
   -1
100
AcDbCircle
 10
87.33495208196788
 20
365.5382424569914
 40
20.39999999999999
100
AcDbArc
 50
327.2021702274403
 51
572.7978289790949
  0
ARC
  5
9E
100
AcDbEntity
  8
legs
  6
ByLayer
 62
  256
370
   -1
100
AcDbCircle
 10
23.58824219368455
 20
324.4597086476334
 40
55.43593450012688
100
AcDbArc
 50
337.967235309625
 51
392.7978300645486
  0
ARC
  5
9F
100
AcDbEntity
  8
legs
  6
ByLayer
 62
  256
370
   -1
100
AcDbCircle
 10
77.75657021805372
 20
302.5382424569914
 40
3
100
AcDbArc
 50
157.9672353096252
 51
270
  0
LINE
  5
A0
100
AcDbEntity
  8
legs
  6
ByLayer
 62
  256
370
   -1
100
AcDbLine
 10
77.75657021805372
 20
299.5382424569914
 11
96.9133339458821
 21
299.5382424569914
  0
ARC
  5
A1
100
AcDbEntity
  8
legs
  6
ByLayer
 62
  256
370
   -1
100
AcDbCircle
 10
151.0816619702512
 20
324.4597086476334
 40
55.43593450012688
100
AcDbArc
 50
147.2021709999705
 51
202.032764690375
  0
ARC
  5
A2
100
AcDbEntity
  8
legs
  6
ByLayer
 62
  256
370
   -1
100
AcDbCircle
 10
96.9133339458821
 20
302.5382424569914
 40
3
100
AcDbArc
 50
270
 51
22.03276469037523
  0
ARC
  5
A3
100
AcDbEntity
  8
legs
  6
ByLayer
 62
  256
370
   -1
100
AcDbCircle
 10
139.5783818639142
 20
366
 40
20.39999999999999
100
AcDbArc
 50
327.2021702274403
 51
572.7978289790949
  0
ARC
  5
A4
100
AcDbEntity
  8
legs
  6
ByLayer
 62
  256
370
   -1
100
AcDbCircle
 10
75.83167197563083
 20
324.9214661906419
 40
55.43593450012688
100
AcDbArc
 50
337.967235309625
 51
392.7978300645486
  0
ARC
  5
A5
100
AcDbEntity
  8
legs
  6
ByLayer
 62
  256
370
   -1
100
AcDbCircle
 10
130
 20
303
 40
3
100
AcDbArc
 50
157.9672353096252
 51
270
  0
LINE
  5
A6
100
AcDbEntity
  8
legs
  6
ByLayer
 62
  256
370
   -1
100
AcDbLine
 10
130
 20
300
 11
149.1567637278284
 21
300
  0
ARC
  5
A7
100
AcDbEntity
  8
legs
  6
ByLayer
 62
  256
370
   -1
100
AcDbCircle
 10
203.3250917521975
 20
324.9214661906419
 40
55.43593450012688
100
AcDbArc
 50
147.2021709999705
 51
202.032764690375
  0
ARC
  5
A8
100
AcDbEntity
  8
legs
  6
ByLayer
 62
  256
370
   -1
100
AcDbCircle
 10
149.1567637278284
 20
303
 40
3
100
AcDbArc
 50
270
 51
22.03276469037523
  0
ARC
  5
A9
100
AcDbEntity
  8
legs
  6
ByLayer
 62
  256
370
   -1
100
AcDbCircle
 10
197.3349520819679
 20
365.5382424569914
 40
20.39999999999999
100
AcDbArc
 50
327.2021702274403
 51
572.7978289790949
  0
ARC
  5
AA
100
AcDbEntity
  8
legs
  6
ByLayer
 62
  256
370
   -1
100
AcDbCircle
 10
133.5882421936846
 20
324.4597086476334
 40
55.43593450012688
100
AcDbArc
 50
337.967235309625
 51
392.7978300645486
  0
ARC
  5
AB
100
AcDbEntity
  8
legs
  6
ByLayer
 62
  256
370
   -1
100
AcDbCircle
 10
187.7565702180537
 20
302.5382424569914
 40
3
100
AcDbArc
 50
157.9672353096252
 51
270
  0
LINE
  5
AC
100
AcDbEntity
  8
legs
  6
ByLayer
 62
  256
370
   -1
100
AcDbLine
 10
187.7565702180537
 20
299.5382424569914
 11
206.9133339458821
 21
299.5382424569914
  0
ARC
  5
AD
100
AcDbEntity
  8
legs
  6
ByLayer
 62
  256
370
   -1
100
AcDbCircle
 10
261.0816619702512
 20
324.4597086476334
 40
55.43593450012688
100
AcDbArc
 50
147.2021709999705
 51
202.032764690375
  0
ARC
  5
AE
100
AcDbEntity
  8
legs
  6
ByLayer
 62
  256
370
   -1
100
AcDbCircle
 10
206.9133339458821
 20
302.5382424569914
 40
3
100
AcDbArc
 50
270
 51
22.03276469037523
  0
CIRCLE
  5
AF
100
AcDbEntity
  8
neck
  6
ByLayer
 62
  256
370
   -1
100
AcDbCircle
 10
198.4633954127681
 20
257.0255858071786
 40
4.318563590079791
  0
CIRCLE
  5
B0
100
AcDbEntity
  8
neck
  6
ByLayer
 62
  256
370
   -1
100
AcDbCircle
 10
24.98369615207005
 20
252.2084902721107
 40
2
  0
CIRCLE
  5
B1
100
AcDbEntity
  8
legs
  6
ByLayer
 62
  256
370
   -1
100
AcDbCircle
 10
29.57838186391416
 20
366
 40
2
  0
CIRCLE
  5
B2
100
AcDbEntity
  8
legs
  6
ByLayer
 62
  256
370
   -1
100
AcDbCircle
 10
87.33495208196788
 20
365.5382424569914
 40
2
  0
CIRCLE
  5
B3
100
AcDbEntity
  8
legs
  6
ByLayer
 62
  256
370
   -1
100
AcDbCircle
 10
139.5783818639142
 20
366
 40
2
  0
CIRCLE
  5
B4
100
AcDbEntity
  8
legs
  6
ByLayer
 62
  256
370
   -1
100
AcDbCircle
 10
197.3349520819679
 20
365.5382424569914
 40
2
  0
LINE
  5
B5
100
AcDbEntity
  8
neck
  6
ByLayer
 62
  256
370
   -1
100
AcDbLine
 10
20.92228276448387
 20
228.5546338995203
 11
97.91017938902041
 21
210.152352286206
  0
ENDSEC
  0
SECTION
  2
OBJECTS
  0
DICTIONARY
  5
C
330
0
100
AcDbDictionary
281
    1
  3
ACAD_GROUP
350
D
  3
ACAD_IMAGE_DICT
350
B6
  0
DICTIONARY
  5
D
330
C
100
AcDbDictionary
281
    1
  0
IMAGEDEF_REACTOR
  5
54
330
55
100
AcDbRasterImageDefReactor
 90
    2
330
55
  0
DICTIONARY
  5
B6
330
C
100
AcDbDictionary
281
    1
  3
dinasour
350
53
  0
IMAGEDEF
  5
53
102
{ACAD_REACTORS
330
54
102
}
100
AcDbRasterImageDef
 90
    0
  1
/home/duncan/Downloads/dinasour.jpg
 10
512
 20
504
 11
1
 21
1
280
    1
281
    0
  0
ENDSEC
  0
EOF
